<svg width="313" height="534" viewBox="0 0 313 534" fill="none" xmlns="http://www.w3.org/2000/svg">
<rect y="22" width="313" height="512" rx="35" fill="white"/>
<path d="M0 35C0 15.67 15.67 0 35 0H278C297.33 0 313 15.67 313 35V60H0V35Z" fill="#C5ECC8"/>
<path d="M68.7 264V240.55H63.75V237.8H65.6C66.6333 237.7 67.4167 237.4 67.95 236.9C68.5167 236.4 68.9833 235.583 69.35 234.45H73.5V264H68.7ZM85.8383 264.4C83.8716 264.4 82.2716 264.2 81.0383 263.8C79.8383 263.367 78.9549 262.583 78.3883 261.45C77.8549 260.283 77.5883 258.633 77.5883 256.5V254.3H82.3883V256.1C82.3883 257.9 82.6549 259.15 83.1883 259.85C83.7216 260.55 84.6049 260.9 85.8383 260.9C87.0049 260.9 87.8216 260.5 88.2883 259.7C88.7883 258.9 89.0383 257.65 89.0383 255.95V251.35C89.0383 250.55 88.9549 249.833 88.7883 249.2C88.6216 248.533 88.3049 248.017 87.8383 247.65C87.3716 247.25 86.6716 247.05 85.7383 247.05C84.8383 247.05 84.0883 247.317 83.4883 247.85C82.9216 248.35 82.5549 249.033 82.3883 249.9H77.6883V234.45H93.2383V237.95H82.4383V246.15C82.8049 245.517 83.3883 244.983 84.1883 244.55C85.0216 244.083 86.1383 243.85 87.5383 243.85C89.7383 243.85 91.3549 244.317 92.3883 245.25C93.4549 246.183 93.9883 247.833 93.9883 250.2V256.5C93.9883 258.6 93.6549 260.217 92.9883 261.35C92.3549 262.483 91.4216 263.283 90.1883 263.75C88.9883 264.183 87.5383 264.4 85.8383 264.4ZM105.468 264.65C103.902 264.617 102.502 264.283 101.268 263.65C100.068 262.983 99.1184 261.95 98.4184 260.55C97.7517 259.15 97.4184 257.3 97.4184 255V242.7C97.4184 239.767 98.185 237.6 99.7184 236.2C101.252 234.8 103.202 234.1 105.568 234.1C107.868 234.1 109.768 234.8 111.268 236.2C112.768 237.6 113.518 239.767 113.518 242.7V254.95C113.518 257.283 113.168 259.167 112.468 260.6C111.802 262.033 110.852 263.067 109.618 263.7C108.418 264.333 107.035 264.65 105.468 264.65ZM105.468 261.75C106.402 261.75 107.185 261.383 107.818 260.65C108.452 259.883 108.768 258.783 108.768 257.35V241.45C108.768 239.983 108.435 238.883 107.768 238.15C107.135 237.383 106.368 237 105.468 237C104.535 237 103.752 237.383 103.118 238.15C102.485 238.883 102.168 239.983 102.168 241.45V257.35C102.168 258.783 102.485 259.883 103.118 260.65C103.752 261.383 104.535 261.75 105.468 261.75ZM125.293 264.65C123.726 264.617 122.326 264.283 121.093 263.65C119.893 262.983 118.943 261.95 118.243 260.55C117.576 259.15 117.243 257.3 117.243 255V242.7C117.243 239.767 118.009 237.6 119.543 236.2C121.076 234.8 123.026 234.1 125.393 234.1C127.693 234.1 129.593 234.8 131.093 236.2C132.593 237.6 133.343 239.767 133.343 242.7V254.95C133.343 257.283 132.993 259.167 132.293 260.6C131.626 262.033 130.676 263.067 129.443 263.7C128.243 264.333 126.859 264.65 125.293 264.65ZM125.293 261.75C126.226 261.75 127.009 261.383 127.643 260.65C128.276 259.883 128.593 258.783 128.593 257.35V241.45C128.593 239.983 128.259 238.883 127.593 238.15C126.959 237.383 126.193 237 125.293 237C124.359 237 123.576 237.383 122.943 238.15C122.309 238.883 121.993 239.983 121.993 241.45V257.35C121.993 258.783 122.309 259.883 122.943 260.65C123.576 261.383 124.359 261.75 125.293 261.75ZM146.009 269.8V239.25H150.559L150.659 241.3C150.959 240.667 151.426 240.1 152.059 239.6C152.693 239.1 153.726 238.85 155.159 238.85C156.459 238.85 157.526 239.083 158.359 239.55C159.226 239.983 159.859 240.65 160.259 241.55C160.659 242.417 160.859 243.533 160.859 244.9V257C160.859 258.667 160.676 260.05 160.309 261.15C159.943 262.217 159.343 263.017 158.509 263.55C157.676 264.05 156.559 264.3 155.159 264.3C153.926 264.3 152.959 264.1 152.259 263.7C151.559 263.3 151.043 262.817 150.709 262.25V269.8H146.009ZM153.459 261.6C154.126 261.6 154.643 261.517 155.009 261.35C155.376 261.15 155.643 260.883 155.809 260.55C155.976 260.217 156.076 259.833 156.109 259.4C156.143 258.967 156.159 258.5 156.159 258V245.45C156.159 244.95 156.143 244.483 156.109 244.05C156.076 243.617 155.976 243.233 155.809 242.9C155.643 242.533 155.376 242.267 155.009 242.1C154.643 241.9 154.126 241.8 153.459 241.8C152.793 241.8 152.276 241.917 151.909 242.15C151.543 242.383 151.276 242.683 151.109 243.05C150.943 243.383 150.826 243.767 150.759 244.2C150.726 244.633 150.709 245.033 150.709 245.4V258.2C150.709 258.867 150.776 259.467 150.909 260C151.043 260.5 151.293 260.9 151.659 261.2C152.059 261.467 152.659 261.6 153.459 261.6ZM166.961 269.85C166.094 269.85 165.294 269.783 164.561 269.65C163.827 269.517 163.244 269.4 162.811 269.3V266.75C163.011 266.783 163.277 266.833 163.611 266.9C163.977 267 164.394 267.05 164.861 267.05C165.327 267.05 165.844 266.967 166.411 266.8C166.977 266.667 167.394 266.233 167.661 265.5C167.794 265.2 167.927 264.85 168.061 264.45C168.227 264.083 168.261 263.65 168.161 263.15L162.811 239.25H167.661L171.311 259.4L174.861 239.25H179.311L174.261 262.3C173.727 264.933 172.877 266.85 171.711 268.05C170.544 269.25 168.961 269.85 166.961 269.85ZM188.456 264.35C186.89 264.35 185.556 264.15 184.456 263.75C183.39 263.35 182.556 262.683 181.956 261.75C181.39 260.783 181.106 259.5 181.106 257.9V240.1C181.106 238.433 181.273 237.083 181.606 236.05C181.973 234.983 182.556 234.2 183.356 233.7C184.19 233.167 185.306 232.9 186.706 232.9C187.373 232.9 188.123 232.867 188.956 232.8C189.823 232.7 190.656 232.583 191.456 232.45C192.29 232.317 192.99 232.167 193.556 232C194.123 231.833 194.456 231.683 194.556 231.55V233.55C194.556 234.017 194.24 234.483 193.606 234.95C193.006 235.383 192.023 235.617 190.656 235.65H189.956C188.89 235.65 188.056 235.783 187.456 236.05C186.856 236.317 186.423 236.75 186.156 237.35C185.923 237.917 185.79 238.667 185.756 239.6V242.4C186.056 241.833 186.573 241.317 187.306 240.85C188.04 240.383 189.056 240.15 190.356 240.15C191.59 240.15 192.64 240.35 193.506 240.75C194.373 241.117 195.04 241.733 195.506 242.6C195.973 243.467 196.206 244.683 196.206 246.25V256.7C196.206 258.267 196.056 259.55 195.756 260.55C195.49 261.517 195.04 262.283 194.406 262.85C193.806 263.417 193.006 263.8 192.006 264C191.04 264.233 189.856 264.35 188.456 264.35ZM188.656 261.55C189.49 261.55 190.106 261.4 190.506 261.1C190.94 260.767 191.223 260.317 191.356 259.75C191.49 259.183 191.556 258.533 191.556 257.8V246.7C191.556 246 191.49 245.383 191.356 244.85C191.223 244.317 190.956 243.9 190.556 243.6C190.156 243.3 189.54 243.15 188.706 243.15C188.006 243.15 187.456 243.25 187.056 243.45C186.656 243.617 186.356 243.867 186.156 244.2C185.99 244.5 185.873 244.833 185.806 245.2C185.773 245.567 185.756 245.933 185.756 246.3V257.8C185.756 258.533 185.823 259.183 185.956 259.75C186.09 260.317 186.356 260.767 186.756 261.1C187.19 261.4 187.823 261.55 188.656 261.55ZM202.962 264.4C202.262 264.4 201.662 264.167 201.162 263.7C200.662 263.2 200.412 262.617 200.412 261.95C200.412 261.25 200.662 260.667 201.162 260.2C201.662 259.733 202.262 259.5 202.962 259.5C203.662 259.5 204.262 259.733 204.762 260.2C205.295 260.667 205.562 261.25 205.562 261.95C205.562 262.617 205.295 263.2 204.762 263.7C204.262 264.167 203.662 264.4 202.962 264.4Z" fill="#6BB673"/>
<path d="M40.3 343.8V336.7H33.5V331.85H40.3V324.75H45.2V331.85H52.05V336.7H45.2V343.8H40.3ZM64.1777 353.55V345.2H66.1277C66.5277 345.133 66.9444 344.95 67.3777 344.65C67.8111 344.35 68.1944 343.883 68.5277 343.25C68.8944 342.583 69.1277 341.717 69.2277 340.65L71.0777 323.25H84.4277V345.2H88.3777V353.55H84.4277V348.85H68.1277V353.55H64.1777ZM72.3777 345.2H79.4277V326.7H75.3777L73.8777 340.15C73.7777 341.05 73.6277 342.017 73.4277 343.05C73.2277 344.083 72.8777 344.8 72.3777 345.2ZM98.4996 348.4C96.8663 348.4 95.4829 348.2 94.3496 347.8C93.2496 347.367 92.4163 346.583 91.8496 345.45C91.3163 344.317 91.0496 342.683 91.0496 340.55V329.65C91.0496 327.15 91.6496 325.383 92.8496 324.35C94.0496 323.317 95.9329 322.8 98.4996 322.8C101.033 322.8 102.9 323.317 104.1 324.35C105.3 325.35 105.9 327.117 105.9 329.65V340.55C105.9 342.683 105.616 344.317 105.05 345.45C104.516 346.583 103.7 347.367 102.6 347.8C101.5 348.2 100.133 348.4 98.4996 348.4ZM98.4996 345.55C99.4663 345.55 100.15 345.3 100.55 344.8C100.983 344.267 101.2 343.333 101.2 342V329.25C101.2 327.95 101 327.033 100.6 326.5C100.2 325.967 99.4996 325.7 98.4996 325.7C97.5329 325.7 96.8329 325.967 96.3996 326.5C95.9663 327 95.7496 327.917 95.7496 329.25V342C95.7496 343.333 95.9663 344.267 96.3996 344.8C96.8329 345.3 97.5329 345.55 98.4996 345.55ZM109.363 348V323.25H114.063V333.3H119.863V323.25H124.513V348H119.863V336.9H114.063V348H109.363ZM135.563 348.4C133.863 348.4 132.446 348.217 131.313 347.85C130.213 347.45 129.379 346.7 128.813 345.6C128.279 344.5 128.013 342.85 128.013 340.65V329.05C128.013 326.65 128.613 325.017 129.813 324.15C131.013 323.25 132.879 322.8 135.413 322.8C137.946 322.8 139.813 323.25 141.012 324.15C142.213 325.017 142.813 326.65 142.813 329.05V335.65H132.713V342.5C132.713 343.733 132.896 344.6 133.263 345.1C133.663 345.6 134.413 345.85 135.513 345.85C136.513 345.85 137.196 345.617 137.563 345.15C137.929 344.65 138.113 343.767 138.113 342.5V338.85H142.813V340.6C142.813 342.767 142.529 344.417 141.963 345.55C141.429 346.683 140.629 347.45 139.563 347.85C138.496 348.217 137.163 348.4 135.563 348.4ZM132.713 333.45H138.113V328.85C138.113 327.717 137.929 326.9 137.563 326.4C137.196 325.9 136.479 325.65 135.413 325.65C134.379 325.65 133.663 325.9 133.263 326.4C132.896 326.9 132.713 327.717 132.713 328.85V333.45ZM146.032 348V323.25H150.232V339.55L156.882 323.25H161.082V348H156.932V330.65C155.766 333.55 154.599 336.45 153.432 339.35C152.299 342.217 151.116 345.1 149.882 348H146.032ZM153.482 320.7C152.049 320.7 150.949 320.433 150.182 319.9C149.416 319.367 148.882 318.733 148.582 318C148.316 317.233 148.166 316.55 148.132 315.95H150.782C150.849 316.783 151.132 317.4 151.632 317.8C152.166 318.2 152.782 318.4 153.482 318.4C154.249 318.4 154.882 318.217 155.382 317.85C155.916 317.45 156.216 316.817 156.282 315.95H158.932C158.899 316.717 158.699 317.467 158.332 318.2C157.966 318.933 157.382 319.533 156.582 320C155.816 320.467 154.782 320.7 153.482 320.7ZM164.685 348V323.25H169.385V344.6H174.185V323.25H178.885V344.6H183.685V323.25H188.385V348H164.685ZM192.029 348V323.25H196.729V333.3H202.529V323.25H207.179V348H202.529V336.9H196.729V348H192.029Z" fill="#6BB673"/>
<path d="M70.824 280.992C70.0133 281.792 69.0213 282.192 67.848 282.192C66.6747 282.192 65.6773 281.792 64.856 280.992C64.0453 280.181 63.64 279.184 63.64 278C63.64 276.816 64.0453 275.824 64.856 275.024C65.6773 274.213 66.6747 273.808 67.848 273.808C69.0213 273.808 70.0133 274.213 70.824 275.024C71.6453 275.824 72.056 276.816 72.056 278C72.056 279.184 71.6453 280.181 70.824 280.992ZM65.608 280.256C66.216 280.864 66.9627 281.168 67.848 281.168C68.7333 281.168 69.48 280.864 70.088 280.256C70.696 279.637 71 278.885 71 278C71 277.115 70.696 276.368 70.088 275.76C69.48 275.141 68.7333 274.832 67.848 274.832C66.9627 274.832 66.216 275.141 65.608 275.76C65 276.368 64.696 277.115 64.696 278C64.696 278.885 65 279.637 65.608 280.256ZM78.1111 273.808C79.2525 273.808 80.2231 274.213 81.0231 275.024C81.8338 275.835 82.2391 276.827 82.2391 278C82.2391 279.173 81.8338 280.165 81.0231 280.976C80.2231 281.787 79.2525 282.192 78.1111 282.192C76.6925 282.192 75.6151 281.605 74.8791 280.432V285.2H73.8231V274H74.8791V275.568C75.6151 274.395 76.6925 273.808 78.1111 273.808ZM75.7911 280.256C76.3991 280.864 77.1458 281.168 78.0311 281.168C78.9165 281.168 79.6631 280.864 80.2711 280.256C80.8791 279.637 81.1831 278.885 81.1831 278C81.1831 277.115 80.8791 276.368 80.2711 275.76C79.6631 275.141 78.9165 274.832 78.0311 274.832C77.1458 274.832 76.3991 275.141 75.7911 275.76C75.1831 276.368 74.8791 277.115 74.8791 278C74.8791 278.885 75.1831 279.637 75.7911 280.256ZM89.115 274V275.024H85.051V282H83.995V274H89.115ZM90.3078 281.904C90.1371 282.075 89.9291 282.16 89.6838 282.16C89.4384 282.16 89.2304 282.075 89.0598 281.904C88.8891 281.733 88.8038 281.525 88.8038 281.28C88.8038 281.035 88.8891 280.827 89.0598 280.656C89.2304 280.485 89.4384 280.4 89.6838 280.4C89.9291 280.4 90.1371 280.485 90.3078 280.656C90.4784 280.827 90.5638 281.035 90.5638 281.28C90.5638 281.525 90.4784 281.733 90.3078 281.904ZM101.739 277.888C102.614 278.208 103.051 278.832 103.051 279.76C103.051 280.411 102.833 280.949 102.395 281.376C101.969 281.792 101.35 282 100.539 282H96.6513V274H100.219C100.998 274 101.601 274.203 102.027 274.608C102.454 275.003 102.667 275.515 102.667 276.144C102.667 276.944 102.358 277.525 101.739 277.888ZM100.219 275.024H97.7073V277.456H100.219C101.147 277.456 101.611 277.04 101.611 276.208C101.611 275.835 101.489 275.547 101.243 275.344C101.009 275.131 100.667 275.024 100.219 275.024ZM100.539 280.976C101.009 280.976 101.366 280.864 101.611 280.64C101.867 280.416 101.995 280.101 101.995 279.696C101.995 279.323 101.867 279.029 101.611 278.816C101.366 278.592 101.009 278.48 100.539 278.48H97.7073V280.976H100.539ZM108.779 277.888C109.707 278.24 110.171 278.88 110.171 279.808C110.171 280.469 109.91 281.035 109.387 281.504C108.875 281.963 108.139 282.192 107.179 282.192C105.569 282.192 104.513 281.552 104.011 280.272L104.907 279.744C105.238 280.693 105.995 281.168 107.179 281.168C107.798 281.168 108.273 281.035 108.603 280.768C108.945 280.501 109.115 280.16 109.115 279.744C109.115 279.371 108.977 279.067 108.699 278.832C108.422 278.597 108.049 278.48 107.579 278.48H106.411V277.456H107.259C107.718 277.456 108.075 277.344 108.331 277.12C108.598 276.885 108.731 276.565 108.731 276.16C108.731 275.776 108.577 275.461 108.267 275.216C107.958 274.96 107.542 274.832 107.019 274.832C106.017 274.832 105.35 275.232 105.019 276.032L104.139 275.52C104.673 274.379 105.633 273.808 107.019 273.808C107.862 273.808 108.534 274.032 109.035 274.48C109.537 274.917 109.787 275.456 109.787 276.096C109.787 276.917 109.451 277.515 108.779 277.888ZM117.44 274H118.496V282H117.44V278.512H112.832V282H111.776V274H112.832V277.488H117.44V274ZM127.433 280.992C126.623 281.792 125.631 282.192 124.457 282.192C123.284 282.192 122.287 281.792 121.465 280.992C120.655 280.181 120.249 279.184 120.249 278C120.249 276.816 120.655 275.824 121.465 275.024C122.287 274.213 123.284 273.808 124.457 273.808C125.631 273.808 126.623 274.213 127.433 275.024C128.255 275.824 128.665 276.816 128.665 278C128.665 279.184 128.255 280.181 127.433 280.992ZM122.217 280.256C122.825 280.864 123.572 281.168 124.457 281.168C125.343 281.168 126.089 280.864 126.697 280.256C127.305 279.637 127.609 278.885 127.609 278C127.609 277.115 127.305 276.368 126.697 275.76C126.089 275.141 125.343 274.832 124.457 274.832C123.572 274.832 122.825 275.141 122.217 275.76C121.609 276.368 121.305 277.115 121.305 278C121.305 278.885 121.609 279.637 122.217 280.256ZM134.161 282.192C132.955 282.192 131.953 281.792 131.153 280.992C130.353 280.181 129.953 279.184 129.953 278C129.953 276.816 130.353 275.824 131.153 275.024C131.953 274.213 132.955 273.808 134.161 273.808C134.95 273.808 135.659 274 136.289 274.384C136.918 274.757 137.377 275.264 137.665 275.904L136.801 276.4C136.587 275.92 136.241 275.541 135.761 275.264C135.291 274.976 134.758 274.832 134.161 274.832C133.275 274.832 132.529 275.141 131.921 275.76C131.313 276.368 131.009 277.115 131.009 278C131.009 278.885 131.313 279.637 131.921 280.256C132.529 280.864 133.275 281.168 134.161 281.168C134.758 281.168 135.291 281.029 135.761 280.752C136.23 280.464 136.598 280.08 136.865 279.6L137.745 280.112C137.414 280.752 136.929 281.259 136.289 281.632C135.649 282.005 134.939 282.192 134.161 282.192Z" fill="#2D3548"/>
<path d="M69.208 364.888C70.0827 365.208 70.52 365.832 70.52 366.76C70.52 367.411 70.3013 367.949 69.864 368.376C69.4373 368.792 68.8187 369 68.008 369H64.12V361H67.688C68.4667 361 69.0693 361.203 69.496 361.608C69.9227 362.003 70.136 362.515 70.136 363.144C70.136 363.944 69.8267 364.525 69.208 364.888ZM67.688 362.024H65.176V364.456H67.688C68.616 364.456 69.08 364.04 69.08 363.208C69.08 362.835 68.9573 362.547 68.712 362.344C68.4773 362.131 68.136 362.024 67.688 362.024ZM68.008 367.976C68.4773 367.976 68.8347 367.864 69.08 367.64C69.336 367.416 69.464 367.101 69.464 366.696C69.464 366.323 69.336 366.029 69.08 365.816C68.8347 365.592 68.4773 365.48 68.008 365.48H65.176V367.976H68.008ZM76.248 364.888C77.176 365.24 77.64 365.88 77.64 366.808C77.64 367.469 77.3787 368.035 76.856 368.504C76.344 368.963 75.608 369.192 74.648 369.192C73.0373 369.192 71.9813 368.552 71.48 367.272L72.376 366.744C72.7067 367.693 73.464 368.168 74.648 368.168C75.2667 368.168 75.7413 368.035 76.072 367.768C76.4133 367.501 76.584 367.16 76.584 366.744C76.584 366.371 76.4453 366.067 76.168 365.832C75.8907 365.597 75.5173 365.48 75.048 365.48H73.88V364.456H74.728C75.1867 364.456 75.544 364.344 75.8 364.12C76.0667 363.885 76.2 363.565 76.2 363.16C76.2 362.776 76.0453 362.461 75.736 362.216C75.4267 361.96 75.0107 361.832 74.488 361.832C73.4853 361.832 72.8187 362.232 72.488 363.032L71.608 362.52C72.1413 361.379 73.1013 360.808 74.488 360.808C75.3307 360.808 76.0027 361.032 76.504 361.48C77.0053 361.917 77.256 362.456 77.256 363.096C77.256 363.917 76.92 364.515 76.248 364.888ZM84.909 361H85.965V369H84.909V365.512H80.301V369H79.245V361H80.301V364.488H84.909V361ZM94.9021 367.992C94.0915 368.792 93.0995 369.192 91.9261 369.192C90.7528 369.192 89.7555 368.792 88.9341 367.992C88.1235 367.181 87.7181 366.184 87.7181 365C87.7181 363.816 88.1235 362.824 88.9341 362.024C89.7555 361.213 90.7528 360.808 91.9261 360.808C93.0995 360.808 94.0915 361.213 94.9021 362.024C95.7235 362.824 96.1341 363.816 96.1341 365C96.1341 366.184 95.7235 367.181 94.9021 367.992ZM89.6861 367.256C90.2941 367.864 91.0408 368.168 91.9261 368.168C92.8115 368.168 93.5581 367.864 94.1661 367.256C94.7741 366.637 95.0781 365.885 95.0781 365C95.0781 364.115 94.7741 363.368 94.1661 362.76C93.5581 362.141 92.8115 361.832 91.9261 361.832C91.0408 361.832 90.2941 362.141 89.6861 362.76C89.0781 363.368 88.7741 364.115 88.7741 365C88.7741 365.885 89.0781 366.637 89.6861 367.256ZM101.629 369.192C100.424 369.192 99.4213 368.792 98.6213 367.992C97.8213 367.181 97.4213 366.184 97.4213 365C97.4213 363.816 97.8213 362.824 98.6213 362.024C99.4213 361.213 100.424 360.808 101.629 360.808C102.419 360.808 103.128 361 103.757 361.384C104.387 361.757 104.845 362.264 105.133 362.904L104.269 363.4C104.056 362.92 103.709 362.541 103.229 362.264C102.76 361.976 102.227 361.832 101.629 361.832C100.744 361.832 99.9973 362.141 99.3893 362.76C98.7813 363.368 98.4773 364.115 98.4773 365C98.4773 365.885 98.7813 366.637 99.3893 367.256C99.9973 367.864 100.744 368.168 101.629 368.168C102.227 368.168 102.76 368.029 103.229 367.752C103.699 367.464 104.067 367.08 104.333 366.6L105.213 367.112C104.883 367.752 104.397 368.259 103.757 368.632C103.117 369.005 102.408 369.192 101.629 369.192ZM117.449 361V369H116.393V362.024H111.785V369H110.729V361H117.449ZM126.387 367.992C125.576 368.792 124.584 369.192 123.411 369.192C122.237 369.192 121.24 368.792 120.419 367.992C119.608 367.181 119.203 366.184 119.203 365C119.203 363.816 119.608 362.824 120.419 362.024C121.24 361.213 122.237 360.808 123.411 360.808C124.584 360.808 125.576 361.213 126.387 362.024C127.208 362.824 127.619 363.816 127.619 365C127.619 366.184 127.208 367.181 126.387 367.992ZM121.171 367.256C121.779 367.864 122.525 368.168 123.411 368.168C124.296 368.168 125.043 367.864 125.651 367.256C126.259 366.637 126.562 365.885 126.562 365C126.562 364.115 126.259 363.368 125.651 362.76C125.043 362.141 124.296 361.832 123.411 361.832C122.525 361.832 121.779 362.141 121.171 362.76C120.563 363.368 120.259 364.115 120.259 365C120.259 365.885 120.563 366.637 121.171 367.256ZM137.114 369.192C135.908 369.192 134.906 368.792 134.106 367.992C133.306 367.181 132.906 366.184 132.906 365C132.906 363.816 133.306 362.824 134.106 362.024C134.906 361.213 135.908 360.808 137.114 360.808C137.903 360.808 138.612 361 139.242 361.384C139.871 361.757 140.33 362.264 140.618 362.904L139.754 363.4C139.54 362.92 139.194 362.541 138.714 362.264C138.244 361.976 137.711 361.832 137.114 361.832C136.228 361.832 135.482 362.141 134.874 362.76C134.266 363.368 133.962 364.115 133.962 365C133.962 365.885 134.266 366.637 134.874 367.256C135.482 367.864 136.228 368.168 137.114 368.168C137.711 368.168 138.244 368.029 138.714 367.752C139.183 367.464 139.551 367.08 139.818 366.6L140.698 367.112C140.367 367.752 139.882 368.259 139.242 368.632C138.602 369.005 137.892 369.192 137.114 369.192ZM145.832 360.808C147.016 360.808 147.97 361.229 148.696 362.072C149.432 362.904 149.8 363.891 149.8 365.032C149.8 365.149 149.789 365.315 149.768 365.528H142.744C142.85 366.339 143.192 366.984 143.768 367.464C144.354 367.933 145.074 368.168 145.928 368.168C146.536 368.168 147.058 368.045 147.496 367.8C147.944 367.544 148.28 367.213 148.504 366.808L149.432 367.352C149.08 367.917 148.6 368.365 147.992 368.696C147.384 369.027 146.69 369.192 145.912 369.192C144.653 369.192 143.629 368.797 142.84 368.008C142.05 367.219 141.656 366.216 141.656 365C141.656 363.805 142.045 362.808 142.824 362.008C143.602 361.208 144.605 360.808 145.832 360.808ZM145.832 361.832C145 361.832 144.301 362.083 143.736 362.584C143.181 363.075 142.85 363.715 142.744 364.504H148.712C148.605 363.661 148.28 363.005 147.736 362.536C147.192 362.067 146.557 361.832 145.832 361.832ZM155.767 360.808C156.909 360.808 157.879 361.213 158.679 362.024C159.49 362.835 159.895 363.827 159.895 365C159.895 366.173 159.49 367.165 158.679 367.976C157.879 368.787 156.909 369.192 155.767 369.192C154.349 369.192 153.271 368.605 152.535 367.432V372.2H151.479V361H152.535V362.568C153.271 361.395 154.349 360.808 155.767 360.808ZM153.447 367.256C154.055 367.864 154.802 368.168 155.687 368.168C156.573 368.168 157.319 367.864 157.927 367.256C158.535 366.637 158.839 365.885 158.839 365C158.839 364.115 158.535 363.368 157.927 362.76C157.319 362.141 156.573 361.832 155.687 361.832C154.802 361.832 154.055 362.141 153.447 362.76C152.839 363.368 152.535 364.115 152.535 365C152.535 365.885 152.839 366.637 153.447 367.256ZM168.059 367.976H169.179V371.144H168.123V369H161.595V371.144H160.539V367.976H161.515C162.059 367.261 162.331 366.253 162.331 364.952V361H168.059V367.976ZM162.795 367.976H167.003V362.024H163.387V364.952C163.387 366.179 163.189 367.187 162.795 367.976ZM177.336 367.976H178.616V371.144H177.56V369H170.776V361H171.832V367.976H176.28V361H177.336V367.976ZM185.661 361H186.781L183.357 369.736C183.048 370.525 182.605 371.144 182.029 371.592C181.464 372.051 180.829 372.253 180.125 372.2V371.208C181.085 371.315 181.816 370.76 182.317 369.544L182.525 369.048L178.941 361H180.061L183.069 367.704L185.661 361Z" fill="#2D3548"/>
<path d="M64.5 120V102.27H72.51V104.31H67.5V120H64.5ZM73.9287 123.48V105.15H76.6587L76.7187 106.38C76.8987 106 77.1787 105.66 77.5587 105.36C77.9387 105.06 78.5587 104.91 79.4187 104.91C80.1987 104.91 80.8387 105.05 81.3387 105.33C81.8587 105.59 82.2387 105.99 82.4787 106.53C82.7187 107.05 82.8387 107.72 82.8387 108.54V115.8C82.8387 116.8 82.7287 117.63 82.5087 118.29C82.2887 118.93 81.9287 119.41 81.4287 119.73C80.9287 120.03 80.2587 120.18 79.4187 120.18C78.6787 120.18 78.0987 120.06 77.6787 119.82C77.2587 119.58 76.9487 119.29 76.7487 118.95V123.48H73.9287ZM78.3987 118.56C78.7987 118.56 79.1087 118.51 79.3287 118.41C79.5487 118.29 79.7087 118.13 79.8087 117.93C79.9087 117.73 79.9687 117.5 79.9887 117.24C80.0087 116.98 80.0187 116.7 80.0187 116.4V108.87C80.0187 108.57 80.0087 108.29 79.9887 108.03C79.9687 107.77 79.9087 107.54 79.8087 107.34C79.7087 107.12 79.5487 106.96 79.3287 106.86C79.1087 106.74 78.7987 106.68 78.3987 106.68C77.9987 106.68 77.6887 106.75 77.4687 106.89C77.2487 107.03 77.0887 107.21 76.9887 107.43C76.8887 107.63 76.8187 107.86 76.7787 108.12C76.7587 108.38 76.7487 108.62 76.7487 108.84V116.52C76.7487 116.92 76.7887 117.28 76.8687 117.6C76.9487 117.9 77.0987 118.14 77.3187 118.32C77.5587 118.48 77.9187 118.56 78.3987 118.56ZM86.4994 123.51C85.9794 123.51 85.4994 123.47 85.0594 123.39C84.6194 123.31 84.2694 123.24 84.0094 123.18V121.65C84.1294 121.67 84.2894 121.7 84.4894 121.74C84.7094 121.8 84.9594 121.83 85.2394 121.83C85.5194 121.83 85.8294 121.78 86.1694 121.68C86.5094 121.6 86.7594 121.34 86.9194 120.9C86.9994 120.72 87.0794 120.51 87.1594 120.27C87.2594 120.05 87.2794 119.79 87.2194 119.49L84.0094 105.15H86.9194L89.1094 117.24L91.2394 105.15H93.9094L90.8794 118.98C90.5594 120.56 90.0494 121.71 89.3494 122.43C88.6494 123.15 87.6994 123.51 86.4994 123.51ZM95.0468 120V105.15H104.167V120H101.347V107.19H97.8668V120H95.0468ZM106.355 120V105.15H115.475V120H112.655V107.19H109.175V120H106.355ZM120.544 120.24C120.044 120.24 119.564 120.17 119.104 120.03C118.664 119.89 118.284 119.6 117.964 119.16C117.664 118.7 117.514 118 117.514 117.06V115.29C117.514 114.31 117.794 113.53 118.354 112.95C118.934 112.35 119.794 111.82 120.934 111.36C121.594 111.08 122.114 110.83 122.494 110.61C122.894 110.39 123.184 110.13 123.364 109.83C123.544 109.53 123.634 109.12 123.634 108.6V107.85C123.634 107.47 123.554 107.18 123.394 106.98C123.254 106.78 123.064 106.64 122.824 106.56C122.604 106.46 122.344 106.41 122.044 106.41C121.384 106.41 120.944 106.61 120.724 107.01C120.524 107.41 120.424 108.05 120.424 108.93V110.19H117.874V108.66C117.874 107.92 117.974 107.27 118.174 106.71C118.374 106.13 118.774 105.68 119.374 105.36C119.974 105.02 120.864 104.85 122.044 104.85C123.264 104.85 124.184 104.97 124.804 105.21C125.444 105.45 125.884 105.82 126.124 106.32C126.364 106.8 126.484 107.42 126.484 108.18V120H123.664V118.29C123.464 118.91 123.064 119.39 122.464 119.73C121.884 120.07 121.244 120.24 120.544 120.24ZM121.714 118.35C122.394 118.35 122.874 118.11 123.154 117.63C123.454 117.13 123.604 116.44 123.604 115.56V111.39C123.464 111.63 123.214 111.85 122.854 112.05C122.494 112.25 122.144 112.46 121.804 112.68C121.304 112.98 120.924 113.3 120.664 113.64C120.404 113.96 120.274 114.41 120.274 114.99V116.4C120.274 116.94 120.334 117.36 120.454 117.66C120.594 117.94 120.774 118.13 120.994 118.23C121.234 118.31 121.474 118.35 121.714 118.35ZM63.6 156.33V151.32H64.77C65.01 151.28 65.26 151.17 65.52 150.99C65.78 150.81 66.01 150.53 66.21 150.15C66.43 149.75 66.57 149.23 66.63 148.59L67.74 138.15H75.75V151.32H78.12V156.33H75.75V153.51H65.97V156.33H63.6ZM68.52 151.32H72.75V140.22H70.32L69.42 148.29C69.36 148.83 69.27 149.41 69.15 150.03C69.03 150.65 68.82 151.08 68.52 151.32ZM79.1531 153V151.5C79.5331 151.5 79.8731 151.29 80.1731 150.87C80.4731 150.45 80.6431 149.9 80.6831 149.22L81.6431 138.15H90.1631V153H87.2831V140.19H84.4931L83.5631 150C83.5231 150.28 83.4731 150.6 83.4131 150.96C83.3731 151.3 83.2631 151.63 83.0831 151.95C82.9231 152.25 82.6731 152.5 82.3331 152.7C81.9931 152.9 81.5131 153 80.8931 153H79.1531ZM92.0222 153L93.7922 148.02C94.0322 147.36 94.3022 146.88 94.6022 146.58C94.9222 146.28 95.2822 146.11 95.6822 146.07C94.7422 145.99 94.0322 145.7 93.5522 145.2C93.0922 144.68 92.8622 143.86 92.8622 142.74V141.69C92.8622 140.47 93.1722 139.58 93.7922 139.02C94.4122 138.44 95.2822 138.15 96.4022 138.15H102.102V153H99.1322V146.37L97.7822 146.79C97.4622 147.13 97.1722 147.58 96.9122 148.14C96.6722 148.68 96.4422 149.29 96.2222 149.97L95.2322 153H92.0222ZM97.6022 145.2H99.1322V139.74H97.1222C96.7022 139.74 96.3622 139.95 96.1022 140.37C95.8422 140.77 95.7122 141.27 95.7122 141.87V142.59C95.7322 143.59 95.9022 144.28 96.2222 144.66C96.5622 145.02 97.0222 145.2 97.6022 145.2ZM109.01 156.33V151.32H110.18C110.42 151.28 110.67 151.17 110.93 150.99C111.19 150.81 111.42 150.53 111.62 150.15C111.84 149.75 111.98 149.23 112.04 148.59L113.15 138.15H121.16V151.32H123.53V156.33H121.16V153.51H111.38V156.33H109.01ZM113.93 151.32H118.16V140.22H115.73L114.83 148.29C114.77 148.83 114.68 149.41 114.56 150.03C114.44 150.65 114.23 151.08 113.93 151.32ZM129.663 153.24C128.643 153.24 127.793 153.13 127.113 152.91C126.453 152.67 125.953 152.22 125.613 151.56C125.293 150.9 125.133 149.91 125.133 148.59V141.63C125.133 140.19 125.493 139.21 126.213 138.69C126.933 138.15 128.053 137.88 129.573 137.88C131.093 137.88 132.213 138.15 132.933 138.69C133.653 139.21 134.013 140.19 134.013 141.63V145.59H127.953V149.7C127.953 150.44 128.063 150.96 128.283 151.26C128.523 151.56 128.973 151.71 129.633 151.71C130.233 151.71 130.643 151.57 130.863 151.29C131.083 150.99 131.193 150.46 131.193 149.7V147.51H134.013V148.56C134.013 149.86 133.843 150.85 133.503 151.53C133.183 152.21 132.703 152.67 132.063 152.91C131.423 153.13 130.623 153.24 129.663 153.24ZM127.953 144.27H131.193V141.51C131.193 140.83 131.083 140.34 130.863 140.04C130.643 139.74 130.213 139.59 129.573 139.59C128.953 139.59 128.523 139.74 128.283 140.04C128.063 140.34 127.953 140.83 127.953 141.51V144.27ZM138.165 153V140.19H135.225V138.15H144.015V140.19H141.045V153H138.165ZM149.937 153.24C148.917 153.24 148.067 153.13 147.387 152.91C146.727 152.67 146.227 152.22 145.887 151.56C145.567 150.9 145.407 149.91 145.407 148.59V141.63C145.407 140.19 145.767 139.21 146.487 138.69C147.207 138.15 148.327 137.88 149.847 137.88C151.367 137.88 152.487 138.15 153.207 138.69C153.927 139.21 154.287 140.19 154.287 141.63V145.59H148.227V149.7C148.227 150.44 148.337 150.96 148.557 151.26C148.797 151.56 149.247 151.71 149.907 151.71C150.507 151.71 150.917 151.57 151.137 151.29C151.357 150.99 151.467 150.46 151.467 149.7V147.51H154.287V148.56C154.287 149.86 154.117 150.85 153.777 151.53C153.457 152.21 152.977 152.67 152.337 152.91C151.697 153.13 150.897 153.24 149.937 153.24ZM148.227 144.27H151.467V141.51C151.467 140.83 151.357 140.34 151.137 140.04C150.917 139.74 150.487 139.59 149.847 139.59C149.227 139.59 148.797 139.74 148.557 140.04C148.337 140.34 148.227 140.83 148.227 141.51V144.27ZM156.219 153V138.15H158.739V147.93L162.729 138.15H165.249V153H162.759V142.59C162.059 144.33 161.359 146.07 160.659 147.81C159.979 149.53 159.269 151.26 158.529 153H156.219ZM160.689 136.62C159.829 136.62 159.169 136.46 158.709 136.14C158.249 135.82 157.929 135.44 157.749 135C157.589 134.54 157.499 134.13 157.479 133.77H159.069C159.109 134.27 159.279 134.64 159.579 134.88C159.899 135.12 160.269 135.24 160.689 135.24C161.149 135.24 161.529 135.13 161.829 134.91C162.149 134.67 162.329 134.29 162.369 133.77H163.959C163.939 134.23 163.819 134.68 163.599 135.12C163.379 135.56 163.029 135.92 162.549 136.2C162.089 136.48 161.469 136.62 160.689 136.62ZM177.006 153.24C176.026 153.24 175.196 153.12 174.516 152.88C173.856 152.62 173.356 152.15 173.016 151.47C172.696 150.79 172.536 149.81 172.536 148.53V141.99C172.536 140.49 172.896 139.43 173.616 138.81C174.336 138.19 175.466 137.88 177.006 137.88C178.526 137.88 179.646 138.19 180.366 138.81C181.086 139.41 181.446 140.47 181.446 141.99V148.53C181.446 149.81 181.276 150.79 180.936 151.47C180.616 152.15 180.126 152.62 179.466 152.88C178.806 153.12 177.986 153.24 177.006 153.24ZM177.006 151.53C177.586 151.53 177.996 151.38 178.236 151.08C178.496 150.76 178.626 150.2 178.626 149.4V141.75C178.626 140.97 178.506 140.42 178.266 140.1C178.026 139.78 177.606 139.62 177.006 139.62C176.426 139.62 176.006 139.78 175.746 140.1C175.486 140.4 175.356 140.95 175.356 141.75V149.4C175.356 150.2 175.486 150.76 175.746 151.08C176.006 151.38 176.426 151.53 177.006 151.53ZM185.743 153V140.19H182.803V138.15H191.593V140.19H188.623V153H185.743ZM200.57 153V138.93H197.6V137.28H198.71C199.33 137.22 199.8 137.04 200.12 136.74C200.46 136.44 200.74 135.95 200.96 135.27H203.45V153H200.57ZM210.883 153.39C209.943 153.37 209.103 153.17 208.363 152.79C207.643 152.39 207.073 151.77 206.653 150.93C206.253 150.09 206.053 148.98 206.053 147.6V140.22C206.053 138.46 206.513 137.16 207.433 136.32C208.353 135.48 209.523 135.06 210.943 135.06C212.323 135.06 213.463 135.48 214.363 136.32C215.263 137.16 215.713 138.46 215.713 140.22V147.57C215.713 148.97 215.503 150.1 215.083 150.96C214.683 151.82 214.113 152.44 213.373 152.82C212.653 153.2 211.823 153.39 210.883 153.39ZM210.883 151.65C211.443 151.65 211.913 151.43 212.293 150.99C212.673 150.53 212.863 149.87 212.863 149.01V139.47C212.863 138.59 212.663 137.93 212.263 137.49C211.883 137.03 211.423 136.8 210.883 136.8C210.323 136.8 209.853 137.03 209.473 137.49C209.093 137.93 208.903 138.59 208.903 139.47V149.01C208.903 149.87 209.093 150.53 209.473 150.99C209.853 151.43 210.323 151.65 210.883 151.65ZM222.473 153V151.5C222.853 151.5 223.193 151.29 223.493 150.87C223.793 150.45 223.963 149.9 224.003 149.22L224.963 138.15H233.483V153H230.603V140.19H227.813L226.883 150C226.843 150.28 226.793 150.6 226.733 150.96C226.693 151.3 226.583 151.63 226.403 151.95C226.243 152.25 225.993 152.5 225.653 152.7C225.313 152.9 224.833 153 224.213 153H222.473ZM240.113 153.24C239.093 153.24 238.243 153.13 237.563 152.91C236.903 152.67 236.403 152.22 236.063 151.56C235.743 150.9 235.583 149.91 235.583 148.59V141.63C235.583 140.19 235.943 139.21 236.663 138.69C237.383 138.15 238.503 137.88 240.023 137.88C241.543 137.88 242.663 138.15 243.382 138.69C244.103 139.21 244.463 140.19 244.463 141.63V145.59H238.403V149.7C238.403 150.44 238.513 150.96 238.733 151.26C238.973 151.56 239.423 151.71 240.083 151.71C240.683 151.71 241.093 151.57 241.313 151.29C241.533 150.99 241.643 150.46 241.643 149.7V147.51H244.463V148.56C244.463 149.86 244.293 150.85 243.953 151.53C243.633 152.21 243.153 152.67 242.513 152.91C241.873 153.13 241.073 153.24 240.113 153.24ZM238.403 144.27H241.643V141.51C241.643 140.83 241.533 140.34 241.313 140.04C241.093 139.74 240.663 139.59 240.023 139.59C239.403 139.59 238.973 139.74 238.733 140.04C238.513 140.34 238.403 140.83 238.403 141.51V144.27ZM248.614 153V140.19H245.674V138.15H254.464V140.19H251.494V153H248.614ZM257.866 144.9C257.446 144.9 257.086 144.76 256.786 144.48C256.486 144.18 256.336 143.83 256.336 143.43C256.336 143.01 256.486 142.66 256.786 142.38C257.086 142.1 257.446 141.96 257.866 141.96C258.286 141.96 258.646 142.1 258.946 142.38C259.266 142.66 259.426 143.01 259.426 143.43C259.426 143.83 259.266 144.18 258.946 144.48C258.646 144.76 258.286 144.9 257.866 144.9ZM257.866 153.24C257.446 153.24 257.086 153.1 256.786 152.82C256.486 152.52 256.336 152.17 256.336 151.77C256.336 151.35 256.486 151 256.786 150.72C257.086 150.44 257.446 150.3 257.866 150.3C258.286 150.3 258.646 150.44 258.946 150.72C259.266 151 259.426 151.35 259.426 151.77C259.426 152.17 259.266 152.52 258.946 152.82C258.646 153.1 258.286 153.24 257.866 153.24Z" fill="#2D3548"/>
<path d="M37.092 38.154C36.256 38.154 35.5667 38.022 35.024 37.758C34.496 37.494 34.1073 37.12 33.858 36.636C33.6087 36.152 33.484 35.5873 33.484 34.942V33.512H35.596V34.436C35.596 35.14 35.7133 35.6827 35.948 36.064C36.1827 36.4307 36.5567 36.6213 37.07 36.636C37.5393 36.636 37.8987 36.4673 38.148 36.13C38.3973 35.7927 38.522 35.3453 38.522 34.788V33.534C38.522 32.9913 38.3387 32.5953 37.972 32.346C37.6053 32.082 37.092 31.9427 36.432 31.928H35.31V30.696H36.454C36.762 30.696 37.048 30.652 37.312 30.564C37.576 30.476 37.796 30.344 37.972 30.168C38.148 30.0067 38.2727 29.8307 38.346 29.64C38.4193 29.4493 38.456 29.244 38.456 29.024V28.166C38.456 27.6967 38.346 27.2933 38.126 26.956C37.9207 26.6187 37.5687 26.45 37.07 26.45C36.542 26.45 36.1753 26.6407 35.97 27.022C35.7647 27.3887 35.662 27.8873 35.662 28.518V29.134H33.528V28.012C33.528 27.0147 33.814 26.252 34.386 25.724C34.9727 25.196 35.8747 24.932 37.092 24.932C38.3533 24.932 39.2627 25.1813 39.82 25.68C40.3773 26.164 40.656 26.8827 40.656 27.836V28.716C40.656 29.464 40.4653 30.0653 40.084 30.52C39.7173 30.9747 39.1967 31.2607 38.522 31.378C39.226 31.4513 39.7687 31.7227 40.15 32.192C40.5313 32.6613 40.722 33.27 40.722 34.018V34.942C40.722 35.6313 40.5973 36.218 40.348 36.702C40.1133 37.186 39.732 37.5527 39.204 37.802C38.676 38.0367 37.972 38.154 37.092 38.154ZM41.9965 38L44.5265 24.998H47.4745L49.9605 38H47.6285L47.1005 35.36H44.7245L44.2405 38H41.9965ZM44.7685 34.282H47.0785L45.9345 27.044L44.7685 34.282ZM55.2105 40.442V36.658H56.3545C56.6479 36.6287 56.9045 36.46 57.1245 36.152C57.3592 35.8293 57.5059 35.3747 57.5645 34.788C57.6232 34.2307 57.6819 33.6147 57.7405 32.94C57.8139 32.2507 57.8799 31.5467 57.9385 30.828C58.0119 30.0947 58.0705 29.376 58.1145 28.672C58.1732 27.968 58.2245 27.3007 58.2685 26.67C58.3125 26.0393 58.3492 25.482 58.3785 24.998H64.6925V36.658H66.8045V40.442H65.0445V38.374H56.9705V40.442H55.2105ZM59.0605 36.658H62.6245V26.494H60.3585C60.2412 27.8433 60.1312 29.1853 60.0285 30.52C59.9405 31.8547 59.8379 33.1967 59.7205 34.546C59.6912 34.9273 59.6252 35.3307 59.5225 35.756C59.4345 36.1667 59.2805 36.4673 59.0605 36.658ZM72.0741 38.264C71.3847 38.264 70.7761 38.1833 70.2481 38.022C69.7347 37.8607 69.3314 37.5307 69.0381 37.032C68.7447 36.5187 68.5981 35.756 68.5981 34.744V27.726C68.5981 26.934 68.7447 26.3327 69.0381 25.922C69.3314 25.4967 69.7421 25.2033 70.2701 25.042C70.7981 24.8807 71.4067 24.8 72.0961 24.8C72.7854 24.8 73.3867 24.888 73.9001 25.064C74.4281 25.2253 74.8461 25.5187 75.1541 25.944C75.4621 26.3547 75.6161 26.9487 75.6161 27.726V34.722C75.6161 35.7633 75.4621 36.5333 75.1541 37.032C74.8461 37.5307 74.4281 37.8607 73.9001 38.022C73.3721 38.1833 72.7634 38.264 72.0741 38.264ZM72.0741 37.01C72.3527 37.01 72.6021 36.9733 72.8221 36.9C73.0421 36.812 73.2107 36.658 73.3281 36.438C73.4454 36.218 73.5041 35.8953 73.5041 35.47V27.66C73.5041 27.2493 73.4454 26.934 73.3281 26.714C73.2107 26.4793 73.0421 26.3253 72.8221 26.252C72.6021 26.164 72.3527 26.12 72.0741 26.12C71.7954 26.12 71.5461 26.164 71.3261 26.252C71.1207 26.3253 70.9594 26.4793 70.8421 26.714C70.7247 26.934 70.6661 27.2493 70.6661 27.66V35.47C70.6661 35.8953 70.7247 36.218 70.8421 36.438C70.9594 36.658 71.1207 36.812 71.3261 36.9C71.5461 36.9733 71.7954 37.01 72.0741 37.01ZM78.0871 38V24.998H80.1771V30.454H82.9711V24.998H85.0611V38H82.9711V32.038H80.1771V38H78.0871ZM87.7009 38V24.998H93.5529V26.494H89.9009V30.432H92.9149V32.082H89.9009V36.548H93.5529V38H87.7009ZM95.553 38V24.998H97.423V33.776L100.657 24.998H102.505V38H100.635V29.706L97.423 38H95.553ZM99.007 24.118C98.3764 24.118 97.8924 24.0007 97.555 23.766C97.2177 23.5313 96.983 23.2527 96.851 22.93C96.7337 22.5927 96.6677 22.292 96.653 22.028H97.819C97.8484 22.3947 97.973 22.666 98.193 22.842C98.4277 23.018 98.699 23.106 99.007 23.106C99.3444 23.106 99.623 23.0253 99.843 22.864C100.078 22.688 100.21 22.4093 100.239 22.028H101.405C101.39 22.3653 101.302 22.6953 101.141 23.018C100.98 23.3407 100.723 23.6047 100.371 23.81C100.034 24.0153 99.579 24.118 99.007 24.118ZM105.145 38V24.998H107.345V36.504H109.919V24.998H112.097V36.504H114.671V24.998H116.871V38H105.145ZM119.507 38V24.998H121.597V30.454H124.391V24.998H126.481V38H124.391V32.038H121.597V38H119.507Z" fill="#7C9D81"/>
<path d="M31 193L295 193" stroke="#B8B8B8"/>
<path d="M35.488 419.192C36.032 419.427 36.464 419.784 36.784 420.264C37.1147 420.733 37.28 421.272 37.28 421.88C37.28 422.744 36.976 423.48 36.368 424.088C35.76 424.696 35.024 425 34.16 425H29.28V413.8H33.792C34.624 413.8 35.3333 414.099 35.92 414.696C36.5067 415.283 36.8 415.987 36.8 416.808C36.8 417.853 36.3627 418.648 35.488 419.192ZM33.792 414.856H30.4V418.76H33.792C34.3147 418.76 34.7573 418.573 35.12 418.2C35.4933 417.816 35.68 417.352 35.68 416.808C35.68 416.275 35.4933 415.816 35.12 415.432C34.7573 415.048 34.3147 414.856 33.792 414.856ZM34.16 423.944C34.7147 423.944 35.184 423.747 35.568 423.352C35.9627 422.947 36.16 422.456 36.16 421.88C36.16 421.315 35.9627 420.829 35.568 420.424C35.184 420.019 34.7147 419.816 34.16 419.816H30.4V423.944H34.16ZM47.3299 416.808C48.4712 416.808 49.4419 417.213 50.2419 418.024C51.0525 418.835 51.4579 419.827 51.4579 421C51.4579 422.173 51.0525 423.165 50.2419 423.976C49.4419 424.787 48.4712 425.192 47.3299 425.192C45.9112 425.192 44.8339 424.605 44.0979 423.432V428.2H43.0419V417H44.0979V418.568C44.8339 417.395 45.9112 416.808 47.3299 416.808ZM45.0099 423.256C45.6179 423.864 46.3645 424.168 47.2499 424.168C48.1352 424.168 48.8819 423.864 49.4899 423.256C50.0979 422.637 50.4019 421.885 50.4019 421C50.4019 420.115 50.0979 419.368 49.4899 418.76C48.8819 418.141 48.1352 417.832 47.2499 417.832C46.3645 417.832 45.6179 418.141 45.0099 418.76C44.4019 419.368 44.0979 420.115 44.0979 421C44.0979 421.885 44.4019 422.637 45.0099 423.256ZM60.0938 417H61.1498V425H60.0938V423.432C59.3578 424.605 58.2804 425.192 56.8618 425.192C55.7204 425.192 54.7444 424.787 53.9338 423.976C53.1338 423.165 52.7338 422.173 52.7338 421C52.7338 419.827 53.1338 418.835 53.9338 418.024C54.7444 417.213 55.7204 416.808 56.8618 416.808C58.2804 416.808 59.3578 417.395 60.0938 418.568V417ZM54.7018 423.256C55.3098 423.864 56.0564 424.168 56.9418 424.168C57.8271 424.168 58.5738 423.864 59.1818 423.256C59.7898 422.637 60.0938 421.885 60.0938 421C60.0938 420.115 59.7898 419.368 59.1818 418.76C58.5738 418.141 57.8271 417.832 56.9418 417.832C56.0564 417.832 55.3098 418.141 54.7018 418.76C54.0938 419.368 53.7898 420.115 53.7898 421C53.7898 421.885 54.0938 422.637 54.7018 423.256ZM71.2256 417V425H70.1696V418.616L67.3696 423.16H67.2416L64.4416 418.616V425H63.3856V417H64.6016L67.3056 421.384L70.0096 417H71.2256ZM79.9278 425H78.5198L74.5198 421.144V425H73.4638V417H74.5198V420.536L78.3278 417H79.7678L75.6398 420.84L79.9278 425ZM87.4531 417H88.5091V425H87.4531V423.432C86.7171 424.605 85.6398 425.192 84.2211 425.192C83.0798 425.192 82.1038 424.787 81.2931 423.976C80.4931 423.165 80.0931 422.173 80.0931 421C80.0931 419.827 80.4931 418.835 81.2931 418.024C82.1038 417.213 83.0798 416.808 84.2211 416.808C85.6398 416.808 86.7171 417.395 87.4531 418.568V417ZM82.0611 423.256C82.6691 423.864 83.4158 424.168 84.3011 424.168C85.1865 424.168 85.9331 423.864 86.5411 423.256C87.1491 422.637 87.4531 421.885 87.4531 421C87.4531 420.115 87.1491 419.368 86.5411 418.76C85.9331 418.141 85.1865 417.832 84.3011 417.832C83.4158 417.832 82.6691 418.141 82.0611 418.76C81.4531 419.368 81.1491 420.115 81.1491 421C81.1491 421.885 81.4531 422.637 82.0611 423.256ZM97.465 425H96.201L93.705 421.704L91.209 425H89.945L93.081 420.856L90.153 417H91.417L93.705 420.024L95.993 417H97.257L94.345 420.856L97.465 425ZM109.365 425H107.957L103.957 421.144V425H102.901V417H103.957V420.536L107.765 417H109.205L105.077 420.84L109.365 425ZM116.255 417H117.375L113.951 425.736C113.642 426.525 113.199 427.144 112.623 427.592C112.058 428.051 111.423 428.253 110.719 428.2V427.208C111.679 427.315 112.41 426.76 112.911 425.544L113.119 425.048L109.535 417H110.655L113.663 423.704L116.255 417ZM122.939 416.808C124.081 416.808 125.051 417.213 125.851 418.024C126.662 418.835 127.067 419.827 127.067 421C127.067 422.173 126.662 423.165 125.851 423.976C125.051 424.787 124.081 425.192 122.939 425.192C121.521 425.192 120.443 424.605 119.707 423.432V428.2H118.651V417H119.707V418.568C120.443 417.395 121.521 416.808 122.939 416.808ZM120.619 423.256C121.227 423.864 121.974 424.168 122.859 424.168C123.745 424.168 124.491 423.864 125.099 423.256C125.707 422.637 126.011 421.885 126.011 421C126.011 420.115 125.707 419.368 125.099 418.76C124.491 418.141 123.745 417.832 122.859 417.832C121.974 417.832 121.227 418.141 120.619 418.76C120.011 419.368 119.707 420.115 119.707 421C119.707 421.885 120.011 422.637 120.619 423.256ZM132.551 425.192C131.346 425.192 130.343 424.792 129.543 423.992C128.743 423.181 128.343 422.184 128.343 421C128.343 419.816 128.743 418.824 129.543 418.024C130.343 417.213 131.346 416.808 132.551 416.808C133.34 416.808 134.05 417 134.679 417.384C135.308 417.757 135.767 418.264 136.055 418.904L135.191 419.4C134.978 418.92 134.631 418.541 134.151 418.264C133.682 417.976 133.148 417.832 132.551 417.832C131.666 417.832 130.919 418.141 130.311 418.76C129.703 419.368 129.399 420.115 129.399 421C129.399 421.885 129.703 422.637 130.311 423.256C130.919 423.864 131.666 424.168 132.551 424.168C133.148 424.168 133.682 424.029 134.151 423.752C134.62 423.464 134.988 423.08 135.255 422.6L136.135 423.112C135.804 423.752 135.319 424.259 134.679 424.632C134.039 425.005 133.33 425.192 132.551 425.192ZM144.453 417H145.509V425H144.453V423.432C143.717 424.605 142.64 425.192 141.221 425.192C140.08 425.192 139.104 424.787 138.293 423.976C137.493 423.165 137.093 422.173 137.093 421C137.093 419.827 137.493 418.835 138.293 418.024C139.104 417.213 140.08 416.808 141.221 416.808C142.64 416.808 143.717 417.395 144.453 418.568V417ZM139.061 423.256C139.669 423.864 140.416 424.168 141.301 424.168C142.186 424.168 142.933 423.864 143.541 423.256C144.149 422.637 144.453 421.885 144.453 421C144.453 420.115 144.149 419.368 143.541 418.76C142.933 418.141 142.186 417.832 141.301 417.832C140.416 417.832 139.669 418.141 139.061 418.76C138.453 419.368 138.149 420.115 138.149 421C138.149 421.885 138.453 422.637 139.061 423.256ZM151.585 417L151.425 413.8H152.545L152.385 417H151.585ZM153.825 417L153.665 413.8H154.785L154.625 417H153.825ZM165.638 423.512C164.518 424.632 163.147 425.192 161.526 425.192C159.904 425.192 158.534 424.632 157.414 423.512C156.294 422.381 155.734 421.011 155.734 419.4C155.734 417.789 156.294 416.424 157.414 415.304C158.534 414.173 159.904 413.608 161.526 413.608C163.147 413.608 164.518 414.173 165.638 415.304C166.758 416.424 167.318 417.789 167.318 419.4C167.318 421.011 166.758 422.381 165.638 423.512ZM158.198 422.744C159.094 423.651 160.203 424.104 161.526 424.104C162.848 424.104 163.958 423.651 164.854 422.744C165.75 421.827 166.198 420.712 166.198 419.4C166.198 418.088 165.75 416.979 164.854 416.072C163.958 415.155 162.848 414.696 161.526 414.696C160.203 414.696 159.094 415.155 158.198 416.072C157.302 416.979 156.854 418.088 156.854 419.4C156.854 420.712 157.302 421.827 158.198 422.744ZM172.625 425.192C171.473 425.192 170.513 424.813 169.745 424.056C168.977 423.288 168.593 422.296 168.593 421.08C168.593 419.715 168.796 418.669 169.201 417.944C169.606 417.208 170.428 416.541 171.665 415.944C171.9 415.827 172.209 415.688 172.593 415.528C172.988 415.368 173.281 415.24 173.473 415.144C173.676 415.048 173.894 414.925 174.129 414.776C174.364 414.616 174.54 414.44 174.657 414.248C174.774 414.056 174.849 413.827 174.881 413.56L175.713 414.04C175.67 414.296 175.585 414.536 175.457 414.76C175.329 414.984 175.196 415.165 175.057 415.304C174.929 415.443 174.721 415.597 174.433 415.768C174.156 415.928 173.937 416.045 173.777 416.12C173.628 416.184 173.361 416.296 172.977 416.456C172.604 416.616 172.353 416.723 172.225 416.776C171.478 417.096 170.929 417.432 170.577 417.784C170.225 418.125 169.974 418.573 169.825 419.128C170.188 418.648 170.646 418.296 171.201 418.072C171.766 417.837 172.316 417.72 172.849 417.72C173.916 417.72 174.796 418.072 175.489 418.776C176.193 419.469 176.545 420.36 176.545 421.448C176.545 422.525 176.172 423.421 175.425 424.136C174.689 424.84 173.756 425.192 172.625 425.192ZM172.625 424.136C173.457 424.136 174.14 423.885 174.673 423.384C175.217 422.872 175.489 422.227 175.489 421.448C175.489 420.659 175.233 420.013 174.721 419.512C174.22 419 173.548 418.744 172.705 418.744C171.948 418.744 171.26 418.984 170.641 419.464C170.022 419.933 169.713 420.563 169.713 421.352C169.713 422.163 169.99 422.829 170.545 423.352C171.11 423.875 171.804 424.136 172.625 424.136ZM183.599 417H184.719L181.295 425.736C180.985 426.525 180.543 427.144 179.967 427.592C179.401 428.051 178.767 428.253 178.063 428.2V427.208C179.023 427.315 179.753 426.76 180.255 425.544L180.463 425.048L176.879 417H177.999L181.007 423.704L183.599 417ZM191.179 417H192.235V425H191.179V421.96C190.56 422.28 189.798 422.44 188.891 422.44C187.846 422.44 187.046 422.2 186.491 421.72C185.947 421.229 185.675 420.509 185.675 419.56V417H186.731V419.56C186.731 420.232 186.907 420.717 187.259 421.016C187.611 421.304 188.144 421.448 188.859 421.448C189.691 421.448 190.464 421.293 191.179 420.984V417ZM198.175 416.808C199.359 416.808 200.314 417.229 201.039 418.072C201.775 418.904 202.143 419.891 202.143 421.032C202.143 421.149 202.133 421.315 202.111 421.528H195.087C195.194 422.339 195.535 422.984 196.111 423.464C196.698 423.933 197.418 424.168 198.271 424.168C198.879 424.168 199.402 424.045 199.839 423.8C200.287 423.544 200.623 423.213 200.847 422.808L201.775 423.352C201.423 423.917 200.943 424.365 200.335 424.696C199.727 425.027 199.034 425.192 198.255 425.192C196.997 425.192 195.973 424.797 195.183 424.008C194.394 423.219 193.999 422.216 193.999 421C193.999 419.805 194.389 418.808 195.167 418.008C195.946 417.208 196.949 416.808 198.175 416.808ZM198.175 417.832C197.343 417.832 196.645 418.083 196.079 418.584C195.525 419.075 195.194 419.715 195.087 420.504H201.055C200.949 419.661 200.623 419.005 200.079 418.536C199.535 418.067 198.901 417.832 198.175 417.832ZM209.487 417H210.543V425H209.487V421.512H204.879V425H203.823V417H204.879V420.488H209.487V417ZM218.6 417H219.496V425H218.44V418.84L213.672 425H212.776V417H213.832V423.16L218.6 417ZM225.425 416.808C226.609 416.808 227.564 417.229 228.289 418.072C229.025 418.904 229.393 419.891 229.393 421.032C229.393 421.149 229.383 421.315 229.361 421.528H222.337C222.444 422.339 222.785 422.984 223.361 423.464C223.948 423.933 224.668 424.168 225.521 424.168C226.129 424.168 226.652 424.045 227.089 423.8C227.537 423.544 227.873 423.213 228.097 422.808L229.025 423.352C228.673 423.917 228.193 424.365 227.585 424.696C226.977 425.027 226.284 425.192 225.505 425.192C224.247 425.192 223.223 424.797 222.433 424.008C221.644 423.219 221.249 422.216 221.249 421C221.249 419.805 221.639 418.808 222.417 418.008C223.196 417.208 224.199 416.808 225.425 416.808ZM225.425 417.832C224.593 417.832 223.895 418.083 223.329 418.584C222.775 419.075 222.444 419.715 222.337 420.504H228.305C228.199 419.661 227.873 419.005 227.329 418.536C226.785 418.067 226.151 417.832 225.425 417.832ZM242.273 413.8V414.856H238.833V425H237.713V414.856H234.273V413.8H242.273ZM254.114 413.8V425H252.994V415.496L249.074 422.056H248.914L244.994 415.496V425H243.874V413.8H245.266L248.994 420.04L252.722 413.8H254.114ZM264.639 420.888C265.567 421.24 266.031 421.88 266.031 422.808C266.031 423.469 265.769 424.035 265.247 424.504C264.735 424.963 263.999 425.192 263.039 425.192C261.428 425.192 260.372 424.552 259.871 423.272L260.767 422.744C261.097 423.693 261.855 424.168 263.039 424.168C263.657 424.168 264.132 424.035 264.463 423.768C264.804 423.501 264.975 423.16 264.975 422.744C264.975 422.371 264.836 422.067 264.559 421.832C264.281 421.597 263.908 421.48 263.439 421.48H262.271V420.456H263.119C263.577 420.456 263.935 420.344 264.191 420.12C264.457 419.885 264.591 419.565 264.591 419.16C264.591 418.776 264.436 418.461 264.127 418.216C263.817 417.96 263.401 417.832 262.879 417.832C261.876 417.832 261.209 418.232 260.879 419.032L259.999 418.52C260.532 417.379 261.492 416.808 262.879 416.808C263.721 416.808 264.393 417.032 264.895 417.48C265.396 417.917 265.647 418.456 265.647 419.096C265.647 419.917 265.311 420.515 264.639 420.888ZM274.516 417H275.572V425H274.516V423.432C273.78 424.605 272.702 425.192 271.284 425.192C270.142 425.192 269.166 424.787 268.356 423.976C267.556 423.165 267.156 422.173 267.156 421C267.156 419.827 267.556 418.835 268.356 418.024C269.166 417.213 270.142 416.808 271.284 416.808C272.702 416.808 273.78 417.395 274.516 418.568V417ZM269.124 423.256C269.732 423.864 270.478 424.168 271.364 424.168C272.249 424.168 272.996 423.864 273.604 423.256C274.212 422.637 274.516 421.885 274.516 421C274.516 420.115 274.212 419.368 273.604 418.76C272.996 418.141 272.249 417.832 271.364 417.832C270.478 417.832 269.732 418.141 269.124 418.76C268.516 419.368 268.212 420.115 268.212 421C268.212 421.885 268.516 422.637 269.124 423.256ZM35.84 439V447H34.784V440.024H30.176V447H29.12V439H35.84ZM44.7771 445.992C43.9665 446.792 42.9745 447.192 41.8011 447.192C40.6278 447.192 39.6305 446.792 38.8091 445.992C37.9985 445.181 37.5931 444.184 37.5931 443C37.5931 441.816 37.9985 440.824 38.8091 440.024C39.6305 439.213 40.6278 438.808 41.8011 438.808C42.9745 438.808 43.9665 439.213 44.7771 440.024C45.5985 440.824 46.0091 441.816 46.0091 443C46.0091 444.184 45.5985 445.181 44.7771 445.992ZM39.5611 445.256C40.1691 445.864 40.9158 446.168 41.8011 446.168C42.6865 446.168 43.4331 445.864 44.0411 445.256C44.6491 444.637 44.9531 443.885 44.9531 443C44.9531 442.115 44.6491 441.368 44.0411 440.76C43.4331 440.141 42.6865 439.832 41.8011 439.832C40.9158 439.832 40.1691 440.141 39.5611 440.76C38.9531 441.368 38.6491 442.115 38.6491 443C38.6491 443.885 38.9531 444.637 39.5611 445.256ZM56.4796 447H55.1996L51.9356 443.144V447H50.8796V443.144L47.6156 447H46.3356L49.9196 442.84L46.4956 439H47.7756L50.8796 442.552V439H51.9356V442.552L55.0396 439H56.3196L52.8956 442.84L56.4796 447ZM60.9723 438.808C62.1563 438.808 63.1109 439.229 63.8363 440.072C64.5723 440.904 64.9403 441.891 64.9403 443.032C64.9403 443.149 64.9296 443.315 64.9083 443.528H57.8843C57.9909 444.339 58.3323 444.984 58.9083 445.464C59.4949 445.933 60.2149 446.168 61.0683 446.168C61.6763 446.168 62.1989 446.045 62.6363 445.8C63.0843 445.544 63.4203 445.213 63.6443 444.808L64.5723 445.352C64.2203 445.917 63.7403 446.365 63.1323 446.696C62.5243 447.027 61.8309 447.192 61.0523 447.192C59.7936 447.192 58.7696 446.797 57.9803 446.008C57.1909 445.219 56.7963 444.216 56.7963 443C56.7963 441.805 57.1856 440.808 57.9643 440.008C58.7429 439.208 59.7456 438.808 60.9723 438.808ZM60.9723 439.832C60.1403 439.832 59.4416 440.083 58.8763 440.584C58.3216 441.075 57.9909 441.715 57.8843 442.504H63.8523C63.7456 441.661 63.4203 441.005 62.8763 440.536C62.3323 440.067 61.6976 439.832 60.9723 439.832ZM70.908 438.808C72.0493 438.808 73.02 439.213 73.82 440.024C74.6307 440.835 75.036 441.827 75.036 443C75.036 444.173 74.6307 445.165 73.82 445.976C73.02 446.787 72.0493 447.192 70.908 447.192C69.4893 447.192 68.412 446.605 67.676 445.432V450.2H66.62V439H67.676V440.568C68.412 439.395 69.4893 438.808 70.908 438.808ZM68.588 445.256C69.196 445.864 69.9427 446.168 70.828 446.168C71.7133 446.168 72.46 445.864 73.068 445.256C73.676 444.637 73.98 443.885 73.98 443C73.98 442.115 73.676 441.368 73.068 440.76C72.46 440.141 71.7133 439.832 70.828 439.832C69.9427 439.832 69.196 440.141 68.588 440.76C67.98 441.368 67.676 442.115 67.676 443C67.676 443.885 67.98 444.637 68.588 445.256ZM82.2394 439V440.024H79.4074V447H78.3514V440.024H75.5194V439H82.2394ZM88.6143 442.888C89.4889 443.208 89.9263 443.832 89.9263 444.76C89.9263 445.411 89.7076 445.949 89.2703 446.376C88.8436 446.792 88.2249 447 87.4143 447H83.5263V439H87.0943C87.8729 439 88.4756 439.203 88.9023 439.608C89.3289 440.003 89.5423 440.515 89.5423 441.144C89.5423 441.944 89.2329 442.525 88.6143 442.888ZM87.0943 440.024H84.5823V442.456H87.0943C88.0223 442.456 88.4863 442.04 88.4863 441.208C88.4863 440.835 88.3636 440.547 88.1183 440.344C87.8836 440.131 87.5423 440.024 87.0943 440.024ZM87.4143 445.976C87.8836 445.976 88.2409 445.864 88.4863 445.64C88.7423 445.416 88.8703 445.101 88.8703 444.696C88.8703 444.323 88.7423 444.029 88.4863 443.816C88.2409 443.592 87.8836 443.48 87.4143 443.48H84.5823V445.976H87.4143ZM98.2303 445.992C97.4196 446.792 96.4276 447.192 95.2543 447.192C94.0809 447.192 93.0836 446.792 92.2623 445.992C91.4516 445.181 91.0463 444.184 91.0463 443C91.0463 441.816 91.4516 440.824 92.2623 440.024C93.0836 439.213 94.0809 438.808 95.2543 438.808C96.4276 438.808 97.4196 439.213 98.2303 440.024C99.0516 440.824 99.4623 441.816 99.4623 443C99.4623 444.184 99.0516 445.181 98.2303 445.992ZM93.0143 445.256C93.6223 445.864 94.3689 446.168 95.2543 446.168C96.1396 446.168 96.8863 445.864 97.4943 445.256C98.1023 444.637 98.4062 443.885 98.4062 443C98.4062 442.115 98.1023 441.368 97.4943 440.76C96.8863 440.141 96.1396 439.832 95.2543 439.832C94.3689 439.832 93.6223 440.141 93.0143 440.76C92.4063 441.368 92.1023 442.115 92.1023 443C92.1023 443.885 92.4063 444.637 93.0143 445.256ZM106.317 442.888C107.192 443.208 107.629 443.832 107.629 444.76C107.629 445.411 107.411 445.949 106.973 446.376C106.547 446.792 105.928 447 105.117 447H101.229V439H104.797C105.576 439 106.179 439.203 106.605 439.608C107.032 440.003 107.245 440.515 107.245 441.144C107.245 441.944 106.936 442.525 106.317 442.888ZM104.797 440.024H102.285V442.456H104.797C105.725 442.456 106.189 442.04 106.189 441.208C106.189 440.835 106.067 440.547 105.821 440.344C105.587 440.131 105.245 440.024 104.797 440.024ZM105.117 445.976C105.587 445.976 105.944 445.864 106.189 445.64C106.445 445.416 106.573 445.101 106.573 444.696C106.573 444.323 106.445 444.029 106.189 443.816C105.944 443.592 105.587 443.48 105.117 443.48H102.285V445.976H105.117ZM116.109 439H117.165V447H116.109V445.432C115.373 446.605 114.296 447.192 112.877 447.192C111.736 447.192 110.76 446.787 109.949 445.976C109.149 445.165 108.749 444.173 108.749 443C108.749 441.827 109.149 440.835 109.949 440.024C110.76 439.213 111.736 438.808 112.877 438.808C114.296 438.808 115.373 439.395 116.109 440.568V439ZM110.717 445.256C111.325 445.864 112.072 446.168 112.957 446.168C113.843 446.168 114.589 445.864 115.197 445.256C115.805 444.637 116.109 443.885 116.109 443C116.109 442.115 115.805 441.368 115.197 440.76C114.589 440.141 113.843 439.832 112.957 439.832C112.072 439.832 111.325 440.141 110.717 440.76C110.109 441.368 109.805 442.115 109.805 443C109.805 443.885 110.109 444.637 110.717 445.256ZM125.065 439H126.121V447H125.065V443.512H120.457V447H119.401V439H120.457V442.488H125.065V439ZM134.178 439H135.074V447H134.018V440.84L129.25 447H128.354V439H129.41V445.16L134.178 439ZM141.004 438.808C142.188 438.808 143.142 439.229 143.868 440.072C144.604 440.904 144.972 441.891 144.972 443.032C144.972 443.149 144.961 443.315 144.94 443.528H137.916C138.022 444.339 138.364 444.984 138.94 445.464C139.526 445.933 140.246 446.168 141.1 446.168C141.708 446.168 142.23 446.045 142.668 445.8C143.116 445.544 143.452 445.213 143.676 444.808L144.604 445.352C144.252 445.917 143.772 446.365 143.164 446.696C142.556 447.027 141.862 447.192 141.084 447.192C139.825 447.192 138.801 446.797 138.012 446.008C137.222 445.219 136.828 444.216 136.828 443C136.828 441.805 137.217 440.808 137.996 440.008C138.774 439.208 139.777 438.808 141.004 438.808ZM141.004 439.832C140.172 439.832 139.473 440.083 138.908 440.584C138.353 441.075 138.022 441.715 137.916 442.504H143.884C143.777 441.661 143.452 441.005 142.908 440.536C142.364 440.067 141.729 439.832 141.004 439.832ZM146.007 439L145.847 435.8H146.967L146.807 439H146.007ZM148.247 439L148.087 435.8H149.207L149.047 439H148.247ZM161.84 445.976H162.96V449.144H161.904V447H155.376V449.144H154.32V445.976H155.296C155.84 445.261 156.112 444.253 156.112 442.952V439H161.84V445.976ZM156.576 445.976H160.784V440.024H157.168V442.952C157.168 444.179 156.971 445.187 156.576 445.976ZM167.941 438.808C169.125 438.808 170.08 439.229 170.805 440.072C171.541 440.904 171.909 441.891 171.909 443.032C171.909 443.149 171.898 443.315 171.877 443.528H164.853C164.96 444.339 165.301 444.984 165.877 445.464C166.464 445.933 167.184 446.168 168.037 446.168C168.645 446.168 169.168 446.045 169.605 445.8C170.053 445.544 170.389 445.213 170.613 444.808L171.541 445.352C171.189 445.917 170.709 446.365 170.101 446.696C169.493 447.027 168.8 447.192 168.021 447.192C166.762 447.192 165.738 446.797 164.949 446.008C164.16 445.219 163.765 444.216 163.765 443C163.765 441.805 164.154 440.808 164.933 440.008C165.712 439.208 166.714 438.808 167.941 438.808ZM167.941 439.832C167.109 439.832 166.41 440.083 165.845 440.584C165.29 441.075 164.96 441.715 164.853 442.504H170.821C170.714 441.661 170.389 441.005 169.845 440.536C169.301 440.067 168.666 439.832 167.941 439.832ZM179.036 439V440.024H176.204V447H175.148V440.024H172.316V439H179.036ZM186.147 439H187.043V447H185.987V440.84L181.219 447H180.323V439H181.379V445.16L186.147 439ZM197.004 447.192C195.799 447.192 194.796 446.792 193.996 445.992C193.196 445.181 192.796 444.184 192.796 443C192.796 441.816 193.196 440.824 193.996 440.024C194.796 439.213 195.799 438.808 197.004 438.808C197.794 438.808 198.503 439 199.132 439.384C199.762 439.757 200.22 440.264 200.508 440.904L199.644 441.4C199.431 440.92 199.084 440.541 198.604 440.264C198.135 439.976 197.602 439.832 197.004 439.832C196.119 439.832 195.372 440.141 194.764 440.76C194.156 441.368 193.852 442.115 193.852 443C193.852 443.885 194.156 444.637 194.764 445.256C195.372 445.864 196.119 446.168 197.004 446.168C197.602 446.168 198.135 446.029 198.604 445.752C199.074 445.464 199.442 445.08 199.708 444.6L200.588 445.112C200.258 445.752 199.772 446.259 199.132 446.632C198.492 447.005 197.783 447.192 197.004 447.192ZM208.184 435.8H209.144V447H208.024V437.032L205.512 437.784L205.224 436.824L208.184 435.8ZM218.582 445.624C217.846 446.669 216.806 447.192 215.462 447.192C214.118 447.192 213.073 446.669 212.326 445.624C211.59 444.568 211.222 443.16 211.222 441.4C211.222 439.64 211.59 438.237 212.326 437.192C213.073 436.136 214.118 435.608 215.462 435.608C216.806 435.608 217.846 436.136 218.582 437.192C219.329 438.237 219.702 439.64 219.702 441.4C219.702 443.16 219.329 444.568 218.582 445.624ZM213.158 444.872C213.713 445.693 214.481 446.104 215.462 446.104C216.443 446.104 217.206 445.693 217.75 444.872C218.305 444.051 218.582 442.893 218.582 441.4C218.582 439.907 218.305 438.749 217.75 437.928C217.206 437.107 216.443 436.696 215.462 436.696C214.481 436.696 213.713 437.107 213.158 437.928C212.614 438.749 212.342 439.907 212.342 441.4C212.342 442.893 212.614 444.051 213.158 444.872ZM232.34 445.976H233.46V449.144H232.404V447H225.876V449.144H224.82V445.976H225.796C226.34 445.261 226.612 444.253 226.612 442.952V439H232.34V445.976ZM227.076 445.976H231.284V440.024H227.668V442.952C227.668 444.179 227.471 445.187 227.076 445.976ZM241.449 445.992C240.638 446.792 239.646 447.192 238.473 447.192C237.3 447.192 236.302 446.792 235.481 445.992C234.67 445.181 234.265 444.184 234.265 443C234.265 441.816 234.67 440.824 235.481 440.024C236.302 439.213 237.3 438.808 238.473 438.808C239.646 438.808 240.638 439.213 241.449 440.024C242.27 440.824 242.681 441.816 242.681 443C242.681 444.184 242.27 445.181 241.449 445.992ZM236.233 445.256C236.841 445.864 237.588 446.168 238.473 446.168C239.358 446.168 240.105 445.864 240.713 445.256C241.321 444.637 241.625 443.885 241.625 443C241.625 442.115 241.321 441.368 240.713 440.76C240.105 440.141 239.358 439.832 238.473 439.832C237.588 439.832 236.841 440.141 236.233 440.76C235.625 441.368 235.321 442.115 235.321 443C235.321 443.885 235.625 444.637 236.233 445.256ZM250.528 435.8H251.488V447H250.368V437.032L247.856 437.784L247.568 436.824L250.528 435.8ZM257.006 440.312C258.051 440.312 258.936 440.621 259.662 441.24C260.398 441.848 260.766 442.685 260.766 443.752C260.766 444.819 260.398 445.661 259.662 446.28C258.936 446.888 258.051 447.192 257.006 447.192C256.163 447.192 255.411 446.989 254.75 446.584C254.088 446.168 253.64 445.576 253.406 444.808L254.35 444.264C254.51 444.861 254.824 445.32 255.294 445.64C255.774 445.949 256.344 446.104 257.006 446.104C257.774 446.104 258.403 445.901 258.894 445.496C259.395 445.08 259.646 444.499 259.646 443.752C259.646 443.005 259.395 442.429 258.894 442.024C258.403 441.608 257.774 441.4 257.006 441.4H253.966L254.366 435.8H260.366V436.856H255.358L255.118 440.312H257.006ZM35.68 461V469H34.624V462.024H31.008V465.592C31.008 466.925 30.752 467.843 30.24 468.344C29.7387 468.845 29.0453 469.064 28.16 469V468.008C28.768 468.072 29.216 467.928 29.504 467.576C29.8027 467.224 29.952 466.563 29.952 465.592V461H35.68ZM41.6129 460.808C42.7969 460.808 43.7515 461.229 44.4769 462.072C45.2129 462.904 45.5809 463.891 45.5809 465.032C45.5809 465.149 45.5702 465.315 45.5489 465.528H38.5249C38.6315 466.339 38.9729 466.984 39.5489 467.464C40.1355 467.933 40.8555 468.168 41.7089 468.168C42.3169 468.168 42.8395 468.045 43.2769 467.8C43.7249 467.544 44.0609 467.213 44.2849 466.808L45.2129 467.352C44.8609 467.917 44.3809 468.365 43.7729 468.696C43.1649 469.027 42.4715 469.192 41.6929 469.192C40.4342 469.192 39.4102 468.797 38.6209 468.008C37.8315 467.219 37.4369 466.216 37.4369 465C37.4369 463.805 37.8262 462.808 38.6049 462.008C39.3835 461.208 40.3862 460.808 41.6129 460.808ZM41.6129 461.832C40.7809 461.832 40.0822 462.083 39.5169 462.584C38.9622 463.075 38.6315 463.715 38.5249 464.504H44.4929C44.3862 463.661 44.0609 463.005 43.5169 462.536C42.9729 462.067 42.3382 461.832 41.6129 461.832ZM52.7081 461V462.024H49.8761V469H48.8201V462.024H45.9881V461H52.7081ZM64.699 467.992C63.8883 468.792 62.8963 469.192 61.723 469.192C60.5497 469.192 59.5523 468.792 58.731 467.992C57.9203 467.181 57.515 466.184 57.515 465C57.515 463.816 57.9203 462.824 58.731 462.024C59.5523 461.213 60.5497 460.808 61.723 460.808C62.8963 460.808 63.8883 461.213 64.699 462.024C65.5203 462.824 65.931 463.816 65.931 465C65.931 466.184 65.5203 467.181 64.699 467.992ZM59.483 467.256C60.091 467.864 60.8377 468.168 61.723 468.168C62.6083 468.168 63.355 467.864 63.963 467.256C64.571 466.637 64.875 465.885 64.875 465C64.875 464.115 64.571 463.368 63.963 462.76C63.355 462.141 62.6083 461.832 61.723 461.832C60.8377 461.832 60.091 462.141 59.483 462.76C58.875 463.368 58.571 464.115 58.571 465C58.571 465.885 58.875 466.637 59.483 467.256ZM71.2501 469.192C70.0981 469.192 69.1381 468.813 68.3701 468.056C67.6021 467.288 67.2181 466.296 67.2181 465.08C67.2181 463.715 67.4208 462.669 67.8261 461.944C68.2315 461.208 69.0528 460.541 70.2901 459.944C70.5248 459.827 70.8341 459.688 71.2181 459.528C71.6128 459.368 71.9061 459.24 72.0981 459.144C72.3008 459.048 72.5195 458.925 72.7541 458.776C72.9888 458.616 73.1648 458.44 73.2821 458.248C73.3995 458.056 73.4741 457.827 73.5061 457.56L74.3381 458.04C74.2955 458.296 74.2101 458.536 74.0821 458.76C73.9541 458.984 73.8208 459.165 73.6821 459.304C73.5541 459.443 73.3461 459.597 73.0581 459.768C72.7808 459.928 72.5621 460.045 72.4021 460.12C72.2528 460.184 71.9861 460.296 71.6021 460.456C71.2288 460.616 70.9781 460.723 70.8501 460.776C70.1035 461.096 69.5541 461.432 69.2021 461.784C68.8501 462.125 68.5995 462.573 68.4501 463.128C68.8128 462.648 69.2715 462.296 69.8261 462.072C70.3915 461.837 70.9408 461.72 71.4741 461.72C72.5408 461.72 73.4208 462.072 74.1141 462.776C74.8181 463.469 75.1701 464.36 75.1701 465.448C75.1701 466.525 74.7968 467.421 74.0501 468.136C73.3141 468.84 72.3808 469.192 71.2501 469.192ZM71.2501 468.136C72.0821 468.136 72.7648 467.885 73.2981 467.384C73.8421 466.872 74.1141 466.227 74.1141 465.448C74.1141 464.659 73.8581 464.013 73.3461 463.512C72.8448 463 72.1728 462.744 71.3301 462.744C70.5728 462.744 69.8848 462.984 69.2661 463.464C68.6475 463.933 68.3381 464.563 68.3381 465.352C68.3381 466.163 68.6155 466.829 69.1701 467.352C69.7355 467.875 70.4288 468.136 71.2501 468.136ZM82.2238 461H83.3438L79.9198 469.736C79.6104 470.525 79.1678 471.144 78.5918 471.592C78.0264 472.051 77.3918 472.253 76.6878 472.2V471.208C77.6478 471.315 78.3784 470.76 78.8798 469.544L79.0878 469.048L75.5038 461H76.6238L79.6318 467.704L82.2238 461ZM89.804 461H90.86V469H89.804V465.96C89.1853 466.28 88.4227 466.44 87.516 466.44C86.4707 466.44 85.6707 466.2 85.116 465.72C84.572 465.229 84.3 464.509 84.3 463.56V461H85.356V463.56C85.356 464.232 85.532 464.717 85.884 465.016C86.236 465.304 86.7693 465.448 87.484 465.448C88.316 465.448 89.0893 465.293 89.804 464.984V461ZM99.9844 461H101.04V469H99.9844V467.432C99.2484 468.605 98.171 469.192 96.7524 469.192C95.611 469.192 94.635 468.787 93.8244 467.976C93.0244 467.165 92.6244 466.173 92.6244 465C92.6244 463.827 93.0244 462.835 93.8244 462.024C94.635 461.213 95.611 460.808 96.7524 460.808C98.171 460.808 99.2484 461.395 99.9844 462.568V461ZM94.5924 467.256C95.2004 467.864 95.947 468.168 96.8324 468.168C97.7177 468.168 98.4644 467.864 99.0724 467.256C99.6804 466.637 99.9844 465.885 99.9844 465C99.9844 464.115 99.6804 463.368 99.0724 462.76C98.4644 462.141 97.7177 461.832 96.8324 461.832C95.947 461.832 95.2004 462.141 94.5924 462.76C93.9844 463.368 93.6804 464.115 93.6804 465C93.6804 465.885 93.9844 466.637 94.5924 467.256ZM110.108 460.808C111.282 460.808 112.274 461.213 113.084 462.024C113.906 462.824 114.316 463.816 114.316 465C114.316 466.184 113.906 467.181 113.084 467.992C112.274 468.792 111.282 469.192 110.108 469.192C109.031 469.192 108.103 468.845 107.324 468.152C106.556 467.448 106.114 466.568 105.996 465.512H104.332V469H103.276V461H104.332V464.488H105.996C106.114 463.432 106.556 462.557 107.324 461.864C108.103 461.16 109.031 460.808 110.108 460.808ZM107.868 467.256C108.476 467.864 109.223 468.168 110.108 468.168C110.994 468.168 111.74 467.864 112.348 467.256C112.956 466.637 113.26 465.885 113.26 465C113.26 464.115 112.956 463.368 112.348 462.76C111.74 462.141 110.994 461.832 110.108 461.832C109.223 461.832 108.476 462.141 107.868 462.76C107.26 463.368 106.956 464.115 106.956 465C106.956 465.885 107.26 466.637 107.868 467.256ZM121.521 461V462.024H118.689V469H117.633V462.024H114.801V461H121.521ZM126.223 469.192C125.018 469.192 124.015 468.792 123.215 467.992C122.415 467.181 122.015 466.184 122.015 465C122.015 463.816 122.415 462.824 123.215 462.024C124.015 461.213 125.018 460.808 126.223 460.808C127.012 460.808 127.722 461 128.351 461.384C128.98 461.757 129.439 462.264 129.727 462.904L128.863 463.4C128.65 462.92 128.303 462.541 127.823 462.264C127.354 461.976 126.82 461.832 126.223 461.832C125.338 461.832 124.591 462.141 123.983 462.76C123.375 463.368 123.071 464.115 123.071 465C123.071 465.885 123.375 466.637 123.983 467.256C124.591 467.864 125.338 468.168 126.223 468.168C126.82 468.168 127.354 468.029 127.823 467.752C128.292 467.464 128.66 467.08 128.927 466.6L129.807 467.112C129.476 467.752 128.991 468.259 128.351 468.632C127.711 469.005 127.002 469.192 126.223 469.192ZM136.927 461V469H135.871V465.928H134.495L132.031 469H130.687L133.215 465.896C132.575 465.8 132.047 465.533 131.631 465.096C131.215 464.659 131.007 464.12 131.007 463.48C131.007 462.755 131.263 462.163 131.775 461.704C132.298 461.235 132.932 461 133.679 461H136.927ZM133.679 464.936H135.871V462.024H133.679C133.231 462.024 132.847 462.157 132.527 462.424C132.218 462.691 132.063 463.043 132.063 463.48C132.063 463.917 132.218 464.269 132.527 464.536C132.847 464.803 133.231 464.936 133.679 464.936ZM149.871 467.992C149.06 468.792 148.068 469.192 146.895 469.192C145.722 469.192 144.724 468.792 143.903 467.992C143.092 467.181 142.687 466.184 142.687 465C142.687 463.816 143.092 462.824 143.903 462.024C144.724 461.213 145.722 460.808 146.895 460.808C148.068 460.808 149.06 461.213 149.871 462.024C150.692 462.824 151.103 463.816 151.103 465C151.103 466.184 150.692 467.181 149.871 467.992ZM144.655 467.256C145.263 467.864 146.01 468.168 146.895 468.168C147.78 468.168 148.527 467.864 149.135 467.256C149.743 466.637 150.047 465.885 150.047 465C150.047 464.115 149.743 463.368 149.135 462.76C148.527 462.141 147.78 461.832 146.895 461.832C146.01 461.832 145.263 462.141 144.655 462.76C144.047 463.368 143.743 464.115 143.743 465C143.743 465.885 144.047 466.637 144.655 467.256ZM158.318 461V462.024H155.486V469H154.43V462.024H151.598V461H158.318ZM165.84 467.976H166.96V471.144H165.904V469H159.376V471.144H158.32V467.976H159.296C159.84 467.261 160.112 466.253 160.112 464.952V461H165.84V467.976ZM160.576 467.976H164.784V462.024H161.168V464.952C161.168 466.179 160.971 467.187 160.576 467.976ZM171.941 460.808C173.125 460.808 174.08 461.229 174.805 462.072C175.541 462.904 175.909 463.891 175.909 465.032C175.909 465.149 175.898 465.315 175.877 465.528H168.853C168.96 466.339 169.301 466.984 169.877 467.464C170.464 467.933 171.184 468.168 172.037 468.168C172.645 468.168 173.168 468.045 173.605 467.8C174.053 467.544 174.389 467.213 174.613 466.808L175.541 467.352C175.189 467.917 174.709 468.365 174.101 468.696C173.493 469.027 172.8 469.192 172.021 469.192C170.762 469.192 169.738 468.797 168.949 468.008C168.16 467.219 167.765 466.216 167.765 465C167.765 463.805 168.154 462.808 168.933 462.008C169.712 461.208 170.714 460.808 171.941 460.808ZM171.941 461.832C171.109 461.832 170.41 462.083 169.845 462.584C169.29 463.075 168.96 463.715 168.853 464.504H174.821C174.714 463.661 174.389 463.005 173.845 462.536C173.301 462.067 172.666 461.832 171.941 461.832ZM183.836 461V469H182.78V462.024H179.164V465.592C179.164 466.925 178.908 467.843 178.396 468.344C177.895 468.845 177.202 469.064 176.316 469V468.008C176.924 468.072 177.372 467.928 177.66 467.576C177.959 467.224 178.108 466.563 178.108 465.592V461H183.836ZM189.321 464.04C190.068 464.04 190.697 464.275 191.209 464.744C191.732 465.203 191.993 465.795 191.993 466.52C191.993 467.245 191.732 467.843 191.209 468.312C190.697 468.771 190.068 469 189.321 469H186.073V461H187.129V464.04H189.321ZM189.321 467.976C189.769 467.976 190.148 467.843 190.457 467.576C190.777 467.309 190.937 466.957 190.937 466.52C190.937 466.083 190.777 465.731 190.457 465.464C190.148 465.197 189.769 465.064 189.321 465.064H187.129V467.976H189.321ZM199.253 461H200.309V469H199.253V465.512H194.645V469H193.589V461H194.645V464.488H199.253V461ZM205.79 464.04C206.537 464.04 207.166 464.275 207.678 464.744C208.201 465.203 208.462 465.795 208.462 466.52C208.462 467.245 208.201 467.843 207.678 468.312C207.166 468.771 206.537 469 205.79 469H202.542V461H203.598V464.04H205.79ZM209.582 461H210.638V469H209.582V461ZM205.79 467.976C206.238 467.976 206.617 467.843 206.926 467.576C207.246 467.309 207.406 466.957 207.406 466.52C207.406 466.083 207.246 465.731 206.926 465.464C206.617 465.197 206.238 465.064 205.79 465.064H203.598V467.976H205.79ZM220.726 461V469H219.67V462.616L216.87 467.16H216.742L213.942 462.616V469H212.886V461H214.102L216.806 465.384L219.51 461H220.726ZM233.428 469H232.02L228.02 465.144V469H226.964V461H228.02V464.536L231.828 461H233.268L229.14 464.84L233.428 469ZM240.318 461H241.438L238.014 469.736C237.704 470.525 237.262 471.144 236.686 471.592C236.12 472.051 235.486 472.253 234.782 472.2V471.208C235.742 471.315 236.472 470.76 236.974 469.544L237.182 469.048L233.598 461H234.718L237.726 467.704L240.318 461ZM247.002 460.808C248.143 460.808 249.114 461.213 249.914 462.024C250.724 462.835 251.13 463.827 251.13 465C251.13 466.173 250.724 467.165 249.914 467.976C249.114 468.787 248.143 469.192 247.002 469.192C245.583 469.192 244.506 468.605 243.77 467.432V472.2H242.714V461H243.77V462.568C244.506 461.395 245.583 460.808 247.002 460.808ZM244.682 467.256C245.29 467.864 246.036 468.168 246.922 468.168C247.807 468.168 248.554 467.864 249.162 467.256C249.77 466.637 250.074 465.885 250.074 465C250.074 464.115 249.77 463.368 249.162 462.76C248.554 462.141 247.807 461.832 246.922 461.832C246.036 461.832 245.29 462.141 244.682 462.76C244.074 463.368 243.77 464.115 243.77 465C243.77 465.885 244.074 466.637 244.682 467.256ZM256.614 469.192C255.408 469.192 254.406 468.792 253.606 467.992C252.806 467.181 252.406 466.184 252.406 465C252.406 463.816 252.806 462.824 253.606 462.024C254.406 461.213 255.408 460.808 256.614 460.808C257.403 460.808 258.112 461 258.742 461.384C259.371 461.757 259.83 462.264 260.118 462.904L259.254 463.4C259.04 462.92 258.694 462.541 258.214 462.264C257.744 461.976 257.211 461.832 256.614 461.832C255.728 461.832 254.982 462.141 254.374 462.76C253.766 463.368 253.462 464.115 253.462 465C253.462 465.885 253.766 466.637 254.374 467.256C254.982 467.864 255.728 468.168 256.614 468.168C257.211 468.168 257.744 468.029 258.214 467.752C258.683 467.464 259.051 467.08 259.318 466.6L260.198 467.112C259.867 467.752 259.382 468.259 258.742 468.632C258.102 469.005 257.392 469.192 256.614 469.192ZM268.34 467.992C267.529 468.792 266.537 469.192 265.364 469.192C264.19 469.192 263.193 468.792 262.372 467.992C261.561 467.181 261.156 466.184 261.156 465C261.156 463.816 261.561 462.824 262.372 462.024C263.193 461.213 264.19 460.808 265.364 460.808C266.537 460.808 267.529 461.213 268.34 462.024C269.161 462.824 269.572 463.816 269.572 465C269.572 466.184 269.161 467.181 268.34 467.992ZM263.124 467.256C263.732 467.864 264.478 468.168 265.364 468.168C266.249 468.168 266.996 467.864 267.604 467.256C268.212 466.637 268.516 465.885 268.516 465C268.516 464.115 268.212 463.368 267.604 462.76C266.996 462.141 266.249 461.832 265.364 461.832C264.478 461.832 263.732 462.141 263.124 462.76C262.516 463.368 262.212 464.115 262.212 465C262.212 465.885 262.516 466.637 263.124 467.256ZM279.179 461V469H278.123V462.616L275.323 467.16H275.195L272.395 462.616V469H271.339V461H272.555L275.259 465.384L277.963 461H279.179ZM35.84 483V491H34.784V484.024H30.176V491H29.12V483H35.84ZM44.9531 483H46.0091V491H44.9531V489.432C44.2171 490.605 43.1398 491.192 41.7211 491.192C40.5798 491.192 39.6038 490.787 38.7931 489.976C37.9931 489.165 37.5931 488.173 37.5931 487C37.5931 485.827 37.9931 484.835 38.7931 484.024C39.6038 483.213 40.5798 482.808 41.7211 482.808C43.1398 482.808 44.2171 483.395 44.9531 484.568V483ZM39.5611 489.256C40.1691 489.864 40.9158 490.168 41.8011 490.168C42.6865 490.168 43.4331 489.864 44.0411 489.256C44.6491 488.637 44.9531 487.885 44.9531 487C44.9531 486.115 44.6491 485.368 44.0411 484.76C43.4331 484.141 42.6865 483.832 41.8011 483.832C40.9158 483.832 40.1691 484.141 39.5611 484.76C38.9531 485.368 38.6491 486.115 38.6491 487C38.6491 487.885 38.9531 488.637 39.5611 489.256ZM52.533 482.808C53.6743 482.808 54.645 483.213 55.445 484.024C56.2557 484.835 56.661 485.827 56.661 487C56.661 488.173 56.2557 489.165 55.445 489.976C54.645 490.787 53.6743 491.192 52.533 491.192C51.1143 491.192 50.037 490.605 49.301 489.432V494.2H48.245V483H49.301V484.568C50.037 483.395 51.1143 482.808 52.533 482.808ZM50.213 489.256C50.821 489.864 51.5677 490.168 52.453 490.168C53.3383 490.168 54.085 489.864 54.693 489.256C55.301 488.637 55.605 487.885 55.605 487C55.605 486.115 55.301 485.368 54.693 484.76C54.085 484.141 53.3383 483.832 52.453 483.832C51.5677 483.832 50.821 484.141 50.213 484.76C49.605 485.368 49.301 486.115 49.301 487C49.301 487.885 49.605 488.637 50.213 489.256ZM65.2969 483H66.3529V491H65.2969V489.432C64.5609 490.605 63.4835 491.192 62.0649 491.192C60.9235 491.192 59.9475 490.787 59.1369 489.976C58.3369 489.165 57.9369 488.173 57.9369 487C57.9369 485.827 58.3369 484.835 59.1369 484.024C59.9475 483.213 60.9235 482.808 62.0649 482.808C63.4835 482.808 64.5609 483.395 65.2969 484.568V483ZM59.9049 489.256C60.5129 489.864 61.2595 490.168 62.1449 490.168C63.0302 490.168 63.7769 489.864 64.3849 489.256C64.9929 488.637 65.2969 487.885 65.2969 487C65.2969 486.115 64.9929 485.368 64.3849 484.76C63.7769 484.141 63.0302 483.832 62.1449 483.832C61.2595 483.832 60.5129 484.141 59.9049 484.76C59.2969 485.368 58.9929 486.115 58.9929 487C58.9929 487.885 59.2969 488.637 59.9049 489.256ZM75.1488 483V491H74.0928V484.024H70.4768V487.592C70.4768 488.925 70.2208 489.843 69.7088 490.344C69.2074 490.845 68.5141 491.064 67.6288 491V490.008C68.2368 490.072 68.6848 489.928 68.9728 489.576C69.2714 489.224 69.4208 488.563 69.4208 487.592V483H75.1488ZM83.9456 483V491H82.8896V484.024H79.2736V487.592C79.2736 488.925 79.0176 489.843 78.5056 490.344C78.0043 490.845 77.311 491.064 76.4256 491V490.008C77.0336 490.072 77.4816 489.928 77.7696 489.576C78.0683 489.224 78.2176 488.563 78.2176 487.592V483H83.9456ZM89.8785 482.808C91.0625 482.808 92.0172 483.229 92.7425 484.072C93.4785 484.904 93.8465 485.891 93.8465 487.032C93.8465 487.149 93.8358 487.315 93.8145 487.528H86.7905C86.8972 488.339 87.2385 488.984 87.8145 489.464C88.4012 489.933 89.1212 490.168 89.9745 490.168C90.5825 490.168 91.1052 490.045 91.5425 489.8C91.9905 489.544 92.3265 489.213 92.5505 488.808L93.4785 489.352C93.1265 489.917 92.6465 490.365 92.0385 490.696C91.4305 491.027 90.7372 491.192 89.9585 491.192C88.6998 491.192 87.6758 490.797 86.8865 490.008C86.0972 489.219 85.7025 488.216 85.7025 487C85.7025 485.805 86.0918 484.808 86.8705 484.008C87.6492 483.208 88.6518 482.808 89.8785 482.808ZM89.8785 483.832C89.0465 483.832 88.3478 484.083 87.7825 484.584C87.2278 485.075 86.8972 485.715 86.7905 486.504H92.7585C92.6518 485.661 92.3265 485.005 91.7825 484.536C91.2385 484.067 90.6038 483.832 89.8785 483.832ZM101.774 483V491H100.718V484.024H97.1018V487.592C97.1018 488.925 96.8458 489.843 96.3338 490.344C95.8324 490.845 95.1391 491.064 94.2538 491V490.008C94.8618 490.072 95.3098 489.928 95.5978 489.576C95.8964 489.224 96.0458 488.563 96.0458 487.592V483H101.774ZM107.259 486.04C108.005 486.04 108.635 486.275 109.147 486.744C109.669 487.203 109.931 487.795 109.931 488.52C109.931 489.245 109.669 489.843 109.147 490.312C108.635 490.771 108.005 491 107.259 491H104.011V483H105.067V486.04H107.259ZM107.259 489.976C107.707 489.976 108.085 489.843 108.395 489.576C108.715 489.309 108.875 488.957 108.875 488.52C108.875 488.083 108.715 487.731 108.395 487.464C108.085 487.197 107.707 487.064 107.259 487.064H105.067V489.976H107.259ZM117.19 483H118.246V491H117.19V487.512H112.582V491H111.526V483H112.582V486.488H117.19V483ZM127.183 489.992C126.373 490.792 125.381 491.192 124.207 491.192C123.034 491.192 122.037 490.792 121.215 489.992C120.405 489.181 119.999 488.184 119.999 487C119.999 485.816 120.405 484.824 121.215 484.024C122.037 483.213 123.034 482.808 124.207 482.808C125.381 482.808 126.373 483.213 127.183 484.024C128.005 484.824 128.415 485.816 128.415 487C128.415 488.184 128.005 489.181 127.183 489.992ZM121.967 489.256C122.575 489.864 123.322 490.168 124.207 490.168C125.093 490.168 125.839 489.864 126.447 489.256C127.055 488.637 127.359 487.885 127.359 487C127.359 486.115 127.055 485.368 126.447 484.76C125.839 484.141 125.093 483.832 124.207 483.832C123.322 483.832 122.575 484.141 121.967 484.76C121.359 485.368 121.055 486.115 121.055 487C121.055 487.885 121.359 488.637 121.967 489.256ZM137.911 491.192C136.705 491.192 135.703 490.792 134.903 489.992C134.103 489.181 133.703 488.184 133.703 487C133.703 485.816 134.103 484.824 134.903 484.024C135.703 483.213 136.705 482.808 137.911 482.808C138.7 482.808 139.409 483 140.039 483.384C140.668 483.757 141.127 484.264 141.415 484.904L140.551 485.4C140.337 484.92 139.991 484.541 139.511 484.264C139.041 483.976 138.508 483.832 137.911 483.832C137.025 483.832 136.279 484.141 135.671 484.76C135.063 485.368 134.759 486.115 134.759 487C134.759 487.885 135.063 488.637 135.671 489.256C136.279 489.864 137.025 490.168 137.911 490.168C138.508 490.168 139.041 490.029 139.511 489.752C139.98 489.464 140.348 489.08 140.615 488.6L141.495 489.112C141.164 489.752 140.679 490.259 140.039 490.632C139.399 491.005 138.689 491.192 137.911 491.192ZM149.637 489.992C148.826 490.792 147.834 491.192 146.661 491.192C145.487 491.192 144.49 490.792 143.669 489.992C142.858 489.181 142.453 488.184 142.453 487C142.453 485.816 142.858 484.824 143.669 484.024C144.49 483.213 145.487 482.808 146.661 482.808C147.834 482.808 148.826 483.213 149.637 484.024C150.458 484.824 150.869 485.816 150.869 487C150.869 488.184 150.458 489.181 149.637 489.992ZM144.421 489.256C145.029 489.864 145.775 490.168 146.661 490.168C147.546 490.168 148.293 489.864 148.901 489.256C149.509 488.637 149.812 487.885 149.812 487C149.812 486.115 149.509 485.368 148.901 484.76C148.293 484.141 147.546 483.832 146.661 483.832C145.775 483.832 145.029 484.141 144.421 484.76C143.813 485.368 143.509 486.115 143.509 487C143.509 487.885 143.813 488.637 144.421 489.256ZM161.724 486.888C162.598 487.208 163.036 487.832 163.036 488.76C163.036 489.411 162.817 489.949 162.38 490.376C161.953 490.792 161.334 491 160.524 491H156.636V483H160.204C160.982 483 161.585 483.203 162.012 483.608C162.438 484.003 162.652 484.515 162.652 485.144C162.652 485.944 162.342 486.525 161.724 486.888ZM160.204 484.024H157.692V486.456H160.204C161.132 486.456 161.596 486.04 161.596 485.208C161.596 484.835 161.473 484.547 161.228 484.344C160.993 484.131 160.652 484.024 160.204 484.024ZM160.524 489.976C160.993 489.976 161.35 489.864 161.596 489.64C161.852 489.416 161.98 489.101 161.98 488.696C161.98 488.323 161.852 488.029 161.596 487.816C161.35 487.592 160.993 487.48 160.524 487.48H157.692V489.976H160.524ZM168.764 486.888C169.692 487.24 170.156 487.88 170.156 488.808C170.156 489.469 169.894 490.035 169.372 490.504C168.86 490.963 168.124 491.192 167.164 491.192C165.553 491.192 164.497 490.552 163.996 489.272L164.892 488.744C165.222 489.693 165.98 490.168 167.164 490.168C167.782 490.168 168.257 490.035 168.588 489.768C168.929 489.501 169.1 489.16 169.1 488.744C169.1 488.371 168.961 488.067 168.684 487.832C168.406 487.597 168.033 487.48 167.564 487.48H166.396V486.456H167.244C167.702 486.456 168.06 486.344 168.316 486.12C168.582 485.885 168.716 485.565 168.716 485.16C168.716 484.776 168.561 484.461 168.252 484.216C167.942 483.96 167.526 483.832 167.004 483.832C166.001 483.832 165.334 484.232 165.004 485.032L164.124 484.52C164.657 483.379 165.617 482.808 167.004 482.808C167.846 482.808 168.518 483.032 169.02 483.48C169.521 483.917 169.772 484.456 169.772 485.096C169.772 485.917 169.436 486.515 168.764 486.888ZM176.049 482.808C177.19 482.808 178.161 483.213 178.961 484.024C179.771 484.835 180.177 485.827 180.177 487C180.177 488.173 179.771 489.165 178.961 489.976C178.161 490.787 177.19 491.192 176.049 491.192C174.63 491.192 173.553 490.605 172.817 489.432V494.2H171.761V483H172.817V484.568C173.553 483.395 174.63 482.808 176.049 482.808ZM173.729 489.256C174.337 489.864 175.083 490.168 175.969 490.168C176.854 490.168 177.601 489.864 178.209 489.256C178.817 488.637 179.121 487.885 179.121 487C179.121 486.115 178.817 485.368 178.209 484.76C177.601 484.141 176.854 483.832 175.969 483.832C175.083 483.832 174.337 484.141 173.729 484.76C173.121 485.368 172.817 486.115 172.817 487C172.817 487.885 173.121 488.637 173.729 489.256ZM188.637 489.992C187.826 490.792 186.834 491.192 185.661 491.192C184.487 491.192 183.49 490.792 182.669 489.992C181.858 489.181 181.453 488.184 181.453 487C181.453 485.816 181.858 484.824 182.669 484.024C183.49 483.213 184.487 482.808 185.661 482.808C186.834 482.808 187.826 483.213 188.637 484.024C189.458 484.824 189.869 485.816 189.869 487C189.869 488.184 189.458 489.181 188.637 489.992ZM183.421 489.256C184.029 489.864 184.775 490.168 185.661 490.168C186.546 490.168 187.293 489.864 187.901 489.256C188.509 488.637 188.812 487.885 188.812 487C188.812 486.115 188.509 485.368 187.901 484.76C187.293 484.141 186.546 483.832 185.661 483.832C184.775 483.832 184.029 484.141 183.421 484.76C182.813 485.368 182.509 486.115 182.509 487C182.509 487.885 182.813 488.637 183.421 489.256ZM195.364 491.192C194.158 491.192 193.156 490.792 192.356 489.992C191.556 489.181 191.156 488.184 191.156 487C191.156 485.816 191.556 484.824 192.356 484.024C193.156 483.213 194.158 482.808 195.364 482.808C196.153 482.808 196.862 483 197.492 483.384C198.121 483.757 198.58 484.264 198.868 484.904L198.004 485.4C197.79 484.92 197.444 484.541 196.964 484.264C196.494 483.976 195.961 483.832 195.364 483.832C194.478 483.832 193.732 484.141 193.124 484.76C192.516 485.368 192.212 486.115 192.212 487C192.212 487.885 192.516 488.637 193.124 489.256C193.732 489.864 194.478 490.168 195.364 490.168C195.961 490.168 196.494 490.029 196.964 489.752C197.433 489.464 197.801 489.08 198.068 488.6L198.948 489.112C198.617 489.752 198.132 490.259 197.492 490.632C196.852 491.005 196.142 491.192 195.364 491.192ZM206.868 483V491H205.812V484.024H202.196V487.592C202.196 488.925 201.94 489.843 201.428 490.344C200.926 490.845 200.233 491.064 199.348 491V490.008C199.956 490.072 200.404 489.928 200.692 489.576C200.99 489.224 201.14 488.563 201.14 487.592V483H206.868ZM212.352 486.04C213.099 486.04 213.728 486.275 214.24 486.744C214.763 487.203 215.024 487.795 215.024 488.52C215.024 489.245 214.763 489.843 214.24 490.312C213.728 490.771 213.099 491 212.352 491H209.104V483H210.16V486.04H212.352ZM216.144 483H217.2V491H216.144V483ZM212.352 489.976C212.8 489.976 213.179 489.843 213.488 489.576C213.808 489.309 213.968 488.957 213.968 488.52C213.968 488.083 213.808 487.731 213.488 487.464C213.179 487.197 212.8 487.064 212.352 487.064H210.16V489.976H212.352ZM227.288 483V491H226.232V484.616L223.432 489.16H223.304L220.504 484.616V491H219.448V483H220.664L223.368 487.384L226.072 483H227.288ZM235.35 483H236.246V491H235.19V484.84L230.422 491H229.526V483H230.582V489.16L235.35 483ZM239.823 490.904C239.653 491.075 239.445 491.16 239.199 491.16C238.954 491.16 238.746 491.075 238.575 490.904C238.405 490.733 238.319 490.525 238.319 490.28C238.319 490.035 238.405 489.827 238.575 489.656C238.746 489.485 238.954 489.4 239.199 489.4C239.445 489.4 239.653 489.485 239.823 489.656C239.994 489.827 240.079 490.035 240.079 490.28C240.079 490.525 239.994 490.733 239.823 490.904Z" fill="#2D3548"/>
</svg>
