<svg xmlns="http://www.w3.org/2000/svg" width="180.75" height="29.594" viewBox="0 0 180.75 29.594">
  <defs>
    <style>
      .cls-1 {
        fill: #f1cdb3;
        fill-rule: evenodd;
      }
    </style>
  </defs>
  <path id="Cozy_House" data-name="Cozy House" class="cls-1" d="M391.565,80.769a9.678,9.678,0,0,0,3.56-4.711l-1.172-.562a8.624,8.624,0,0,1-.968,1.906,8.2,8.2,0,0,1-1.373,1.563,6.231,6.231,0,0,1-1.842,1.055,6.56,6.56,0,0,1-2.325.4,6.231,6.231,0,0,1-3.052-.75,7.414,7.414,0,0,1-2.364-2.08,10.1,10.1,0,0,1-1.538-3.12,13.426,13.426,0,0,1-.538-3.9,17.143,17.143,0,0,1,.515-4.363,9.81,9.81,0,0,1,1.42-3.222A6.426,6.426,0,0,1,384.143,61a6.056,6.056,0,0,1,2.817-.672,4.588,4.588,0,0,1,2.357.6A5.692,5.692,0,0,1,391.1,62.59a9.712,9.712,0,0,1,1.17,2.289,18.747,18.747,0,0,1,.75,2.508H394.3l-0.141-7.906h-1.25l-0.64,1.063a11.021,11.021,0,0,0-2.529-1.141A10.108,10.108,0,0,0,386.771,59a10.227,10.227,0,0,0-4.136.845,9.851,9.851,0,0,0-3.357,2.392,11.316,11.316,0,0,0-2.247,3.729,13.635,13.635,0,0,0-.812,4.824,13.035,13.035,0,0,0,.827,4.777,10.96,10.96,0,0,0,2.217,3.588,9.746,9.746,0,0,0,3.224,2.251A10.154,10.154,0,0,0,391.565,80.769ZM411.41,67.988a7.7,7.7,0,0,0-10.855.117,8.4,8.4,0,0,0-2.1,5.906,9.04,9.04,0,0,0,.6,3.383,7.717,7.717,0,0,0,1.619,2.555,7.046,7.046,0,0,0,2.361,1.617,7.207,7.207,0,0,0,2.8.555,8.032,8.032,0,0,0,3.191-.609,6.845,6.845,0,0,0,2.5-1.859A7.609,7.609,0,0,0,413,76.988a10.174,10.174,0,0,0,.516-3.2A8,8,0,0,0,411.41,67.988Zm-2.273,11.055a3.484,3.484,0,0,1-3.1,1.891,3.367,3.367,0,0,1-2-.57,4.408,4.408,0,0,1-1.338-1.57,7.964,7.964,0,0,1-.775-2.273,14.812,14.812,0,0,1-.243-2.773,14.4,14.4,0,0,1,.2-2.359,7.189,7.189,0,0,1,.7-2.172,4.38,4.38,0,0,1,1.385-1.625A3.515,3.515,0,0,1,406.038,67a3.315,3.315,0,0,1,1.988.586,4.331,4.331,0,0,1,1.315,1.555,7.84,7.84,0,0,1,.7,2.211,14.053,14.053,0,0,1,.235,2.477A10.085,10.085,0,0,1,409.137,79.043Zm20.5-2.828H428.7q-0.187.75-.43,1.547t-0.413,1.25a2.853,2.853,0,0,1-.493.891,1.233,1.233,0,0,1-.944.422q-1.064.063-1.742,0.078t-1.3.016q-0.782,0-1.453-.008t-1.234-.023l8.857-13.5V66.246H417.763V70.98h0.953a9.98,9.98,0,0,1,.665-2.125,1.823,1.823,0,0,1,.822-0.984,4.361,4.361,0,0,1,1.409-.312q0.768-.047,2.13-0.047h2.16l-8.733,13.313v0.828h12.469V76.215Zm2.865,11.8a2.908,2.908,0,0,0,1.914.578,3.329,3.329,0,0,0,1.211-.227,4.385,4.385,0,0,0,1.305-.883,10.287,10.287,0,0,0,1.508-1.93,29.028,29.028,0,0,0,1.758-3.414q0.75-1.672,2.195-5.219t3.305-7.859a2.82,2.82,0,0,1,1.14-1.3,3.843,3.843,0,0,1,1.235-.539V66.246h-5.722v1a4.228,4.228,0,0,1,1.351.43,1,1,0,0,1,.711.757,2.564,2.564,0,0,1-.2.9q-0.2.523-.313,0.82-0.939,2.435-1.7,4.223t-1.463,3.458q-0.671-1.748-1.885-4.66t-1.808-4.458q-0.093-.234-0.164-0.453a1.183,1.183,0,0,1-.07-0.312,0.732,0.732,0,0,1,.656-0.413,5.014,5.014,0,0,1,1.125-.2V66.246h-7.034v1.031a4.14,4.14,0,0,1,1.406.508,2.241,2.241,0,0,1,1,1.117q1.313,3.124,2.515,6.045t2.687,6.623a17.838,17.838,0,0,1-1.57,3.118,6.235,6.235,0,0,1-1.867,2.2q-0.156-.264-0.422-0.666a4.023,4.023,0,0,0-.5-0.636,2.414,2.414,0,0,0-.64-0.481,1.849,1.849,0,0,0-.859-0.186,1.364,1.364,0,0,0-1.071.492,1.867,1.867,0,0,0-.429,1.273A1.7,1.7,0,0,0,432.5,88.011Zm51.52-7.469a6.992,6.992,0,0,1-1.07-.156,3.966,3.966,0,0,1-.945-0.281,1.539,1.539,0,0,1-.711-0.656,2.12,2.12,0,0,1-.18-0.922V62.543a2.481,2.481,0,0,1,.18-0.953,1.113,1.113,0,0,1,.711-0.625,7.488,7.488,0,0,1,.945-0.234,6.989,6.989,0,0,1,1.07-.141V59.48h-9.2V60.59a5.929,5.929,0,0,1,1.039.188,5.7,5.7,0,0,1,1.024.359,1.415,1.415,0,0,1,.7.648,2.053,2.053,0,0,1,.2.914v6.719H467.367V62.543a2.481,2.481,0,0,1,.18-0.953,1.113,1.113,0,0,1,.711-0.625,7.488,7.488,0,0,1,.945-0.234,6.989,6.989,0,0,1,1.07-.141V59.48h-9.2V60.59a5.929,5.929,0,0,1,1.039.188,5.675,5.675,0,0,1,1.024.359,1.415,1.415,0,0,1,.7.648,2.053,2.053,0,0,1,.2.914v16a1.984,1.984,0,0,1-.219.992,1.325,1.325,0,0,1-.687.57,3.258,3.258,0,0,1-.977.188l-1.086.094v1.109h9.2V80.543a6.992,6.992,0,0,1-1.07-.156,3.966,3.966,0,0,1-.945-0.281,1.539,1.539,0,0,1-.711-0.656,2.12,2.12,0,0,1-.18-0.922V70.808h10.422V78.7a1.984,1.984,0,0,1-.219.992,1.325,1.325,0,0,1-.687.57,3.258,3.258,0,0,1-.977.188l-1.086.094v1.109h9.2V80.543Zm17.036-12.555a7.7,7.7,0,0,0-10.855.117,8.4,8.4,0,0,0-2.1,5.906,9.06,9.06,0,0,0,.6,3.383,7.733,7.733,0,0,0,1.619,2.555,7.05,7.05,0,0,0,2.362,1.617,7.2,7.2,0,0,0,2.8.555,8.032,8.032,0,0,0,3.191-.609,6.842,6.842,0,0,0,2.5-1.859,7.627,7.627,0,0,0,1.471-2.664,10.174,10.174,0,0,0,.516-3.2A8.008,8.008,0,0,0,501.059,67.988Zm-2.274,11.055a3.482,3.482,0,0,1-3.1,1.891,3.37,3.37,0,0,1-2-.57,4.428,4.428,0,0,1-1.338-1.57,8,8,0,0,1-.775-2.273,14.815,14.815,0,0,1-.242-2.773,14.287,14.287,0,0,1,.2-2.359,7.189,7.189,0,0,1,.7-2.172,4.382,4.382,0,0,1,1.386-1.625A3.509,3.509,0,0,1,495.686,67a3.313,3.313,0,0,1,1.988.586,4.321,4.321,0,0,1,1.315,1.555,7.808,7.808,0,0,1,.7,2.211,13.959,13.959,0,0,1,.235,2.477A10.085,10.085,0,0,1,498.785,79.043Zm24.814,1.3a8.175,8.175,0,0,1-.86-0.07,1.738,1.738,0,0,1-.672-0.227,1.98,1.98,0,0,1-.609-0.64,1.765,1.765,0,0,1-.219-0.906V66.277L521,66.058l-5.609.375v1.031q0.689,0.032,1.243.07a1.748,1.748,0,0,1,.836.226,2.05,2.05,0,0,1,.609.679,1.863,1.863,0,0,1,.219.913v8.724a4.015,4.015,0,0,1-.492.679,5.261,5.261,0,0,1-.743.694,4.4,4.4,0,0,1-1.125.624,4.144,4.144,0,0,1-1.531.265,2.324,2.324,0,0,1-1.8-.844,3.685,3.685,0,0,1-.75-2.516v-10.7l-0.234-.219-5.141.375v1.031a6.818,6.818,0,0,1,.9.117,1.867,1.867,0,0,1,1.329.937,1.917,1.917,0,0,1,.213.944v7.367A6.091,6.091,0,0,0,510,80.708a3.752,3.752,0,0,0,3.112,1.334,6.125,6.125,0,0,0,1.856-.219,6.893,6.893,0,0,0,1.358-.641,5.935,5.935,0,0,0,1.076-.8q0.468-.445.842-0.836h0.094V81.5l0.235,0.219,5.031-.344V80.34Zm12.8-7.2a15.165,15.165,0,0,0-1.946-.766q-1.047-.344-1.757-0.617a6.029,6.029,0,0,1-1.18-.586,2.163,2.163,0,0,1-.727-0.8,2.543,2.543,0,0,1-.242-1.172,2,2,0,0,1,.735-1.558A2.946,2.946,0,0,1,533.3,67a3.681,3.681,0,0,1,2.649,1.043,4.981,4.981,0,0,1,1.414,2.707h1.078l-0.235-4.953h-1.125l-0.359.813a6.406,6.406,0,0,0-1.539-.562,7.672,7.672,0,0,0-1.852-.234,5.3,5.3,0,0,0-3.765,1.313,4.214,4.214,0,0,0-1.406,3.2A3.833,3.833,0,0,0,528.6,72.2a4.412,4.412,0,0,0,1.125,1.344,6.5,6.5,0,0,0,1.539.9,15.448,15.448,0,0,0,1.633.6q0.921,0.281,1.672.57a5.954,5.954,0,0,1,1.265.648,2.493,2.493,0,0,1,.758.836,2.346,2.346,0,0,1,.258,1.133,2.417,2.417,0,0,1-.812,1.957,3.5,3.5,0,0,1-2.313.684,3.894,3.894,0,0,1-1.914-.47,5.424,5.424,0,0,1-1.461-1.16,6.841,6.841,0,0,1-.984-1.474,6.02,6.02,0,0,1-.532-1.427h-1.078L527.91,81.7h1.171l0.313-1.016a6.809,6.809,0,0,0,1.617.891,6.847,6.847,0,0,0,6.625-.875,4.38,4.38,0,0,0,1.6-3.5,4.224,4.224,0,0,0-.344-1.8,3.934,3.934,0,0,0-.984-1.3A6.4,6.4,0,0,0,536.4,73.136Zm19.475,4.219a6.445,6.445,0,0,1-1.946,2.348,4.316,4.316,0,0,1-2.4.652,4.92,4.92,0,0,1-2.344-.525A4.349,4.349,0,0,1,547.6,78.4a6.607,6.607,0,0,1-.915-2.177,12.174,12.174,0,0,1-.289-2.756h10.2V72.433a9.061,9.061,0,0,0-.352-2.578,5.8,5.8,0,0,0-1.07-2.062,5.146,5.146,0,0,0-1.953-1.453,7.135,7.135,0,0,0-2.891-.531,6.373,6.373,0,0,0-2.961.68,6.773,6.773,0,0,0-2.211,1.789,8.289,8.289,0,0,0-1.4,2.6,9.341,9.341,0,0,0-.477,2.945A11.084,11.084,0,0,0,543.728,77a7.571,7.571,0,0,0,1.352,2.625,6.39,6.39,0,0,0,2.3,1.781,7.591,7.591,0,0,0,3.257.656,6.533,6.533,0,0,0,3.735-1.094,7.894,7.894,0,0,0,2.594-2.937Zm-9.485-5.2a6.352,6.352,0,0,1,1.18-3.793A3.35,3.35,0,0,1,550.3,67a2.68,2.68,0,0,1,1.609.452,3.161,3.161,0,0,1,.984,1.168,5.718,5.718,0,0,1,.477,1.667,12.72,12.72,0,0,1,.148,1.869h-7.125Z" transform="translate(-376.219 -59)"/>
</svg>
