<svg xmlns="http://www.w3.org/2000/svg" width="97.22" height="37.875" viewBox="0 0 97.22 37.875">
  <defs>
    <style>
      .cls-1 {
        fill: #fff;
        fill-rule: evenodd;
      }
    </style>
  </defs>
  <path id="Travely" class="cls-1" d="M927.94,85.787a24.371,24.371,0,0,0-5.64,1.875,14.8,14.8,0,0,0-3.9,2.685,13.672,13.672,0,0,0-2.415,3.135,11.091,11.091,0,0,0-1.38,6.12,6.665,6.665,0,0,0,.54,2.265,2.528,2.528,0,0,0,1,1.245,0.414,0.414,0,0,0,.36.015,0.408,0.408,0,0,0,.24-0.285,5.22,5.22,0,0,1,.945-1.98,5.419,5.419,0,0,1,1.35-1.2,5.827,5.827,0,0,1,1.5-.66q0.765-.209,1.4-0.345a8.386,8.386,0,0,0,1.05-.285,0.645,0.645,0,0,0,.48-0.45,10.58,10.58,0,0,1,.15-1.26,11.8,11.8,0,0,1,.6-2.19,15.229,15.229,0,0,1,1.26-2.58,10.026,10.026,0,0,1,2.16-2.49,11.223,11.223,0,0,1,3.285-1.875,13.071,13.071,0,0,1,4.635-.735q0.87,0,1.68.045t1.59,0.105a27.983,27.983,0,0,0-2.85,3.075q-1.44,1.785-2.895,3.825t-2.94,4.245q-1.485,2.2-2.97,4.3t-2.955,3.975a31.326,31.326,0,0,1-2.94,3.285,14.849,14.849,0,0,1-2.925,2.235,5.782,5.782,0,0,1-2.865.825,11.9,11.9,0,0,1-2.4-.18,4.071,4.071,0,0,1-1.2-.42,0.291,0.291,0,0,0-.285.03,0.218,0.218,0,0,0-.105.24,5.734,5.734,0,0,0,.15.855,8.274,8.274,0,0,0,.315,1.005,4.725,4.725,0,0,0,.525.99,4.149,4.149,0,0,0,.81.87,5.224,5.224,0,0,1,1.14,1.32,7.623,7.623,0,0,1,.765,1.665,8.019,8.019,0,0,1,.36,1.83,9.618,9.618,0,0,1-.015,1.785,0.225,0.225,0,0,0,.045.21,0.179,0.179,0,0,0,.195.06,7.653,7.653,0,0,0,4.245-1.65,20.107,20.107,0,0,0,3.87-3.975,43.836,43.836,0,0,0,3.525-5.55q1.68-3.1,3.225-6.36t2.955-6.4q1.41-3.15,2.73-5.67a31.533,31.533,0,0,1,2.55-4.17,4.4,4.4,0,0,1,2.4-1.89,25,25,0,0,1,4.155,1.125,29.95,29.95,0,0,1,3.015,1.305,15.549,15.549,0,0,1,2.43,1.53q0.81-1.17,1.68-2.22,0.75-.9,1.665-1.8a7.282,7.282,0,0,1,1.815-1.35,10.91,10.91,0,0,1-2.355.225q-1.485.016-3.3-.075t-3.855-.255q-2.04-.164-4.02-0.315t-3.795-.27q-1.815-.119-3.165-0.12A36.5,36.5,0,0,0,927.94,85.787Zm7.5,14.092a22.708,22.708,0,0,1-.75,2.213q-0.48,1.231-1.14,2.64t-1.35,2.85q-0.69,1.44-1.4,2.85t-1.275,2.64a0.225,0.225,0,0,0,.075.27,0.261,0.261,0,0,0,.315.03,3.584,3.584,0,0,1,1.215-.435,4.015,4.015,0,0,1,1.1,0q0.54,0.075,1.1.18a6.372,6.372,0,0,0,1.185.1,0.4,0.4,0,0,0,.315-0.165,0.346,0.346,0,0,0,.075-0.345,6.4,6.4,0,0,1,.03-2.22,20.169,20.169,0,0,1,.69-2.85,8.439,8.439,0,0,1,.6-1.08q0.45-.72,1.035-1.575t1.275-1.755q0.69-.9,1.35-1.65a10.092,10.092,0,0,1,1.245-1.215A1.729,1.729,0,0,1,942.1,99.9q0.54,0,.375.585a4.677,4.677,0,0,1-.735,1.38,13.229,13.229,0,0,1-1.41,1.635,9.614,9.614,0,0,1-1.65,1.35,0.241,0.241,0,0,0,.09.45,3.332,3.332,0,0,1,1.425.495,8.276,8.276,0,0,1,.975.765q0.42,0.39.78,0.7a1.276,1.276,0,0,0,.87.315,2.236,2.236,0,0,0,1.32-.48,6.971,6.971,0,0,0,1.23-1.155,14.6,14.6,0,0,0,1.035-1.38q0.465-.7.705-1.155a0.3,0.3,0,0,0,0-.315,0.31,0.31,0,0,0-.54-0.015l-0.45.63a6.649,6.649,0,0,1-.72.84,5.314,5.314,0,0,1-.915.735,1.81,1.81,0,0,1-.975.315c-0.32,0-.43-0.185-0.33-0.557a10.032,10.032,0,0,1,.525-1.4q0.375-.844.81-1.838a7.632,7.632,0,0,0,.57-1.837,1.993,1.993,0,0,0-.21-1.4,1.708,1.708,0,0,0-1.545-.557,3.174,3.174,0,0,0-1.425.351,5.989,5.989,0,0,0-1.32.9,11.875,11.875,0,0,0-1.14,1.165q-0.525.615-.915,1.17c-0.26.371-.465,0.68-0.615,0.93a4.644,4.644,0,0,1-.255.405q0.75-1.35,1.56-2.54a12.224,12.224,0,0,1,1.68-2.014,0.214,0.214,0,0,0,.015-0.319,0.27,0.27,0,0,0-.315-0.107q-0.42.121-1.2,0.38a4.916,4.916,0,0,1-1.56.259,2.229,2.229,0,0,1-1.02-.213q-0.42-.214-0.78-0.366a0.272,0.272,0,0,0-.285.046,0.25,0.25,0,0,0-.105.258A4.492,4.492,0,0,1,935.44,99.879Zm26.58,3.128a0.463,0.463,0,0,0-.12.135q-0.12.21-.45,0.765t-0.8,1.26q-0.465.7-1,1.485a17.113,17.113,0,0,1-1.08,1.41,8.65,8.65,0,0,1-1.05,1.05,1.5,1.5,0,0,1-.9.42,0.728,0.728,0,0,1-.69-0.374,1.973,1.973,0,0,1-.21-0.972,4.886,4.886,0,0,1,.315-1.541,17.384,17.384,0,0,1,.81-1.93q0.495-1.017,1.1-2.049t1.185-1.9q0.585-.867,1.08-1.5a5.325,5.325,0,0,1,.765-0.838,0.2,0.2,0,0,0,.03-0.3,0.273,0.273,0,0,0-.33-0.12q-0.21.061-.54,0.165t-0.705.21q-0.375.1-.75,0.18a3.381,3.381,0,0,1-.645.075,2.673,2.673,0,0,1-1.08-.21q-0.48-.21-0.87-0.359a0.233,0.233,0,0,0-.255.03,0.3,0.3,0,0,0-.105.239,4.156,4.156,0,0,1-.3,1.826,2.871,2.871,0,0,0-.907-1.526,2.909,2.909,0,0,0-1.937-.569,5.654,5.654,0,0,0-3.426,1.123,10.252,10.252,0,0,0-2.6,2.8,13.366,13.366,0,0,0-1.6,3.638,11.118,11.118,0,0,0-.435,3.638,5.169,5.169,0,0,0,.93,2.8,2.873,2.873,0,0,0,2.475,1.122,3.324,3.324,0,0,0,1.935-.765,10.1,10.1,0,0,0,2-2.025,5.251,5.251,0,0,0,.151.9,2.811,2.811,0,0,0,.408.9,2.377,2.377,0,0,0,.771.7,2.419,2.419,0,0,0,1.24.285,2.629,2.629,0,0,0,1.523-.615,10.1,10.1,0,0,0,1.652-1.59,23.345,23.345,0,0,0,1.605-2.145q0.78-1.17,1.44-2.28t1.155-2.01q0.5-.9.705-1.32a0.173,0.173,0,0,0,0-.195,0.2,0.2,0,0,0-.18-0.105A0.477,0.477,0,0,0,962.02,103.007Zm-8.67,1.83a19.383,19.383,0,0,0-1.14,2.985,6.649,6.649,0,0,1-1.02,1.125,1.5,1.5,0,0,1-.93.435,1.624,1.624,0,0,1-1.545-.765,3.429,3.429,0,0,1-.375-1.905,8.886,8.886,0,0,1,.54-2.49,12.009,12.009,0,0,1,1.215-2.49,8.559,8.559,0,0,1,1.635-1.9,2.761,2.761,0,0,1,1.77-.765,1.094,1.094,0,0,1,1.155.825,4.478,4.478,0,0,1,.045,2.055Q954.07,103.322,953.35,104.837Zm9.48-1.365q0.12-.209.45-0.72t0.675-1.035c0.23-.349.45-0.66,0.66-0.93a0.9,0.9,0,0,1,.465-0.405,0.582,0.582,0,0,1-.09.51q-0.18.512-.525,1.32t-0.765,1.83q-0.42,1.02-.8,2.04t-0.63,1.95a6.038,6.038,0,0,0-.255,1.53,3.665,3.665,0,0,0,.915,2.745,3.327,3.327,0,0,0,2.415.885,2.636,2.636,0,0,0,1.605-.795,14.277,14.277,0,0,0,1.9-2.085,33.189,33.189,0,0,0,1.98-2.91q0.99-1.62,1.815-3.27t1.425-3.18a15.486,15.486,0,0,0,.81-2.61,0.254,0.254,0,0,0-.09-0.255,0.245,0.245,0,0,0-.27-0.045,5.521,5.521,0,0,1-1.725.225,7.833,7.833,0,0,1-1.785-.225,0.245,0.245,0,0,0-.27.045,0.254,0.254,0,0,0-.09.255,8.658,8.658,0,0,1-.03,2.145,25.069,25.069,0,0,1-.465,2.655q-0.315,1.38-.735,2.76t-0.84,2.475a17.434,17.434,0,0,1-.78,1.785,1.133,1.133,0,0,1-.57.69,0.907,0.907,0,0,1-.96-0.555,3.038,3.038,0,0,1-.09-1.455,12.279,12.279,0,0,1,.48-2.04q0.36-1.14.75-2.355t0.72-2.355a10.61,10.61,0,0,0,.4-2.04,2.591,2.591,0,0,0-.225-1.455,1.207,1.207,0,0,0-1.17-.555,2.254,2.254,0,0,0-1.455.63,11.046,11.046,0,0,0-1.41,1.47,14.882,14.882,0,0,0-1.185,1.7q-0.51.855-.78,1.3a0.323,0.323,0,0,0,.03.3,0.269,0.269,0,0,0,.24.15,0.242,0.242,0,0,0,.24-0.12h0Zm23.34-.54a0.246,0.246,0,0,0-.15.09q-0.24.36-.675,1t-0.99,1.38q-0.555.736-1.245,1.515a15.044,15.044,0,0,1-1.395,1.395,8.268,8.268,0,0,1-1.44,1.02,2.948,2.948,0,0,1-1.425.405,2.138,2.138,0,0,1-1.1-.255,1.894,1.894,0,0,1-.69-0.69,2.491,2.491,0,0,1-.315-1.02,5.248,5.248,0,0,1,.03-1.245,2.765,2.765,0,0,0,1.41.33,5.046,5.046,0,0,0,2.52-.66,7.681,7.681,0,0,0,2.025-1.635,7.187,7.187,0,0,0,1.3-2.115,5.134,5.134,0,0,0,.405-2.115,2.45,2.45,0,0,0-.675-1.635,2.585,2.585,0,0,0-1.95-.66,5.338,5.338,0,0,0-2.535.645,8.835,8.835,0,0,0-2.235,1.71,12.825,12.825,0,0,0-1.815,2.43,13.232,13.232,0,0,0-1.23,2.79,11.752,11.752,0,0,0-.51,2.79,5.709,5.709,0,0,0,.345,2.43,3.644,3.644,0,0,0,1.365,1.71,4.369,4.369,0,0,0,2.5.645,3.946,3.946,0,0,0,2.16-.675,10.023,10.023,0,0,0,1.98-1.695,17.983,17.983,0,0,0,1.74-2.25q0.81-1.23,1.425-2.355t1-1.98q0.39-.855.51-1.155v-0.12a0.027,0.027,0,0,0-.03-0.03h-0.33Zm-4.02-2.61a2.367,2.367,0,0,1-.105.975,5.961,5.961,0,0,1-.54,1.26,6.9,6.9,0,0,1-.9,1.26,5.269,5.269,0,0,1-1.155.975,2.52,2.52,0,0,1-1.35.39,0.744,0.744,0,0,1-.525-0.18,1.053,1.053,0,0,1-.285-0.45,10.147,10.147,0,0,1,.825-1.725,9.352,9.352,0,0,1,1.08-1.47,5.549,5.549,0,0,1,1.23-1.035,2.507,2.507,0,0,1,1.305-.39A0.4,0.4,0,0,1,982.15,100.322Zm9.66-8.895q-0.33.945-.9,2.2t-1.32,2.76q-0.75,1.5-1.53,3.075t-1.53,3.135q-0.75,1.56-1.35,2.94t-0.96,2.5a6.344,6.344,0,0,0-.36,1.845,7.087,7.087,0,0,0,.075.915,3.547,3.547,0,0,0,.33,1.08,2.429,2.429,0,0,0,.765.9,2.338,2.338,0,0,0,1.41.375,2.584,2.584,0,0,0,1.5-.6,11.419,11.419,0,0,0,1.65-1.53,23.721,23.721,0,0,0,1.65-2.055q0.81-1.125,1.5-2.22t1.215-2.01q0.525-.915.795-1.395a0.291,0.291,0,0,0-.03-0.285,0.276,0.276,0,0,0-.24-0.135,0.288,0.288,0,0,0-.24.12q-0.15.241-.51,0.81t-0.855,1.275q-0.5.7-1.08,1.485t-1.155,1.41a9.538,9.538,0,0,1-1.1,1.05,1.56,1.56,0,0,1-.915.42,0.736,0.736,0,0,1-.69-0.36,1.969,1.969,0,0,1-.21-0.99,6.384,6.384,0,0,1,.54-2.01q0.54-1.379,1.41-3.15t1.98-3.735q1.11-1.964,2.265-3.78t2.265-3.315a18.925,18.925,0,0,1,1.95-2.31,0.219,0.219,0,0,0,.03-0.315,0.247,0.247,0,0,0-.3-0.105q-0.21.061-.585,0.2t-0.825.285a8.257,8.257,0,0,1-.96.255,4.876,4.876,0,0,1-.99.105,3.113,3.113,0,0,1-1.14-.21l-0.93-.36a0.245,0.245,0,0,0-.27.045,0.254,0.254,0,0,0-.09.255A3.467,3.467,0,0,1,991.81,91.427Zm8.1,15.03a13.4,13.4,0,0,1-1,1.5,6.527,6.527,0,0,1-1.1,1.125,1.839,1.839,0,0,1-1.14.45,0.727,0.727,0,0,1-.69-0.375,1.983,1.983,0,0,1-.21-0.975,4.918,4.918,0,0,1,.315-1.545,17.52,17.52,0,0,1,.81-1.935q0.5-1.019,1.1-2.055t1.185-1.905c0.39-.58.75-1.08,1.075-1.5a5.3,5.3,0,0,1,.77-0.84,0.2,0.2,0,0,0,.03-0.3,0.273,0.273,0,0,0-.33-0.12q-0.21.061-.54,0.165t-0.7.21q-0.375.106-.75,0.18a3.347,3.347,0,0,1-.645.075A2.665,2.665,0,0,1,997,98.4q-0.48-.209-0.87-0.36a0.233,0.233,0,0,0-.33.27,3.709,3.709,0,0,1-.212,1.47q-0.271.84-.695,1.815t-0.953,2.04q-0.528,1.065-.982,2.145a19.46,19.46,0,0,0-.756,2.13,7.2,7.2,0,0,0-.3,1.98,7.087,7.087,0,0,0,.075.915,3.76,3.76,0,0,0,.333,1.095,2.4,2.4,0,0,0,.771.915,2.313,2.313,0,0,0,1.391.375,2.343,2.343,0,0,0,1.132-.285,4.579,4.579,0,0,0,1.008-.75,8.3,8.3,0,0,0,.945-1.11q0.465-.645.945-1.365h0.06q-0.78,1.47-1.62,2.775a13.541,13.541,0,0,1-1.731,2.205,5.813,5.813,0,0,1-1.8,1.29,2.3,2.3,0,0,1-1.782.06,0.208,0.208,0,0,0-.255.06,0.173,0.173,0,0,0-.015.24q0.27,0.45.586,0.99a9.2,9.2,0,0,1,.559,1.125,8.287,8.287,0,0,1,.392,1.2,4.185,4.185,0,0,1,.122,1.215,0.213,0.213,0,0,0,.242.24,5.141,5.141,0,0,0,2.76-.87,8.379,8.379,0,0,0,2.119-2.13,16.685,16.685,0,0,0,1.665-3.03q0.728-1.71,1.445-3.585c0.46-1.249.93-2.52,1.4-3.81a35.021,35.021,0,0,1,1.58-3.675,21.472,21.472,0,0,1,1.94-3.195,9.475,9.475,0,0,1,2.47-2.385c0.1-.06.11-0.155,0.03-0.285a0.269,0.269,0,0,0-.33-0.135q-0.21.061-.54,0.165t-0.72.21q-0.39.106-.75,0.18a3.128,3.128,0,0,1-.63.075,3.931,3.931,0,0,1-1.24-.21c-0.44-.14-0.77-0.26-1.01-0.36q-0.3-.09-0.36.3-0.03.151-.21,0.735t-0.48,1.47q-0.3.885-.72,2.01t-0.93,2.355Q1000.39,105.632,999.91,106.457Z" transform="translate(-911.5 -85.094)"/>
</svg>
