<?xml version="1.0" encoding="UTF-8"?> <svg xmlns="http://www.w3.org/2000/svg" width="669" height="358" viewBox="0 0 669 358" fill="none"> <g clip-path="url(#clip0_499_1451)"> <rect x="-9.90527" y="-30" width="708" height="424" fill="#FCFCFC"></rect> <line x1="80" y1="265" x2="87" y2="265" stroke="#A6A6A6" stroke-opacity="0.26" stroke-width="2"></line> <line x1="79" y1="305" x2="86" y2="305" stroke="#A6A6A6" stroke-opacity="0.26" stroke-width="2"></line> <line x1="80" y1="225" x2="87" y2="225" stroke="#A6A6A6" stroke-opacity="0.26" stroke-width="2"></line> <line x1="80" y1="185" x2="87" y2="185" stroke="#A6A6A6" stroke-opacity="0.26" stroke-width="2"></line> <line x1="80" y1="145" x2="87" y2="145" stroke="#A6A6A6" stroke-opacity="0.26" stroke-width="2"></line> <line x1="79" y1="105" x2="86" y2="105" stroke="#A6A6A6" stroke-opacity="0.26" stroke-width="2"></line> <line x1="79" y1="65" x2="86" y2="65" stroke="#A6A6A6" stroke-opacity="0.26" stroke-width="2"></line> <line x1="87" y1="50.0038" x2="86" y2="315.004" stroke="#A6A6A6" stroke-opacity="0.26" stroke-width="2"></line> <line x1="87" y1="105" x2="655" y2="105" stroke="#A6A6A6" stroke-opacity="0.26" stroke-width="2"></line> <path d="M61.8984 264.928V265.818H59.0391V264.928H61.8984ZM68.4316 268.109V269H62.8477V268.221L65.6426 265.109C65.9863 264.727 66.252 264.402 66.4395 264.137C66.6309 263.867 66.7637 263.627 66.8379 263.416C66.916 263.201 66.9551 262.982 66.9551 262.76C66.9551 262.479 66.8965 262.225 66.7793 261.998C66.666 261.768 66.498 261.584 66.2754 261.447C66.0527 261.311 65.7832 261.242 65.4668 261.242C65.0879 261.242 64.7715 261.316 64.5176 261.465C64.2676 261.609 64.0801 261.812 63.9551 262.074C63.8301 262.336 63.7676 262.637 63.7676 262.977H62.6836C62.6836 262.496 62.7891 262.057 63 261.658C63.2109 261.26 63.5234 260.943 63.9375 260.709C64.3516 260.471 64.8613 260.352 65.4668 260.352C66.0059 260.352 66.4668 260.447 66.8496 260.639C67.2324 260.826 67.5254 261.092 67.7285 261.436C67.9355 261.775 68.0391 262.174 68.0391 262.631C68.0391 262.881 67.9961 263.135 67.9102 263.393C67.8281 263.646 67.7129 263.9 67.5645 264.154C67.4199 264.408 67.25 264.658 67.0547 264.904C66.8633 265.15 66.6582 265.393 66.4395 265.631L64.1543 268.109H68.4316ZM70.6934 267.711V268.584C70.6934 268.939 70.6035 269.314 70.4238 269.709C70.2441 270.107 69.9922 270.439 69.668 270.705L69.0527 270.277C69.1777 270.105 69.2832 269.93 69.3691 269.75C69.4551 269.574 69.5195 269.391 69.5625 269.199C69.6094 269.012 69.6328 268.812 69.6328 268.602V267.711H70.6934ZM77.3145 264.055V265.355C77.3145 266.055 77.252 266.645 77.127 267.125C77.002 267.605 76.8223 267.992 76.5879 268.285C76.3535 268.578 76.0703 268.791 75.7383 268.924C75.4102 269.053 75.0391 269.117 74.625 269.117C74.2969 269.117 73.9941 269.076 73.7168 268.994C73.4395 268.912 73.1895 268.781 72.9668 268.602C72.748 268.418 72.5605 268.18 72.4043 267.887C72.248 267.594 72.1289 267.238 72.0469 266.82C71.9648 266.402 71.9238 265.914 71.9238 265.355V264.055C71.9238 263.355 71.9863 262.77 72.1113 262.297C72.2402 261.824 72.4219 261.445 72.6562 261.16C72.8906 260.871 73.1719 260.664 73.5 260.539C73.832 260.414 74.2031 260.352 74.6133 260.352C74.9453 260.352 75.25 260.393 75.5273 260.475C75.8086 260.553 76.0586 260.68 76.2773 260.855C76.4961 261.027 76.6816 261.258 76.834 261.547C76.9902 261.832 77.1094 262.182 77.1914 262.596C77.2734 263.01 77.3145 263.496 77.3145 264.055ZM76.2246 265.531V263.873C76.2246 263.49 76.2012 263.154 76.1543 262.865C76.1113 262.572 76.0469 262.322 75.9609 262.115C75.875 261.908 75.7656 261.74 75.6328 261.611C75.5039 261.482 75.3535 261.389 75.1816 261.33C75.0137 261.268 74.8242 261.236 74.6133 261.236C74.3555 261.236 74.127 261.285 73.9277 261.383C73.7285 261.477 73.5605 261.627 73.4238 261.834C73.291 262.041 73.1895 262.312 73.1191 262.648C73.0488 262.984 73.0137 263.393 73.0137 263.873V265.531C73.0137 265.914 73.0352 266.252 73.0781 266.545C73.125 266.838 73.1934 267.092 73.2832 267.307C73.373 267.518 73.4824 267.691 73.6113 267.828C73.7402 267.965 73.8887 268.066 74.0566 268.133C74.2285 268.195 74.418 268.227 74.625 268.227C74.8906 268.227 75.123 268.176 75.3223 268.074C75.5215 267.973 75.6875 267.814 75.8203 267.6C75.957 267.381 76.0586 267.102 76.125 266.762C76.1914 266.418 76.2246 266.008 76.2246 265.531Z" fill="#454545"></path> <path d="M61.8984 304.928V305.818H59.0391V304.928H61.8984ZM68.4316 308.109V309H62.8477V308.221L65.6426 305.109C65.9863 304.727 66.252 304.402 66.4395 304.137C66.6309 303.867 66.7637 303.627 66.8379 303.416C66.916 303.201 66.9551 302.982 66.9551 302.76C66.9551 302.479 66.8965 302.225 66.7793 301.998C66.666 301.768 66.498 301.584 66.2754 301.447C66.0527 301.311 65.7832 301.242 65.4668 301.242C65.0879 301.242 64.7715 301.316 64.5176 301.465C64.2676 301.609 64.0801 301.812 63.9551 302.074C63.8301 302.336 63.7676 302.637 63.7676 302.977H62.6836C62.6836 302.496 62.7891 302.057 63 301.658C63.2109 301.26 63.5234 300.943 63.9375 300.709C64.3516 300.471 64.8613 300.352 65.4668 300.352C66.0059 300.352 66.4668 300.447 66.8496 300.639C67.2324 300.826 67.5254 301.092 67.7285 301.436C67.9355 301.775 68.0391 302.174 68.0391 302.631C68.0391 302.881 67.9961 303.135 67.9102 303.393C67.8281 303.646 67.7129 303.9 67.5645 304.154C67.4199 304.408 67.25 304.658 67.0547 304.904C66.8633 305.15 66.6582 305.393 66.4395 305.631L64.1543 308.109H68.4316ZM70.6934 307.711V308.584C70.6934 308.939 70.6035 309.314 70.4238 309.709C70.2441 310.107 69.9922 310.439 69.668 310.705L69.0527 310.277C69.1777 310.105 69.2832 309.93 69.3691 309.75C69.4551 309.574 69.5195 309.391 69.5625 309.199C69.6094 309.012 69.6328 308.812 69.6328 308.602V307.711H70.6934ZM73.3301 304.939L72.4629 304.717L72.8906 300.469H77.2676V301.471H73.8105L73.5527 303.791C73.709 303.701 73.9062 303.617 74.1445 303.539C74.3867 303.461 74.6641 303.422 74.9766 303.422C75.3711 303.422 75.7246 303.49 76.0371 303.627C76.3496 303.76 76.6152 303.951 76.834 304.201C77.0566 304.451 77.2266 304.752 77.3438 305.104C77.4609 305.455 77.5195 305.848 77.5195 306.281C77.5195 306.691 77.4629 307.068 77.3496 307.412C77.2402 307.756 77.0742 308.057 76.8516 308.314C76.6289 308.568 76.3477 308.766 76.0078 308.906C75.6719 309.047 75.2754 309.117 74.8184 309.117C74.4746 309.117 74.1484 309.07 73.8398 308.977C73.5352 308.879 73.2617 308.732 73.0195 308.537C72.7812 308.338 72.5859 308.092 72.4336 307.799C72.2852 307.502 72.1914 307.154 72.1523 306.756H73.1836C73.2305 307.076 73.3242 307.346 73.4648 307.564C73.6055 307.783 73.7891 307.949 74.0156 308.062C74.2461 308.172 74.5137 308.227 74.8184 308.227C75.0762 308.227 75.3047 308.182 75.5039 308.092C75.7031 308.002 75.8711 307.873 76.0078 307.705C76.1445 307.537 76.248 307.334 76.3184 307.096C76.3926 306.857 76.4297 306.59 76.4297 306.293C76.4297 306.023 76.3926 305.773 76.3184 305.543C76.2441 305.312 76.1328 305.111 75.9844 304.939C75.8398 304.768 75.6621 304.635 75.4512 304.541C75.2402 304.443 74.998 304.395 74.7246 304.395C74.3613 304.395 74.0859 304.443 73.8984 304.541C73.7148 304.639 73.5254 304.771 73.3301 304.939Z" fill="#454545"></path> <path d="M61.8984 225.928V226.818H59.0391V225.928H61.8984ZM66.4043 221.422V230H65.3203V222.775L63.1348 223.572V222.594L66.2344 221.422H66.4043ZM70.6934 228.711V229.584C70.6934 229.939 70.6035 230.314 70.4238 230.709C70.2441 231.107 69.9922 231.439 69.668 231.705L69.0527 231.277C69.1777 231.105 69.2832 230.93 69.3691 230.75C69.4551 230.574 69.5195 230.391 69.5625 230.199C69.6094 230.012 69.6328 229.812 69.6328 229.602V228.711H70.6934ZM73.3301 225.939L72.4629 225.717L72.8906 221.469H77.2676V222.471H73.8105L73.5527 224.791C73.709 224.701 73.9062 224.617 74.1445 224.539C74.3867 224.461 74.6641 224.422 74.9766 224.422C75.3711 224.422 75.7246 224.49 76.0371 224.627C76.3496 224.76 76.6152 224.951 76.834 225.201C77.0566 225.451 77.2266 225.752 77.3438 226.104C77.4609 226.455 77.5195 226.848 77.5195 227.281C77.5195 227.691 77.4629 228.068 77.3496 228.412C77.2402 228.756 77.0742 229.057 76.8516 229.314C76.6289 229.568 76.3477 229.766 76.0078 229.906C75.6719 230.047 75.2754 230.117 74.8184 230.117C74.4746 230.117 74.1484 230.07 73.8398 229.977C73.5352 229.879 73.2617 229.732 73.0195 229.537C72.7812 229.338 72.5859 229.092 72.4336 228.799C72.2852 228.502 72.1914 228.154 72.1523 227.756H73.1836C73.2305 228.076 73.3242 228.346 73.4648 228.564C73.6055 228.783 73.7891 228.949 74.0156 229.062C74.2461 229.172 74.5137 229.227 74.8184 229.227C75.0762 229.227 75.3047 229.182 75.5039 229.092C75.7031 229.002 75.8711 228.873 76.0078 228.705C76.1445 228.537 76.248 228.334 76.3184 228.096C76.3926 227.857 76.4297 227.59 76.4297 227.293C76.4297 227.023 76.3926 226.773 76.3184 226.543C76.2441 226.312 76.1328 226.111 75.9844 225.939C75.8398 225.768 75.6621 225.635 75.4512 225.541C75.2402 225.443 74.998 225.395 74.7246 225.395C74.3613 225.395 74.0859 225.443 73.8984 225.541C73.7148 225.639 73.5254 225.771 73.3301 225.939Z" fill="#454545"></path> <path d="M61.8984 184.928V185.818H59.0391V184.928H61.8984ZM66.4043 180.422V189H65.3203V181.775L63.1348 182.572V181.594L66.2344 180.422H66.4043ZM70.6934 187.711V188.584C70.6934 188.939 70.6035 189.314 70.4238 189.709C70.2441 190.107 69.9922 190.439 69.668 190.705L69.0527 190.277C69.1777 190.105 69.2832 189.93 69.3691 189.75C69.4551 189.574 69.5195 189.391 69.5625 189.199C69.6094 189.012 69.6328 188.812 69.6328 188.602V187.711H70.6934ZM77.3145 184.055V185.355C77.3145 186.055 77.252 186.645 77.127 187.125C77.002 187.605 76.8223 187.992 76.5879 188.285C76.3535 188.578 76.0703 188.791 75.7383 188.924C75.4102 189.053 75.0391 189.117 74.625 189.117C74.2969 189.117 73.9941 189.076 73.7168 188.994C73.4395 188.912 73.1895 188.781 72.9668 188.602C72.748 188.418 72.5605 188.18 72.4043 187.887C72.248 187.594 72.1289 187.238 72.0469 186.82C71.9648 186.402 71.9238 185.914 71.9238 185.355V184.055C71.9238 183.355 71.9863 182.77 72.1113 182.297C72.2402 181.824 72.4219 181.445 72.6562 181.16C72.8906 180.871 73.1719 180.664 73.5 180.539C73.832 180.414 74.2031 180.352 74.6133 180.352C74.9453 180.352 75.25 180.393 75.5273 180.475C75.8086 180.553 76.0586 180.68 76.2773 180.855C76.4961 181.027 76.6816 181.258 76.834 181.547C76.9902 181.832 77.1094 182.182 77.1914 182.596C77.2734 183.01 77.3145 183.496 77.3145 184.055ZM76.2246 185.531V183.873C76.2246 183.49 76.2012 183.154 76.1543 182.865C76.1113 182.572 76.0469 182.322 75.9609 182.115C75.875 181.908 75.7656 181.74 75.6328 181.611C75.5039 181.482 75.3535 181.389 75.1816 181.33C75.0137 181.268 74.8242 181.236 74.6133 181.236C74.3555 181.236 74.127 181.285 73.9277 181.383C73.7285 181.477 73.5605 181.627 73.4238 181.834C73.291 182.041 73.1895 182.312 73.1191 182.648C73.0488 182.984 73.0137 183.393 73.0137 183.873V185.531C73.0137 185.914 73.0352 186.252 73.0781 186.545C73.125 186.838 73.1934 187.092 73.2832 187.307C73.373 187.518 73.4824 187.691 73.6113 187.828C73.7402 187.965 73.8887 188.066 74.0566 188.133C74.2285 188.195 74.418 188.227 74.625 188.227C74.8906 188.227 75.123 188.176 75.3223 188.074C75.5215 187.973 75.6875 187.814 75.8203 187.6C75.957 187.381 76.0586 187.102 76.125 186.762C76.1914 186.418 76.2246 186.008 76.2246 185.531Z" fill="#454545"></path> <path d="M61.8984 144.928V145.818H59.0391V144.928H61.8984ZM68.1973 144.055V145.355C68.1973 146.055 68.1348 146.645 68.0098 147.125C67.8848 147.605 67.7051 147.992 67.4707 148.285C67.2363 148.578 66.9531 148.791 66.6211 148.924C66.293 149.053 65.9219 149.117 65.5078 149.117C65.1797 149.117 64.877 149.076 64.5996 148.994C64.3223 148.912 64.0723 148.781 63.8496 148.602C63.6309 148.418 63.4434 148.18 63.2871 147.887C63.1309 147.594 63.0117 147.238 62.9297 146.82C62.8477 146.402 62.8066 145.914 62.8066 145.355V144.055C62.8066 143.355 62.8691 142.77 62.9941 142.297C63.123 141.824 63.3047 141.445 63.5391 141.16C63.7734 140.871 64.0547 140.664 64.3828 140.539C64.7148 140.414 65.0859 140.352 65.4961 140.352C65.8281 140.352 66.1328 140.393 66.4102 140.475C66.6914 140.553 66.9414 140.68 67.1602 140.855C67.3789 141.027 67.5645 141.258 67.7168 141.547C67.873 141.832 67.9922 142.182 68.0742 142.596C68.1562 143.01 68.1973 143.496 68.1973 144.055ZM67.1074 145.531V143.873C67.1074 143.49 67.084 143.154 67.0371 142.865C66.9941 142.572 66.9297 142.322 66.8438 142.115C66.7578 141.908 66.6484 141.74 66.5156 141.611C66.3867 141.482 66.2363 141.389 66.0645 141.33C65.8965 141.268 65.707 141.236 65.4961 141.236C65.2383 141.236 65.0098 141.285 64.8105 141.383C64.6113 141.477 64.4434 141.627 64.3066 141.834C64.1738 142.041 64.0723 142.312 64.002 142.648C63.9316 142.984 63.8965 143.393 63.8965 143.873V145.531C63.8965 145.914 63.918 146.252 63.9609 146.545C64.0078 146.838 64.0762 147.092 64.166 147.307C64.2559 147.518 64.3652 147.691 64.4941 147.828C64.623 147.965 64.7715 148.066 64.9395 148.133C65.1113 148.195 65.3008 148.227 65.5078 148.227C65.7734 148.227 66.0059 148.176 66.2051 148.074C66.4043 147.973 66.5703 147.814 66.7031 147.6C66.8398 147.381 66.9414 147.102 67.0078 146.762C67.0742 146.418 67.1074 146.008 67.1074 145.531ZM70.6934 147.711V148.584C70.6934 148.939 70.6035 149.314 70.4238 149.709C70.2441 150.107 69.9922 150.439 69.668 150.705L69.0527 150.277C69.1777 150.105 69.2832 149.93 69.3691 149.75C69.4551 149.574 69.5195 149.391 69.5625 149.199C69.6094 149.012 69.6328 148.812 69.6328 148.602V147.711H70.6934ZM73.3301 144.939L72.4629 144.717L72.8906 140.469H77.2676V141.471H73.8105L73.5527 143.791C73.709 143.701 73.9062 143.617 74.1445 143.539C74.3867 143.461 74.6641 143.422 74.9766 143.422C75.3711 143.422 75.7246 143.49 76.0371 143.627C76.3496 143.76 76.6152 143.951 76.834 144.201C77.0566 144.451 77.2266 144.752 77.3438 145.104C77.4609 145.455 77.5195 145.848 77.5195 146.281C77.5195 146.691 77.4629 147.068 77.3496 147.412C77.2402 147.756 77.0742 148.057 76.8516 148.314C76.6289 148.568 76.3477 148.766 76.0078 148.906C75.6719 149.047 75.2754 149.117 74.8184 149.117C74.4746 149.117 74.1484 149.07 73.8398 148.977C73.5352 148.879 73.2617 148.732 73.0195 148.537C72.7812 148.338 72.5859 148.092 72.4336 147.799C72.2852 147.502 72.1914 147.154 72.1523 146.756H73.1836C73.2305 147.076 73.3242 147.346 73.4648 147.564C73.6055 147.783 73.7891 147.949 74.0156 148.062C74.2461 148.172 74.5137 148.227 74.8184 148.227C75.0762 148.227 75.3047 148.182 75.5039 148.092C75.7031 148.002 75.8711 147.873 76.0078 147.705C76.1445 147.537 76.248 147.334 76.3184 147.096C76.3926 146.857 76.4297 146.59 76.4297 146.293C76.4297 146.023 76.3926 145.773 76.3184 145.543C76.2441 145.312 76.1328 145.111 75.9844 144.939C75.8398 144.768 75.6621 144.635 75.4512 144.541C75.2402 144.443 74.998 144.395 74.7246 144.395C74.3613 144.395 74.0859 144.443 73.8984 144.541C73.7148 144.639 73.5254 144.771 73.3301 144.939Z" fill="#454545"></path> <path d="M77.3145 104.055V105.355C77.3145 106.055 77.252 106.645 77.127 107.125C77.002 107.605 76.8223 107.992 76.5879 108.285C76.3535 108.578 76.0703 108.791 75.7383 108.924C75.4102 109.053 75.0391 109.117 74.625 109.117C74.2969 109.117 73.9941 109.076 73.7168 108.994C73.4395 108.912 73.1895 108.781 72.9668 108.602C72.7481 108.418 72.5606 108.18 72.4043 107.887C72.2481 107.594 72.1289 107.238 72.0469 106.82C71.9648 106.402 71.9238 105.914 71.9238 105.355V104.055C71.9238 103.355 71.9863 102.77 72.1113 102.297C72.2402 101.824 72.4219 101.445 72.6563 101.16C72.8906 100.871 73.1719 100.664 73.5 100.539C73.832 100.414 74.2031 100.352 74.6133 100.352C74.9453 100.352 75.25 100.393 75.5273 100.475C75.8086 100.553 76.0586 100.68 76.2773 100.855C76.4961 101.027 76.6816 101.258 76.834 101.547C76.9902 101.832 77.1094 102.182 77.1914 102.596C77.2734 103.01 77.3145 103.496 77.3145 104.055ZM76.2246 105.531V103.873C76.2246 103.49 76.2012 103.154 76.1543 102.865C76.1113 102.572 76.0469 102.322 75.9609 102.115C75.875 101.908 75.7656 101.74 75.6328 101.611C75.5039 101.482 75.3535 101.389 75.1816 101.33C75.0137 101.268 74.8242 101.236 74.6133 101.236C74.3555 101.236 74.127 101.285 73.9277 101.383C73.7285 101.477 73.5606 101.627 73.4238 101.834C73.291 102.041 73.1895 102.312 73.1191 102.648C73.0488 102.984 73.0137 103.393 73.0137 103.873V105.531C73.0137 105.914 73.0352 106.252 73.0781 106.545C73.125 106.838 73.1934 107.092 73.2832 107.307C73.3731 107.518 73.4824 107.691 73.6113 107.828C73.7402 107.965 73.8887 108.066 74.0566 108.133C74.2285 108.195 74.418 108.227 74.625 108.227C74.8906 108.227 75.1231 108.176 75.3223 108.074C75.5215 107.973 75.6875 107.814 75.8203 107.6C75.957 107.381 76.0586 107.102 76.125 106.762C76.1914 106.418 76.2246 106.008 76.2246 105.531Z" fill="#454545"></path> <path d="M68.1973 65.0547V66.3555C68.1973 67.0547 68.1348 67.6445 68.0098 68.125C67.8848 68.6055 67.7051 68.9922 67.4707 69.2852C67.2363 69.5781 66.9531 69.791 66.6211 69.9238C66.293 70.0527 65.9219 70.1172 65.5078 70.1172C65.1797 70.1172 64.877 70.0762 64.5996 69.9941C64.3223 69.9121 64.0723 69.7812 63.8496 69.6016C63.6309 69.418 63.4434 69.1797 63.2871 68.8867C63.1309 68.5938 63.0117 68.2383 62.9297 67.8203C62.8477 67.4023 62.8066 66.9141 62.8066 66.3555V65.0547C62.8066 64.3555 62.8691 63.7695 62.9941 63.2969C63.1231 62.8242 63.3047 62.4453 63.5391 62.1602C63.7734 61.8711 64.0547 61.6641 64.3828 61.5391C64.7148 61.4141 65.0859 61.3516 65.4961 61.3516C65.8281 61.3516 66.1328 61.3926 66.4102 61.4746C66.6914 61.5527 66.9414 61.6797 67.1602 61.8555C67.3789 62.0273 67.5645 62.2578 67.7168 62.5469C67.8731 62.832 67.9922 63.1816 68.0742 63.5957C68.1563 64.0098 68.1973 64.4961 68.1973 65.0547ZM67.1074 66.5312V64.873C67.1074 64.4902 67.084 64.1543 67.0371 63.8652C66.9941 63.5723 66.9297 63.3223 66.8438 63.1152C66.7578 62.9082 66.6484 62.7402 66.5156 62.6113C66.3867 62.4824 66.2363 62.3887 66.0645 62.3301C65.8965 62.2676 65.707 62.2363 65.4961 62.2363C65.2383 62.2363 65.0098 62.2852 64.8106 62.3828C64.6113 62.4766 64.4434 62.627 64.3066 62.834C64.1738 63.041 64.0723 63.3125 64.002 63.6484C63.9316 63.9844 63.8965 64.3926 63.8965 64.873V66.5312C63.8965 66.9141 63.918 67.252 63.9609 67.5449C64.0078 67.8379 64.0762 68.0918 64.166 68.3066C64.2559 68.5176 64.3652 68.6914 64.4941 68.8281C64.6231 68.9648 64.7715 69.0664 64.9395 69.1328C65.1113 69.1953 65.3008 69.2266 65.5078 69.2266C65.7734 69.2266 66.0059 69.1758 66.2051 69.0742C66.4043 68.9727 66.5703 68.8145 66.7031 68.5996C66.8398 68.3809 66.9414 68.1016 67.0078 67.7617C67.0742 67.418 67.1074 67.0078 67.1074 66.5312ZM70.6934 68.7109V69.584C70.6934 69.9395 70.6035 70.3145 70.4238 70.709C70.2441 71.1074 69.9922 71.4395 69.668 71.7051L69.0527 71.2773C69.1777 71.1055 69.2832 70.9297 69.3691 70.75C69.4551 70.5742 69.5195 70.3906 69.5625 70.1992C69.6094 70.0117 69.6328 69.8125 69.6328 69.6016V68.7109H70.6934ZM73.3301 65.9395L72.4629 65.7168L72.8906 61.4688H77.2676V62.4707H73.8106L73.5527 64.791C73.709 64.7012 73.9063 64.6172 74.1445 64.5391C74.3867 64.4609 74.6641 64.4219 74.9766 64.4219C75.3711 64.4219 75.7246 64.4902 76.0371 64.627C76.3496 64.7598 76.6152 64.9512 76.834 65.2012C77.0566 65.4512 77.2266 65.752 77.3438 66.1035C77.4609 66.4551 77.5195 66.8477 77.5195 67.2812C77.5195 67.6914 77.4629 68.0684 77.3496 68.4121C77.2402 68.7559 77.0742 69.0566 76.8516 69.3145C76.6289 69.5684 76.3477 69.7656 76.0078 69.9062C75.6719 70.0469 75.2754 70.1172 74.8184 70.1172C74.4746 70.1172 74.1484 70.0703 73.8398 69.9766C73.5352 69.8789 73.2617 69.7324 73.0195 69.5371C72.7813 69.3379 72.5859 69.0918 72.4336 68.7988C72.2852 68.502 72.1914 68.1543 72.1523 67.7559H73.1836C73.2305 68.0762 73.3242 68.3457 73.4648 68.5645C73.6055 68.7832 73.7891 68.9492 74.0156 69.0625C74.2461 69.1719 74.5137 69.2266 74.8184 69.2266C75.0762 69.2266 75.3047 69.1816 75.5039 69.0918C75.7031 69.002 75.8711 68.873 76.0078 68.7051C76.1445 68.5371 76.2481 68.334 76.3184 68.0957C76.3926 67.8574 76.4297 67.5898 76.4297 67.293C76.4297 67.0234 76.3926 66.7734 76.3184 66.543C76.2441 66.3125 76.1328 66.1113 75.9844 65.9395C75.8398 65.7676 75.6621 65.6348 75.4512 65.541C75.2402 65.4434 74.9981 65.3945 74.7246 65.3945C74.3613 65.3945 74.0859 65.4434 73.8984 65.541C73.7148 65.6387 73.5254 65.7715 73.3301 65.9395Z" fill="#454545"></path> <path d="M530 87L384 87C381.791 87 380 88.7909 380 91L380 100C380 102.209 381.791 104 384 104L530 104C532.209 104 534 102.209 534 100L534 91C534 88.7909 532.209 87 530 87Z" fill="#D09CC7"></path> <path d="M320 106L174 106C171.791 106 170 107.791 170 110L170 300C170 302.209 171.791 304 174 304L320 304C322.209 304 324 302.209 324 300L324 110C324 107.791 322.209 106 320 106Z" fill="#6FC4E2"></path> <path d="M19.0469 244.987L19.0469 243.675L29 243.675L29 244.987L21.3301 244.987L29 249.889L29 251.208L19.0469 251.208L19.0469 249.889L26.7168 249.889L19.0469 244.987ZM23.627 237.413C23.2806 237.413 23.0072 237.545 22.8066 237.81C22.6016 238.074 22.499 238.436 22.499 238.896C22.499 239.343 22.6152 239.717 22.8477 240.018C23.0801 240.314 23.3535 240.462 23.668 240.462L23.668 241.72C23.0254 241.72 22.499 241.451 22.0889 240.913C21.6787 240.375 21.4736 239.703 21.4736 238.896C21.4736 238.031 21.6605 237.356 22.0342 236.873C22.4033 236.39 22.932 236.148 23.6201 236.148C23.9528 236.148 24.2581 236.249 24.5361 236.449C24.8141 236.65 25.0352 236.935 25.1992 237.304C25.4909 236.442 26.0651 236.012 26.9219 236.012C27.6009 236.012 28.1387 236.274 28.5352 236.798C28.9316 237.322 29.1299 238.021 29.1299 238.896C29.1299 239.749 28.9225 240.453 28.5078 241.009C28.0885 241.56 27.5234 241.836 26.8125 241.836L26.8125 240.578C27.1725 240.578 27.4824 240.419 27.7422 240.1C27.9974 239.776 28.125 239.375 28.125 238.896C28.125 238.413 28.0133 238.024 27.79 237.728C27.5667 237.431 27.2773 237.283 26.9219 237.283C26.5072 237.283 26.2109 237.409 26.0332 237.659C25.8509 237.905 25.7598 238.29 25.7598 238.814L25.7598 240.079L24.6934 240.079L24.6934 238.705C24.6706 237.844 24.3151 237.413 23.627 237.413ZM27.3252 230.112L21.6035 227.597L21.6035 226.018L29 226.018L29 227.282L23.6201 227.282L29 229.675L29 230.55L23.5039 232.99L29 232.99L29 234.255L21.6035 234.255L21.6035 232.614L27.3252 230.112ZM29.1367 220.911C29.1367 221.914 28.8086 222.729 28.1523 223.358C27.4915 223.987 26.6097 224.302 25.5068 224.302L25.2744 224.302C24.5407 224.302 23.8867 224.163 23.3125 223.885C22.7337 223.602 22.2825 223.21 21.959 222.709C21.6309 222.203 21.4668 221.656 21.4668 221.068C21.4668 220.107 21.7835 219.359 22.417 218.826C23.0505 218.293 23.9574 218.026 25.1377 218.026L25.6641 218.026L25.6641 223.037C26.3932 223.019 26.9834 222.807 27.4346 222.401C27.8812 221.991 28.1045 221.472 28.1045 220.843C28.1045 220.396 28.0133 220.018 27.8311 219.708C27.6488 219.398 27.4072 219.127 27.1064 218.895L27.708 218.122C28.6605 218.742 29.1367 219.672 29.1367 220.911ZM22.5059 221.068C22.5059 221.579 22.6927 222.007 23.0664 222.354C23.4355 222.7 23.9551 222.914 24.625 222.996L24.625 219.291L24.5293 219.291C23.8867 219.327 23.39 219.501 23.0391 219.811C22.6836 220.12 22.5059 220.54 22.5059 221.068ZM29 210.514L29 211.778L25.8418 211.778L25.8418 215.176L29 215.176L29 216.447L21.6035 216.447L21.6035 215.176L24.8096 215.176L24.8096 211.778L21.6035 211.778L21.6035 210.514L29 210.514ZM29.1367 205.407C29.1367 206.41 28.8086 207.226 28.1523 207.854C27.4915 208.483 26.6097 208.798 25.5068 208.798L25.2744 208.798C24.5407 208.798 23.8867 208.659 23.3125 208.381C22.7337 208.098 22.2825 207.706 21.959 207.205C21.6309 206.699 21.4668 206.152 21.4668 205.564C21.4668 204.603 21.7835 203.855 22.417 203.322C23.0505 202.789 23.9574 202.522 25.1377 202.522L25.6641 202.522L25.6641 207.533C26.3932 207.515 26.9834 207.303 27.4346 206.897C27.8812 206.487 28.1045 205.968 28.1045 205.339C28.1045 204.892 28.0133 204.514 27.8311 204.204C27.6488 203.894 27.4072 203.623 27.1064 203.391L27.708 202.618C28.6605 203.238 29.1367 204.168 29.1367 205.407ZM22.5059 205.564C22.5059 206.075 22.6927 206.503 23.0664 206.85C23.4355 207.196 23.9551 207.41 24.625 207.492L24.625 203.787L24.5293 203.787C23.8867 203.824 23.39 203.997 23.0391 204.307C22.6836 204.617 22.5059 205.036 22.5059 205.564ZM29 195.01L29 196.274L25.8418 196.274L25.8418 199.672L29 199.672L29 200.943L21.6035 200.943L21.6035 199.672L24.8096 199.672L24.8096 196.274L21.6035 196.274L21.6035 195.01L29 195.01ZM21.6035 188.187L21.6035 186.923L29 186.923L29 188.187L23.6064 188.187L29 191.599L29 192.863L21.6035 192.863L21.6035 191.599L27.0039 191.599L21.6035 188.187ZM21.6035 179.239L29 179.239L29 180.511L26.1221 180.511L26.1221 182.418L29 184.161L29 185.528L25.9307 183.669C25.7575 184.143 25.4909 184.507 25.1309 184.763C24.7663 185.013 24.3424 185.139 23.8594 185.139C23.1849 185.139 22.6426 184.886 22.2324 184.38C21.8177 183.874 21.6081 183.197 21.6035 182.35L21.6035 179.239ZM23.873 183.867C24.2331 183.867 24.5247 183.744 24.748 183.498C24.9668 183.252 25.0784 182.926 25.083 182.521L25.083 180.511L22.6289 180.511L22.6289 182.329C22.6289 182.799 22.7451 183.172 22.9775 183.45C23.2054 183.728 23.5039 183.867 23.873 183.867ZM29 173.62L21.6035 173.62L21.6035 170.735C21.6035 169.751 21.7767 168.997 22.123 168.473C22.4648 167.944 22.9684 167.68 23.6338 167.68C23.9756 167.68 24.2855 167.782 24.5635 167.987C24.8369 168.192 25.0465 168.495 25.1924 168.896C25.2972 168.45 25.5023 168.092 25.8076 167.823C26.1129 167.55 26.4775 167.413 26.9014 167.413C27.5804 167.413 28.0999 167.664 28.46 168.165C28.82 168.662 29 169.366 29 170.277L29 173.62ZM25.7529 172.355L27.9814 172.355L27.9814 170.264C27.9814 169.735 27.8835 169.341 27.6875 169.081C27.4915 168.817 27.2158 168.685 26.8603 168.685C26.1221 168.685 25.7529 169.227 25.7529 170.312L25.7529 172.355ZM24.7412 172.355L24.7412 170.722C24.7412 169.537 24.3949 168.944 23.7021 168.944C23.0094 168.944 22.6517 169.505 22.6289 170.626L22.6289 172.355L24.7412 172.355ZM28.1045 159.299C28.1045 158.848 27.9678 158.453 27.6943 158.116C27.4209 157.779 27.0791 157.592 26.6689 157.556L26.6689 156.359C27.0928 156.382 27.4961 156.528 27.8789 156.797C28.2617 157.066 28.5671 157.426 28.7949 157.877C29.0228 158.324 29.1367 158.798 29.1367 159.299C29.1367 160.306 28.8018 161.108 28.1318 161.705C27.4574 162.298 26.5368 162.594 25.3701 162.594L25.1582 162.594C24.4381 162.594 23.7978 162.462 23.2373 162.197C22.6768 161.933 22.2415 161.555 21.9316 161.062C21.6217 160.566 21.4668 159.98 21.4668 159.306C21.4668 158.476 21.7152 157.788 22.2119 157.241C22.7087 156.69 23.3535 156.396 24.1465 156.359L24.1465 157.556C23.668 157.592 23.276 157.774 22.9707 158.103C22.6608 158.426 22.5059 158.827 22.5059 159.306C22.5059 159.948 22.7383 160.447 23.2031 160.803C23.6634 161.154 24.331 161.329 25.206 161.329L25.4453 161.329C26.2975 161.329 26.9538 161.154 27.4141 160.803C27.8743 160.452 28.1045 159.951 28.1045 159.299ZM25.3838 148.689C26.5094 148.689 27.4163 148.947 28.1045 149.462C28.7926 149.977 29.1367 150.674 29.1367 151.554C29.1367 152.451 28.8519 153.158 28.2822 153.673L31.8437 153.673L31.8437 154.937L21.6035 154.937L21.6035 153.782L22.4238 153.721C21.7858 153.206 21.4668 152.49 21.4668 151.574C21.4668 150.686 21.8018 149.984 22.4717 149.469C23.1416 148.949 24.0736 148.689 25.2676 148.689L25.3838 148.689ZM25.2402 149.954C24.4062 149.954 23.7477 150.132 23.2646 150.487C22.7816 150.843 22.54 151.33 22.54 151.95C22.54 152.716 22.8796 153.29 23.5586 153.673L27.0928 153.673C27.7672 153.295 28.1045 152.716 28.1045 151.937C28.1045 151.33 27.8652 150.85 27.3867 150.494C26.9036 150.134 26.1881 149.954 25.2402 149.954ZM29.1367 144.007C29.1367 145.009 28.8086 145.825 28.1523 146.454C27.4915 147.083 26.6097 147.397 25.5068 147.397L25.2744 147.397C24.5407 147.397 23.8867 147.258 23.3125 146.98C22.7337 146.698 22.2825 146.306 21.959 145.805C21.6309 145.299 21.4668 144.752 21.4668 144.164C21.4668 143.202 21.7835 142.455 22.417 141.922C23.0504 141.389 23.9573 141.122 25.1377 141.122L25.6641 141.122L25.6641 146.133C26.3932 146.115 26.9834 145.903 27.4346 145.497C27.8812 145.087 28.1045 144.567 28.1045 143.938C28.1045 143.492 28.0133 143.114 27.831 142.804C27.6488 142.494 27.4072 142.223 27.1064 141.99L27.708 141.218C28.6605 141.838 29.1367 142.767 29.1367 144.007ZM22.5059 144.164C22.5059 144.674 22.6927 145.103 23.0664 145.449C23.4355 145.796 23.9551 146.01 24.625 146.092L24.625 142.387L24.5293 142.387C23.8867 142.423 23.39 142.596 23.0391 142.906C22.6836 143.216 22.5059 143.635 22.5059 144.164ZM27.9678 139.714L27.4277 139.276C26.7897 138.784 25.8327 138.504 24.5566 138.436L21.6035 138.319L21.6035 133.555L27.9678 133.555L27.9678 132.604L31.1738 132.604L31.1738 133.869L29 133.869L29 139.03L31.1738 139.03L31.1738 140.295L27.9678 140.288L27.9678 139.714ZM27.9678 138.217L27.9678 134.819L22.7725 134.819L22.7725 137.096L24.5361 137.171C26.0081 137.248 27.152 137.597 27.9678 138.217ZM29 125.16L29 126.425L25.8418 126.425L25.8418 129.822L29 129.822L29 131.094L21.6035 131.094L21.6035 129.822L24.8096 129.822L24.8096 126.425L21.6035 126.425L21.6035 125.16L29 125.16ZM21.6035 118.338L21.6035 117.073L29 117.073L29 118.338L23.6064 118.338L29 121.749L29 123.014L21.6035 123.014L21.6035 121.749L27.0039 121.749L21.6035 118.338ZM24.3037 112.562L21.6035 110.921L21.6035 109.444L25.2607 111.864L29 109.369L29 110.832L26.2314 112.541L29 114.25L29 115.72L25.2607 113.225L21.6035 115.645L21.6035 114.182L24.3037 112.562ZM45 253.662L45 254.927L38.6494 254.927L38.6494 258.331L45 258.331L45 259.603L37.6035 259.603L37.6035 253.662L45 253.662ZM41.2334 251.967C40.5088 251.967 39.8571 251.826 39.2783 251.543C38.6995 251.256 38.2529 250.859 37.9385 250.354C37.624 249.843 37.4668 249.262 37.4668 248.61C37.4668 247.603 37.8154 246.79 38.5127 246.17C39.21 245.546 40.1374 245.233 41.2949 245.233L41.3838 245.233C42.1038 245.233 42.751 245.372 43.3252 245.65C43.8949 245.924 44.3392 246.318 44.6582 246.833C44.9772 247.343 45.1367 247.931 45.1367 248.597C45.1367 249.599 44.7881 250.413 44.0908 251.037C43.3936 251.657 42.4707 251.967 41.3223 251.967L41.2334 251.967ZM41.3838 250.695C42.2041 250.695 42.8626 250.506 43.3594 250.128C43.8561 249.745 44.1045 249.235 44.1045 248.597C44.1045 247.954 43.8538 247.444 43.3525 247.065C42.8467 246.687 42.1403 246.498 41.2334 246.498C40.4222 246.498 39.7659 246.692 39.2646 247.079C38.7588 247.462 38.5059 247.972 38.5059 248.61C38.5059 249.235 38.7542 249.738 39.251 250.121C39.7477 250.504 40.4587 250.695 41.3838 250.695ZM41.8486 241.344L41.8486 242.267L45 242.267L45 243.538L37.6035 243.538L37.6035 242.267L40.7344 242.267L40.7344 241.439L37.6035 238.951L37.6035 237.42L41.1582 240.346L45 237.174L45 238.78L41.8486 241.344ZM45 231.521C44.8542 231.593 44.5944 231.653 44.2207 231.698C44.8314 232.286 45.1367 232.988 45.1367 233.804C45.1367 234.533 44.9316 235.132 44.5215 235.602C44.1068 236.066 43.5827 236.299 42.9492 236.299C42.179 236.299 41.582 236.007 41.1582 235.424C40.7298 234.836 40.5156 234.011 40.5156 232.949L40.5156 231.719L39.9346 231.719C39.4925 231.719 39.1416 231.851 38.8818 232.115C38.6175 232.38 38.4853 232.769 38.4853 233.284C38.4853 233.735 38.5993 234.114 38.8271 234.419C39.055 234.724 39.3307 234.877 39.6543 234.877L39.6543 236.148C39.2852 236.148 38.9297 236.019 38.5879 235.759C38.2415 235.494 37.9681 235.139 37.7676 234.692C37.5671 234.241 37.4668 233.747 37.4668 233.209C37.4668 232.357 37.681 231.689 38.1094 231.206C38.5332 230.723 39.1188 230.472 39.8662 230.454L43.2705 230.454C43.9495 230.454 44.4896 230.368 44.8906 230.194L45 230.194L45 231.521ZM44.0361 233.619C44.0361 233.223 43.9336 232.847 43.7285 232.491C43.5234 232.136 43.2568 231.878 42.9287 231.719L41.4111 231.719L41.4111 232.71C41.4111 234.259 41.8646 235.034 42.7715 235.034C43.168 235.034 43.4779 234.902 43.7012 234.638C43.9245 234.373 44.0361 234.034 44.0361 233.619ZM39.6269 224.404C39.2806 224.404 39.0072 224.536 38.8066 224.801C38.6016 225.065 38.499 225.427 38.499 225.888C38.499 226.334 38.6152 226.708 38.8477 227.009C39.0801 227.305 39.3535 227.453 39.668 227.453L39.668 228.711C39.0254 228.711 38.499 228.442 38.0889 227.904C37.6787 227.367 37.4736 226.694 37.4736 225.888C37.4736 225.022 37.6605 224.347 38.0342 223.864C38.4033 223.381 38.932 223.14 39.6201 223.14C39.9528 223.14 40.2581 223.24 40.5361 223.44C40.8141 223.641 41.0352 223.926 41.1992 224.295C41.4909 223.434 42.0651 223.003 42.9219 223.003C43.6009 223.003 44.1387 223.265 44.5352 223.789C44.9316 224.313 45.1299 225.013 45.1299 225.888C45.1299 226.74 44.9225 227.444 44.5078 228C44.0885 228.551 43.5234 228.827 42.8125 228.827L42.8125 227.569C43.1725 227.569 43.4824 227.41 43.7422 227.091C43.9974 226.767 44.125 226.366 44.125 225.888C44.125 225.405 44.0133 225.015 43.79 224.719C43.5667 224.423 43.2773 224.274 42.9219 224.274C42.5072 224.274 42.2109 224.4 42.0332 224.65C41.8509 224.896 41.7598 225.282 41.7598 225.806L41.7598 227.07L40.6934 227.07L40.6934 225.696C40.6706 224.835 40.3151 224.404 39.6269 224.404ZM45 216.796C44.8542 216.869 44.5944 216.928 44.2207 216.974C44.8314 217.562 45.1367 218.263 45.1367 219.079C45.1367 219.808 44.9316 220.408 44.5215 220.877C44.1068 221.342 43.5827 221.574 42.9492 221.574C42.179 221.574 41.582 221.283 41.1582 220.699C40.7298 220.111 40.5156 219.286 40.5156 218.225L40.5156 216.994L39.9346 216.994C39.4925 216.994 39.1416 217.126 38.8818 217.391C38.6175 217.655 38.4853 218.045 38.4853 218.56C38.4853 219.011 38.5993 219.389 38.8271 219.694C39.055 220 39.3307 220.152 39.6543 220.152L39.6543 221.424C39.2852 221.424 38.9297 221.294 38.5879 221.034C38.2415 220.77 37.9681 220.414 37.7676 219.968C37.5671 219.517 37.4668 219.022 37.4668 218.484C37.4668 217.632 37.681 216.965 38.1094 216.481C38.5332 215.998 39.1188 215.748 39.8662 215.729L43.2705 215.729C43.9495 215.729 44.4896 215.643 44.8906 215.47L45 215.47L45 216.796ZM44.0361 218.895C44.0361 218.498 43.9336 218.122 43.7285 217.767C43.5234 217.411 43.2568 217.154 42.9287 216.994L41.4111 216.994L41.4111 217.985C41.4111 219.535 41.8646 220.31 42.7715 220.31C43.168 220.31 43.4779 220.177 43.7012 219.913C43.9245 219.649 44.0361 219.309 44.0361 218.895ZM38.6289 208.36L38.6289 210.842L45 210.842L45 212.106L38.6289 212.106L38.6289 214.54L37.6035 214.54L37.6035 208.36L38.6289 208.36ZM45.1367 204.607C45.1367 205.61 44.8086 206.426 44.1523 207.055C43.4915 207.684 42.6097 207.998 41.5068 207.998L41.2744 207.998C40.5407 207.998 39.8867 207.859 39.3125 207.581C38.7337 207.299 38.2825 206.907 37.959 206.405C37.6309 205.899 37.4668 205.353 37.4668 204.765C37.4668 203.803 37.7835 203.056 38.417 202.522C39.0505 201.989 39.9574 201.723 41.1377 201.723L41.6641 201.723L41.6641 206.733C42.3932 206.715 42.9834 206.503 43.4346 206.098C43.8812 205.687 44.1045 205.168 44.1045 204.539C44.1045 204.092 44.0133 203.714 43.8311 203.404C43.6488 203.094 43.4072 202.823 43.1064 202.591L43.708 201.818C44.6605 202.438 45.1367 203.368 45.1367 204.607ZM38.5059 204.765C38.5059 205.275 38.6927 205.703 39.0664 206.05C39.4355 206.396 39.9551 206.61 40.625 206.692L40.625 202.987L40.5293 202.987C39.8867 203.024 39.39 203.197 39.0391 203.507C38.6836 203.817 38.5059 204.236 38.5059 204.765ZM37.6035 194.189L45 194.189L45 195.461L38.6494 195.461L38.6494 197.977L41.418 198.127C42.6894 198.209 43.5986 198.423 44.1455 198.77C44.6924 199.111 44.9772 199.656 45 200.403L45 200.909L43.8857 200.909L43.8584 200.547C43.8128 200.137 43.5758 199.843 43.1475 199.665C42.7191 199.487 41.9261 199.373 40.7685 199.323L37.6035 199.187L37.6035 194.189ZM37.6035 186.506L45 186.506L45 187.777L42.1221 187.777L42.1221 189.685L45 191.428L45 192.795L41.9307 190.936C41.7575 191.41 41.4909 191.774 41.1309 192.029C40.7663 192.28 40.3424 192.405 39.8594 192.405C39.1849 192.405 38.6426 192.152 38.2324 191.646C37.8177 191.141 37.6081 190.464 37.6035 189.616L37.6035 186.506ZM39.873 191.134C40.2331 191.134 40.5247 191.011 40.748 190.765C40.9668 190.519 41.0784 190.193 41.083 189.787L41.083 187.777L38.6289 187.777L38.6289 189.596C38.6289 190.065 38.7451 190.439 38.9775 190.717C39.2054 190.995 39.5039 191.134 39.873 191.134ZM40.3037 181.994L37.6035 180.354L37.6035 178.877L41.2607 181.297L45 178.802L45 180.265L42.2314 181.974L45 183.683L45 185.152L41.2607 182.657L37.6035 185.077L37.6035 183.614L40.3037 181.994ZM44.1045 171.091C44.1045 170.64 43.9678 170.245 43.6943 169.908C43.4209 169.571 43.0791 169.384 42.6689 169.348L42.6689 168.151C43.0928 168.174 43.4961 168.32 43.8789 168.589C44.2617 168.858 44.5671 169.218 44.7949 169.669C45.0228 170.116 45.1367 170.59 45.1367 171.091C45.1367 172.098 44.8018 172.9 44.1318 173.497C43.4574 174.09 42.5368 174.386 41.3701 174.386L41.1582 174.386C40.4381 174.386 39.7978 174.254 39.2373 173.989C38.6768 173.725 38.2415 173.347 37.9316 172.854C37.6217 172.358 37.4668 171.772 37.4668 171.098C37.4668 170.268 37.7152 169.58 38.2119 169.033C38.7087 168.482 39.3535 168.188 40.1465 168.151L40.1465 169.348C39.668 169.384 39.276 169.566 38.9707 169.895C38.6608 170.218 38.5059 170.619 38.5059 171.098C38.5059 171.74 38.7383 172.239 39.2031 172.595C39.6634 172.946 40.331 173.121 41.206 173.121L41.4453 173.121C42.2975 173.121 42.9538 172.946 43.4141 172.595C43.8743 172.244 44.1045 171.743 44.1045 171.091ZM41.2334 167.064C40.5088 167.064 39.8571 166.923 39.2783 166.641C38.6995 166.354 38.2529 165.957 37.9385 165.451C37.624 164.941 37.4668 164.36 37.4668 163.708C37.4668 162.701 37.8154 161.887 38.5127 161.268C39.21 160.643 40.1374 160.331 41.2949 160.331L41.3838 160.331C42.1038 160.331 42.751 160.47 43.3252 160.748C43.8949 161.021 44.3392 161.416 44.6582 161.931C44.9772 162.441 45.1367 163.029 45.1367 163.694C45.1367 164.697 44.7881 165.51 44.0908 166.135C43.3935 166.755 42.4707 167.064 41.3223 167.064L41.2334 167.064ZM41.3838 165.793C42.2041 165.793 42.8626 165.604 43.3594 165.226C43.8561 164.843 44.1045 164.332 44.1045 163.694C44.1045 163.052 43.8538 162.541 43.3525 162.163C42.8467 161.785 42.1403 161.596 41.2334 161.596C40.4222 161.596 39.7659 161.789 39.2646 162.177C38.7588 162.56 38.5059 163.07 38.5059 163.708C38.5059 164.332 38.7542 164.836 39.251 165.219C39.7477 165.602 40.4587 165.793 41.3838 165.793ZM45 152.702L45 153.967L41.8418 153.967L41.8418 157.364L45 157.364L45 158.636L37.6035 158.636L37.6035 157.364L40.8096 157.364L40.8096 153.967L37.6035 153.967L37.6035 152.702L45 152.702ZM37.6035 144.602L45 144.602L45 145.873L38.6494 145.873L38.6494 148.389L41.418 148.539C42.6894 148.621 43.5986 148.835 44.1455 149.182C44.6924 149.523 44.9772 150.068 45 150.815L45 151.321L43.8857 151.321L43.8584 150.959C43.8128 150.549 43.5758 150.255 43.1475 150.077C42.7191 149.899 41.9261 149.785 40.7685 149.735L37.6035 149.599L37.6035 144.602ZM37.6035 137.786L37.6035 136.521L45 136.521L45 137.786L39.6064 137.786L45 141.197L45 142.462L37.6035 142.462L37.6035 141.197L43.0039 141.197L37.6035 137.786ZM45 134.375L37.6035 134.375L37.6035 131.49C37.6035 130.506 37.7767 129.752 38.123 129.228C38.4648 128.699 38.9684 128.435 39.6338 128.435C39.9756 128.435 40.2855 128.537 40.5635 128.742C40.8369 128.947 41.0465 129.25 41.1924 129.651C41.2972 129.205 41.5023 128.847 41.8076 128.578C42.1129 128.305 42.4775 128.168 42.9014 128.168C43.5804 128.168 44.0999 128.419 44.46 128.92C44.82 129.417 45 130.121 45 131.032L45 134.375ZM41.7529 133.11L43.9814 133.11L43.9814 131.019C43.9814 130.49 43.8835 130.096 43.6875 129.836C43.4915 129.572 43.2158 129.439 42.8603 129.439C42.1221 129.439 41.7529 129.982 41.7529 131.066L41.7529 133.11ZM40.7412 133.11L40.7412 131.477C40.7412 130.292 40.3948 129.699 39.7021 129.699C39.0094 129.699 38.6517 130.26 38.6289 131.381L38.6289 133.11L40.7412 133.11ZM41.2334 126.828C40.5088 126.828 39.8571 126.687 39.2783 126.404C38.6995 126.117 38.2529 125.721 37.9385 125.215C37.624 124.704 37.4668 124.123 37.4668 123.472C37.4668 122.465 37.8154 121.651 38.5127 121.031C39.21 120.407 40.1374 120.095 41.2949 120.095L41.3838 120.095C42.1038 120.095 42.751 120.234 43.3252 120.512C43.8948 120.785 44.3392 121.179 44.6582 121.694C44.9772 122.205 45.1367 122.793 45.1367 123.458C45.1367 124.461 44.7881 125.274 44.0908 125.898C43.3935 126.518 42.4707 126.828 41.3223 126.828L41.2334 126.828ZM41.3838 125.557C42.2041 125.557 42.8626 125.368 43.3594 124.989C43.8561 124.606 44.1045 124.096 44.1045 123.458C44.1045 122.815 43.8538 122.305 43.3525 121.927C42.8467 121.549 42.1403 121.359 41.2334 121.359C40.4222 121.359 39.7659 121.553 39.2646 121.94C38.7588 122.323 38.5059 122.834 38.5059 123.472C38.5059 124.096 38.7542 124.6 39.251 124.982C39.7477 125.365 40.4587 125.557 41.3838 125.557ZM44.1045 115.542C44.1045 115.091 43.9678 114.697 43.6943 114.359C43.4209 114.022 43.0791 113.835 42.6689 113.799L42.6689 112.603C43.0928 112.625 43.4961 112.771 43.8789 113.04C44.2617 113.309 44.567 113.669 44.7949 114.12C45.0228 114.567 45.1367 115.041 45.1367 115.542C45.1367 116.549 44.8017 117.351 44.1318 117.948C43.4573 118.541 42.5368 118.837 41.3701 118.837L41.1582 118.837C40.4381 118.837 39.7978 118.705 39.2373 118.44C38.6767 118.176 38.2415 117.798 37.9316 117.306C37.6217 116.809 37.4668 116.223 37.4668 115.549C37.4668 114.719 37.7152 114.031 38.2119 113.484C38.7087 112.933 39.3535 112.639 40.1465 112.603L40.1465 113.799C39.668 113.835 39.276 114.018 38.9707 114.346C38.6608 114.669 38.5059 115.07 38.5059 115.549C38.5059 116.191 38.7383 116.69 39.2031 117.046C39.6634 117.397 40.331 117.572 41.206 117.572L41.4453 117.572C42.2975 117.572 42.9538 117.397 43.4141 117.046C43.8743 116.695 44.1045 116.194 44.1045 115.542ZM38.6289 105.685L38.6289 108.166L45 108.166L45 109.431L38.6289 109.431L38.6289 111.864L37.6035 111.864L37.6035 105.685L38.6289 105.685ZM37.6035 99.6689L37.6035 98.4043L45 98.4043L45 99.6689L39.6064 99.6689L45 103.08L45 104.345L37.6035 104.345L37.6035 103.08L43.0039 103.08L37.6035 99.6689Z" fill="#4B4B4B"></path> <path d="M323.805 327.879V335.438H322.715V326.66H323.711L323.805 327.879ZM328.076 329.777V329.9C328.076 330.361 328.021 330.789 327.912 331.184C327.803 331.574 327.643 331.914 327.432 332.203C327.225 332.492 326.969 332.717 326.664 332.877C326.359 333.037 326.01 333.117 325.615 333.117C325.213 333.117 324.857 333.051 324.549 332.918C324.24 332.785 323.979 332.592 323.764 332.338C323.549 332.084 323.377 331.779 323.248 331.424C323.123 331.068 323.037 330.668 322.99 330.223V329.566C323.037 329.098 323.125 328.678 323.254 328.307C323.383 327.936 323.553 327.619 323.764 327.357C323.979 327.092 324.238 326.891 324.543 326.754C324.848 326.613 325.199 326.543 325.598 326.543C325.996 326.543 326.35 326.621 326.658 326.777C326.967 326.93 327.227 327.148 327.438 327.434C327.648 327.719 327.807 328.061 327.912 328.459C328.021 328.854 328.076 329.293 328.076 329.777ZM326.986 329.9V329.777C326.986 329.461 326.953 329.164 326.887 328.887C326.82 328.605 326.717 328.359 326.576 328.148C326.439 327.934 326.264 327.766 326.049 327.645C325.834 327.52 325.578 327.457 325.281 327.457C325.008 327.457 324.77 327.504 324.566 327.598C324.367 327.691 324.197 327.818 324.057 327.979C323.916 328.135 323.801 328.314 323.711 328.518C323.625 328.717 323.561 328.924 323.518 329.139V330.656C323.596 330.93 323.705 331.188 323.846 331.43C323.986 331.668 324.174 331.861 324.408 332.01C324.643 332.154 324.938 332.227 325.293 332.227C325.586 332.227 325.838 332.166 326.049 332.045C326.264 331.92 326.439 331.75 326.576 331.535C326.717 331.32 326.82 331.074 326.887 330.797C326.953 330.516 326.986 330.217 326.986 329.9ZM329.799 329.062L333.848 330.703V331.852L329.055 329.631V328.957L329.799 329.062ZM333.848 327.715L329.805 329.379L329.055 329.461V328.781L333.848 326.566V327.715ZM340.803 328.055V329.355C340.803 330.055 340.74 330.645 340.615 331.125C340.49 331.605 340.311 331.992 340.076 332.285C339.842 332.578 339.559 332.791 339.227 332.924C338.898 333.053 338.527 333.117 338.113 333.117C337.785 333.117 337.482 333.076 337.205 332.994C336.928 332.912 336.678 332.781 336.455 332.602C336.236 332.418 336.049 332.18 335.893 331.887C335.736 331.594 335.617 331.238 335.535 330.82C335.453 330.402 335.412 329.914 335.412 329.355V328.055C335.412 327.355 335.475 326.77 335.6 326.297C335.729 325.824 335.91 325.445 336.145 325.16C336.379 324.871 336.66 324.664 336.988 324.539C337.32 324.414 337.691 324.352 338.102 324.352C338.434 324.352 338.738 324.393 339.016 324.475C339.297 324.553 339.547 324.68 339.766 324.855C339.984 325.027 340.17 325.258 340.322 325.547C340.479 325.832 340.598 326.182 340.68 326.596C340.762 327.01 340.803 327.496 340.803 328.055ZM339.713 329.531V327.873C339.713 327.49 339.689 327.154 339.643 326.865C339.6 326.572 339.535 326.322 339.449 326.115C339.363 325.908 339.254 325.74 339.121 325.611C338.992 325.482 338.842 325.389 338.67 325.33C338.502 325.268 338.312 325.236 338.102 325.236C337.844 325.236 337.615 325.285 337.416 325.383C337.217 325.477 337.049 325.627 336.912 325.834C336.779 326.041 336.678 326.312 336.607 326.648C336.537 326.984 336.502 327.393 336.502 327.873V329.531C336.502 329.914 336.523 330.252 336.566 330.545C336.613 330.838 336.682 331.092 336.771 331.307C336.861 331.518 336.971 331.691 337.1 331.828C337.229 331.965 337.377 332.066 337.545 332.133C337.717 332.195 337.906 332.227 338.113 332.227C338.379 332.227 338.611 332.176 338.811 332.074C339.01 331.973 339.176 331.814 339.309 331.6C339.445 331.381 339.547 331.102 339.613 330.762C339.68 330.418 339.713 330.008 339.713 329.531ZM343.299 331.711V332.584C343.299 332.939 343.209 333.314 343.029 333.709C342.85 334.107 342.598 334.439 342.273 334.705L341.658 334.277C341.783 334.105 341.889 333.93 341.975 333.75C342.061 333.574 342.125 333.391 342.168 333.199C342.215 333.012 342.238 332.812 342.238 332.602V331.711H343.299ZM349.92 328.055V329.355C349.92 330.055 349.857 330.645 349.732 331.125C349.607 331.605 349.428 331.992 349.193 332.285C348.959 332.578 348.676 332.791 348.344 332.924C348.016 333.053 347.645 333.117 347.23 333.117C346.902 333.117 346.6 333.076 346.322 332.994C346.045 332.912 345.795 332.781 345.572 332.602C345.354 332.418 345.166 332.18 345.01 331.887C344.854 331.594 344.734 331.238 344.652 330.82C344.57 330.402 344.529 329.914 344.529 329.355V328.055C344.529 327.355 344.592 326.77 344.717 326.297C344.846 325.824 345.027 325.445 345.262 325.16C345.496 324.871 345.777 324.664 346.105 324.539C346.438 324.414 346.809 324.352 347.219 324.352C347.551 324.352 347.855 324.393 348.133 324.475C348.414 324.553 348.664 324.68 348.883 324.855C349.102 325.027 349.287 325.258 349.439 325.547C349.596 325.832 349.715 326.182 349.797 326.596C349.879 327.01 349.92 327.496 349.92 328.055ZM348.83 329.531V327.873C348.83 327.49 348.807 327.154 348.76 326.865C348.717 326.572 348.652 326.322 348.566 326.115C348.48 325.908 348.371 325.74 348.238 325.611C348.109 325.482 347.959 325.389 347.787 325.33C347.619 325.268 347.43 325.236 347.219 325.236C346.961 325.236 346.732 325.285 346.533 325.383C346.334 325.477 346.166 325.627 346.029 325.834C345.896 326.041 345.795 326.312 345.725 326.648C345.654 326.984 345.619 327.393 345.619 327.873V329.531C345.619 329.914 345.641 330.252 345.684 330.545C345.73 330.838 345.799 331.092 345.889 331.307C345.979 331.518 346.088 331.691 346.217 331.828C346.346 331.965 346.494 332.066 346.662 332.133C346.834 332.195 347.023 332.227 347.23 332.227C347.496 332.227 347.729 332.176 347.928 332.074C348.127 331.973 348.293 331.814 348.426 331.6C348.562 331.381 348.664 331.102 348.73 330.762C348.797 330.418 348.83 330.008 348.83 329.531ZM356.67 328.055V329.355C356.67 330.055 356.607 330.645 356.482 331.125C356.357 331.605 356.178 331.992 355.943 332.285C355.709 332.578 355.426 332.791 355.094 332.924C354.766 333.053 354.395 333.117 353.98 333.117C353.652 333.117 353.35 333.076 353.072 332.994C352.795 332.912 352.545 332.781 352.322 332.602C352.104 332.418 351.916 332.18 351.76 331.887C351.604 331.594 351.484 331.238 351.402 330.82C351.32 330.402 351.279 329.914 351.279 329.355V328.055C351.279 327.355 351.342 326.77 351.467 326.297C351.596 325.824 351.777 325.445 352.012 325.16C352.246 324.871 352.527 324.664 352.855 324.539C353.188 324.414 353.559 324.352 353.969 324.352C354.301 324.352 354.605 324.393 354.883 324.475C355.164 324.553 355.414 324.68 355.633 324.855C355.852 325.027 356.037 325.258 356.189 325.547C356.346 325.832 356.465 326.182 356.547 326.596C356.629 327.01 356.67 327.496 356.67 328.055ZM355.58 329.531V327.873C355.58 327.49 355.557 327.154 355.51 326.865C355.467 326.572 355.402 326.322 355.316 326.115C355.23 325.908 355.121 325.74 354.988 325.611C354.859 325.482 354.709 325.389 354.537 325.33C354.369 325.268 354.18 325.236 353.969 325.236C353.711 325.236 353.482 325.285 353.283 325.383C353.084 325.477 352.916 325.627 352.779 325.834C352.646 326.041 352.545 326.312 352.475 326.648C352.404 326.984 352.369 327.393 352.369 327.873V329.531C352.369 329.914 352.391 330.252 352.434 330.545C352.48 330.838 352.549 331.092 352.639 331.307C352.729 331.518 352.838 331.691 352.967 331.828C353.096 331.965 353.244 332.066 353.412 332.133C353.584 332.195 353.773 332.227 353.98 332.227C354.246 332.227 354.479 332.176 354.678 332.074C354.877 331.973 355.043 331.814 355.176 331.6C355.312 331.381 355.414 331.102 355.48 330.762C355.547 330.418 355.58 330.008 355.58 329.531ZM361.627 324.422V333H360.543V325.775L358.357 326.572V325.594L361.457 324.422H361.627Z" fill="#454545"></path> <path d="M380.341 26.6447V37.5967H378.889V26.6447H380.341ZM387.088 26.6447L382.334 32.6698H379.762L379.536 31.4663H381.469L385.29 26.6447H387.088ZM385.629 37.5967L381.514 32.4817L382.327 31.2105L387.404 37.5967H385.629ZM387.93 33.6176V33.4446C387.93 32.8578 388.016 32.3138 388.186 31.8123C388.357 31.3058 388.602 30.867 388.923 30.4959C389.244 30.1198 389.633 29.829 390.089 29.6234C390.546 29.4128 391.057 29.3075 391.624 29.3075C392.195 29.3075 392.709 29.4128 393.166 29.6234C393.627 29.829 394.018 30.1198 394.339 30.4959C394.665 30.867 394.913 31.3058 395.084 31.8123C395.254 32.3138 395.34 32.8578 395.34 33.4446V33.6176C395.34 34.2043 395.254 34.7484 395.084 35.2498C394.913 35.7513 394.665 36.1901 394.339 36.5662C394.018 36.9373 393.63 37.2281 393.173 37.4387C392.722 37.6443 392.21 37.7471 391.639 37.7471C391.067 37.7471 390.553 37.6443 390.097 37.4387C389.64 37.2281 389.249 36.9373 388.923 36.5662C388.602 36.1901 388.357 35.7513 388.186 35.2498C388.016 34.7484 387.93 34.2043 387.93 33.6176ZM389.322 33.4446V33.6176C389.322 34.0237 389.37 34.4074 389.465 34.7684C389.56 35.1245 389.703 35.4404 389.894 35.7162C390.089 35.992 390.333 36.2101 390.623 36.3706C390.914 36.5261 391.253 36.6038 391.639 36.6038C392.02 36.6038 392.353 36.5261 392.639 36.3706C392.93 36.2101 393.171 35.992 393.361 35.7162C393.552 35.4404 393.695 35.1245 393.79 34.7684C393.89 34.4074 393.941 34.0237 393.941 33.6176V33.4446C393.941 33.0434 393.89 32.6648 393.79 32.3087C393.695 31.9477 393.549 31.6293 393.354 31.3534C393.163 31.0726 392.923 30.852 392.632 30.6915C392.346 30.531 392.01 30.4508 391.624 30.4508C391.243 30.4508 390.907 30.531 390.616 30.6915C390.33 30.852 390.089 31.0726 389.894 31.3534C389.703 31.6293 389.56 31.9477 389.465 32.3087C389.37 32.6648 389.322 33.0434 389.322 33.4446ZM402.606 32.9857V34.114H398.303V32.9857H402.606ZM398.597 29.4579V37.5967H397.205V29.4579H398.597ZM403.734 29.4579V37.5967H402.335V29.4579H403.734ZM409.293 29.4579V37.5967H407.894V29.4579H409.293ZM412.023 29.4579V30.5862H405.216V29.4579H412.023ZM414.784 31.0225V40.7258H413.385V29.4579H414.664L414.784 31.0225ZM420.267 33.4596V33.6176C420.267 34.2093 420.197 34.7584 420.057 35.2649C419.916 35.7663 419.711 36.2026 419.44 36.5737C419.174 36.9448 418.846 37.2331 418.455 37.4387C418.063 37.6443 417.615 37.7471 417.108 37.7471C416.592 37.7471 416.135 37.6619 415.739 37.4914C415.343 37.3209 415.007 37.0726 414.731 36.7467C414.455 36.4207 414.235 36.0296 414.069 35.5733C413.909 35.1169 413.799 34.6029 413.738 34.0313V33.1888C413.799 32.587 413.911 32.048 414.077 31.5716C414.242 31.0952 414.46 30.689 414.731 30.353C415.007 30.012 415.341 29.7538 415.732 29.5783C416.123 29.3977 416.574 29.3075 417.086 29.3075C417.597 29.3075 418.051 29.4078 418.447 29.6083C418.843 29.8039 419.177 30.0847 419.448 30.4508C419.718 30.8169 419.921 31.2557 420.057 31.7672C420.197 32.2736 420.267 32.8378 420.267 33.4596ZM418.868 33.6176V33.4596C418.868 33.0534 418.826 32.6723 418.74 32.3163C418.655 31.9552 418.522 31.6393 418.342 31.3685C418.166 31.0927 417.941 30.8771 417.665 30.7216C417.389 30.5611 417.061 30.4809 416.679 30.4809C416.328 30.4809 416.023 30.5411 415.762 30.6614C415.506 30.7818 415.288 30.9448 415.107 31.1504C414.927 31.3509 414.779 31.5816 414.664 31.8424C414.553 32.0981 414.471 32.3639 414.415 32.6397V34.5879C414.516 34.9389 414.656 35.2699 414.837 35.5808C415.017 35.8867 415.258 36.1349 415.559 36.3255C415.86 36.511 416.238 36.6038 416.694 36.6038C417.071 36.6038 417.394 36.5261 417.665 36.3706C417.941 36.2101 418.166 35.992 418.342 35.7162C418.522 35.4404 418.655 35.1245 418.74 34.7684C418.826 34.4074 418.868 34.0237 418.868 33.6176ZM421.674 33.6176V33.4446C421.674 32.8578 421.759 32.3138 421.93 31.8123C422.1 31.3058 422.346 30.867 422.667 30.4959C422.988 30.1198 423.377 29.829 423.833 29.6234C424.289 29.4128 424.801 29.3075 425.367 29.3075C425.939 29.3075 426.453 29.4128 426.909 29.6234C427.371 29.829 427.762 30.1198 428.083 30.4959C428.409 30.867 428.657 31.3058 428.827 31.8123C428.998 32.3138 429.083 32.8578 429.083 33.4446V33.6176C429.083 34.2043 428.998 34.7484 428.827 35.2498C428.657 35.7513 428.409 36.1901 428.083 36.5662C427.762 36.9373 427.373 37.2281 426.917 37.4387C426.466 37.6443 425.954 37.7471 425.382 37.7471C424.811 37.7471 424.297 37.6443 423.84 37.4387C423.384 37.2281 422.993 36.9373 422.667 36.5662C422.346 36.1901 422.1 35.7513 421.93 35.2498C421.759 34.7484 421.674 34.2043 421.674 33.6176ZM423.066 33.4446V33.6176C423.066 34.0237 423.113 34.4074 423.209 34.7684C423.304 35.1245 423.447 35.4404 423.637 35.7162C423.833 35.992 424.076 36.2101 424.367 36.3706C424.658 36.5261 424.996 36.6038 425.382 36.6038C425.763 36.6038 426.097 36.5261 426.383 36.3706C426.674 36.2101 426.914 35.992 427.105 35.7162C427.295 35.4404 427.438 35.1245 427.534 34.7684C427.634 34.4074 427.684 34.0237 427.684 33.6176V33.4446C427.684 33.0434 427.634 32.6648 427.534 32.3087C427.438 31.9477 427.293 31.6293 427.097 31.3534C426.907 31.0726 426.666 30.852 426.375 30.6915C426.089 30.531 425.753 30.4508 425.367 30.4508C424.986 30.4508 424.65 30.531 424.359 30.6915C424.074 30.852 423.833 31.0726 423.637 31.3534C423.447 31.6293 423.304 31.9477 423.209 32.3087C423.113 32.6648 423.066 33.0434 423.066 33.4446ZM436.146 29.4579V30.6088H432.212V29.4579H436.146ZM437.372 29.4579V37.5967H435.981V29.4579H437.372ZM431.874 29.4579H433.273L433.062 33.3844C433.027 33.9911 432.97 34.5277 432.889 34.9941C432.814 35.4554 432.709 35.8516 432.573 36.1825C432.443 36.5135 432.278 36.7843 432.077 36.9949C431.881 37.2005 431.646 37.3535 431.37 37.4538C431.094 37.549 430.776 37.5967 430.415 37.5967H429.978V36.3706L430.279 36.348C430.495 36.333 430.678 36.2828 430.828 36.1976C430.984 36.1123 431.114 35.987 431.219 35.8215C431.325 35.651 431.41 35.4329 431.475 35.1671C431.545 34.9013 431.598 34.5854 431.633 34.2193C431.673 33.8532 431.703 33.427 431.723 32.9406L431.874 29.4579ZM440.757 32.2561H443.202C443.859 32.2561 444.413 32.3714 444.864 32.6021C445.316 32.8278 445.657 33.1412 445.887 33.5423C446.123 33.9385 446.241 34.3898 446.241 34.8963C446.241 35.2724 446.176 35.6259 446.045 35.9569C445.915 36.2828 445.719 36.5687 445.459 36.8144C445.203 37.0601 444.884 37.2532 444.503 37.3936C444.127 37.529 443.693 37.5967 443.202 37.5967H439.742V29.4579H441.133V36.4533H443.202C443.603 36.4533 443.924 36.3806 444.165 36.2352C444.405 36.0898 444.578 35.9017 444.684 35.6711C444.789 35.4404 444.842 35.1997 444.842 34.9489C444.842 34.7032 444.789 34.4625 444.684 34.2268C444.578 33.9911 444.405 33.7956 444.165 33.6401C443.924 33.4797 443.603 33.3994 443.202 33.3994H440.757V32.2561ZM453.499 32.9857V34.114H449.197V32.9857H453.499ZM449.49 29.4579V37.5967H448.099V29.4579H449.49ZM454.628 29.4579V37.5967H453.229V29.4579H454.628ZM461.668 36.2051V32.0154C461.668 31.6944 461.603 31.4161 461.473 31.1804C461.347 30.9397 461.157 30.7542 460.901 30.6238C460.645 30.4934 460.329 30.4282 459.953 30.4282C459.602 30.4282 459.294 30.4884 459.028 30.6088C458.767 30.7291 458.562 30.8871 458.411 31.0827C458.266 31.2782 458.193 31.4888 458.193 31.7145H456.802C456.802 31.4237 456.877 31.1353 457.027 30.8495C457.178 30.5636 457.393 30.3054 457.674 30.0747C457.96 29.839 458.301 29.6535 458.697 29.5181C459.098 29.3777 459.545 29.3075 460.036 29.3075C460.628 29.3075 461.149 29.4078 461.601 29.6083C462.057 29.8089 462.413 30.1123 462.669 30.5185C462.93 30.9197 463.06 31.4237 463.06 32.0304V35.8215C463.06 36.0923 463.082 36.3806 463.128 36.6865C463.178 36.9924 463.25 37.2557 463.346 37.4763V37.5967H461.894C461.824 37.4362 461.769 37.2231 461.729 36.9573C461.688 36.6865 461.668 36.4358 461.668 36.2051ZM461.909 32.6623L461.924 33.6401H460.517C460.121 33.6401 459.768 33.6727 459.457 33.7379C459.146 33.7981 458.885 33.8909 458.675 34.0162C458.464 34.1416 458.304 34.2996 458.193 34.4901C458.083 34.6756 458.028 34.8938 458.028 35.1445C458.028 35.4003 458.085 35.6334 458.201 35.8441C458.316 36.0547 458.489 36.2227 458.72 36.348C458.955 36.4684 459.244 36.5286 459.585 36.5286C460.011 36.5286 460.387 36.4383 460.713 36.2578C461.039 36.0772 461.297 35.8566 461.488 35.5958C461.683 35.3351 461.789 35.0818 461.804 34.8361L462.398 35.5056C462.363 35.7162 462.268 35.9494 462.112 36.2051C461.957 36.4609 461.749 36.7066 461.488 36.9423C461.232 37.1729 460.926 37.366 460.57 37.5215C460.219 37.6719 459.823 37.7471 459.382 37.7471C458.83 37.7471 458.346 37.6393 457.93 37.4237C457.519 37.208 457.198 36.9197 456.967 36.5586C456.741 36.1926 456.629 35.7839 456.629 35.3326C456.629 34.8963 456.714 34.5127 456.884 34.1817C457.055 33.8457 457.301 33.5674 457.622 33.3468C457.942 33.1211 458.329 32.9506 458.78 32.8353C459.231 32.7199 459.735 32.6623 460.292 32.6623H461.909ZM466.896 33.7153H468.401L466.046 37.5967H464.542L466.896 33.7153ZM468.062 29.4579H471.462V37.5967H470.07V30.5862H468.062C467.666 30.5862 467.342 30.6539 467.092 30.7893C466.841 30.9197 466.658 31.0902 466.543 31.3008C466.427 31.5114 466.37 31.7295 466.37 31.9552C466.37 32.1758 466.422 32.389 466.528 32.5946C466.633 32.7952 466.798 32.9606 467.024 33.091C467.25 33.2214 467.541 33.2866 467.897 33.2866H470.446V34.4299H467.897C467.43 34.4299 467.016 34.3672 466.655 34.2419C466.294 34.1165 465.988 33.9435 465.738 33.7229C465.487 33.4972 465.296 33.2339 465.166 32.9331C465.036 32.6272 464.97 32.2962 464.97 31.9402C464.97 31.5841 465.038 31.2557 465.174 30.9548C465.314 30.6539 465.515 30.3906 465.775 30.165C466.041 29.9393 466.365 29.7663 466.746 29.646C467.132 29.5206 467.571 29.4579 468.062 29.4579ZM482.783 29.4579V30.6088H479.022V37.5967H477.63V29.4579H482.783ZM485.385 31.0225V40.7258H483.986V29.4579H485.265L485.385 31.0225ZM490.869 33.4596V33.6176C490.869 34.2093 490.798 34.7584 490.658 35.2649C490.518 35.7663 490.312 36.2026 490.041 36.5737C489.775 36.9448 489.447 37.2331 489.056 37.4387C488.665 37.6443 488.216 37.7471 487.709 37.7471C487.193 37.7471 486.737 37.6619 486.34 37.4914C485.944 37.3209 485.608 37.0726 485.332 36.7467C485.057 36.4207 484.836 36.0296 484.671 35.5733C484.51 35.1169 484.4 34.6029 484.34 34.0313V33.1888C484.4 32.587 484.513 32.048 484.678 31.5716C484.844 31.0952 485.062 30.689 485.332 30.353C485.608 30.012 485.942 29.7538 486.333 29.5783C486.724 29.3977 487.175 29.3075 487.687 29.3075C488.198 29.3075 488.652 29.4078 489.048 29.6083C489.444 29.8039 489.778 30.0847 490.049 30.4508C490.32 30.8169 490.523 31.2557 490.658 31.7672C490.798 32.2736 490.869 32.8378 490.869 33.4596ZM489.47 33.6176V33.4596C489.47 33.0534 489.427 32.6723 489.342 32.3163C489.256 31.9552 489.124 31.6393 488.943 31.3685C488.767 31.0927 488.542 30.8771 488.266 30.7216C487.99 30.5611 487.662 30.4809 487.281 30.4809C486.93 30.4809 486.624 30.5411 486.363 30.6614C486.107 30.7818 485.889 30.9448 485.709 31.1504C485.528 31.3509 485.38 31.5816 485.265 31.8424C485.154 32.0981 485.072 32.3639 485.017 32.6397V34.5879C485.117 34.9389 485.257 35.2699 485.438 35.5808C485.618 35.8867 485.859 36.1349 486.16 36.3255C486.461 36.511 486.839 36.6038 487.296 36.6038C487.672 36.6038 487.995 36.5261 488.266 36.3706C488.542 36.2101 488.767 35.992 488.943 35.7162C489.124 35.4404 489.256 35.1245 489.342 34.7684C489.427 34.4074 489.47 34.0237 489.47 33.6176ZM494.84 36.7542L497.104 29.4579H498.594L495.329 38.8528C495.254 39.0534 495.154 39.2691 495.028 39.4997C494.908 39.7354 494.752 39.9586 494.562 40.1692C494.371 40.3798 494.141 40.5503 493.87 40.6807C493.604 40.8161 493.286 40.8838 492.915 40.8838C492.804 40.8838 492.664 40.8687 492.493 40.8386C492.323 40.8086 492.203 40.7835 492.132 40.7634L492.125 39.6351C492.165 39.6401 492.228 39.6452 492.313 39.6502C492.403 39.6602 492.466 39.6652 492.501 39.6652C492.817 39.6652 493.085 39.6226 493.306 39.5373C493.526 39.4571 493.712 39.3192 493.862 39.1236C494.018 38.9331 494.151 38.6698 494.261 38.3338L494.84 36.7542ZM493.178 29.4579L495.292 35.7764L495.653 37.2431L494.652 37.7546L491.658 29.4579H493.178ZM505.273 29.4579V30.6088H501.159V29.4579H505.273ZM501.362 29.4579V37.5967H499.97V29.4579H501.362ZM506.507 29.4579V37.5967H505.108V29.4579H506.507ZM514.164 29.4579V30.6088H510.05V29.4579H514.164ZM510.253 29.4579V37.5967H508.861V29.4579H510.253ZM515.398 29.4579V37.5967H513.999V29.4579H515.398ZM522.431 36.2051V32.0154C522.431 31.6944 522.366 31.4161 522.235 31.1804C522.11 30.9397 521.919 30.7542 521.664 30.6238C521.408 30.4934 521.092 30.4282 520.716 30.4282C520.365 30.4282 520.056 30.4884 519.791 30.6088C519.53 30.7291 519.324 30.8871 519.174 31.0827C519.028 31.2782 518.956 31.4888 518.956 31.7145H517.564C517.564 31.4237 517.639 31.1353 517.79 30.8495C517.94 30.5636 518.156 30.3054 518.437 30.0747C518.722 29.839 519.063 29.6535 519.46 29.5181C519.861 29.3777 520.307 29.3075 520.799 29.3075C521.39 29.3075 521.912 29.4078 522.363 29.6083C522.819 29.8089 523.175 30.1123 523.431 30.5185C523.692 30.9197 523.822 31.4237 523.822 32.0304V35.8215C523.822 36.0923 523.845 36.3806 523.89 36.6865C523.94 36.9924 524.013 37.2557 524.108 37.4763V37.5967H522.656C522.586 37.4362 522.531 37.2231 522.491 36.9573C522.451 36.6865 522.431 36.4358 522.431 36.2051ZM522.672 32.6623L522.687 33.6401H521.28C520.884 33.6401 520.53 33.6727 520.219 33.7379C519.908 33.7981 519.648 33.8909 519.437 34.0162C519.226 34.1416 519.066 34.2996 518.956 34.4901C518.845 34.6756 518.79 34.8938 518.79 35.1445C518.79 35.4003 518.848 35.6334 518.963 35.8441C519.079 36.0547 519.252 36.2227 519.482 36.348C519.718 36.4684 520.006 36.5286 520.347 36.5286C520.773 36.5286 521.15 36.4383 521.476 36.2578C521.801 36.0772 522.06 35.8566 522.25 35.5958C522.446 35.3351 522.551 35.0818 522.566 34.8361L523.16 35.5056C523.125 35.7162 523.03 35.9494 522.875 36.2051C522.719 36.4609 522.511 36.7066 522.25 36.9423C521.995 37.1729 521.689 37.366 521.333 37.5215C520.982 37.6719 520.585 37.7471 520.144 37.7471C519.593 37.7471 519.109 37.6393 518.692 37.4237C518.281 37.208 517.96 36.9197 517.73 36.5586C517.504 36.1926 517.391 35.7839 517.391 35.3326C517.391 34.8963 517.476 34.5127 517.647 34.1817C517.817 33.8457 518.063 33.5674 518.384 33.3468C518.705 33.1211 519.091 32.9506 519.542 32.8353C519.994 32.7199 520.498 32.6623 521.054 32.6623H522.672Z" fill="#454545"></path> <path fill-rule="evenodd" clip-rule="evenodd" d="M337.186 21C337.186 18.7909 338.977 17 341.186 17H366.186C368.395 17 370.186 18.7909 370.186 21V46C370.186 48.2091 368.395 50 366.186 50H341.186C338.977 50 337.186 48.2091 337.186 46V21Z" fill="#D09CC7"></path> <path fill-rule="evenodd" clip-rule="evenodd" d="M229 21C229 18.7909 230.791 17 233 17H258C260.209 17 262 18.7909 262 21V46C262 48.2091 260.209 50 258 50H233C230.791 50 229 48.2091 229 46V21Z" fill="#6FC4E2"></path> <path d="M275.755 26.048V37H274.326V26.048H275.755ZM279.275 26.048V27.2365H270.813V26.048H279.275ZM281.359 26.048H282.766L286.353 34.9766L289.934 26.048H291.348L286.895 37H285.797L281.359 26.048ZM280.9 26.048H282.141L282.344 32.7275V37H280.9V26.048ZM290.558 26.048H291.799V37H290.355V32.7275L290.558 26.048Z" fill="#454545"></path> <line x1="88" y1="64.5" x2="669" y2="64.5" stroke="#A6A6A6" stroke-opacity="0.26" stroke-dasharray="6 6"></line> <line x1="87" y1="264.5" x2="668" y2="264.5" stroke="#A6A6A6" stroke-opacity="0.26" stroke-dasharray="6 6"></line> <line x1="87" y1="304.5" x2="668" y2="304.5" stroke="#A6A6A6" stroke-opacity="0.26" stroke-dasharray="6 6"></line> <line x1="87" y1="144.5" x2="668" y2="144.5" stroke="#A6A6A6" stroke-opacity="0.26" stroke-dasharray="6 6"></line> <line x1="87" y1="184.5" x2="668" y2="184.5" stroke="#A6A6A6" stroke-opacity="0.26" stroke-dasharray="6 6"></line> <line x1="87" y1="224.5" x2="668" y2="224.5" stroke="#A6A6A6" stroke-opacity="0.26" stroke-dasharray="6 6"></line> <path d="M245.939 268.061C246.525 268.646 247.475 268.646 248.061 268.061L257.607 258.515C258.192 257.929 258.192 256.979 257.607 256.393C257.021 255.808 256.071 255.808 255.485 256.393L247 264.879L238.515 256.393C237.929 255.808 236.979 255.808 236.393 256.393C235.808 256.979 235.808 257.929 236.393 258.515L245.939 268.061ZM245.5 199L245.5 267L248.5 267L248.5 199L245.5 199Z" fill="white"></path> </g> <defs> <clipPath id="clip0_499_1451"> <rect width="669" height="358" fill="white"></rect> </clipPath> </defs> </svg> 