<?xml version="1.0" encoding="UTF-8"?> <svg xmlns="http://www.w3.org/2000/svg" width="375" height="285" viewBox="0 0 375 285" fill="none"> <g clip-path="url(#clip0_16_8)"> <rect width="375" height="285" fill="white"></rect> <line x1="87.0667" y1="218" x2="350" y2="218" stroke="#A6A6A6" stroke-width="2"></line> <line x1="81.5985" y1="167" x2="87.009" y2="167" stroke="#A6A6A6" stroke-width="2"></line> <line x1="81.5985" y1="103.087" x2="87.009" y2="103.087" stroke="#A6A6A6" stroke-width="2"></line> <line x1="87.1" y1="29" x2="87.1" y2="193" stroke="#A6A6A6" stroke-width="2"></line> <line x1="87.1" y1="201" x2="87.1" y2="219" stroke="#A6A6A6" stroke-width="2"></line> <line x1="140.2" y1="226" x2="140.2" y2="213" stroke="#A6A6A6" stroke-width="2"></line> <line x1="322.9" y1="226" x2="322.9" y2="213" stroke="#A6A6A6" stroke-width="2"></line> <line y1="-1" x2="15.6822" y2="-1" transform="matrix(-0.806326 0.591472 -0.565381 -0.82483 93.9116 187)" stroke="#A6A6A6" stroke-width="2"></line> <line y1="-1" x2="15.6822" y2="-1" transform="matrix(-0.806326 0.591472 -0.565381 -0.82483 94.8783 194)" stroke="#A6A6A6" stroke-width="2"></line> <path fill-rule="evenodd" clip-rule="evenodd" d="M319.661 106.813C320.342 106.813 320.967 106.224 320.967 105.407C320.967 104.589 320.342 104 319.661 104C318.979 104 318.354 104.589 318.354 105.407C318.354 106.224 318.979 106.813 319.661 106.813ZM319.661 107.813C320.934 107.813 321.967 106.736 321.967 105.407C321.967 104.078 320.934 103 319.661 103C318.387 103 317.354 104.078 317.354 105.407C317.354 105.449 317.356 105.491 317.358 105.533L144.349 164.603C143.944 164.273 143.433 164.076 142.877 164.076C141.563 164.076 140.497 165.178 140.497 166.538C140.497 167.898 141.563 169 142.877 169C144.191 169 145.257 167.898 145.257 166.538C145.257 166.494 145.256 166.451 145.254 166.407L318.277 107.332C318.662 107.634 319.141 107.813 319.661 107.813ZM144.257 166.538C144.257 167.378 143.608 168 142.877 168C142.147 168 141.497 167.378 141.497 166.538C141.497 165.698 142.147 165.076 142.877 165.076C143.608 165.076 144.257 165.698 144.257 166.538Z" fill="#6FC4E2"></path> <path fill-rule="evenodd" clip-rule="evenodd" d="M320.967 168C320.967 168.817 320.335 169.421 319.626 169.421C319.072 169.421 318.565 169.052 318.37 168.5H318.415V167.388C318.636 166.899 319.111 166.579 319.626 166.579C320.335 166.579 320.967 167.183 320.967 168ZM317.789 166.5C318.218 165.939 318.881 165.579 319.626 165.579C320.919 165.579 321.967 166.663 321.967 168C321.967 169.337 320.919 170.421 319.626 170.421C318.499 170.421 317.559 169.597 317.336 168.5H144.293V166.5H317.789Z" fill="#D09CC7"></path> <path fill-rule="evenodd" clip-rule="evenodd" d="M141.2 209L147.095 212.016V210.005L316.072 210.005V212.016L321.967 209L316.072 205.984V208.005L147.095 208.005V205.984L141.2 209Z" fill="#A6A6A6"></path> <path d="M63.9155 171H62.9165V164.377L60.9131 165.113V164.211L63.7598 163.142H63.9155V171ZM70.0923 171H69.0933V164.377L67.0898 165.113V164.211L69.9365 163.142H70.0923V171ZM76.9028 163.174V164.018H76.7202C75.9468 164.032 75.3309 164.261 74.8726 164.705C74.4142 165.149 74.1493 165.774 74.0776 166.58C74.4894 166.107 75.0516 165.871 75.7642 165.871C76.4445 165.871 76.987 166.111 77.3916 166.59C77.7998 167.07 78.0039 167.69 78.0039 168.449C78.0039 169.254 77.7837 169.899 77.3433 170.382C76.9064 170.866 76.3192 171.107 75.5815 171.107C74.8332 171.107 74.2262 170.821 73.7607 170.248C73.2952 169.672 73.0625 168.93 73.0625 168.024V167.643C73.0625 166.204 73.3687 165.104 73.981 164.345C74.5968 163.583 75.5117 163.192 76.7256 163.174H76.9028ZM75.5977 166.698C75.2575 166.698 74.9442 166.8 74.6577 167.004C74.3713 167.208 74.1725 167.464 74.0615 167.772V168.137C74.0615 168.782 74.2065 169.301 74.4966 169.695C74.7866 170.089 75.1483 170.286 75.5815 170.286C76.0291 170.286 76.38 170.121 76.6343 169.792C76.8921 169.462 77.021 169.031 77.021 168.497C77.021 167.96 76.8903 167.527 76.6289 167.197C76.3711 166.864 76.0273 166.698 75.5977 166.698Z" fill="#454545"></path> <path d="M63.9155 107H62.9165V100.377L60.9131 101.113V100.211L63.7598 99.1421H63.9155V107ZM71.9507 107H66.8267V106.286L69.5337 103.278C69.9347 102.823 70.2104 102.454 70.3608 102.171C70.5148 101.885 70.5918 101.59 70.5918 101.285C70.5918 100.877 70.4683 100.542 70.2212 100.281C69.9741 100.019 69.6447 99.8887 69.2329 99.8887C68.7388 99.8887 68.3538 100.03 68.0781 100.313C67.806 100.592 67.6699 100.983 67.6699 101.484H66.6763C66.6763 100.764 66.9072 100.182 67.3691 99.7383C67.8346 99.2943 68.4559 99.0723 69.2329 99.0723C69.9598 99.0723 70.5345 99.2638 70.957 99.647C71.3796 100.027 71.5908 100.533 71.5908 101.167C71.5908 101.937 71.1003 102.854 70.1191 103.917L68.0244 106.189H71.9507V107ZM76.269 107H75.27V100.377L73.2666 101.113V100.211L76.1133 99.1421H76.269V107Z" fill="#454545"></path> <path d="M216.147 225.732V232.031H214.97V224.717H216.054L216.147 225.732ZM219.589 227.31V227.412C219.589 227.796 219.543 228.153 219.452 228.481C219.364 228.807 219.232 229.092 219.057 229.336C218.884 229.577 218.671 229.764 218.417 229.897C218.163 230.031 217.87 230.098 217.538 230.098C217.209 230.098 216.921 230.037 216.674 229.917C216.43 229.793 216.223 229.619 216.054 229.395C215.884 229.17 215.748 228.906 215.644 228.604C215.543 228.298 215.471 227.962 215.429 227.598V227.202C215.471 226.815 215.543 226.463 215.644 226.147C215.748 225.832 215.884 225.56 216.054 225.332C216.223 225.104 216.43 224.928 216.674 224.805C216.918 224.681 217.203 224.619 217.528 224.619C217.86 224.619 218.155 224.684 218.412 224.814C218.669 224.941 218.886 225.124 219.062 225.361C219.237 225.596 219.369 225.879 219.457 226.211C219.545 226.54 219.589 226.906 219.589 227.31ZM218.412 227.412V227.31C218.412 227.065 218.389 226.839 218.344 226.631C218.298 226.419 218.227 226.234 218.129 226.074C218.031 225.915 217.906 225.791 217.753 225.703C217.603 225.612 217.423 225.566 217.211 225.566C217.003 225.566 216.824 225.602 216.674 225.674C216.524 225.742 216.399 225.838 216.298 225.962C216.197 226.086 216.119 226.23 216.064 226.396C216.008 226.559 215.969 226.737 215.946 226.929V227.876C215.985 228.11 216.052 228.325 216.147 228.521C216.241 228.716 216.374 228.872 216.547 228.989C216.723 229.103 216.947 229.16 217.221 229.16C217.432 229.16 217.613 229.115 217.763 229.023C217.912 228.932 218.035 228.807 218.129 228.647C218.227 228.485 218.298 228.298 218.344 228.086C218.389 227.874 218.412 227.65 218.412 227.412ZM221.176 226.792L224.403 228.027V229.185L220.287 227.368V226.602L221.176 226.792ZM224.403 225.781L221.176 227.036L220.287 227.207V226.44L224.403 224.629V225.781ZM230.243 225.85V227.012C230.243 227.568 230.188 228.044 230.077 228.438C229.97 228.828 229.814 229.146 229.608 229.39C229.403 229.634 229.158 229.813 228.871 229.927C228.588 230.041 228.271 230.098 227.919 230.098C227.639 230.098 227.379 230.062 227.138 229.99C226.9 229.919 226.685 229.806 226.493 229.653C226.301 229.5 226.137 229.303 226 229.062C225.867 228.818 225.762 228.527 225.688 228.188C225.616 227.85 225.58 227.458 225.58 227.012V225.85C225.58 225.29 225.635 224.818 225.746 224.434C225.857 224.046 226.015 223.732 226.22 223.491C226.425 223.247 226.669 223.07 226.952 222.959C227.239 222.848 227.558 222.793 227.909 222.793C228.192 222.793 228.453 222.829 228.69 222.9C228.931 222.969 229.146 223.078 229.335 223.228C229.527 223.377 229.69 223.573 229.823 223.813C229.96 224.051 230.064 224.339 230.136 224.678C230.207 225.013 230.243 225.404 230.243 225.85ZM229.066 227.178V225.674C229.066 225.391 229.05 225.142 229.018 224.927C228.985 224.709 228.936 224.525 228.871 224.375C228.809 224.222 228.731 224.098 228.637 224.004C228.542 223.906 228.435 223.836 228.314 223.794C228.194 223.748 228.059 223.726 227.909 223.726C227.727 223.726 227.564 223.761 227.421 223.833C227.278 223.901 227.157 224.012 227.06 224.165C226.962 224.318 226.887 224.52 226.835 224.771C226.786 225.018 226.762 225.319 226.762 225.674V227.178C226.762 227.464 226.778 227.716 226.811 227.935C226.843 228.153 226.892 228.34 226.957 228.496C227.022 228.649 227.1 228.776 227.191 228.877C227.286 228.975 227.393 229.046 227.514 229.092C227.637 229.137 227.773 229.16 227.919 229.16C228.105 229.16 228.269 229.124 228.412 229.053C228.555 228.981 228.676 228.867 228.773 228.711C228.871 228.551 228.944 228.345 228.993 228.091C229.042 227.837 229.066 227.533 229.066 227.178ZM232.465 228.867L232.46 229.707C232.46 230.039 232.377 230.381 232.211 230.732C232.045 231.084 231.825 231.374 231.552 231.602L230.922 231.235C231.013 231.089 231.096 230.941 231.171 230.791C231.246 230.641 231.306 230.482 231.352 230.312C231.397 230.143 231.42 229.956 231.42 229.751V228.867H232.465ZM238.163 225.85V227.012C238.163 227.568 238.108 228.044 237.997 228.438C237.89 228.828 237.733 229.146 237.528 229.39C237.323 229.634 237.078 229.813 236.791 229.927C236.508 230.041 236.19 230.098 235.839 230.098C235.559 230.098 235.299 230.062 235.058 229.99C234.82 229.919 234.605 229.806 234.413 229.653C234.221 229.5 234.057 229.303 233.92 229.062C233.787 228.818 233.682 228.527 233.607 228.188C233.536 227.85 233.5 227.458 233.5 227.012V225.85C233.5 225.29 233.555 224.818 233.666 224.434C233.777 224.046 233.935 223.732 234.14 223.491C234.345 223.247 234.589 223.07 234.872 222.959C235.159 222.848 235.478 222.793 235.829 222.793C236.112 222.793 236.373 222.829 236.61 222.9C236.851 222.969 237.066 223.078 237.255 223.228C237.447 223.377 237.61 223.573 237.743 223.813C237.88 224.051 237.984 224.339 238.056 224.678C238.127 225.013 238.163 225.404 238.163 225.85ZM236.986 227.178V225.674C236.986 225.391 236.97 225.142 236.938 224.927C236.905 224.709 236.856 224.525 236.791 224.375C236.729 224.222 236.651 224.098 236.557 224.004C236.462 223.906 236.355 223.836 236.234 223.794C236.114 223.748 235.979 223.726 235.829 223.726C235.647 223.726 235.484 223.761 235.341 223.833C235.198 223.901 235.077 224.012 234.98 224.165C234.882 224.318 234.807 224.52 234.755 224.771C234.706 225.018 234.682 225.319 234.682 225.674V227.178C234.682 227.464 234.698 227.716 234.731 227.935C234.763 228.153 234.812 228.34 234.877 228.496C234.942 228.649 235.02 228.776 235.111 228.877C235.206 228.975 235.313 229.046 235.434 229.092C235.557 229.137 235.692 229.16 235.839 229.16C236.024 229.16 236.189 229.124 236.332 229.053C236.475 228.981 236.596 228.867 236.693 228.711C236.791 228.551 236.864 228.345 236.913 228.091C236.962 227.837 236.986 227.533 236.986 227.178ZM240.448 226.694L239.511 226.465L239.897 222.891H243.73V223.887H240.873L240.678 225.63C240.788 225.565 240.941 225.501 241.137 225.439C241.332 225.374 241.555 225.342 241.806 225.342C242.141 225.342 242.44 225.397 242.704 225.508C242.971 225.615 243.197 225.773 243.383 225.981C243.568 226.187 243.71 226.437 243.808 226.733C243.905 227.026 243.954 227.357 243.954 227.725C243.954 228.053 243.905 228.361 243.808 228.647C243.713 228.934 243.57 229.186 243.378 229.404C243.186 229.622 242.943 229.793 242.65 229.917C242.361 230.037 242.017 230.098 241.62 230.098C241.324 230.098 241.039 230.055 240.766 229.971C240.495 229.883 240.253 229.754 240.038 229.585C239.823 229.412 239.651 229.201 239.521 228.95C239.39 228.696 239.315 228.405 239.296 228.076H240.448C240.478 228.307 240.541 228.504 240.639 228.667C240.74 228.826 240.873 228.949 241.039 229.033C241.205 229.118 241.397 229.16 241.615 229.16C241.814 229.16 241.985 229.126 242.128 229.058C242.271 228.986 242.39 228.885 242.484 228.755C242.582 228.621 242.654 228.465 242.699 228.286C242.748 228.107 242.773 227.909 242.773 227.69C242.773 227.482 242.745 227.292 242.689 227.119C242.637 226.947 242.558 226.797 242.45 226.67C242.346 226.543 242.214 226.445 242.055 226.377C241.895 226.305 241.711 226.27 241.503 226.27C241.223 226.27 241.008 226.31 240.858 226.392C240.712 226.473 240.575 226.574 240.448 226.694Z" fill="#454545"></path> <path d="M122.062 239H121.063V232.377L119.06 233.113V232.211L121.906 231.142H122.062V239ZM128.781 235.562C128.574 235.81 128.325 236.008 128.035 236.159C127.748 236.309 127.433 236.384 127.089 236.384C126.638 236.384 126.244 236.273 125.908 236.051C125.575 235.829 125.317 235.518 125.134 235.117C124.952 234.712 124.86 234.266 124.86 233.779C124.86 233.257 124.959 232.786 125.156 232.367C125.356 231.948 125.639 231.627 126.004 231.405C126.37 231.183 126.796 231.072 127.283 231.072C128.056 231.072 128.665 231.362 129.109 231.942C129.556 232.519 129.78 233.307 129.78 234.306V234.596C129.78 236.118 129.479 237.229 128.878 237.931C128.276 238.629 127.369 238.987 126.155 239.005H125.961V238.167H126.171C126.991 238.153 127.621 237.94 128.062 237.528C128.502 237.113 128.742 236.458 128.781 235.562ZM127.25 235.562C127.583 235.562 127.89 235.46 128.169 235.256C128.452 235.052 128.658 234.8 128.787 234.499V234.102C128.787 233.45 128.645 232.92 128.362 232.512C128.079 232.104 127.721 231.899 127.288 231.899C126.851 231.899 126.5 232.068 126.235 232.404C125.97 232.737 125.838 233.178 125.838 233.726C125.838 234.259 125.965 234.7 126.219 235.047C126.477 235.391 126.821 235.562 127.25 235.562ZM135.893 233.221C135.893 233.611 135.789 233.958 135.581 234.263C135.377 234.567 135.099 234.805 134.749 234.977C135.157 235.153 135.479 235.409 135.715 235.745C135.955 236.082 136.075 236.463 136.075 236.889C136.075 237.566 135.846 238.105 135.388 238.506C134.933 238.907 134.333 239.107 133.588 239.107C132.836 239.107 132.233 238.907 131.778 238.506C131.327 238.101 131.102 237.562 131.102 236.889C131.102 236.467 131.216 236.085 131.445 235.745C131.678 235.405 131.999 235.147 132.407 234.972C132.059 234.8 131.785 234.562 131.585 234.257C131.384 233.953 131.284 233.607 131.284 233.221C131.284 232.562 131.495 232.039 131.918 231.652C132.34 231.266 132.897 231.072 133.588 231.072C134.276 231.072 134.831 231.266 135.253 231.652C135.68 232.039 135.893 232.562 135.893 233.221ZM135.082 236.868C135.082 236.431 134.942 236.075 134.663 235.799C134.387 235.523 134.025 235.385 133.578 235.385C133.13 235.385 132.77 235.521 132.498 235.793C132.229 236.066 132.095 236.424 132.095 236.868C132.095 237.312 132.226 237.661 132.487 237.915C132.752 238.169 133.119 238.296 133.588 238.296C134.054 238.296 134.419 238.169 134.684 237.915C134.949 237.657 135.082 237.308 135.082 236.868ZM133.588 231.889C133.198 231.889 132.881 232.01 132.638 232.254C132.398 232.494 132.278 232.821 132.278 233.237C132.278 233.634 132.396 233.957 132.632 234.204C132.872 234.447 133.191 234.569 133.588 234.569C133.986 234.569 134.303 234.447 134.539 234.204C134.779 233.957 134.899 233.634 134.899 233.237C134.899 232.839 134.775 232.515 134.528 232.265C134.281 232.014 133.968 231.889 133.588 231.889ZM137.783 235.079L138.181 231.18H142.188V232.098H139.024L138.788 234.23C139.171 234.005 139.606 233.892 140.093 233.892C140.805 233.892 141.371 234.128 141.79 234.601C142.209 235.07 142.418 235.706 142.418 236.508C142.418 237.313 142.2 237.949 141.763 238.415C141.33 238.876 140.723 239.107 139.942 239.107C139.251 239.107 138.687 238.916 138.25 238.533C137.814 238.15 137.565 237.62 137.504 236.943H138.444C138.505 237.39 138.664 237.729 138.922 237.958C139.18 238.184 139.52 238.296 139.942 238.296C140.404 238.296 140.766 238.139 141.027 237.824C141.292 237.509 141.425 237.074 141.425 236.519C141.425 235.996 141.282 235.577 140.995 235.262C140.712 234.943 140.334 234.784 139.862 234.784C139.429 234.784 139.088 234.879 138.841 235.068L138.578 235.283L137.783 235.079Z" fill="#454545"></path> <path d="M314.062 239H313.063V232.377L311.06 233.113V232.211L313.906 231.142H314.062V239ZM320.781 235.562C320.574 235.81 320.325 236.008 320.035 236.159C319.748 236.309 319.433 236.384 319.089 236.384C318.638 236.384 318.244 236.273 317.908 236.051C317.575 235.829 317.317 235.518 317.134 235.117C316.952 234.712 316.86 234.266 316.86 233.779C316.86 233.257 316.959 232.786 317.156 232.367C317.356 231.948 317.639 231.627 318.004 231.405C318.37 231.183 318.796 231.072 319.283 231.072C320.056 231.072 320.665 231.362 321.109 231.942C321.556 232.519 321.78 233.307 321.78 234.306V234.596C321.78 236.118 321.479 237.229 320.878 237.931C320.276 238.629 319.369 238.987 318.155 239.005H317.961V238.167H318.171C318.991 238.153 319.621 237.94 320.062 237.528C320.502 237.113 320.742 236.458 320.781 235.562ZM319.25 235.562C319.583 235.562 319.89 235.46 320.169 235.256C320.452 235.052 320.658 234.8 320.787 234.499V234.102C320.787 233.45 320.645 232.92 320.362 232.512C320.079 232.104 319.721 231.899 319.288 231.899C318.851 231.899 318.5 232.068 318.235 232.404C317.97 232.737 317.838 233.178 317.838 233.726C317.838 234.259 317.965 234.7 318.219 235.047C318.477 235.391 318.821 235.562 319.25 235.562ZM327.893 233.221C327.893 233.611 327.789 233.958 327.581 234.263C327.377 234.567 327.099 234.805 326.749 234.977C327.157 235.153 327.479 235.409 327.715 235.745C327.955 236.082 328.075 236.463 328.075 236.889C328.075 237.566 327.846 238.105 327.388 238.506C326.933 238.907 326.333 239.107 325.588 239.107C324.836 239.107 324.233 238.907 323.778 238.506C323.327 238.101 323.102 237.562 323.102 236.889C323.102 236.467 323.216 236.085 323.445 235.745C323.678 235.405 323.999 235.147 324.407 234.972C324.059 234.8 323.785 234.562 323.585 234.257C323.384 233.953 323.284 233.607 323.284 233.221C323.284 232.562 323.495 232.039 323.918 231.652C324.34 231.266 324.897 231.072 325.588 231.072C326.276 231.072 326.831 231.266 327.253 231.652C327.68 232.039 327.893 232.562 327.893 233.221ZM327.082 236.868C327.082 236.431 326.942 236.075 326.663 235.799C326.387 235.523 326.025 235.385 325.578 235.385C325.13 235.385 324.77 235.521 324.498 235.793C324.229 236.066 324.095 236.424 324.095 236.868C324.095 237.312 324.226 237.661 324.487 237.915C324.752 238.169 325.119 238.296 325.588 238.296C326.054 238.296 326.419 238.169 326.684 237.915C326.949 237.657 327.082 237.308 327.082 236.868ZM325.588 231.889C325.198 231.889 324.881 232.01 324.638 232.254C324.398 232.494 324.278 232.821 324.278 233.237C324.278 233.634 324.396 233.957 324.632 234.204C324.872 234.447 325.191 234.569 325.588 234.569C325.986 234.569 326.303 234.447 326.539 234.204C326.779 233.957 326.899 233.634 326.899 233.237C326.899 232.839 326.775 232.515 326.528 232.265C326.281 232.014 325.968 231.889 325.588 231.889ZM334.375 231.738L331.137 239H330.095L333.323 231.996H329.09V231.18H334.375V231.738Z" fill="#454545"></path> <path d="M98.1865 60.6763V61.5249H94.98V60.6763H98.1865ZM93.0732 62.5132H94.1045C94.1618 62.882 94.2567 63.1971 94.3892 63.4585C94.5252 63.7199 94.724 63.9204 94.9854 64.0601C95.2467 64.1961 95.5977 64.2642 96.0381 64.2642C96.3854 64.2642 96.6862 64.1925 96.9404 64.0493C97.1947 63.9025 97.4041 63.702 97.5688 63.4478C97.7336 63.1935 97.8553 62.8981 97.9341 62.5615C98.0164 62.2249 98.0576 61.8651 98.0576 61.4819V60.6978C98.0576 60.3647 98.029 60.0568 97.9717 59.7739C97.9144 59.4875 97.8285 59.2314 97.7139 59.0059C97.5993 58.7767 97.4561 58.5815 97.2842 58.4204C97.1159 58.2593 96.9189 58.1357 96.6934 58.0498C96.4714 57.9639 96.2225 57.9209 95.9468 57.9209C95.5457 57.9209 95.2181 57.9925 94.9639 58.1357C94.7132 58.279 94.5199 58.4831 94.3838 58.748C94.2513 59.0094 94.1582 59.3228 94.1045 59.688H93.0732C93.127 59.1724 93.2684 58.7194 93.4976 58.3291C93.7267 57.9352 94.0436 57.6273 94.4482 57.4053C94.8564 57.1833 95.356 57.0723 95.9468 57.0723C96.4302 57.0723 96.8652 57.1582 97.252 57.3301C97.6387 57.502 97.9681 57.7472 98.2402 58.0659C98.516 58.3846 98.7254 58.7677 98.8687 59.2153C99.0155 59.6629 99.0889 60.1606 99.0889 60.7085V61.4819C99.0889 62.0298 99.0155 62.5275 98.8687 62.9751C98.7254 63.4191 98.5195 63.8005 98.251 64.1191C97.9824 64.4342 97.6602 64.6777 97.2842 64.8496C96.9118 65.0215 96.4964 65.1074 96.0381 65.1074C95.4115 65.1074 94.8887 64.9946 94.4697 64.769C94.0508 64.5399 93.7267 64.2301 93.4976 63.8398C93.272 63.4495 93.1305 63.0073 93.0732 62.5132ZM101.538 59.1885V65H100.544V59.1885H101.538ZM105.352 59.1885L102.596 62.5186H101.205L101.055 61.6484H102.193L104.143 59.1885H105.352ZM104.283 65L102.145 62.3682L102.784 61.6484L105.545 65H104.283ZM108.649 64.291C108.886 64.291 109.104 64.2427 109.305 64.146C109.505 64.0493 109.67 63.9168 109.799 63.7485C109.928 63.5767 110.001 63.3815 110.019 63.1631H110.964C110.946 63.5068 110.83 63.8273 110.615 64.1245C110.404 64.4181 110.126 64.6562 109.783 64.8389C109.439 65.0179 109.061 65.1074 108.649 65.1074C108.213 65.1074 107.831 65.0304 107.505 64.8765C107.183 64.7225 106.915 64.5112 106.7 64.2427C106.488 63.9741 106.329 63.6662 106.222 63.3188C106.118 62.9679 106.066 62.5973 106.066 62.207V61.9814C106.066 61.5911 106.118 61.2223 106.222 60.875C106.329 60.5241 106.488 60.2144 106.7 59.9458C106.915 59.6772 107.183 59.466 107.505 59.312C107.831 59.158 108.213 59.0811 108.649 59.0811C109.104 59.0811 109.502 59.1742 109.842 59.3604C110.182 59.543 110.449 59.7936 110.642 60.1123C110.839 60.4274 110.946 60.7855 110.964 61.1865H110.019C110.001 60.9466 109.933 60.73 109.815 60.5366C109.7 60.3433 109.543 60.1893 109.342 60.0747C109.145 59.9565 108.914 59.8975 108.649 59.8975C108.345 59.8975 108.089 59.9583 107.881 60.0801C107.677 60.1982 107.514 60.3594 107.393 60.5635C107.274 60.764 107.188 60.9878 107.135 61.2349C107.085 61.4784 107.06 61.7272 107.06 61.9814V62.207C107.06 62.4613 107.085 62.7119 107.135 62.959C107.185 63.2061 107.269 63.4299 107.387 63.6304C107.509 63.8309 107.672 63.992 107.876 64.1138C108.084 64.2319 108.341 64.291 108.649 64.291ZM115.954 59.1885V60.0103H113.016V59.1885H115.954ZM113.161 59.1885V65H112.167V59.1885H113.161ZM116.835 59.1885V65H115.836V59.1885H116.835ZM120.842 65.1074C120.437 65.1074 120.07 65.0394 119.741 64.9033C119.415 64.7637 119.134 64.5685 118.897 64.3179C118.665 64.0672 118.486 63.77 118.36 63.4263C118.235 63.0825 118.172 62.7065 118.172 62.2983V62.0728C118.172 61.6001 118.242 61.1794 118.382 60.8105C118.521 60.4382 118.711 60.123 118.951 59.8652C119.191 59.6074 119.463 59.4123 119.768 59.2798C120.072 59.1473 120.387 59.0811 120.713 59.0811C121.128 59.0811 121.486 59.1527 121.787 59.2959C122.091 59.4391 122.34 59.6396 122.534 59.8975C122.727 60.1517 122.87 60.4525 122.963 60.7998C123.056 61.1436 123.103 61.5195 123.103 61.9277V62.3735H118.763V61.5625H122.109V61.4873C122.095 61.2295 122.041 60.9788 121.948 60.7354C121.859 60.4919 121.715 60.2913 121.519 60.1338C121.322 59.9762 121.053 59.8975 120.713 59.8975C120.487 59.8975 120.28 59.9458 120.09 60.0425C119.9 60.1356 119.737 60.2752 119.601 60.4614C119.465 60.6476 119.359 60.875 119.284 61.1436C119.209 61.4121 119.171 61.7218 119.171 62.0728V62.2983C119.171 62.5741 119.209 62.8337 119.284 63.0771C119.363 63.3171 119.476 63.5283 119.623 63.7109C119.773 63.8936 119.954 64.0368 120.165 64.1406C120.38 64.2445 120.623 64.2964 120.896 64.2964C121.246 64.2964 121.544 64.2248 121.787 64.0815C122.031 63.9383 122.244 63.7467 122.426 63.5068L123.028 63.9849C122.903 64.1746 122.743 64.3555 122.55 64.5273C122.356 64.6992 122.118 64.8389 121.835 64.9463C121.556 65.0537 121.225 65.1074 120.842 65.1074ZM125.257 60.3057V67.2344H124.258V59.1885H125.171L125.257 60.3057ZM129.172 62.0459V62.1587C129.172 62.5812 129.122 62.9733 129.022 63.335C128.922 63.693 128.775 64.0046 128.582 64.2695C128.392 64.5345 128.157 64.7404 127.878 64.8872C127.599 65.034 127.278 65.1074 126.917 65.1074C126.548 65.1074 126.222 65.0465 125.939 64.9248C125.656 64.8031 125.416 64.6258 125.219 64.3931C125.022 64.1603 124.865 63.881 124.747 63.5552C124.632 63.2293 124.553 62.8623 124.51 62.4541V61.8525C124.553 61.4229 124.634 61.0379 124.752 60.6978C124.87 60.3576 125.026 60.0675 125.219 59.8276C125.416 59.5841 125.654 59.3997 125.934 59.2744C126.213 59.1455 126.535 59.0811 126.9 59.0811C127.266 59.0811 127.59 59.1527 127.873 59.2959C128.155 59.4355 128.394 59.6361 128.587 59.8975C128.78 60.1589 128.925 60.4722 129.022 60.8374C129.122 61.1991 129.172 61.6019 129.172 62.0459ZM128.173 62.1587V62.0459C128.173 61.7559 128.143 61.4837 128.082 61.2295C128.021 60.9717 127.926 60.7461 127.797 60.5527C127.672 60.3558 127.511 60.2018 127.314 60.0908C127.117 59.9762 126.882 59.9189 126.61 59.9189C126.36 59.9189 126.141 59.9619 125.955 60.0479C125.772 60.1338 125.617 60.2502 125.488 60.397C125.359 60.5402 125.253 60.7049 125.171 60.8911C125.092 61.0737 125.033 61.2635 124.994 61.4604V62.8516C125.065 63.1022 125.166 63.3385 125.294 63.5605C125.423 63.779 125.595 63.9562 125.81 64.0923C126.025 64.2248 126.295 64.291 126.621 64.291C126.89 64.291 127.121 64.2355 127.314 64.1245C127.511 64.0099 127.672 63.8542 127.797 63.6572C127.926 63.4603 128.021 63.2347 128.082 62.9805C128.143 62.7227 128.173 62.4487 128.173 62.1587ZM131.514 63.4263L134.194 59.1885H135.193V65H134.194V60.7622L131.514 65H130.526V59.1885H131.514V63.4263ZM140.129 63.6787L142.106 59.1885H143.062L140.473 65H139.786L137.208 59.1885H138.164L140.129 63.6787ZM137.874 59.1885V65H136.88V59.1885H137.874ZM142.353 65V59.1885H143.352V65H142.353ZM147.364 65.1074C146.96 65.1074 146.593 65.0394 146.263 64.9033C145.937 64.7637 145.656 64.5685 145.42 64.3179C145.187 64.0672 145.008 63.77 144.883 63.4263C144.757 63.0825 144.695 62.7065 144.695 62.2983V62.0728C144.695 61.6001 144.765 61.1794 144.904 60.8105C145.044 60.4382 145.234 60.123 145.474 59.8652C145.714 59.6074 145.986 59.4123 146.29 59.2798C146.594 59.1473 146.91 59.0811 147.235 59.0811C147.651 59.0811 148.009 59.1527 148.31 59.2959C148.614 59.4391 148.863 59.6396 149.056 59.8975C149.25 60.1517 149.393 60.4525 149.486 60.7998C149.579 61.1436 149.625 61.5195 149.625 61.9277V62.3735H145.286V61.5625H148.632V61.4873C148.618 61.2295 148.564 60.9788 148.471 60.7354C148.381 60.4919 148.238 60.2913 148.041 60.1338C147.844 59.9762 147.576 59.8975 147.235 59.8975C147.01 59.8975 146.802 59.9458 146.612 60.0425C146.423 60.1356 146.26 60.2752 146.124 60.4614C145.987 60.6476 145.882 60.875 145.807 61.1436C145.731 61.4121 145.694 61.7218 145.694 62.0728V62.2983C145.694 62.5741 145.731 62.8337 145.807 63.0771C145.885 63.3171 145.998 63.5283 146.145 63.7109C146.295 63.8936 146.476 64.0368 146.688 64.1406C146.902 64.2445 147.146 64.2964 147.418 64.2964C147.769 64.2964 148.066 64.2248 148.31 64.0815C148.553 63.9383 148.766 63.7467 148.949 63.5068L149.55 63.9849C149.425 64.1746 149.266 64.3555 149.072 64.5273C148.879 64.6992 148.641 64.8389 148.358 64.9463C148.079 65.0537 147.747 65.1074 147.364 65.1074ZM154.728 61.7075V62.5132H151.656V61.7075H154.728ZM151.865 59.1885V65H150.872V59.1885H151.865ZM155.534 59.1885V65H154.535V59.1885H155.534ZM159.503 59.1885V65H158.504V59.1885H159.503ZM161.453 59.1885V59.9941H156.592V59.1885H161.453ZM165.771 64.0063V61.0146C165.771 60.7855 165.724 60.5868 165.631 60.4185C165.542 60.2466 165.406 60.1141 165.223 60.021C165.041 59.9279 164.815 59.8813 164.546 59.8813C164.296 59.8813 164.076 59.9243 163.886 60.0103C163.7 60.0962 163.553 60.209 163.445 60.3486C163.341 60.4883 163.29 60.6387 163.29 60.7998H162.296C162.296 60.5921 162.35 60.3862 162.457 60.1821C162.564 59.978 162.718 59.7936 162.919 59.6289C163.123 59.4606 163.367 59.3281 163.649 59.2314C163.936 59.1312 164.255 59.0811 164.605 59.0811C165.028 59.0811 165.4 59.1527 165.723 59.2959C166.049 59.4391 166.303 59.6558 166.485 59.9458C166.672 60.2323 166.765 60.5921 166.765 61.0254V63.7324C166.765 63.9258 166.781 64.1317 166.813 64.3501C166.849 64.5685 166.901 64.7565 166.969 64.9141V65H165.932C165.882 64.8854 165.843 64.7332 165.814 64.5435C165.785 64.3501 165.771 64.1711 165.771 64.0063ZM165.943 61.4766L165.954 62.1748H164.949C164.666 62.1748 164.414 62.1981 164.192 62.2446C163.97 62.2876 163.784 62.3538 163.633 62.4434C163.483 62.5329 163.368 62.6457 163.29 62.7817C163.211 62.9142 163.171 63.07 163.171 63.249C163.171 63.4316 163.213 63.5981 163.295 63.7485C163.377 63.8989 163.501 64.0189 163.666 64.1084C163.834 64.1943 164.04 64.2373 164.283 64.2373C164.588 64.2373 164.856 64.1729 165.089 64.0439C165.322 63.915 165.506 63.7575 165.642 63.5713C165.782 63.3851 165.857 63.2043 165.868 63.0288L166.292 63.5068C166.267 63.6572 166.199 63.8237 166.088 64.0063C165.977 64.189 165.828 64.3644 165.642 64.5327C165.459 64.6974 165.241 64.8353 164.987 64.9463C164.736 65.0537 164.453 65.1074 164.138 65.1074C163.744 65.1074 163.399 65.0304 163.102 64.8765C162.808 64.7225 162.579 64.5166 162.414 64.2588C162.253 63.9974 162.172 63.7056 162.172 63.3833C162.172 63.0718 162.233 62.7979 162.355 62.5615C162.477 62.3216 162.652 62.1229 162.881 61.9653C163.111 61.8042 163.386 61.6825 163.708 61.6001C164.031 61.5177 164.391 61.4766 164.788 61.4766H165.943ZM172.211 59.1885V60.0103H169.402V59.1885H172.211ZM173.086 59.1885V65H172.093V59.1885H173.086ZM169.16 59.1885H170.159L170.009 61.9922C169.984 62.4255 169.943 62.8086 169.885 63.1416C169.832 63.471 169.756 63.7539 169.66 63.9902C169.567 64.2266 169.448 64.4199 169.305 64.5703C169.166 64.7171 168.997 64.8263 168.8 64.8979C168.603 64.966 168.376 65 168.118 65H167.807V64.1245L168.021 64.1084C168.175 64.0977 168.306 64.0618 168.414 64.001C168.525 63.9401 168.618 63.8506 168.693 63.7324C168.768 63.6107 168.829 63.4549 168.875 63.2651C168.926 63.0754 168.963 62.8498 168.988 62.5884C169.017 62.327 169.038 62.0226 169.053 61.6753L169.16 59.1885ZM175.503 61.1865H177.249C177.718 61.1865 178.114 61.2689 178.436 61.4336C178.758 61.5947 179.002 61.8185 179.167 62.105C179.335 62.3879 179.419 62.7101 179.419 63.0718C179.419 63.3403 179.372 63.5928 179.279 63.8291C179.186 64.0618 179.047 64.266 178.86 64.4414C178.678 64.6169 178.45 64.7547 178.178 64.855C177.91 64.9517 177.6 65 177.249 65H174.778V59.1885H175.772V64.1836H177.249C177.535 64.1836 177.765 64.1317 177.937 64.0278C178.108 63.924 178.232 63.7897 178.307 63.625C178.382 63.4603 178.42 63.2884 178.42 63.1094C178.42 62.9339 178.382 62.762 178.307 62.5938C178.232 62.4255 178.108 62.2858 177.937 62.1748C177.765 62.0602 177.535 62.0029 177.249 62.0029H175.503V61.1865ZM184.602 61.7075V62.5132H181.53V61.7075H184.602ZM181.739 59.1885V65H180.746V59.1885H181.739ZM185.408 59.1885V65H184.409V59.1885H185.408ZM190.435 64.0063V61.0146C190.435 60.7855 190.389 60.5868 190.295 60.4185C190.206 60.2466 190.07 60.1141 189.887 60.021C189.705 59.9279 189.479 59.8813 189.21 59.8813C188.96 59.8813 188.74 59.9243 188.55 60.0103C188.364 60.0962 188.217 60.209 188.109 60.3486C188.006 60.4883 187.954 60.6387 187.954 60.7998H186.96C186.96 60.5921 187.014 60.3862 187.121 60.1821C187.229 59.978 187.382 59.7936 187.583 59.6289C187.787 59.4606 188.031 59.3281 188.313 59.2314C188.6 59.1312 188.919 59.0811 189.27 59.0811C189.692 59.0811 190.064 59.1527 190.387 59.2959C190.713 59.4391 190.967 59.6558 191.149 59.9458C191.336 60.2323 191.429 60.5921 191.429 61.0254V63.7324C191.429 63.9258 191.445 64.1317 191.477 64.3501C191.513 64.5685 191.565 64.7565 191.633 64.9141V65H190.596C190.546 64.8854 190.507 64.7332 190.478 64.5435C190.449 64.3501 190.435 64.1711 190.435 64.0063ZM190.607 61.4766L190.618 62.1748H189.613C189.33 62.1748 189.078 62.1981 188.856 62.2446C188.634 62.2876 188.448 62.3538 188.297 62.4434C188.147 62.5329 188.032 62.6457 187.954 62.7817C187.875 62.9142 187.835 63.07 187.835 63.249C187.835 63.4316 187.877 63.5981 187.959 63.7485C188.041 63.8989 188.165 64.0189 188.33 64.1084C188.498 64.1943 188.704 64.2373 188.947 64.2373C189.252 64.2373 189.52 64.1729 189.753 64.0439C189.986 63.915 190.17 63.7575 190.306 63.5713C190.446 63.3851 190.521 63.2043 190.532 63.0288L190.956 63.5068C190.931 63.6572 190.863 63.8237 190.752 64.0063C190.641 64.189 190.492 64.3644 190.306 64.5327C190.124 64.6974 189.905 64.8353 189.651 64.9463C189.4 65.0537 189.117 65.1074 188.802 65.1074C188.408 65.1074 188.063 65.0304 187.766 64.8765C187.472 64.7225 187.243 64.5166 187.078 64.2588C186.917 63.9974 186.836 63.7056 186.836 63.3833C186.836 63.0718 186.897 62.7979 187.019 62.5615C187.141 62.3216 187.316 62.1229 187.545 61.9653C187.775 61.8042 188.05 61.6825 188.373 61.6001C188.695 61.5177 189.055 61.4766 189.452 61.4766H190.607ZM194.168 62.2285H195.242L193.561 65H192.487L194.168 62.2285ZM195 59.1885H197.428V65H196.435V59.9941H195C194.718 59.9941 194.487 60.0425 194.308 60.1392C194.129 60.2323 193.998 60.354 193.916 60.5044C193.833 60.6548 193.792 60.8105 193.792 60.9717C193.792 61.1292 193.83 61.2814 193.905 61.4282C193.98 61.5715 194.098 61.6896 194.259 61.7827C194.42 61.8758 194.628 61.9224 194.882 61.9224H196.703V62.7388H194.882C194.549 62.7388 194.254 62.694 193.996 62.6045C193.738 62.515 193.52 62.3914 193.341 62.2339C193.162 62.0728 193.026 61.8848 192.933 61.6699C192.84 61.4515 192.793 61.2152 192.793 60.9609C192.793 60.7067 192.841 60.4722 192.938 60.2573C193.038 60.0425 193.181 59.8545 193.368 59.6934C193.557 59.5322 193.788 59.4087 194.061 59.3228C194.336 59.2332 194.65 59.1885 195 59.1885ZM170.89 72.1885V73.0103H168.204V78H167.21V72.1885H170.89ZM172.748 73.3057V80.2344H171.749V72.1885H172.662L172.748 73.3057ZM176.664 75.0459V75.1587C176.664 75.5812 176.613 75.9733 176.513 76.335C176.413 76.693 176.266 77.0046 176.073 77.2695C175.883 77.5345 175.648 77.7404 175.369 77.8872C175.09 78.034 174.769 78.1074 174.408 78.1074C174.039 78.1074 173.713 78.0465 173.43 77.9248C173.147 77.8031 172.907 77.6258 172.71 77.3931C172.514 77.1603 172.356 76.881 172.238 76.5552C172.123 76.2293 172.044 75.8623 172.001 75.4541V74.8525C172.044 74.4229 172.125 74.0379 172.243 73.6978C172.361 73.3576 172.517 73.0675 172.71 72.8276C172.907 72.5841 173.146 72.3997 173.425 72.2744C173.704 72.1455 174.026 72.0811 174.392 72.0811C174.757 72.0811 175.081 72.1527 175.364 72.2959C175.647 72.4355 175.885 72.6361 176.078 72.8975C176.271 73.1589 176.417 73.4722 176.513 73.8374C176.613 74.1991 176.664 74.6019 176.664 75.0459ZM175.665 75.1587V75.0459C175.665 74.7559 175.634 74.4837 175.573 74.2295C175.512 73.9717 175.417 73.7461 175.289 73.5527C175.163 73.3558 175.002 73.2018 174.805 73.0908C174.608 72.9762 174.374 72.9189 174.102 72.9189C173.851 72.9189 173.632 72.9619 173.446 73.0479C173.264 73.1338 173.108 73.2502 172.979 73.397C172.85 73.5402 172.744 73.7049 172.662 73.8911C172.583 74.0737 172.524 74.2635 172.485 74.4604V75.8516C172.556 76.1022 172.657 76.3385 172.786 76.5605C172.915 76.779 173.086 76.9562 173.301 77.0923C173.516 77.2248 173.786 77.291 174.112 77.291C174.381 77.291 174.612 77.2355 174.805 77.1245C175.002 77.0099 175.163 76.8542 175.289 76.6572C175.417 76.4603 175.512 76.2347 175.573 75.9805C175.634 75.7227 175.665 75.4487 175.665 75.1587ZM179.5 77.3984L181.116 72.1885H182.18L179.849 78.897C179.795 79.0402 179.723 79.1942 179.634 79.3589C179.548 79.5272 179.437 79.6865 179.301 79.8369C179.165 79.9873 179 80.109 178.807 80.2021C178.617 80.2988 178.389 80.3472 178.125 80.3472C178.046 80.3472 177.945 80.3364 177.824 80.3149C177.702 80.2935 177.616 80.2756 177.566 80.2612L177.561 79.4556C177.589 79.4591 177.634 79.4627 177.695 79.4663C177.759 79.4735 177.804 79.4771 177.829 79.4771C178.055 79.4771 178.246 79.4466 178.404 79.3857C178.561 79.3285 178.694 79.23 178.801 79.0903C178.912 78.9543 179.007 78.7663 179.086 78.5264L179.5 77.3984ZM178.312 72.1885L179.822 76.7002L180.08 77.7476L179.365 78.1128L177.228 72.1885H178.312ZM186.949 72.1885V73.0103H184.011V72.1885H186.949ZM184.156 72.1885V78H183.163V72.1885H184.156ZM187.83 72.1885V78H186.831V72.1885H187.83ZM193.298 72.1885V73.0103H190.36V72.1885H193.298ZM190.505 72.1885V78H189.511V72.1885H190.505ZM194.179 72.1885V78H193.18V72.1885H194.179ZM199.201 77.0063V74.0146C199.201 73.7855 199.154 73.5868 199.061 73.4185C198.972 73.2466 198.835 73.1141 198.653 73.021C198.47 72.9279 198.245 72.8813 197.976 72.8813C197.725 72.8813 197.505 72.9243 197.315 73.0103C197.129 73.0962 196.982 73.209 196.875 73.3486C196.771 73.4883 196.719 73.6387 196.719 73.7998H195.726C195.726 73.5921 195.779 73.3862 195.887 73.1821C195.994 72.978 196.148 72.7936 196.349 72.6289C196.553 72.4606 196.796 72.3281 197.079 72.2314C197.366 72.1312 197.684 72.0811 198.035 72.0811C198.458 72.0811 198.83 72.1527 199.152 72.2959C199.478 72.4391 199.732 72.6558 199.915 72.9458C200.101 73.2323 200.194 73.5921 200.194 74.0254V76.7324C200.194 76.9258 200.21 77.1317 200.243 77.3501C200.278 77.5685 200.33 77.7565 200.398 77.9141V78H199.362C199.312 77.8854 199.272 77.7332 199.244 77.5435C199.215 77.3501 199.201 77.1711 199.201 77.0063ZM199.373 74.4766L199.383 75.1748H198.379C198.096 75.1748 197.844 75.1981 197.622 75.2446C197.4 75.2876 197.213 75.3538 197.063 75.4434C196.913 75.5329 196.798 75.6457 196.719 75.7817C196.64 75.9142 196.601 76.07 196.601 76.249C196.601 76.4316 196.642 76.5981 196.725 76.7485C196.807 76.8989 196.931 77.0189 197.095 77.1084C197.264 77.1943 197.469 77.2373 197.713 77.2373C198.017 77.2373 198.286 77.1729 198.519 77.0439C198.751 76.915 198.936 76.7575 199.072 76.5713C199.211 76.3851 199.287 76.2043 199.297 76.0288L199.722 76.5068C199.697 76.6572 199.629 76.8237 199.518 77.0063C199.407 77.189 199.258 77.3644 199.072 77.5327C198.889 77.6974 198.671 77.8353 198.417 77.9463C198.166 78.0537 197.883 78.1074 197.568 78.1074C197.174 78.1074 196.828 78.0304 196.531 77.8765C196.238 77.7225 196.008 77.5166 195.844 77.2588C195.683 76.9974 195.602 76.7056 195.602 76.3833C195.602 76.0718 195.663 75.7979 195.785 75.5615C195.906 75.3216 196.082 75.1229 196.311 74.9653C196.54 74.8042 196.816 74.6825 197.138 74.6001C197.46 74.5177 197.82 74.4766 198.218 74.4766H199.373Z" fill="#454545"></path> <path d="M254.993 57.1797V65H253.956V57.1797H254.993ZM259.811 57.1797L256.416 61.4819H254.579L254.418 60.6226H255.798L258.527 57.1797H259.811ZM258.769 65L255.831 61.3477L256.411 60.4399L260.036 65H258.769ZM260.412 62.1587V62.0352C260.412 61.6162 260.473 61.2277 260.595 60.8696C260.716 60.508 260.892 60.1947 261.121 59.9297C261.35 59.6611 261.628 59.4535 261.954 59.3066C262.279 59.1562 262.645 59.0811 263.049 59.0811C263.458 59.0811 263.825 59.1562 264.15 59.3066C264.48 59.4535 264.759 59.6611 264.988 59.9297C265.221 60.1947 265.398 60.508 265.52 60.8696C265.642 61.2277 265.703 61.6162 265.703 62.0352V62.1587C265.703 62.5776 265.642 62.9661 265.52 63.3242C265.398 63.6823 265.221 63.9956 264.988 64.2642C264.759 64.5291 264.482 64.7368 264.156 64.8872C263.833 65.034 263.468 65.1074 263.06 65.1074C262.652 65.1074 262.285 65.034 261.959 64.8872C261.633 64.7368 261.354 64.5291 261.121 64.2642C260.892 63.9956 260.716 63.6823 260.595 63.3242C260.473 62.9661 260.412 62.5776 260.412 62.1587ZM261.406 62.0352V62.1587C261.406 62.4487 261.44 62.7227 261.508 62.9805C261.576 63.2347 261.678 63.4603 261.814 63.6572C261.954 63.8542 262.127 64.0099 262.335 64.1245C262.543 64.2355 262.784 64.291 263.06 64.291C263.332 64.291 263.57 64.2355 263.774 64.1245C263.982 64.0099 264.154 63.8542 264.29 63.6572C264.426 63.4603 264.528 63.2347 264.596 62.9805C264.668 62.7227 264.704 62.4487 264.704 62.1587V62.0352C264.704 61.7487 264.668 61.4784 264.596 61.2241C264.528 60.9663 264.424 60.7389 264.285 60.542C264.149 60.3415 263.977 60.1839 263.769 60.0693C263.565 59.9548 263.325 59.8975 263.049 59.8975C262.777 59.8975 262.537 59.9548 262.33 60.0693C262.125 60.1839 261.954 60.3415 261.814 60.542C261.678 60.7389 261.576 60.9663 261.508 61.2241C261.44 61.4784 261.406 61.7487 261.406 62.0352ZM270.891 61.7075V62.5132H267.819V61.7075H270.891ZM268.028 59.1885V65H267.035V59.1885H268.028ZM271.697 59.1885V65H270.698V59.1885H271.697ZM275.666 59.1885V65H274.667V59.1885H275.666ZM277.616 59.1885V59.9941H272.755V59.1885H277.616ZM279.587 60.3057V67.2344H278.588V59.1885H279.501L279.587 60.3057ZM283.502 62.0459V62.1587C283.502 62.5812 283.452 62.9733 283.352 63.335C283.252 63.693 283.105 64.0046 282.912 64.2695C282.722 64.5345 282.487 64.7404 282.208 64.8872C281.929 65.034 281.608 65.1074 281.247 65.1074C280.878 65.1074 280.552 65.0465 280.269 64.9248C279.986 64.8031 279.746 64.6258 279.549 64.3931C279.352 64.1603 279.195 63.881 279.077 63.5552C278.962 63.2293 278.883 62.8623 278.84 62.4541V61.8525C278.883 61.4229 278.964 61.0379 279.082 60.6978C279.2 60.3576 279.356 60.0675 279.549 59.8276C279.746 59.5841 279.984 59.3997 280.264 59.2744C280.543 59.1455 280.865 59.0811 281.23 59.0811C281.596 59.0811 281.92 59.1527 282.203 59.2959C282.486 59.4355 282.724 59.6361 282.917 59.8975C283.11 60.1589 283.255 60.4722 283.352 60.8374C283.452 61.1991 283.502 61.6019 283.502 62.0459ZM282.503 62.1587V62.0459C282.503 61.7559 282.473 61.4837 282.412 61.2295C282.351 60.9717 282.256 60.7461 282.127 60.5527C282.002 60.3558 281.841 60.2018 281.644 60.0908C281.447 59.9762 281.213 59.9189 280.94 59.9189C280.69 59.9189 280.471 59.9619 280.285 60.0479C280.103 60.1338 279.947 60.2502 279.818 60.397C279.689 60.5402 279.583 60.7049 279.501 60.8911C279.422 61.0737 279.363 61.2635 279.324 61.4604V62.8516C279.395 63.1022 279.496 63.3385 279.625 63.5605C279.753 63.779 279.925 63.9562 280.14 64.0923C280.355 64.2248 280.625 64.291 280.951 64.291C281.22 64.291 281.451 64.2355 281.644 64.1245C281.841 64.0099 282.002 63.8542 282.127 63.6572C282.256 63.4603 282.351 63.2347 282.412 62.9805C282.473 62.7227 282.503 62.4487 282.503 62.1587ZM284.507 62.1587V62.0352C284.507 61.6162 284.568 61.2277 284.689 60.8696C284.811 60.508 284.987 60.1947 285.216 59.9297C285.445 59.6611 285.722 59.4535 286.048 59.3066C286.374 59.1562 286.739 59.0811 287.144 59.0811C287.552 59.0811 287.919 59.1562 288.245 59.3066C288.575 59.4535 288.854 59.6611 289.083 59.9297C289.316 60.1947 289.493 60.508 289.615 60.8696C289.736 61.2277 289.797 61.6162 289.797 62.0352V62.1587C289.797 62.5776 289.736 62.9661 289.615 63.3242C289.493 63.6823 289.316 63.9956 289.083 64.2642C288.854 64.5291 288.576 64.7368 288.25 64.8872C287.928 65.034 287.563 65.1074 287.155 65.1074C286.747 65.1074 286.38 65.034 286.054 64.8872C285.728 64.7368 285.449 64.5291 285.216 64.2642C284.987 63.9956 284.811 63.6823 284.689 63.3242C284.568 62.9661 284.507 62.5776 284.507 62.1587ZM285.5 62.0352V62.1587C285.5 62.4487 285.535 62.7227 285.603 62.9805C285.671 63.2347 285.773 63.4603 285.909 63.6572C286.048 63.8542 286.222 64.0099 286.43 64.1245C286.637 64.2355 286.879 64.291 287.155 64.291C287.427 64.291 287.665 64.2355 287.869 64.1245C288.077 64.0099 288.249 63.8542 288.385 63.6572C288.521 63.4603 288.623 63.2347 288.691 62.9805C288.763 62.7227 288.798 62.4487 288.798 62.1587V62.0352C288.798 61.7487 288.763 61.4784 288.691 61.2241C288.623 60.9663 288.519 60.7389 288.379 60.542C288.243 60.3415 288.071 60.1839 287.864 60.0693C287.66 59.9548 287.42 59.8975 287.144 59.8975C286.872 59.8975 286.632 59.9548 286.424 60.0693C286.22 60.1839 286.048 60.3415 285.909 60.542C285.773 60.7389 285.671 60.9663 285.603 61.2241C285.535 61.4784 285.5 61.7487 285.5 62.0352ZM294.841 59.1885V60.0103H292.032V59.1885H294.841ZM295.716 59.1885V65H294.723V59.1885H295.716ZM291.79 59.1885H292.789L292.639 61.9922C292.614 62.4255 292.572 62.8086 292.515 63.1416C292.461 63.471 292.386 63.7539 292.29 63.9902C292.196 64.2266 292.078 64.4199 291.935 64.5703C291.795 64.7171 291.627 64.8263 291.43 64.8979C291.233 64.966 291.006 65 290.748 65H290.437V64.1245L290.651 64.1084C290.805 64.0977 290.936 64.0618 291.043 64.001C291.154 63.9401 291.248 63.8506 291.323 63.7324C291.398 63.6107 291.459 63.4549 291.505 63.2651C291.556 63.0754 291.593 62.8498 291.618 62.5884C291.647 62.327 291.668 62.0226 291.683 61.6753L291.79 59.1885ZM298.133 61.1865H299.879C300.348 61.1865 300.744 61.2689 301.066 61.4336C301.388 61.5947 301.632 61.8185 301.796 62.105C301.965 62.3879 302.049 62.7101 302.049 63.0718C302.049 63.3403 302.002 63.5928 301.909 63.8291C301.816 64.0618 301.676 64.266 301.49 64.4414C301.308 64.6169 301.08 64.7547 300.808 64.855C300.54 64.9517 300.23 65 299.879 65H297.408V59.1885H298.402V64.1836H299.879C300.165 64.1836 300.395 64.1317 300.566 64.0278C300.738 63.924 300.862 63.7897 300.937 63.625C301.012 63.4603 301.05 63.2884 301.05 63.1094C301.05 62.9339 301.012 62.762 300.937 62.5938C300.862 62.4255 300.738 62.2858 300.566 62.1748C300.395 62.0602 300.165 62.0029 299.879 62.0029H298.133V61.1865ZM307.232 61.7075V62.5132H304.16V61.7075H307.232ZM304.369 59.1885V65H303.375V59.1885H304.369ZM308.038 59.1885V65H307.039V59.1885H308.038ZM313.065 64.0063V61.0146C313.065 60.7855 313.018 60.5868 312.925 60.4185C312.836 60.2466 312.7 60.1141 312.517 60.021C312.334 59.9279 312.109 59.8813 311.84 59.8813C311.59 59.8813 311.369 59.9243 311.18 60.0103C310.993 60.0962 310.847 60.209 310.739 60.3486C310.635 60.4883 310.583 60.6387 310.583 60.7998H309.59C309.59 60.5921 309.644 60.3862 309.751 60.1821C309.858 59.978 310.012 59.7936 310.213 59.6289C310.417 59.4606 310.66 59.3281 310.943 59.2314C311.23 59.1312 311.549 59.0811 311.899 59.0811C312.322 59.0811 312.694 59.1527 313.017 59.2959C313.342 59.4391 313.597 59.6558 313.779 59.9458C313.965 60.2323 314.059 60.5921 314.059 61.0254V63.7324C314.059 63.9258 314.075 64.1317 314.107 64.3501C314.143 64.5685 314.195 64.7565 314.263 64.9141V65H313.226C313.176 64.8854 313.137 64.7332 313.108 64.5435C313.079 64.3501 313.065 64.1711 313.065 64.0063ZM313.237 61.4766L313.248 62.1748H312.243C311.96 62.1748 311.708 62.1981 311.486 62.2446C311.264 62.2876 311.078 62.3538 310.927 62.4434C310.777 62.5329 310.662 62.6457 310.583 62.7817C310.505 62.9142 310.465 63.07 310.465 63.249C310.465 63.4316 310.507 63.5981 310.589 63.7485C310.671 63.8989 310.795 64.0189 310.959 64.1084C311.128 64.1943 311.334 64.2373 311.577 64.2373C311.882 64.2373 312.15 64.1729 312.383 64.0439C312.616 63.915 312.8 63.7575 312.936 63.5713C313.076 63.3851 313.151 63.2043 313.162 63.0288L313.586 63.5068C313.561 63.6572 313.493 63.8237 313.382 64.0063C313.271 64.189 313.122 64.3644 312.936 64.5327C312.753 64.6974 312.535 64.8353 312.281 64.9463C312.03 65.0537 311.747 65.1074 311.432 65.1074C311.038 65.1074 310.693 65.0304 310.396 64.8765C310.102 64.7225 309.873 64.5166 309.708 64.2588C309.547 63.9974 309.466 63.7056 309.466 63.3833C309.466 63.0718 309.527 62.7979 309.649 62.5615C309.771 62.3216 309.946 62.1229 310.175 61.9653C310.404 61.8042 310.68 61.6825 311.002 61.6001C311.325 61.5177 311.685 61.4766 312.082 61.4766H313.237ZM316.798 62.2285H317.872L316.191 65H315.117L316.798 62.2285ZM317.63 59.1885H320.058V65H319.064V59.9941H317.63C317.347 59.9941 317.117 60.0425 316.938 60.1392C316.758 60.2323 316.628 60.354 316.545 60.5044C316.463 60.6548 316.422 60.8105 316.422 60.9717C316.422 61.1292 316.459 61.2814 316.535 61.4282C316.61 61.5715 316.728 61.6896 316.889 61.7827C317.05 61.8758 317.258 61.9224 317.512 61.9224H319.333V62.7388H317.512C317.179 62.7388 316.884 62.694 316.626 62.6045C316.368 62.515 316.15 62.3914 315.971 62.2339C315.792 62.0728 315.656 61.8848 315.562 61.6699C315.469 61.4515 315.423 61.2152 315.423 60.9609C315.423 60.7067 315.471 60.4722 315.568 60.2573C315.668 60.0425 315.811 59.8545 315.998 59.6934C316.187 59.5322 316.418 59.4087 316.69 59.3228C316.966 59.2332 317.279 59.1885 317.63 59.1885ZM257.512 72.1885V73.0103H254.826V78H253.833V72.1885H257.512ZM259.37 73.3057V80.2344H258.371V72.1885H259.284L259.37 73.3057ZM263.286 75.0459V75.1587C263.286 75.5812 263.236 75.9733 263.135 76.335C263.035 76.693 262.888 77.0046 262.695 77.2695C262.505 77.5345 262.271 77.7404 261.991 77.8872C261.712 78.034 261.391 78.1074 261.03 78.1074C260.661 78.1074 260.335 78.0465 260.052 77.9248C259.769 77.8031 259.529 77.6258 259.333 77.3931C259.136 77.1603 258.978 76.881 258.86 76.5552C258.745 76.2293 258.667 75.8623 258.624 75.4541V74.8525C258.667 74.4229 258.747 74.0379 258.865 73.6978C258.983 73.3576 259.139 73.0675 259.333 72.8276C259.529 72.5841 259.768 72.3997 260.047 72.2744C260.326 72.1455 260.648 72.0811 261.014 72.0811C261.379 72.0811 261.703 72.1527 261.986 72.2959C262.269 72.4355 262.507 72.6361 262.7 72.8975C262.894 73.1589 263.039 73.4722 263.135 73.8374C263.236 74.1991 263.286 74.6019 263.286 75.0459ZM262.287 75.1587V75.0459C262.287 74.7559 262.256 74.4837 262.195 74.2295C262.134 73.9717 262.04 73.7461 261.911 73.5527C261.785 73.3558 261.624 73.2018 261.427 73.0908C261.23 72.9762 260.996 72.9189 260.724 72.9189C260.473 72.9189 260.255 72.9619 260.068 73.0479C259.886 73.1338 259.73 73.2502 259.601 73.397C259.472 73.5402 259.367 73.7049 259.284 73.8911C259.205 74.0737 259.146 74.2635 259.107 74.4604V75.8516C259.179 76.1022 259.279 76.3385 259.408 76.5605C259.537 76.779 259.708 76.9562 259.923 77.0923C260.138 77.2248 260.409 77.291 260.734 77.291C261.003 77.291 261.234 77.2355 261.427 77.1245C261.624 77.0099 261.785 76.8542 261.911 76.6572C262.04 76.4603 262.134 76.2347 262.195 75.9805C262.256 75.7227 262.287 75.4487 262.287 75.1587ZM266.122 77.3984L267.738 72.1885H268.802L266.471 78.897C266.417 79.0402 266.345 79.1942 266.256 79.3589C266.17 79.5272 266.059 79.6865 265.923 79.8369C265.787 79.9873 265.622 80.109 265.429 80.2021C265.239 80.2988 265.012 80.3472 264.747 80.3472C264.668 80.3472 264.568 80.3364 264.446 80.3149C264.324 80.2935 264.238 80.2756 264.188 80.2612L264.183 79.4556C264.211 79.4591 264.256 79.4627 264.317 79.4663C264.381 79.4735 264.426 79.4771 264.451 79.4771C264.677 79.4771 264.868 79.4466 265.026 79.3857C265.183 79.3285 265.316 79.23 265.423 79.0903C265.534 78.9543 265.629 78.7663 265.708 78.5264L266.122 77.3984ZM264.935 72.1885L266.444 76.7002L266.702 77.7476L265.987 78.1128L263.85 72.1885H264.935ZM273.571 72.1885V73.0103H270.633V72.1885H273.571ZM270.778 72.1885V78H269.785V72.1885H270.778ZM274.452 72.1885V78H273.453V72.1885H274.452ZM279.92 72.1885V73.0103H276.982V72.1885H279.92ZM277.127 72.1885V78H276.133V72.1885H277.127ZM280.801 72.1885V78H279.802V72.1885H280.801ZM285.823 77.0063V74.0146C285.823 73.7855 285.776 73.5868 285.683 73.4185C285.594 73.2466 285.458 73.1141 285.275 73.021C285.092 72.9279 284.867 72.8813 284.598 72.8813C284.347 72.8813 284.127 72.9243 283.938 73.0103C283.751 73.0962 283.604 73.209 283.497 73.3486C283.393 73.4883 283.341 73.6387 283.341 73.7998H282.348C282.348 73.5921 282.401 73.3862 282.509 73.1821C282.616 72.978 282.77 72.7936 282.971 72.6289C283.175 72.4606 283.418 72.3281 283.701 72.2314C283.988 72.1312 284.306 72.0811 284.657 72.0811C285.08 72.0811 285.452 72.1527 285.774 72.2959C286.1 72.4391 286.354 72.6558 286.537 72.9458C286.723 73.2323 286.816 73.5921 286.816 74.0254V76.7324C286.816 76.9258 286.833 77.1317 286.865 77.3501C286.901 77.5685 286.952 77.7565 287.021 77.9141V78H285.984C285.934 77.8854 285.894 77.7332 285.866 77.5435C285.837 77.3501 285.823 77.1711 285.823 77.0063ZM285.995 74.4766L286.005 75.1748H285.001C284.718 75.1748 284.466 75.1981 284.244 75.2446C284.022 75.2876 283.835 75.3538 283.685 75.4434C283.535 75.5329 283.42 75.6457 283.341 75.7817C283.263 75.9142 283.223 76.07 283.223 76.249C283.223 76.4316 283.264 76.5981 283.347 76.7485C283.429 76.8989 283.553 77.0189 283.717 77.1084C283.886 77.1943 284.091 77.2373 284.335 77.2373C284.639 77.2373 284.908 77.1729 285.141 77.0439C285.373 76.915 285.558 76.7575 285.694 76.5713C285.833 76.3851 285.909 76.2043 285.919 76.0288L286.344 76.5068C286.319 76.6572 286.251 76.8237 286.14 77.0063C286.029 77.189 285.88 77.3644 285.694 77.5327C285.511 77.6974 285.293 77.8353 285.039 77.9463C284.788 78.0537 284.505 78.1074 284.19 78.1074C283.796 78.1074 283.451 78.0304 283.153 77.8765C282.86 77.7225 282.631 77.5166 282.466 77.2588C282.305 76.9974 282.224 76.7056 282.224 76.3833C282.224 76.0718 282.285 75.7979 282.407 75.5615C282.528 75.3216 282.704 75.1229 282.933 74.9653C283.162 74.8042 283.438 74.6825 283.76 74.6001C284.083 74.5177 284.442 74.4766 284.84 74.4766H285.995Z" fill="#454545"></path> <path d="M218.806 200.184V201H213.687V200.286L216.249 197.434C216.564 197.083 216.808 196.785 216.979 196.542C217.155 196.295 217.277 196.075 217.345 195.881C217.416 195.684 217.452 195.484 217.452 195.28C217.452 195.022 217.398 194.789 217.291 194.582C217.187 194.37 217.033 194.202 216.829 194.077C216.625 193.951 216.378 193.889 216.088 193.889C215.741 193.889 215.451 193.957 215.218 194.093C214.989 194.225 214.817 194.411 214.702 194.651C214.588 194.891 214.53 195.167 214.53 195.479H213.537C213.537 195.038 213.633 194.635 213.827 194.27C214.02 193.905 214.306 193.615 214.686 193.4C215.066 193.181 215.533 193.072 216.088 193.072C216.582 193.072 217.005 193.16 217.355 193.335C217.706 193.507 217.975 193.751 218.161 194.066C218.351 194.377 218.446 194.743 218.446 195.162C218.446 195.391 218.406 195.624 218.328 195.86C218.252 196.093 218.147 196.325 218.011 196.558C217.878 196.791 217.722 197.02 217.543 197.246C217.368 197.471 217.18 197.693 216.979 197.912L214.885 200.184H218.806ZM226.459 195.188V196.01H223.774V201H222.78V195.188H226.459ZM226.954 198.159V198.035C226.954 197.616 227.014 197.228 227.136 196.87C227.258 196.508 227.433 196.195 227.663 195.93C227.892 195.661 228.169 195.453 228.495 195.307C228.821 195.156 229.186 195.081 229.591 195.081C229.999 195.081 230.366 195.156 230.692 195.307C231.021 195.453 231.301 195.661 231.53 195.93C231.763 196.195 231.94 196.508 232.062 196.87C232.183 197.228 232.244 197.616 232.244 198.035V198.159C232.244 198.578 232.183 198.966 232.062 199.324C231.94 199.682 231.763 199.996 231.53 200.264C231.301 200.529 231.023 200.737 230.697 200.887C230.375 201.034 230.01 201.107 229.602 201.107C229.193 201.107 228.826 201.034 228.5 200.887C228.175 200.737 227.895 200.529 227.663 200.264C227.433 199.996 227.258 199.682 227.136 199.324C227.014 198.966 226.954 198.578 226.954 198.159ZM227.947 198.035V198.159C227.947 198.449 227.981 198.723 228.049 198.98C228.117 199.235 228.219 199.46 228.355 199.657C228.495 199.854 228.669 200.01 228.876 200.125C229.084 200.236 229.326 200.291 229.602 200.291C229.874 200.291 230.112 200.236 230.316 200.125C230.524 200.01 230.695 199.854 230.832 199.657C230.968 199.46 231.07 199.235 231.138 198.98C231.209 198.723 231.245 198.449 231.245 198.159V198.035C231.245 197.749 231.209 197.478 231.138 197.224C231.07 196.966 230.966 196.739 230.826 196.542C230.69 196.341 230.518 196.184 230.311 196.069C230.106 195.955 229.867 195.897 229.591 195.897C229.319 195.897 229.079 195.955 228.871 196.069C228.667 196.184 228.495 196.341 228.355 196.542C228.219 196.739 228.117 196.966 228.049 197.224C227.981 197.478 227.947 197.749 227.947 198.035ZM234.151 195.188H235.145L235.059 197.364C235.037 197.915 234.974 198.391 234.871 198.792C234.767 199.194 234.634 199.535 234.473 199.818C234.312 200.098 234.131 200.332 233.931 200.522C233.734 200.712 233.53 200.871 233.318 201H232.824L232.851 200.189L233.055 200.184C233.173 200.044 233.288 199.901 233.399 199.754C233.51 199.604 233.612 199.426 233.705 199.222C233.798 199.014 233.875 198.762 233.936 198.465C234 198.164 234.042 197.797 234.06 197.364L234.151 195.188ZM234.398 195.188H237.895V201H236.901V196.107H234.398V195.188ZM232.599 200.184H238.641V202.713H237.647V201H233.592V202.713H232.593L232.599 200.184ZM243.169 200.006V197.015C243.169 196.785 243.122 196.587 243.029 196.418C242.94 196.247 242.804 196.114 242.621 196.021C242.438 195.928 242.213 195.881 241.944 195.881C241.694 195.881 241.473 195.924 241.284 196.01C241.097 196.096 240.951 196.209 240.843 196.349C240.739 196.488 240.688 196.639 240.688 196.8H239.694C239.694 196.592 239.748 196.386 239.855 196.182C239.962 195.978 240.116 195.794 240.317 195.629C240.521 195.461 240.764 195.328 241.047 195.231C241.334 195.131 241.653 195.081 242.003 195.081C242.426 195.081 242.798 195.153 243.121 195.296C243.446 195.439 243.701 195.656 243.883 195.946C244.069 196.232 244.163 196.592 244.163 197.025V199.732C244.163 199.926 244.179 200.132 244.211 200.35C244.247 200.569 244.299 200.757 244.367 200.914V201H243.33C243.28 200.885 243.241 200.733 243.212 200.543C243.183 200.35 243.169 200.171 243.169 200.006ZM243.341 197.477L243.352 198.175H242.347C242.064 198.175 241.812 198.198 241.59 198.245C241.368 198.288 241.182 198.354 241.031 198.443C240.881 198.533 240.766 198.646 240.688 198.782C240.609 198.914 240.569 199.07 240.569 199.249C240.569 199.432 240.611 199.598 240.693 199.749C240.775 199.899 240.899 200.019 241.063 200.108C241.232 200.194 241.438 200.237 241.681 200.237C241.986 200.237 242.254 200.173 242.487 200.044C242.72 199.915 242.904 199.757 243.04 199.571C243.18 199.385 243.255 199.204 243.266 199.029L243.69 199.507C243.665 199.657 243.597 199.824 243.486 200.006C243.375 200.189 243.226 200.364 243.04 200.533C242.857 200.697 242.639 200.835 242.385 200.946C242.134 201.054 241.851 201.107 241.536 201.107C241.142 201.107 240.797 201.03 240.5 200.876C240.206 200.722 239.977 200.517 239.812 200.259C239.651 199.997 239.57 199.706 239.57 199.383C239.57 199.072 239.631 198.798 239.753 198.562C239.875 198.322 240.05 198.123 240.279 197.965C240.508 197.804 240.784 197.682 241.106 197.6C241.429 197.518 241.789 197.477 242.186 197.477H243.341Z" fill="#454545"></path> <path d="M34.5186 186.303C35.3457 186.399 35.9849 186.706 36.436 187.221C36.8836 187.733 37.1074 188.415 37.1074 189.268C37.1074 190.191 36.7762 190.933 36.1138 191.491C35.4513 192.046 34.5651 192.324 33.4551 192.324L32.7031 192.324C31.9762 192.324 31.3371 192.195 30.7856 191.937C30.2342 191.676 29.8117 191.307 29.5181 190.831C29.2209 190.354 29.0723 189.803 29.0723 189.176C29.0723 188.346 29.305 187.68 29.7705 187.178C30.2324 186.677 30.8734 186.385 31.6934 186.303L31.6934 187.339C31.0703 187.429 30.6191 187.624 30.3398 187.925C30.0605 188.222 29.9209 188.639 29.9209 189.176C29.9209 189.835 30.1644 190.353 30.6514 190.729C31.1383 191.101 31.8312 191.287 32.73 191.287L33.4873 191.287C34.3359 191.287 35.0109 191.11 35.5122 190.755C36.0135 190.401 36.2642 189.905 36.2642 189.268C36.2642 188.695 36.1353 188.256 35.8774 187.952C35.616 187.644 35.1631 187.44 34.5186 187.339L34.5186 186.303ZM34.1587 180.137C35.0431 180.137 35.7557 180.339 36.2964 180.744C36.8371 181.148 37.1074 181.696 37.1074 182.387C37.1074 183.093 36.8836 183.648 36.436 184.052L39.2344 184.052L39.2344 185.046L31.1885 185.046L31.1885 184.138L31.833 184.09C31.3317 183.685 31.0811 183.123 31.0811 182.403C31.0811 181.705 31.3442 181.154 31.8706 180.749C32.397 180.341 33.1292 180.137 34.0674 180.137L34.1587 180.137ZM34.0459 181.13C33.3906 181.13 32.8732 181.27 32.4936 181.549C32.1141 181.829 31.9243 182.212 31.9243 182.699C31.9243 183.3 32.1911 183.751 32.7246 184.052L35.5015 184.052C36.0314 183.755 36.2964 183.3 36.2964 182.688C36.2964 182.212 36.1084 181.834 35.7324 181.555C35.3529 181.272 34.7907 181.13 34.0459 181.13ZM37.1074 176.458C37.1074 177.245 36.8496 177.886 36.334 178.38C35.8148 178.875 35.1219 179.122 34.2554 179.122L34.0727 179.122C33.4963 179.122 32.9824 179.012 32.5312 178.794C32.0765 178.572 31.722 178.264 31.4678 177.87C31.21 177.473 31.0811 177.043 31.0811 176.581C31.0811 175.826 31.3299 175.238 31.8276 174.819C32.3254 174.4 33.0379 174.191 33.9653 174.191L34.3789 174.191L34.3789 178.128C34.9518 178.114 35.4155 177.947 35.77 177.628C36.1209 177.306 36.2964 176.898 36.2964 176.404C36.2964 176.053 36.2248 175.756 36.0815 175.512C35.9383 175.269 35.7485 175.056 35.5122 174.873L35.9849 174.266C36.7332 174.753 37.1074 175.484 37.1074 176.458ZM31.8975 176.581C31.8975 176.982 32.0443 177.319 32.3379 177.591C32.6279 177.863 33.0361 178.031 33.5625 178.096L33.5625 175.185L33.4873 175.185C32.9824 175.213 32.5921 175.349 32.3164 175.593C32.0371 175.836 31.8975 176.166 31.8975 176.581ZM36.189 173.084L35.7646 172.741C35.2633 172.354 34.5114 172.134 33.5088 172.08L31.1885 171.989L31.1885 168.245L36.189 168.245L36.189 167.499L38.708 167.499L38.708 168.492L37 168.492L37 172.547L38.708 172.547L38.708 173.541L36.189 173.536L36.189 173.084ZM36.189 171.908L36.189 169.239L32.1069 169.239L32.1069 171.027L33.4927 171.086C34.6492 171.147 35.548 171.421 36.189 171.908ZM37 161.649L37 162.643L34.5185 162.643L34.5186 165.312L37 165.312L37 166.312L31.1885 166.312L31.1885 165.312L33.7075 165.312L33.7075 162.643L31.1885 162.643L31.1885 161.649L37 161.649ZM31.1885 156.289L31.1885 155.295L37 155.295L37 156.289L32.7622 156.289L37 158.969L37 159.963L31.1885 159.963L31.1885 158.969L35.4316 158.969L31.1885 156.289ZM31.1885 149.94L31.1885 148.947L37 148.947L37 149.94L32.7622 149.94L37 152.621L37 153.614L31.1885 153.614L31.1885 152.621L35.4316 152.621L31.1885 149.94ZM29.0723 149.672C29.5055 149.672 29.8546 149.82 30.1196 150.118C30.381 150.411 30.5117 150.798 30.5117 151.278C30.5117 151.758 30.3792 152.146 30.1143 152.443C29.8493 152.741 29.5019 152.889 29.0723 152.889L29.0723 152.078C29.3229 152.078 29.5199 152.01 29.6631 151.874C29.8027 151.738 29.8726 151.539 29.8726 151.278C29.8726 151.027 29.8027 150.832 29.6631 150.692C29.5234 150.549 29.3265 150.478 29.0723 150.478L29.0723 149.672ZM37 139.87L37 140.863L32.0102 140.863L32.0102 143.538L37 143.538L37 144.537L31.1885 144.537L31.1885 139.87L37 139.87ZM34.0405 138.538C33.4712 138.538 32.9591 138.427 32.5044 138.205C32.0496 137.979 31.6987 137.667 31.4517 137.27C31.2046 136.869 31.081 136.412 31.081 135.9C31.081 135.109 31.355 134.47 31.9028 133.983C32.4507 133.492 33.1794 133.247 34.0889 133.247L34.1587 133.247C34.7244 133.247 35.2329 133.356 35.6841 133.575C36.1317 133.79 36.4808 134.099 36.7314 134.504C36.9821 134.905 37.1074 135.367 37.1074 135.89C37.1074 136.677 36.8335 137.317 36.2856 137.807C35.7378 138.294 35.0127 138.538 34.1103 138.538L34.0405 138.538ZM34.1587 137.539C34.8032 137.539 35.3206 137.39 35.7109 137.093C36.1012 136.792 36.2964 136.391 36.2964 135.89C36.2964 135.385 36.0994 134.984 35.7056 134.687C35.3081 134.389 34.7531 134.241 34.0405 134.241C33.4032 134.241 32.8875 134.393 32.4936 134.697C32.0962 134.998 31.8975 135.399 31.8975 135.9C31.8975 136.391 32.0926 136.787 32.4829 137.087C32.8732 137.388 33.4318 137.539 34.1587 137.539ZM34.5239 130.191L34.5239 130.916L37 130.916L37 131.915L31.1885 131.915L31.1885 130.916L33.6484 130.916L33.6484 130.266L31.1885 128.311L31.1885 127.108L33.9814 129.407L37 126.915L37 128.177L34.5239 130.191ZM37 122.473C36.8854 122.53 36.6813 122.576 36.3877 122.612C36.8675 123.074 37.1074 123.626 37.1074 124.267C37.1074 124.84 36.9463 125.31 36.624 125.679C36.2982 126.044 35.8864 126.227 35.3887 126.227C34.7835 126.227 34.3144 125.998 33.9814 125.54C33.6449 125.078 33.4766 124.43 33.4766 123.595L33.4766 122.628L33.02 122.628C32.6727 122.628 32.397 122.732 32.1929 122.94C31.9852 123.148 31.8813 123.454 31.8813 123.858C31.8813 124.213 31.9709 124.51 32.1499 124.75C32.3289 124.99 32.5456 125.11 32.7998 125.11L32.7998 126.109C32.5098 126.109 32.2305 126.007 31.9619 125.803C31.6898 125.595 31.4749 125.316 31.3174 124.965C31.1598 124.61 31.081 124.222 31.081 123.799C31.081 123.13 31.2493 122.605 31.5859 122.226C31.9189 121.846 32.3791 121.649 32.9663 121.635L35.6411 121.635C36.1746 121.635 36.599 121.567 36.9141 121.431L37 121.431L37 122.473ZM36.2427 124.122C36.2427 123.81 36.1621 123.515 36.001 123.235C35.8398 122.956 35.6304 122.754 35.3726 122.628L34.1802 122.628L34.1802 123.407C34.1802 124.625 34.5365 125.233 35.249 125.233C35.5605 125.233 35.804 125.13 35.9795 124.922C36.1549 124.714 36.2427 124.447 36.2427 124.122ZM32.7783 116.881C32.5062 116.881 32.2913 116.985 32.1338 117.193C31.9726 117.401 31.8921 117.685 31.8921 118.047C31.8921 118.398 31.9834 118.691 32.166 118.928C32.3486 119.16 32.5635 119.277 32.8105 119.277L32.8105 120.265C32.3057 120.265 31.8921 120.054 31.5698 119.631C31.2476 119.209 31.0864 118.681 31.0864 118.047C31.0864 117.367 31.2332 116.837 31.5268 116.457C31.8169 116.077 32.2323 115.888 32.7729 115.888C33.0343 115.888 33.2742 115.966 33.4927 116.124C33.7111 116.282 33.8848 116.505 34.0137 116.795C34.2428 116.119 34.694 115.78 35.3672 115.78C35.9007 115.78 36.3232 115.986 36.6348 116.398C36.9463 116.81 37.102 117.359 37.102 118.047C37.102 118.716 36.9391 119.27 36.6133 119.707C36.2838 120.14 35.8398 120.356 35.2812 120.356L35.2812 119.368C35.5641 119.368 35.8076 119.243 36.0117 118.992C36.2122 118.738 36.3125 118.423 36.3125 118.047C36.3125 117.667 36.2248 117.361 36.0493 117.128C35.8739 116.896 35.6465 116.779 35.3672 116.779C35.0413 116.779 34.8086 116.878 34.6689 117.075C34.5257 117.268 34.4541 117.571 34.4541 117.982L34.4541 118.976L33.6162 118.976L33.6162 117.896C33.5983 117.22 33.319 116.881 32.7783 116.881ZM37 110.903C36.8854 110.961 36.6813 111.007 36.3877 111.043C36.8675 111.505 37.1074 112.056 37.1074 112.697C37.1074 113.27 36.9463 113.741 36.624 114.11C36.2982 114.475 35.8864 114.658 35.3887 114.658C34.7835 114.658 34.3144 114.429 33.9814 113.97C33.6448 113.508 33.4766 112.86 33.4766 112.026L33.4766 111.059L33.02 111.059C32.6727 111.059 32.397 111.163 32.1929 111.371C31.9852 111.578 31.8813 111.884 31.8813 112.289C31.8813 112.644 31.9709 112.941 32.1499 113.181C32.3289 113.421 32.5456 113.541 32.7998 113.541L32.7998 114.54C32.5098 114.54 32.2305 114.437 31.9619 114.233C31.6898 114.026 31.4749 113.746 31.3174 113.396C31.1598 113.041 31.081 112.653 31.081 112.23C31.081 111.56 31.2493 111.036 31.5859 110.656C31.9189 110.277 32.3791 110.08 32.9663 110.065L35.6411 110.065C36.1746 110.065 36.599 109.997 36.9141 109.861L37 109.861L37 110.903ZM36.2427 112.552C36.2427 112.241 36.1621 111.945 36.001 111.666C35.8398 111.387 35.6304 111.184 35.3726 111.059L34.1802 111.059L34.1802 111.838C34.1802 113.055 34.5365 113.664 35.249 113.664C35.5605 113.664 35.804 113.56 35.9795 113.353C36.1549 113.145 36.2427 112.878 36.2427 112.552ZM31.9941 104.275L31.9941 106.225L37 106.225L37 107.219L31.9941 107.219L31.9941 109.131L31.1885 109.131L31.1885 104.275L31.9941 104.275ZM37.1074 101.327C37.1074 102.114 36.8496 102.755 36.334 103.25C35.8148 103.744 35.1219 103.991 34.2554 103.991L34.0727 103.991C33.4962 103.991 32.9824 103.882 32.5312 103.663C32.0765 103.441 31.722 103.133 31.4678 102.739C31.21 102.342 31.081 101.912 31.081 101.45C31.081 100.695 31.3299 100.107 31.8276 99.6885C32.3254 99.2695 33.0379 99.0601 33.9653 99.0601L34.3789 99.0601L34.3789 102.997C34.9518 102.983 35.4155 102.816 35.77 102.498C36.1209 102.175 36.2964 101.767 36.2964 101.273C36.2964 100.922 36.2248 100.625 36.0815 100.381C35.9383 100.138 35.7485 99.9248 35.5122 99.7422L35.9849 99.1353C36.7332 99.6222 37.1074 100.353 37.1074 101.327ZM31.8975 101.45C31.8975 101.851 32.0443 102.188 32.3379 102.46C32.6279 102.732 33.0361 102.9 33.5625 102.965L33.5625 100.054L33.4873 100.054C32.9824 100.082 32.5921 100.218 32.3164 100.462C32.0371 100.705 31.8975 101.035 31.8975 101.45ZM31.1885 93.1411L37 93.1411L37 94.1401L32.0102 94.1401L32.0102 96.1167L34.1855 96.2349C35.1846 96.2993 35.8989 96.4676 36.3286 96.7397C36.7583 97.0083 36.9821 97.4362 37 98.0234L37 98.4209L36.1245 98.4209L36.103 98.1362C36.0672 97.814 35.881 97.583 35.5444 97.4434C35.2078 97.3037 34.5848 97.2142 33.6753 97.1748L31.1885 97.0674L31.1885 93.1411ZM33.1919 90.4609L33.1919 88.9517C33.199 88.2928 33.3709 87.7718 33.7075 87.3887C34.0441 87.0055 34.5006 86.814 35.0771 86.814C35.6572 86.814 36.1227 87.0109 36.4736 87.4048C36.8245 87.7987 37 88.3286 37 88.9946L37 91.4546L31.1885 91.4546L31.1885 90.4609L33.1919 90.4609ZM34.0029 90.4609L36.189 90.4609L36.189 88.9839C36.189 88.6115 36.0941 88.3232 35.9043 88.1191C35.7109 87.915 35.4477 87.813 35.1147 87.813C34.7925 87.813 34.5293 87.9132 34.3252 88.1138C34.1175 88.3107 34.0101 88.5882 34.0029 88.9463L34.0029 90.4609ZM37 81.5825L37 82.6138L29.1797 82.6138L29.1797 81.5825L37 81.5825ZM33.3423 73.7192C34.0978 73.7192 34.7495 73.8392 35.2974 74.0791C35.8416 74.319 36.2677 74.6556 36.5757 75.0889L37.6714 73.6924L38.3213 74.396L37.0107 76.0449C37.0752 76.3027 37.1074 76.5749 37.1074 76.8613C37.1074 77.4772 36.957 78.0233 36.6562 78.4995C36.3519 78.9757 35.9204 79.3464 35.3618 79.6113C34.7996 79.8727 34.1497 80.007 33.4121 80.0142L32.8481 80.0142C32.0962 80.0142 31.432 79.8835 30.8555 79.6221C30.279 79.3607 29.8385 78.9919 29.5342 78.5156C29.2262 78.0358 29.0723 77.488 29.0723 76.8721C29.0723 76.2419 29.2244 75.6886 29.5288 75.2124C29.8332 74.7326 30.2718 74.3638 30.8447 74.106C31.4141 73.8481 32.0801 73.7192 32.8428 73.7192L33.3423 73.7192ZM32.8374 74.7505C31.9171 74.7505 31.2082 74.9349 30.7104 75.3037C30.2091 75.6689 29.9585 76.1917 29.9585 76.8721C29.9585 77.5202 30.2073 78.0322 30.7051 78.4082C31.1992 78.7806 31.8867 78.9722 32.7676 78.9829L33.3423 78.9829C34.2375 78.9829 34.9429 78.7967 35.4585 78.4243C35.9741 78.0483 36.2319 77.5273 36.2319 76.8613C36.2319 76.1953 35.9902 75.6797 35.5068 75.3145C35.0198 74.9492 34.3234 74.7612 33.4175 74.7505L32.8374 74.7505ZM46.8257 232.36C46.0164 232.36 45.2394 232.252 44.4946 232.038C43.7498 231.819 43.0731 231.495 42.4644 231.065C41.8556 230.636 41.4259 230.19 41.1753 229.728L41.8306 229.524C42.2316 230.047 42.8439 230.476 43.6675 230.813C44.491 231.146 45.4131 231.329 46.4336 231.361L46.8901 231.366C48.2723 231.366 49.4718 231.114 50.4888 230.609C51.0975 230.305 51.5737 229.943 51.9175 229.524L52.5244 229.728C52.2594 230.204 51.8154 230.659 51.1924 231.092C49.9749 231.937 48.5194 232.36 46.8257 232.36ZM50 223.809L50 224.803L45.0103 224.803L45.0103 227.478L50 227.478L50 228.477L44.1885 228.477L44.1885 223.809L50 223.809ZM47.0405 222.477C46.4712 222.477 45.9591 222.366 45.5044 222.144C45.0496 221.918 44.6987 221.607 44.4517 221.209C44.2046 220.808 44.0811 220.352 44.0811 219.84C44.0811 219.049 44.355 218.409 44.9028 217.922C45.4507 217.432 46.1794 217.187 47.0889 217.187L47.1587 217.187C47.7244 217.187 48.2329 217.296 48.6841 217.514C49.1317 217.729 49.4808 218.039 49.7314 218.443C49.9821 218.844 50.1074 219.306 50.1074 219.829C50.1074 220.617 49.8335 221.256 49.2856 221.747C48.7378 222.234 48.0127 222.477 47.1103 222.477L47.0405 222.477ZM47.1587 221.478C47.8032 221.478 48.3206 221.329 48.7109 221.032C49.1012 220.731 49.2964 220.33 49.2964 219.829C49.2964 219.324 49.0994 218.923 48.7056 218.626C48.3081 218.329 47.7531 218.18 47.0405 218.18C46.4032 218.18 45.8875 218.332 45.4937 218.637C45.0962 218.937 44.8975 219.339 44.8975 219.84C44.8975 220.33 45.0926 220.726 45.4829 221.027C45.8732 221.328 46.4318 221.478 47.1587 221.478ZM44.1885 209.452L44.1885 208.458L50 208.458L50 209.452L45.7622 209.452L50 212.132L50 213.126L44.1885 213.126L44.1885 212.132L48.4316 212.132L44.1885 209.452ZM50 202.115L50 203.109L47.5186 203.109L47.5186 205.778L50 205.778L50 206.777L44.1885 206.777L44.1885 205.778L46.7075 205.778L46.7075 203.109L44.1885 203.109L44.1885 202.115L50 202.115ZM44.9941 196.196L44.9941 198.146L50 198.146L50 199.14L44.9941 199.14L44.9941 201.052L44.1885 201.052L44.1885 196.196L44.9941 196.196ZM50.1074 193.248C50.1074 194.035 49.8496 194.676 49.334 195.17C48.8148 195.665 48.1219 195.912 47.2554 195.912L47.0728 195.912C46.4963 195.912 45.9824 195.802 45.5312 195.584C45.0765 195.362 44.722 195.054 44.4678 194.66C44.21 194.263 44.0811 193.833 44.0811 193.371C44.0811 192.616 44.3299 192.028 44.8276 191.609C45.3254 191.19 46.0379 190.981 46.9653 190.981L47.3789 190.981L47.3789 194.918C47.9518 194.904 48.4155 194.737 48.77 194.418C49.1209 194.096 49.2964 193.688 49.2964 193.194C49.2964 192.843 49.2248 192.546 49.0815 192.302C48.9383 192.059 48.7485 191.846 48.5122 191.663L48.9849 191.056C49.7332 191.543 50.1074 192.274 50.1074 193.248ZM44.8975 193.371C44.8975 193.772 45.0443 194.109 45.3379 194.381C45.6279 194.653 46.0361 194.821 46.5625 194.886L46.5625 191.975L46.4873 191.975C45.9824 192.003 45.5921 192.139 45.3164 192.383C45.0371 192.626 44.8975 192.956 44.8975 193.371ZM44.1885 185.062L50 185.062L50 186.061L45.0103 186.061L45.0103 188.038L47.1855 188.156C48.1846 188.22 48.8989 188.389 49.3286 188.661C49.7583 188.929 49.9821 189.357 50 189.944L50 190.342L49.1245 190.342L49.103 190.057C49.0672 189.735 48.881 189.504 48.5444 189.364C48.2078 189.225 47.5848 189.135 46.6753 189.096L44.1885 188.988L44.1885 185.062ZM44.1885 178.703L50 178.703L50 179.702L45.0102 179.702L45.0103 181.678L47.1855 181.796C48.1846 181.861 48.8989 182.029 49.3286 182.301C49.7583 182.57 49.9821 182.998 50 183.585L50 183.982L49.1245 183.982L49.103 183.698C49.0672 183.375 48.881 183.145 48.5444 183.005C48.2078 182.865 47.5848 182.776 46.6753 182.736L44.1885 182.629L44.1885 178.703ZM50.1074 174.696C50.1074 175.484 49.8496 176.125 49.334 176.619C48.8148 177.113 48.1219 177.36 47.2554 177.36L47.0727 177.36C46.4963 177.36 45.9824 177.251 45.5312 177.032C45.0765 176.81 44.722 176.502 44.4678 176.108C44.21 175.711 44.0811 175.281 44.0811 174.819C44.0811 174.064 44.3299 173.477 44.8276 173.058C45.3254 172.639 46.0379 172.429 46.9653 172.429L47.3789 172.429L47.3789 176.366C47.9518 176.352 48.4155 176.185 48.77 175.867C49.1209 175.544 49.2964 175.136 49.2964 174.642C49.2964 174.291 49.2248 173.994 49.0815 173.75C48.9383 173.507 48.7485 173.294 48.5122 173.111L48.9849 172.504C49.7332 172.991 50.1074 173.722 50.1074 174.696ZM44.8975 174.819C44.8975 175.22 45.0443 175.557 45.3379 175.829C45.6279 176.101 46.0361 176.27 46.5625 176.334L46.5625 173.423L46.4873 173.423C45.9824 173.451 45.5921 173.588 45.3164 173.831C45.0371 174.075 44.8975 174.404 44.8975 174.819ZM47.5239 169.464L47.5239 170.189L50 170.189L50 171.188L44.1885 171.188L44.1885 170.189L46.6484 170.189L46.6484 169.54L44.1885 167.584L44.1885 166.381L46.9814 168.68L50 166.188L50 167.45L47.5239 169.464ZM44.9941 161.016L44.9941 162.965L50 162.965L50 163.959L44.9941 163.959L44.9941 165.871L44.1885 165.871L44.1885 161.016L44.9941 161.016ZM48.5444 158.083L44.1885 156.729L44.1885 155.666L50.897 158.002C51.8638 158.364 52.3472 158.939 52.3472 159.727L52.331 159.915L52.2612 160.285L51.4556 160.285L51.477 160.017C51.477 159.68 51.409 159.419 51.2729 159.232C51.1369 159.043 50.888 158.887 50.5264 158.765L49.9355 158.545L44.1885 160.618L44.1885 159.533L48.5444 158.083ZM50 151.272C49.8854 151.33 49.6813 151.376 49.3877 151.412C49.8675 151.874 50.1074 152.425 50.1074 153.066C50.1074 153.639 49.9463 154.11 49.624 154.479C49.2982 154.844 48.8864 155.027 48.3887 155.027C47.7835 155.027 47.3144 154.798 46.9814 154.339C46.6449 153.877 46.4766 153.229 46.4766 152.395L46.4766 151.428L46.02 151.428C45.6727 151.428 45.397 151.532 45.1929 151.74C44.9852 151.947 44.8813 152.254 44.8813 152.658C44.8813 153.013 44.9709 153.31 45.1499 153.55C45.3289 153.79 45.5456 153.91 45.7998 153.91L45.7998 154.909C45.5098 154.909 45.2305 154.807 44.9619 154.603C44.6898 154.395 44.4749 154.116 44.3174 153.765C44.1598 153.41 44.081 153.022 44.081 152.599C44.081 151.93 44.2493 151.405 44.5859 151.025C44.9189 150.646 45.3791 150.449 45.9663 150.435L48.6411 150.435C49.1746 150.435 49.599 150.367 49.9141 150.23L50 150.23L50 151.272ZM49.2427 152.921C49.2427 152.61 49.1621 152.314 49.001 152.035C48.8398 151.756 48.6304 151.554 48.3726 151.428L47.1802 151.428L47.1802 152.207C47.1802 153.424 47.5365 154.033 48.249 154.033C48.5605 154.033 48.804 153.929 48.9795 153.722C49.1549 153.514 49.2427 153.247 49.2427 152.921ZM44.1885 144.113L50 144.113L50 145.112L45.0102 145.112L45.0102 147.088L47.1855 147.207C48.1846 147.271 48.8989 147.439 49.3286 147.711C49.7583 147.98 49.9821 148.408 50 148.995L50 149.393L49.1245 149.393L49.103 149.108C49.0672 148.786 48.881 148.555 48.5444 148.415C48.2078 148.275 47.5848 148.186 46.6753 148.146L44.1885 148.039L44.1885 144.113ZM46.1919 141.433L46.1919 139.923C46.1991 139.264 46.3709 138.743 46.7075 138.36C47.0441 137.977 47.5006 137.786 48.0771 137.786C48.6572 137.786 49.1227 137.983 49.4736 138.376C49.8245 138.77 50 139.3 50 139.966L50 142.426L44.1885 142.426L44.1885 141.433L46.1919 141.433ZM47.0029 141.433L49.189 141.433L49.189 139.956C49.189 139.583 49.0941 139.295 48.9043 139.091C48.7109 138.887 48.4477 138.785 48.1147 138.785C47.7925 138.785 47.5293 138.885 47.3252 139.085C47.1175 139.282 47.0101 139.56 47.0029 139.918L47.0029 141.433ZM50 131.797L50 132.791L47.5185 132.791L47.5185 135.46L50 135.46L50 136.459L44.1885 136.459L44.1885 135.46L46.7075 135.46L46.7075 132.791L44.1885 132.791L44.1885 131.797L50 131.797ZM47.0405 130.459C46.4712 130.459 45.9591 130.348 45.5044 130.126C45.0496 129.901 44.6987 129.589 44.4517 129.192C44.2046 128.791 44.081 128.334 44.081 127.822C44.081 127.031 44.355 126.392 44.9028 125.905C45.4507 125.414 46.1794 125.169 47.0889 125.169L47.1587 125.169C47.7244 125.169 48.2329 125.278 48.6841 125.497C49.1317 125.711 49.4808 126.021 49.7314 126.426C49.9821 126.827 50.1074 127.289 50.1074 127.812C50.1074 128.599 49.8335 129.238 49.2856 129.729C48.7378 130.216 48.0127 130.459 47.1103 130.459L47.0405 130.459ZM47.1587 129.46C47.8032 129.46 48.3206 129.312 48.7109 129.015C49.1012 128.714 49.2964 128.313 49.2964 127.812C49.2964 127.307 49.0994 126.906 48.7056 126.608C48.3081 126.311 47.7531 126.163 47.0405 126.163C46.4032 126.163 45.8875 126.315 45.4936 126.619C45.0962 126.92 44.8975 127.321 44.8975 127.822C44.8975 128.313 45.0926 128.708 45.4829 129.009C45.8732 129.31 46.4318 129.46 47.1587 129.46ZM48.6841 120.577L44.1885 118.6L44.1885 117.359L50 117.359L50 118.353L45.7729 118.353L50 120.233L50 120.92L45.6816 122.838L50 122.838L50 123.832L44.1885 123.832L44.1885 122.542L48.6841 120.577ZM48.5444 113.857L44.1885 112.504L44.1885 111.44L50.897 113.777C51.8638 114.139 52.3472 114.713 52.3472 115.501L52.331 115.689L52.2612 116.06L51.4556 116.06L51.477 115.791C51.477 115.454 51.409 115.193 51.2729 115.007C51.1369 114.817 50.888 114.661 50.5264 114.54L49.9355 114.319L44.1885 116.393L44.1885 115.308L48.5444 113.857ZM44.9941 103.502L44.9941 105.452L50 105.452L50 106.445L44.9941 106.445L44.9941 108.357L44.1885 108.357L44.1885 103.502L44.9941 103.502ZM50.1074 100.553C50.1074 101.341 49.8496 101.982 49.334 102.476C48.8148 102.97 48.1219 103.217 47.2554 103.217L47.0727 103.217C46.4962 103.217 45.9824 103.108 45.5312 102.89C45.0765 102.668 44.722 102.36 44.4678 101.966C44.21 101.568 44.081 101.139 44.081 100.677C44.081 99.9212 44.3299 99.334 44.8276 98.915C45.3254 98.4961 46.0379 98.2866 46.9653 98.2866L47.3789 98.2866L47.3789 102.224C47.9518 102.209 48.4155 102.043 48.77 101.724C49.1209 101.402 49.2964 100.994 49.2964 100.5C49.2964 100.149 49.2248 99.8514 49.0815 99.6079C48.9383 99.3644 48.7485 99.1514 48.5122 98.9687L48.9849 98.3618C49.7332 98.8488 50.1074 99.5793 50.1074 100.553ZM44.8975 100.677C44.8975 101.078 45.0443 101.414 45.3379 101.687C45.6279 101.959 46.0361 102.127 46.5625 102.191L46.5625 99.2803L46.4873 99.2803C45.9824 99.3089 45.5921 99.445 45.3164 99.6885C45.0371 99.932 44.8975 100.261 44.8975 100.677ZM49.2964 94.8008C49.2964 94.4463 49.189 94.1366 48.9741 93.8716C48.7593 93.6066 48.4907 93.4598 48.1684 93.4312L48.1684 92.4912C48.5015 92.5091 48.8184 92.6237 49.1191 92.835C49.4199 93.0462 49.6598 93.3291 49.8389 93.6836C50.0179 94.0345 50.1074 94.4069 50.1074 94.8008C50.1074 95.5921 49.8442 96.2223 49.3179 96.6914C48.7879 97.1569 48.0646 97.3896 47.1479 97.3896L46.9814 97.3896C46.4157 97.3896 45.9126 97.2858 45.4722 97.0781C45.0317 96.8704 44.6898 96.5732 44.4463 96.1865C44.2028 95.7962 44.081 95.3361 44.081 94.8062C44.081 94.1545 44.2762 93.6138 44.6665 93.1841C45.0568 92.7508 45.5635 92.5199 46.1865 92.4912L46.1865 93.4312C45.8105 93.4598 45.5026 93.603 45.2627 93.8608C45.0192 94.1151 44.8975 94.4302 44.8975 94.8062C44.8975 95.311 45.0801 95.7031 45.4453 95.9824C45.807 96.2581 46.3315 96.396 47.019 96.396L47.207 96.396C47.8766 96.396 48.3922 96.2581 48.7539 95.9824C49.1156 95.7067 49.2964 95.3128 49.2964 94.8008ZM44.9941 87.0557L44.9941 89.0054L50 89.0054L50 89.999L44.9941 89.999L44.9941 91.9111L44.1885 91.9111L44.1885 87.0557L44.9941 87.0557ZM48.5444 84.123L44.1885 82.7695L44.1885 81.7061L50.897 84.0425C51.8638 84.4041 52.3472 84.9788 52.3472 85.7666L52.331 85.9546L52.2612 86.3252L51.4556 86.3252L51.477 86.0566C51.477 85.7201 51.409 85.4587 51.2729 85.2725C51.1369 85.0827 50.888 84.9269 50.5264 84.8052L49.9355 84.585L44.1885 86.6582L44.1885 85.5732L48.5444 84.123ZM46.4873 75.8999L46.4873 76.8506L50 76.8506L50 77.8818L42.1797 77.8818L42.1797 76.8506L45.6279 76.8506L45.6279 76.0449L42.1797 73.311L42.1797 72.0273L45.9717 75.0137L50 71.8071L50 73.0693L46.4873 75.8999ZM50.1074 68.7456C50.1074 69.5334 49.8496 70.1743 49.334 70.6685C48.8148 71.1626 48.1219 71.4097 47.2554 71.4097L47.0727 71.4097C46.4962 71.4097 45.9824 71.3005 45.5312 71.082C45.0765 70.86 44.722 70.5521 44.4678 70.1582C44.21 69.7607 44.081 69.3311 44.081 68.8691C44.081 68.1136 44.3299 67.5264 44.8276 67.1074C45.3253 66.6885 46.0379 66.479 46.9653 66.479L47.3789 66.479L47.3789 70.416C47.9518 70.4017 48.4155 70.2352 48.77 69.9165C49.1209 69.5942 49.2964 69.186 49.2964 68.6919C49.2964 68.341 49.2248 68.0438 49.0815 67.8003C48.9383 67.5568 48.7485 67.3437 48.5122 67.1611L48.9849 66.5542C49.7332 67.0412 50.1074 67.7716 50.1074 68.7456ZM44.8975 68.8691C44.8975 69.2702 45.0443 69.6068 45.3379 69.8789C45.6279 70.151 46.0361 70.3193 46.5625 70.3838L46.5625 67.4727L46.4873 67.4727C45.9824 67.5013 45.5921 67.6374 45.3164 67.8809C45.0371 68.1243 44.8975 68.4538 44.8975 68.8691ZM44.9941 61.0703L44.9941 63.02L50 63.02L50 64.0137L44.9941 64.0137L44.9941 65.9258L44.1885 65.9258L44.1885 61.0703L44.9941 61.0703ZM50.1074 58.1216C50.1074 58.9093 49.8496 59.5503 49.334 60.0444C48.8148 60.5386 48.1219 60.7856 47.2554 60.7856L47.0727 60.7856C46.4962 60.7856 45.9824 60.6764 45.5312 60.458C45.0765 60.236 44.722 59.9281 44.4678 59.5342C44.21 59.1367 44.081 58.707 44.081 58.2451C44.081 57.4896 44.3299 56.9023 44.8276 56.4834C45.3253 56.0645 46.0379 55.855 46.9653 55.855L47.3789 55.855L47.3789 59.792C47.9518 59.7777 48.4155 59.6112 48.77 59.2925C49.1209 58.9702 49.2964 58.562 49.2964 58.0679C49.2964 57.717 49.2248 57.4198 49.0815 57.1763C48.9383 56.9328 48.7485 56.7197 48.5122 56.5371L48.9849 55.9302C49.7332 56.4172 50.1074 57.1476 50.1074 58.1216ZM44.8975 58.2451C44.8975 58.6462 45.0443 58.9827 45.3379 59.2549C45.6279 59.527 46.0361 59.6953 46.5625 59.7598L46.5625 56.8486L46.4873 56.8486C45.9824 56.8773 45.5921 57.0133 45.3164 57.2568C45.0371 57.5003 44.8975 57.8298 44.8975 58.2451ZM44.1885 49.936L50 49.936L50 50.9351L45.0102 50.9351L45.0102 52.9116L47.1855 53.0298C48.1846 53.0942 48.8989 53.2625 49.3286 53.5347C49.7583 53.8032 49.9821 54.2311 50 54.8184L50 55.2158L49.1245 55.2158L49.103 54.9312C49.0672 54.6089 48.881 54.3779 48.5444 54.2383C48.2078 54.0986 47.5848 54.0091 46.6753 53.9697L44.1885 53.8623L44.1885 49.936ZM44.1885 43.5767L50 43.5767L50 44.5757L45.0102 44.5757L45.0102 46.5522L47.1855 46.6704C48.1846 46.7349 48.8989 46.9032 49.3286 47.1753C49.7583 47.4438 49.9821 47.8717 50 48.459L50 48.8564L49.1245 48.8564L49.103 48.5718C49.0672 48.2495 48.881 48.0186 48.5444 47.8789C48.2078 47.7393 47.5848 47.6497 46.6753 47.6104L44.1885 47.5029L44.1885 43.5767ZM50 38.3936C49.8854 38.4508 49.6813 38.4974 49.3877 38.5332C49.8675 38.9951 50.1074 39.5465 50.1074 40.1875C50.1074 40.7604 49.9463 41.2313 49.624 41.6001C49.2982 41.9653 48.8864 42.1479 48.3887 42.1479C47.7835 42.1479 47.3144 41.9188 46.9814 41.4604C46.6448 40.9985 46.4766 40.3504 46.4766 39.5161L46.4766 38.5493L46.02 38.5493C45.6727 38.5493 45.397 38.6532 45.1929 38.8608C44.9852 39.0685 44.8813 39.3747 44.8813 39.7793C44.8813 40.1338 44.9709 40.431 45.1499 40.6709C45.3289 40.9108 45.5456 41.0308 45.7998 41.0308L45.7998 42.0298C45.5098 42.0298 45.2305 41.9277 44.9619 41.7236C44.6898 41.5159 44.4749 41.2367 44.3174 40.8857C44.1598 40.5312 44.081 40.1427 44.081 39.7202C44.081 39.0506 44.2493 38.526 44.5859 38.1465C44.9189 37.7669 45.3791 37.57 45.9663 37.5557L48.6411 37.5557C49.1746 37.5557 49.5989 37.4876 49.9141 37.3516L50 37.3516L50 38.3936ZM49.2427 40.0425C49.2427 39.731 49.1621 39.4355 49.001 39.1562C48.8398 38.877 48.6304 38.6746 48.3725 38.5493L47.1802 38.5493L47.1802 39.3281C47.1802 40.5456 47.5364 41.1543 48.249 41.1543C48.5605 41.1543 48.804 41.0505 48.9795 40.8428C49.1549 40.6351 49.2427 40.3683 49.2427 40.0425ZM46.8794 33.7046C47.6779 33.7046 48.4442 33.8102 49.1782 34.0215C49.9087 34.2292 50.5836 34.5496 51.2031 34.9829C51.8226 35.4126 52.263 35.8638 52.5244 36.3364L51.9175 36.5459C51.4949 35.9945 50.8397 35.5522 49.9516 35.2192C49.06 34.8826 48.0718 34.7108 46.9868 34.7036L46.8149 34.7036C46.063 34.7036 45.3647 34.7824 44.7202 34.9399C44.0721 35.0975 43.492 35.3177 42.98 35.6006C42.4679 35.8799 42.0687 36.195 41.7822 36.5459L41.1753 36.3364C41.4367 35.8638 41.8735 35.4144 42.4858 34.9883C43.0981 34.5586 43.7731 34.2381 44.5107 34.0269C45.2484 33.812 46.0379 33.7046 46.8794 33.7046Z" fill="#454545"></path> <path d="M207.58 48H205.58V86.35H207.58V48Z" fill="#6FC4E2"></path> <path d="M206.58 70.7498C208.557 70.7498 210.16 69.147 210.16 67.1698C210.16 65.1927 208.557 63.5898 206.58 63.5898C204.603 63.5898 203 65.1927 203 67.1698C203 69.147 204.603 70.7498 206.58 70.7498Z" fill="#4670B5"></path> <path d="M244.33 48H242.83V86.35H244.33V48Z" fill="#D19DC7"></path> <path d="M243.58 70.7498C245.557 70.7498 247.16 69.147 247.16 67.1698C247.16 65.1927 245.557 63.5898 243.58 63.5898C241.603 63.5898 240 65.1927 240 67.1698C240 69.147 241.603 70.7498 243.58 70.7498Z" fill="#CC4C95"></path> </g> <defs> <clipPath id="clip0_16_8"> <rect width="375" height="285" fill="white"></rect> </clipPath> </defs> </svg> 