<svg width="313" height="444" viewBox="0 0 313 444" fill="none" xmlns="http://www.w3.org/2000/svg">
<rect y="22" width="313" height="422" rx="35" fill="white"/>
<path d="M0 35C0 15.67 15.67 0 35 0H278C297.33 0 313 15.67 313 35V60H0V35Z" fill="#C5ECC8"/>
<path d="M72.55 264.35C70.65 264.35 69.0833 264.05 67.85 263.45C66.65 262.85 65.7667 262 65.2 260.9C64.6333 259.8 64.35 258.517 64.35 257.05V253.8H69.15V255.9C69.15 257.5 69.4167 258.733 69.95 259.6C70.4833 260.433 71.3333 260.867 72.5 260.9C73.5667 260.9 74.3833 260.517 74.95 259.75C75.5167 258.983 75.8 257.967 75.8 256.7V253.85C75.8 252.617 75.3833 251.717 74.55 251.15C73.7167 250.55 72.55 250.233 71.05 250.2H68.5V247.4H71.1C71.8 247.4 72.45 247.3 73.05 247.1C73.65 246.9 74.15 246.6 74.55 246.2C74.95 245.833 75.2333 245.433 75.4 245C75.5667 244.567 75.65 244.1 75.65 243.6V241.65C75.65 240.583 75.4 239.667 74.9 238.9C74.4333 238.133 73.6333 237.75 72.5 237.75C71.3 237.75 70.4667 238.183 70 239.05C69.5333 239.883 69.3 241.017 69.3 242.45V243.85H64.45V241.3C64.45 239.033 65.1 237.3 66.4 236.1C67.7333 234.9 69.7833 234.3 72.55 234.3C75.4167 234.3 77.4833 234.867 78.75 236C80.0167 237.1 80.65 238.733 80.65 240.9V242.9C80.65 244.6 80.2167 245.967 79.35 247C78.5167 248.033 77.3333 248.683 75.8 248.95C77.4 249.117 78.6333 249.733 79.5 250.8C80.3667 251.867 80.8 253.25 80.8 254.95V257.05C80.8 258.617 80.5167 259.95 79.95 261.05C79.4167 262.15 78.55 262.983 77.35 263.55C76.15 264.083 74.55 264.35 72.55 264.35ZM92.1859 264.4C90.2193 264.4 88.6193 264.2 87.3859 263.8C86.1859 263.367 85.3026 262.583 84.7359 261.45C84.2026 260.283 83.9359 258.633 83.9359 256.5V254.3H88.7359V256.1C88.7359 257.9 89.0026 259.15 89.5359 259.85C90.0693 260.55 90.9526 260.9 92.1859 260.9C93.3526 260.9 94.1693 260.5 94.6359 259.7C95.1359 258.9 95.3859 257.65 95.3859 255.95V251.35C95.3859 250.55 95.3026 249.833 95.1359 249.2C94.9693 248.533 94.6526 248.017 94.1859 247.65C93.7193 247.25 93.0193 247.05 92.0859 247.05C91.1859 247.05 90.4359 247.317 89.8359 247.85C89.2693 248.35 88.9026 249.033 88.7359 249.9H84.0359V234.45H99.5859V237.95H88.7859V246.15C89.1526 245.517 89.7359 244.983 90.5359 244.55C91.3693 244.083 92.4859 243.85 93.8859 243.85C96.0859 243.85 97.7026 244.317 98.7359 245.25C99.8026 246.183 100.336 247.833 100.336 250.2V256.5C100.336 258.6 100.003 260.217 99.3359 261.35C98.7026 262.483 97.7693 263.283 96.5359 263.75C95.3359 264.183 93.8859 264.4 92.1859 264.4ZM111.816 264.65C110.249 264.617 108.849 264.283 107.616 263.65C106.416 262.983 105.466 261.95 104.766 260.55C104.099 259.15 103.766 257.3 103.766 255V242.7C103.766 239.767 104.533 237.6 106.066 236.2C107.599 234.8 109.549 234.1 111.916 234.1C114.216 234.1 116.116 234.8 117.616 236.2C119.116 237.6 119.866 239.767 119.866 242.7V254.95C119.866 257.283 119.516 259.167 118.816 260.6C118.149 262.033 117.199 263.067 115.966 263.7C114.766 264.333 113.383 264.65 111.816 264.65ZM111.816 261.75C112.749 261.75 113.533 261.383 114.166 260.65C114.799 259.883 115.116 258.783 115.116 257.35V241.45C115.116 239.983 114.783 238.883 114.116 238.15C113.483 237.383 112.716 237 111.816 237C110.883 237 110.099 237.383 109.466 238.15C108.833 238.883 108.516 239.983 108.516 241.45V257.35C108.516 258.783 108.833 259.883 109.466 260.65C110.099 261.383 110.883 261.75 111.816 261.75ZM131.64 264.65C130.074 264.617 128.674 264.283 127.44 263.65C126.24 262.983 125.29 261.95 124.59 260.55C123.924 259.15 123.59 257.3 123.59 255V242.7C123.59 239.767 124.357 237.6 125.89 236.2C127.424 234.8 129.374 234.1 131.74 234.1C134.04 234.1 135.94 234.8 137.44 236.2C138.94 237.6 139.69 239.767 139.69 242.7V254.95C139.69 257.283 139.34 259.167 138.64 260.6C137.974 262.033 137.024 263.067 135.79 263.7C134.59 264.333 133.207 264.65 131.64 264.65ZM131.64 261.75C132.574 261.75 133.357 261.383 133.99 260.65C134.624 259.883 134.94 258.783 134.94 257.35V241.45C134.94 239.983 134.607 238.883 133.94 238.15C133.307 237.383 132.54 237 131.64 237C130.707 237 129.924 237.383 129.29 238.15C128.657 238.883 128.34 239.983 128.34 241.45V257.35C128.34 258.783 128.657 259.883 129.29 260.65C129.924 261.383 130.707 261.75 131.64 261.75ZM152.357 269.8V239.25H156.907L157.007 241.3C157.307 240.667 157.774 240.1 158.407 239.6C159.04 239.1 160.074 238.85 161.507 238.85C162.807 238.85 163.874 239.083 164.707 239.55C165.574 239.983 166.207 240.65 166.607 241.55C167.007 242.417 167.207 243.533 167.207 244.9V257C167.207 258.667 167.024 260.05 166.657 261.15C166.29 262.217 165.69 263.017 164.857 263.55C164.024 264.05 162.907 264.3 161.507 264.3C160.274 264.3 159.307 264.1 158.607 263.7C157.907 263.3 157.39 262.817 157.057 262.25V269.8H152.357ZM159.807 261.6C160.474 261.6 160.99 261.517 161.357 261.35C161.724 261.15 161.99 260.883 162.157 260.55C162.324 260.217 162.424 259.833 162.457 259.4C162.49 258.967 162.507 258.5 162.507 258V245.45C162.507 244.95 162.49 244.483 162.457 244.05C162.424 243.617 162.324 243.233 162.157 242.9C161.99 242.533 161.724 242.267 161.357 242.1C160.99 241.9 160.474 241.8 159.807 241.8C159.14 241.8 158.624 241.917 158.257 242.15C157.89 242.383 157.624 242.683 157.457 243.05C157.29 243.383 157.174 243.767 157.107 244.2C157.074 244.633 157.057 245.033 157.057 245.4V258.2C157.057 258.867 157.124 259.467 157.257 260C157.39 260.5 157.64 260.9 158.007 261.2C158.407 261.467 159.007 261.6 159.807 261.6ZM173.308 269.85C172.442 269.85 171.642 269.783 170.908 269.65C170.175 269.517 169.592 269.4 169.158 269.3V266.75C169.358 266.783 169.625 266.833 169.958 266.9C170.325 267 170.742 267.05 171.208 267.05C171.675 267.05 172.192 266.967 172.758 266.8C173.325 266.667 173.742 266.233 174.008 265.5C174.142 265.2 174.275 264.85 174.408 264.45C174.575 264.083 174.608 263.65 174.508 263.15L169.158 239.25H174.008L177.658 259.4L181.208 239.25H185.658L180.608 262.3C180.075 264.933 179.225 266.85 178.058 268.05C176.892 269.25 175.308 269.85 173.308 269.85ZM194.804 264.35C193.237 264.35 191.904 264.15 190.804 263.75C189.737 263.35 188.904 262.683 188.304 261.75C187.737 260.783 187.454 259.5 187.454 257.9V240.1C187.454 238.433 187.621 237.083 187.954 236.05C188.321 234.983 188.904 234.2 189.704 233.7C190.537 233.167 191.654 232.9 193.054 232.9C193.721 232.9 194.471 232.867 195.304 232.8C196.171 232.7 197.004 232.583 197.804 232.45C198.637 232.317 199.337 232.167 199.904 232C200.471 231.833 200.804 231.683 200.904 231.55V233.55C200.904 234.017 200.587 234.483 199.954 234.95C199.354 235.383 198.371 235.617 197.004 235.65H196.304C195.237 235.65 194.404 235.783 193.804 236.05C193.204 236.317 192.771 236.75 192.504 237.35C192.271 237.917 192.137 238.667 192.104 239.6V242.4C192.404 241.833 192.921 241.317 193.654 240.85C194.387 240.383 195.404 240.15 196.704 240.15C197.937 240.15 198.987 240.35 199.854 240.75C200.721 241.117 201.387 241.733 201.854 242.6C202.321 243.467 202.554 244.683 202.554 246.25V256.7C202.554 258.267 202.404 259.55 202.104 260.55C201.837 261.517 201.387 262.283 200.754 262.85C200.154 263.417 199.354 263.8 198.354 264C197.387 264.233 196.204 264.35 194.804 264.35ZM195.004 261.55C195.837 261.55 196.454 261.4 196.854 261.1C197.287 260.767 197.571 260.317 197.704 259.75C197.837 259.183 197.904 258.533 197.904 257.8V246.7C197.904 246 197.837 245.383 197.704 244.85C197.571 244.317 197.304 243.9 196.904 243.6C196.504 243.3 195.887 243.15 195.054 243.15C194.354 243.15 193.804 243.25 193.404 243.45C193.004 243.617 192.704 243.867 192.504 244.2C192.337 244.5 192.221 244.833 192.154 245.2C192.121 245.567 192.104 245.933 192.104 246.3V257.8C192.104 258.533 192.171 259.183 192.304 259.75C192.437 260.317 192.704 260.767 193.104 261.1C193.537 261.4 194.171 261.55 195.004 261.55ZM209.31 264.4C208.61 264.4 208.01 264.167 207.51 263.7C207.01 263.2 206.76 262.617 206.76 261.95C206.76 261.25 207.01 260.667 207.51 260.2C208.01 259.733 208.61 259.5 209.31 259.5C210.01 259.5 210.61 259.733 211.11 260.2C211.643 260.667 211.91 261.25 211.91 261.95C211.91 262.617 211.643 263.2 211.11 263.7C210.61 264.167 210.01 264.4 209.31 264.4Z" fill="#6BB673"/>
<path d="M40.3 343.8V336.7H33.5V331.85H40.3V324.75H45.2V331.85H52.05V336.7H45.2V343.8H40.3ZM64.1777 353.55V345.2H66.1277C66.5277 345.133 66.9444 344.95 67.3777 344.65C67.8111 344.35 68.1944 343.883 68.5277 343.25C68.8944 342.583 69.1277 341.717 69.2277 340.65L71.0777 323.25H84.4277V345.2H88.3777V353.55H84.4277V348.85H68.1277V353.55H64.1777ZM72.3777 345.2H79.4277V326.7H75.3777L73.8777 340.15C73.7777 341.05 73.6277 342.017 73.4277 343.05C73.2277 344.083 72.8777 344.8 72.3777 345.2ZM98.4996 348.4C96.8663 348.4 95.4829 348.2 94.3496 347.8C93.2496 347.367 92.4163 346.583 91.8496 345.45C91.3163 344.317 91.0496 342.683 91.0496 340.55V329.65C91.0496 327.15 91.6496 325.383 92.8496 324.35C94.0496 323.317 95.9329 322.8 98.4996 322.8C101.033 322.8 102.9 323.317 104.1 324.35C105.3 325.35 105.9 327.117 105.9 329.65V340.55C105.9 342.683 105.616 344.317 105.05 345.45C104.516 346.583 103.7 347.367 102.6 347.8C101.5 348.2 100.133 348.4 98.4996 348.4ZM98.4996 345.55C99.4663 345.55 100.15 345.3 100.55 344.8C100.983 344.267 101.2 343.333 101.2 342V329.25C101.2 327.95 101 327.033 100.6 326.5C100.2 325.967 99.4996 325.7 98.4996 325.7C97.5329 325.7 96.8329 325.967 96.3996 326.5C95.9663 327 95.7496 327.917 95.7496 329.25V342C95.7496 343.333 95.9663 344.267 96.3996 344.8C96.8329 345.3 97.5329 345.55 98.4996 345.55ZM109.363 348V323.25H114.063V333.3H119.863V323.25H124.513V348H119.863V336.9H114.063V348H109.363ZM135.563 348.4C133.863 348.4 132.446 348.217 131.313 347.85C130.213 347.45 129.379 346.7 128.813 345.6C128.279 344.5 128.013 342.85 128.013 340.65V329.05C128.013 326.65 128.613 325.017 129.813 324.15C131.013 323.25 132.879 322.8 135.413 322.8C137.946 322.8 139.813 323.25 141.012 324.15C142.213 325.017 142.813 326.65 142.813 329.05V335.65H132.713V342.5C132.713 343.733 132.896 344.6 133.263 345.1C133.663 345.6 134.413 345.85 135.513 345.85C136.513 345.85 137.196 345.617 137.563 345.15C137.929 344.65 138.113 343.767 138.113 342.5V338.85H142.813V340.6C142.813 342.767 142.529 344.417 141.963 345.55C141.429 346.683 140.629 347.45 139.563 347.85C138.496 348.217 137.163 348.4 135.563 348.4ZM132.713 333.45H138.113V328.85C138.113 327.717 137.929 326.9 137.563 326.4C137.196 325.9 136.479 325.65 135.413 325.65C134.379 325.65 133.663 325.9 133.263 326.4C132.896 326.9 132.713 327.717 132.713 328.85V333.45ZM146.032 348V323.25H150.232V339.55L156.882 323.25H161.082V348H156.932V330.65C155.766 333.55 154.599 336.45 153.432 339.35C152.299 342.217 151.116 345.1 149.882 348H146.032ZM153.482 320.7C152.049 320.7 150.949 320.433 150.182 319.9C149.416 319.367 148.882 318.733 148.582 318C148.316 317.233 148.166 316.55 148.132 315.95H150.782C150.849 316.783 151.132 317.4 151.632 317.8C152.166 318.2 152.782 318.4 153.482 318.4C154.249 318.4 154.882 318.217 155.382 317.85C155.916 317.45 156.216 316.817 156.282 315.95H158.932C158.899 316.717 158.699 317.467 158.332 318.2C157.966 318.933 157.382 319.533 156.582 320C155.816 320.467 154.782 320.7 153.482 320.7ZM164.685 348V323.25H169.385V344.6H174.185V323.25H178.885V344.6H183.685V323.25H188.385V348H164.685ZM192.029 348V323.25H196.729V333.3H202.529V323.25H207.179V348H202.529V336.9H196.729V348H192.029Z" fill="#6BB673"/>
<path d="M70.824 280.992C70.0133 281.792 69.0213 282.192 67.848 282.192C66.6747 282.192 65.6773 281.792 64.856 280.992C64.0453 280.181 63.64 279.184 63.64 278C63.64 276.816 64.0453 275.824 64.856 275.024C65.6773 274.213 66.6747 273.808 67.848 273.808C69.0213 273.808 70.0133 274.213 70.824 275.024C71.6453 275.824 72.056 276.816 72.056 278C72.056 279.184 71.6453 280.181 70.824 280.992ZM65.608 280.256C66.216 280.864 66.9627 281.168 67.848 281.168C68.7333 281.168 69.48 280.864 70.088 280.256C70.696 279.637 71 278.885 71 278C71 277.115 70.696 276.368 70.088 275.76C69.48 275.141 68.7333 274.832 67.848 274.832C66.9627 274.832 66.216 275.141 65.608 275.76C65 276.368 64.696 277.115 64.696 278C64.696 278.885 65 279.637 65.608 280.256ZM78.1111 273.808C79.2525 273.808 80.2231 274.213 81.0231 275.024C81.8338 275.835 82.2391 276.827 82.2391 278C82.2391 279.173 81.8338 280.165 81.0231 280.976C80.2231 281.787 79.2525 282.192 78.1111 282.192C76.6925 282.192 75.6151 281.605 74.8791 280.432V285.2H73.8231V274H74.8791V275.568C75.6151 274.395 76.6925 273.808 78.1111 273.808ZM75.7911 280.256C76.3991 280.864 77.1458 281.168 78.0311 281.168C78.9165 281.168 79.6631 280.864 80.2711 280.256C80.8791 279.637 81.1831 278.885 81.1831 278C81.1831 277.115 80.8791 276.368 80.2711 275.76C79.6631 275.141 78.9165 274.832 78.0311 274.832C77.1458 274.832 76.3991 275.141 75.7911 275.76C75.1831 276.368 74.8791 277.115 74.8791 278C74.8791 278.885 75.1831 279.637 75.7911 280.256ZM89.115 274V275.024H85.051V282H83.995V274H89.115ZM90.3078 281.904C90.1371 282.075 89.9291 282.16 89.6838 282.16C89.4384 282.16 89.2304 282.075 89.0598 281.904C88.8891 281.733 88.8038 281.525 88.8038 281.28C88.8038 281.035 88.8891 280.827 89.0598 280.656C89.2304 280.485 89.4384 280.4 89.6838 280.4C89.9291 280.4 90.1371 280.485 90.3078 280.656C90.4784 280.827 90.5638 281.035 90.5638 281.28C90.5638 281.525 90.4784 281.733 90.3078 281.904ZM101.739 277.888C102.614 278.208 103.051 278.832 103.051 279.76C103.051 280.411 102.833 280.949 102.395 281.376C101.969 281.792 101.35 282 100.539 282H96.6513V274H100.219C100.998 274 101.601 274.203 102.027 274.608C102.454 275.003 102.667 275.515 102.667 276.144C102.667 276.944 102.358 277.525 101.739 277.888ZM100.219 275.024H97.7073V277.456H100.219C101.147 277.456 101.611 277.04 101.611 276.208C101.611 275.835 101.489 275.547 101.243 275.344C101.009 275.131 100.667 275.024 100.219 275.024ZM100.539 280.976C101.009 280.976 101.366 280.864 101.611 280.64C101.867 280.416 101.995 280.101 101.995 279.696C101.995 279.323 101.867 279.029 101.611 278.816C101.366 278.592 101.009 278.48 100.539 278.48H97.7073V280.976H100.539ZM108.779 277.888C109.707 278.24 110.171 278.88 110.171 279.808C110.171 280.469 109.91 281.035 109.387 281.504C108.875 281.963 108.139 282.192 107.179 282.192C105.569 282.192 104.513 281.552 104.011 280.272L104.907 279.744C105.238 280.693 105.995 281.168 107.179 281.168C107.798 281.168 108.273 281.035 108.603 280.768C108.945 280.501 109.115 280.16 109.115 279.744C109.115 279.371 108.977 279.067 108.699 278.832C108.422 278.597 108.049 278.48 107.579 278.48H106.411V277.456H107.259C107.718 277.456 108.075 277.344 108.331 277.12C108.598 276.885 108.731 276.565 108.731 276.16C108.731 275.776 108.577 275.461 108.267 275.216C107.958 274.96 107.542 274.832 107.019 274.832C106.017 274.832 105.35 275.232 105.019 276.032L104.139 275.52C104.673 274.379 105.633 273.808 107.019 273.808C107.862 273.808 108.534 274.032 109.035 274.48C109.537 274.917 109.787 275.456 109.787 276.096C109.787 276.917 109.451 277.515 108.779 277.888ZM117.44 274H118.496V282H117.44V278.512H112.832V282H111.776V274H112.832V277.488H117.44V274ZM127.433 280.992C126.623 281.792 125.631 282.192 124.457 282.192C123.284 282.192 122.287 281.792 121.465 280.992C120.655 280.181 120.249 279.184 120.249 278C120.249 276.816 120.655 275.824 121.465 275.024C122.287 274.213 123.284 273.808 124.457 273.808C125.631 273.808 126.623 274.213 127.433 275.024C128.255 275.824 128.665 276.816 128.665 278C128.665 279.184 128.255 280.181 127.433 280.992ZM122.217 280.256C122.825 280.864 123.572 281.168 124.457 281.168C125.343 281.168 126.089 280.864 126.697 280.256C127.305 279.637 127.609 278.885 127.609 278C127.609 277.115 127.305 276.368 126.697 275.76C126.089 275.141 125.343 274.832 124.457 274.832C123.572 274.832 122.825 275.141 122.217 275.76C121.609 276.368 121.305 277.115 121.305 278C121.305 278.885 121.609 279.637 122.217 280.256ZM134.161 282.192C132.955 282.192 131.953 281.792 131.153 280.992C130.353 280.181 129.953 279.184 129.953 278C129.953 276.816 130.353 275.824 131.153 275.024C131.953 274.213 132.955 273.808 134.161 273.808C134.95 273.808 135.659 274 136.289 274.384C136.918 274.757 137.377 275.264 137.665 275.904L136.801 276.4C136.587 275.92 136.241 275.541 135.761 275.264C135.291 274.976 134.758 274.832 134.161 274.832C133.275 274.832 132.529 275.141 131.921 275.76C131.313 276.368 131.009 277.115 131.009 278C131.009 278.885 131.313 279.637 131.921 280.256C132.529 280.864 133.275 281.168 134.161 281.168C134.758 281.168 135.291 281.029 135.761 280.752C136.23 280.464 136.598 280.08 136.865 279.6L137.745 280.112C137.414 280.752 136.929 281.259 136.289 281.632C135.649 282.005 134.939 282.192 134.161 282.192Z" fill="#2D3548"/>
<path d="M69.208 364.888C70.0827 365.208 70.52 365.832 70.52 366.76C70.52 367.411 70.3013 367.949 69.864 368.376C69.4373 368.792 68.8187 369 68.008 369H64.12V361H67.688C68.4667 361 69.0693 361.203 69.496 361.608C69.9227 362.003 70.136 362.515 70.136 363.144C70.136 363.944 69.8267 364.525 69.208 364.888ZM67.688 362.024H65.176V364.456H67.688C68.616 364.456 69.08 364.04 69.08 363.208C69.08 362.835 68.9573 362.547 68.712 362.344C68.4773 362.131 68.136 362.024 67.688 362.024ZM68.008 367.976C68.4773 367.976 68.8347 367.864 69.08 367.64C69.336 367.416 69.464 367.101 69.464 366.696C69.464 366.323 69.336 366.029 69.08 365.816C68.8347 365.592 68.4773 365.48 68.008 365.48H65.176V367.976H68.008ZM76.248 364.888C77.176 365.24 77.64 365.88 77.64 366.808C77.64 367.469 77.3787 368.035 76.856 368.504C76.344 368.963 75.608 369.192 74.648 369.192C73.0373 369.192 71.9813 368.552 71.48 367.272L72.376 366.744C72.7067 367.693 73.464 368.168 74.648 368.168C75.2667 368.168 75.7413 368.035 76.072 367.768C76.4133 367.501 76.584 367.16 76.584 366.744C76.584 366.371 76.4453 366.067 76.168 365.832C75.8907 365.597 75.5173 365.48 75.048 365.48H73.88V364.456H74.728C75.1867 364.456 75.544 364.344 75.8 364.12C76.0667 363.885 76.2 363.565 76.2 363.16C76.2 362.776 76.0453 362.461 75.736 362.216C75.4267 361.96 75.0107 361.832 74.488 361.832C73.4853 361.832 72.8187 362.232 72.488 363.032L71.608 362.52C72.1413 361.379 73.1013 360.808 74.488 360.808C75.3307 360.808 76.0027 361.032 76.504 361.48C77.0053 361.917 77.256 362.456 77.256 363.096C77.256 363.917 76.92 364.515 76.248 364.888ZM84.909 361H85.965V369H84.909V365.512H80.301V369H79.245V361H80.301V364.488H84.909V361ZM94.9021 367.992C94.0915 368.792 93.0995 369.192 91.9261 369.192C90.7528 369.192 89.7555 368.792 88.9341 367.992C88.1235 367.181 87.7181 366.184 87.7181 365C87.7181 363.816 88.1235 362.824 88.9341 362.024C89.7555 361.213 90.7528 360.808 91.9261 360.808C93.0995 360.808 94.0915 361.213 94.9021 362.024C95.7235 362.824 96.1341 363.816 96.1341 365C96.1341 366.184 95.7235 367.181 94.9021 367.992ZM89.6861 367.256C90.2941 367.864 91.0408 368.168 91.9261 368.168C92.8115 368.168 93.5581 367.864 94.1661 367.256C94.7741 366.637 95.0781 365.885 95.0781 365C95.0781 364.115 94.7741 363.368 94.1661 362.76C93.5581 362.141 92.8115 361.832 91.9261 361.832C91.0408 361.832 90.2941 362.141 89.6861 362.76C89.0781 363.368 88.7741 364.115 88.7741 365C88.7741 365.885 89.0781 366.637 89.6861 367.256ZM101.629 369.192C100.424 369.192 99.4213 368.792 98.6213 367.992C97.8213 367.181 97.4213 366.184 97.4213 365C97.4213 363.816 97.8213 362.824 98.6213 362.024C99.4213 361.213 100.424 360.808 101.629 360.808C102.419 360.808 103.128 361 103.757 361.384C104.387 361.757 104.845 362.264 105.133 362.904L104.269 363.4C104.056 362.92 103.709 362.541 103.229 362.264C102.76 361.976 102.227 361.832 101.629 361.832C100.744 361.832 99.9973 362.141 99.3893 362.76C98.7813 363.368 98.4773 364.115 98.4773 365C98.4773 365.885 98.7813 366.637 99.3893 367.256C99.9973 367.864 100.744 368.168 101.629 368.168C102.227 368.168 102.76 368.029 103.229 367.752C103.699 367.464 104.067 367.08 104.333 366.6L105.213 367.112C104.883 367.752 104.397 368.259 103.757 368.632C103.117 369.005 102.408 369.192 101.629 369.192ZM117.449 361V369H116.393V362.024H111.785V369H110.729V361H117.449ZM126.387 367.992C125.576 368.792 124.584 369.192 123.411 369.192C122.237 369.192 121.24 368.792 120.419 367.992C119.608 367.181 119.203 366.184 119.203 365C119.203 363.816 119.608 362.824 120.419 362.024C121.24 361.213 122.237 360.808 123.411 360.808C124.584 360.808 125.576 361.213 126.387 362.024C127.208 362.824 127.619 363.816 127.619 365C127.619 366.184 127.208 367.181 126.387 367.992ZM121.171 367.256C121.779 367.864 122.525 368.168 123.411 368.168C124.296 368.168 125.043 367.864 125.651 367.256C126.259 366.637 126.562 365.885 126.562 365C126.562 364.115 126.259 363.368 125.651 362.76C125.043 362.141 124.296 361.832 123.411 361.832C122.525 361.832 121.779 362.141 121.171 362.76C120.563 363.368 120.259 364.115 120.259 365C120.259 365.885 120.563 366.637 121.171 367.256ZM137.114 369.192C135.908 369.192 134.906 368.792 134.106 367.992C133.306 367.181 132.906 366.184 132.906 365C132.906 363.816 133.306 362.824 134.106 362.024C134.906 361.213 135.908 360.808 137.114 360.808C137.903 360.808 138.612 361 139.242 361.384C139.871 361.757 140.33 362.264 140.618 362.904L139.754 363.4C139.54 362.92 139.194 362.541 138.714 362.264C138.244 361.976 137.711 361.832 137.114 361.832C136.228 361.832 135.482 362.141 134.874 362.76C134.266 363.368 133.962 364.115 133.962 365C133.962 365.885 134.266 366.637 134.874 367.256C135.482 367.864 136.228 368.168 137.114 368.168C137.711 368.168 138.244 368.029 138.714 367.752C139.183 367.464 139.551 367.08 139.818 366.6L140.698 367.112C140.367 367.752 139.882 368.259 139.242 368.632C138.602 369.005 137.892 369.192 137.114 369.192ZM145.832 360.808C147.016 360.808 147.97 361.229 148.696 362.072C149.432 362.904 149.8 363.891 149.8 365.032C149.8 365.149 149.789 365.315 149.768 365.528H142.744C142.85 366.339 143.192 366.984 143.768 367.464C144.354 367.933 145.074 368.168 145.928 368.168C146.536 368.168 147.058 368.045 147.496 367.8C147.944 367.544 148.28 367.213 148.504 366.808L149.432 367.352C149.08 367.917 148.6 368.365 147.992 368.696C147.384 369.027 146.69 369.192 145.912 369.192C144.653 369.192 143.629 368.797 142.84 368.008C142.05 367.219 141.656 366.216 141.656 365C141.656 363.805 142.045 362.808 142.824 362.008C143.602 361.208 144.605 360.808 145.832 360.808ZM145.832 361.832C145 361.832 144.301 362.083 143.736 362.584C143.181 363.075 142.85 363.715 142.744 364.504H148.712C148.605 363.661 148.28 363.005 147.736 362.536C147.192 362.067 146.557 361.832 145.832 361.832ZM155.767 360.808C156.909 360.808 157.879 361.213 158.679 362.024C159.49 362.835 159.895 363.827 159.895 365C159.895 366.173 159.49 367.165 158.679 367.976C157.879 368.787 156.909 369.192 155.767 369.192C154.349 369.192 153.271 368.605 152.535 367.432V372.2H151.479V361H152.535V362.568C153.271 361.395 154.349 360.808 155.767 360.808ZM153.447 367.256C154.055 367.864 154.802 368.168 155.687 368.168C156.573 368.168 157.319 367.864 157.927 367.256C158.535 366.637 158.839 365.885 158.839 365C158.839 364.115 158.535 363.368 157.927 362.76C157.319 362.141 156.573 361.832 155.687 361.832C154.802 361.832 154.055 362.141 153.447 362.76C152.839 363.368 152.535 364.115 152.535 365C152.535 365.885 152.839 366.637 153.447 367.256ZM168.059 367.976H169.179V371.144H168.123V369H161.595V371.144H160.539V367.976H161.515C162.059 367.261 162.331 366.253 162.331 364.952V361H168.059V367.976ZM162.795 367.976H167.003V362.024H163.387V364.952C163.387 366.179 163.189 367.187 162.795 367.976ZM177.336 367.976H178.616V371.144H177.56V369H170.776V361H171.832V367.976H176.28V361H177.336V367.976ZM185.661 361H186.781L183.357 369.736C183.048 370.525 182.605 371.144 182.029 371.592C181.464 372.051 180.829 372.253 180.125 372.2V371.208C181.085 371.315 181.816 370.76 182.317 369.544L182.525 369.048L178.941 361H180.061L183.069 367.704L185.661 361Z" fill="#2D3548"/>
<path d="M64.5 120V102.27H72.51V104.31H67.5V120H64.5ZM73.9287 123.48V105.15H76.6587L76.7187 106.38C76.8987 106 77.1787 105.66 77.5587 105.36C77.9387 105.06 78.5587 104.91 79.4187 104.91C80.1987 104.91 80.8387 105.05 81.3387 105.33C81.8587 105.59 82.2387 105.99 82.4787 106.53C82.7187 107.05 82.8387 107.72 82.8387 108.54V115.8C82.8387 116.8 82.7287 117.63 82.5087 118.29C82.2887 118.93 81.9287 119.41 81.4287 119.73C80.9287 120.03 80.2587 120.18 79.4187 120.18C78.6787 120.18 78.0987 120.06 77.6787 119.82C77.2587 119.58 76.9487 119.29 76.7487 118.95V123.48H73.9287ZM78.3987 118.56C78.7987 118.56 79.1087 118.51 79.3287 118.41C79.5487 118.29 79.7087 118.13 79.8087 117.93C79.9087 117.73 79.9687 117.5 79.9887 117.24C80.0087 116.98 80.0187 116.7 80.0187 116.4V108.87C80.0187 108.57 80.0087 108.29 79.9887 108.03C79.9687 107.77 79.9087 107.54 79.8087 107.34C79.7087 107.12 79.5487 106.96 79.3287 106.86C79.1087 106.74 78.7987 106.68 78.3987 106.68C77.9987 106.68 77.6887 106.75 77.4687 106.89C77.2487 107.03 77.0887 107.21 76.9887 107.43C76.8887 107.63 76.8187 107.86 76.7787 108.12C76.7587 108.38 76.7487 108.62 76.7487 108.84V116.52C76.7487 116.92 76.7887 117.28 76.8687 117.6C76.9487 117.9 77.0987 118.14 77.3187 118.32C77.5587 118.48 77.9187 118.56 78.3987 118.56ZM86.4994 123.51C85.9794 123.51 85.4994 123.47 85.0594 123.39C84.6194 123.31 84.2694 123.24 84.0094 123.18V121.65C84.1294 121.67 84.2894 121.7 84.4894 121.74C84.7094 121.8 84.9594 121.83 85.2394 121.83C85.5194 121.83 85.8294 121.78 86.1694 121.68C86.5094 121.6 86.7594 121.34 86.9194 120.9C86.9994 120.72 87.0794 120.51 87.1594 120.27C87.2594 120.05 87.2794 119.79 87.2194 119.49L84.0094 105.15H86.9194L89.1094 117.24L91.2394 105.15H93.9094L90.8794 118.98C90.5594 120.56 90.0494 121.71 89.3494 122.43C88.6494 123.15 87.6994 123.51 86.4994 123.51ZM95.0468 120V105.15H104.167V120H101.347V107.19H97.8668V120H95.0468ZM106.355 120V105.15H115.475V120H112.655V107.19H109.175V120H106.355ZM120.544 120.24C120.044 120.24 119.564 120.17 119.104 120.03C118.664 119.89 118.284 119.6 117.964 119.16C117.664 118.7 117.514 118 117.514 117.06V115.29C117.514 114.31 117.794 113.53 118.354 112.95C118.934 112.35 119.794 111.82 120.934 111.36C121.594 111.08 122.114 110.83 122.494 110.61C122.894 110.39 123.184 110.13 123.364 109.83C123.544 109.53 123.634 109.12 123.634 108.6V107.85C123.634 107.47 123.554 107.18 123.394 106.98C123.254 106.78 123.064 106.64 122.824 106.56C122.604 106.46 122.344 106.41 122.044 106.41C121.384 106.41 120.944 106.61 120.724 107.01C120.524 107.41 120.424 108.05 120.424 108.93V110.19H117.874V108.66C117.874 107.92 117.974 107.27 118.174 106.71C118.374 106.13 118.774 105.68 119.374 105.36C119.974 105.02 120.864 104.85 122.044 104.85C123.264 104.85 124.184 104.97 124.804 105.21C125.444 105.45 125.884 105.82 126.124 106.32C126.364 106.8 126.484 107.42 126.484 108.18V120H123.664V118.29C123.464 118.91 123.064 119.39 122.464 119.73C121.884 120.07 121.244 120.24 120.544 120.24ZM121.714 118.35C122.394 118.35 122.874 118.11 123.154 117.63C123.454 117.13 123.604 116.44 123.604 115.56V111.39C123.464 111.63 123.214 111.85 122.854 112.05C122.494 112.25 122.144 112.46 121.804 112.68C121.304 112.98 120.924 113.3 120.664 113.64C120.404 113.96 120.274 114.41 120.274 114.99V116.4C120.274 116.94 120.334 117.36 120.454 117.66C120.594 117.94 120.774 118.13 120.994 118.23C121.234 118.31 121.474 118.35 121.714 118.35ZM63.6 156.33V151.32H64.77C65.01 151.28 65.26 151.17 65.52 150.99C65.78 150.81 66.01 150.53 66.21 150.15C66.43 149.75 66.57 149.23 66.63 148.59L67.74 138.15H75.75V151.32H78.12V156.33H75.75V153.51H65.97V156.33H63.6ZM68.52 151.32H72.75V140.22H70.32L69.42 148.29C69.36 148.83 69.27 149.41 69.15 150.03C69.03 150.65 68.82 151.08 68.52 151.32ZM79.1531 153V151.5C79.5331 151.5 79.8731 151.29 80.1731 150.87C80.4731 150.45 80.6431 149.9 80.6831 149.22L81.6431 138.15H90.1631V153H87.2831V140.19H84.4931L83.5631 150C83.5231 150.28 83.4731 150.6 83.4131 150.96C83.3731 151.3 83.2631 151.63 83.0831 151.95C82.9231 152.25 82.6731 152.5 82.3331 152.7C81.9931 152.9 81.5131 153 80.8931 153H79.1531ZM92.0222 153L93.7922 148.02C94.0322 147.36 94.3022 146.88 94.6022 146.58C94.9222 146.28 95.2822 146.11 95.6822 146.07C94.7422 145.99 94.0322 145.7 93.5522 145.2C93.0922 144.68 92.8622 143.86 92.8622 142.74V141.69C92.8622 140.47 93.1722 139.58 93.7922 139.02C94.4122 138.44 95.2822 138.15 96.4022 138.15H102.102V153H99.1322V146.37L97.7822 146.79C97.4622 147.13 97.1722 147.58 96.9122 148.14C96.6722 148.68 96.4422 149.29 96.2222 149.97L95.2322 153H92.0222ZM97.6022 145.2H99.1322V139.74H97.1222C96.7022 139.74 96.3622 139.95 96.1022 140.37C95.8422 140.77 95.7122 141.27 95.7122 141.87V142.59C95.7322 143.59 95.9022 144.28 96.2222 144.66C96.5622 145.02 97.0222 145.2 97.6022 145.2ZM109.49 153V138.15H115.37C116.49 138.15 117.35 138.4 117.95 138.9C118.57 139.4 118.88 140.16 118.88 141.18V142.2C118.88 143.12 118.63 143.85 118.13 144.39C117.65 144.93 116.96 145.23 116.06 145.29V145.26C116.94 145.26 117.68 145.53 118.28 146.07C118.88 146.59 119.18 147.42 119.18 148.56V149.31C119.18 150.29 119.01 151.05 118.67 151.59C118.35 152.13 117.88 152.5 117.26 152.7C116.66 152.9 115.94 153 115.1 153H109.49ZM112.49 151.53H114.35C114.73 151.53 115.05 151.48 115.31 151.38C115.57 151.26 115.76 151.05 115.88 150.75C116.02 150.45 116.09 150.01 116.09 149.43V148.14C116.09 147.68 116.01 147.32 115.85 147.06C115.71 146.8 115.5 146.62 115.22 146.52C114.94 146.42 114.62 146.37 114.26 146.37H112.49V151.53ZM112.49 144.48H114.23C114.83 144.48 115.28 144.32 115.58 144C115.88 143.68 116.03 143.18 116.03 142.5V141.24C116.03 140.76 115.89 140.39 115.61 140.13C115.33 139.87 114.97 139.74 114.53 139.74H112.49V144.48ZM125.945 152.97C124.485 152.97 123.415 152.66 122.735 152.04C122.075 151.4 121.745 150.49 121.745 149.31V147.69H124.265V148.68C124.265 149.52 124.395 150.15 124.655 150.57C124.935 150.97 125.395 151.17 126.035 151.17C126.655 151.17 127.125 150.99 127.445 150.63C127.785 150.27 127.955 149.76 127.955 149.1V147.63C127.955 146.99 127.725 146.54 127.265 146.28C126.825 146 126.185 145.86 125.345 145.86H123.515V144.45H125.195C125.555 144.45 125.925 144.4 126.305 144.3C126.685 144.2 126.975 144.05 127.175 143.85C127.395 143.67 127.565 143.48 127.685 143.28C127.805 143.06 127.865 142.77 127.865 142.41V141.24C127.865 140.72 127.695 140.3 127.355 139.98C127.035 139.64 126.615 139.47 126.095 139.47C125.435 139.47 124.975 139.68 124.715 140.1C124.455 140.5 124.325 141.03 124.325 141.69V142.65H121.805V141.39C121.805 140.25 122.135 139.39 122.795 138.81C123.475 138.21 124.545 137.91 126.005 137.91C127.625 137.91 128.795 138.19 129.515 138.75C130.235 139.31 130.595 140.16 130.595 141.3V142.26C130.595 143.02 130.365 143.67 129.905 144.21C129.445 144.75 128.745 145.09 127.805 145.23C128.725 145.31 129.425 145.6 129.905 146.1C130.405 146.6 130.655 147.29 130.655 148.17V149.25C130.655 150.55 130.285 151.5 129.545 152.1C128.805 152.68 127.605 152.97 125.945 152.97ZM133.372 156.48V138.15H136.102L136.162 139.38C136.342 139 136.622 138.66 137.002 138.36C137.382 138.06 138.002 137.91 138.862 137.91C139.642 137.91 140.282 138.05 140.782 138.33C141.302 138.59 141.682 138.99 141.922 139.53C142.162 140.05 142.282 140.72 142.282 141.54V148.8C142.282 149.8 142.172 150.63 141.952 151.29C141.732 151.93 141.372 152.41 140.872 152.73C140.372 153.03 139.702 153.18 138.862 153.18C138.122 153.18 137.542 153.06 137.122 152.82C136.702 152.58 136.392 152.29 136.192 151.95V156.48H133.372ZM137.842 151.56C138.242 151.56 138.552 151.51 138.772 151.41C138.992 151.29 139.152 151.13 139.252 150.93C139.352 150.73 139.412 150.5 139.432 150.24C139.452 149.98 139.462 149.7 139.462 149.4V141.87C139.462 141.57 139.452 141.29 139.432 141.03C139.412 140.77 139.352 140.54 139.252 140.34C139.152 140.12 138.992 139.96 138.772 139.86C138.552 139.74 138.242 139.68 137.842 139.68C137.442 139.68 137.132 139.75 136.912 139.89C136.692 140.03 136.532 140.21 136.432 140.43C136.332 140.63 136.262 140.86 136.222 141.12C136.202 141.38 136.192 141.62 136.192 141.84V149.52C136.192 149.92 136.232 150.28 136.312 150.6C136.392 150.9 136.542 151.14 136.762 151.32C137.002 151.48 137.362 151.56 137.842 151.56ZM148.793 153.24C147.813 153.24 146.983 153.12 146.303 152.88C145.643 152.62 145.143 152.15 144.803 151.47C144.483 150.79 144.323 149.81 144.323 148.53V141.99C144.323 140.49 144.683 139.43 145.403 138.81C146.123 138.19 147.253 137.88 148.793 137.88C150.313 137.88 151.433 138.19 152.153 138.81C152.873 139.41 153.233 140.47 153.233 141.99V148.53C153.233 149.81 153.063 150.79 152.723 151.47C152.403 152.15 151.913 152.62 151.253 152.88C150.593 153.12 149.773 153.24 148.793 153.24ZM148.793 151.53C149.373 151.53 149.783 151.38 150.023 151.08C150.283 150.76 150.413 150.2 150.413 149.4V141.75C150.413 140.97 150.293 140.42 150.053 140.1C149.813 139.78 149.393 139.62 148.793 139.62C148.213 139.62 147.793 139.78 147.533 140.1C147.273 140.4 147.143 140.95 147.143 141.75V149.4C147.143 150.2 147.273 150.76 147.533 151.08C147.793 151.38 148.213 151.53 148.793 151.53ZM159.78 153.24C158.76 153.24 157.91 153.13 157.23 152.91C156.57 152.69 156.07 152.25 155.73 151.59C155.41 150.93 155.25 149.95 155.25 148.65V141.81C155.25 140.31 155.61 139.28 156.33 138.72C157.05 138.16 158.17 137.88 159.69 137.88C161.21 137.88 162.33 138.15 163.05 138.69C163.77 139.23 164.13 140.21 164.13 141.63V143.7H161.31V141.51C161.31 140.81 161.2 140.31 160.98 140.01C160.76 139.71 160.33 139.56 159.69 139.56C159.07 139.56 158.64 139.71 158.4 140.01C158.18 140.31 158.07 140.81 158.07 141.51V149.52C158.07 150.26 158.18 150.78 158.4 151.08C158.64 151.38 159.09 151.53 159.75 151.53C160.35 151.53 160.76 151.39 160.98 151.11C161.2 150.81 161.31 150.28 161.31 149.52V147.18H164.13V148.65C164.13 149.93 163.96 150.91 163.62 151.59C163.3 152.25 162.81 152.69 162.15 152.91C161.51 153.13 160.72 153.24 159.78 153.24ZM165.432 153V151.5C165.812 151.5 166.152 151.29 166.452 150.87C166.752 150.45 166.922 149.9 166.962 149.22L167.922 138.15H176.442V153H173.562V140.19H170.772L169.842 150C169.802 150.28 169.752 150.6 169.692 150.96C169.652 151.3 169.542 151.63 169.362 151.95C169.202 152.25 168.952 152.5 168.612 152.7C168.272 152.9 167.792 153 167.172 153H165.432ZM178.571 153V138.18H181.391V142.8H184.151C184.911 142.8 185.551 142.92 186.071 143.16C186.591 143.4 186.981 143.79 187.241 144.33C187.501 144.85 187.631 145.55 187.631 146.43V148.11C187.631 149.05 187.561 149.84 187.421 150.48C187.281 151.1 187.051 151.6 186.731 151.98C186.431 152.34 186.031 152.6 185.531 152.76C185.051 152.92 184.471 153 183.791 153H178.571ZM181.391 151.5H183.131C183.631 151.5 184.001 151.41 184.241 151.23C184.481 151.03 184.631 150.76 184.691 150.42C184.771 150.08 184.811 149.69 184.811 149.25V146.88C184.811 146.44 184.781 146.05 184.721 145.71C184.661 145.35 184.511 145.07 184.271 144.87C184.051 144.67 183.671 144.57 183.131 144.57H181.391V151.5ZM190.031 153V138.15H192.851V153H190.031ZM194.223 153L197.343 145.23L194.763 138.15H197.433L199.203 143.07L201.213 138.15H203.823L201.003 145.23L203.913 153H201.213L199.203 147.63L197.013 153H194.223ZM207.182 144.9C206.762 144.9 206.402 144.76 206.102 144.48C205.802 144.18 205.652 143.83 205.652 143.43C205.652 143.01 205.802 142.66 206.102 142.38C206.402 142.1 206.762 141.96 207.182 141.96C207.602 141.96 207.962 142.1 208.262 142.38C208.582 142.66 208.742 143.01 208.742 143.43C208.742 143.83 208.582 144.18 208.262 144.48C207.962 144.76 207.602 144.9 207.182 144.9ZM207.182 153.24C206.762 153.24 206.402 153.1 206.102 152.82C205.802 152.52 205.652 152.17 205.652 151.77C205.652 151.35 205.802 151 206.102 150.72C206.402 150.44 206.762 150.3 207.182 150.3C207.602 150.3 207.962 150.44 208.262 150.72C208.582 151 208.742 151.35 208.742 151.77C208.742 152.17 208.582 152.52 208.262 152.82C207.962 153.1 207.602 153.24 207.182 153.24Z" fill="#2D3548"/>
<path d="M37.092 38.154C36.256 38.154 35.5667 38.022 35.024 37.758C34.496 37.494 34.1073 37.12 33.858 36.636C33.6087 36.152 33.484 35.5873 33.484 34.942V33.512H35.596V34.436C35.596 35.14 35.7133 35.6827 35.948 36.064C36.1827 36.4307 36.5567 36.6213 37.07 36.636C37.5393 36.636 37.8987 36.4673 38.148 36.13C38.3973 35.7927 38.522 35.3453 38.522 34.788V33.534C38.522 32.9913 38.3387 32.5953 37.972 32.346C37.6053 32.082 37.092 31.9427 36.432 31.928H35.31V30.696H36.454C36.762 30.696 37.048 30.652 37.312 30.564C37.576 30.476 37.796 30.344 37.972 30.168C38.148 30.0067 38.2727 29.8307 38.346 29.64C38.4193 29.4493 38.456 29.244 38.456 29.024V28.166C38.456 27.6967 38.346 27.2933 38.126 26.956C37.9207 26.6187 37.5687 26.45 37.07 26.45C36.542 26.45 36.1753 26.6407 35.97 27.022C35.7647 27.3887 35.662 27.8873 35.662 28.518V29.134H33.528V28.012C33.528 27.0147 33.814 26.252 34.386 25.724C34.9727 25.196 35.8747 24.932 37.092 24.932C38.3533 24.932 39.2627 25.1813 39.82 25.68C40.3773 26.164 40.656 26.8827 40.656 27.836V28.716C40.656 29.464 40.4653 30.0653 40.084 30.52C39.7173 30.9747 39.1967 31.2607 38.522 31.378C39.226 31.4513 39.7687 31.7227 40.15 32.192C40.5313 32.6613 40.722 33.27 40.722 34.018V34.942C40.722 35.6313 40.5973 36.218 40.348 36.702C40.1133 37.186 39.732 37.5527 39.204 37.802C38.676 38.0367 37.972 38.154 37.092 38.154ZM41.9965 38L44.5265 24.998H47.4745L49.9605 38H47.6285L47.1005 35.36H44.7245L44.2405 38H41.9965ZM44.7685 34.282H47.0785L45.9345 27.044L44.7685 34.282ZM55.2105 40.442V36.658H56.3545C56.6479 36.6287 56.9045 36.46 57.1245 36.152C57.3592 35.8293 57.5059 35.3747 57.5645 34.788C57.6232 34.2307 57.6819 33.6147 57.7405 32.94C57.8139 32.2507 57.8799 31.5467 57.9385 30.828C58.0119 30.0947 58.0705 29.376 58.1145 28.672C58.1732 27.968 58.2245 27.3007 58.2685 26.67C58.3125 26.0393 58.3492 25.482 58.3785 24.998H64.6925V36.658H66.8045V40.442H65.0445V38.374H56.9705V40.442H55.2105ZM59.0605 36.658H62.6245V26.494H60.3585C60.2412 27.8433 60.1312 29.1853 60.0285 30.52C59.9405 31.8547 59.8379 33.1967 59.7205 34.546C59.6912 34.9273 59.6252 35.3307 59.5225 35.756C59.4345 36.1667 59.2805 36.4673 59.0605 36.658ZM72.0741 38.264C71.3847 38.264 70.7761 38.1833 70.2481 38.022C69.7347 37.8607 69.3314 37.5307 69.0381 37.032C68.7447 36.5187 68.5981 35.756 68.5981 34.744V27.726C68.5981 26.934 68.7447 26.3327 69.0381 25.922C69.3314 25.4967 69.7421 25.2033 70.2701 25.042C70.7981 24.8807 71.4067 24.8 72.0961 24.8C72.7854 24.8 73.3867 24.888 73.9001 25.064C74.4281 25.2253 74.8461 25.5187 75.1541 25.944C75.4621 26.3547 75.6161 26.9487 75.6161 27.726V34.722C75.6161 35.7633 75.4621 36.5333 75.1541 37.032C74.8461 37.5307 74.4281 37.8607 73.9001 38.022C73.3721 38.1833 72.7634 38.264 72.0741 38.264ZM72.0741 37.01C72.3527 37.01 72.6021 36.9733 72.8221 36.9C73.0421 36.812 73.2107 36.658 73.3281 36.438C73.4454 36.218 73.5041 35.8953 73.5041 35.47V27.66C73.5041 27.2493 73.4454 26.934 73.3281 26.714C73.2107 26.4793 73.0421 26.3253 72.8221 26.252C72.6021 26.164 72.3527 26.12 72.0741 26.12C71.7954 26.12 71.5461 26.164 71.3261 26.252C71.1207 26.3253 70.9594 26.4793 70.8421 26.714C70.7247 26.934 70.6661 27.2493 70.6661 27.66V35.47C70.6661 35.8953 70.7247 36.218 70.8421 36.438C70.9594 36.658 71.1207 36.812 71.3261 36.9C71.5461 36.9733 71.7954 37.01 72.0741 37.01ZM78.0871 38V24.998H80.1771V30.454H82.9711V24.998H85.0611V38H82.9711V32.038H80.1771V38H78.0871ZM87.7009 38V24.998H93.5529V26.494H89.9009V30.432H92.9149V32.082H89.9009V36.548H93.5529V38H87.7009ZM95.553 38V24.998H97.423V33.776L100.657 24.998H102.505V38H100.635V29.706L97.423 38H95.553ZM99.007 24.118C98.3764 24.118 97.8924 24.0007 97.555 23.766C97.2177 23.5313 96.983 23.2527 96.851 22.93C96.7337 22.5927 96.6677 22.292 96.653 22.028H97.819C97.8484 22.3947 97.973 22.666 98.193 22.842C98.4277 23.018 98.699 23.106 99.007 23.106C99.3444 23.106 99.623 23.0253 99.843 22.864C100.078 22.688 100.21 22.4093 100.239 22.028H101.405C101.39 22.3653 101.302 22.6953 101.141 23.018C100.98 23.3407 100.723 23.6047 100.371 23.81C100.034 24.0153 99.579 24.118 99.007 24.118ZM105.145 38V24.998H107.345V36.504H109.919V24.998H112.097V36.504H114.671V24.998H116.871V38H105.145ZM119.507 38V24.998H121.597V30.454H124.391V24.998H126.481V38H124.391V32.038H121.597V38H119.507Z" fill="#7C9D81"/>
<path d="M31 193L295 193" stroke="#B8B8B8"/>
</svg>
