<svg width="313" height="444" viewBox="0 0 313 444" fill="none" xmlns="http://www.w3.org/2000/svg">
<rect y="22" width="313" height="422" rx="35" fill="white"/>
<path d="M0 35C0 15.67 15.67 0 35 0H278C297.33 0 313 15.67 313 35V60H0V35Z" fill="#C5ECC8"/>
<path d="M64.6 264C64.6 263 64.6 262.033 64.6 261.1C64.6 260.133 64.6 259.15 64.6 258.15C64.6 256.383 64.8167 255 65.25 254C65.7167 252.967 66.4 252.117 67.3 251.45C68.2333 250.783 69.4 250.1 70.8 249.4C71.9667 248.833 72.9167 248.25 73.65 247.65C74.3833 247.05 74.9333 246.317 75.3 245.45C75.6667 244.55 75.85 243.45 75.85 242.15C75.85 240.717 75.6 239.633 75.1 238.9C74.6333 238.133 73.8167 237.75 72.65 237.75C71.55 237.75 70.7333 238.167 70.2 239C69.7 239.8 69.45 241.017 69.45 242.65V244.85H64.7V241.4C64.7 239 65.3833 237.217 66.75 236.05C68.1167 234.883 70.1 234.3 72.7 234.3C74.7333 234.3 76.3333 234.583 77.5 235.15C78.7 235.717 79.55 236.6 80.05 237.8C80.55 238.967 80.8 240.483 80.8 242.35C80.8 244.65 80.3833 246.533 79.55 248C78.7167 249.467 77.4 250.7 75.6 251.7C74.7 252.133 73.8667 252.567 73.1 253C72.3667 253.433 71.7167 253.933 71.15 254.5C70.6167 255.067 70.2667 255.783 70.1 256.65C69.9333 257.183 69.8 257.733 69.7 258.3C69.6 258.833 69.5333 259.417 69.5 260.05H81V264H64.6ZM92.0406 264.65C90.474 264.617 89.074 264.283 87.8406 263.65C86.6406 262.983 85.6906 261.95 84.9906 260.55C84.324 259.15 83.9906 257.3 83.9906 255V242.7C83.9906 239.767 84.7573 237.6 86.2906 236.2C87.824 234.8 89.774 234.1 92.1406 234.1C94.4406 234.1 96.3406 234.8 97.8406 236.2C99.3406 237.6 100.091 239.767 100.091 242.7V254.95C100.091 257.283 99.7406 259.167 99.0406 260.6C98.374 262.033 97.424 263.067 96.1906 263.7C94.9906 264.333 93.6073 264.65 92.0406 264.65ZM92.0406 261.75C92.974 261.75 93.7573 261.383 94.3906 260.65C95.024 259.883 95.3406 258.783 95.3406 257.35V241.45C95.3406 239.983 95.0073 238.883 94.3406 238.15C93.7073 237.383 92.9406 237 92.0406 237C91.1073 237 90.324 237.383 89.6906 238.15C89.0573 238.883 88.7406 239.983 88.7406 241.45V257.35C88.7406 258.783 89.0573 259.883 89.6906 260.65C90.324 261.383 91.1073 261.75 92.0406 261.75ZM111.865 264.65C110.298 264.617 108.898 264.283 107.665 263.65C106.465 262.983 105.515 261.95 104.815 260.55C104.148 259.15 103.815 257.3 103.815 255V242.7C103.815 239.767 104.582 237.6 106.115 236.2C107.648 234.8 109.598 234.1 111.965 234.1C114.265 234.1 116.165 234.8 117.665 236.2C119.165 237.6 119.915 239.767 119.915 242.7V254.95C119.915 257.283 119.565 259.167 118.865 260.6C118.198 262.033 117.248 263.067 116.015 263.7C114.815 264.333 113.432 264.65 111.865 264.65ZM111.865 261.75C112.798 261.75 113.582 261.383 114.215 260.65C114.848 259.883 115.165 258.783 115.165 257.35V241.45C115.165 239.983 114.832 238.883 114.165 238.15C113.532 237.383 112.765 237 111.865 237C110.932 237 110.148 237.383 109.515 238.15C108.882 238.883 108.565 239.983 108.565 241.45V257.35C108.565 258.783 108.882 259.883 109.515 260.65C110.148 261.383 110.932 261.75 111.865 261.75ZM131.689 264.65C130.122 264.617 128.722 264.283 127.489 263.65C126.289 262.983 125.339 261.95 124.639 260.55C123.972 259.15 123.639 257.3 123.639 255V242.7C123.639 239.767 124.406 237.6 125.939 236.2C127.472 234.8 129.422 234.1 131.789 234.1C134.089 234.1 135.989 234.8 137.489 236.2C138.989 237.6 139.739 239.767 139.739 242.7V254.95C139.739 257.283 139.389 259.167 138.689 260.6C138.022 262.033 137.072 263.067 135.839 263.7C134.639 264.333 133.256 264.65 131.689 264.65ZM131.689 261.75C132.622 261.75 133.406 261.383 134.039 260.65C134.672 259.883 134.989 258.783 134.989 257.35V241.45C134.989 239.983 134.656 238.883 133.989 238.15C133.356 237.383 132.589 237 131.689 237C130.756 237 129.972 237.383 129.339 238.15C128.706 238.883 128.389 239.983 128.389 241.45V257.35C128.389 258.783 128.706 259.883 129.339 260.65C129.972 261.383 130.756 261.75 131.689 261.75ZM152.406 269.8V239.25H156.956L157.056 241.3C157.356 240.667 157.823 240.1 158.456 239.6C159.089 239.1 160.123 238.85 161.556 238.85C162.856 238.85 163.923 239.083 164.756 239.55C165.623 239.983 166.256 240.65 166.656 241.55C167.056 242.417 167.256 243.533 167.256 244.9V257C167.256 258.667 167.073 260.05 166.706 261.15C166.339 262.217 165.739 263.017 164.906 263.55C164.073 264.05 162.956 264.3 161.556 264.3C160.323 264.3 159.356 264.1 158.656 263.7C157.956 263.3 157.439 262.817 157.106 262.25V269.8H152.406ZM159.856 261.6C160.523 261.6 161.039 261.517 161.406 261.35C161.773 261.15 162.039 260.883 162.206 260.55C162.373 260.217 162.473 259.833 162.506 259.4C162.539 258.967 162.556 258.5 162.556 258V245.45C162.556 244.95 162.539 244.483 162.506 244.05C162.473 243.617 162.373 243.233 162.206 242.9C162.039 242.533 161.773 242.267 161.406 242.1C161.039 241.9 160.523 241.8 159.856 241.8C159.189 241.8 158.673 241.917 158.306 242.15C157.939 242.383 157.673 242.683 157.506 243.05C157.339 243.383 157.223 243.767 157.156 244.2C157.123 244.633 157.106 245.033 157.106 245.4V258.2C157.106 258.867 157.173 259.467 157.306 260C157.439 260.5 157.689 260.9 158.056 261.2C158.456 261.467 159.056 261.6 159.856 261.6ZM173.357 269.85C172.49 269.85 171.69 269.783 170.957 269.65C170.224 269.517 169.64 269.4 169.207 269.3V266.75C169.407 266.783 169.674 266.833 170.007 266.9C170.374 267 170.79 267.05 171.257 267.05C171.724 267.05 172.24 266.967 172.807 266.8C173.374 266.667 173.79 266.233 174.057 265.5C174.19 265.2 174.324 264.85 174.457 264.45C174.624 264.083 174.657 263.65 174.557 263.15L169.207 239.25H174.057L177.707 259.4L181.257 239.25H185.707L180.657 262.3C180.124 264.933 179.274 266.85 178.107 268.05C176.94 269.25 175.357 269.85 173.357 269.85ZM194.853 264.35C193.286 264.35 191.953 264.15 190.853 263.75C189.786 263.35 188.953 262.683 188.353 261.75C187.786 260.783 187.503 259.5 187.503 257.9V240.1C187.503 238.433 187.669 237.083 188.003 236.05C188.369 234.983 188.953 234.2 189.753 233.7C190.586 233.167 191.703 232.9 193.103 232.9C193.769 232.9 194.519 232.867 195.353 232.8C196.219 232.7 197.053 232.583 197.853 232.45C198.686 232.317 199.386 232.167 199.953 232C200.519 231.833 200.853 231.683 200.953 231.55V233.55C200.953 234.017 200.636 234.483 200.003 234.95C199.403 235.383 198.419 235.617 197.053 235.65H196.353C195.286 235.65 194.453 235.783 193.853 236.05C193.253 236.317 192.819 236.75 192.553 237.35C192.319 237.917 192.186 238.667 192.153 239.6V242.4C192.453 241.833 192.969 241.317 193.703 240.85C194.436 240.383 195.453 240.15 196.753 240.15C197.986 240.15 199.036 240.35 199.903 240.75C200.769 241.117 201.436 241.733 201.903 242.6C202.369 243.467 202.603 244.683 202.603 246.25V256.7C202.603 258.267 202.453 259.55 202.153 260.55C201.886 261.517 201.436 262.283 200.803 262.85C200.203 263.417 199.403 263.8 198.403 264C197.436 264.233 196.253 264.35 194.853 264.35ZM195.053 261.55C195.886 261.55 196.503 261.4 196.903 261.1C197.336 260.767 197.619 260.317 197.753 259.75C197.886 259.183 197.953 258.533 197.953 257.8V246.7C197.953 246 197.886 245.383 197.753 244.85C197.619 244.317 197.353 243.9 196.953 243.6C196.553 243.3 195.936 243.15 195.103 243.15C194.403 243.15 193.853 243.25 193.453 243.45C193.053 243.617 192.753 243.867 192.553 244.2C192.386 244.5 192.269 244.833 192.203 245.2C192.169 245.567 192.153 245.933 192.153 246.3V257.8C192.153 258.533 192.219 259.183 192.353 259.75C192.486 260.317 192.753 260.767 193.153 261.1C193.586 261.4 194.219 261.55 195.053 261.55ZM209.359 264.4C208.659 264.4 208.059 264.167 207.559 263.7C207.059 263.2 206.809 262.617 206.809 261.95C206.809 261.25 207.059 260.667 207.559 260.2C208.059 259.733 208.659 259.5 209.359 259.5C210.059 259.5 210.659 259.733 211.159 260.2C211.692 260.667 211.959 261.25 211.959 261.95C211.959 262.617 211.692 263.2 211.159 263.7C210.659 264.167 210.059 264.4 209.359 264.4Z" fill="#6BB673"/>
<path d="M40.3 343.8V336.7H33.5V331.85H40.3V324.75H45.2V331.85H52.05V336.7H45.2V343.8H40.3ZM64.1777 353.55V345.2H66.1277C66.5277 345.133 66.9444 344.95 67.3777 344.65C67.8111 344.35 68.1944 343.883 68.5277 343.25C68.8944 342.583 69.1277 341.717 69.2277 340.65L71.0777 323.25H84.4277V345.2H88.3777V353.55H84.4277V348.85H68.1277V353.55H64.1777ZM72.3777 345.2H79.4277V326.7H75.3777L73.8777 340.15C73.7777 341.05 73.6277 342.017 73.4277 343.05C73.2277 344.083 72.8777 344.8 72.3777 345.2ZM98.4996 348.4C96.8663 348.4 95.4829 348.2 94.3496 347.8C93.2496 347.367 92.4163 346.583 91.8496 345.45C91.3163 344.317 91.0496 342.683 91.0496 340.55V329.65C91.0496 327.15 91.6496 325.383 92.8496 324.35C94.0496 323.317 95.9329 322.8 98.4996 322.8C101.033 322.8 102.9 323.317 104.1 324.35C105.3 325.35 105.9 327.117 105.9 329.65V340.55C105.9 342.683 105.616 344.317 105.05 345.45C104.516 346.583 103.7 347.367 102.6 347.8C101.5 348.2 100.133 348.4 98.4996 348.4ZM98.4996 345.55C99.4663 345.55 100.15 345.3 100.55 344.8C100.983 344.267 101.2 343.333 101.2 342V329.25C101.2 327.95 101 327.033 100.6 326.5C100.2 325.967 99.4996 325.7 98.4996 325.7C97.5329 325.7 96.8329 325.967 96.3996 326.5C95.9663 327 95.7496 327.917 95.7496 329.25V342C95.7496 343.333 95.9663 344.267 96.3996 344.8C96.8329 345.3 97.5329 345.55 98.4996 345.55ZM109.363 348V323.25H114.063V333.3H119.863V323.25H124.513V348H119.863V336.9H114.063V348H109.363ZM135.563 348.4C133.863 348.4 132.446 348.217 131.313 347.85C130.213 347.45 129.379 346.7 128.813 345.6C128.279 344.5 128.013 342.85 128.013 340.65V329.05C128.013 326.65 128.613 325.017 129.813 324.15C131.013 323.25 132.879 322.8 135.413 322.8C137.946 322.8 139.813 323.25 141.012 324.15C142.213 325.017 142.813 326.65 142.813 329.05V335.65H132.713V342.5C132.713 343.733 132.896 344.6 133.263 345.1C133.663 345.6 134.413 345.85 135.513 345.85C136.513 345.85 137.196 345.617 137.563 345.15C137.929 344.65 138.113 343.767 138.113 342.5V338.85H142.813V340.6C142.813 342.767 142.529 344.417 141.963 345.55C141.429 346.683 140.629 347.45 139.563 347.85C138.496 348.217 137.163 348.4 135.563 348.4ZM132.713 333.45H138.113V328.85C138.113 327.717 137.929 326.9 137.563 326.4C137.196 325.9 136.479 325.65 135.413 325.65C134.379 325.65 133.663 325.9 133.263 326.4C132.896 326.9 132.713 327.717 132.713 328.85V333.45ZM146.032 348V323.25H150.232V339.55L156.882 323.25H161.082V348H156.932V330.65C155.766 333.55 154.599 336.45 153.432 339.35C152.299 342.217 151.116 345.1 149.882 348H146.032ZM153.482 320.7C152.049 320.7 150.949 320.433 150.182 319.9C149.416 319.367 148.882 318.733 148.582 318C148.316 317.233 148.166 316.55 148.132 315.95H150.782C150.849 316.783 151.132 317.4 151.632 317.8C152.166 318.2 152.782 318.4 153.482 318.4C154.249 318.4 154.882 318.217 155.382 317.85C155.916 317.45 156.216 316.817 156.282 315.95H158.932C158.899 316.717 158.699 317.467 158.332 318.2C157.966 318.933 157.382 319.533 156.582 320C155.816 320.467 154.782 320.7 153.482 320.7ZM164.685 348V323.25H169.385V344.6H174.185V323.25H178.885V344.6H183.685V323.25H188.385V348H164.685ZM192.029 348V323.25H196.729V333.3H202.529V323.25H207.179V348H202.529V336.9H196.729V348H192.029Z" fill="#6BB673"/>
<path d="M70.824 280.992C70.0133 281.792 69.0213 282.192 67.848 282.192C66.6747 282.192 65.6773 281.792 64.856 280.992C64.0453 280.181 63.64 279.184 63.64 278C63.64 276.816 64.0453 275.824 64.856 275.024C65.6773 274.213 66.6747 273.808 67.848 273.808C69.0213 273.808 70.0133 274.213 70.824 275.024C71.6453 275.824 72.056 276.816 72.056 278C72.056 279.184 71.6453 280.181 70.824 280.992ZM65.608 280.256C66.216 280.864 66.9627 281.168 67.848 281.168C68.7333 281.168 69.48 280.864 70.088 280.256C70.696 279.637 71 278.885 71 278C71 277.115 70.696 276.368 70.088 275.76C69.48 275.141 68.7333 274.832 67.848 274.832C66.9627 274.832 66.216 275.141 65.608 275.76C65 276.368 64.696 277.115 64.696 278C64.696 278.885 65 279.637 65.608 280.256ZM78.1111 273.808C79.2525 273.808 80.2231 274.213 81.0231 275.024C81.8338 275.835 82.2391 276.827 82.2391 278C82.2391 279.173 81.8338 280.165 81.0231 280.976C80.2231 281.787 79.2525 282.192 78.1111 282.192C76.6925 282.192 75.6151 281.605 74.8791 280.432V285.2H73.8231V274H74.8791V275.568C75.6151 274.395 76.6925 273.808 78.1111 273.808ZM75.7911 280.256C76.3991 280.864 77.1458 281.168 78.0311 281.168C78.9165 281.168 79.6631 280.864 80.2711 280.256C80.8791 279.637 81.1831 278.885 81.1831 278C81.1831 277.115 80.8791 276.368 80.2711 275.76C79.6631 275.141 78.9165 274.832 78.0311 274.832C77.1458 274.832 76.3991 275.141 75.7911 275.76C75.1831 276.368 74.8791 277.115 74.8791 278C74.8791 278.885 75.1831 279.637 75.7911 280.256ZM89.115 274V275.024H85.051V282H83.995V274H89.115ZM90.3078 281.904C90.1371 282.075 89.9291 282.16 89.6838 282.16C89.4384 282.16 89.2304 282.075 89.0598 281.904C88.8891 281.733 88.8038 281.525 88.8038 281.28C88.8038 281.035 88.8891 280.827 89.0598 280.656C89.2304 280.485 89.4384 280.4 89.6838 280.4C89.9291 280.4 90.1371 280.485 90.3078 280.656C90.4784 280.827 90.5638 281.035 90.5638 281.28C90.5638 281.525 90.4784 281.733 90.3078 281.904ZM101.739 277.888C102.614 278.208 103.051 278.832 103.051 279.76C103.051 280.411 102.833 280.949 102.395 281.376C101.969 281.792 101.35 282 100.539 282H96.6513V274H100.219C100.998 274 101.601 274.203 102.027 274.608C102.454 275.003 102.667 275.515 102.667 276.144C102.667 276.944 102.358 277.525 101.739 277.888ZM100.219 275.024H97.7073V277.456H100.219C101.147 277.456 101.611 277.04 101.611 276.208C101.611 275.835 101.489 275.547 101.243 275.344C101.009 275.131 100.667 275.024 100.219 275.024ZM100.539 280.976C101.009 280.976 101.366 280.864 101.611 280.64C101.867 280.416 101.995 280.101 101.995 279.696C101.995 279.323 101.867 279.029 101.611 278.816C101.366 278.592 101.009 278.48 100.539 278.48H97.7073V280.976H100.539ZM108.779 277.888C109.707 278.24 110.171 278.88 110.171 279.808C110.171 280.469 109.91 281.035 109.387 281.504C108.875 281.963 108.139 282.192 107.179 282.192C105.569 282.192 104.513 281.552 104.011 280.272L104.907 279.744C105.238 280.693 105.995 281.168 107.179 281.168C107.798 281.168 108.273 281.035 108.603 280.768C108.945 280.501 109.115 280.16 109.115 279.744C109.115 279.371 108.977 279.067 108.699 278.832C108.422 278.597 108.049 278.48 107.579 278.48H106.411V277.456H107.259C107.718 277.456 108.075 277.344 108.331 277.12C108.598 276.885 108.731 276.565 108.731 276.16C108.731 275.776 108.577 275.461 108.267 275.216C107.958 274.96 107.542 274.832 107.019 274.832C106.017 274.832 105.35 275.232 105.019 276.032L104.139 275.52C104.673 274.379 105.633 273.808 107.019 273.808C107.862 273.808 108.534 274.032 109.035 274.48C109.537 274.917 109.787 275.456 109.787 276.096C109.787 276.917 109.451 277.515 108.779 277.888ZM117.44 274H118.496V282H117.44V278.512H112.832V282H111.776V274H112.832V277.488H117.44V274ZM127.433 280.992C126.623 281.792 125.631 282.192 124.457 282.192C123.284 282.192 122.287 281.792 121.465 280.992C120.655 280.181 120.249 279.184 120.249 278C120.249 276.816 120.655 275.824 121.465 275.024C122.287 274.213 123.284 273.808 124.457 273.808C125.631 273.808 126.623 274.213 127.433 275.024C128.255 275.824 128.665 276.816 128.665 278C128.665 279.184 128.255 280.181 127.433 280.992ZM122.217 280.256C122.825 280.864 123.572 281.168 124.457 281.168C125.343 281.168 126.089 280.864 126.697 280.256C127.305 279.637 127.609 278.885 127.609 278C127.609 277.115 127.305 276.368 126.697 275.76C126.089 275.141 125.343 274.832 124.457 274.832C123.572 274.832 122.825 275.141 122.217 275.76C121.609 276.368 121.305 277.115 121.305 278C121.305 278.885 121.609 279.637 122.217 280.256ZM134.161 282.192C132.955 282.192 131.953 281.792 131.153 280.992C130.353 280.181 129.953 279.184 129.953 278C129.953 276.816 130.353 275.824 131.153 275.024C131.953 274.213 132.955 273.808 134.161 273.808C134.95 273.808 135.659 274 136.289 274.384C136.918 274.757 137.377 275.264 137.665 275.904L136.801 276.4C136.587 275.92 136.241 275.541 135.761 275.264C135.291 274.976 134.758 274.832 134.161 274.832C133.275 274.832 132.529 275.141 131.921 275.76C131.313 276.368 131.009 277.115 131.009 278C131.009 278.885 131.313 279.637 131.921 280.256C132.529 280.864 133.275 281.168 134.161 281.168C134.758 281.168 135.291 281.029 135.761 280.752C136.23 280.464 136.598 280.08 136.865 279.6L137.745 280.112C137.414 280.752 136.929 281.259 136.289 281.632C135.649 282.005 134.939 282.192 134.161 282.192Z" fill="#2D3548"/>
<path d="M69.208 364.888C70.0827 365.208 70.52 365.832 70.52 366.76C70.52 367.411 70.3013 367.949 69.864 368.376C69.4373 368.792 68.8187 369 68.008 369H64.12V361H67.688C68.4667 361 69.0693 361.203 69.496 361.608C69.9227 362.003 70.136 362.515 70.136 363.144C70.136 363.944 69.8267 364.525 69.208 364.888ZM67.688 362.024H65.176V364.456H67.688C68.616 364.456 69.08 364.04 69.08 363.208C69.08 362.835 68.9573 362.547 68.712 362.344C68.4773 362.131 68.136 362.024 67.688 362.024ZM68.008 367.976C68.4773 367.976 68.8347 367.864 69.08 367.64C69.336 367.416 69.464 367.101 69.464 366.696C69.464 366.323 69.336 366.029 69.08 365.816C68.8347 365.592 68.4773 365.48 68.008 365.48H65.176V367.976H68.008ZM76.248 364.888C77.176 365.24 77.64 365.88 77.64 366.808C77.64 367.469 77.3787 368.035 76.856 368.504C76.344 368.963 75.608 369.192 74.648 369.192C73.0373 369.192 71.9813 368.552 71.48 367.272L72.376 366.744C72.7067 367.693 73.464 368.168 74.648 368.168C75.2667 368.168 75.7413 368.035 76.072 367.768C76.4133 367.501 76.584 367.16 76.584 366.744C76.584 366.371 76.4453 366.067 76.168 365.832C75.8907 365.597 75.5173 365.48 75.048 365.48H73.88V364.456H74.728C75.1867 364.456 75.544 364.344 75.8 364.12C76.0667 363.885 76.2 363.565 76.2 363.16C76.2 362.776 76.0453 362.461 75.736 362.216C75.4267 361.96 75.0107 361.832 74.488 361.832C73.4853 361.832 72.8187 362.232 72.488 363.032L71.608 362.52C72.1413 361.379 73.1013 360.808 74.488 360.808C75.3307 360.808 76.0027 361.032 76.504 361.48C77.0053 361.917 77.256 362.456 77.256 363.096C77.256 363.917 76.92 364.515 76.248 364.888ZM84.909 361H85.965V369H84.909V365.512H80.301V369H79.245V361H80.301V364.488H84.909V361ZM94.9021 367.992C94.0915 368.792 93.0995 369.192 91.9261 369.192C90.7528 369.192 89.7555 368.792 88.9341 367.992C88.1235 367.181 87.7181 366.184 87.7181 365C87.7181 363.816 88.1235 362.824 88.9341 362.024C89.7555 361.213 90.7528 360.808 91.9261 360.808C93.0995 360.808 94.0915 361.213 94.9021 362.024C95.7235 362.824 96.1341 363.816 96.1341 365C96.1341 366.184 95.7235 367.181 94.9021 367.992ZM89.6861 367.256C90.2941 367.864 91.0408 368.168 91.9261 368.168C92.8115 368.168 93.5581 367.864 94.1661 367.256C94.7741 366.637 95.0781 365.885 95.0781 365C95.0781 364.115 94.7741 363.368 94.1661 362.76C93.5581 362.141 92.8115 361.832 91.9261 361.832C91.0408 361.832 90.2941 362.141 89.6861 362.76C89.0781 363.368 88.7741 364.115 88.7741 365C88.7741 365.885 89.0781 366.637 89.6861 367.256ZM101.629 369.192C100.424 369.192 99.4213 368.792 98.6213 367.992C97.8213 367.181 97.4213 366.184 97.4213 365C97.4213 363.816 97.8213 362.824 98.6213 362.024C99.4213 361.213 100.424 360.808 101.629 360.808C102.419 360.808 103.128 361 103.757 361.384C104.387 361.757 104.845 362.264 105.133 362.904L104.269 363.4C104.056 362.92 103.709 362.541 103.229 362.264C102.76 361.976 102.227 361.832 101.629 361.832C100.744 361.832 99.9973 362.141 99.3893 362.76C98.7813 363.368 98.4773 364.115 98.4773 365C98.4773 365.885 98.7813 366.637 99.3893 367.256C99.9973 367.864 100.744 368.168 101.629 368.168C102.227 368.168 102.76 368.029 103.229 367.752C103.699 367.464 104.067 367.08 104.333 366.6L105.213 367.112C104.883 367.752 104.397 368.259 103.757 368.632C103.117 369.005 102.408 369.192 101.629 369.192ZM117.449 361V369H116.393V362.024H111.785V369H110.729V361H117.449ZM126.387 367.992C125.576 368.792 124.584 369.192 123.411 369.192C122.237 369.192 121.24 368.792 120.419 367.992C119.608 367.181 119.203 366.184 119.203 365C119.203 363.816 119.608 362.824 120.419 362.024C121.24 361.213 122.237 360.808 123.411 360.808C124.584 360.808 125.576 361.213 126.387 362.024C127.208 362.824 127.619 363.816 127.619 365C127.619 366.184 127.208 367.181 126.387 367.992ZM121.171 367.256C121.779 367.864 122.525 368.168 123.411 368.168C124.296 368.168 125.043 367.864 125.651 367.256C126.259 366.637 126.562 365.885 126.562 365C126.562 364.115 126.259 363.368 125.651 362.76C125.043 362.141 124.296 361.832 123.411 361.832C122.525 361.832 121.779 362.141 121.171 362.76C120.563 363.368 120.259 364.115 120.259 365C120.259 365.885 120.563 366.637 121.171 367.256ZM137.114 369.192C135.908 369.192 134.906 368.792 134.106 367.992C133.306 367.181 132.906 366.184 132.906 365C132.906 363.816 133.306 362.824 134.106 362.024C134.906 361.213 135.908 360.808 137.114 360.808C137.903 360.808 138.612 361 139.242 361.384C139.871 361.757 140.33 362.264 140.618 362.904L139.754 363.4C139.54 362.92 139.194 362.541 138.714 362.264C138.244 361.976 137.711 361.832 137.114 361.832C136.228 361.832 135.482 362.141 134.874 362.76C134.266 363.368 133.962 364.115 133.962 365C133.962 365.885 134.266 366.637 134.874 367.256C135.482 367.864 136.228 368.168 137.114 368.168C137.711 368.168 138.244 368.029 138.714 367.752C139.183 367.464 139.551 367.08 139.818 366.6L140.698 367.112C140.367 367.752 139.882 368.259 139.242 368.632C138.602 369.005 137.892 369.192 137.114 369.192ZM145.832 360.808C147.016 360.808 147.97 361.229 148.696 362.072C149.432 362.904 149.8 363.891 149.8 365.032C149.8 365.149 149.789 365.315 149.768 365.528H142.744C142.85 366.339 143.192 366.984 143.768 367.464C144.354 367.933 145.074 368.168 145.928 368.168C146.536 368.168 147.058 368.045 147.496 367.8C147.944 367.544 148.28 367.213 148.504 366.808L149.432 367.352C149.08 367.917 148.6 368.365 147.992 368.696C147.384 369.027 146.69 369.192 145.912 369.192C144.653 369.192 143.629 368.797 142.84 368.008C142.05 367.219 141.656 366.216 141.656 365C141.656 363.805 142.045 362.808 142.824 362.008C143.602 361.208 144.605 360.808 145.832 360.808ZM145.832 361.832C145 361.832 144.301 362.083 143.736 362.584C143.181 363.075 142.85 363.715 142.744 364.504H148.712C148.605 363.661 148.28 363.005 147.736 362.536C147.192 362.067 146.557 361.832 145.832 361.832ZM155.767 360.808C156.909 360.808 157.879 361.213 158.679 362.024C159.49 362.835 159.895 363.827 159.895 365C159.895 366.173 159.49 367.165 158.679 367.976C157.879 368.787 156.909 369.192 155.767 369.192C154.349 369.192 153.271 368.605 152.535 367.432V372.2H151.479V361H152.535V362.568C153.271 361.395 154.349 360.808 155.767 360.808ZM153.447 367.256C154.055 367.864 154.802 368.168 155.687 368.168C156.573 368.168 157.319 367.864 157.927 367.256C158.535 366.637 158.839 365.885 158.839 365C158.839 364.115 158.535 363.368 157.927 362.76C157.319 362.141 156.573 361.832 155.687 361.832C154.802 361.832 154.055 362.141 153.447 362.76C152.839 363.368 152.535 364.115 152.535 365C152.535 365.885 152.839 366.637 153.447 367.256ZM168.059 367.976H169.179V371.144H168.123V369H161.595V371.144H160.539V367.976H161.515C162.059 367.261 162.331 366.253 162.331 364.952V361H168.059V367.976ZM162.795 367.976H167.003V362.024H163.387V364.952C163.387 366.179 163.189 367.187 162.795 367.976ZM177.336 367.976H178.616V371.144H177.56V369H170.776V361H171.832V367.976H176.28V361H177.336V367.976ZM185.661 361H186.781L183.357 369.736C183.048 370.525 182.605 371.144 182.029 371.592C181.464 372.051 180.829 372.253 180.125 372.2V371.208C181.085 371.315 181.816 370.76 182.317 369.544L182.525 369.048L178.941 361H180.061L183.069 367.704L185.661 361Z" fill="#2D3548"/>
<path d="M64.5 120V102.27H72.51V104.31H67.5V120H64.5ZM73.9287 123.48V105.15H76.6587L76.7187 106.38C76.8987 106 77.1787 105.66 77.5587 105.36C77.9387 105.06 78.5587 104.91 79.4187 104.91C80.1987 104.91 80.8387 105.05 81.3387 105.33C81.8587 105.59 82.2387 105.99 82.4787 106.53C82.7187 107.05 82.8387 107.72 82.8387 108.54V115.8C82.8387 116.8 82.7287 117.63 82.5087 118.29C82.2887 118.93 81.9287 119.41 81.4287 119.73C80.9287 120.03 80.2587 120.18 79.4187 120.18C78.6787 120.18 78.0987 120.06 77.6787 119.82C77.2587 119.58 76.9487 119.29 76.7487 118.95V123.48H73.9287ZM78.3987 118.56C78.7987 118.56 79.1087 118.51 79.3287 118.41C79.5487 118.29 79.7087 118.13 79.8087 117.93C79.9087 117.73 79.9687 117.5 79.9887 117.24C80.0087 116.98 80.0187 116.7 80.0187 116.4V108.87C80.0187 108.57 80.0087 108.29 79.9887 108.03C79.9687 107.77 79.9087 107.54 79.8087 107.34C79.7087 107.12 79.5487 106.96 79.3287 106.86C79.1087 106.74 78.7987 106.68 78.3987 106.68C77.9987 106.68 77.6887 106.75 77.4687 106.89C77.2487 107.03 77.0887 107.21 76.9887 107.43C76.8887 107.63 76.8187 107.86 76.7787 108.12C76.7587 108.38 76.7487 108.62 76.7487 108.84V116.52C76.7487 116.92 76.7887 117.28 76.8687 117.6C76.9487 117.9 77.0987 118.14 77.3187 118.32C77.5587 118.48 77.9187 118.56 78.3987 118.56ZM86.4994 123.51C85.9794 123.51 85.4994 123.47 85.0594 123.39C84.6194 123.31 84.2694 123.24 84.0094 123.18V121.65C84.1294 121.67 84.2894 121.7 84.4894 121.74C84.7094 121.8 84.9594 121.83 85.2394 121.83C85.5194 121.83 85.8294 121.78 86.1694 121.68C86.5094 121.6 86.7594 121.34 86.9194 120.9C86.9994 120.72 87.0794 120.51 87.1594 120.27C87.2594 120.05 87.2794 119.79 87.2194 119.49L84.0094 105.15H86.9194L89.1094 117.24L91.2394 105.15H93.9094L90.8794 118.98C90.5594 120.56 90.0494 121.71 89.3494 122.43C88.6494 123.15 87.6994 123.51 86.4994 123.51ZM95.0468 120V105.15H104.167V120H101.347V107.19H97.8668V120H95.0468ZM106.355 120V105.15H115.475V120H112.655V107.19H109.175V120H106.355ZM120.544 120.24C120.044 120.24 119.564 120.17 119.104 120.03C118.664 119.89 118.284 119.6 117.964 119.16C117.664 118.7 117.514 118 117.514 117.06V115.29C117.514 114.31 117.794 113.53 118.354 112.95C118.934 112.35 119.794 111.82 120.934 111.36C121.594 111.08 122.114 110.83 122.494 110.61C122.894 110.39 123.184 110.13 123.364 109.83C123.544 109.53 123.634 109.12 123.634 108.6V107.85C123.634 107.47 123.554 107.18 123.394 106.98C123.254 106.78 123.064 106.64 122.824 106.56C122.604 106.46 122.344 106.41 122.044 106.41C121.384 106.41 120.944 106.61 120.724 107.01C120.524 107.41 120.424 108.05 120.424 108.93V110.19H117.874V108.66C117.874 107.92 117.974 107.27 118.174 106.71C118.374 106.13 118.774 105.68 119.374 105.36C119.974 105.02 120.864 104.85 122.044 104.85C123.264 104.85 124.184 104.97 124.804 105.21C125.444 105.45 125.884 105.82 126.124 106.32C126.364 106.8 126.484 107.42 126.484 108.18V120H123.664V118.29C123.464 118.91 123.064 119.39 122.464 119.73C121.884 120.07 121.244 120.24 120.544 120.24ZM121.714 118.35C122.394 118.35 122.874 118.11 123.154 117.63C123.454 117.13 123.604 116.44 123.604 115.56V111.39C123.464 111.63 123.214 111.85 122.854 112.05C122.494 112.25 122.144 112.46 121.804 112.68C121.304 112.98 120.924 113.3 120.664 113.64C120.404 113.96 120.274 114.41 120.274 114.99V116.4C120.274 116.94 120.334 117.36 120.454 117.66C120.594 117.94 120.774 118.13 120.994 118.23C121.234 118.31 121.474 118.35 121.714 118.35ZM63.6 156.33V151.32H64.77C65.01 151.28 65.26 151.17 65.52 150.99C65.78 150.81 66.01 150.53 66.21 150.15C66.43 149.75 66.57 149.23 66.63 148.59L67.74 138.15H75.75V151.32H78.12V156.33H75.75V153.51H65.97V156.33H63.6ZM68.52 151.32H72.75V140.22H70.32L69.42 148.29C69.36 148.83 69.27 149.41 69.15 150.03C69.03 150.65 68.82 151.08 68.52 151.32ZM79.1531 153V151.5C79.5331 151.5 79.8731 151.29 80.1731 150.87C80.4731 150.45 80.6431 149.9 80.6831 149.22L81.6431 138.15H90.1631V153H87.2831V140.19H84.4931L83.5631 150C83.5231 150.28 83.4731 150.6 83.4131 150.96C83.3731 151.3 83.2631 151.63 83.0831 151.95C82.9231 152.25 82.6731 152.5 82.3331 152.7C81.9931 152.9 81.5131 153 80.8931 153H79.1531ZM92.0222 153L93.7922 148.02C94.0322 147.36 94.3022 146.88 94.6022 146.58C94.9222 146.28 95.2822 146.11 95.6822 146.07C94.7422 145.99 94.0322 145.7 93.5522 145.2C93.0922 144.68 92.8622 143.86 92.8622 142.74V141.69C92.8622 140.47 93.1722 139.58 93.7922 139.02C94.4122 138.44 95.2822 138.15 96.4022 138.15H102.102V153H99.1322V146.37L97.7822 146.79C97.4622 147.13 97.1722 147.58 96.9122 148.14C96.6722 148.68 96.4422 149.29 96.2222 149.97L95.2322 153H92.0222ZM97.6022 145.2H99.1322V139.74H97.1222C96.7022 139.74 96.3622 139.95 96.1022 140.37C95.8422 140.77 95.7122 141.27 95.7122 141.87V142.59C95.7322 143.59 95.9022 144.28 96.2222 144.66C96.5622 145.02 97.0222 145.2 97.6022 145.2ZM109.49 153V138.15H118.61V153H115.79V140.19H112.31V153H109.49ZM125.269 153.24C124.249 153.24 123.399 153.13 122.719 152.91C122.059 152.67 121.559 152.22 121.219 151.56C120.899 150.9 120.739 149.91 120.739 148.59V141.63C120.739 140.19 121.099 139.21 121.819 138.69C122.539 138.15 123.659 137.88 125.179 137.88C126.699 137.88 127.819 138.15 128.539 138.69C129.259 139.21 129.619 140.19 129.619 141.63V145.59H123.559V149.7C123.559 150.44 123.669 150.96 123.889 151.26C124.129 151.56 124.579 151.71 125.239 151.71C125.839 151.71 126.249 151.57 126.469 151.29C126.689 150.99 126.799 150.46 126.799 149.7V147.51H129.619V148.56C129.619 149.86 129.449 150.85 129.109 151.53C128.789 152.21 128.309 152.67 127.669 152.91C127.029 153.13 126.229 153.24 125.269 153.24ZM123.559 144.27H126.799V141.51C126.799 140.83 126.689 140.34 126.469 140.04C126.249 139.74 125.819 139.59 125.179 139.59C124.559 139.59 124.129 139.74 123.889 140.04C123.669 140.34 123.559 140.83 123.559 141.51V144.27ZM131.551 153V138.15H134.371V144.18H137.851V138.15H140.641V153H137.851V146.34H134.371V153H131.551ZM147.271 153.24C146.251 153.24 145.401 153.13 144.721 152.91C144.061 152.69 143.561 152.25 143.221 151.59C142.901 150.93 142.741 149.95 142.741 148.65V141.81C142.741 140.31 143.101 139.28 143.821 138.72C144.541 138.16 145.661 137.88 147.181 137.88C148.701 137.88 149.821 138.15 150.541 138.69C151.261 139.23 151.621 140.21 151.621 141.63V143.7H148.801V141.51C148.801 140.81 148.691 140.31 148.471 140.01C148.251 139.71 147.821 139.56 147.181 139.56C146.561 139.56 146.131 139.71 145.891 140.01C145.671 140.31 145.561 140.81 145.561 141.51V149.52C145.561 150.26 145.671 150.78 145.891 151.08C146.131 151.38 146.581 151.53 147.241 151.53C147.841 151.53 148.251 151.39 148.471 151.11C148.691 150.81 148.801 150.28 148.801 149.52V147.18H151.621V148.65C151.621 149.93 151.451 150.91 151.111 151.59C150.791 152.25 150.301 152.69 149.641 152.91C149.001 153.13 148.211 153.24 147.271 153.24ZM153.553 153V138.15H156.073V147.93L160.063 138.15H162.583V153H160.093V142.59C159.393 144.33 158.693 146.07 157.993 147.81C157.313 149.53 156.603 151.26 155.863 153H153.553ZM169.154 153.24C168.174 153.24 167.344 153.12 166.664 152.88C166.004 152.62 165.504 152.15 165.164 151.47C164.844 150.79 164.684 149.81 164.684 148.53V141.99C164.684 140.49 165.044 139.43 165.764 138.81C166.484 138.19 167.614 137.88 169.154 137.88C170.674 137.88 171.794 138.19 172.514 138.81C173.234 139.41 173.594 140.47 173.594 141.99V148.53C173.594 149.81 173.424 150.79 173.084 151.47C172.764 152.15 172.274 152.62 171.614 152.88C170.954 153.12 170.134 153.24 169.154 153.24ZM169.154 151.53C169.734 151.53 170.144 151.38 170.384 151.08C170.644 150.76 170.774 150.2 170.774 149.4V141.75C170.774 140.97 170.654 140.42 170.414 140.1C170.174 139.78 169.754 139.62 169.154 139.62C168.574 139.62 168.154 139.78 167.894 140.1C167.634 140.4 167.504 140.95 167.504 141.75V149.4C167.504 150.2 167.634 150.76 167.894 151.08C168.154 151.38 168.574 151.53 169.154 151.53ZM175.672 153V138.15H178.492V144.18H181.972V138.15H184.762V153H181.972V146.34H178.492V153H175.672ZM191.392 153.24C190.372 153.24 189.522 153.13 188.842 152.91C188.182 152.67 187.682 152.22 187.342 151.56C187.022 150.9 186.862 149.91 186.862 148.59V141.63C186.862 140.19 187.222 139.21 187.942 138.69C188.662 138.15 189.782 137.88 191.302 137.88C192.822 137.88 193.942 138.15 194.662 138.69C195.382 139.21 195.742 140.19 195.742 141.63V145.59H189.682V149.7C189.682 150.44 189.792 150.96 190.012 151.26C190.252 151.56 190.702 151.71 191.362 151.71C191.962 151.71 192.372 151.57 192.592 151.29C192.812 150.99 192.922 150.46 192.922 149.7V147.51H195.742V148.56C195.742 149.86 195.572 150.85 195.232 151.53C194.912 152.21 194.432 152.67 193.792 152.91C193.152 153.13 192.352 153.24 191.392 153.24ZM189.682 144.27H192.922V141.51C192.922 140.83 192.812 140.34 192.592 140.04C192.372 139.74 191.942 139.59 191.302 139.59C190.682 139.59 190.252 139.74 190.012 140.04C189.792 140.34 189.682 140.83 189.682 141.51V144.27ZM197.884 156.48V138.15H200.614L200.674 139.38C200.854 139 201.134 138.66 201.514 138.36C201.894 138.06 202.514 137.91 203.374 137.91C204.154 137.91 204.794 138.05 205.294 138.33C205.814 138.59 206.194 138.99 206.434 139.53C206.674 140.05 206.794 140.72 206.794 141.54V148.8C206.794 149.8 206.684 150.63 206.464 151.29C206.244 151.93 205.884 152.41 205.384 152.73C204.884 153.03 204.214 153.18 203.374 153.18C202.634 153.18 202.054 153.06 201.634 152.82C201.214 152.58 200.904 152.29 200.704 151.95V156.48H197.884ZM202.354 151.56C202.754 151.56 203.064 151.51 203.284 151.41C203.504 151.29 203.664 151.13 203.764 150.93C203.864 150.73 203.924 150.5 203.944 150.24C203.964 149.98 203.974 149.7 203.974 149.4V141.87C203.974 141.57 203.964 141.29 203.944 141.03C203.924 140.77 203.864 140.54 203.764 140.34C203.664 140.12 203.504 139.96 203.284 139.86C203.064 139.74 202.754 139.68 202.354 139.68C201.954 139.68 201.644 139.75 201.424 139.89C201.204 140.03 201.044 140.21 200.944 140.43C200.844 140.63 200.774 140.86 200.734 141.12C200.714 141.38 200.704 141.62 200.704 141.84V149.52C200.704 149.92 200.744 150.28 200.824 150.6C200.904 150.9 201.054 151.14 201.274 151.32C201.514 151.48 201.874 151.56 202.354 151.56ZM213.304 153.24C212.324 153.24 211.494 153.12 210.814 152.88C210.154 152.62 209.654 152.15 209.314 151.47C208.994 150.79 208.834 149.81 208.834 148.53V141.99C208.834 140.49 209.194 139.43 209.914 138.81C210.634 138.19 211.764 137.88 213.304 137.88C214.824 137.88 215.944 138.19 216.664 138.81C217.384 139.41 217.744 140.47 217.744 141.99V148.53C217.744 149.81 217.574 150.79 217.234 151.47C216.914 152.15 216.424 152.62 215.764 152.88C215.104 153.12 214.284 153.24 213.304 153.24ZM213.304 151.53C213.884 151.53 214.294 151.38 214.534 151.08C214.794 150.76 214.924 150.2 214.924 149.4V141.75C214.924 140.97 214.804 140.42 214.564 140.1C214.324 139.78 213.904 139.62 213.304 139.62C212.724 139.62 212.304 139.78 212.044 140.1C211.784 140.4 211.654 140.95 211.654 141.75V149.4C211.654 150.2 211.784 150.76 212.044 151.08C212.304 151.38 212.724 151.53 213.304 151.53ZM219.822 153V138.15H225.702C226.822 138.15 227.682 138.4 228.282 138.9C228.902 139.4 229.212 140.16 229.212 141.18V142.2C229.212 143.12 228.962 143.85 228.462 144.39C227.982 144.93 227.292 145.23 226.392 145.29V145.26C227.272 145.26 228.012 145.53 228.612 146.07C229.212 146.59 229.512 147.42 229.512 148.56V149.31C229.512 150.29 229.342 151.05 229.002 151.59C228.682 152.13 228.212 152.5 227.592 152.7C226.992 152.9 226.272 153 225.432 153H219.822ZM222.822 151.53H224.682C225.062 151.53 225.382 151.48 225.642 151.38C225.902 151.26 226.092 151.05 226.212 150.75C226.352 150.45 226.422 150.01 226.422 149.43V148.14C226.422 147.68 226.342 147.32 226.182 147.06C226.042 146.8 225.832 146.62 225.552 146.52C225.272 146.42 224.952 146.37 224.592 146.37H222.822V151.53ZM222.822 144.48H224.562C225.162 144.48 225.612 144.32 225.912 144C226.212 143.68 226.362 143.18 226.362 142.5V141.24C226.362 140.76 226.222 140.39 225.942 140.13C225.662 139.87 225.302 139.74 224.862 139.74H222.822V144.48ZM233.667 144.9C233.247 144.9 232.887 144.76 232.587 144.48C232.287 144.18 232.137 143.83 232.137 143.43C232.137 143.01 232.287 142.66 232.587 142.38C232.887 142.1 233.247 141.96 233.667 141.96C234.087 141.96 234.447 142.1 234.747 142.38C235.067 142.66 235.227 143.01 235.227 143.43C235.227 143.83 235.067 144.18 234.747 144.48C234.447 144.76 234.087 144.9 233.667 144.9ZM233.667 153.24C233.247 153.24 232.887 153.1 232.587 152.82C232.287 152.52 232.137 152.17 232.137 151.77C232.137 151.35 232.287 151 232.587 150.72C232.887 150.44 233.247 150.3 233.667 150.3C234.087 150.3 234.447 150.44 234.747 150.72C235.067 151 235.227 151.35 235.227 151.77C235.227 152.17 235.067 152.52 234.747 152.82C234.447 153.1 234.087 153.24 233.667 153.24Z" fill="#2D3548"/>
<path d="M37.092 38.154C36.256 38.154 35.5667 38.022 35.024 37.758C34.496 37.494 34.1073 37.12 33.858 36.636C33.6087 36.152 33.484 35.5873 33.484 34.942V33.512H35.596V34.436C35.596 35.14 35.7133 35.6827 35.948 36.064C36.1827 36.4307 36.5567 36.6213 37.07 36.636C37.5393 36.636 37.8987 36.4673 38.148 36.13C38.3973 35.7927 38.522 35.3453 38.522 34.788V33.534C38.522 32.9913 38.3387 32.5953 37.972 32.346C37.6053 32.082 37.092 31.9427 36.432 31.928H35.31V30.696H36.454C36.762 30.696 37.048 30.652 37.312 30.564C37.576 30.476 37.796 30.344 37.972 30.168C38.148 30.0067 38.2727 29.8307 38.346 29.64C38.4193 29.4493 38.456 29.244 38.456 29.024V28.166C38.456 27.6967 38.346 27.2933 38.126 26.956C37.9207 26.6187 37.5687 26.45 37.07 26.45C36.542 26.45 36.1753 26.6407 35.97 27.022C35.7647 27.3887 35.662 27.8873 35.662 28.518V29.134H33.528V28.012C33.528 27.0147 33.814 26.252 34.386 25.724C34.9727 25.196 35.8747 24.932 37.092 24.932C38.3533 24.932 39.2627 25.1813 39.82 25.68C40.3773 26.164 40.656 26.8827 40.656 27.836V28.716C40.656 29.464 40.4653 30.0653 40.084 30.52C39.7173 30.9747 39.1967 31.2607 38.522 31.378C39.226 31.4513 39.7687 31.7227 40.15 32.192C40.5313 32.6613 40.722 33.27 40.722 34.018V34.942C40.722 35.6313 40.5973 36.218 40.348 36.702C40.1133 37.186 39.732 37.5527 39.204 37.802C38.676 38.0367 37.972 38.154 37.092 38.154ZM41.9965 38L44.5265 24.998H47.4745L49.9605 38H47.6285L47.1005 35.36H44.7245L44.2405 38H41.9965ZM44.7685 34.282H47.0785L45.9345 27.044L44.7685 34.282ZM55.2105 40.442V36.658H56.3545C56.6479 36.6287 56.9045 36.46 57.1245 36.152C57.3592 35.8293 57.5059 35.3747 57.5645 34.788C57.6232 34.2307 57.6819 33.6147 57.7405 32.94C57.8139 32.2507 57.8799 31.5467 57.9385 30.828C58.0119 30.0947 58.0705 29.376 58.1145 28.672C58.1732 27.968 58.2245 27.3007 58.2685 26.67C58.3125 26.0393 58.3492 25.482 58.3785 24.998H64.6925V36.658H66.8045V40.442H65.0445V38.374H56.9705V40.442H55.2105ZM59.0605 36.658H62.6245V26.494H60.3585C60.2412 27.8433 60.1312 29.1853 60.0285 30.52C59.9405 31.8547 59.8379 33.1967 59.7205 34.546C59.6912 34.9273 59.6252 35.3307 59.5225 35.756C59.4345 36.1667 59.2805 36.4673 59.0605 36.658ZM72.0741 38.264C71.3847 38.264 70.7761 38.1833 70.2481 38.022C69.7347 37.8607 69.3314 37.5307 69.0381 37.032C68.7447 36.5187 68.5981 35.756 68.5981 34.744V27.726C68.5981 26.934 68.7447 26.3327 69.0381 25.922C69.3314 25.4967 69.7421 25.2033 70.2701 25.042C70.7981 24.8807 71.4067 24.8 72.0961 24.8C72.7854 24.8 73.3867 24.888 73.9001 25.064C74.4281 25.2253 74.8461 25.5187 75.1541 25.944C75.4621 26.3547 75.6161 26.9487 75.6161 27.726V34.722C75.6161 35.7633 75.4621 36.5333 75.1541 37.032C74.8461 37.5307 74.4281 37.8607 73.9001 38.022C73.3721 38.1833 72.7634 38.264 72.0741 38.264ZM72.0741 37.01C72.3527 37.01 72.6021 36.9733 72.8221 36.9C73.0421 36.812 73.2107 36.658 73.3281 36.438C73.4454 36.218 73.5041 35.8953 73.5041 35.47V27.66C73.5041 27.2493 73.4454 26.934 73.3281 26.714C73.2107 26.4793 73.0421 26.3253 72.8221 26.252C72.6021 26.164 72.3527 26.12 72.0741 26.12C71.7954 26.12 71.5461 26.164 71.3261 26.252C71.1207 26.3253 70.9594 26.4793 70.8421 26.714C70.7247 26.934 70.6661 27.2493 70.6661 27.66V35.47C70.6661 35.8953 70.7247 36.218 70.8421 36.438C70.9594 36.658 71.1207 36.812 71.3261 36.9C71.5461 36.9733 71.7954 37.01 72.0741 37.01ZM78.0871 38V24.998H80.1771V30.454H82.9711V24.998H85.0611V38H82.9711V32.038H80.1771V38H78.0871ZM87.7009 38V24.998H93.5529V26.494H89.9009V30.432H92.9149V32.082H89.9009V36.548H93.5529V38H87.7009ZM95.553 38V24.998H97.423V33.776L100.657 24.998H102.505V38H100.635V29.706L97.423 38H95.553ZM99.007 24.118C98.3764 24.118 97.8924 24.0007 97.555 23.766C97.2177 23.5313 96.983 23.2527 96.851 22.93C96.7337 22.5927 96.6677 22.292 96.653 22.028H97.819C97.8484 22.3947 97.973 22.666 98.193 22.842C98.4277 23.018 98.699 23.106 99.007 23.106C99.3444 23.106 99.623 23.0253 99.843 22.864C100.078 22.688 100.21 22.4093 100.239 22.028H101.405C101.39 22.3653 101.302 22.6953 101.141 23.018C100.98 23.3407 100.723 23.6047 100.371 23.81C100.034 24.0153 99.579 24.118 99.007 24.118ZM105.145 38V24.998H107.345V36.504H109.919V24.998H112.097V36.504H114.671V24.998H116.871V38H105.145ZM119.507 38V24.998H121.597V30.454H124.391V24.998H126.481V38H124.391V32.038H121.597V38H119.507Z" fill="#7C9D81"/>
<path d="M31 193L295 193" stroke="#B8B8B8"/>
</svg>
