<svg width="323" height="489" viewBox="0 0 323 489" fill="none" xmlns="http://www.w3.org/2000/svg">
<rect width="323" height="489" rx="35" fill="#E9E9E9"/>
<path d="M0 35C0 15.67 15.67 0 35 0H288C307.33 0 323 15.67 323 35V60H0V35Z" fill="#D6D6D6"/>
<path d="M65.7 217V193.55H60.75V190.8H62.6C63.6333 190.7 64.4167 190.4 64.95 189.9C65.5167 189.4 65.9833 188.583 66.35 187.45H70.5V217H65.7ZM82.8383 217.4C80.8716 217.4 79.2716 217.2 78.0383 216.8C76.8383 216.367 75.9549 215.583 75.3883 214.45C74.8549 213.283 74.5883 211.633 74.5883 209.5V207.3H79.3883V209.1C79.3883 210.9 79.6549 212.15 80.1883 212.85C80.7216 213.55 81.6049 213.9 82.8383 213.9C84.0049 213.9 84.8216 213.5 85.2883 212.7C85.7883 211.9 86.0383 210.65 86.0383 208.95V204.35C86.0383 203.55 85.9549 202.833 85.7883 202.2C85.6216 201.533 85.3049 201.017 84.8383 200.65C84.3716 200.25 83.6716 200.05 82.7383 200.05C81.8383 200.05 81.0883 200.317 80.4883 200.85C79.9216 201.35 79.5549 202.033 79.3883 202.9H74.6883V187.45H90.2383V190.95H79.4383V199.15C79.8049 198.517 80.3883 197.983 81.1883 197.55C82.0216 197.083 83.1383 196.85 84.5383 196.85C86.7383 196.85 88.3549 197.317 89.3883 198.25C90.4549 199.183 90.9883 200.833 90.9883 203.2V209.5C90.9883 211.6 90.6549 213.217 89.9883 214.35C89.3549 215.483 88.4216 216.283 87.1883 216.75C85.9883 217.183 84.5383 217.4 82.8383 217.4ZM102.468 217.65C100.902 217.617 99.5017 217.283 98.2684 216.65C97.0684 215.983 96.1184 214.95 95.4184 213.55C94.7517 212.15 94.4184 210.3 94.4184 208V195.7C94.4184 192.767 95.185 190.6 96.7184 189.2C98.2517 187.8 100.202 187.1 102.568 187.1C104.868 187.1 106.768 187.8 108.268 189.2C109.768 190.6 110.518 192.767 110.518 195.7V207.95C110.518 210.283 110.168 212.167 109.468 213.6C108.802 215.033 107.852 216.067 106.618 216.7C105.418 217.333 104.035 217.65 102.468 217.65ZM102.468 214.75C103.402 214.75 104.185 214.383 104.818 213.65C105.452 212.883 105.768 211.783 105.768 210.35V194.45C105.768 192.983 105.435 191.883 104.768 191.15C104.135 190.383 103.368 190 102.468 190C101.535 190 100.752 190.383 100.118 191.15C99.485 191.883 99.1684 192.983 99.1684 194.45V210.35C99.1684 211.783 99.485 212.883 100.118 213.65C100.752 214.383 101.535 214.75 102.468 214.75ZM122.293 217.65C120.726 217.617 119.326 217.283 118.093 216.65C116.893 215.983 115.943 214.95 115.243 213.55C114.576 212.15 114.243 210.3 114.243 208V195.7C114.243 192.767 115.009 190.6 116.543 189.2C118.076 187.8 120.026 187.1 122.393 187.1C124.693 187.1 126.593 187.8 128.093 189.2C129.593 190.6 130.343 192.767 130.343 195.7V207.95C130.343 210.283 129.993 212.167 129.293 213.6C128.626 215.033 127.676 216.067 126.443 216.7C125.243 217.333 123.859 217.65 122.293 217.65ZM122.293 214.75C123.226 214.75 124.009 214.383 124.643 213.65C125.276 212.883 125.593 211.783 125.593 210.35V194.45C125.593 192.983 125.259 191.883 124.593 191.15C123.959 190.383 123.193 190 122.293 190C121.359 190 120.576 190.383 119.943 191.15C119.309 191.883 118.993 192.983 118.993 194.45V210.35C118.993 211.783 119.309 212.883 119.943 213.65C120.576 214.383 121.359 214.75 122.293 214.75ZM142.117 217.65C140.55 217.617 139.15 217.283 137.917 216.65C136.717 215.983 135.767 214.95 135.067 213.55C134.4 212.15 134.067 210.3 134.067 208V195.7C134.067 192.767 134.833 190.6 136.367 189.2C137.9 187.8 139.85 187.1 142.217 187.1C144.517 187.1 146.417 187.8 147.917 189.2C149.417 190.6 150.167 192.767 150.167 195.7V207.95C150.167 210.283 149.817 212.167 149.117 213.6C148.45 215.033 147.5 216.067 146.267 216.7C145.067 217.333 143.683 217.65 142.117 217.65ZM142.117 214.75C143.05 214.75 143.833 214.383 144.467 213.65C145.1 212.883 145.417 211.783 145.417 210.35V194.45C145.417 192.983 145.083 191.883 144.417 191.15C143.783 190.383 143.017 190 142.117 190C141.183 190 140.4 190.383 139.767 191.15C139.133 191.883 138.817 192.983 138.817 194.45V210.35C138.817 211.783 139.133 212.883 139.767 213.65C140.4 214.383 141.183 214.75 142.117 214.75ZM162.834 222.8V192.25H167.384L167.484 194.3C167.784 193.667 168.25 193.1 168.884 192.6C169.517 192.1 170.55 191.85 171.984 191.85C173.284 191.85 174.35 192.083 175.184 192.55C176.05 192.983 176.684 193.65 177.084 194.55C177.484 195.417 177.684 196.533 177.684 197.9V210C177.684 211.667 177.5 213.05 177.134 214.15C176.767 215.217 176.167 216.017 175.334 216.55C174.5 217.05 173.384 217.3 171.984 217.3C170.75 217.3 169.784 217.1 169.084 216.7C168.384 216.3 167.867 215.817 167.534 215.25V222.8H162.834ZM170.284 214.6C170.95 214.6 171.467 214.517 171.834 214.35C172.2 214.15 172.467 213.883 172.634 213.55C172.8 213.217 172.9 212.833 172.934 212.4C172.967 211.967 172.984 211.5 172.984 211V198.45C172.984 197.95 172.967 197.483 172.934 197.05C172.9 196.617 172.8 196.233 172.634 195.9C172.467 195.533 172.2 195.267 171.834 195.1C171.467 194.9 170.95 194.8 170.284 194.8C169.617 194.8 169.1 194.917 168.734 195.15C168.367 195.383 168.1 195.683 167.934 196.05C167.767 196.383 167.65 196.767 167.584 197.2C167.55 197.633 167.534 198.033 167.534 198.4V211.2C167.534 211.867 167.6 212.467 167.734 213C167.867 213.5 168.117 213.9 168.484 214.2C168.884 214.467 169.484 214.6 170.284 214.6ZM183.785 222.85C182.918 222.85 182.118 222.783 181.385 222.65C180.651 222.517 180.068 222.4 179.635 222.3V219.75C179.835 219.783 180.101 219.833 180.435 219.9C180.801 220 181.218 220.05 181.685 220.05C182.151 220.05 182.668 219.967 183.235 219.8C183.801 219.667 184.218 219.233 184.485 218.5C184.618 218.2 184.751 217.85 184.885 217.45C185.051 217.083 185.085 216.65 184.985 216.15L179.635 192.25H184.485L188.135 212.4L191.685 192.25H196.135L191.085 215.3C190.551 217.933 189.701 219.85 188.535 221.05C187.368 222.25 185.785 222.85 183.785 222.85ZM205.28 217.35C203.714 217.35 202.38 217.15 201.28 216.75C200.214 216.35 199.38 215.683 198.78 214.75C198.214 213.783 197.93 212.5 197.93 210.9V193.1C197.93 191.433 198.097 190.083 198.43 189.05C198.797 187.983 199.38 187.2 200.18 186.7C201.014 186.167 202.13 185.9 203.53 185.9C204.197 185.9 204.947 185.867 205.78 185.8C206.647 185.7 207.48 185.583 208.28 185.45C209.114 185.317 209.814 185.167 210.38 185C210.947 184.833 211.28 184.683 211.38 184.55V186.55C211.38 187.017 211.064 187.483 210.43 187.95C209.83 188.383 208.847 188.617 207.48 188.65H206.78C205.714 188.65 204.88 188.783 204.28 189.05C203.68 189.317 203.247 189.75 202.98 190.35C202.747 190.917 202.614 191.667 202.58 192.6V195.4C202.88 194.833 203.397 194.317 204.13 193.85C204.864 193.383 205.88 193.15 207.18 193.15C208.414 193.15 209.464 193.35 210.33 193.75C211.197 194.117 211.864 194.733 212.33 195.6C212.797 196.467 213.03 197.683 213.03 199.25V209.7C213.03 211.267 212.88 212.55 212.58 213.55C212.314 214.517 211.864 215.283 211.23 215.85C210.63 216.417 209.83 216.8 208.83 217C207.864 217.233 206.68 217.35 205.28 217.35ZM205.48 214.55C206.314 214.55 206.93 214.4 207.33 214.1C207.764 213.767 208.047 213.317 208.18 212.75C208.314 212.183 208.38 211.533 208.38 210.8V199.7C208.38 199 208.314 198.383 208.18 197.85C208.047 197.317 207.78 196.9 207.38 196.6C206.98 196.3 206.364 196.15 205.53 196.15C204.83 196.15 204.28 196.25 203.88 196.45C203.48 196.617 203.18 196.867 202.98 197.2C202.814 197.5 202.697 197.833 202.63 198.2C202.597 198.567 202.58 198.933 202.58 199.3V210.8C202.58 211.533 202.647 212.183 202.78 212.75C202.914 213.317 203.18 213.767 203.58 214.1C204.014 214.4 204.647 214.55 205.48 214.55ZM219.786 217.4C219.086 217.4 218.486 217.167 217.986 216.7C217.486 216.2 217.236 215.617 217.236 214.95C217.236 214.25 217.486 213.667 217.986 213.2C218.486 212.733 219.086 212.5 219.786 212.5C220.486 212.5 221.086 212.733 221.586 213.2C222.12 213.667 222.386 214.25 222.386 214.95C222.386 215.617 222.12 216.2 221.586 216.7C221.086 217.167 220.486 217.4 219.786 217.4Z" fill="#888888"/>
<path d="M61.6 407C61.6 406 61.6 405.033 61.6 404.1C61.6 403.133 61.6 402.15 61.6 401.15C61.6 399.383 61.8167 398 62.25 397C62.7167 395.967 63.4 395.117 64.3 394.45C65.2333 393.783 66.4 393.1 67.8 392.4C68.9667 391.833 69.9167 391.25 70.65 390.65C71.3833 390.05 71.9333 389.317 72.3 388.45C72.6667 387.55 72.85 386.45 72.85 385.15C72.85 383.717 72.6 382.633 72.1 381.9C71.6333 381.133 70.8167 380.75 69.65 380.75C68.55 380.75 67.7333 381.167 67.2 382C66.7 382.8 66.45 384.017 66.45 385.65V387.85H61.7V384.4C61.7 382 62.3833 380.217 63.75 379.05C65.1167 377.883 67.1 377.3 69.7 377.3C71.7333 377.3 73.3333 377.583 74.5 378.15C75.7 378.717 76.55 379.6 77.05 380.8C77.55 381.967 77.8 383.483 77.8 385.35C77.8 387.65 77.3833 389.533 76.55 391C75.7167 392.467 74.4 393.7 72.6 394.7C71.7 395.133 70.8667 395.567 70.1 396C69.3667 396.433 68.7167 396.933 68.15 397.5C67.6167 398.067 67.2667 398.783 67.1 399.65C66.9333 400.183 66.8 400.733 66.7 401.3C66.6 401.833 66.5333 402.417 66.5 403.05H78V407H61.6ZM88.9906 407.4C87.024 407.4 85.424 407.2 84.1906 406.8C82.9906 406.367 82.1073 405.583 81.5406 404.45C81.0073 403.283 80.7406 401.633 80.7406 399.5V397.3H85.5406V399.1C85.5406 400.9 85.8073 402.15 86.3406 402.85C86.874 403.55 87.7573 403.9 88.9906 403.9C90.1573 403.9 90.974 403.5 91.4406 402.7C91.9406 401.9 92.1906 400.65 92.1906 398.95V394.35C92.1906 393.55 92.1073 392.833 91.9406 392.2C91.774 391.533 91.4573 391.017 90.9906 390.65C90.524 390.25 89.824 390.05 88.8906 390.05C87.9906 390.05 87.2406 390.317 86.6406 390.85C86.074 391.35 85.7073 392.033 85.5406 392.9H80.8406V377.45H96.3906V380.95H85.5906V389.15C85.9573 388.517 86.5406 387.983 87.3406 387.55C88.174 387.083 89.2906 386.85 90.6906 386.85C92.8906 386.85 94.5073 387.317 95.5406 388.25C96.6073 389.183 97.1406 390.833 97.1406 393.2V399.5C97.1406 401.6 96.8073 403.217 96.1406 404.35C95.5073 405.483 94.574 406.283 93.3406 406.75C92.1406 407.183 90.6906 407.4 88.9906 407.4ZM108.621 407.65C107.054 407.617 105.654 407.283 104.421 406.65C103.221 405.983 102.271 404.95 101.571 403.55C100.904 402.15 100.571 400.3 100.571 398V385.7C100.571 382.767 101.337 380.6 102.871 379.2C104.404 377.8 106.354 377.1 108.721 377.1C111.021 377.1 112.921 377.8 114.421 379.2C115.921 380.6 116.671 382.767 116.671 385.7V397.95C116.671 400.283 116.321 402.167 115.621 403.6C114.954 405.033 114.004 406.067 112.771 406.7C111.571 407.333 110.187 407.65 108.621 407.65ZM108.621 404.75C109.554 404.75 110.337 404.383 110.971 403.65C111.604 402.883 111.921 401.783 111.921 400.35V384.45C111.921 382.983 111.587 381.883 110.921 381.15C110.287 380.383 109.521 380 108.621 380C107.687 380 106.904 380.383 106.271 381.15C105.637 381.883 105.321 382.983 105.321 384.45V400.35C105.321 401.783 105.637 402.883 106.271 403.65C106.904 404.383 107.687 404.75 108.621 404.75ZM128.445 407.65C126.878 407.617 125.478 407.283 124.245 406.65C123.045 405.983 122.095 404.95 121.395 403.55C120.728 402.15 120.395 400.3 120.395 398V385.7C120.395 382.767 121.162 380.6 122.695 379.2C124.228 377.8 126.178 377.1 128.545 377.1C130.845 377.1 132.745 377.8 134.245 379.2C135.745 380.6 136.495 382.767 136.495 385.7V397.95C136.495 400.283 136.145 402.167 135.445 403.6C134.778 405.033 133.828 406.067 132.595 406.7C131.395 407.333 130.012 407.65 128.445 407.65ZM128.445 404.75C129.378 404.75 130.162 404.383 130.795 403.65C131.428 402.883 131.745 401.783 131.745 400.35V384.45C131.745 382.983 131.412 381.883 130.745 381.15C130.112 380.383 129.345 380 128.445 380C127.512 380 126.728 380.383 126.095 381.15C125.462 381.883 125.145 382.983 125.145 384.45V400.35C125.145 401.783 125.462 402.883 126.095 403.65C126.728 404.383 127.512 404.75 128.445 404.75ZM148.269 407.65C146.702 407.617 145.302 407.283 144.069 406.65C142.869 405.983 141.919 404.95 141.219 403.55C140.552 402.15 140.219 400.3 140.219 398V385.7C140.219 382.767 140.986 380.6 142.519 379.2C144.052 377.8 146.002 377.1 148.369 377.1C150.669 377.1 152.569 377.8 154.069 379.2C155.569 380.6 156.319 382.767 156.319 385.7V397.95C156.319 400.283 155.969 402.167 155.269 403.6C154.602 405.033 153.652 406.067 152.419 406.7C151.219 407.333 149.836 407.65 148.269 407.65ZM148.269 404.75C149.202 404.75 149.986 404.383 150.619 403.65C151.252 402.883 151.569 401.783 151.569 400.35V384.45C151.569 382.983 151.236 381.883 150.569 381.15C149.936 380.383 149.169 380 148.269 380C147.336 380 146.552 380.383 145.919 381.15C145.286 381.883 144.969 382.983 144.969 384.45V400.35C144.969 401.783 145.286 402.883 145.919 403.65C146.552 404.383 147.336 404.75 148.269 404.75ZM168.986 412.8V382.25H173.536L173.636 384.3C173.936 383.667 174.403 383.1 175.036 382.6C175.669 382.1 176.703 381.85 178.136 381.85C179.436 381.85 180.503 382.083 181.336 382.55C182.203 382.983 182.836 383.65 183.236 384.55C183.636 385.417 183.836 386.533 183.836 387.9V400C183.836 401.667 183.653 403.05 183.286 404.15C182.919 405.217 182.319 406.017 181.486 406.55C180.653 407.05 179.536 407.3 178.136 407.3C176.903 407.3 175.936 407.1 175.236 406.7C174.536 406.3 174.019 405.817 173.686 405.25V412.8H168.986ZM176.436 404.6C177.103 404.6 177.619 404.517 177.986 404.35C178.353 404.15 178.619 403.883 178.786 403.55C178.953 403.217 179.053 402.833 179.086 402.4C179.119 401.967 179.136 401.5 179.136 401V388.45C179.136 387.95 179.119 387.483 179.086 387.05C179.053 386.617 178.953 386.233 178.786 385.9C178.619 385.533 178.353 385.267 177.986 385.1C177.619 384.9 177.103 384.8 176.436 384.8C175.769 384.8 175.253 384.917 174.886 385.15C174.519 385.383 174.253 385.683 174.086 386.05C173.919 386.383 173.803 386.767 173.736 387.2C173.703 387.633 173.686 388.033 173.686 388.4V401.2C173.686 401.867 173.753 402.467 173.886 403C174.019 403.5 174.269 403.9 174.636 404.2C175.036 404.467 175.636 404.6 176.436 404.6ZM189.937 412.85C189.07 412.85 188.27 412.783 187.537 412.65C186.804 412.517 186.22 412.4 185.787 412.3V409.75C185.987 409.783 186.254 409.833 186.587 409.9C186.954 410 187.37 410.05 187.837 410.05C188.304 410.05 188.82 409.967 189.387 409.8C189.954 409.667 190.37 409.233 190.637 408.5C190.77 408.2 190.904 407.85 191.037 407.45C191.204 407.083 191.237 406.65 191.137 406.15L185.787 382.25H190.637L194.287 402.4L197.837 382.25H202.287L197.237 405.3C196.704 407.933 195.854 409.85 194.687 411.05C193.52 412.25 191.937 412.85 189.937 412.85ZM211.433 407.35C209.866 407.35 208.533 407.15 207.433 406.75C206.366 406.35 205.533 405.683 204.933 404.75C204.366 403.783 204.083 402.5 204.083 400.9V383.1C204.083 381.433 204.249 380.083 204.583 379.05C204.949 377.983 205.533 377.2 206.333 376.7C207.166 376.167 208.283 375.9 209.683 375.9C210.349 375.9 211.099 375.867 211.933 375.8C212.799 375.7 213.633 375.583 214.433 375.45C215.266 375.317 215.966 375.167 216.533 375C217.099 374.833 217.433 374.683 217.533 374.55V376.55C217.533 377.017 217.216 377.483 216.583 377.95C215.983 378.383 214.999 378.617 213.633 378.65H212.933C211.866 378.65 211.033 378.783 210.433 379.05C209.833 379.317 209.399 379.75 209.133 380.35C208.899 380.917 208.766 381.667 208.733 382.6V385.4C209.033 384.833 209.549 384.317 210.283 383.85C211.016 383.383 212.033 383.15 213.333 383.15C214.566 383.15 215.616 383.35 216.483 383.75C217.349 384.117 218.016 384.733 218.483 385.6C218.949 386.467 219.183 387.683 219.183 389.25V399.7C219.183 401.267 219.033 402.55 218.733 403.55C218.466 404.517 218.016 405.283 217.383 405.85C216.783 406.417 215.983 406.8 214.983 407C214.016 407.233 212.833 407.35 211.433 407.35ZM211.633 404.55C212.466 404.55 213.083 404.4 213.483 404.1C213.916 403.767 214.199 403.317 214.333 402.75C214.466 402.183 214.533 401.533 214.533 400.8V389.7C214.533 389 214.466 388.383 214.333 387.85C214.199 387.317 213.933 386.9 213.533 386.6C213.133 386.3 212.516 386.15 211.683 386.15C210.983 386.15 210.433 386.25 210.033 386.45C209.633 386.617 209.333 386.867 209.133 387.2C208.966 387.5 208.849 387.833 208.783 388.2C208.749 388.567 208.733 388.933 208.733 389.3V400.8C208.733 401.533 208.799 402.183 208.933 402.75C209.066 403.317 209.333 403.767 209.733 404.1C210.166 404.4 210.799 404.55 211.633 404.55ZM225.939 407.4C225.239 407.4 224.639 407.167 224.139 406.7C223.639 406.2 223.389 405.617 223.389 404.95C223.389 404.25 223.639 403.667 224.139 403.2C224.639 402.733 225.239 402.5 225.939 402.5C226.639 402.5 227.239 402.733 227.739 403.2C228.272 403.667 228.539 404.25 228.539 404.95C228.539 405.617 228.272 406.2 227.739 406.7C227.239 407.167 226.639 407.4 225.939 407.4Z" fill="#888888"/>
<path d="M38.444 38.264C37.7693 38.264 37.1607 38.1833 36.618 38.022C36.09 37.8607 35.672 37.5307 35.364 37.032C35.0707 36.5187 34.924 35.756 34.924 34.744V27.726C34.924 26.934 35.0707 26.3327 35.364 25.922C35.672 25.4967 36.09 25.2033 36.618 25.042C37.1607 24.8807 37.7767 24.8 38.466 24.8C39.17 24.8 39.7787 24.888 40.292 25.064C40.8053 25.2253 41.2087 25.5187 41.502 25.944C41.7953 26.3547 41.942 26.9487 41.942 27.726V30.278H39.83V27.66C39.83 27.2053 39.7713 26.8753 39.654 26.67C39.5367 26.45 39.3753 26.3033 39.17 26.23C38.9647 26.1567 38.73 26.12 38.466 26.12C38.202 26.12 37.9673 26.1567 37.762 26.23C37.5567 26.3033 37.3953 26.45 37.278 26.67C37.1607 26.8753 37.102 27.2053 37.102 27.66V35.47C37.102 35.91 37.1607 36.24 37.278 36.46C37.3953 36.68 37.5567 36.8267 37.762 36.9C37.9673 36.9733 38.202 37.01 38.466 37.01C38.7447 37.01 38.9793 36.9733 39.17 36.9C39.3753 36.8267 39.5367 36.68 39.654 36.46C39.7713 36.24 39.83 35.91 39.83 35.47V33.138H41.942V34.722C41.942 35.7633 41.7953 36.5333 41.502 37.032C41.2087 37.5307 40.8053 37.8607 40.292 38.022C39.7787 38.1833 39.1627 38.264 38.444 38.264ZM45.4936 38V26.494H43.4256V24.998H49.7176V26.494H47.6056V38H45.4936ZM50.6122 38L53.1422 24.998H56.0902L58.5762 38H56.2442L55.7162 35.36H53.3402L52.8562 38H50.6122ZM53.3842 34.282H55.6942L54.5502 27.044L53.3842 34.282ZM60.3536 38V24.998H62.4436V30.454H65.2376V24.998H67.3276V38H65.2376V32.038H62.4436V38H60.3536ZM69.1974 40.442V36.658H70.3414C70.6348 36.6287 70.8914 36.46 71.1114 36.152C71.3461 35.8293 71.4928 35.3747 71.5514 34.788C71.6101 34.2307 71.6688 33.6147 71.7274 32.94C71.8008 32.2507 71.8668 31.5467 71.9254 30.828C71.9988 30.0947 72.0574 29.376 72.1014 28.672C72.1601 27.968 72.2114 27.3007 72.2554 26.67C72.2994 26.0393 72.3361 25.482 72.3654 24.998H78.6794V36.658H80.7914V40.442H79.0314V38.374H70.9574V40.442H69.1974ZM73.0474 36.658H76.6114V26.494H74.3454C74.2281 27.8433 74.1181 29.1853 74.0154 30.52C73.9274 31.8547 73.8248 33.1967 73.7074 34.546C73.6781 34.9273 73.6121 35.3307 73.5094 35.756C73.4214 36.1667 73.2674 36.4673 73.0474 36.658ZM81.9029 38L84.4329 24.998H87.3809L89.8669 38H87.5349L87.0069 35.36H84.6309L84.1469 38H81.9029ZM84.6749 34.282H86.9849L85.8409 27.044L84.6749 34.282ZM91.6443 38V24.998H96.0443C96.8656 24.998 97.4963 25.1813 97.9363 25.548C98.3763 25.9147 98.5963 26.4573 98.5963 27.176V29.486C98.5963 30.0433 98.523 30.564 98.3763 31.048C98.2443 31.5173 97.9803 31.8987 97.5843 32.192C97.203 32.4853 96.6456 32.632 95.9123 32.632H93.8443V38H91.6443ZM93.8443 31.444H95.1863C95.6263 31.444 95.9563 31.2753 96.1763 30.938C96.3963 30.586 96.5063 30.0213 96.5063 29.244V28.078C96.5063 27.3887 96.411 26.8973 96.2203 26.604C96.0296 26.3107 95.7656 26.164 95.4283 26.164H93.8443V31.444ZM101.866 38V26.494H99.798V24.998H106.09V26.494H103.978V38H101.866ZM107.843 38V24.998H109.933V30.454H112.727V24.998H114.817V38H112.727V32.038H109.933V38H107.843ZM120.756 38.264C120.067 38.264 119.458 38.1833 118.93 38.022C118.417 37.8607 118.014 37.5307 117.72 37.032C117.427 36.5187 117.28 35.756 117.28 34.744V27.726C117.28 26.934 117.427 26.3327 117.72 25.922C118.014 25.4967 118.424 25.2033 118.952 25.042C119.48 24.8807 120.089 24.8 120.778 24.8C121.468 24.8 122.069 24.888 122.582 25.064C123.11 25.2253 123.528 25.5187 123.836 25.944C124.144 26.3547 124.298 26.9487 124.298 27.726V34.722C124.298 35.7633 124.144 36.5333 123.836 37.032C123.528 37.5307 123.11 37.8607 122.582 38.022C122.054 38.1833 121.446 38.264 120.756 38.264ZM120.756 37.01C121.035 37.01 121.284 36.9733 121.504 36.9C121.724 36.812 121.893 36.658 122.01 36.438C122.128 36.218 122.186 35.8953 122.186 35.47V27.66C122.186 27.2493 122.128 26.934 122.01 26.714C121.893 26.4793 121.724 26.3253 121.504 26.252C121.284 26.164 121.035 26.12 120.756 26.12C120.478 26.12 120.228 26.164 120.008 26.252C119.803 26.3253 119.642 26.4793 119.524 26.714C119.407 26.934 119.348 27.2493 119.348 27.66V35.47C119.348 35.8953 119.407 36.218 119.524 36.438C119.642 36.658 119.803 36.812 120.008 36.9C120.228 36.9733 120.478 37.01 120.756 37.01ZM126.77 38V24.998H132.622V26.494H128.97V30.432H131.984V32.082H128.97V36.548H132.622V38H126.77ZM142.164 38.264C141.475 38.264 140.866 38.1833 140.338 38.022C139.825 37.8607 139.422 37.5307 139.128 37.032C138.835 36.5187 138.688 35.756 138.688 34.744V27.726C138.688 26.934 138.835 26.3327 139.128 25.922C139.422 25.4967 139.832 25.2033 140.36 25.042C140.888 24.8807 141.497 24.8 142.186 24.8C142.876 24.8 143.477 24.888 143.99 25.064C144.518 25.2253 144.936 25.5187 145.244 25.944C145.552 26.3547 145.706 26.9487 145.706 27.726V34.722C145.706 35.7633 145.552 36.5333 145.244 37.032C144.936 37.5307 144.518 37.8607 143.99 38.022C143.462 38.1833 142.854 38.264 142.164 38.264ZM142.164 37.01C142.443 37.01 142.692 36.9733 142.912 36.9C143.132 36.812 143.301 36.658 143.418 36.438C143.536 36.218 143.594 35.8953 143.594 35.47V27.66C143.594 27.2493 143.536 26.934 143.418 26.714C143.301 26.4793 143.132 26.3253 142.912 26.252C142.692 26.164 142.443 26.12 142.164 26.12C141.886 26.12 141.636 26.164 141.416 26.252C141.211 26.3253 141.05 26.4793 140.932 26.714C140.815 26.934 140.756 27.2493 140.756 27.66V35.47C140.756 35.8953 140.815 36.218 140.932 36.438C141.05 36.658 141.211 36.812 141.416 36.9C141.636 36.9733 141.886 37.01 142.164 37.01ZM148.177 38V24.998H154.359V26.494H150.245V28.408H152.291C152.819 28.408 153.274 28.496 153.655 28.672C154.037 28.8333 154.33 29.1047 154.535 29.486C154.741 29.8673 154.843 30.3953 154.843 31.07V34.656C154.843 35.3453 154.777 35.91 154.645 36.35C154.528 36.7753 154.352 37.1127 154.117 37.362C153.883 37.5967 153.589 37.7653 153.237 37.868C152.885 37.956 152.475 38 152.005 38H148.177ZM151.565 36.878C151.903 36.878 152.152 36.812 152.313 36.68C152.489 36.548 152.607 36.3573 152.665 36.108C152.739 35.8587 152.775 35.5727 152.775 35.25V31.312C152.775 31.004 152.746 30.7327 152.687 30.498C152.629 30.2487 152.511 30.058 152.335 29.926C152.159 29.7793 151.895 29.706 151.543 29.706H150.245V36.878H151.565ZM158.159 38.264C157.822 38.264 157.492 38.242 157.169 38.198C156.861 38.154 156.605 38.11 156.399 38.066V36.944C156.502 36.9733 156.619 36.9953 156.751 37.01C156.883 37.0247 157.023 37.032 157.169 37.032C157.375 37.032 157.587 37.0027 157.807 36.944C158.027 36.8707 158.181 36.7093 158.269 36.46C158.328 36.3133 158.372 36.152 158.401 35.976C158.431 35.8 158.445 35.5873 158.445 35.338L156.179 24.998H158.335L159.875 33.754L161.459 24.998H163.439L161.239 34.986C160.99 36.174 160.631 37.0173 160.161 37.516C159.707 38.0147 159.039 38.264 158.159 38.264ZM169.44 38V34.392C169.278 34.5387 169.007 34.6853 168.626 34.832C168.244 34.9787 167.834 35.052 167.394 35.052C166.675 35.052 166.132 34.9347 165.766 34.7C165.399 34.4507 165.15 34.106 165.018 33.666C164.9 33.226 164.842 32.7127 164.842 32.126V24.998H166.91V32.126C166.91 32.61 166.99 32.984 167.152 33.248C167.328 33.4973 167.658 33.622 168.142 33.622C168.523 33.622 168.809 33.5707 169 33.468C169.205 33.3507 169.352 33.2627 169.44 33.204V24.998H171.53V38H169.44ZM174.161 38V24.998H180.013V26.494H176.361V30.432H179.375V32.082H176.361V36.548H180.013V38H174.161ZM182.014 38V24.998H184.104V30.454H186.898V24.998H188.988V38H186.898V32.038H184.104V38H182.014ZM191.627 38V24.998H193.497V33.776L196.731 24.998H198.579V38H196.709V29.706L193.497 38H191.627ZM201.22 38V24.998H207.072V26.494H203.42V30.432H206.434V32.082H203.42V36.548H207.072V38H201.22Z" fill="#8A8A8A"/>
<path d="M66 128.36C65.06 128.36 64.23 128.25 63.51 128.03C62.81 127.81 62.26 127.36 61.86 126.68C61.46 125.98 61.26 124.94 61.26 123.56V113.99C61.26 112.91 61.46 112.09 61.86 111.53C62.26 110.95 62.82 110.55 63.54 110.33C64.26 110.11 65.09 110 66.03 110C66.97 110 67.79 110.12 68.49 110.36C69.21 110.58 69.78 110.98 70.2 111.56C70.62 112.12 70.83 112.93 70.83 113.99V123.53C70.83 124.95 70.62 126 70.2 126.68C69.78 127.36 69.21 127.81 68.49 128.03C67.77 128.25 66.94 128.36 66 128.36ZM66 126.65C66.38 126.65 66.72 126.6 67.02 126.5C67.32 126.38 67.55 126.17 67.71 125.87C67.87 125.57 67.95 125.13 67.95 124.55V113.9C67.95 113.34 67.87 112.91 67.71 112.61C67.55 112.29 67.32 112.08 67.02 111.98C66.72 111.86 66.38 111.8 66 111.8C65.62 111.8 65.28 111.86 64.98 111.98C64.7 112.08 64.48 112.29 64.32 112.61C64.16 112.91 64.08 113.34 64.08 113.9V124.55C64.08 125.13 64.16 125.57 64.32 125.87C64.48 126.17 64.7 126.38 64.98 126.5C65.28 126.6 65.62 126.65 66 126.65ZM77.5296 128.21C76.5896 128.21 75.7896 128.09 75.1296 127.85C74.4896 127.61 73.9896 127.21 73.6296 126.65C73.2896 126.07 73.1196 125.3 73.1196 124.34V113.66C73.1196 112.66 73.2196 111.85 73.4196 111.23C73.6396 110.59 73.9896 110.12 74.4696 109.82C74.9696 109.5 75.6396 109.34 76.4796 109.34C76.8796 109.34 77.3296 109.32 77.8296 109.28C78.3496 109.22 78.8496 109.15 79.3296 109.07C79.8296 108.99 80.2496 108.9 80.5896 108.8C80.9296 108.7 81.1296 108.61 81.1896 108.53V109.73C81.1896 110.01 80.9996 110.29 80.6196 110.57C80.2596 110.83 79.6696 110.97 78.8496 110.99H78.4296C77.7896 110.99 77.2896 111.07 76.9296 111.23C76.5696 111.39 76.3096 111.65 76.1496 112.01C76.0096 112.35 75.9296 112.8 75.9096 113.36V115.04C76.0896 114.7 76.3996 114.39 76.8396 114.11C77.2796 113.83 77.8896 113.69 78.6696 113.69C79.4096 113.69 80.0396 113.81 80.5596 114.05C81.0796 114.27 81.4796 114.64 81.7596 115.16C82.0396 115.68 82.1796 116.41 82.1796 117.35V123.62C82.1796 124.56 82.0896 125.33 81.9096 125.93C81.7496 126.51 81.4796 126.97 81.0996 127.31C80.7396 127.65 80.2596 127.88 79.6596 128C79.0796 128.14 78.3696 128.21 77.5296 128.21ZM77.6496 126.53C78.1496 126.53 78.5196 126.44 78.7596 126.26C79.0196 126.06 79.1896 125.79 79.2696 125.45C79.3496 125.11 79.3896 124.72 79.3896 124.28V117.62C79.3896 117.2 79.3496 116.83 79.2696 116.51C79.1896 116.19 79.0296 115.94 78.7896 115.76C78.5496 115.58 78.1796 115.49 77.6796 115.49C77.2596 115.49 76.9296 115.55 76.6896 115.67C76.4496 115.77 76.2696 115.92 76.1496 116.12C76.0496 116.3 75.9796 116.5 75.9396 116.72C75.9196 116.94 75.9096 117.16 75.9096 117.38V124.28C75.9096 124.72 75.9496 125.11 76.0296 125.45C76.1096 125.79 76.2696 126.06 76.5096 126.26C76.7696 126.44 77.1496 126.53 77.6496 126.53ZM85.8431 131.51C85.3231 131.51 84.8431 131.47 84.4031 131.39C83.9631 131.31 83.6131 131.24 83.3531 131.18V129.65C83.4731 129.67 83.6331 129.7 83.8331 129.74C84.0531 129.8 84.3031 129.83 84.5831 129.83C84.8631 129.83 85.1731 129.78 85.5131 129.68C85.8531 129.6 86.1031 129.34 86.2631 128.9C86.3431 128.72 86.4231 128.51 86.5031 128.27C86.6031 128.05 86.6231 127.79 86.5631 127.49L83.3531 113.15H86.2631L88.4531 125.24L90.5831 113.15H93.2531L90.2231 126.98C89.9031 128.56 89.3931 129.71 88.6931 130.43C87.9931 131.15 87.0431 131.51 85.8431 131.51ZM100.211 128V122.72C100.071 123.3 99.7405 123.77 99.2205 124.13C98.7005 124.47 98.0905 124.64 97.3905 124.64C96.4705 124.64 95.7705 124.48 95.2905 124.16C94.8105 123.84 94.4905 123.38 94.3305 122.78C94.1705 122.18 94.0905 121.47 94.0905 120.65V113.15H96.9105V120.68C96.9105 121.34 97.0105 121.85 97.2105 122.21C97.4305 122.55 97.8405 122.72 98.4405 122.72C98.9005 122.72 99.2505 122.61 99.4905 122.39C99.7505 122.15 99.9305 121.91 100.031 121.67V113.15H102.851V128H100.211ZM109.466 128.24C108.446 128.24 107.596 128.13 106.916 127.91C106.256 127.67 105.756 127.22 105.416 126.56C105.096 125.9 104.936 124.91 104.936 123.59V116.63C104.936 115.19 105.296 114.21 106.016 113.69C106.736 113.15 107.856 112.88 109.376 112.88C110.896 112.88 112.016 113.15 112.736 113.69C113.456 114.21 113.816 115.19 113.816 116.63V120.59H107.756V124.7C107.756 125.44 107.866 125.96 108.086 126.26C108.326 126.56 108.776 126.71 109.436 126.71C110.036 126.71 110.446 126.57 110.666 126.29C110.886 125.99 110.996 125.46 110.996 124.7V122.51H113.816V123.56C113.816 124.86 113.646 125.85 113.306 126.53C112.986 127.21 112.506 127.67 111.866 127.91C111.226 128.13 110.426 128.24 109.466 128.24ZM107.756 119.27H110.996V116.51C110.996 115.83 110.886 115.34 110.666 115.04C110.446 114.74 110.016 114.59 109.376 114.59C108.756 114.59 108.326 114.74 108.086 115.04C107.866 115.34 107.756 115.83 107.756 116.51V119.27ZM115.748 128V113.15H118.568V119.18H122.048V113.15H124.838V128H122.048V121.34H118.568V128H115.748ZM126.998 128V113.15H129.518V122.93L133.508 113.15H136.028V128H133.538V117.59C132.838 119.33 132.138 121.07 131.438 122.81C130.758 124.53 130.048 126.26 129.308 128H126.998ZM142.659 128.24C141.639 128.24 140.789 128.13 140.109 127.91C139.449 127.67 138.949 127.22 138.609 126.56C138.289 125.9 138.129 124.91 138.129 123.59V116.63C138.129 115.19 138.489 114.21 139.209 113.69C139.929 113.15 141.049 112.88 142.569 112.88C144.089 112.88 145.209 113.15 145.929 113.69C146.649 114.21 147.009 115.19 147.009 116.63V120.59H140.949V124.7C140.949 125.44 141.059 125.96 141.279 126.26C141.519 126.56 141.969 126.71 142.629 126.71C143.229 126.71 143.639 126.57 143.859 126.29C144.079 125.99 144.189 125.46 144.189 124.7V122.51H147.009V123.56C147.009 124.86 146.839 125.85 146.499 126.53C146.179 127.21 145.699 127.67 145.059 127.91C144.419 128.13 143.619 128.24 142.659 128.24ZM140.949 119.27H144.189V116.51C144.189 115.83 144.079 115.34 143.859 115.04C143.639 114.74 143.209 114.59 142.569 114.59C141.949 114.59 141.519 114.74 141.279 115.04C141.059 115.34 140.949 115.83 140.949 116.51V119.27ZM61.08 161V146.15H66.96C68.08 146.15 68.94 146.4 69.54 146.9C70.16 147.4 70.47 148.16 70.47 149.18V150.2C70.47 151.12 70.22 151.85 69.72 152.39C69.24 152.93 68.55 153.23 67.65 153.29V153.26C68.53 153.26 69.27 153.53 69.87 154.07C70.47 154.59 70.77 155.42 70.77 156.56V157.31C70.77 158.29 70.6 159.05 70.26 159.59C69.94 160.13 69.47 160.5 68.85 160.7C68.25 160.9 67.53 161 66.69 161H61.08ZM64.08 159.53H65.94C66.32 159.53 66.64 159.48 66.9 159.38C67.16 159.26 67.35 159.05 67.47 158.75C67.61 158.45 67.68 158.01 67.68 157.43V156.14C67.68 155.68 67.6 155.32 67.44 155.06C67.3 154.8 67.09 154.62 66.81 154.52C66.53 154.42 66.21 154.37 65.85 154.37H64.08V159.53ZM64.08 152.48H65.82C66.42 152.48 66.87 152.32 67.17 152C67.47 151.68 67.62 151.18 67.62 150.5V149.24C67.62 148.76 67.48 148.39 67.2 148.13C66.92 147.87 66.56 147.74 66.12 147.74H64.08V152.48ZM78.1601 161V146.15H85.4201V148.19H81.1601V161H78.1601ZM87.1591 164.48V146.15H89.8891L89.9491 147.38C90.1291 147 90.4091 146.66 90.7891 146.36C91.1691 146.06 91.7891 145.91 92.6491 145.91C93.4291 145.91 94.0691 146.05 94.5691 146.33C95.0891 146.59 95.4691 146.99 95.7091 147.53C95.9491 148.05 96.0691 148.72 96.0691 149.54V156.8C96.0691 157.8 95.9591 158.63 95.7391 159.29C95.5191 159.93 95.1591 160.41 94.6591 160.73C94.1591 161.03 93.4891 161.18 92.6491 161.18C91.9091 161.18 91.3291 161.06 90.9091 160.82C90.4891 160.58 90.1791 160.29 89.9791 159.95V164.48H87.1591ZM91.6291 159.56C92.0291 159.56 92.3391 159.51 92.5591 159.41C92.7791 159.29 92.9391 159.13 93.0391 158.93C93.1391 158.73 93.1991 158.5 93.2191 158.24C93.2391 157.98 93.2491 157.7 93.2491 157.4V149.87C93.2491 149.57 93.2391 149.29 93.2191 149.03C93.1991 148.77 93.1391 148.54 93.0391 148.34C92.9391 148.12 92.7791 147.96 92.5591 147.86C92.3391 147.74 92.0291 147.68 91.6291 147.68C91.2291 147.68 90.9191 147.75 90.6991 147.89C90.4791 148.03 90.3191 148.21 90.2191 148.43C90.1191 148.63 90.0491 148.86 90.0091 149.12C89.9891 149.38 89.9791 149.62 89.9791 149.84V157.52C89.9791 157.92 90.0191 158.28 90.0991 158.6C90.1791 158.9 90.3291 159.14 90.5491 159.32C90.7891 159.48 91.1491 159.56 91.6291 159.56ZM99.7298 164.51C99.2098 164.51 98.7298 164.47 98.2898 164.39C97.8498 164.31 97.4998 164.24 97.2398 164.18V162.65C97.3598 162.67 97.5198 162.7 97.7198 162.74C97.9398 162.8 98.1898 162.83 98.4698 162.83C98.7498 162.83 99.0598 162.78 99.3998 162.68C99.7398 162.6 99.9898 162.34 100.15 161.9C100.23 161.72 100.31 161.51 100.39 161.27C100.49 161.05 100.51 160.79 100.45 160.49L97.2398 146.15H100.15L102.34 158.24L104.47 146.15H107.14L104.11 159.98C103.79 161.56 103.28 162.71 102.58 163.43C101.88 164.15 100.93 164.51 99.7298 164.51ZM108.277 161V146.15H117.397V161H114.577V148.19H111.097V161H108.277ZM119.586 161V146.15H128.706V161H125.886V148.19H122.406V161H119.586ZM135.364 161.24C134.344 161.24 133.494 161.13 132.814 160.91C132.154 160.67 131.654 160.22 131.314 159.56C130.994 158.9 130.834 157.91 130.834 156.59V149.63C130.834 148.19 131.194 147.21 131.914 146.69C132.634 146.15 133.754 145.88 135.274 145.88C136.794 145.88 137.914 146.15 138.634 146.69C139.354 147.21 139.714 148.19 139.714 149.63V153.59H133.654V157.7C133.654 158.44 133.764 158.96 133.984 159.26C134.224 159.56 134.674 159.71 135.334 159.71C135.934 159.71 136.344 159.57 136.564 159.29C136.784 158.99 136.894 158.46 136.894 157.7V155.51H139.714V156.56C139.714 157.86 139.544 158.85 139.204 159.53C138.884 160.21 138.404 160.67 137.764 160.91C137.124 161.13 136.324 161.24 135.364 161.24ZM133.654 152.27H136.894V149.51C136.894 148.83 136.784 148.34 136.564 148.04C136.344 147.74 135.914 147.59 135.274 147.59C134.654 147.59 134.224 147.74 133.984 148.04C133.764 148.34 133.654 148.83 133.654 149.51V152.27ZM143.596 152.9C143.176 152.9 142.816 152.76 142.516 152.48C142.216 152.18 142.066 151.83 142.066 151.43C142.066 151.01 142.216 150.66 142.516 150.38C142.816 150.1 143.176 149.96 143.596 149.96C144.016 149.96 144.376 150.1 144.676 150.38C144.996 150.66 145.156 151.01 145.156 151.43C145.156 151.83 144.996 152.18 144.676 152.48C144.376 152.76 144.016 152.9 143.596 152.9ZM143.596 161.24C143.176 161.24 142.816 161.1 142.516 160.82C142.216 160.52 142.066 160.17 142.066 159.77C142.066 159.35 142.216 159 142.516 158.72C142.816 158.44 143.176 158.3 143.596 158.3C144.016 158.3 144.376 158.44 144.676 158.72C144.996 159 145.156 159.35 145.156 159.77C145.156 160.17 144.996 160.52 144.676 160.82C144.376 161.1 144.016 161.24 143.596 161.24Z" fill="#888888"/>
<path d="M61.5 317V299.27H64.05V311.24L68.46 299.27H70.98V317H68.43V305.69L64.05 317H61.5ZM73.5605 317V302.15H76.3805V308.18H79.8605V302.15H82.6505V317H79.8605V310.34H76.3805V317H73.5605ZM84.3305 320.33V315.32H85.5005C85.7405 315.28 85.9905 315.17 86.2505 314.99C86.5105 314.81 86.7405 314.53 86.9405 314.15C87.1605 313.75 87.3005 313.23 87.3605 312.59L88.4705 302.15H96.4805V315.32H98.8505V320.33H96.4805V317.51H86.7005V320.33H84.3305ZM89.2505 315.32H93.4805V304.22H91.0505L90.1505 312.29C90.0905 312.83 90.0005 313.41 89.8805 314.03C89.7605 314.65 89.5505 315.08 89.2505 315.32ZM100.514 317V302.15H103.034V311.93L107.024 302.15H109.544V317H107.054V306.59C106.354 308.33 105.654 310.07 104.954 311.81C104.274 313.53 103.564 315.26 102.824 317H100.514ZM111.705 317V302.15H117.585C118.705 302.15 119.565 302.4 120.165 302.9C120.785 303.4 121.095 304.16 121.095 305.18V306.2C121.095 307.12 120.845 307.85 120.345 308.39C119.865 308.93 119.175 309.23 118.275 309.29V309.26C119.155 309.26 119.895 309.53 120.495 310.07C121.095 310.59 121.395 311.42 121.395 312.56V313.31C121.395 314.29 121.225 315.05 120.885 315.59C120.565 316.13 120.095 316.5 119.475 316.7C118.875 316.9 118.155 317 117.315 317H111.705ZM114.705 315.53H116.565C116.945 315.53 117.265 315.48 117.525 315.38C117.785 315.26 117.975 315.05 118.095 314.75C118.235 314.45 118.305 314.01 118.305 313.43V312.14C118.305 311.68 118.225 311.32 118.065 311.06C117.925 310.8 117.715 310.62 117.435 310.52C117.155 310.42 116.835 310.37 116.475 310.37H114.705V315.53ZM114.705 308.48H116.445C117.045 308.48 117.495 308.32 117.795 308C118.095 307.68 118.245 307.18 118.245 306.5V305.24C118.245 304.76 118.105 304.39 117.825 304.13C117.545 303.87 117.185 303.74 116.745 303.74H114.705V308.48ZM123.6 317V302.15H126.12V311.93L130.11 302.15H132.63V317H130.14V306.59C129.44 308.33 128.74 310.07 128.04 311.81C127.36 313.53 126.65 315.26 125.91 317H123.6ZM134.311 320.33V315.32H135.481C135.721 315.28 135.971 315.17 136.231 314.99C136.491 314.81 136.721 314.53 136.921 314.15C137.141 313.75 137.281 313.23 137.341 312.59L138.451 302.15H146.461V315.32H148.831V320.33H146.461V317.51H136.681V320.33H134.311ZM139.231 315.32H143.461V304.22H141.031L140.131 312.29C140.071 312.83 139.981 313.41 139.861 314.03C139.741 314.65 139.531 315.08 139.231 315.32ZM152.054 320.51C151.534 320.51 151.054 320.47 150.614 320.39C150.174 320.31 149.824 320.24 149.564 320.18V318.65C149.684 318.67 149.844 318.7 150.044 318.74C150.264 318.8 150.514 318.83 150.794 318.83C151.074 318.83 151.384 318.78 151.724 318.68C152.064 318.6 152.314 318.34 152.474 317.9C152.554 317.72 152.634 317.51 152.714 317.27C152.814 317.05 152.834 316.79 152.774 316.49L149.564 302.15H152.474L154.664 314.24L156.794 302.15H159.464L156.434 315.98C156.114 317.56 155.604 318.71 154.904 319.43C154.204 320.15 153.254 320.51 152.054 320.51ZM163.481 317.24C162.981 317.24 162.501 317.17 162.041 317.03C161.601 316.89 161.221 316.6 160.901 316.16C160.601 315.7 160.451 315 160.451 314.06V312.29C160.451 311.31 160.731 310.53 161.291 309.95C161.871 309.35 162.731 308.82 163.871 308.36C164.531 308.08 165.051 307.83 165.431 307.61C165.831 307.39 166.121 307.13 166.301 306.83C166.481 306.53 166.571 306.12 166.571 305.6V304.85C166.571 304.47 166.491 304.18 166.331 303.98C166.191 303.78 166.001 303.64 165.761 303.56C165.541 303.46 165.281 303.41 164.981 303.41C164.321 303.41 163.881 303.61 163.661 304.01C163.461 304.41 163.361 305.05 163.361 305.93V307.19H160.811V305.66C160.811 304.92 160.911 304.27 161.111 303.71C161.311 303.13 161.711 302.68 162.311 302.36C162.911 302.02 163.801 301.85 164.981 301.85C166.201 301.85 167.121 301.97 167.741 302.21C168.381 302.45 168.821 302.82 169.061 303.32C169.301 303.8 169.421 304.42 169.421 305.18V317H166.601V315.29C166.401 315.91 166.001 316.39 165.401 316.73C164.821 317.07 164.181 317.24 163.481 317.24ZM164.651 315.35C165.331 315.35 165.811 315.11 166.091 314.63C166.391 314.13 166.541 313.44 166.541 312.56V308.39C166.401 308.63 166.151 308.85 165.791 309.05C165.431 309.25 165.081 309.46 164.741 309.68C164.241 309.98 163.861 310.3 163.601 310.64C163.341 310.96 163.211 311.41 163.211 311.99V313.4C163.211 313.94 163.271 314.36 163.391 314.66C163.531 314.94 163.711 315.13 163.931 315.23C164.171 315.31 164.411 315.35 164.651 315.35ZM170.958 317V315.5C171.338 315.5 171.678 315.29 171.978 314.87C172.278 314.45 172.448 313.9 172.488 313.22L173.448 302.15H181.968V317H179.088V304.19H176.298L175.368 314C175.328 314.28 175.278 314.6 175.218 314.96C175.178 315.3 175.068 315.63 174.888 315.95C174.728 316.25 174.478 316.5 174.138 316.7C173.798 316.9 173.318 317 172.698 317H170.958ZM184.097 317V302.18H186.917V306.8H189.677C190.437 306.8 191.077 306.92 191.597 307.16C192.117 307.4 192.507 307.79 192.767 308.33C193.027 308.85 193.157 309.55 193.157 310.43V312.11C193.157 313.05 193.087 313.84 192.947 314.48C192.807 315.1 192.577 315.6 192.257 315.98C191.957 316.34 191.557 316.6 191.057 316.76C190.577 316.92 189.997 317 189.317 317H184.097ZM186.917 315.5H188.657C189.157 315.5 189.527 315.41 189.767 315.23C190.007 315.03 190.157 314.76 190.217 314.42C190.297 314.08 190.337 313.69 190.337 313.25V310.88C190.337 310.44 190.307 310.05 190.247 309.71C190.187 309.35 190.037 309.07 189.797 308.87C189.577 308.67 189.197 308.57 188.657 308.57H186.917V315.5ZM195.348 317V302.15H198.168V308.18H201.648V302.15H204.438V317H201.648V310.34H198.168V317H195.348ZM211.008 317.24C210.028 317.24 209.198 317.12 208.518 316.88C207.858 316.62 207.358 316.15 207.018 315.47C206.698 314.79 206.538 313.81 206.538 312.53V305.99C206.538 304.49 206.898 303.43 207.618 302.81C208.338 302.19 209.468 301.88 211.008 301.88C212.528 301.88 213.648 302.19 214.368 302.81C215.088 303.41 215.448 304.47 215.448 305.99V312.53C215.448 313.81 215.278 314.79 214.938 315.47C214.618 316.15 214.128 316.62 213.468 316.88C212.808 317.12 211.988 317.24 211.008 317.24ZM211.008 315.53C211.588 315.53 211.998 315.38 212.238 315.08C212.498 314.76 212.628 314.2 212.628 313.4V305.75C212.628 304.97 212.508 304.42 212.268 304.1C212.028 303.78 211.608 303.62 211.008 303.62C210.428 303.62 210.008 303.78 209.748 304.1C209.488 304.4 209.358 304.95 209.358 305.75V313.4C209.358 314.2 209.488 314.76 209.748 315.08C210.008 315.38 210.428 315.53 211.008 315.53ZM221.995 317.24C220.975 317.24 220.125 317.13 219.445 316.91C218.785 316.67 218.285 316.22 217.945 315.56C217.625 314.9 217.465 313.91 217.465 312.59V305.63C217.465 304.19 217.825 303.21 218.545 302.69C219.265 302.15 220.385 301.88 221.905 301.88C223.425 301.88 224.545 302.15 225.265 302.69C225.985 303.21 226.345 304.19 226.345 305.63V309.59H220.285V313.7C220.285 314.44 220.395 314.96 220.615 315.26C220.855 315.56 221.305 315.71 221.965 315.71C222.565 315.71 222.975 315.57 223.195 315.29C223.415 314.99 223.525 314.46 223.525 313.7V311.51H226.345V312.56C226.345 313.86 226.175 314.85 225.835 315.53C225.515 316.21 225.035 316.67 224.395 316.91C223.755 317.13 222.955 317.24 221.995 317.24ZM220.285 308.27H223.525V305.51C223.525 304.83 223.415 304.34 223.195 304.04C222.975 303.74 222.545 303.59 221.905 303.59C221.285 303.59 220.855 303.74 220.615 304.04C220.395 304.34 220.285 304.83 220.285 305.51V308.27ZM65.49 350.24C64.51 350.24 63.68 350.12 63 349.88C62.34 349.62 61.84 349.15 61.5 348.47C61.18 347.79 61.02 346.81 61.02 345.53V338.99C61.02 337.49 61.38 336.43 62.1 335.81C62.82 335.19 63.95 334.88 65.49 334.88C67.01 334.88 68.13 335.19 68.85 335.81C69.57 336.41 69.93 337.47 69.93 338.99V345.53C69.93 346.81 69.76 347.79 69.42 348.47C69.1 349.15 68.61 349.62 67.95 349.88C67.29 350.12 66.47 350.24 65.49 350.24ZM65.49 348.53C66.07 348.53 66.48 348.38 66.72 348.08C66.98 347.76 67.11 347.2 67.11 346.4V338.75C67.11 337.97 66.99 337.42 66.75 337.1C66.51 336.78 66.09 336.62 65.49 336.62C64.91 336.62 64.49 336.78 64.23 337.1C63.97 337.4 63.84 337.95 63.84 338.75V346.4C63.84 347.2 63.97 347.76 64.23 348.08C64.49 348.38 64.91 348.53 65.49 348.53ZM76.3577 350.21C75.4177 350.21 74.6177 350.09 73.9577 349.85C73.3177 349.61 72.8177 349.21 72.4577 348.65C72.1177 348.07 71.9477 347.3 71.9477 346.34V335.66C71.9477 334.66 72.0477 333.85 72.2477 333.23C72.4677 332.59 72.8177 332.12 73.2977 331.82C73.7977 331.5 74.4677 331.34 75.3077 331.34C75.7077 331.34 76.1577 331.32 76.6577 331.28C77.1777 331.22 77.6777 331.15 78.1577 331.07C78.6577 330.99 79.0777 330.9 79.4177 330.8C79.7577 330.7 79.9577 330.61 80.0177 330.53V331.73C80.0177 332.01 79.8277 332.29 79.4477 332.57C79.0877 332.83 78.4977 332.97 77.6777 332.99H77.2577C76.6177 332.99 76.1177 333.07 75.7577 333.23C75.3977 333.39 75.1377 333.65 74.9777 334.01C74.8377 334.35 74.7577 334.8 74.7377 335.36V337.04C74.9177 336.7 75.2277 336.39 75.6677 336.11C76.1077 335.83 76.7177 335.69 77.4977 335.69C78.2377 335.69 78.8677 335.81 79.3877 336.05C79.9077 336.27 80.3077 336.64 80.5877 337.16C80.8677 337.68 81.0077 338.41 81.0077 339.35V345.62C81.0077 346.56 80.9177 347.33 80.7377 347.93C80.5777 348.51 80.3077 348.97 79.9277 349.31C79.5677 349.65 79.0877 349.88 78.4877 350C77.9077 350.14 77.1977 350.21 76.3577 350.21ZM76.4777 348.53C76.9777 348.53 77.3477 348.44 77.5877 348.26C77.8477 348.06 78.0177 347.79 78.0977 347.45C78.1777 347.11 78.2177 346.72 78.2177 346.28V339.62C78.2177 339.2 78.1777 338.83 78.0977 338.51C78.0177 338.19 77.8577 337.94 77.6177 337.76C77.3777 337.58 77.0077 337.49 76.5077 337.49C76.0877 337.49 75.7577 337.55 75.5177 337.67C75.2777 337.77 75.0977 337.92 74.9777 338.12C74.8777 338.3 74.8077 338.5 74.7677 338.72C74.7477 338.94 74.7377 339.16 74.7377 339.38V346.28C74.7377 346.72 74.7777 347.11 74.8577 347.45C74.9377 347.79 75.0977 348.06 75.3377 348.26C75.5977 348.44 75.9777 348.53 76.4777 348.53ZM84.6713 353.51C84.1513 353.51 83.6713 353.47 83.2313 353.39C82.7913 353.31 82.4413 353.24 82.1813 353.18V351.65C82.3013 351.67 82.4613 351.7 82.6613 351.74C82.8813 351.8 83.1313 351.83 83.4113 351.83C83.6913 351.83 84.0013 351.78 84.3413 351.68C84.6813 351.6 84.9313 351.34 85.0913 350.9C85.1713 350.72 85.2513 350.51 85.3313 350.27C85.4313 350.05 85.4513 349.79 85.3913 349.49L82.1813 335.15H85.0913L87.2813 347.24L89.4113 335.15H92.0813L89.0513 348.98C88.7313 350.56 88.2213 351.71 87.5213 352.43C86.8213 353.15 85.8713 353.51 84.6713 353.51ZM99.0387 350V344.72C98.8987 345.3 98.5687 345.77 98.0487 346.13C97.5287 346.47 96.9187 346.64 96.2187 346.64C95.2987 346.64 94.5987 346.48 94.1187 346.16C93.6387 345.84 93.3187 345.38 93.1587 344.78C92.9987 344.18 92.9187 343.47 92.9187 342.65V335.15H95.7387V342.68C95.7387 343.34 95.8387 343.85 96.0387 344.21C96.2587 344.55 96.6687 344.72 97.2687 344.72C97.7287 344.72 98.0787 344.61 98.3187 344.39C98.5787 344.15 98.7587 343.91 98.8587 343.67V335.15H101.679V350H99.0387ZM108.294 350.24C107.274 350.24 106.424 350.13 105.744 349.91C105.084 349.67 104.584 349.22 104.244 348.56C103.924 347.9 103.764 346.91 103.764 345.59V338.63C103.764 337.19 104.124 336.21 104.844 335.69C105.564 335.15 106.684 334.88 108.204 334.88C109.724 334.88 110.844 335.15 111.564 335.69C112.284 336.21 112.644 337.19 112.644 338.63V342.59H106.584V346.7C106.584 347.44 106.694 347.96 106.914 348.26C107.154 348.56 107.604 348.71 108.264 348.71C108.864 348.71 109.274 348.57 109.494 348.29C109.714 347.99 109.824 347.46 109.824 346.7V344.51H112.644V345.56C112.644 346.86 112.474 347.85 112.134 348.53C111.814 349.21 111.334 349.67 110.694 349.91C110.054 350.13 109.254 350.24 108.294 350.24ZM106.584 341.27H109.824V338.51C109.824 337.83 109.714 337.34 109.494 337.04C109.274 336.74 108.844 336.59 108.204 336.59C107.584 336.59 107.154 336.74 106.914 337.04C106.694 337.34 106.584 337.83 106.584 338.51V341.27ZM114.576 350V335.15H117.396V341.18H120.876V335.15H123.666V350H120.876V343.34H117.396V350H114.576ZM125.826 350V335.15H128.346V344.93L132.336 335.15H134.856V350H132.366V339.59C131.666 341.33 130.966 343.07 130.266 344.81C129.586 346.53 128.876 348.26 128.136 350H125.826ZM141.488 350.24C140.468 350.24 139.618 350.13 138.938 349.91C138.278 349.67 137.778 349.22 137.438 348.56C137.118 347.9 136.958 346.91 136.958 345.59V338.63C136.958 337.19 137.318 336.21 138.038 335.69C138.758 335.15 139.878 334.88 141.398 334.88C142.918 334.88 144.038 335.15 144.757 335.69C145.478 336.21 145.838 337.19 145.838 338.63V342.59H139.778V346.7C139.778 347.44 139.888 347.96 140.108 348.26C140.348 348.56 140.798 348.71 141.458 348.71C142.058 348.71 142.468 348.57 142.688 348.29C142.908 347.99 143.018 347.46 143.018 346.7V344.51H145.838V345.56C145.838 346.86 145.668 347.85 145.328 348.53C145.008 349.21 144.528 349.67 143.888 349.91C143.248 350.13 142.448 350.24 141.488 350.24ZM139.778 341.27H143.018V338.51C143.018 337.83 142.908 337.34 142.688 337.04C142.468 336.74 142.038 336.59 141.398 336.59C140.778 336.59 140.348 336.74 140.108 337.04C139.888 337.34 139.778 337.83 139.778 338.51V341.27ZM149.719 341.9C149.299 341.9 148.939 341.76 148.639 341.48C148.339 341.18 148.189 340.83 148.189 340.43C148.189 340.01 148.339 339.66 148.639 339.38C148.939 339.1 149.299 338.96 149.719 338.96C150.139 338.96 150.499 339.1 150.799 339.38C151.119 339.66 151.279 340.01 151.279 340.43C151.279 340.83 151.119 341.18 150.799 341.48C150.499 341.76 150.139 341.9 149.719 341.9ZM149.719 350.24C149.299 350.24 148.939 350.1 148.639 349.82C148.339 349.52 148.189 349.17 148.189 348.77C148.189 348.35 148.339 348 148.639 347.72C148.939 347.44 149.299 347.3 149.719 347.3C150.139 347.3 150.499 347.44 150.799 347.72C151.119 348 151.279 348.35 151.279 348.77C151.279 349.17 151.119 349.52 150.799 349.82C150.499 350.1 150.139 350.24 149.719 350.24Z" fill="#888888"/>
<path d="M28 257H274" stroke="#B8B8B8"/>
</svg>
