<svg width="118" height="63" viewBox="0 0 118 63" fill="none" xmlns="http://www.w3.org/2000/svg">
<path d="M23.6074 30.2686C23.6074 33.3697 19.6785 35.3719 16.3408 35.3719C13.5131 35.3719 12.1381 33.8407 11.1956 32.5459C9.38824 33.6449 7.42379 34.6662 5.57756 34.7843C3.4965 34.9413 1.92397 34.1952 1.8851 32.3889C1.80574 29.9935 5.57756 28.6986 8.32747 28.4235C3.73133 27.8732 0 24.8125 0 19.8258C0 13.3483 5.42047 9.42174 10.6838 9.42174C12.2548 9.42174 13.7479 9.73574 15.084 10.2861L21.8017 8.32275L22.0382 10.2861L15.714 10.5612C18.5417 11.9353 20.5061 14.5655 20.5061 18.1376C20.5061 24.4192 15.1245 28.5416 9.82227 28.5416C9.70404 28.5416 9.58582 28.5416 9.42873 28.5028C6.83591 28.6209 3.81068 29.5241 4.00826 31.8791C4.08762 33.1739 4.75485 34.1175 6.20754 34.1175C8.21086 34.1564 10.4895 32.6252 13.003 31.0941C15.91 29.3671 18.3457 27.3245 20.349 27.2468C22.7054 27.2079 23.6091 28.5416 23.6091 30.2702L23.6074 30.2686ZM12.8831 27.8343C17.3222 26.5395 18.5789 21.6321 17.2039 16.8816C15.829 12.17 12.1365 8.83421 7.65861 10.129C3.1807 11.4239 1.96283 16.3313 3.33779 21.0817C4.71274 25.7933 8.4052 29.1696 12.8831 27.8343ZM19.2461 28.0302C18.0283 28.1872 15.5148 29.8753 13.2362 31.2883C12.6467 31.6411 12.0572 31.9956 11.4677 32.3484C12.2143 33.4474 13.4321 35.0579 16.3391 35.0967C19.3644 35.1356 21.0535 33.5267 21.2106 30.9354C21.2883 29.1291 20.817 27.7955 19.2461 28.0302Z" fill="#DDDDDF"/>
<path d="M44.0748 18.1373C44.0748 24.4188 38.6932 28.5413 33.4298 28.5413C28.1664 28.5413 23.6091 25.322 23.6091 19.8254C23.6091 13.348 28.9907 9.42139 34.2541 9.42139C39.5175 9.42139 44.0748 12.7184 44.0748 18.1373ZM40.7758 16.8813C39.4009 12.1697 35.7084 8.83385 31.2305 10.1287C26.7526 11.4235 25.5347 16.331 26.9097 21.0814C28.2846 25.793 31.9771 29.1693 36.455 27.834C40.9329 26.5391 42.1508 21.6317 40.7758 16.8813Z" fill="#DDDDDF"/>
<path d="M51.6557 28.03V28.3051H46.8247V28.03C47.4142 27.6771 47.6895 27.088 47.6895 25.7138V3.02183C47.6895 1.64769 47.5713 1.25438 46.8247 1.13784V0.823844L50.5172 0H50.7925V25.7138C50.7925 27.088 51.0678 27.6771 51.6573 28.03H51.6557Z" fill="#DDDDDF"/>
<path d="M73.927 28.3051H69.9592V17.7846C69.2126 22.3392 67.2093 28.5414 61.7095 28.5414C58.5272 28.5414 54.5999 25.7931 54.4428 20.7676C54.2063 11.0709 63.2415 9.42155 67.6028 9.42155C68.5065 9.42155 69.292 9.57855 69.9592 9.77439V3.02183C69.9592 1.64769 69.841 1.25438 69.0555 1.13784V0.823843L72.7869 0H73.0622V25.7138C73.0622 27.088 73.3375 27.6771 73.927 28.03V28.3051ZM69.9592 15.4684V9.97186C69.7633 9.93301 68.8596 9.61902 67.6028 9.61902C63.7922 9.69671 56.9579 11.346 57.5069 21.3567C57.7028 24.7718 60.0997 28.4621 63.478 27.8341C67.8782 26.9698 69.9592 18.7654 69.9592 15.4684Z" fill="#DDDDDF"/>
<path d="M95.8064 22.0638C95.57 24.8509 93.0954 28.5412 87.5178 28.5412C81.9402 28.5412 76.8728 25.8722 76.7157 19.3948C76.5198 12.6034 82.6868 9.65926 87.0077 9.42295C90.3471 9.26595 94.9432 10.8748 95.4922 15.6252H91.8386C94.0784 16.2144 96.1206 18.4917 95.8064 22.0638ZM90.2288 15.6252H80.0551C79.545 17.7067 79.6616 20.0228 80.3305 21.9068C81.7831 26.0292 84.7306 27.8355 88.7373 27.6785C92.1156 27.5215 95.0614 25.2054 95.455 22.1431C95.9262 18.0595 93.2152 15.6268 90.2305 15.6268L90.2288 15.6252ZM80.1329 15.3112H92.6629C92.1528 11.8961 89.0887 9.14779 85.2392 9.89394C82.5686 10.4038 80.839 12.6422 80.1329 15.3112Z" fill="#DDDDDF"/>
<path d="M118 28.0298V28.3049H113.129V28.0298C113.757 27.677 113.914 27.0085 113.796 25.7137C113.678 24.4188 113.088 17.7828 112.892 15.7418C112.617 12.7977 111.164 9.46023 107.786 10.1287C103.386 10.993 102.561 19.1974 102.561 22.4944V25.7137C102.561 27.0878 102.837 27.677 103.465 28.0298V28.3049H98.5935V28.0298C99.183 27.677 99.4583 27.0878 99.4583 25.7137V12.4448C99.4583 11.0707 99.3401 10.6774 98.5935 10.5608V10.2857L102.286 9.42139H102.561V19.1569C103.071 14.7594 104.408 9.42139 109.514 9.42139C112.735 9.42139 115.485 11.6194 115.956 16.331C116.35 20.1394 116.742 24.2618 116.899 25.7137C117.056 27.1267 117.409 27.677 117.998 28.0298H118Z" fill="#DDDDDF"/>
<path d="M43.5486 36.4604L42.7631 40.0714H42.5672C41.3493 36.7339 38.8359 34.2996 36.5961 34.2996C33.9255 34.2996 32.4324 35.7919 32.2364 37.4008C31.6858 42.661 44.9252 41.248 44.4928 47.6478C44.2563 50.7489 41.351 53.065 36.9508 53.065C33.7685 53.065 31.4121 52.0049 29.2905 50.4349L30.1149 46.5099H30.3108C31.6469 49.2582 34.5928 52.5163 38.0893 52.5163C40.9169 52.5163 43.0385 51.0645 43.2749 49.3764C44.0215 44.2343 30.3124 46.5099 31.255 38.8154C31.5692 36.2629 32.983 33.9468 37.265 33.9468C39.3071 33.9468 41.9793 35.2416 43.5502 36.4588L43.5486 36.4604Z" fill="#DDDDDF"/>
<path d="M66.7625 41.6821C66.999 51.4177 57.9638 53.067 53.5636 53.067C52.6988 53.067 51.9133 52.91 51.2461 52.7141V59.4667C51.2461 60.8408 51.3643 61.2342 52.1109 61.3507V61.6258L48.4185 62.4901H48.1431V36.9722C48.1431 35.598 48.0249 35.2047 47.2783 35.0882V34.813L50.9708 33.9487H51.2461V44.7056C51.9538 40.151 53.9571 33.9487 59.4553 33.9487C62.6765 33.9487 66.6038 36.697 66.7609 41.6821H66.7625ZM63.6984 41.1318C63.5025 37.7167 61.1056 33.9876 57.7273 34.6544C53.3272 35.5187 51.2461 43.7231 51.2461 47.0201V52.4762C51.4421 52.5555 52.3457 52.8695 53.6025 52.8291C57.3743 52.7902 64.2474 51.1409 63.6984 41.1302V41.1318Z" fill="#DDDDDF"/>
<path d="M87.071 52.8303H83.1033V47.3338C82.0814 50.7877 79.9209 53.065 76.1507 53.065C72.9296 53.065 69.7877 51.5339 69.276 48.7079C68.6087 44.7036 71.004 42.3486 74.0292 41.091C73.0073 38.8137 74.2252 33.9468 79.4885 33.9468C82.7486 33.9468 86.2062 35.6738 86.2062 40.5035V50.2391C86.2062 51.6132 86.4815 52.2024 87.071 52.5552V52.8303ZM83.1033 46.6281V40.5828C82.9073 40.5035 81.9647 40.23 80.7469 40.23C76.4649 40.23 70.6509 42.3503 72.3401 49.2598C72.8502 51.3801 75.1288 52.675 77.0933 52.5584C80.5104 52.3626 82.3178 49.4573 83.1033 46.6297V46.6281ZM74.4227 40.9357C76.5443 40.1507 78.9007 39.8755 80.7469 39.8755C81.6506 39.8755 82.436 40.0325 83.1033 40.2283V39.9532C83.1033 36.9702 81.9243 34.3401 79.1355 34.3401C75.6001 34.3401 73.2438 37.7552 74.4211 40.9357H74.4227Z" fill="#DDDDDF"/>
</svg>
