<svg width="50" height="50" viewBox="0 0 50 50" fill="none" xmlns="http://www.w3.org/2000/svg">
<g clip-path="url(#clip0_5306_3)">
<path fill-rule="evenodd" clip-rule="evenodd" d="M19.7301 14.06C20.7101 14.78 21.7201 16.14 22.7201 16.99C23.0701 17.29 23.2701 17.35 23.2801 17.94L23.2601 22.29L21.0601 20.97C20.0101 20.32 19.3201 20.1 19.1401 19.33C18.9101 18.36 18.6701 17.43 18.4301 16.47C18.3201 16.05 18.2101 15.42 18.0501 15.06C17.8201 14.54 17.6001 14.52 17.2101 14.19C14.0101 13.59 15.3401 17.21 15.4301 17.71C13.5101 16.99 10.9001 14.33 9.94012 16.21C9.70012 16.7 9.66012 17.39 9.93012 17.9C10.1701 18.39 10.5201 18.55 11.0601 18.82C11.9401 19.27 12.8301 19.72 13.6901 20.22C12.9401 20.57 10.6001 20.65 11.1201 22.52C11.6201 24.32 13.4801 23.59 14.6101 23.29C15.2701 23.11 15.9301 22.94 16.6001 22.77C17.7701 22.46 17.5501 22.53 18.4801 23.02C18.9701 23.28 21.4801 24.6 21.6701 24.82L18.4401 26.76C17.4901 27.35 17.7301 27.32 16.5301 27.02C15.8501 26.84 12.8701 25.97 12.4001 26.05C11.0901 26.27 10.3101 28 11.7501 29.03C12.0201 29.22 13.1401 29.31 13.6901 29.59C13.1001 29.95 10.2501 31.51 9.97012 31.95C9.67012 32.41 9.68012 33.1 9.95012 33.6C10.1801 34.03 10.6201 34.36 11.3201 34.33C12.0701 34.29 14.5701 32.68 15.2101 32.28C15.2201 33.16 14.5901 34.07 14.9701 35.02C15.2601 35.77 16.0601 36.16 17.0001 35.68C18.1201 35.11 18.1501 32.31 18.7401 31.25C18.8901 30.5 18.9501 30.02 19.3801 29.76C20.1101 29.31 22.6701 27.67 23.0801 27.53L23.1101 32.68C22.8001 32.91 19.6901 35.89 19.5201 36.33C19.1101 37.42 19.7601 38.48 20.7801 38.53C22.2101 38.59 22.4101 37.56 23.0801 37.26C23.1001 39.61 22.5401 42.45 24.7101 42.33C26.7601 42.22 25.9901 39.46 26.1501 37.07C26.9301 37.62 27.7401 39.38 29.4101 38.54C29.9801 38.25 30.3501 37.64 30.1001 36.76C29.8601 35.91 28.3801 34.68 27.7401 34.03C25.9001 32.17 26.3201 33.1 26.3201 30.36C26.3201 29.62 26.2601 28.59 26.3501 27.88C27.4201 28.49 28.5201 29.13 29.6201 29.74C29.9401 29.93 30.2401 29.99 30.3801 30.33C30.4701 30.57 30.5701 31.02 30.6501 31.31C30.8401 31.95 30.9901 32.6 31.1901 33.26C31.6101 34.7 31.6701 36.32 33.5301 36.04C34.1101 35.95 34.6501 35.3 34.7201 34.64C34.7801 34.1 34.5701 32.91 34.5301 32.28C36.2401 32.88 38.9601 35.63 40.0601 33.55C40.3201 33.05 40.2601 32.43 39.9801 31.98C39.6601 31.44 36.9301 29.96 36.2801 29.6C36.8801 29.32 37.6301 29.29 38.1001 28.92C39.3001 28 38.7201 26.18 37.2301 26.11C36.4901 26.08 34.0601 26.82 33.1801 27.04C32.0701 27.32 32.3101 27.34 31.3901 26.81L28.3101 25L31.4701 23.08C32.3601 22.56 32.1901 22.45 33.3801 22.77C35.5601 23.35 38.5301 24.56 38.8901 22.47C39.0301 21.62 38.6801 21.02 38.1501 20.77C37.6901 20.55 36.8401 20.46 36.2801 20.22C37.3001 19.55 38.3601 19.03 39.3701 18.39C40.6601 17.57 40.4901 16.13 39.1901 15.51C37.6301 15.36 36.1501 16.88 34.5401 17.52C34.6101 16.94 35.7101 14 33.6501 13.91C31.8901 13.83 31.9601 15.44 31.5301 16.9C31.3201 17.59 31.1701 18.23 30.9701 18.92C30.6401 20.03 30.7301 19.85 29.8401 20.39L26.7101 22.29C26.6901 21.73 26.6501 17.69 26.7301 17.44C26.9001 16.94 29.9801 14.47 30.2801 13.59C30.5101 12.89 30.2101 12.09 29.8301 11.76C28.4601 10.59 27.2201 12.45 26.7101 12.75C26.6801 11.65 26.7101 10.55 26.7001 9.46C26.6901 8.35 26.3001 7.88 25.3401 7.67C23.0301 7.7 23.7501 10.05 23.6401 12.94C22.9501 12.48 22.2801 11.02 20.9001 11.27C20.2401 11.39 19.8501 11.76 19.6201 12.22C19.2501 12.96 19.4901 13.41 19.7301 14.06Z" fill="white"/>
</g>
<defs>
<clipPath id="clip0_5306_3">
<rect width="50" height="50" fill="white"/>
</clipPath>
</defs>
</svg>
