<svg xmlns="http://www.w3.org/2000/svg" xml:space="preserve" width="2480px" height="2480px" version="1.1" style="shape-rendering:geometricPrecision; text-rendering:geometricPrecision; image-rendering:optimizeQuality; fill-rule:evenodd; clip-rule:evenodd"
viewBox="0 0 1240 1240"
 xmlns:xlink="http://www.w3.org/1999/xlink">
 <defs>
  <style type="text/css">
   <![CDATA[
    .fil0 {fill:red}
    .fil1 {fill:white}
   ]]>
  </style>
 </defs>
 <g id="Слой_x0020_1">
  <metadata id="CorelCorpID_0Corel-Layer"/>
  <g id="_915259232">
   <path class="fil0" d="M620.02 0c342.42,0 619.98,277.6 619.98,620.02 0,342.42 -277.56,619.98 -619.98,619.98 -342.42,0 -620.02,-277.56 -620.02,-619.98 0,-342.42 277.6,-620.02 620.02,-620.02z"/>
   <path class="fil1" d="M506.56 398.6l338.67 197.55c8.71,5.08 13.71,13.75 13.71,23.87 0,10.08 -5,18.75 -13.71,23.87l-338.67 197.55c-8.79,5.11 -18.87,5.15 -27.7,0.07 -8.8,-5.08 -13.87,-13.79 -13.87,-23.95l0 -395.08c0,-10.2 5.07,-18.91 13.9,-23.99 8.8,-5.04 18.88,-5 27.67,0.11l0 0z"/>
  </g>
 </g>
</svg>
