<svg xmlns="http://www.w3.org/2000/svg" width="13.5" height="6" viewBox="0 0 13.5 6">
  <defs>
    <style>
      .cls-1 {
        fill: #fff;
        fill-rule: evenodd;
      }
    </style>
  </defs>
  <path id="_" data-name="" class="cls-1" d="M439.93,785.07a0.243,0.243,0,0,0-.18-0.07H430v-1.75a0.236,0.236,0,0,0-.148-0.227,0.246,0.246,0,0,0-.274.047l-3,2.766a0.256,0.256,0,0,0-.078.187,0.247,0.247,0,0,0,.078.18l3,2.735a0.255,0.255,0,0,0,.274.039A0.227,0.227,0,0,0,430,788.75V787h9.75a0.24,0.24,0,0,0,.25-0.25v-1.5A0.243,0.243,0,0,0,439.93,785.07Z" transform="translate(-426.5 -783)"/>
</svg>
