<svg xmlns="http://www.w3.org/2000/svg" width="13.5" height="6" viewBox="0 0 13.5 6">
  <defs>
    <style>
      .cls-1 {
        fill: #fff;
        fill-rule: evenodd;
      }
    </style>
  </defs>
  <path id="_" data-name="" class="cls-1" d="M539.422,785.8l-3-2.734a0.251,0.251,0,0,0-.273-0.04,0.228,0.228,0,0,0-.149.227V785h-9.75a0.24,0.24,0,0,0-.179.07,0.244,0.244,0,0,0-.071.18v1.5a0.244,0.244,0,0,0,.071.18,0.24,0.24,0,0,0,.179.07H536v1.75a0.237,0.237,0,0,0,.149.227,0.244,0.244,0,0,0,.273-0.047l3-2.766a0.255,0.255,0,0,0,.078-0.187,0.247,0.247,0,0,0-.078-0.18h0Z" transform="translate(-526 -783)"/>
</svg>
