<svg xmlns="http://www.w3.org/2000/svg" width="13" height="13" viewBox="0 0 13 13">
  <defs>
    <style>
      .cls-1 {
        fill: #fff;
        fill-rule: evenodd;
      }
    </style>
  </defs>
  <path id="_" data-name="" class="cls-1" d="M482,789a3.506,3.506,0,1,1,2.473-1.027A3.368,3.368,0,0,1,482,789Zm7.211,2.3-2.68-2.68a5.347,5.347,0,0,0,.969-3.117,5.407,5.407,0,0,0-.433-2.137,5.381,5.381,0,0,0-2.93-2.929,5.476,5.476,0,0,0-4.273,0,5.381,5.381,0,0,0-2.93,2.929,5.478,5.478,0,0,0,0,4.274,5.381,5.381,0,0,0,2.93,2.929,5.488,5.488,0,0,0,5.253-.535l2.68,2.672a0.929,0.929,0,0,0,.7.3,1,1,0,0,0,.711-1.7h0Z" transform="translate(-476.5 -780)"/>
</svg>
