<?xml version="1.0" encoding="UTF-8"?> <svg xmlns="http://www.w3.org/2000/svg" width="708" height="424" viewBox="0 0 708 424" fill="none"> <g clip-path="url(#clip0_495_2)"> <rect x="2.09467" width="708" height="424" fill="#FCFCFC"></rect> <line x1="99.7389" y1="282.624" x2="668" y2="282.624" stroke="#A6A6A6" stroke-opacity="0.26" stroke-width="2"></line> <line x1="88.5499" y1="242.675" x2="99.682" y2="242.675" stroke="#A6A6A6" stroke-opacity="0.26" stroke-width="2"></line> <line x1="89.8539" y1="282.624" x2="100.986" y2="282.624" stroke="#A6A6A6" stroke-opacity="0.26" stroke-width="2"></line> <line x1="89.8038" y1="322.573" x2="100.936" y2="322.573" stroke="#A6A6A6" stroke-opacity="0.26" stroke-width="2"></line> <line x1="89.8038" y1="362.523" x2="100.936" y2="362.523" stroke="#A6A6A6" stroke-opacity="0.26" stroke-width="2"></line> <line x1="88.5499" y1="202.725" x2="99.682" y2="202.725" stroke="#A6A6A6" stroke-opacity="0.26" stroke-width="2"></line> <line x1="88.5499" y1="162.776" x2="99.682" y2="162.776" stroke="#A6A6A6" stroke-opacity="0.26" stroke-width="2"></line> <line x1="88.5499" y1="122.826" x2="99.682" y2="122.826" stroke="#A6A6A6" stroke-opacity="0.26" stroke-width="2"></line> <line x1="87.8169" y1="82.877" x2="98.9489" y2="82.877" stroke="#A6A6A6" stroke-opacity="0.26" stroke-width="2"></line> <path d="M83.0434 283.296V284.814C83.0434 285.629 82.9705 286.318 82.8247 286.878C82.6788 287.439 82.4692 287.89 82.1958 288.232C81.9223 288.573 81.5919 288.822 81.2045 288.977C80.8217 289.127 80.3888 289.202 79.9057 289.202C79.5229 289.202 79.1697 289.155 78.8461 289.059C78.5226 288.963 78.2309 288.81 77.9711 288.601C77.7159 288.387 77.4972 288.109 77.3149 287.767C77.1326 287.425 76.9936 287.01 76.8979 286.523C76.8022 286.035 76.7543 285.465 76.7543 284.814V283.296C76.7543 282.48 76.8273 281.797 76.9731 281.245C77.1235 280.694 77.3354 280.252 77.6088 279.919C77.8823 279.582 78.2104 279.34 78.5932 279.195C78.9806 279.049 79.4135 278.976 79.892 278.976C80.2794 278.976 80.6349 279.024 80.9584 279.119C81.2866 279.211 81.5782 279.359 81.8334 279.564C82.0887 279.764 82.3051 280.033 82.4829 280.37C82.6652 280.703 82.8042 281.111 82.8999 281.594C82.9956 282.077 83.0434 282.644 83.0434 283.296ZM81.7719 285.019V283.084C81.7719 282.638 81.7446 282.246 81.6899 281.908C81.6398 281.567 81.5646 281.275 81.4643 281.033C81.364 280.792 81.2364 280.596 81.0815 280.446C80.9311 280.295 80.7557 280.186 80.5551 280.117C80.3592 280.045 80.1381 280.008 79.892 280.008C79.5913 280.008 79.3247 280.065 79.0922 280.179C78.8598 280.288 78.6639 280.464 78.5043 280.705C78.3494 280.947 78.2309 281.264 78.1489 281.656C78.0668 282.047 78.0258 282.524 78.0258 283.084V285.019C78.0258 285.465 78.0509 285.86 78.101 286.201C78.1557 286.543 78.2355 286.839 78.3403 287.09C78.4451 287.336 78.5727 287.539 78.7231 287.698C78.8735 287.858 79.0467 287.976 79.2426 288.054C79.4432 288.127 79.6642 288.163 79.9057 288.163C80.2156 288.163 80.4868 288.104 80.7192 287.986C80.9516 287.867 81.1453 287.683 81.3002 287.432C81.4598 287.177 81.5782 286.851 81.6557 286.454C81.7332 286.053 81.7719 285.575 81.7719 285.019Z" fill="#454545"></path> <path d="M75.6947 322.104V323.144H72.3587V322.104H75.6947ZM80.9515 316.848V326.855H79.6869V318.427L77.1371 319.356V318.215L80.7533 316.848H80.9515Z" fill="#454545"></path> <path d="M75.6947 359.895V360.934H72.3587V359.895H75.6947ZM83.3168 363.606V364.646H76.8021V363.736L80.0629 360.106C80.4639 359.66 80.7738 359.282 80.9925 358.972C81.2158 358.657 81.3708 358.377 81.4574 358.131C81.5485 357.88 81.5941 357.625 81.5941 357.365C81.5941 357.037 81.5257 356.741 81.389 356.477C81.2569 356.208 81.0609 355.993 80.8011 355.834C80.5414 355.674 80.2269 355.595 79.8578 355.595C79.4157 355.595 79.0466 355.681 78.7504 355.854C78.4587 356.023 78.2399 356.26 78.0941 356.565C77.9483 356.871 77.8754 357.222 77.8754 357.618H76.6107C76.6107 357.058 76.7337 356.545 76.9798 356.08C77.2259 355.615 77.5905 355.246 78.0736 354.973C78.5567 354.695 79.1514 354.556 79.8578 354.556C80.4867 354.556 81.0244 354.667 81.4711 354.891C81.9177 355.109 82.2595 355.419 82.4964 355.82C82.738 356.217 82.8587 356.682 82.8587 357.215C82.8587 357.507 82.8086 357.803 82.7084 358.104C82.6127 358.4 82.4782 358.696 82.305 358.992C82.1364 359.288 81.9382 359.58 81.7103 359.867C81.487 360.154 81.2477 360.437 80.9925 360.715L78.3265 363.606H83.3168Z" fill="#454545"></path> <path d="M80.9515 236.949V246.957H79.6868V238.528L77.137 239.458V238.316L80.7532 236.949H80.9515Z" fill="#454545"></path> <path d="M83.3167 204.889V205.928H76.802V205.019L80.0628 201.389C80.4638 200.942 80.7737 200.564 80.9925 200.254C81.2158 199.939 81.3707 199.659 81.4573 199.413C81.5485 199.162 81.594 198.907 81.594 198.647C81.594 198.319 81.5257 198.023 81.3889 197.759C81.2568 197.49 81.0608 197.276 80.8011 197.116C80.5413 196.957 80.2268 196.877 79.8577 196.877C79.4156 196.877 79.0465 196.964 78.7503 197.137C78.4586 197.305 78.2399 197.542 78.094 197.848C77.9482 198.153 77.8753 198.504 77.8753 198.9H76.6106C76.6106 198.34 76.7337 197.827 76.9798 197.362C77.2259 196.897 77.5904 196.528 78.0735 196.255C78.5566 195.977 79.1513 195.838 79.8577 195.838C80.4866 195.838 81.0244 195.95 81.471 196.173C81.9176 196.392 82.2594 196.701 82.4964 197.103C82.7379 197.499 82.8587 197.964 82.8587 198.497C82.8587 198.789 82.8085 199.085 82.7083 199.386C82.6126 199.682 82.4781 199.978 82.305 200.274C82.1363 200.571 81.9381 200.862 81.7102 201.149C81.4869 201.437 81.2477 201.719 80.9925 201.997L78.3264 204.889H83.3167Z" fill="#454545"></path> <path d="M78.6409 160.38H79.5432C79.9853 160.38 80.3499 160.307 80.637 160.161C80.9287 160.01 81.1451 159.808 81.2864 159.552C81.4322 159.293 81.5052 159.001 81.5052 158.677C81.5052 158.295 81.4414 157.973 81.3138 157.714C81.1861 157.454 80.9947 157.258 80.7395 157.126C80.4843 156.994 80.1608 156.927 79.7688 156.927C79.4134 156.927 79.0989 156.998 78.8255 157.139C78.5566 157.276 78.3447 157.472 78.1897 157.727C78.0393 157.983 77.9641 158.283 77.9641 158.63H76.6995C76.6995 158.124 76.8271 157.663 77.0823 157.249C77.3375 156.834 77.6953 156.504 78.1555 156.258C78.6204 156.011 79.1582 155.888 79.7688 155.888C80.3704 155.888 80.8968 155.996 81.3479 156.21C81.7991 156.419 82.15 156.734 82.4007 157.153C82.6513 157.568 82.7766 158.085 82.7766 158.705C82.7766 158.955 82.7174 159.224 82.5989 159.511C82.485 159.794 82.305 160.058 82.0589 160.304C81.8173 160.551 81.5029 160.753 81.1155 160.913C80.7281 161.068 80.2633 161.145 79.721 161.145H78.6409V160.38ZM78.6409 161.419V160.66H79.721C80.3544 160.66 80.8785 160.735 81.2932 160.885C81.708 161.036 82.0338 161.236 82.2708 161.487C82.5123 161.738 82.6809 162.013 82.7766 162.314C82.8769 162.61 82.927 162.907 82.927 163.203C82.927 163.668 82.8473 164.08 82.6878 164.44C82.5328 164.8 82.3118 165.106 82.0247 165.356C81.7421 165.607 81.4095 165.796 81.0266 165.924C80.6438 166.051 80.2268 166.115 79.7757 166.115C79.3427 166.115 78.9348 166.053 78.552 165.93C78.1738 165.807 77.8388 165.63 77.5471 165.397C77.2555 165.16 77.0276 164.871 76.8636 164.529C76.6995 164.183 76.6175 163.788 76.6175 163.346H77.8821C77.8821 163.693 77.9573 163.996 78.1077 164.256C78.2626 164.515 78.4814 164.718 78.7639 164.864C79.0511 165.005 79.3883 165.076 79.7757 165.076C80.163 165.076 80.4957 165.01 80.7737 164.878C81.0563 164.741 81.2727 164.536 81.4231 164.262C81.5781 163.989 81.6555 163.645 81.6555 163.23C81.6555 162.816 81.569 162.476 81.3958 162.212C81.2226 161.943 80.9765 161.745 80.6575 161.617C80.343 161.485 79.9716 161.419 79.5432 161.419H78.6409Z" fill="#454545"></path> <path d="M83.5217 122.679V123.719H76.3303V122.973L80.7873 116.076H81.8195L80.7121 118.072L77.7658 122.679H83.5217ZM82.134 116.076V126.029H80.8694V116.076H82.134Z" fill="#454545"></path> <path d="M78.3947 81.3423L77.383 81.0825L77.882 76.1265H82.9885V77.2954H78.9553L78.6545 80.0024C78.8368 79.8976 79.0669 79.7996 79.3449 79.7085C79.6275 79.6174 79.9511 79.5718 80.3156 79.5718C80.7759 79.5718 81.1884 79.6515 81.5529 79.811C81.9175 79.966 82.2274 80.1893 82.4826 80.481C82.7424 80.7726 82.9406 81.1235 83.0774 81.5337C83.2141 81.9438 83.2824 82.4019 83.2824 82.9077C83.2824 83.3862 83.2164 83.826 83.0842 84.2271C82.9566 84.6281 82.7629 84.979 82.5031 85.2798C82.2434 85.576 81.9152 85.8062 81.5188 85.9702C81.1268 86.1343 80.6643 86.2163 80.1311 86.2163C79.73 86.2163 79.3495 86.1616 78.9895 86.0522C78.634 85.9383 78.315 85.7674 78.0324 85.5396C77.7544 85.3071 77.5266 85.02 77.3488 84.6782C77.1757 84.3319 77.0663 83.9263 77.0207 83.4614H78.2238C78.2785 83.8351 78.3879 84.1496 78.552 84.4048C78.716 84.66 78.9302 84.8537 79.1945 84.9858C79.4634 85.1134 79.7756 85.1772 80.1311 85.1772C80.4319 85.1772 80.6985 85.1248 80.9309 85.02C81.1633 84.9152 81.3593 84.7648 81.5188 84.5688C81.6783 84.3729 81.799 84.1359 81.8811 83.8579C81.9677 83.5799 82.011 83.2677 82.011 82.9214C82.011 82.6069 81.9677 82.3153 81.8811 82.0464C81.7945 81.7775 81.6646 81.5428 81.4914 81.3423C81.3228 81.1418 81.1154 80.9868 80.8694 80.8774C80.6233 80.7635 80.3407 80.7065 80.0217 80.7065C79.5979 80.7065 79.2766 80.7635 79.0578 80.8774C78.8436 80.9914 78.6226 81.1463 78.3947 81.3423Z" fill="#454545"></path> <line y1="-1" x2="298.007" y2="-1" transform="matrix(0.00648202 0.999979 -0.999998 0.00193991 97.7515 72)" stroke="#A6A6A6" stroke-opacity="0.26" stroke-width="2"></line> <path d="M376 340L522 340C524.209 340 526 338.209 526 336L526 288C526 285.791 524.209 284 522 284L376 284C373.791 284 372 285.791 372 288L372 336C372 338.209 373.791 340 376 340Z" fill="#D09CC7"></path> <path d="M186 282L332 282C334.209 282 336 280.209 336 278L336 107C336 104.791 334.209 103 332 103L186 103C183.791 103 182 104.791 182 107L182 278C182 280.209 183.791 282 186 282Z" fill="#6FC4E2"></path> <path d="M29.0469 321.021L29.0469 319.708L39 319.708L39 321.021L31.3301 321.021L39 325.922L39 327.241L29.0469 327.241L29.0469 325.922L36.7168 325.922L29.0469 321.021ZM33.627 313.446C33.2806 313.446 33.0072 313.578 32.8066 313.843C32.6016 314.107 32.499 314.469 32.499 314.93C32.499 315.376 32.6152 315.75 32.8477 316.051C33.0801 316.347 33.3535 316.495 33.668 316.495L33.668 317.753C33.0254 317.753 32.499 317.484 32.0889 316.946C31.6787 316.409 31.4736 315.736 31.4736 314.93C31.4736 314.064 31.6605 313.389 32.0342 312.906C32.4033 312.423 32.932 312.182 33.6201 312.182C33.9528 312.182 34.2581 312.282 34.5361 312.482C34.8141 312.683 35.0352 312.968 35.1992 313.337C35.4909 312.476 36.0651 312.045 36.9219 312.045C37.6009 312.045 38.1387 312.307 38.5352 312.831C38.9316 313.355 39.1299 314.055 39.1299 314.93C39.1299 315.782 38.9225 316.486 38.5078 317.042C38.0885 317.593 37.5234 317.869 36.8125 317.869L36.8125 316.611C37.1725 316.611 37.4824 316.452 37.7422 316.133C37.9974 315.809 38.125 315.408 38.125 314.93C38.125 314.447 38.0133 314.057 37.79 313.761C37.5667 313.465 37.2773 313.316 36.9219 313.316C36.5072 313.316 36.2109 313.442 36.0332 313.692C35.8509 313.938 35.7598 314.324 35.7598 314.848L35.7598 316.112L34.6934 316.112L34.6934 314.738C34.6706 313.877 34.3151 313.446 33.627 313.446ZM37.3252 306.146L31.6035 303.63L31.6035 302.051L39 302.051L39 303.315L33.6201 303.315L39 305.708L39 306.583L33.5039 309.023L39 309.023L39 310.288L31.6035 310.288L31.6035 308.647L37.3252 306.146ZM39.1367 296.944C39.1367 297.947 38.8086 298.763 38.1523 299.392C37.4915 300.021 36.6097 300.335 35.5068 300.335L35.2744 300.335C34.5407 300.335 33.8867 300.196 33.3125 299.918C32.7337 299.635 32.2826 299.243 31.959 298.742C31.6309 298.236 31.4668 297.689 31.4668 297.102C31.4668 296.14 31.7835 295.393 32.417 294.859C33.0505 294.326 33.9574 294.06 35.1377 294.06L35.6641 294.06L35.6641 299.07C36.3932 299.052 36.9834 298.84 37.4346 298.435C37.8812 298.024 38.1045 297.505 38.1045 296.876C38.1045 296.429 38.0133 296.051 37.8311 295.741C37.6488 295.431 37.4072 295.16 37.1064 294.928L37.708 294.155C38.6605 294.775 39.1367 295.705 39.1367 296.944ZM32.5059 297.102C32.5059 297.612 32.6927 298.04 33.0664 298.387C33.4355 298.733 33.9551 298.947 34.625 299.029L34.625 295.324L34.5293 295.324C33.8867 295.361 33.39 295.534 33.0391 295.844C32.6836 296.154 32.5059 296.573 32.5059 297.102ZM39 286.547L39 287.812L35.8418 287.812L35.8418 291.209L39 291.209L39 292.48L31.6035 292.48L31.6035 291.209L34.8096 291.209L34.8096 287.812L31.6035 287.812L31.6035 286.547L39 286.547ZM39.1367 281.44C39.1367 282.443 38.8086 283.259 38.1523 283.888C37.4915 284.517 36.6097 284.831 35.5068 284.831L35.2744 284.831C34.5407 284.831 33.8867 284.692 33.3125 284.414C32.7337 284.132 32.2825 283.74 31.959 283.238C31.6309 282.732 31.4668 282.186 31.4668 281.598C31.4668 280.636 31.7835 279.889 32.417 279.355C33.0505 278.822 33.9574 278.556 35.1377 278.556L35.6641 278.556L35.6641 283.566C36.3932 283.548 36.9834 283.336 37.4346 282.931C37.8812 282.521 38.1045 282.001 38.1045 281.372C38.1045 280.925 38.0133 280.547 37.8311 280.237C37.6488 279.927 37.4072 279.656 37.1064 279.424L37.708 278.651C38.6605 279.271 39.1367 280.201 39.1367 281.44ZM32.5059 281.598C32.5059 282.108 32.6927 282.536 33.0664 282.883C33.4355 283.229 33.9551 283.443 34.625 283.525L34.625 279.82L34.5293 279.82C33.8867 279.857 33.39 280.03 33.0391 280.34C32.6836 280.65 32.5059 281.069 32.5059 281.598ZM39 271.043L39 272.308L35.8418 272.308L35.8418 275.705L39 275.705L39 276.977L31.6035 276.977L31.6035 275.705L34.8096 275.705L34.8096 272.308L31.6035 272.308L31.6035 271.043L39 271.043ZM31.6035 264.221L31.6035 262.956L39 262.956L39 264.221L33.6064 264.221L39 267.632L39 268.896L31.6035 268.896L31.6035 267.632L37.0039 267.632L31.6035 264.221ZM31.6035 255.272L39 255.272L39 256.544L36.1221 256.544L36.1221 258.451L39 260.194L39 261.562L35.9307 259.702C35.7575 260.176 35.4909 260.541 35.1309 260.796C34.7663 261.047 34.3424 261.172 33.8594 261.172C33.1849 261.172 32.6426 260.919 32.2324 260.413C31.8177 259.907 31.6081 259.23 31.6035 258.383L31.6035 255.272ZM33.873 259.9C34.2331 259.9 34.5247 259.777 34.748 259.531C34.9668 259.285 35.0784 258.959 35.083 258.554L35.083 256.544L32.6289 256.544L32.6289 258.362C32.6289 258.832 32.7451 259.205 32.9775 259.483C33.2054 259.761 33.5039 259.9 33.873 259.9ZM39 249.653L31.6035 249.653L31.6035 246.769C31.6035 245.784 31.7767 245.03 32.123 244.506C32.4648 243.977 32.9684 243.713 33.6338 243.713C33.9756 243.713 34.2855 243.815 34.5635 244.021C34.8369 244.226 35.0465 244.529 35.1924 244.93C35.2972 244.483 35.5023 244.125 35.8076 243.856C36.113 243.583 36.4775 243.446 36.9014 243.446C37.5804 243.446 38.0999 243.697 38.46 244.198C38.82 244.695 39 245.399 39 246.311L39 249.653ZM35.7529 248.389L37.9814 248.389L37.9814 246.297C37.9814 245.768 37.8835 245.374 37.6875 245.114C37.4915 244.85 37.2158 244.718 36.8603 244.718C36.1221 244.718 35.7529 245.26 35.7529 246.345L35.7529 248.389ZM34.7412 248.389L34.7412 246.755C34.7412 245.57 34.3949 244.978 33.7021 244.978C33.0094 244.978 32.6517 245.538 32.6289 246.659L32.6289 248.389L34.7412 248.389ZM31.6035 236.918L37.9678 236.918L37.9678 234.211L31.6035 234.211L31.6035 232.946L37.9678 232.946L37.9678 230.246L31.6035 230.246L31.6035 228.975L39 228.975L39 238.189L31.6035 238.189L31.6035 236.918ZM35.8486 224.675L35.8486 225.598L39 225.598L39 226.869L31.6035 226.869L31.6035 225.598L34.7344 225.598L34.7344 224.771L31.6035 222.282L31.6035 220.751L35.1582 223.677L39 220.505L39 222.111L35.8486 224.675ZM39 214.852C38.8542 214.924 38.5944 214.984 38.2207 215.029C38.8314 215.617 39.1367 216.319 39.1367 217.135C39.1367 217.864 38.9316 218.463 38.5215 218.933C38.1068 219.397 37.5827 219.63 36.9492 219.63C36.179 219.63 35.582 219.338 35.1582 218.755C34.7298 218.167 34.5156 217.342 34.5156 216.28L34.5156 215.05L33.9346 215.05C33.4925 215.05 33.1416 215.182 32.8818 215.446C32.6175 215.711 32.4853 216.1 32.4853 216.615C32.4853 217.066 32.5993 217.445 32.8271 217.75C33.055 218.055 33.3307 218.208 33.6543 218.208L33.6543 219.479C33.2852 219.479 32.9297 219.35 32.5879 219.09C32.2415 218.826 31.9681 218.47 31.7676 218.023C31.5671 217.572 31.4668 217.078 31.4668 216.54C31.4668 215.688 31.681 215.02 32.1094 214.537C32.5332 214.054 33.1188 213.803 33.8662 213.785L37.2705 213.785C37.9495 213.785 38.4896 213.699 38.8906 213.525L39 213.525L39 214.852ZM38.0361 216.95C38.0361 216.554 37.9336 216.178 37.7285 215.822C37.5234 215.467 37.2568 215.209 36.9287 215.05L35.4111 215.05L35.4111 216.041C35.4111 217.59 35.8646 218.365 36.7715 218.365C37.168 218.365 37.4779 218.233 37.7012 217.969C37.9245 217.704 38.0361 217.365 38.0361 216.95ZM31.6035 205.739L39 205.739L39 207.011L32.6494 207.011L32.6494 209.526L35.418 209.677C36.6894 209.759 37.5986 209.973 38.1455 210.319C38.6924 210.661 38.9772 211.206 39 211.953L39 212.459L37.8857 212.459L37.8584 212.097C37.8128 211.687 37.5758 211.393 37.1475 211.215C36.7191 211.037 35.9261 210.923 34.7685 210.873L31.6035 210.736L31.6035 205.739ZM39.1367 200.64C39.1367 201.642 38.8086 202.458 38.1523 203.087C37.4915 203.716 36.6097 204.03 35.5068 204.03L35.2744 204.03C34.5407 204.03 33.8867 203.891 33.3125 203.613C32.7337 203.331 32.2825 202.939 31.959 202.437C31.6309 201.932 31.4668 201.385 31.4668 200.797C31.4668 199.835 31.7835 199.088 32.417 198.555C33.0504 198.021 33.9574 197.755 35.1377 197.755L35.6641 197.755L35.6641 202.766C36.3932 202.747 36.9834 202.535 37.4346 202.13C37.8812 201.72 38.1045 201.2 38.1045 200.571C38.1045 200.125 38.0133 199.746 37.831 199.437C37.6488 199.127 37.4072 198.855 37.1064 198.623L37.708 197.851C38.6605 198.47 39.1367 199.4 39.1367 200.64ZM32.5059 200.797C32.5059 201.307 32.6927 201.736 33.0664 202.082C33.4355 202.428 33.9551 202.643 34.625 202.725L34.625 199.02L34.5293 199.02C33.8867 199.056 33.39 199.229 33.0391 199.539C32.6836 199.849 32.5059 200.268 32.5059 200.797ZM35.2334 193.147C34.5088 193.147 33.8571 193.006 33.2783 192.724C32.6995 192.437 32.2529 192.04 31.9385 191.534C31.624 191.024 31.4668 190.443 31.4668 189.791C31.4668 188.784 31.8154 187.97 32.5127 187.351C33.21 186.726 34.1374 186.414 35.2949 186.414L35.3838 186.414C36.1038 186.414 36.751 186.553 37.3252 186.831C37.8949 187.104 38.3392 187.499 38.6582 188.014C38.9772 188.524 39.1367 189.112 39.1367 189.777C39.1367 190.78 38.7881 191.593 38.0908 192.218C37.3935 192.838 36.4707 193.147 35.3223 193.147L35.2334 193.147ZM35.3838 191.876C36.2041 191.876 36.8626 191.687 37.3594 191.309C37.8561 190.926 38.1045 190.415 38.1045 189.777C38.1045 189.135 37.8538 188.624 37.3525 188.246C36.8467 187.868 36.1403 187.679 35.2334 187.679C34.4222 187.679 33.7659 187.872 33.2646 188.26C32.7588 188.643 32.5059 189.153 32.5059 189.791C32.5059 190.415 32.7542 190.919 33.251 191.302C33.7477 191.685 34.4587 191.876 35.3838 191.876ZM31.6035 184.719L31.6035 183.447L37.9678 183.447L37.9678 180.043L31.6035 180.043L31.6035 178.778L37.9678 178.778L37.9678 177.896L41.1943 178.02L41.1943 179.154L39 179.154L39 184.719L31.6035 184.719ZM39.1367 173.46C39.1367 174.463 38.8086 175.278 38.1523 175.907C37.4915 176.536 36.6097 176.851 35.5068 176.851L35.2744 176.851C34.5407 176.851 33.8867 176.712 33.3125 176.434C32.7337 176.151 32.2825 175.759 31.959 175.258C31.6309 174.752 31.4668 174.205 31.4668 173.617C31.4668 172.656 31.7835 171.908 32.417 171.375C33.0504 170.842 33.9573 170.575 35.1377 170.575L35.6641 170.575L35.6641 175.586C36.3932 175.568 36.9834 175.356 37.4346 174.95C37.8812 174.54 38.1045 174.021 38.1045 173.392C38.1045 172.945 38.0133 172.567 37.831 172.257C37.6488 171.947 37.4072 171.676 37.1064 171.443L37.708 170.671C38.6605 171.291 39.1367 172.22 39.1367 173.46ZM32.5059 173.617C32.5059 174.128 32.6927 174.556 33.0664 174.902C33.4355 175.249 33.9551 175.463 34.625 175.545L34.625 171.84L34.5293 171.84C33.8867 171.876 33.39 172.049 33.0391 172.359C32.6836 172.669 32.5059 173.089 32.5059 173.617ZM39 163.062L39 164.327L35.8418 164.327L35.8418 167.725L39 167.725L39 168.996L31.6035 168.996L31.6035 167.725L34.8096 167.725L34.8096 164.327L31.6035 164.327L31.6035 163.062L39 163.062ZM35.2334 161.36C34.5088 161.36 33.8571 161.219 33.2783 160.937C32.6995 160.649 32.2529 160.253 31.9385 159.747C31.624 159.237 31.4668 158.656 31.4668 158.004C31.4668 156.997 31.8154 156.183 32.5127 155.563C33.21 154.939 34.1374 154.627 35.2949 154.627L35.3838 154.627C36.1038 154.627 36.751 154.766 37.3252 155.044C37.8948 155.317 38.3392 155.712 38.6582 156.227C38.9772 156.737 39.1367 157.325 39.1367 157.99C39.1367 158.993 38.7881 159.806 38.0908 160.431C37.3935 161.05 36.4707 161.36 35.3223 161.36L35.2334 161.36ZM35.3838 160.089C36.2041 160.089 36.8626 159.9 37.3594 159.521C37.8561 159.139 38.1045 158.628 38.1045 157.99C38.1045 157.348 37.8538 156.837 37.3525 156.459C36.8467 156.081 36.1403 155.892 35.2334 155.892C34.4222 155.892 33.7659 156.085 33.2646 156.473C32.7588 156.855 32.5059 157.366 32.5059 158.004C32.5059 158.628 32.7542 159.132 33.251 159.515C33.7477 159.897 34.4587 160.089 35.3838 160.089ZM35.8486 150.737L35.8486 151.66L39 151.66L39 152.932L31.6035 152.932L31.6035 151.66L34.7344 151.66L34.7344 150.833L31.6035 148.345L31.6035 146.813L35.1582 149.739L39 146.567L39 148.174L35.8486 150.737ZM38.1045 139.041C38.1045 138.59 37.9678 138.196 37.6943 137.858C37.4209 137.521 37.0791 137.334 36.6689 137.298L36.6689 136.102C37.0928 136.124 37.4961 136.27 37.8789 136.539C38.2617 136.808 38.567 137.168 38.7949 137.619C39.0228 138.066 39.1367 138.54 39.1367 139.041C39.1367 140.048 38.8017 140.85 38.1318 141.447C37.4573 142.04 36.5368 142.336 35.3701 142.336L35.1582 142.336C34.4381 142.336 33.7978 142.204 33.2373 141.939C32.6767 141.675 32.2415 141.297 31.9316 140.805C31.6217 140.308 31.4668 139.722 31.4668 139.048C31.4668 138.218 31.7152 137.53 32.2119 136.983C32.7087 136.432 33.3535 136.138 34.1465 136.102L34.1465 137.298C33.668 137.334 33.276 137.517 32.9707 137.845C32.6608 138.168 32.5059 138.569 32.5059 139.048C32.5059 139.69 32.7383 140.189 33.2031 140.545C33.6634 140.896 34.331 141.071 35.206 141.071L35.4453 141.071C36.2975 141.071 36.9538 140.896 37.4141 140.545C37.8743 140.194 38.1045 139.693 38.1045 139.041ZM35.2334 135.015C34.5088 135.015 33.8571 134.873 33.2783 134.591C32.6995 134.304 32.2529 133.907 31.9385 133.401C31.624 132.891 31.4668 132.31 31.4668 131.658C31.4668 130.651 31.8154 129.838 32.5127 129.218C33.21 128.593 34.1374 128.281 35.2949 128.281L35.3838 128.281C36.1038 128.281 36.751 128.42 37.3252 128.698C37.8948 128.972 38.3392 129.366 38.6582 129.881C38.9772 130.391 39.1367 130.979 39.1367 131.645C39.1367 132.647 38.7881 133.461 38.0908 134.085C37.3935 134.705 36.4707 135.015 35.3223 135.015L35.2334 135.015ZM35.3838 133.743C36.2041 133.743 36.8626 133.554 37.3594 133.176C37.8561 132.793 38.1045 132.283 38.1045 131.645C38.1045 131.002 37.8538 130.492 37.3525 130.113C36.8467 129.735 36.1403 129.546 35.2334 129.546C34.4222 129.546 33.7659 129.74 33.2646 130.127C32.7588 130.51 32.5059 131.02 32.5059 131.658C32.5059 132.283 32.7542 132.786 33.251 133.169C33.7477 133.552 34.4587 133.743 35.3838 133.743ZM32.6494 121.917L32.6494 125.328L39 125.328L39 126.6L31.6035 126.6L31.6035 121.917L32.6494 121.917ZM31.6035 115.026L39 115.026L39 116.298L32.6494 116.298L32.6494 118.813L35.418 118.964C36.6894 119.046 37.5986 119.26 38.1455 119.606C38.6924 119.948 38.9772 120.493 39 121.24L39 121.746L37.8857 121.746L37.8584 121.384C37.8128 120.974 37.5758 120.68 37.1475 120.502C36.7191 120.324 35.9261 120.21 34.7685 120.16L31.6035 120.023L31.6035 115.026ZM39 108.43C38.8542 108.503 38.5944 108.562 38.2207 108.607C38.8314 109.195 39.1367 109.897 39.1367 110.713C39.1367 111.442 38.9316 112.041 38.5215 112.511C38.1068 112.976 37.5827 113.208 36.9492 113.208C36.179 113.208 35.582 112.916 35.1582 112.333C34.7298 111.745 34.5156 110.92 34.5156 109.858L34.5156 108.628L33.9346 108.628C33.4925 108.628 33.1416 108.76 32.8818 109.024C32.6175 109.289 32.4853 109.678 32.4853 110.193C32.4853 110.645 32.5993 111.023 32.8271 111.328C33.055 111.633 33.3307 111.786 33.6543 111.786L33.6543 113.058C33.2851 113.058 32.9297 112.928 32.5879 112.668C32.2415 112.404 31.9681 112.048 31.7676 111.602C31.567 111.15 31.4668 110.656 31.4668 110.118C31.4668 109.266 31.681 108.598 32.1094 108.115C32.5332 107.632 33.1188 107.382 33.8662 107.363L37.2705 107.363C37.9495 107.363 38.4896 107.277 38.8906 107.104L39 107.104L39 108.43ZM38.0361 110.528C38.0361 110.132 37.9336 109.756 37.7285 109.4C37.5234 109.045 37.2568 108.787 36.9287 108.628L35.4111 108.628L35.4111 109.619C35.4111 111.169 35.8646 111.943 36.7715 111.943C37.168 111.943 37.4779 111.811 37.7012 111.547C37.9245 111.283 38.0361 110.943 38.0361 110.528ZM38.1045 102.414C38.1045 101.963 37.9678 101.569 37.6943 101.231C37.4209 100.894 37.0791 100.707 36.6689 100.671L36.6689 99.4746C37.0928 99.4974 37.4961 99.6432 37.8789 99.9121C38.2617 100.181 38.567 100.541 38.7949 100.992C39.0228 101.439 39.1367 101.913 39.1367 102.414C39.1367 103.421 38.8017 104.223 38.1318 104.82C37.4573 105.413 36.5368 105.709 35.3701 105.709L35.1582 105.709C34.4381 105.709 33.7978 105.577 33.2373 105.312C32.6767 105.048 32.2415 104.67 31.9316 104.178C31.6217 103.681 31.4668 103.095 31.4668 102.421C31.4668 101.591 31.7152 100.903 32.2119 100.356C32.7086 99.805 33.3535 99.5111 34.1465 99.4746L34.1465 100.671C33.668 100.707 33.276 100.89 32.9707 101.218C32.6608 101.541 32.5058 101.942 32.5058 102.421C32.5058 103.063 32.7383 103.562 33.2031 103.918C33.6634 104.269 34.331 104.444 35.206 104.444L35.4453 104.444C36.2975 104.444 36.9538 104.269 37.4141 103.918C37.8743 103.567 38.1045 103.066 38.1045 102.414ZM39 92.0098L39 93.2744L35.8418 93.2744L35.8418 96.6719L39 96.6719L39 97.9434L31.6035 97.9434L31.6035 96.6719L34.8096 96.6719L34.8096 93.2744L31.6035 93.2744L31.6035 92.0098L39 92.0098ZM35.2334 90.3076C34.5088 90.3076 33.8571 90.1663 33.2783 89.8838C32.6995 89.5967 32.2529 89.2002 31.9385 88.6943C31.624 88.1839 31.4668 87.6029 31.4668 86.9512C31.4668 85.944 31.8154 85.1305 32.5127 84.5107C33.2099 83.8864 34.1374 83.5742 35.2949 83.5742L35.3838 83.5742C36.1038 83.5742 36.751 83.7132 37.3252 83.9912C37.8948 84.2646 38.3392 84.6589 38.6582 85.1738C38.9772 85.6842 39.1367 86.2721 39.1367 86.9375C39.1367 87.9401 38.7881 88.7536 38.0908 89.3779C37.3935 89.9977 36.4707 90.3076 35.3223 90.3076L35.2334 90.3076ZM35.3838 89.0361C36.2041 89.0361 36.8626 88.847 37.3594 88.4687C37.8561 88.0859 38.1045 87.5755 38.1045 86.9375C38.1045 86.2949 37.8538 85.7845 37.3525 85.4062C36.8467 85.028 36.1403 84.8389 35.2334 84.8389C34.4222 84.8389 33.7659 85.0326 33.2646 85.4199C32.7588 85.8027 32.5058 86.3132 32.5058 86.9512C32.5058 87.5755 32.7542 88.0791 33.251 88.4619C33.7477 88.8447 34.4586 89.0361 35.3838 89.0361ZM47.6035 310.76L55 310.76L55 312.031L48.6494 312.031L48.6494 314.547L51.418 314.697C52.6895 314.779 53.5986 314.993 54.1455 315.34C54.6924 315.682 54.9772 316.226 55 316.974L55 317.479L53.8857 317.479L53.8584 317.117C53.8128 316.707 53.5758 316.413 53.1475 316.235C52.7191 316.058 51.9261 315.944 50.7686 315.894L47.6035 315.757L47.6035 310.76ZM47.6035 303.944L47.6035 302.68L55 302.68L55 303.944L49.6064 303.944L55 307.355L55 308.62L47.6035 308.62L47.6035 307.355L53.0039 307.355L47.6035 303.944ZM55 295.064L55 296.336L52.3203 296.336C52.4661 296.892 52.5391 297.462 52.5391 298.045C52.5391 298.97 52.3021 299.676 51.8281 300.164C51.3542 300.647 50.6797 300.893 49.8047 300.902L47.5967 300.902L47.5967 299.638L49.8457 299.638C50.9486 299.615 51.5 299.084 51.5 298.045C51.5 297.462 51.4271 296.892 51.2812 296.336L47.6035 296.336L47.6035 295.064L55 295.064ZM55 286.991L55 288.256L51.8418 288.256L51.8418 291.653L55 291.653L55 292.925L47.6035 292.925L47.6035 291.653L50.8096 291.653L50.8096 288.256L47.6035 288.256L47.6035 286.991L55 286.991ZM51.2334 285.289C50.5088 285.289 49.8571 285.148 49.2783 284.865C48.6995 284.578 48.2529 284.182 47.9385 283.676C47.624 283.165 47.4668 282.584 47.4668 281.933C47.4668 280.925 47.8154 280.112 48.5127 279.492C49.21 278.868 50.1374 278.556 51.2949 278.556L51.3838 278.556C52.1038 278.556 52.751 278.695 53.3252 278.973C53.8949 279.246 54.3392 279.64 54.6582 280.155C54.9772 280.666 55.1367 281.254 55.1367 281.919C55.1367 282.922 54.7881 283.735 54.0908 284.359C53.3936 284.979 52.4707 285.289 51.3223 285.289L51.2334 285.289ZM51.3838 284.018C52.2041 284.018 52.8626 283.828 53.3594 283.45C53.8561 283.067 54.1045 282.557 54.1045 281.919C54.1045 281.276 53.8538 280.766 53.3525 280.388C52.8467 280.009 52.1403 279.82 51.2334 279.82C50.4222 279.82 49.7659 280.014 49.2646 280.401C48.7588 280.784 48.5059 281.295 48.5059 281.933C48.5059 282.557 48.7542 283.061 49.251 283.443C49.7477 283.826 50.4587 284.018 51.3838 284.018ZM54.1045 274.003C54.1045 273.552 53.9678 273.158 53.6943 272.82C53.4209 272.483 53.0791 272.296 52.6689 272.26L52.6689 271.063C53.0928 271.086 53.4961 271.232 53.8789 271.501C54.2617 271.77 54.5671 272.13 54.7949 272.581C55.0228 273.028 55.1367 273.502 55.1367 274.003C55.1367 275.01 54.8018 275.812 54.1318 276.409C53.4574 277.002 52.5368 277.298 51.3701 277.298L51.1582 277.298C50.4381 277.298 49.7978 277.166 49.2373 276.901C48.6768 276.637 48.2415 276.259 47.9316 275.767C47.6217 275.27 47.4668 274.684 47.4668 274.01C47.4668 273.18 47.7152 272.492 48.2119 271.945C48.7087 271.394 49.3535 271.1 50.1465 271.063L50.1465 272.26C49.668 272.296 49.276 272.479 48.9707 272.807C48.6608 273.13 48.5059 273.531 48.5059 274.01C48.5059 274.652 48.7383 275.151 49.2031 275.507C49.6634 275.858 50.3311 276.033 51.2061 276.033L51.4453 276.033C52.2975 276.033 52.9538 275.858 53.4141 275.507C53.8743 275.156 54.1045 274.655 54.1045 274.003ZM48.6289 264.146L48.6289 266.627L55 266.627L55 267.892L48.6289 267.892L48.6289 270.325L47.6035 270.325L47.6035 264.146L48.6289 264.146ZM55 256.872L55 258.137L51.8418 258.137L51.8418 261.534L55 261.534L55 262.806L47.6035 262.806L47.6035 261.534L50.8096 261.534L50.8096 258.137L47.6035 258.137L47.6035 256.872L55 256.872ZM51.2334 255.17C50.5088 255.17 49.8571 255.029 49.2783 254.746C48.6995 254.459 48.2529 254.062 47.9385 253.557C47.624 253.046 47.4668 252.465 47.4668 251.813C47.4668 250.806 47.8154 249.993 48.5127 249.373C49.21 248.749 50.1374 248.437 51.2949 248.437L51.3838 248.437C52.1038 248.437 52.751 248.576 53.3252 248.854C53.8949 249.127 54.3392 249.521 54.6582 250.036C54.9772 250.547 55.1367 251.134 55.1367 251.8C55.1367 252.802 54.7881 253.616 54.0908 254.24C53.3936 254.86 52.4707 255.17 51.3223 255.17L51.2334 255.17ZM51.3838 253.898C52.2041 253.898 52.8626 253.709 53.3594 253.331C53.8561 252.948 54.1045 252.438 54.1045 251.8C54.1045 251.157 53.8538 250.647 53.3525 250.269C52.8467 249.89 52.1403 249.701 51.2334 249.701C50.4222 249.701 49.7659 249.895 49.2646 250.282C48.7588 250.665 48.5059 251.175 48.5059 251.813C48.5059 252.438 48.7542 252.941 49.251 253.324C49.7477 253.707 50.4587 253.898 51.3838 253.898ZM53.3252 242.592L47.6035 240.076L47.6035 238.497L55 238.497L55 239.762L49.6201 239.762L55 242.154L55 243.029L49.5039 245.47L55 245.47L55 246.734L47.6035 246.734L47.6035 245.094L53.3252 242.592ZM53.1475 234.04L47.6035 232.317L47.6035 230.964L56.1416 233.937C57.3721 234.398 57.9873 235.129 57.9873 236.132L57.9668 236.371L57.8779 236.843L56.8525 236.843L56.8799 236.501C56.8799 236.073 56.7933 235.74 56.6201 235.503C56.4469 235.261 56.1302 235.063 55.6699 234.908L54.918 234.628L47.6035 237.267L47.6035 235.886L53.1475 234.04ZM51.2334 226.691C50.5088 226.691 49.8571 226.55 49.2783 226.268C48.6995 225.98 48.2529 225.584 47.9385 225.078C47.624 224.568 47.4668 223.987 47.4668 223.335C47.4668 222.328 47.8154 221.514 48.5127 220.895C49.21 220.27 50.1374 219.958 51.2949 219.958L51.3838 219.958C52.1038 219.958 52.751 220.097 53.3252 220.375C53.8949 220.648 54.3392 221.043 54.6582 221.558C54.9772 222.068 55.1367 222.656 55.1367 223.321C55.1367 224.324 54.7881 225.137 54.0908 225.762C53.3935 226.382 52.4707 226.691 51.3223 226.691L51.2334 226.691ZM51.3838 225.42C52.2041 225.42 52.8626 225.231 53.3594 224.853C53.8561 224.47 54.1045 223.959 54.1045 223.321C54.1045 222.679 53.8538 222.168 53.3525 221.79C52.8467 221.412 52.1403 221.223 51.2334 221.223C50.4222 221.223 49.7659 221.416 49.2646 221.804C48.7588 222.187 48.5059 222.697 48.5059 223.335C48.5059 223.959 48.7542 224.463 49.251 224.846C49.7477 225.229 50.4587 225.42 51.3838 225.42ZM55 212.322L55 213.587L48.6494 213.587L48.6494 216.991L55 216.991L55 218.263L47.6035 218.263L47.6035 212.322L55 212.322ZM51.3838 204.044C52.5094 204.044 53.4163 204.301 54.1045 204.816C54.7926 205.331 55.1367 206.029 55.1367 206.908C55.1367 207.806 54.8519 208.512 54.2822 209.027L57.8437 209.027L57.8437 210.292L47.6035 210.292L47.6035 209.137L48.4238 209.075C47.7858 208.56 47.4668 207.845 47.4668 206.929C47.4668 206.04 47.8018 205.338 48.4717 204.823C49.1416 204.304 50.0736 204.044 51.2676 204.044L51.3838 204.044ZM51.2402 205.309C50.4062 205.309 49.7477 205.486 49.2646 205.842C48.7816 206.197 48.54 206.685 48.54 207.305C48.54 208.07 48.8796 208.645 49.5586 209.027L53.0928 209.027C53.7672 208.649 54.1045 208.07 54.1045 207.291C54.1045 206.685 53.8652 206.204 53.3867 205.849C52.9036 205.489 52.1881 205.309 51.2402 205.309ZM51.2334 202.766C50.5088 202.766 49.8571 202.624 49.2783 202.342C48.6995 202.055 48.2529 201.658 47.9385 201.152C47.624 200.642 47.4668 200.061 47.4668 199.409C47.4668 198.402 47.8154 197.589 48.5127 196.969C49.21 196.344 50.1374 196.032 51.2949 196.032L51.3838 196.032C52.1038 196.032 52.751 196.171 53.3252 196.449C53.8949 196.723 54.3392 197.117 54.6582 197.632C54.9772 198.142 55.1367 198.73 55.1367 199.396C55.1367 200.398 54.7881 201.212 54.0908 201.836C53.3935 202.456 52.4707 202.766 51.3223 202.766L51.2334 202.766ZM51.3838 201.494C52.2041 201.494 52.8626 201.305 53.3594 200.927C53.8561 200.544 54.1045 200.034 54.1045 199.396C54.1045 198.753 53.8538 198.243 53.3525 197.864C52.8467 197.486 52.1403 197.297 51.2334 197.297C50.4222 197.297 49.7659 197.491 49.2646 197.878C48.7588 198.261 48.5059 198.771 48.5059 199.409C48.5059 200.034 48.7542 200.537 49.251 200.92C49.7477 201.303 50.4587 201.494 51.3838 201.494ZM54.1045 191.479C54.1045 191.028 53.9678 190.634 53.6943 190.297C53.4209 189.96 53.0791 189.773 52.6689 189.736L52.6689 188.54C53.0928 188.563 53.4961 188.709 53.8789 188.978C54.2617 189.246 54.5671 189.606 54.7949 190.058C55.0228 190.504 55.1367 190.978 55.1367 191.479C55.1367 192.487 54.8018 193.289 54.1318 193.886C53.4574 194.478 52.5368 194.774 51.3701 194.774L51.1582 194.774C50.4381 194.774 49.7978 194.642 49.2373 194.378C48.6768 194.114 48.2415 193.735 47.9316 193.243C47.6217 192.746 47.4668 192.161 47.4668 191.486C47.4668 190.657 47.7152 189.969 48.2119 189.422C48.7087 188.87 49.3535 188.576 50.1465 188.54L50.1465 189.736C49.668 189.773 49.276 189.955 48.9707 190.283C48.6608 190.607 48.5059 191.008 48.5059 191.486C48.5059 192.129 48.7383 192.628 49.2031 192.983C49.6634 193.334 50.331 193.51 51.206 193.51L51.4453 193.51C52.2975 193.51 52.9538 193.334 53.4141 192.983C53.8743 192.632 54.1045 192.131 54.1045 191.479ZM55 181.075L55 182.34L51.8418 182.34L51.8418 185.737L55 185.737L55 187.009L47.6035 187.009L47.6035 185.737L50.8096 185.737L50.8096 182.34L47.6035 182.34L47.6035 181.075L55 181.075ZM47.6035 174.253L47.6035 172.988L55 172.988L55 174.253L49.6064 174.253L55 177.664L55 178.929L47.6035 178.929L47.6035 177.664L53.0039 177.664L47.6035 174.253ZM51.8486 168.654L51.8486 169.577L55 169.577L55 170.849L47.6035 170.849L47.6035 169.577L50.7344 169.577L50.7344 168.75L47.6035 166.262L47.6035 164.73L51.1582 167.656L55 164.484L55 166.091L51.8486 168.654ZM53.1475 160.978L47.6035 159.255L47.6035 157.901L56.1416 160.875C57.3721 161.335 57.9873 162.067 57.9873 163.069L57.9668 163.309L57.8779 163.78L56.8525 163.78L56.8799 163.438C56.8799 163.01 56.7933 162.677 56.6201 162.44C56.4469 162.199 56.1302 162.001 55.6699 161.846L54.918 161.565L47.6035 164.204L47.6035 162.823L53.1475 160.978ZM50.5293 150.512L50.5293 151.722L55 151.722L55 153.034L45.0469 153.034L45.0469 151.722L49.4355 151.722L49.4355 150.696L45.0469 147.217L45.0469 145.583L49.873 149.384L55 145.303L55 146.909L50.5293 150.512ZM55 139.731C54.8542 139.804 54.5944 139.864 54.2207 139.909C54.8314 140.497 55.1367 141.199 55.1367 142.015C55.1367 142.744 54.9316 143.343 54.5215 143.812C54.1068 144.277 53.5827 144.51 52.9492 144.51C52.179 144.51 51.582 144.218 51.1582 143.635C50.7298 143.047 50.5156 142.222 50.5156 141.16L50.5156 139.93L49.9346 139.93C49.4925 139.93 49.1416 140.062 48.8818 140.326C48.6175 140.59 48.4853 140.98 48.4853 141.495C48.4853 141.946 48.5993 142.325 48.8271 142.63C49.055 142.935 49.3307 143.088 49.6543 143.088L49.6543 144.359C49.2851 144.359 48.9297 144.229 48.5879 143.97C48.2415 143.705 47.9681 143.35 47.7676 142.903C47.567 142.452 47.4668 141.958 47.4668 141.42C47.4668 140.568 47.681 139.9 48.1094 139.417C48.5332 138.934 49.1188 138.683 49.8662 138.665L53.2705 138.665C53.9495 138.665 54.4896 138.578 54.8906 138.405L55 138.405L55 139.731ZM54.0361 141.83C54.0361 141.434 53.9336 141.058 53.7285 140.702C53.5234 140.347 53.2568 140.089 52.9287 139.93L51.4111 139.93L51.4111 140.921C51.4111 142.47 51.8646 143.245 52.7715 143.245C53.168 143.245 53.4779 143.113 53.7012 142.849C53.9245 142.584 54.0361 142.245 54.0361 141.83ZM48.6289 131.296L48.6289 133.777L55 133.777L55 135.042L48.6289 135.042L48.6289 137.476L47.6035 137.476L47.6035 131.296L48.6289 131.296ZM48.6289 124.569L48.6289 127.051L55 127.051L55 128.315L48.6289 128.315L48.6289 130.749L47.6035 130.749L47.6035 124.569L48.6289 124.569ZM55.1367 120.816C55.1367 121.819 54.8086 122.635 54.1523 123.264C53.4915 123.893 52.6097 124.207 51.5068 124.207L51.2744 124.207C50.5407 124.207 49.8867 124.068 49.3125 123.79C48.7337 123.507 48.2825 123.116 47.959 122.614C47.6309 122.108 47.4668 121.562 47.4668 120.974C47.4668 120.012 47.7835 119.265 48.417 118.731C49.0504 118.198 49.9573 117.932 51.1377 117.932L51.6641 117.932L51.6641 122.942C52.3932 122.924 52.9834 122.712 53.4346 122.307C53.8812 121.896 54.1045 121.377 54.1045 120.748C54.1045 120.301 54.0133 119.923 53.831 119.613C53.6488 119.303 53.4072 119.032 53.1064 118.8L53.708 118.027C54.6605 118.647 55.1367 119.577 55.1367 120.816ZM48.5059 120.974C48.5059 121.484 48.6927 121.912 49.0664 122.259C49.4355 122.605 49.9551 122.819 50.625 122.901L50.625 119.196L50.5293 119.196C49.8867 119.233 49.39 119.406 49.0391 119.716C48.6836 120.026 48.5059 120.445 48.5059 120.974ZM47.6035 110.398L55 110.398L55 111.67L48.6494 111.67L48.6494 114.186L51.418 114.336C52.6894 114.418 53.5986 114.632 54.1455 114.979C54.6924 115.32 54.9772 115.865 55 116.612L55 117.118L53.8857 117.118L53.8584 116.756C53.8128 116.346 53.5758 116.052 53.1475 115.874C52.7191 115.696 51.9261 115.582 50.7685 115.532L47.6035 115.396L47.6035 110.398ZM47.6035 102.305L55 102.305L55 103.576L48.6494 103.576L48.6494 106.092L51.418 106.242C52.6894 106.324 53.5986 106.538 54.1455 106.885C54.6924 107.227 54.9772 107.771 55 108.519L55 109.024L53.8857 109.024L53.8584 108.662C53.8128 108.252 53.5758 107.958 53.1475 107.78C52.7191 107.603 51.9261 107.489 50.7685 107.438L47.6035 107.302L47.6035 102.305ZM55 95.708C54.8542 95.7809 54.5944 95.8402 54.2207 95.8857C54.8314 96.4736 55.1367 97.1755 55.1367 97.9912C55.1367 98.7204 54.9316 99.3197 54.5215 99.7891C54.1068 100.254 53.5827 100.486 52.9492 100.486C52.179 100.486 51.582 100.195 51.1582 99.6113C50.7298 99.0234 50.5156 98.1986 50.5156 97.1367L50.5156 95.9062L49.9346 95.9062C49.4925 95.9062 49.1416 96.0384 48.8818 96.3027C48.6175 96.5671 48.4853 96.9567 48.4853 97.4717C48.4853 97.9229 48.5993 98.3011 48.8271 98.6064C49.055 98.9118 49.3307 99.0645 49.6543 99.0645L49.6543 100.336C49.2851 100.336 48.9297 100.206 48.5879 99.9463C48.2415 99.682 47.9681 99.3265 47.7676 98.8799C47.567 98.4287 47.4668 97.9342 47.4668 97.3965C47.4668 96.5443 47.681 95.8766 48.1094 95.3936C48.5332 94.9105 49.1188 94.6598 49.8662 94.6416L53.2705 94.6416C53.9495 94.6416 54.4896 94.555 54.8906 94.3818L55 94.3818L55 95.708ZM54.0361 97.8066C54.0361 97.4102 53.9336 97.0342 53.7285 96.6787C53.5234 96.3232 53.2568 96.0658 52.9287 95.9062L51.4111 95.9062L51.4111 96.8975C51.4111 98.4469 51.8646 99.2217 52.7715 99.2217C53.168 99.2217 53.4779 99.0895 53.7012 98.8252C53.9245 98.5609 54.0361 98.2214 54.0361 97.8066Z" fill="#4B4B4B"></path> <path d="M336.734 379.879V387.438H335.322V378.66H336.623L336.734 379.879ZM340.865 381.771V381.895C340.865 382.355 340.811 382.783 340.701 383.178C340.596 383.568 340.438 383.91 340.227 384.203C340.02 384.492 339.764 384.717 339.459 384.877C339.154 385.037 338.803 385.117 338.404 385.117C338.01 385.117 337.664 385.045 337.367 384.9C337.074 384.752 336.826 384.543 336.623 384.273C336.42 384.004 336.256 383.688 336.131 383.324C336.01 382.957 335.924 382.555 335.873 382.117V381.643C335.924 381.178 336.01 380.756 336.131 380.377C336.256 379.998 336.42 379.672 336.623 379.398C336.826 379.125 337.074 378.914 337.367 378.766C337.66 378.617 338.002 378.543 338.393 378.543C338.791 378.543 339.145 378.621 339.453 378.777C339.762 378.93 340.021 379.148 340.232 379.434C340.443 379.715 340.602 380.055 340.707 380.453C340.812 380.848 340.865 381.287 340.865 381.771ZM339.453 381.895V381.771C339.453 381.479 339.426 381.207 339.371 380.957C339.316 380.703 339.23 380.48 339.113 380.289C338.996 380.098 338.846 379.949 338.662 379.844C338.482 379.734 338.266 379.68 338.012 379.68C337.762 379.68 337.547 379.723 337.367 379.809C337.188 379.891 337.037 380.006 336.916 380.154C336.795 380.303 336.701 380.477 336.635 380.676C336.568 380.871 336.521 381.084 336.494 381.314V382.451C336.541 382.732 336.621 382.99 336.734 383.225C336.848 383.459 337.008 383.646 337.215 383.787C337.426 383.924 337.695 383.992 338.023 383.992C338.277 383.992 338.494 383.938 338.674 383.828C338.854 383.719 339 383.568 339.113 383.377C339.23 383.182 339.316 382.957 339.371 382.703C339.426 382.449 339.453 382.18 339.453 381.895ZM342.77 381.15L346.643 382.633V384.021L341.703 381.842V380.922L342.77 381.15ZM346.643 379.938L342.77 381.443L341.703 381.648V380.729L346.643 378.555V379.938ZM353.65 380.02V381.414C353.65 382.082 353.584 382.652 353.451 383.125C353.322 383.594 353.135 383.975 352.889 384.268C352.643 384.561 352.348 384.775 352.004 384.912C351.664 385.049 351.283 385.117 350.861 385.117C350.525 385.117 350.213 385.074 349.924 384.988C349.639 384.902 349.381 384.768 349.15 384.584C348.92 384.4 348.723 384.164 348.559 383.875C348.398 383.582 348.273 383.232 348.184 382.826C348.098 382.42 348.055 381.949 348.055 381.414V380.02C348.055 379.348 348.121 378.781 348.254 378.32C348.387 377.855 348.576 377.479 348.822 377.189C349.068 376.896 349.361 376.684 349.701 376.551C350.045 376.418 350.428 376.352 350.85 376.352C351.189 376.352 351.502 376.395 351.787 376.48C352.076 376.562 352.334 376.693 352.561 376.873C352.791 377.053 352.986 377.287 353.146 377.576C353.311 377.861 353.436 378.207 353.521 378.613C353.607 379.016 353.65 379.484 353.65 380.02ZM352.238 381.613V379.809C352.238 379.469 352.219 379.17 352.18 378.912C352.141 378.65 352.082 378.43 352.004 378.25C351.93 378.066 351.836 377.918 351.723 377.805C351.609 377.688 351.48 377.604 351.336 377.553C351.191 377.498 351.029 377.471 350.85 377.471C350.631 377.471 350.436 377.514 350.264 377.6C350.092 377.682 349.947 377.814 349.83 377.998C349.713 378.182 349.623 378.424 349.561 378.725C349.502 379.021 349.473 379.383 349.473 379.809V381.613C349.473 381.957 349.492 382.26 349.531 382.521C349.57 382.783 349.629 383.008 349.707 383.195C349.785 383.379 349.879 383.531 349.988 383.652C350.102 383.77 350.23 383.855 350.375 383.91C350.523 383.965 350.686 383.992 350.861 383.992C351.084 383.992 351.281 383.949 351.453 383.863C351.625 383.777 351.77 383.641 351.887 383.453C352.004 383.262 352.092 383.014 352.15 382.709C352.209 382.404 352.238 382.039 352.238 381.613ZM356.316 383.641L356.311 384.648C356.311 385.047 356.211 385.457 356.012 385.879C355.812 386.301 355.549 386.648 355.221 386.922L354.465 386.482C354.574 386.307 354.674 386.129 354.764 385.949C354.854 385.77 354.926 385.578 354.98 385.375C355.035 385.172 355.062 384.947 355.062 384.701V383.641H356.316ZM363.154 380.02V381.414C363.154 382.082 363.088 382.652 362.955 383.125C362.826 383.594 362.639 383.975 362.393 384.268C362.146 384.561 361.852 384.775 361.508 384.912C361.168 385.049 360.787 385.117 360.365 385.117C360.029 385.117 359.717 385.074 359.428 384.988C359.143 384.902 358.885 384.768 358.654 384.584C358.424 384.4 358.227 384.164 358.062 383.875C357.902 383.582 357.777 383.232 357.688 382.826C357.602 382.42 357.559 381.949 357.559 381.414V380.02C357.559 379.348 357.625 378.781 357.758 378.32C357.891 377.855 358.08 377.479 358.326 377.189C358.572 376.896 358.865 376.684 359.205 376.551C359.549 376.418 359.932 376.352 360.354 376.352C360.693 376.352 361.006 376.395 361.291 376.48C361.58 376.562 361.838 376.693 362.064 376.873C362.295 377.053 362.49 377.287 362.65 377.576C362.814 377.861 362.939 378.207 363.025 378.613C363.111 379.016 363.154 379.484 363.154 380.02ZM361.742 381.613V379.809C361.742 379.469 361.723 379.17 361.684 378.912C361.645 378.65 361.586 378.43 361.508 378.25C361.434 378.066 361.34 377.918 361.227 377.805C361.113 377.688 360.984 377.604 360.84 377.553C360.695 377.498 360.533 377.471 360.354 377.471C360.135 377.471 359.939 377.514 359.768 377.6C359.596 377.682 359.451 377.814 359.334 377.998C359.217 378.182 359.127 378.424 359.064 378.725C359.006 379.021 358.977 379.383 358.977 379.809V381.613C358.977 381.957 358.996 382.26 359.035 382.521C359.074 382.783 359.133 383.008 359.211 383.195C359.289 383.379 359.383 383.531 359.492 383.652C359.605 383.77 359.734 383.855 359.879 383.91C360.027 383.965 360.189 383.992 360.365 383.992C360.588 383.992 360.785 383.949 360.957 383.863C361.129 383.777 361.273 383.641 361.391 383.453C361.508 383.262 361.596 383.014 361.654 382.709C361.713 382.404 361.742 382.039 361.742 381.613ZM369.975 380.02V381.414C369.975 382.082 369.908 382.652 369.775 383.125C369.646 383.594 369.459 383.975 369.213 384.268C368.967 384.561 368.672 384.775 368.328 384.912C367.988 385.049 367.607 385.117 367.186 385.117C366.85 385.117 366.537 385.074 366.248 384.988C365.963 384.902 365.705 384.768 365.475 384.584C365.244 384.4 365.047 384.164 364.883 383.875C364.723 383.582 364.598 383.232 364.508 382.826C364.422 382.42 364.379 381.949 364.379 381.414V380.02C364.379 379.348 364.445 378.781 364.578 378.32C364.711 377.855 364.9 377.479 365.146 377.189C365.393 376.896 365.686 376.684 366.025 376.551C366.369 376.418 366.752 376.352 367.174 376.352C367.514 376.352 367.826 376.395 368.111 376.48C368.4 376.562 368.658 376.693 368.885 376.873C369.115 377.053 369.311 377.287 369.471 377.576C369.635 377.861 369.76 378.207 369.846 378.613C369.932 379.016 369.975 379.484 369.975 380.02ZM368.562 381.613V379.809C368.562 379.469 368.543 379.17 368.504 378.912C368.465 378.65 368.406 378.43 368.328 378.25C368.254 378.066 368.16 377.918 368.047 377.805C367.934 377.688 367.805 377.604 367.66 377.553C367.516 377.498 367.354 377.471 367.174 377.471C366.955 377.471 366.76 377.514 366.588 377.6C366.416 377.682 366.271 377.814 366.154 377.998C366.037 378.182 365.947 378.424 365.885 378.725C365.826 379.021 365.797 379.383 365.797 379.809V381.613C365.797 381.957 365.816 382.26 365.855 382.521C365.895 382.783 365.953 383.008 366.031 383.195C366.109 383.379 366.203 383.531 366.312 383.652C366.426 383.77 366.555 383.855 366.699 383.91C366.848 383.965 367.01 383.992 367.186 383.992C367.408 383.992 367.605 383.949 367.777 383.863C367.949 383.777 368.094 383.641 368.211 383.453C368.328 383.262 368.416 383.014 368.475 382.709C368.533 382.404 368.562 382.039 368.562 381.613ZM375.09 376.439V385H373.678V378.115L371.586 378.824V377.658L374.92 376.439H375.09Z" fill="#454545"></path> <path d="M408.341 36.6447V47.5967H406.889V36.6447H408.341ZM415.088 36.6447L410.334 42.6698H407.762L407.536 41.4663H409.469L413.29 36.6447H415.088ZM413.629 47.5967L409.514 42.4817L410.327 41.2105L415.404 47.5967H413.629ZM415.93 43.6176V43.4446C415.93 42.8578 416.016 42.3138 416.186 41.8123C416.357 41.3058 416.602 40.867 416.923 40.4959C417.244 40.1198 417.633 39.829 418.089 39.6234C418.546 39.4128 419.057 39.3075 419.624 39.3075C420.195 39.3075 420.709 39.4128 421.166 39.6234C421.627 39.829 422.018 40.1198 422.339 40.4959C422.665 40.867 422.913 41.3058 423.084 41.8123C423.254 42.3138 423.34 42.8578 423.34 43.4446V43.6176C423.34 44.2043 423.254 44.7484 423.084 45.2498C422.913 45.7513 422.665 46.1901 422.339 46.5662C422.018 46.9373 421.63 47.2281 421.173 47.4387C420.722 47.6443 420.21 47.7471 419.639 47.7471C419.067 47.7471 418.553 47.6443 418.097 47.4387C417.64 47.2281 417.249 46.9373 416.923 46.5662C416.602 46.1901 416.357 45.7513 416.186 45.2498C416.016 44.7484 415.93 44.2043 415.93 43.6176ZM417.322 43.4446V43.6176C417.322 44.0237 417.37 44.4074 417.465 44.7684C417.56 45.1245 417.703 45.4404 417.894 45.7162C418.089 45.992 418.333 46.2101 418.623 46.3706C418.914 46.5261 419.253 46.6038 419.639 46.6038C420.02 46.6038 420.353 46.5261 420.639 46.3706C420.93 46.2101 421.171 45.992 421.361 45.7162C421.552 45.4404 421.695 45.1245 421.79 44.7684C421.89 44.4074 421.941 44.0237 421.941 43.6176V43.4446C421.941 43.0434 421.89 42.6648 421.79 42.3087C421.695 41.9477 421.549 41.6293 421.354 41.3534C421.163 41.0726 420.923 40.852 420.632 40.6915C420.346 40.531 420.01 40.4508 419.624 40.4508C419.243 40.4508 418.907 40.531 418.616 40.6915C418.33 40.852 418.089 41.0726 417.894 41.3534C417.703 41.6293 417.56 41.9477 417.465 42.3087C417.37 42.6648 417.322 43.0434 417.322 43.4446ZM430.606 42.9857V44.114H426.303V42.9857H430.606ZM426.597 39.4579V47.5967H425.205V39.4579H426.597ZM431.734 39.4579V47.5967H430.335V39.4579H431.734ZM437.293 39.4579V47.5967H435.894V39.4579H437.293ZM440.023 39.4579V40.5862H433.216V39.4579H440.023ZM442.784 41.0225V50.7258H441.385V39.4579H442.664L442.784 41.0225ZM448.267 43.4596V43.6176C448.267 44.2093 448.197 44.7584 448.057 45.2649C447.916 45.7663 447.711 46.2026 447.44 46.5737C447.174 46.9448 446.846 47.2331 446.455 47.4387C446.063 47.6443 445.615 47.7471 445.108 47.7471C444.592 47.7471 444.135 47.6619 443.739 47.4914C443.343 47.3209 443.007 47.0726 442.731 46.7467C442.455 46.4207 442.235 46.0296 442.069 45.5733C441.909 45.1169 441.799 44.6029 441.738 44.0313V43.1888C441.799 42.587 441.911 42.048 442.077 41.5716C442.242 41.0952 442.46 40.689 442.731 40.353C443.007 40.012 443.341 39.7538 443.732 39.5783C444.123 39.3977 444.574 39.3075 445.086 39.3075C445.597 39.3075 446.051 39.4078 446.447 39.6083C446.843 39.8039 447.177 40.0847 447.448 40.4508C447.718 40.8169 447.921 41.2557 448.057 41.7672C448.197 42.2736 448.267 42.8378 448.267 43.4596ZM446.868 43.6176V43.4596C446.868 43.0534 446.826 42.6723 446.74 42.3163C446.655 41.9552 446.522 41.6393 446.342 41.3685C446.166 41.0927 445.941 40.8771 445.665 40.7216C445.389 40.5611 445.061 40.4809 444.679 40.4809C444.328 40.4809 444.023 40.5411 443.762 40.6614C443.506 40.7818 443.288 40.9448 443.107 41.1504C442.927 41.3509 442.779 41.5816 442.664 41.8424C442.553 42.0981 442.471 42.3639 442.415 42.6397V44.5879C442.516 44.9389 442.656 45.2699 442.837 45.5808C443.017 45.8867 443.258 46.1349 443.559 46.3255C443.86 46.511 444.238 46.6038 444.694 46.6038C445.071 46.6038 445.394 46.5261 445.665 46.3706C445.941 46.2101 446.166 45.992 446.342 45.7162C446.522 45.4404 446.655 45.1245 446.74 44.7684C446.826 44.4074 446.868 44.0237 446.868 43.6176ZM449.674 43.6176V43.4446C449.674 42.8578 449.759 42.3138 449.93 41.8123C450.1 41.3058 450.346 40.867 450.667 40.4959C450.988 40.1198 451.377 39.829 451.833 39.6234C452.289 39.4128 452.801 39.3075 453.367 39.3075C453.939 39.3075 454.453 39.4128 454.909 39.6234C455.371 39.829 455.762 40.1198 456.083 40.4959C456.409 40.867 456.657 41.3058 456.827 41.8123C456.998 42.3138 457.083 42.8578 457.083 43.4446V43.6176C457.083 44.2043 456.998 44.7484 456.827 45.2498C456.657 45.7513 456.409 46.1901 456.083 46.5662C455.762 46.9373 455.373 47.2281 454.917 47.4387C454.466 47.6443 453.954 47.7471 453.382 47.7471C452.811 47.7471 452.297 47.6443 451.84 47.4387C451.384 47.2281 450.993 46.9373 450.667 46.5662C450.346 46.1901 450.1 45.7513 449.93 45.2498C449.759 44.7484 449.674 44.2043 449.674 43.6176ZM451.066 43.4446V43.6176C451.066 44.0237 451.113 44.4074 451.209 44.7684C451.304 45.1245 451.447 45.4404 451.637 45.7162C451.833 45.992 452.076 46.2101 452.367 46.3706C452.658 46.5261 452.996 46.6038 453.382 46.6038C453.763 46.6038 454.097 46.5261 454.383 46.3706C454.674 46.2101 454.914 45.992 455.105 45.7162C455.295 45.4404 455.438 45.1245 455.534 44.7684C455.634 44.4074 455.684 44.0237 455.684 43.6176V43.4446C455.684 43.0434 455.634 42.6648 455.534 42.3087C455.438 41.9477 455.293 41.6293 455.097 41.3534C454.907 41.0726 454.666 40.852 454.375 40.6915C454.089 40.531 453.753 40.4508 453.367 40.4508C452.986 40.4508 452.65 40.531 452.359 40.6915C452.074 40.852 451.833 41.0726 451.637 41.3534C451.447 41.6293 451.304 41.9477 451.209 42.3087C451.113 42.6648 451.066 43.0434 451.066 43.4446ZM464.146 39.4579V40.6088H460.212V39.4579H464.146ZM465.372 39.4579V47.5967H463.981V39.4579H465.372ZM459.874 39.4579H461.273L461.062 43.3844C461.027 43.9911 460.97 44.5277 460.889 44.9941C460.814 45.4554 460.709 45.8516 460.573 46.1825C460.443 46.5135 460.278 46.7843 460.077 46.9949C459.881 47.2005 459.646 47.3535 459.37 47.4538C459.094 47.549 458.776 47.5967 458.415 47.5967H457.978V46.3706L458.279 46.348C458.495 46.333 458.678 46.2828 458.828 46.1976C458.984 46.1123 459.114 45.987 459.219 45.8215C459.325 45.651 459.41 45.4329 459.475 45.1671C459.545 44.9013 459.598 44.5854 459.633 44.2193C459.673 43.8532 459.703 43.427 459.723 42.9406L459.874 39.4579ZM468.757 42.2561H471.202C471.859 42.2561 472.413 42.3714 472.864 42.6021C473.316 42.8278 473.657 43.1412 473.887 43.5423C474.123 43.9385 474.241 44.3898 474.241 44.8963C474.241 45.2724 474.176 45.6259 474.045 45.9569C473.915 46.2828 473.719 46.5687 473.459 46.8144C473.203 47.0601 472.884 47.2532 472.503 47.3936C472.127 47.529 471.693 47.5967 471.202 47.5967H467.742V39.4579H469.133V46.4533H471.202C471.603 46.4533 471.924 46.3806 472.165 46.2352C472.405 46.0898 472.578 45.9017 472.684 45.6711C472.789 45.4404 472.842 45.1997 472.842 44.9489C472.842 44.7032 472.789 44.4625 472.684 44.2268C472.578 43.9911 472.405 43.7956 472.165 43.6401C471.924 43.4797 471.603 43.3994 471.202 43.3994H468.757V42.2561ZM481.499 42.9857V44.114H477.197V42.9857H481.499ZM477.49 39.4579V47.5967H476.099V39.4579H477.49ZM482.628 39.4579V47.5967H481.229V39.4579H482.628ZM489.668 46.2051V42.0154C489.668 41.6944 489.603 41.4161 489.473 41.1804C489.347 40.9397 489.157 40.7542 488.901 40.6238C488.645 40.4934 488.329 40.4282 487.953 40.4282C487.602 40.4282 487.294 40.4884 487.028 40.6088C486.767 40.7291 486.562 40.8871 486.411 41.0827C486.266 41.2782 486.193 41.4888 486.193 41.7145H484.802C484.802 41.4237 484.877 41.1353 485.027 40.8495C485.178 40.5636 485.393 40.3054 485.674 40.0747C485.96 39.839 486.301 39.6535 486.697 39.5181C487.098 39.3777 487.545 39.3075 488.036 39.3075C488.628 39.3075 489.149 39.4078 489.601 39.6083C490.057 39.8089 490.413 40.1123 490.669 40.5185C490.93 40.9197 491.06 41.4237 491.06 42.0304V45.8215C491.06 46.0923 491.082 46.3806 491.128 46.6865C491.178 46.9924 491.25 47.2557 491.346 47.4763V47.5967H489.894C489.824 47.4362 489.769 47.2231 489.729 46.9573C489.688 46.6865 489.668 46.4358 489.668 46.2051ZM489.909 42.6623L489.924 43.6401H488.517C488.121 43.6401 487.768 43.6727 487.457 43.7379C487.146 43.7981 486.885 43.8909 486.675 44.0162C486.464 44.1416 486.304 44.2996 486.193 44.4901C486.083 44.6756 486.028 44.8938 486.028 45.1445C486.028 45.4003 486.085 45.6334 486.201 45.8441C486.316 46.0547 486.489 46.2227 486.72 46.348C486.955 46.4684 487.244 46.5286 487.585 46.5286C488.011 46.5286 488.387 46.4383 488.713 46.2578C489.039 46.0772 489.297 45.8566 489.488 45.5958C489.683 45.3351 489.789 45.0818 489.804 44.8361L490.398 45.5056C490.363 45.7162 490.268 45.9494 490.112 46.2051C489.957 46.4609 489.749 46.7066 489.488 46.9423C489.232 47.1729 488.926 47.366 488.57 47.5215C488.219 47.6719 487.823 47.7471 487.382 47.7471C486.83 47.7471 486.346 47.6393 485.93 47.4237C485.519 47.208 485.198 46.9197 484.967 46.5586C484.741 46.1926 484.629 45.7839 484.629 45.3326C484.629 44.8963 484.714 44.5127 484.884 44.1817C485.055 43.8457 485.301 43.5674 485.622 43.3468C485.942 43.1211 486.329 42.9506 486.78 42.8353C487.231 42.7199 487.735 42.6623 488.292 42.6623H489.909ZM494.896 43.7153H496.401L494.046 47.5967H492.542L494.896 43.7153ZM496.062 39.4579H499.462V47.5967H498.07V40.5862H496.062C495.666 40.5862 495.342 40.6539 495.092 40.7893C494.841 40.9197 494.658 41.0902 494.543 41.3008C494.427 41.5114 494.37 41.7295 494.37 41.9552C494.37 42.1758 494.422 42.389 494.528 42.5946C494.633 42.7952 494.798 42.9606 495.024 43.091C495.25 43.2214 495.541 43.2866 495.897 43.2866H498.446V44.4299H495.897C495.43 44.4299 495.016 44.3672 494.655 44.2419C494.294 44.1165 493.988 43.9435 493.738 43.7229C493.487 43.4972 493.296 43.2339 493.166 42.9331C493.036 42.6272 492.97 42.2962 492.97 41.9402C492.97 41.5841 493.038 41.2557 493.174 40.9548C493.314 40.6539 493.515 40.3906 493.775 40.165C494.041 39.9393 494.365 39.7663 494.746 39.646C495.132 39.5206 495.571 39.4579 496.062 39.4579ZM510.783 39.4579V40.6088H507.022V47.5967H505.63V39.4579H510.783ZM513.385 41.0225V50.7258H511.986V39.4579H513.265L513.385 41.0225ZM518.869 43.4596V43.6176C518.869 44.2093 518.798 44.7584 518.658 45.2649C518.518 45.7663 518.312 46.2026 518.041 46.5737C517.775 46.9448 517.447 47.2331 517.056 47.4387C516.665 47.6443 516.216 47.7471 515.709 47.7471C515.193 47.7471 514.737 47.6619 514.34 47.4914C513.944 47.3209 513.608 47.0726 513.332 46.7467C513.057 46.4207 512.836 46.0296 512.671 45.5733C512.51 45.1169 512.4 44.6029 512.34 44.0313V43.1888C512.4 42.587 512.513 42.048 512.678 41.5716C512.844 41.0952 513.062 40.689 513.332 40.353C513.608 40.012 513.942 39.7538 514.333 39.5783C514.724 39.3977 515.175 39.3075 515.687 39.3075C516.198 39.3075 516.652 39.4078 517.048 39.6083C517.444 39.8039 517.778 40.0847 518.049 40.4508C518.32 40.8169 518.523 41.2557 518.658 41.7672C518.798 42.2736 518.869 42.8378 518.869 43.4596ZM517.47 43.6176V43.4596C517.47 43.0534 517.427 42.6723 517.342 42.3163C517.256 41.9552 517.124 41.6393 516.943 41.3685C516.767 41.0927 516.542 40.8771 516.266 40.7216C515.99 40.5611 515.662 40.4809 515.281 40.4809C514.93 40.4809 514.624 40.5411 514.363 40.6614C514.107 40.7818 513.889 40.9448 513.709 41.1504C513.528 41.3509 513.38 41.5816 513.265 41.8424C513.154 42.0981 513.072 42.3639 513.017 42.6397V44.5879C513.117 44.9389 513.257 45.2699 513.438 45.5808C513.618 45.8867 513.859 46.1349 514.16 46.3255C514.461 46.511 514.839 46.6038 515.296 46.6038C515.672 46.6038 515.995 46.5261 516.266 46.3706C516.542 46.2101 516.767 45.992 516.943 45.7162C517.124 45.4404 517.256 45.1245 517.342 44.7684C517.427 44.4074 517.47 44.0237 517.47 43.6176ZM522.84 46.7542L525.104 39.4579H526.594L523.329 48.8528C523.254 49.0534 523.154 49.2691 523.028 49.4997C522.908 49.7354 522.752 49.9586 522.562 50.1692C522.371 50.3798 522.141 50.5503 521.87 50.6807C521.604 50.8161 521.286 50.8838 520.915 50.8838C520.804 50.8838 520.664 50.8687 520.493 50.8386C520.323 50.8086 520.203 50.7835 520.132 50.7634L520.125 49.6351C520.165 49.6401 520.228 49.6452 520.313 49.6502C520.403 49.6602 520.466 49.6652 520.501 49.6652C520.817 49.6652 521.085 49.6226 521.306 49.5373C521.526 49.4571 521.712 49.3192 521.862 49.1236C522.018 48.9331 522.151 48.6698 522.261 48.3338L522.84 46.7542ZM521.178 39.4579L523.292 45.7764L523.653 47.2431L522.652 47.7546L519.658 39.4579H521.178ZM533.273 39.4579V40.6088H529.159V39.4579H533.273ZM529.362 39.4579V47.5967H527.97V39.4579H529.362ZM534.507 39.4579V47.5967H533.108V39.4579H534.507ZM542.164 39.4579V40.6088H538.05V39.4579H542.164ZM538.253 39.4579V47.5967H536.861V39.4579H538.253ZM543.398 39.4579V47.5967H541.999V39.4579H543.398ZM550.431 46.2051V42.0154C550.431 41.6944 550.366 41.4161 550.235 41.1804C550.11 40.9397 549.919 40.7542 549.664 40.6238C549.408 40.4934 549.092 40.4282 548.716 40.4282C548.365 40.4282 548.056 40.4884 547.791 40.6088C547.53 40.7291 547.324 40.8871 547.174 41.0827C547.028 41.2782 546.956 41.4888 546.956 41.7145H545.564C545.564 41.4237 545.639 41.1353 545.79 40.8495C545.94 40.5636 546.156 40.3054 546.437 40.0747C546.722 39.839 547.063 39.6535 547.46 39.5181C547.861 39.3777 548.307 39.3075 548.799 39.3075C549.39 39.3075 549.912 39.4078 550.363 39.6083C550.819 39.8089 551.175 40.1123 551.431 40.5185C551.692 40.9197 551.822 41.4237 551.822 42.0304V45.8215C551.822 46.0923 551.845 46.3806 551.89 46.6865C551.94 46.9924 552.013 47.2557 552.108 47.4763V47.5967H550.656C550.586 47.4362 550.531 47.2231 550.491 46.9573C550.451 46.6865 550.431 46.4358 550.431 46.2051ZM550.672 42.6623L550.687 43.6401H549.28C548.884 43.6401 548.53 43.6727 548.219 43.7379C547.908 43.7981 547.648 43.8909 547.437 44.0162C547.226 44.1416 547.066 44.2996 546.956 44.4901C546.845 44.6756 546.79 44.8938 546.79 45.1445C546.79 45.4003 546.848 45.6334 546.963 45.8441C547.079 46.0547 547.252 46.2227 547.482 46.348C547.718 46.4684 548.006 46.5286 548.347 46.5286C548.773 46.5286 549.15 46.4383 549.476 46.2578C549.801 46.0772 550.06 45.8566 550.25 45.5958C550.446 45.3351 550.551 45.0818 550.566 44.8361L551.16 45.5056C551.125 45.7162 551.03 45.9494 550.875 46.2051C550.719 46.4609 550.511 46.7066 550.25 46.9423C549.995 47.1729 549.689 47.366 549.333 47.5215C548.982 47.6719 548.585 47.7471 548.144 47.7471C547.593 47.7471 547.109 47.6393 546.692 47.4237C546.281 47.208 545.96 46.9197 545.73 46.5586C545.504 46.1926 545.391 45.7839 545.391 45.3326C545.391 44.8963 545.476 44.5127 545.647 44.1817C545.817 43.8457 546.063 43.5674 546.384 43.3468C546.705 43.1211 547.091 42.9506 547.542 42.8353C547.994 42.7199 548.498 42.6623 549.054 42.6623H550.672Z" fill="#454545"></path> <path fill-rule="evenodd" clip-rule="evenodd" d="M365.186 31C365.186 28.7909 366.977 27 369.186 27H394.186C396.395 27 398.186 28.7909 398.186 31V56C398.186 58.2091 396.395 60 394.186 60H369.186C366.977 60 365.186 58.2091 365.186 56V31Z" fill="#D09CC7"></path> <path fill-rule="evenodd" clip-rule="evenodd" d="M257 31C257 28.7909 258.791 27 261 27H286C288.209 27 290 28.7909 290 31V56C290 58.2091 288.209 60 286 60H261C258.791 60 257 58.2091 257 56V31Z" fill="#6FC4E2"></path> <path d="M303.755 36.048V47H302.326V36.048H303.755ZM307.275 36.048V37.2365H298.813V36.048H307.275ZM309.359 36.048H310.766L314.353 44.9766L317.934 36.048H319.348L314.895 47H313.797L309.359 36.048ZM308.9 36.048H310.141L310.344 42.7275V47H308.9V36.048ZM318.558 36.048H319.799V47H318.355V42.7275L318.558 36.048Z" fill="#454545"></path> <line x1="99" y1="82.5" x2="680" y2="82.5" stroke="#A6A6A6" stroke-opacity="0.26" stroke-dasharray="6 6"></line> <line x1="99" y1="122.5" x2="680" y2="122.5" stroke="#A6A6A6" stroke-opacity="0.26" stroke-dasharray="6 6"></line> <line x1="99" y1="162.5" x2="680" y2="162.5" stroke="#A6A6A6" stroke-opacity="0.26" stroke-dasharray="6 6"></line> <line x1="99" y1="202.5" x2="680" y2="202.5" stroke="#A6A6A6" stroke-opacity="0.26" stroke-dasharray="6 6"></line> <line x1="99" y1="242.5" x2="680" y2="242.5" stroke="#A6A6A6" stroke-opacity="0.26" stroke-dasharray="6 6"></line> <line x1="99" y1="322.5" x2="680" y2="322.5" stroke="#A6A6A6" stroke-opacity="0.26" stroke-dasharray="6 6"></line> <line x1="99" y1="362.5" x2="680" y2="362.5" stroke="#A6A6A6" stroke-opacity="0.26" stroke-dasharray="6 6"></line> <path d="M260.061 128.939C259.475 128.354 258.525 128.354 257.939 128.939L248.393 138.485C247.808 139.071 247.808 140.021 248.393 140.607C248.979 141.192 249.929 141.192 250.515 140.607L259 132.121L267.485 140.607C268.071 141.192 269.021 141.192 269.607 140.607C270.192 140.021 270.192 139.071 269.607 138.485L260.061 128.939ZM260.5 195V130H257.5V195H260.5Z" fill="white"></path> </g> <defs> <clipPath id="clip0_495_2"> <rect width="708" height="424" fill="white"></rect> </clipPath> </defs> </svg> 