<?xml version="1.0" encoding="UTF-8"?> <svg xmlns="http://www.w3.org/2000/svg" width="708" height="424" viewBox="0 0 708 424" fill="none"> <rect width="708" height="424" fill="white"></rect> <path d="M441.154 43.6447V54.5967H439.702V43.6447H441.154ZM447.901 43.6447L443.147 49.6698H440.575L440.349 48.4663H442.282L446.103 43.6447H447.901ZM446.442 54.5967L442.327 49.4817L443.14 48.2105L448.217 54.5967H446.442ZM448.744 50.6176V50.4446C448.744 49.8578 448.829 49.3138 448.999 48.8123C449.17 48.3058 449.416 47.867 449.736 47.4959C450.057 47.1198 450.446 46.829 450.902 46.6234C451.359 46.4128 451.87 46.3075 452.437 46.3075C453.009 46.3075 453.523 46.4128 453.979 46.6234C454.44 46.829 454.831 47.1198 455.152 47.4959C455.478 47.867 455.726 48.3058 455.897 48.8123C456.067 49.3138 456.153 49.8578 456.153 50.4446V50.6176C456.153 51.2043 456.067 51.7484 455.897 52.2498C455.726 52.7513 455.478 53.1901 455.152 53.5662C454.831 53.9373 454.443 54.2281 453.986 54.4387C453.535 54.6443 453.024 54.7471 452.452 54.7471C451.88 54.7471 451.366 54.6443 450.91 54.4387C450.454 54.2281 450.062 53.9373 449.736 53.5662C449.416 53.1901 449.17 52.7513 448.999 52.2498C448.829 51.7484 448.744 51.2043 448.744 50.6176ZM450.135 50.4446V50.6176C450.135 51.0237 450.183 51.4074 450.278 51.7684C450.373 52.1245 450.516 52.4404 450.707 52.7162C450.902 52.992 451.146 53.2101 451.436 53.3706C451.727 53.5261 452.066 53.6038 452.452 53.6038C452.833 53.6038 453.167 53.5261 453.452 53.3706C453.743 53.2101 453.984 52.992 454.174 52.7162C454.365 52.4404 454.508 52.1245 454.603 51.7684C454.704 51.4074 454.754 51.0237 454.754 50.6176V50.4446C454.754 50.0434 454.704 49.6648 454.603 49.3087C454.508 48.9477 454.363 48.6293 454.167 48.3534C453.976 48.0726 453.736 47.852 453.445 47.6915C453.159 47.531 452.823 47.4508 452.437 47.4508C452.056 47.4508 451.72 47.531 451.429 47.6915C451.143 47.852 450.902 48.0726 450.707 48.3534C450.516 48.6293 450.373 48.9477 450.278 49.3087C450.183 49.6648 450.135 50.0434 450.135 50.4446ZM463.419 49.9857V51.114H459.116V49.9857H463.419ZM459.41 46.4579V54.5967H458.018V46.4579H459.41ZM464.547 46.4579V54.5967H463.148V46.4579H464.547ZM470.106 46.4579V54.5967H468.707V46.4579H470.106ZM472.836 46.4579V47.5862H466.029V46.4579H472.836ZM475.597 48.0225V57.7258H474.198V46.4579H475.477L475.597 48.0225ZM481.081 50.4596V50.6176C481.081 51.2093 481.01 51.7584 480.87 52.2649C480.73 52.7663 480.524 53.2026 480.253 53.5737C479.987 53.9448 479.659 54.2331 479.268 54.4387C478.877 54.6443 478.428 54.7471 477.921 54.7471C477.405 54.7471 476.948 54.6619 476.552 54.4914C476.156 54.3209 475.82 54.0726 475.544 53.7467C475.269 53.4207 475.048 53.0296 474.882 52.5733C474.722 52.1169 474.612 51.6029 474.551 51.0313V50.1888C474.612 49.587 474.724 49.048 474.89 48.5716C475.055 48.0952 475.274 47.689 475.544 47.353C475.82 47.012 476.154 46.7538 476.545 46.5783C476.936 46.3977 477.387 46.3075 477.899 46.3075C478.41 46.3075 478.864 46.4078 479.26 46.6083C479.656 46.8039 479.99 47.0847 480.261 47.4508C480.531 47.8169 480.735 48.2557 480.87 48.7672C481.01 49.2736 481.081 49.8378 481.081 50.4596ZM479.681 50.6176V50.4596C479.681 50.0534 479.639 49.6723 479.554 49.3163C479.468 48.9552 479.335 48.6393 479.155 48.3685C478.979 48.0927 478.754 47.8771 478.478 47.7216C478.202 47.5611 477.874 47.4809 477.493 47.4809C477.142 47.4809 476.836 47.5411 476.575 47.6614C476.319 47.7818 476.101 47.9448 475.92 48.1504C475.74 48.3509 475.592 48.5816 475.477 48.8424C475.366 49.0981 475.284 49.3639 475.228 49.6397V51.5879C475.329 51.9389 475.469 52.2699 475.65 52.5808C475.83 52.8867 476.071 53.1349 476.372 53.3255C476.673 53.511 477.051 53.6038 477.508 53.6038C477.884 53.6038 478.207 53.5261 478.478 53.3706C478.754 53.2101 478.979 52.992 479.155 52.7162C479.335 52.4404 479.468 52.1245 479.554 51.7684C479.639 51.4074 479.681 51.0237 479.681 50.6176ZM482.487 50.6176V50.4446C482.487 49.8578 482.572 49.3138 482.743 48.8123C482.913 48.3058 483.159 47.867 483.48 47.4959C483.801 47.1198 484.19 46.829 484.646 46.6234C485.102 46.4128 485.614 46.3075 486.18 46.3075C486.752 46.3075 487.266 46.4128 487.722 46.6234C488.184 46.829 488.575 47.1198 488.896 47.4959C489.222 47.867 489.47 48.3058 489.641 48.8123C489.811 49.3138 489.896 49.8578 489.896 50.4446V50.6176C489.896 51.2043 489.811 51.7484 489.641 52.2498C489.47 52.7513 489.222 53.1901 488.896 53.5662C488.575 53.9373 488.186 54.2281 487.73 54.4387C487.279 54.6443 486.767 54.7471 486.195 54.7471C485.624 54.7471 485.11 54.6443 484.653 54.4387C484.197 54.2281 483.806 53.9373 483.48 53.5662C483.159 53.1901 482.913 52.7513 482.743 52.2498C482.572 51.7484 482.487 51.2043 482.487 50.6176ZM483.879 50.4446V50.6176C483.879 51.0237 483.926 51.4074 484.022 51.7684C484.117 52.1245 484.26 52.4404 484.45 52.7162C484.646 52.992 484.889 53.2101 485.18 53.3706C485.471 53.5261 485.809 53.6038 486.195 53.6038C486.577 53.6038 486.91 53.5261 487.196 53.3706C487.487 53.2101 487.727 52.992 487.918 52.7162C488.109 52.4404 488.251 52.1245 488.347 51.7684C488.447 51.4074 488.497 51.0237 488.497 50.6176V50.4446C488.497 50.0434 488.447 49.6648 488.347 49.3087C488.251 48.9477 488.106 48.6293 487.91 48.3534C487.72 48.0726 487.479 47.852 487.188 47.6915C486.903 47.531 486.567 47.4508 486.18 47.4508C485.799 47.4508 485.463 47.531 485.172 47.6915C484.887 47.852 484.646 48.0726 484.45 48.3534C484.26 48.6293 484.117 48.9477 484.022 49.3087C483.926 49.6648 483.879 50.0434 483.879 50.4446ZM496.959 46.4579V47.6088H493.025V46.4579H496.959ZM498.185 46.4579V54.5967H496.794V46.4579H498.185ZM492.687 46.4579H494.086L493.875 50.3844C493.84 50.9911 493.783 51.5277 493.702 51.9941C493.627 52.4554 493.522 52.8516 493.386 53.1825C493.256 53.5135 493.091 53.7843 492.89 53.9949C492.694 54.2005 492.459 54.3535 492.183 54.4538C491.907 54.549 491.589 54.5967 491.228 54.5967H490.791V53.3706L491.092 53.348C491.308 53.333 491.491 53.2828 491.641 53.1976C491.797 53.1123 491.927 52.987 492.033 52.8215C492.138 52.651 492.223 52.4329 492.288 52.1671C492.358 51.9013 492.411 51.5854 492.446 51.2193C492.486 50.8532 492.516 50.427 492.537 49.9406L492.687 46.4579ZM501.57 49.2561H504.015C504.672 49.2561 505.226 49.3714 505.677 49.6021C506.129 49.8278 506.47 50.1412 506.7 50.5423C506.936 50.9385 507.054 51.3898 507.054 51.8963C507.054 52.2724 506.989 52.6259 506.858 52.9569C506.728 53.2828 506.532 53.5687 506.272 53.8144C506.016 54.0601 505.697 54.2532 505.316 54.3936C504.94 54.529 504.506 54.5967 504.015 54.5967H500.555V46.4579H501.946V53.4533H504.015C504.416 53.4533 504.737 53.3806 504.978 53.2352C505.219 53.0898 505.392 52.9017 505.497 52.6711C505.602 52.4404 505.655 52.1997 505.655 51.9489C505.655 51.7032 505.602 51.4625 505.497 51.2268C505.392 50.9911 505.219 50.7956 504.978 50.6401C504.737 50.4797 504.416 50.3994 504.015 50.3994H501.57V49.2561ZM514.313 49.9857V51.114H510.01V49.9857H514.313ZM510.303 46.4579V54.5967H508.912V46.4579H510.303ZM515.441 46.4579V54.5967H514.042V46.4579H515.441ZM522.481 53.2051V49.0154C522.481 48.6944 522.416 48.4161 522.286 48.1804C522.161 47.9397 521.97 47.7542 521.714 47.6238C521.458 47.4934 521.143 47.4282 520.766 47.4282C520.415 47.4282 520.107 47.4884 519.841 47.6088C519.58 47.7291 519.375 47.8871 519.224 48.0827C519.079 48.2782 519.006 48.4888 519.006 48.7145H517.615C517.615 48.4237 517.69 48.1353 517.84 47.8495C517.991 47.5636 518.206 47.3054 518.487 47.0747C518.773 46.839 519.114 46.6535 519.51 46.5181C519.911 46.3777 520.358 46.3075 520.849 46.3075C521.441 46.3075 521.962 46.4078 522.414 46.6083C522.87 46.8089 523.226 47.1123 523.482 47.5185C523.743 47.9197 523.873 48.4237 523.873 49.0304V52.8215C523.873 53.0923 523.896 53.3806 523.941 53.6865C523.991 53.9924 524.064 54.2557 524.159 54.4763V54.5967H522.707C522.637 54.4362 522.582 54.2231 522.542 53.9573C522.502 53.6865 522.481 53.4358 522.481 53.2051ZM522.722 49.6623L522.737 50.6401H521.331C520.934 50.6401 520.581 50.6727 520.27 50.7379C519.959 50.7981 519.698 50.8909 519.488 51.0162C519.277 51.1416 519.117 51.2996 519.006 51.4901C518.896 51.6756 518.841 51.8938 518.841 52.1445C518.841 52.4003 518.898 52.6334 519.014 52.8441C519.129 53.0547 519.302 53.2227 519.533 53.348C519.769 53.4684 520.057 53.5286 520.398 53.5286C520.824 53.5286 521.2 53.4383 521.526 53.2578C521.852 53.0772 522.11 52.8566 522.301 52.5958C522.496 52.3351 522.602 52.0818 522.617 51.8361L523.211 52.5056C523.176 52.7162 523.081 52.9494 522.925 53.2051C522.77 53.4609 522.562 53.7066 522.301 53.9423C522.045 54.1729 521.739 54.366 521.383 54.5215C521.032 54.6719 520.636 54.7471 520.195 54.7471C519.643 54.7471 519.159 54.6393 518.743 54.4237C518.332 54.208 518.011 53.9197 517.78 53.5586C517.555 53.1926 517.442 52.7839 517.442 52.3326C517.442 51.8963 517.527 51.5127 517.697 51.1817C517.868 50.8457 518.114 50.5674 518.435 50.3468C518.756 50.1211 519.142 49.9506 519.593 49.8353C520.044 49.7199 520.548 49.6623 521.105 49.6623H522.722ZM527.709 50.7153H529.214L526.859 54.5967H525.355L527.709 50.7153ZM528.875 46.4579H532.275V54.5967H530.883V47.5862H528.875C528.479 47.5862 528.156 47.6539 527.905 47.7893C527.654 47.9197 527.471 48.0902 527.356 48.3008C527.24 48.5114 527.183 48.7295 527.183 48.9552C527.183 49.1758 527.235 49.389 527.341 49.5946C527.446 49.7952 527.611 49.9606 527.837 50.091C528.063 50.2214 528.354 50.2866 528.71 50.2866H531.26V51.4299H528.71C528.243 51.4299 527.83 51.3672 527.469 51.2419C527.107 51.1165 526.802 50.9435 526.551 50.7229C526.3 50.4972 526.11 50.2339 525.979 49.9331C525.849 49.6272 525.784 49.2962 525.784 48.9402C525.784 48.5841 525.851 48.2557 525.987 47.9548C526.127 47.6539 526.328 47.3906 526.588 47.165C526.854 46.9393 527.178 46.7663 527.559 46.646C527.945 46.5206 528.384 46.4579 528.875 46.4579ZM543.596 46.4579V47.6088H539.835V54.5967H538.443V46.4579H543.596ZM546.198 48.0225V57.7258H544.799V46.4579H546.078L546.198 48.0225ZM551.682 50.4596V50.6176C551.682 51.2093 551.612 51.7584 551.471 52.2649C551.331 52.7663 551.125 53.2026 550.854 53.5737C550.589 53.9448 550.26 54.2331 549.869 54.4387C549.478 54.6443 549.029 54.7471 548.523 54.7471C548.006 54.7471 547.55 54.6619 547.154 54.4914C546.757 54.3209 546.421 54.0726 546.146 53.7467C545.87 53.4207 545.649 53.0296 545.484 52.5733C545.323 52.1169 545.213 51.6029 545.153 51.0313V50.1888C545.213 49.587 545.326 49.048 545.491 48.5716C545.657 48.0952 545.875 47.689 546.146 47.353C546.421 47.012 546.755 46.7538 547.146 46.5783C547.537 46.3977 547.988 46.3075 548.5 46.3075C549.011 46.3075 549.465 46.4078 549.861 46.6083C550.258 46.8039 550.591 47.0847 550.862 47.4508C551.133 47.8169 551.336 48.2557 551.471 48.7672C551.612 49.2736 551.682 49.8378 551.682 50.4596ZM550.283 50.6176V50.4596C550.283 50.0534 550.24 49.6723 550.155 49.3163C550.07 48.9552 549.937 48.6393 549.756 48.3685C549.581 48.0927 549.355 47.8771 549.079 47.7216C548.803 47.5611 548.475 47.4809 548.094 47.4809C547.743 47.4809 547.437 47.5411 547.176 47.6614C546.92 47.7818 546.702 47.9448 546.522 48.1504C546.341 48.3509 546.193 48.5816 546.078 48.8424C545.968 49.0981 545.885 49.3639 545.83 49.6397V51.5879C545.93 51.9389 546.07 52.2699 546.251 52.5808C546.431 52.8867 546.672 53.1349 546.973 53.3255C547.274 53.511 547.652 53.6038 548.109 53.6038C548.485 53.6038 548.808 53.5261 549.079 53.3706C549.355 53.2101 549.581 52.992 549.756 52.7162C549.937 52.4404 550.07 52.1245 550.155 51.7684C550.24 51.4074 550.283 51.0237 550.283 50.6176ZM555.653 53.7542L557.917 46.4579H559.407L556.142 55.8528C556.067 56.0534 555.967 56.2691 555.841 56.4997C555.721 56.7354 555.566 56.9586 555.375 57.1692C555.184 57.3798 554.954 57.5503 554.683 57.6807C554.417 57.8161 554.099 57.8838 553.728 57.8838C553.617 57.8838 553.477 57.8687 553.306 57.8386C553.136 57.8086 553.016 57.7835 552.945 57.7634L552.938 56.6351C552.978 56.6401 553.041 56.6452 553.126 56.6502C553.216 56.6602 553.279 56.6652 553.314 56.6652C553.63 56.6652 553.898 56.6226 554.119 56.5373C554.339 56.4571 554.525 56.3192 554.675 56.1236C554.831 55.9331 554.964 55.6698 555.074 55.3338L555.653 53.7542ZM553.991 46.4579L556.105 52.7764L556.466 54.2431L555.465 54.7546L552.472 46.4579H553.991ZM566.086 46.4579V47.6088H561.972V46.4579H566.086ZM562.175 46.4579V54.5967H560.783V46.4579H562.175ZM567.32 46.4579V54.5967H565.921V46.4579H567.32ZM574.977 46.4579V47.6088H570.863V46.4579H574.977ZM571.066 46.4579V54.5967H569.674V46.4579H571.066ZM576.211 46.4579V54.5967H574.812V46.4579H576.211ZM583.244 53.2051V49.0154C583.244 48.6944 583.179 48.4161 583.048 48.1804C582.923 47.9397 582.732 47.7542 582.477 47.6238C582.221 47.4934 581.905 47.4282 581.529 47.4282C581.178 47.4282 580.869 47.4884 580.604 47.6088C580.343 47.7291 580.137 47.8871 579.987 48.0827C579.841 48.2782 579.769 48.4888 579.769 48.7145H578.377C578.377 48.4237 578.452 48.1353 578.603 47.8495C578.753 47.5636 578.969 47.3054 579.25 47.0747C579.536 46.839 579.877 46.6535 580.273 46.5181C580.674 46.3777 581.12 46.3075 581.612 46.3075C582.203 46.3075 582.725 46.4078 583.176 46.6083C583.633 46.8089 583.989 47.1123 584.244 47.5185C584.505 47.9197 584.635 48.4237 584.635 49.0304V52.8215C584.635 53.0923 584.658 53.3806 584.703 53.6865C584.753 53.9924 584.826 54.2557 584.921 54.4763V54.5967H583.47C583.399 54.4362 583.344 54.2231 583.304 53.9573C583.264 53.6865 583.244 53.4358 583.244 53.2051ZM583.485 49.6623L583.5 50.6401H582.093C581.697 50.6401 581.343 50.6727 581.032 50.7379C580.722 50.7981 580.461 50.8909 580.25 51.0162C580.04 51.1416 579.879 51.2996 579.769 51.4901C579.658 51.6756 579.603 51.8938 579.603 52.1445C579.603 52.4003 579.661 52.6334 579.776 52.8441C579.892 53.0547 580.065 53.2227 580.295 53.348C580.531 53.4684 580.819 53.5286 581.16 53.5286C581.587 53.5286 581.963 53.4383 582.289 53.2578C582.615 53.0772 582.873 52.8566 583.063 52.5958C583.259 52.3351 583.364 52.0818 583.379 51.8361L583.974 52.5056C583.938 52.7162 583.843 52.9494 583.688 53.2051C583.532 53.4609 583.324 53.7066 583.063 53.9423C582.808 54.1729 582.502 54.366 582.146 54.5215C581.795 54.6719 581.399 54.7471 580.957 54.7471C580.406 54.7471 579.922 54.6393 579.506 54.4237C579.094 54.208 578.773 53.9197 578.543 53.5586C578.317 53.1926 578.204 52.7839 578.204 52.3326C578.204 51.8963 578.289 51.5127 578.46 51.1817C578.63 50.8457 578.876 50.5674 579.197 50.3468C579.518 50.1211 579.904 49.9506 580.355 49.8353C580.807 49.7199 581.311 49.6623 581.867 49.6623H583.485Z" fill="#454545"></path> <path fill-rule="evenodd" clip-rule="evenodd" d="M398 38C398 35.7909 399.791 34 402 34H427C429.209 34 431 35.7909 431 38V63C431 65.2091 429.209 67 427 67H402C399.791 67 398 65.2091 398 63V38Z" fill="#D09CC7"></path> <path fill-rule="evenodd" clip-rule="evenodd" d="M254 38C254 35.7909 255.791 34 258 34H283C285.209 34 287 35.7909 287 38V63C287 65.2091 285.209 67 283 67H258C255.791 67 254 65.2091 254 63V38Z" fill="#6FC4E2"></path> <path d="M300.755 43.048V54H299.325V43.048H300.755ZM304.275 43.048V44.2365H295.813V43.048H304.275ZM306.358 43.048H307.765L311.353 51.9766L314.933 43.048H316.348L311.895 54H310.796L306.358 43.048ZM305.9 43.048H307.141L307.344 49.7275V54H305.9V43.048ZM315.558 43.048H316.799V54H315.355V49.7275L315.558 43.048Z" fill="#454545"></path> <path d="M464 227H403C400.239 227 398 229.239 398 232V352C398 354.761 400.239 357 403 357H464C466.761 357 469 354.761 469 352V232C469 229.239 466.761 227 464 227Z" fill="#D09CC7"></path> <path d="M320 137H259C256.239 137 254 139.239 254 142V351C254 353.761 256.239 356 259 356H320C322.761 356 325 353.761 325 351V142C325 139.239 322.761 137 320 137Z" fill="#6FC4E2"></path> <line x1="117.32" y1="357.027" x2="643" y2="357.027" stroke="#A6A6A6" stroke-opacity="0.26" stroke-width="2"></line> <line x1="107.409" y1="286.324" x2="117.217" y2="286.324" stroke="#A6A6A6" stroke-opacity="0.26" stroke-width="2"></line> <line x1="106.807" y1="357.027" x2="116.614" y2="357.027" stroke="#A6A6A6" stroke-opacity="0.26" stroke-width="2"></line> <line x1="107.409" y1="218.216" x2="117.217" y2="218.216" stroke="#A6A6A6" stroke-opacity="0.26" stroke-width="2"></line> <line x1="107.409" y1="149.601" x2="117.217" y2="149.601" stroke="#A6A6A6" stroke-opacity="0.26" stroke-width="2"></line> <line x1="107.409" y1="81.916" x2="117.217" y2="81.916" stroke="#A6A6A6" stroke-opacity="0.26" stroke-width="2"></line> <path d="M104.254 355.284V356.802C104.254 357.618 104.181 358.306 104.035 358.866C103.889 359.427 103.68 359.878 103.406 360.22C103.133 360.562 102.802 360.81 102.415 360.965C102.032 361.115 101.599 361.19 101.116 361.19C100.733 361.19 100.38 361.143 100.056 361.047C99.7329 360.951 99.4412 360.799 99.1815 360.589C98.9263 360.375 98.7075 360.097 98.5252 359.755C98.3429 359.413 98.2039 358.998 98.1082 358.511C98.0125 358.023 97.9647 357.453 97.9647 356.802V355.284C97.9647 354.468 98.0376 353.785 98.1834 353.233C98.3338 352.682 98.5457 352.24 98.8192 351.907C99.0926 351.57 99.4207 351.328 99.8035 351.183C100.191 351.037 100.624 350.964 101.102 350.964C101.49 350.964 101.845 351.012 102.169 351.107C102.497 351.199 102.789 351.347 103.044 351.552C103.299 351.752 103.515 352.021 103.693 352.358C103.875 352.691 104.014 353.099 104.11 353.582C104.206 354.065 104.254 354.632 104.254 355.284ZM102.982 357.007V355.072C102.982 354.626 102.955 354.234 102.9 353.896C102.85 353.555 102.775 353.263 102.675 353.021C102.574 352.78 102.447 352.584 102.292 352.434C102.141 352.283 101.966 352.174 101.765 352.105C101.569 352.033 101.348 351.996 101.102 351.996C100.802 351.996 100.535 352.053 100.303 352.167C100.07 352.276 99.8742 352.452 99.7147 352.693C99.5597 352.935 99.4412 353.252 99.3592 353.644C99.2772 354.035 99.2362 354.512 99.2362 355.072V357.007C99.2362 357.453 99.2612 357.848 99.3114 358.189C99.366 358.531 99.4458 358.827 99.5506 359.078C99.6554 359.324 99.783 359.527 99.9334 359.687C100.084 359.846 100.257 359.965 100.453 360.042C100.653 360.115 100.875 360.151 101.116 360.151C101.426 360.151 101.697 360.092 101.93 359.974C102.162 359.855 102.356 359.671 102.511 359.42C102.67 359.165 102.789 358.839 102.866 358.442C102.944 358.041 102.982 357.563 102.982 357.007Z" fill="#454545"></path> <path d="M94.2878 281.316V291.324H93.0232V282.896L90.4734 283.825V282.684L94.0896 281.316H94.2878ZM104.255 285.555V287.072C104.255 287.888 104.182 288.576 104.036 289.137C103.89 289.697 103.68 290.148 103.407 290.49C103.134 290.832 102.803 291.08 102.416 291.235C102.033 291.386 101.6 291.461 101.117 291.461C100.734 291.461 100.381 291.413 100.057 291.317C99.7338 291.222 99.4421 291.069 99.1823 290.859C98.9271 290.645 98.7084 290.367 98.5261 290.025C98.3438 289.684 98.2048 289.269 98.1091 288.781C98.0134 288.294 97.9655 287.724 97.9655 287.072V285.555C97.9655 284.739 98.0385 284.055 98.1843 283.504C98.3347 282.952 98.5466 282.51 98.82 282.178C99.0935 281.84 99.4216 281.599 99.8044 281.453C100.192 281.307 100.625 281.234 101.103 281.234C101.491 281.234 101.846 281.282 102.17 281.378C102.498 281.469 102.789 281.617 103.045 281.822C103.3 282.023 103.516 282.292 103.694 282.629C103.876 282.962 104.015 283.369 104.111 283.853C104.207 284.336 104.255 284.903 104.255 285.555ZM102.983 287.277V285.343C102.983 284.896 102.956 284.504 102.901 284.167C102.851 283.825 102.776 283.534 102.675 283.292C102.575 283.05 102.448 282.854 102.293 282.704C102.142 282.554 101.967 282.444 101.766 282.376C101.57 282.303 101.349 282.267 101.103 282.267C100.802 282.267 100.536 282.324 100.303 282.438C100.071 282.547 99.875 282.722 99.7155 282.964C99.5606 283.205 99.4421 283.522 99.3601 283.914C99.278 284.306 99.237 284.782 99.237 285.343V287.277C99.237 287.724 99.2621 288.118 99.3122 288.46C99.3669 288.802 99.4467 289.098 99.5515 289.349C99.6563 289.595 99.7839 289.798 99.9343 289.957C100.085 290.117 100.258 290.235 100.454 290.312C100.654 290.385 100.875 290.422 101.117 290.422C101.427 290.422 101.698 290.363 101.93 290.244C102.163 290.126 102.356 289.941 102.511 289.69C102.671 289.435 102.789 289.109 102.867 288.713C102.944 288.312 102.983 287.833 102.983 287.277Z" fill="#454545"></path> <path d="M96.6527 222.177V223.216H90.138V222.307L93.3988 218.677C93.7998 218.231 94.1097 217.852 94.3285 217.542C94.5518 217.228 94.7067 216.948 94.7933 216.702C94.8845 216.451 94.93 216.196 94.93 215.936C94.93 215.608 94.8617 215.312 94.725 215.047C94.5928 214.778 94.3968 214.564 94.1371 214.405C93.8773 214.245 93.5628 214.166 93.1937 214.166C92.7516 214.166 92.3825 214.252 92.0863 214.425C91.7946 214.594 91.5759 214.831 91.43 215.136C91.2842 215.442 91.2113 215.792 91.2113 216.189H89.9466C89.9466 215.628 90.0697 215.116 90.3158 214.651C90.5619 214.186 90.9265 213.817 91.4095 213.543C91.8926 213.265 92.4873 213.126 93.1937 213.126C93.8226 213.126 94.3604 213.238 94.807 213.461C95.2536 213.68 95.5954 213.99 95.8324 214.391C96.0739 214.788 96.1947 215.252 96.1947 215.786C96.1947 216.077 96.1445 216.374 96.0443 216.674C95.9486 216.971 95.8141 217.267 95.641 217.563C95.4723 217.859 95.2741 218.151 95.0462 218.438C94.8229 218.725 94.5837 219.008 94.3285 219.286L91.6625 222.177H96.6527ZM104.254 217.447V218.964C104.254 219.78 104.181 220.468 104.035 221.029C103.89 221.589 103.68 222.041 103.407 222.382C103.133 222.724 102.803 222.972 102.415 223.127C102.033 223.278 101.6 223.353 101.117 223.353C100.734 223.353 100.381 223.305 100.057 223.209C99.7334 223.114 99.4417 222.961 99.182 222.751C98.9268 222.537 98.708 222.259 98.5257 221.917C98.3434 221.576 98.2044 221.161 98.1087 220.673C98.013 220.186 97.9652 219.616 97.9652 218.964V217.447C97.9652 216.631 98.0381 215.947 98.1839 215.396C98.3343 214.845 98.5462 214.403 98.8197 214.07C99.0931 213.733 99.4212 213.491 99.8041 213.345C100.191 213.199 100.624 213.126 101.103 213.126C101.49 213.126 101.846 213.174 102.169 213.27C102.497 213.361 102.789 213.509 103.044 213.714C103.299 213.915 103.516 214.184 103.694 214.521C103.876 214.854 104.015 215.262 104.111 215.745C104.206 216.228 104.254 216.795 104.254 217.447ZM102.983 219.169V217.235C102.983 216.788 102.955 216.396 102.901 216.059C102.851 215.717 102.775 215.426 102.675 215.184C102.575 214.943 102.447 214.747 102.292 214.596C102.142 214.446 101.966 214.336 101.766 214.268C101.57 214.195 101.349 214.159 101.103 214.159C100.802 214.159 100.535 214.216 100.303 214.33C100.071 214.439 99.8747 214.614 99.7152 214.856C99.5602 215.097 99.4417 215.414 99.3597 215.806C99.2777 216.198 99.2367 216.674 99.2367 217.235V219.169C99.2367 219.616 99.2617 220.01 99.3119 220.352C99.3666 220.694 99.4463 220.99 99.5511 221.241C99.6559 221.487 99.7835 221.69 99.9339 221.849C100.084 222.009 100.258 222.127 100.453 222.205C100.654 222.278 100.875 222.314 101.117 222.314C101.426 222.314 101.698 222.255 101.93 222.136C102.162 222.018 102.356 221.833 102.511 221.583C102.671 221.327 102.789 221.001 102.867 220.605C102.944 220.204 102.983 219.725 102.983 219.169Z" fill="#454545"></path> <path d="M91.9772 148.509H92.8796C93.3216 148.509 93.6862 148.436 93.9733 148.291C94.265 148.14 94.4814 147.937 94.6227 147.682C94.7686 147.422 94.8415 147.131 94.8415 146.807C94.8415 146.424 94.7777 146.103 94.6501 145.843C94.5225 145.583 94.3311 145.388 94.0758 145.255C93.8206 145.123 93.4971 145.057 93.1051 145.057C92.7497 145.057 92.4352 145.128 92.1618 145.269C91.8929 145.406 91.681 145.602 91.526 145.857C91.3757 146.112 91.3005 146.413 91.3005 146.759H90.0358C90.0358 146.253 90.1634 145.793 90.4186 145.378C90.6738 144.964 91.0316 144.633 91.4919 144.387C91.9567 144.141 92.4945 144.018 93.1051 144.018C93.7067 144.018 94.2331 144.125 94.6842 144.339C95.1354 144.549 95.4863 144.863 95.737 145.283C95.9876 145.697 96.113 146.215 96.113 146.834C96.113 147.085 96.0537 147.354 95.9352 147.641C95.8213 147.924 95.6413 148.188 95.3952 148.434C95.1536 148.68 94.8392 148.883 94.4518 149.042C94.0645 149.197 93.5996 149.275 93.0573 149.275H91.9772V148.509ZM91.9772 149.548V148.79H93.0573C93.6908 148.79 94.2148 148.865 94.6296 149.015C95.0443 149.166 95.3701 149.366 95.6071 149.617C95.8486 149.867 96.0173 150.143 96.113 150.444C96.2132 150.74 96.2633 151.036 96.2633 151.333C96.2633 151.797 96.1836 152.21 96.0241 152.57C95.8691 152.93 95.6481 153.235 95.361 153.486C95.0785 153.736 94.7458 153.926 94.363 154.053C93.9801 154.181 93.5632 154.245 93.112 154.245C92.679 154.245 92.2712 154.183 91.8883 154.06C91.5101 153.937 91.1751 153.759 90.8835 153.527C90.5918 153.29 90.3639 153 90.1999 152.659C90.0358 152.312 89.9538 151.918 89.9538 151.476H91.2184C91.2184 151.822 91.2936 152.125 91.444 152.385C91.599 152.645 91.8177 152.848 92.1003 152.994C92.3874 153.135 92.7246 153.206 93.112 153.206C93.4994 153.206 93.832 153.139 94.11 153.007C94.3926 152.871 94.6091 152.666 94.7594 152.392C94.9144 152.119 94.9919 151.775 94.9919 151.36C94.9919 150.945 94.9053 150.606 94.7321 150.341C94.5589 150.072 94.3128 149.874 93.9938 149.747C93.6794 149.614 93.3079 149.548 92.8796 149.548H91.9772ZM104.255 148.338V149.856C104.255 150.672 104.182 151.36 104.036 151.92C103.89 152.481 103.68 152.932 103.407 153.274C103.133 153.616 102.803 153.864 102.416 154.019C102.033 154.169 101.6 154.245 101.117 154.245C100.734 154.245 100.381 154.197 100.057 154.101C99.7337 154.005 99.4421 153.853 99.1823 153.643C98.9271 153.429 98.7083 153.151 98.526 152.809C98.3438 152.467 98.2048 152.053 98.1091 151.565C98.0133 151.077 97.9655 150.508 97.9655 149.856V148.338C97.9655 147.523 98.0384 146.839 98.1842 146.288C98.3346 145.736 98.5466 145.294 98.82 144.961C99.0934 144.624 99.4216 144.383 99.8044 144.237C100.192 144.091 100.625 144.018 101.103 144.018C101.491 144.018 101.846 144.066 102.17 144.162C102.498 144.253 102.789 144.401 103.045 144.606C103.3 144.806 103.516 145.075 103.694 145.413C103.876 145.745 104.015 146.153 104.111 146.636C104.207 147.119 104.255 147.687 104.255 148.338ZM102.983 150.061V148.126C102.983 147.68 102.956 147.288 102.901 146.951C102.851 146.609 102.776 146.317 102.675 146.076C102.575 145.834 102.448 145.638 102.293 145.488C102.142 145.337 101.967 145.228 101.766 145.16C101.57 145.087 101.349 145.05 101.103 145.05C100.802 145.05 100.536 145.107 100.303 145.221C100.071 145.331 99.875 145.506 99.7155 145.748C99.5605 145.989 99.4421 146.306 99.36 146.698C99.278 147.09 99.237 147.566 99.237 148.126V150.061C99.237 150.508 99.262 150.902 99.3122 151.244C99.3669 151.585 99.4466 151.882 99.5514 152.132C99.6563 152.378 99.7839 152.581 99.9342 152.741C100.085 152.9 100.258 153.019 100.454 153.096C100.654 153.169 100.875 153.206 101.117 153.206C101.427 153.206 101.698 153.146 101.93 153.028C102.163 152.909 102.356 152.725 102.511 152.474C102.671 152.219 102.789 151.893 102.867 151.497C102.944 151.096 102.983 150.617 102.983 150.061Z" fill="#454545"></path> <path d="M96.8585 83.272V84.311H89.6671V83.5659L94.1241 76.6685H95.1564L94.0489 78.6646L91.1026 83.272H96.8585ZM95.4708 76.6685V86.6216H94.2062V76.6685H95.4708ZM104.255 80.8521V82.3696C104.255 83.1854 104.182 83.8735 104.036 84.4341C103.89 84.9946 103.681 85.4458 103.407 85.7876C103.134 86.1294 102.803 86.3778 102.416 86.5327C102.033 86.6831 101.6 86.7583 101.117 86.7583C100.734 86.7583 100.381 86.7104 100.058 86.6147C99.7342 86.519 99.4425 86.3664 99.1827 86.1567C98.9275 85.9425 98.7088 85.6646 98.5265 85.3228C98.3442 84.981 98.2052 84.5662 98.1095 84.0786C98.0138 83.591 97.9659 83.0213 97.9659 82.3696V80.8521C97.9659 80.0363 98.0388 79.3527 98.1847 78.8013C98.3351 78.2498 98.547 77.8078 98.8204 77.4751C99.0939 77.1379 99.422 76.8963 99.8048 76.7505C100.192 76.6047 100.625 76.5317 101.104 76.5317C101.491 76.5317 101.846 76.5796 102.17 76.6753C102.498 76.7664 102.79 76.9146 103.045 77.1196C103.3 77.3201 103.517 77.589 103.694 77.9263C103.877 78.259 104.016 78.6668 104.111 79.1499C104.207 79.633 104.255 80.2004 104.255 80.8521ZM102.984 82.5747V80.6401C102.984 80.1935 102.956 79.8016 102.901 79.4644C102.851 79.1226 102.776 78.8309 102.676 78.5894C102.576 78.3478 102.448 78.1519 102.293 78.0015C102.143 77.8511 101.967 77.7417 101.767 77.6733C101.571 77.6004 101.35 77.564 101.104 77.564C100.803 77.564 100.536 77.6209 100.304 77.7349C100.071 77.8442 99.8754 78.0197 99.7159 78.2612C99.561 78.5028 99.4425 78.8195 99.3605 79.2114C99.2784 79.6034 99.2374 80.0796 99.2374 80.6401V82.5747C99.2374 83.0213 99.2625 83.4155 99.3126 83.7573C99.3673 84.0991 99.4471 84.3953 99.5519 84.646C99.6567 84.8921 99.7843 85.0949 99.9347 85.2544C100.085 85.4139 100.258 85.5324 100.454 85.6099C100.655 85.6828 100.876 85.7192 101.117 85.7192C101.427 85.7192 101.698 85.66 101.931 85.5415C102.163 85.423 102.357 85.2384 102.512 84.9878C102.671 84.7326 102.79 84.4067 102.867 84.0103C102.945 83.6092 102.984 83.1307 102.984 82.5747Z" fill="#454545"></path> <line x1="116.567" y1="71" x2="116.567" y2="358.027" stroke="#A6A6A6" stroke-opacity="0.26" stroke-width="2"></line> <path d="M30.9141 303.091L30.9141 301.539L40.7671 297.579L30.9141 293.628L30.9141 292.067L43 296.981L43 298.193L30.9141 303.091ZM30.9141 303.597L30.9141 302.228L38.2852 302.003L43 302.003L43 303.597L30.9141 303.597ZM30.9141 292.939L30.9141 291.569L43 291.569L43 293.163L38.2852 293.163L30.9141 292.939ZM43.166 285.261C43.166 285.886 43.0609 286.453 42.8506 286.962C42.6348 287.466 42.3332 287.9 41.9458 288.266C41.5584 288.625 41.0991 288.902 40.5679 289.096C40.0366 289.289 39.4556 289.386 38.8247 289.386L38.4761 289.386C37.7456 289.386 37.0954 289.278 36.5254 289.062C35.9499 288.847 35.4629 288.553 35.0645 288.183C34.666 287.812 34.3644 287.391 34.1597 286.921C33.9549 286.451 33.8525 285.964 33.8525 285.46C33.8525 284.818 33.9632 284.265 34.1846 283.8C34.4059 283.329 34.7158 282.945 35.1143 282.646C35.5072 282.347 35.972 282.126 36.5088 281.982C37.04 281.838 37.6211 281.766 38.252 281.766L38.9409 281.766L38.9409 288.473L37.6875 288.473L37.6875 283.302L37.5713 283.302C37.1729 283.324 36.7855 283.407 36.4092 283.551C36.0329 283.689 35.723 283.91 35.4795 284.215C35.236 284.519 35.1143 284.934 35.1143 285.46C35.1143 285.809 35.189 286.13 35.3384 286.423C35.4823 286.716 35.6981 286.968 35.9858 287.178C36.2736 287.389 36.625 287.552 37.04 287.668C37.4551 287.784 37.9338 287.842 38.4761 287.842L38.8247 287.842C39.2508 287.842 39.652 287.784 40.0283 287.668C40.3991 287.546 40.7256 287.372 41.0078 287.145C41.29 286.913 41.5114 286.633 41.6719 286.307C41.8324 285.975 41.9126 285.598 41.9126 285.178C41.9126 284.635 41.8019 284.176 41.5806 283.8C41.3592 283.424 41.0632 283.094 40.6924 282.812L41.4312 281.882C41.7244 282.076 42.0039 282.322 42.2695 282.621C42.5352 282.92 42.751 283.288 42.917 283.725C43.083 284.157 43.166 284.669 43.166 285.261ZM39.0903 277.25L34.0186 280.654L34.0186 278.803L37.7373 276.479L37.7373 274.686L39.0903 274.91L39.0903 277.25ZM38.9326 276.412L43 279.019L43 280.961L37.8203 277.383L38.9326 276.412ZM34.0186 273.897L43 273.897L43 275.433L34.0186 275.433L34.0186 273.897ZM34.0186 268.659L39.0903 272.062L39.0903 274.403L37.7373 274.644L37.7373 272.843L34.0186 270.519L34.0186 268.659ZM43 270.303L38.9326 272.917L37.8203 271.93L43 268.36L43 270.303ZM34.0186 265.322L34.0186 263.787L37.3804 263.919C38.2326 263.953 38.9686 264.049 39.5884 264.21C40.2082 264.37 40.7367 264.575 41.1738 264.824C41.6055 265.073 41.9679 265.353 42.2612 265.663C42.5545 265.967 42.8008 266.282 43 266.609L43 267.373L41.7466 267.331L41.7383 267.016C41.5225 266.833 41.3011 266.656 41.0742 266.484C40.8418 266.313 40.5679 266.155 40.2524 266.011C39.9315 265.867 39.5413 265.748 39.082 265.654C38.6172 265.555 38.05 265.491 37.3804 265.463L34.0186 265.322ZM34.0186 264.94L34.0186 259.537L43 259.537L43 261.072L35.438 261.072L35.438 264.94L34.0186 264.94ZM41.7383 267.721L41.7383 258.383L45.6479 258.383L45.6479 259.918L43 259.918L43 266.186L45.6479 266.186L45.6479 267.729L41.7383 267.721ZM42.0703 254.158L34.0186 251.659L34.0186 250.016L44.3862 253.618C44.6076 253.701 44.8455 253.812 45.1001 253.95C45.3602 254.083 45.6064 254.255 45.8389 254.465C46.0713 254.675 46.2594 254.93 46.4033 255.229C46.5527 255.522 46.6274 255.873 46.6274 256.283C46.6274 256.404 46.6108 256.559 46.5776 256.748C46.5444 256.936 46.5168 257.069 46.4946 257.146L45.2495 257.154C45.255 257.11 45.2606 257.041 45.2661 256.947C45.2772 256.847 45.2827 256.778 45.2827 256.739C45.2827 256.391 45.2357 256.095 45.1416 255.851C45.0531 255.608 44.9009 255.403 44.6851 255.237C44.4748 255.065 44.1842 254.919 43.8135 254.797L42.0703 254.158ZM34.0186 255.992L40.9912 253.66L42.6099 253.261L43.1743 254.365L34.0186 257.669L34.0186 255.992ZM37.9116 242.537L39.1567 242.537L39.1567 247.285L37.9116 247.285L37.9116 242.537ZM34.0186 246.961L43 246.961L43 248.497L34.0186 248.497L34.0186 246.961ZM34.0186 241.292L43 241.292L43 242.835L34.0186 242.835L34.0186 241.292ZM41.4644 233.522L36.8408 233.522C36.4867 233.522 36.1795 233.594 35.9194 233.738C35.6538 233.876 35.4491 234.086 35.3052 234.369C35.1613 234.651 35.0894 235 35.0894 235.415C35.0894 235.802 35.1558 236.142 35.2886 236.436C35.4214 236.723 35.5957 236.95 35.8115 237.116C36.0273 237.277 36.2598 237.357 36.5088 237.357L36.5088 238.893C36.1878 238.893 35.8696 238.81 35.5542 238.644C35.2388 238.478 34.9538 238.24 34.6992 237.93C34.4391 237.614 34.2344 237.238 34.085 236.801C33.93 236.358 33.8525 235.866 33.8525 235.323C33.8525 234.67 33.9632 234.095 34.1846 233.597C34.4059 233.093 34.7407 232.7 35.189 232.418C35.6317 232.13 36.1878 231.986 36.8574 231.986L41.041 231.986C41.3398 231.986 41.658 231.961 41.9956 231.912C42.3332 231.856 42.6237 231.776 42.8672 231.671L43 231.671L43 233.273C42.8229 233.35 42.5877 233.411 42.2944 233.456C41.9956 233.5 41.7189 233.522 41.4644 233.522ZM37.5547 233.256L38.6338 233.24L38.6338 234.792C38.6338 235.229 38.6698 235.619 38.7417 235.962C38.8081 236.306 38.9105 236.593 39.0488 236.826C39.1872 237.058 39.3615 237.235 39.5718 237.357C39.7765 237.479 40.0172 237.54 40.2939 237.54C40.5762 237.54 40.8335 237.476 41.0659 237.349C41.2983 237.221 41.4837 237.03 41.6221 236.776C41.7549 236.516 41.8213 236.198 41.8213 235.821C41.8213 235.351 41.7217 234.936 41.5225 234.576C41.3232 234.216 41.0797 233.931 40.792 233.721C40.5042 233.505 40.2248 233.389 39.9536 233.373L40.6924 232.717C40.9248 232.756 41.1821 232.861 41.4644 233.032C41.7466 233.204 42.0177 233.433 42.2778 233.721C42.5324 234.003 42.7454 234.341 42.917 234.734C43.083 235.121 43.166 235.558 43.166 236.045C43.166 236.654 43.047 237.188 42.8091 237.647C42.5711 238.101 42.2529 238.455 41.8545 238.71C41.4505 238.959 40.9995 239.083 40.5015 239.083C40.02 239.083 39.5967 238.989 39.2314 238.801C38.8607 238.613 38.5535 238.342 38.3101 237.988C38.061 237.634 37.8729 237.208 37.7456 236.709C37.6183 236.211 37.5547 235.655 37.5547 235.041L37.5547 233.256ZM35.7451 228.035L46.4531 228.035L46.4531 229.579L34.0186 229.579L34.0186 228.168L35.7451 228.035ZM38.4346 221.984L38.6089 221.984C39.2619 221.984 39.8678 222.061 40.4268 222.216C40.9801 222.371 41.4616 222.598 41.8711 222.897C42.2806 223.19 42.5988 223.553 42.8257 223.984C43.0526 224.416 43.166 224.911 43.166 225.47C43.166 226.04 43.0719 226.544 42.8838 226.981C42.6956 227.418 42.4217 227.789 42.062 228.093C41.7023 228.398 41.2707 228.641 40.7671 228.824C40.2635 229.001 39.6963 229.123 39.0654 229.189L38.1357 229.189C37.4717 229.123 36.8768 228.998 36.3511 228.815C35.8254 228.633 35.3771 228.392 35.0063 228.093C34.63 227.789 34.345 227.421 34.1514 226.989C33.9521 226.558 33.8525 226.06 33.8525 225.495C33.8525 224.931 33.9632 224.43 34.1846 223.993C34.4004 223.556 34.7103 223.187 35.1143 222.889C35.5182 222.59 36.0024 222.366 36.5669 222.216C37.1258 222.061 37.7484 221.984 38.4346 221.984ZM38.6089 223.528L38.4346 223.528C37.9863 223.528 37.5658 223.575 37.1728 223.669C36.7744 223.763 36.4258 223.91 36.1269 224.109C35.8226 224.303 35.5846 224.552 35.4131 224.856C35.236 225.16 35.1475 225.523 35.1475 225.943C35.1475 226.331 35.2139 226.668 35.3467 226.956C35.4795 227.238 35.6593 227.479 35.8862 227.678C36.1076 227.877 36.3621 228.041 36.6499 228.168C36.9321 228.29 37.2254 228.381 37.5298 228.442L39.6797 228.442C40.0671 228.331 40.4323 228.176 40.7754 227.977C41.113 227.778 41.3869 227.512 41.5972 227.18C41.8019 226.848 41.9043 226.43 41.9043 225.927C41.9043 225.512 41.8185 225.155 41.647 224.856C41.4699 224.552 41.2292 224.303 40.9248 224.109C40.6204 223.91 40.2718 223.763 39.8789 223.669C39.4805 223.575 39.0571 223.528 38.6089 223.528ZM38.6089 220.432L38.418 220.432C37.7705 220.432 37.1701 220.338 36.6167 220.149C36.0578 219.961 35.5736 219.69 35.1641 219.336C34.749 218.982 34.4281 218.553 34.2012 218.049C33.9687 217.546 33.8525 216.981 33.8525 216.356C33.8525 215.725 33.9687 215.158 34.2012 214.654C34.4281 214.145 34.749 213.714 35.1641 213.359C35.5736 213 36.0578 212.726 36.6167 212.538C37.1701 212.349 37.7705 212.255 38.418 212.255L38.6089 212.255C39.2563 212.255 39.8568 212.349 40.4102 212.538C40.9635 212.726 41.4477 213 41.8628 213.359C42.2723 213.714 42.5933 214.142 42.8257 214.646C43.0526 215.144 43.166 215.708 43.166 216.339C43.166 216.97 43.0526 217.537 42.8257 218.041C42.5933 218.545 42.2723 218.976 41.8628 219.336C41.4478 219.69 40.9635 219.961 40.4102 220.149C39.8568 220.338 39.2563 220.432 38.6089 220.432ZM38.418 218.896L38.6089 218.896C39.0571 218.896 39.4805 218.843 39.8789 218.738C40.2718 218.633 40.6204 218.475 40.9248 218.265C41.2292 218.049 41.4699 217.781 41.647 217.46C41.8185 217.139 41.9043 216.765 41.9043 216.339C41.9043 215.919 41.8185 215.551 41.647 215.235C41.4699 214.914 41.2292 214.649 40.9248 214.438C40.6204 214.228 40.2718 214.07 39.8789 213.965C39.4805 213.855 39.0571 213.799 38.6089 213.799L38.418 213.799C37.9753 213.799 37.5575 213.855 37.1645 213.965C36.7661 214.07 36.4147 214.231 36.1103 214.447C35.8005 214.657 35.557 214.923 35.3799 215.244C35.2028 215.559 35.1143 215.93 35.1143 216.356C35.1143 216.777 35.2028 217.147 35.3799 217.468C35.557 217.784 35.8005 218.049 36.1103 218.265C36.4147 218.475 36.7661 218.633 37.1645 218.738C37.5575 218.843 37.9753 218.896 38.418 218.896ZM34.0186 209.309L34.0186 207.773L37.3804 207.906C38.2326 207.939 38.9686 208.036 39.5884 208.196C40.2082 208.357 40.7366 208.562 41.1738 208.811C41.6055 209.06 41.9679 209.339 42.2612 209.649C42.5545 209.953 42.8008 210.269 43 210.595L43 211.359L41.7466 211.317L41.7383 211.002C41.5225 210.819 41.3011 210.642 41.0742 210.471C40.8418 210.299 40.5679 210.141 40.2524 209.998C39.9315 209.854 39.5413 209.735 39.082 209.641C38.6172 209.541 38.05 209.477 37.3804 209.45L34.0186 209.309ZM34.0186 208.927L34.0186 203.523L43 203.523L43 205.059L35.438 205.059L35.438 208.927L34.0186 208.927ZM41.7383 211.708L41.7383 202.369L45.6479 202.369L45.6479 203.905L43 203.905L43 210.172L45.6479 210.172L45.6479 211.716L41.7383 211.708ZM37.9116 194.575L39.1567 194.575L39.1567 199.323L37.9116 199.323L37.9116 194.575ZM34.0186 198.999L43 198.999L43 200.535L34.0186 200.535L34.0186 198.999ZM34.0185 193.33L43 193.33L43 194.874L34.0185 194.874L34.0185 193.33ZM41.4644 185.56L36.8408 185.56C36.4866 185.56 36.1795 185.632 35.9194 185.776C35.6538 185.914 35.4491 186.125 35.3052 186.407C35.1613 186.689 35.0894 187.038 35.0894 187.453C35.0894 187.84 35.1558 188.18 35.2886 188.474C35.4214 188.761 35.5957 188.988 35.8115 189.154C36.0273 189.315 36.2598 189.395 36.5088 189.395L36.5088 190.931C36.1878 190.931 35.8696 190.848 35.5542 190.682C35.2388 190.516 34.9538 190.278 34.6992 189.968C34.4391 189.652 34.2344 189.276 34.085 188.839C33.93 188.396 33.8525 187.904 33.8525 187.361C33.8525 186.708 33.9632 186.133 34.1846 185.635C34.4059 185.131 34.7407 184.738 35.189 184.456C35.6317 184.168 36.1878 184.024 36.8574 184.024L41.041 184.024C41.3398 184.024 41.658 184 41.9956 183.95C42.3332 183.894 42.6237 183.814 42.8672 183.709L43 183.709L43 185.311C42.8229 185.389 42.5877 185.449 42.2944 185.494C41.9956 185.538 41.7189 185.56 41.4644 185.56ZM37.5547 185.294L38.6338 185.278L38.6338 186.83C38.6338 187.267 38.6698 187.657 38.7417 188C38.8081 188.344 38.9105 188.631 39.0488 188.864C39.1872 189.096 39.3615 189.273 39.5718 189.395C39.7765 189.517 40.0172 189.578 40.2939 189.578C40.5762 189.578 40.8335 189.514 41.0659 189.387C41.2983 189.259 41.4837 189.069 41.6221 188.814C41.7549 188.554 41.8213 188.236 41.8213 187.859C41.8213 187.389 41.7217 186.974 41.5225 186.614C41.3232 186.255 41.0797 185.97 40.792 185.759C40.5042 185.543 40.2248 185.427 39.9536 185.411L40.6924 184.755C40.9248 184.794 41.1821 184.899 41.4644 185.07C41.7466 185.242 42.0177 185.472 42.2778 185.759C42.5324 186.042 42.7454 186.379 42.917 186.772C43.083 187.159 43.166 187.597 43.166 188.083C43.166 188.692 43.047 189.226 42.8091 189.686C42.5711 190.139 42.2529 190.493 41.8545 190.748C41.4505 190.997 40.9995 191.122 40.5015 191.122C40.02 191.122 39.5967 191.028 39.2314 190.839C38.8607 190.651 38.5535 190.38 38.3101 190.026C38.061 189.672 37.8729 189.246 37.7456 188.748C37.6183 188.25 37.5547 187.693 37.5547 187.079L37.5547 185.294ZM38.7168 179.791L38.7168 178.131L43 180.729L43 182.389L38.7168 179.791ZM34.0185 178.504L34.0185 174.752L43 174.752L43 176.288L35.2637 176.288L35.2637 178.504C35.2637 178.942 35.3384 179.299 35.4878 179.575C35.6317 179.852 35.8198 180.054 36.0522 180.181C36.2847 180.308 36.5254 180.372 36.7744 180.372C37.0179 180.372 37.2531 180.314 37.48 180.198C37.7013 180.082 37.8839 179.899 38.0278 179.65C38.1717 179.401 38.2436 179.08 38.2436 178.687L38.2436 175.873L39.5054 175.873L39.5054 178.687C39.5054 179.202 39.4362 179.658 39.2978 180.057C39.1595 180.455 38.9686 180.793 38.7251 181.069C38.4761 181.346 38.1855 181.556 37.8535 181.7C37.5159 181.844 37.1507 181.916 36.7578 181.916C36.3649 181.916 36.0024 181.841 35.6704 181.692C35.3384 181.537 35.0478 181.316 34.7988 181.028C34.5498 180.735 34.3589 180.378 34.2261 179.957C34.0877 179.531 34.0185 179.047 34.0185 178.504ZM41.9043 164.468C41.9043 164.103 41.8296 163.765 41.6802 163.455C41.5308 163.145 41.326 162.891 41.0659 162.691C40.8003 162.492 40.4987 162.379 40.1611 162.351L40.1611 160.89C40.6924 160.918 41.1877 161.098 41.647 161.43C42.1007 161.756 42.4687 162.185 42.751 162.716C43.0277 163.248 43.166 163.831 43.166 164.468C43.166 165.143 43.047 165.732 42.8091 166.236C42.5711 166.734 42.2446 167.149 41.8296 167.481C41.4145 167.807 40.9386 168.054 40.4018 168.22C39.8595 168.38 39.2868 168.46 38.6836 168.46L38.335 168.46C37.7318 168.46 37.1618 168.38 36.625 168.22C36.0827 168.054 35.604 167.807 35.189 167.481C34.7739 167.149 34.4474 166.734 34.2095 166.236C33.9715 165.732 33.8525 165.143 33.8525 164.468C33.8525 163.765 33.9964 163.151 34.2842 162.625C34.5664 162.099 34.9538 161.687 35.4463 161.388C35.9333 161.084 36.4866 160.918 37.1064 160.89L37.1064 162.351C36.7357 162.379 36.4009 162.484 36.102 162.667C35.8032 162.844 35.5653 163.087 35.3882 163.397C35.2056 163.701 35.1143 164.058 35.1143 164.468C35.1143 164.938 35.2083 165.334 35.3965 165.655C35.5791 165.97 35.8281 166.222 36.1435 166.41C36.4534 166.593 36.7993 166.726 37.1811 166.809C37.5574 166.886 37.9421 166.925 38.335 166.925L38.6836 166.925C39.0765 166.925 39.4639 166.886 39.8457 166.809C40.2275 166.731 40.5734 166.601 40.8833 166.418C41.1932 166.23 41.4422 165.979 41.6304 165.663C41.813 165.342 41.9043 164.944 41.9043 164.468ZM40.5679 157.503L34.0185 153.361L34.0185 151.817L43 151.817L43 153.361L36.4507 153.361L43 157.503L43 159.031L34.0185 159.031L34.0185 157.503L40.5679 157.503ZM41.9043 145.758C41.9043 145.393 41.8296 145.055 41.6802 144.745C41.5308 144.435 41.326 144.181 41.0659 143.981C40.8003 143.782 40.4987 143.669 40.1611 143.641L40.1611 142.18C40.6924 142.208 41.1877 142.388 41.647 142.72C42.1007 143.046 42.4687 143.475 42.751 144.006C43.0277 144.538 43.166 145.121 43.166 145.758C43.166 146.433 43.047 147.022 42.8091 147.526C42.5711 148.024 42.2446 148.439 41.8296 148.771C41.4145 149.097 40.9386 149.344 40.4018 149.51C39.8595 149.67 39.2868 149.75 38.6836 149.75L38.335 149.75C37.7318 149.75 37.1618 149.67 36.625 149.51C36.0827 149.344 35.604 149.097 35.189 148.771C34.7739 148.439 34.4474 148.024 34.2095 147.526C33.9715 147.022 33.8525 146.433 33.8525 145.758C33.8525 145.055 33.9964 144.441 34.2842 143.915C34.5664 143.389 34.9538 142.977 35.4463 142.678C35.9333 142.374 36.4866 142.208 37.1064 142.18L37.1064 143.641C36.7357 143.669 36.4009 143.774 36.102 143.957C35.8032 144.134 35.5653 144.377 35.3882 144.687C35.2056 144.991 35.1143 145.348 35.1143 145.758C35.1143 146.228 35.2083 146.624 35.3965 146.945C35.5791 147.26 35.8281 147.512 36.1435 147.7C36.4534 147.883 36.7993 148.016 37.1811 148.099C37.5574 148.176 37.9421 148.215 38.335 148.215L38.6836 148.215C39.0765 148.215 39.4639 148.176 39.8457 148.099C40.2275 148.021 40.5734 147.891 40.8833 147.708C41.1932 147.52 41.4422 147.269 41.6304 146.953C41.813 146.632 41.9043 146.234 41.9043 145.758ZM34.0185 136.793L43 136.793L43 138.337L34.0185 138.337L34.0185 136.793ZM34.0185 133.78L35.2637 133.78L35.2637 141.292L34.0185 141.292L34.0185 133.78ZM43.166 129.206C43.166 129.831 43.0609 130.399 42.8506 130.908C42.6348 131.411 42.3332 131.846 41.9458 132.211C41.5584 132.571 41.0991 132.847 40.5679 133.041C40.0366 133.235 39.4556 133.332 38.8247 133.332L38.4761 133.332C37.7456 133.332 37.0954 133.224 36.5254 133.008C35.9499 132.792 35.4629 132.499 35.0644 132.128C34.666 131.757 34.3644 131.337 34.1597 130.866C33.9549 130.396 33.8525 129.909 33.8525 129.405C33.8525 128.763 33.9632 128.21 34.1846 127.745C34.4059 127.275 34.7158 126.89 35.1143 126.591C35.5072 126.292 35.972 126.071 36.5088 125.927C37.04 125.783 37.6211 125.711 38.2519 125.711L38.9409 125.711L38.9409 132.418L37.6875 132.418L37.6875 127.247L37.5713 127.247C37.1728 127.269 36.7855 127.352 36.4092 127.496C36.0329 127.634 35.723 127.856 35.4795 128.16C35.236 128.465 35.1143 128.88 35.1143 129.405C35.1143 129.754 35.189 130.075 35.3384 130.368C35.4823 130.661 35.6981 130.913 35.9858 131.124C36.2736 131.334 36.625 131.497 37.04 131.613C37.4551 131.729 37.9337 131.788 38.4761 131.788L38.8247 131.788C39.2508 131.788 39.652 131.729 40.0283 131.613C40.3991 131.492 40.7256 131.317 41.0078 131.09C41.29 130.858 41.5114 130.578 41.6719 130.252C41.8323 129.92 41.9126 129.544 41.9126 129.123C41.9126 128.581 41.8019 128.121 41.5806 127.745C41.3592 127.369 41.0631 127.04 40.6924 126.757L41.4311 125.828C41.7244 126.021 42.0039 126.268 42.2695 126.566C42.5351 126.865 42.751 127.233 42.917 127.67C43.083 128.102 43.166 128.614 43.166 129.206ZM40.958 118.755L34.0185 115.701L34.0185 114.223L43 118.224L43 119.287L34.0185 123.271L34.0185 121.793L40.958 118.755ZM34.0185 122.242L43 122.242L43 123.777L34.0185 123.777L34.0185 122.242ZM43 115.319L34.0185 115.319L34.0185 113.775L43 113.775L43 115.319ZM41.4643 106.005L36.8408 106.005C36.4866 106.005 36.1795 106.077 35.9194 106.221C35.6538 106.36 35.449 106.57 35.3052 106.852C35.1613 107.134 35.0893 107.483 35.0893 107.898C35.0893 108.285 35.1558 108.626 35.2886 108.919C35.4214 109.207 35.5957 109.434 35.8115 109.6C36.0273 109.76 36.2598 109.84 36.5088 109.84L36.5088 111.376C36.1878 111.376 35.8696 111.293 35.5542 111.127C35.2388 110.961 34.9538 110.723 34.6992 110.413C34.4391 110.098 34.2344 109.721 34.085 109.284C33.93 108.841 33.8525 108.349 33.8525 107.807C33.8525 107.154 33.9632 106.578 34.1846 106.08C34.4059 105.576 34.7407 105.184 35.189 104.901C35.6317 104.614 36.1878 104.47 36.8574 104.47L41.041 104.47C41.3398 104.47 41.658 104.445 41.9956 104.395C42.3332 104.34 42.6237 104.259 42.8672 104.154L43 104.154L43 105.756C42.8229 105.834 42.5877 105.895 42.2944 105.939C41.9956 105.983 41.7189 106.005 41.4643 106.005ZM37.5547 105.74L38.6338 105.723L38.6338 107.275C38.6338 107.713 38.6698 108.103 38.7417 108.446C38.8081 108.789 38.9105 109.077 39.0488 109.309C39.1872 109.542 39.3615 109.719 39.5718 109.84C39.7765 109.962 40.0172 110.023 40.2939 110.023C40.5762 110.023 40.8335 109.959 41.0659 109.832C41.2983 109.705 41.4837 109.514 41.6221 109.259C41.7549 108.999 41.8213 108.681 41.8213 108.305C41.8213 107.834 41.7217 107.419 41.5225 107.06C41.3232 106.7 41.0797 106.415 40.792 106.205C40.5042 105.989 40.2248 105.873 39.9536 105.856L40.6924 105.2C40.9248 105.239 41.1821 105.344 41.4643 105.516C41.7466 105.687 42.0177 105.917 42.2778 106.205C42.5324 106.487 42.7454 106.824 42.917 107.217C43.083 107.605 43.166 108.042 43.166 108.529C43.166 109.138 43.047 109.672 42.8091 110.131C42.5711 110.585 42.2529 110.939 41.8545 111.193C41.4505 111.442 40.9995 111.567 40.5015 111.567C40.02 111.567 39.5967 111.473 39.2314 111.285C38.8607 111.097 38.5535 110.825 38.3101 110.471C38.061 110.117 37.8729 109.691 37.7456 109.193C37.6183 108.695 37.5547 108.139 37.5547 107.524L37.5547 105.74ZM58.6089 304.236L58.418 304.236C57.7705 304.236 57.1701 304.142 56.6167 303.954C56.0578 303.766 55.5736 303.495 55.1641 303.141C54.749 302.786 54.4281 302.358 54.2012 301.854C53.9687 301.35 53.8525 300.786 53.8525 300.161C53.8525 299.53 53.9687 298.963 54.2012 298.459C54.4281 297.95 54.749 297.518 55.1641 297.164C55.5736 296.804 56.0578 296.53 56.6167 296.342C57.1701 296.154 57.7705 296.06 58.418 296.06L58.6089 296.06C59.2563 296.06 59.8568 296.154 60.4102 296.342C60.9635 296.53 61.4478 296.804 61.8628 297.164C62.2723 297.518 62.5933 297.947 62.8257 298.451C63.0526 298.949 63.166 299.513 63.166 300.144C63.166 300.775 63.0526 301.342 62.8257 301.846C62.5933 302.349 62.2723 302.781 61.8628 303.141C61.4478 303.495 60.9635 303.766 60.4102 303.954C59.8568 304.142 59.2563 304.236 58.6089 304.236ZM58.418 302.701L58.6089 302.701C59.0571 302.701 59.4805 302.648 59.8789 302.543C60.2718 302.438 60.6204 302.28 60.9248 302.07C61.2292 301.854 61.4699 301.586 61.647 301.265C61.8185 300.944 61.9043 300.57 61.9043 300.144C61.9043 299.723 61.8185 299.355 61.647 299.04C61.4699 298.719 61.2292 298.453 60.9248 298.243C60.6204 298.033 60.2718 297.875 59.8789 297.77C59.4805 297.659 59.0571 297.604 58.6089 297.604L58.418 297.604C57.9753 297.604 57.5575 297.659 57.1646 297.77C56.7661 297.875 56.4147 298.036 56.1104 298.251C55.8005 298.462 55.557 298.727 55.3799 299.048C55.2028 299.364 55.1143 299.735 55.1143 300.161C55.1143 300.581 55.2028 300.952 55.3799 301.273C55.557 301.588 55.8005 301.854 56.1104 302.07C56.4147 302.28 56.7661 302.438 57.1646 302.543C57.5575 302.648 57.9753 302.701 58.418 302.701ZM63 294.001L54.0186 294.001L54.0186 292.466L61.7383 292.466L61.7383 288.332L54.0186 288.332L54.0186 286.788L63 286.788L63 294.001ZM61.7383 285.726L65.6645 285.875L65.6646 287.245L63 287.245L63 288.415L61.7383 288.415L61.7383 285.726ZM63.166 280.33C63.166 280.955 63.0609 281.523 62.8506 282.032C62.6348 282.535 62.3332 282.97 61.9458 283.335C61.5584 283.695 61.0991 283.971 60.5679 284.165C60.0366 284.359 59.4556 284.456 58.8247 284.456L58.4761 284.456C57.7456 284.456 57.0954 284.348 56.5254 284.132C55.9499 283.916 55.4629 283.623 55.0645 283.252C54.666 282.881 54.3644 282.461 54.1597 281.99C53.9549 281.52 53.8525 281.033 53.8525 280.529C53.8525 279.887 53.9632 279.334 54.1846 278.869C54.4059 278.399 54.7158 278.014 55.1143 277.715C55.5072 277.417 55.972 277.195 56.5088 277.051C57.04 276.907 57.6211 276.835 58.252 276.835L58.9409 276.835L58.9409 283.542L57.6875 283.542L57.6875 278.371L57.5713 278.371C57.1729 278.393 56.7855 278.476 56.4092 278.62C56.0329 278.758 55.723 278.98 55.4795 279.284C55.236 279.589 55.1143 280.004 55.1143 280.529C55.1143 280.878 55.189 281.199 55.3384 281.492C55.4823 281.785 55.6981 282.037 55.9858 282.248C56.2736 282.458 56.625 282.621 57.04 282.737C57.4551 282.854 57.9338 282.912 58.4761 282.912L58.8247 282.912C59.2508 282.912 59.652 282.854 60.0283 282.737C60.3991 282.616 60.7256 282.441 61.0078 282.214C61.29 281.982 61.5114 281.702 61.6719 281.376C61.8324 281.044 61.9126 280.668 61.9126 280.247C61.9126 279.705 61.8019 279.245 61.5806 278.869C61.3592 278.493 61.0631 278.164 60.6924 277.881L61.4312 276.952C61.7244 277.145 62.0039 277.392 62.2695 277.69C62.5352 277.989 62.751 278.357 62.917 278.794C63.083 279.226 63.166 279.738 63.166 280.33ZM57.9116 268.95L59.1567 268.95L59.1567 273.698L57.9116 273.698L57.9116 268.95ZM54.0186 273.374L63 273.374L63 274.91L54.0186 274.91L54.0186 273.374ZM54.0186 267.705L63 267.705L63 269.249L54.0186 269.249L54.0186 267.705ZM58.6089 265.638L58.418 265.638C57.7705 265.638 57.1701 265.544 56.6167 265.355C56.0578 265.167 55.5736 264.896 55.1641 264.542C54.749 264.188 54.4281 263.759 54.2012 263.255C53.9687 262.752 53.8525 262.187 53.8525 261.562C53.8525 260.931 53.9687 260.364 54.2012 259.86C54.4281 259.351 54.749 258.92 55.1641 258.565C55.5736 258.206 56.0578 257.932 56.6167 257.744C57.1701 257.555 57.7705 257.461 58.418 257.461L58.6089 257.461C59.2563 257.461 59.8568 257.555 60.4102 257.744C60.9635 257.932 61.4478 258.206 61.8628 258.565C62.2723 258.92 62.5933 259.348 62.8257 259.852C63.0526 260.35 63.166 260.915 63.166 261.545C63.166 262.176 63.0526 262.743 62.8257 263.247C62.5933 263.751 62.2723 264.182 61.8628 264.542C61.4478 264.896 60.9635 265.167 60.4102 265.355C59.8568 265.544 59.2563 265.638 58.6089 265.638ZM58.418 264.102L58.6089 264.102C59.0571 264.102 59.4805 264.049 59.8789 263.944C60.2718 263.839 60.6204 263.681 60.9248 263.471C61.2292 263.255 61.4699 262.987 61.647 262.666C61.8185 262.345 61.9043 261.972 61.9043 261.545C61.9043 261.125 61.8185 260.757 61.647 260.441C61.4699 260.12 61.2292 259.855 60.9248 259.645C60.6204 259.434 60.2718 259.277 59.8789 259.171C59.4805 259.061 59.0571 259.005 58.6089 259.005L58.418 259.005C57.9753 259.005 57.5575 259.061 57.1645 259.171C56.7661 259.277 56.4147 259.437 56.1103 259.653C55.8005 259.863 55.557 260.129 55.3799 260.45C55.2028 260.765 55.1143 261.136 55.1143 261.562C55.1143 261.983 55.2028 262.353 55.3799 262.674C55.557 262.99 55.8005 263.255 56.1103 263.471C56.4147 263.681 56.7661 263.839 57.1645 263.944C57.5575 264.049 57.9753 264.102 58.418 264.102ZM54.0186 253.867L63 253.867L63 255.403L54.0186 255.403L54.0186 253.867ZM54.0186 247.974L59.165 252.232L59.165 254.382L57.8203 254.614L57.8203 252.854L54.0186 249.841L54.0186 247.974ZM63 249.625L58.9326 252.929L57.8203 251.941L63 247.675L63 249.625ZM59.0488 237.905L59.0488 240.852L57.8203 240.868L57.8203 238.461C57.8203 237.985 57.7733 237.589 57.6792 237.274C57.5851 236.953 57.444 236.712 57.2559 236.552C57.0677 236.391 56.8353 236.311 56.5586 236.311C56.3428 236.311 56.1546 236.358 55.9941 236.452C55.8281 236.541 55.6925 236.676 55.5874 236.859C55.4767 237.042 55.3965 237.268 55.3467 237.54C55.2913 237.805 55.2637 238.118 55.2637 238.478L55.2637 240.445L63 240.445L63 241.98L54.0186 241.98L54.0186 238.478C54.0186 237.908 54.0684 237.396 54.168 236.942C54.2676 236.483 54.4198 236.092 54.6245 235.771C54.8237 235.445 55.0783 235.196 55.3882 235.024C55.6981 234.853 56.0633 234.767 56.4839 234.767C56.755 234.767 57.0124 234.822 57.2559 234.933C57.4993 235.044 57.7152 235.207 57.9033 235.423C58.0915 235.639 58.2464 235.904 58.3682 236.22C58.4844 236.535 58.5591 236.898 58.5923 237.307L59.0488 237.905ZM63 237.905L63 241.408L61.7549 240.644L61.7549 237.905C61.7549 237.479 61.7023 237.125 61.5972 236.842C61.4865 236.56 61.3315 236.35 61.1323 236.211C60.9276 236.068 60.6841 235.996 60.4019 235.996C60.1196 235.996 59.8789 236.068 59.6797 236.211C59.4749 236.35 59.32 236.56 59.2148 236.842C59.1042 237.125 59.0488 237.479 59.0488 237.905L59.0488 240.237L57.8203 240.221L57.8203 237.307L58.2852 236.751C58.3239 236.258 58.4456 235.841 58.6504 235.498C58.8551 235.154 59.1152 234.894 59.4307 234.717C59.7406 234.54 60.0781 234.452 60.4434 234.452C60.8639 234.452 61.2347 234.532 61.5557 234.692C61.8766 234.847 62.145 235.074 62.3608 235.373C62.5711 235.672 62.7316 236.034 62.8423 236.46C62.9474 236.887 63 237.368 63 237.905ZM50.1089 222.416L50.1089 221.154C50.6512 221.154 51.0828 221.237 51.4038 221.403C51.7192 221.569 51.9627 221.796 52.1343 222.083C52.3058 222.366 52.4359 222.687 52.5244 223.046C52.613 223.401 52.6987 223.769 52.7817 224.15C52.8813 224.626 53.0391 225.069 53.2549 225.479C53.4652 225.882 53.764 226.231 54.1514 226.524C54.5387 226.812 55.0423 227.025 55.6621 227.164C56.2819 227.296 57.0483 227.332 57.9614 227.271L58.7251 227.271L58.7251 228.533L57.9614 228.533C56.9377 228.533 56.0439 228.436 55.2803 228.243C54.5166 228.043 53.8719 227.764 53.3462 227.404C52.8205 227.045 52.4027 226.618 52.0928 226.126C51.7829 225.628 51.5698 225.08 51.4536 224.482C51.3706 224.051 51.2821 223.68 51.188 223.37C51.0884 223.06 50.9556 222.825 50.7895 222.665C50.6235 222.499 50.3966 222.416 50.1089 222.416ZM54.5332 224.233C54.5332 223.647 54.6356 223.124 54.8403 222.665C55.0451 222.205 55.3301 221.815 55.6953 221.494C56.0605 221.173 56.4922 220.93 56.9902 220.764C57.4827 220.592 58.0195 220.506 58.6006 220.506L58.7832 220.506C59.4085 220.506 59.9896 220.598 60.5264 220.78C61.0576 220.957 61.5225 221.22 61.9209 221.569C62.3138 221.912 62.6209 222.333 62.8423 222.831C63.0636 223.323 63.1743 223.885 63.1743 224.516C63.1743 225.146 63.0636 225.711 62.8423 226.209C62.6209 226.701 62.3138 227.122 61.9209 227.471C61.5225 227.819 61.0576 228.085 60.5264 228.268C59.9896 228.445 59.4085 228.533 58.7832 228.533L58.6006 228.533C58.4622 228.533 58.3267 228.508 58.1938 228.458C58.061 228.409 57.9255 228.348 57.7871 228.276C57.6488 228.198 57.5021 228.129 57.3472 228.068C56.8491 227.864 56.387 227.584 55.9609 227.23C55.5348 226.87 55.1917 226.441 54.9316 225.943C54.666 225.44 54.5332 224.87 54.5332 224.233ZM55.7866 224.532C55.7866 225.097 55.9167 225.562 56.1768 225.927C56.4368 226.286 56.7827 226.555 57.2144 226.732C57.6405 226.909 58.1025 226.998 58.6006 226.998L58.7832 226.998C59.2038 226.998 59.6022 226.948 59.9785 226.848C60.3548 226.749 60.6896 226.599 60.9829 226.4C61.2707 226.195 61.4976 225.938 61.6636 225.628C61.8296 225.312 61.9126 224.942 61.9126 224.516C61.9126 224.09 61.8296 223.722 61.6636 223.412C61.4976 223.102 61.2707 222.847 60.9829 222.648C60.6896 222.449 60.3548 222.299 59.9785 222.2C59.6022 222.1 59.2038 222.05 58.7832 222.05L58.6006 222.05C58.2243 222.05 57.8673 222.1 57.5298 222.2C57.1922 222.299 56.8934 222.451 56.6333 222.656C56.3732 222.855 56.1685 223.113 56.019 223.428C55.8641 223.738 55.7866 224.106 55.7866 224.532ZM61.4644 213.467L56.8408 213.467C56.4866 213.467 56.1795 213.539 55.9194 213.683C55.6538 213.821 55.4491 214.032 55.3052 214.314C55.1613 214.596 55.0894 214.945 55.0894 215.36C55.0894 215.747 55.1558 216.088 55.2886 216.381C55.4214 216.669 55.5957 216.896 55.8115 217.062C56.0273 217.222 56.2598 217.302 56.5088 217.302L56.5088 218.838C56.1878 218.838 55.8696 218.755 55.5542 218.589C55.2388 218.423 54.9538 218.185 54.6992 217.875C54.4391 217.56 54.2344 217.183 54.085 216.746C53.93 216.303 53.8525 215.811 53.8525 215.269C53.8525 214.616 53.9632 214.04 54.1846 213.542C54.4059 213.038 54.7407 212.646 55.189 212.363C55.6317 212.076 56.1878 211.932 56.8574 211.932L61.041 211.932C61.3398 211.932 61.658 211.907 61.9956 211.857C62.3332 211.802 62.6237 211.721 62.8672 211.616L63 211.616L63 213.218C62.8229 213.296 62.5877 213.357 62.2944 213.401C61.9956 213.445 61.7189 213.467 61.4644 213.467ZM57.5547 213.202L58.6338 213.185L58.6338 214.737C58.6338 215.174 58.6698 215.565 58.7417 215.908C58.8081 216.251 58.9105 216.539 59.0488 216.771C59.1872 217.003 59.3615 217.18 59.5718 217.302C59.7765 217.424 60.0172 217.485 60.2939 217.485C60.5762 217.485 60.8335 217.421 61.0659 217.294C61.2983 217.167 61.4837 216.976 61.6221 216.721C61.7549 216.461 61.8213 216.143 61.8213 215.767C61.8213 215.296 61.7217 214.881 61.5225 214.521C61.3232 214.162 61.0797 213.877 60.792 213.667C60.5042 213.451 60.2248 213.334 59.9536 213.318L60.6924 212.662C60.9248 212.701 61.1821 212.806 61.4644 212.978C61.7466 213.149 62.0177 213.379 62.2778 213.667C62.5324 213.949 62.7454 214.286 62.917 214.679C63.083 215.067 63.166 215.504 63.166 215.991C63.166 216.599 63.047 217.133 62.8091 217.593C62.5711 218.047 62.2529 218.401 61.8545 218.655C61.4505 218.904 60.9995 219.029 60.5015 219.029C60.02 219.029 59.5967 218.935 59.2314 218.747C58.8607 218.558 58.5535 218.287 58.3101 217.933C58.061 217.579 57.8729 217.153 57.7456 216.655C57.6183 216.157 57.5547 215.601 57.5547 214.986L57.5547 213.202ZM54.0186 203.515L55.2886 203.515L55.2886 207.856L54.0186 207.856L54.0186 203.515ZM54.0186 202.162L63 202.162L63 203.697L54.0186 203.697L54.0186 202.162ZM54.0186 208.229L54.0186 206.686L58.3516 206.918C59.0212 206.957 59.6133 207.02 60.1279 207.109C60.637 207.192 61.0742 207.308 61.4394 207.458C61.8047 207.601 62.1035 207.784 62.3359 208.005C62.5628 208.221 62.7316 208.481 62.8423 208.786C62.9474 209.09 63 209.441 63 209.84L63 210.321L61.647 210.321L61.6221 209.989C61.6055 209.751 61.5501 209.549 61.4561 209.383C61.362 209.212 61.2236 209.068 61.041 208.952C60.8529 208.835 60.6121 208.741 60.3188 208.669C60.0255 208.592 59.6769 208.534 59.2729 208.495C58.869 208.451 58.3986 208.418 57.8618 208.396L54.0186 208.229ZM54.0185 193.687L55.2886 193.687L55.2886 198.028L54.0186 198.028L54.0185 193.687ZM54.0185 192.333L63 192.333L63 193.869L54.0185 193.869L54.0185 192.333ZM54.0186 198.401L54.0185 196.857L58.3516 197.09C59.0212 197.129 59.6133 197.192 60.1279 197.281C60.637 197.364 61.0742 197.48 61.4394 197.629C61.8047 197.773 62.1035 197.956 62.3359 198.177C62.5628 198.393 62.7316 198.653 62.8423 198.958C62.9474 199.262 63 199.613 63 200.012L63 200.493L61.647 200.493L61.6221 200.161C61.6055 199.923 61.5501 199.721 61.4561 199.555C61.362 199.384 61.2236 199.24 61.041 199.124C60.8529 199.007 60.6121 198.913 60.3188 198.841C60.0255 198.764 59.6769 198.706 59.2729 198.667C58.869 198.623 58.3986 198.59 57.8618 198.567L54.0186 198.401ZM61.4644 184.564L56.8408 184.564C56.4866 184.564 56.1795 184.636 55.9194 184.78C55.6538 184.918 55.4491 185.128 55.3052 185.411C55.1613 185.693 55.0894 186.042 55.0894 186.457C55.0894 186.844 55.1558 187.184 55.2886 187.478C55.4214 187.765 55.5957 187.992 55.8115 188.158C56.0273 188.319 56.2598 188.399 56.5088 188.399L56.5088 189.935C56.1878 189.935 55.8696 189.852 55.5542 189.686C55.2388 189.52 54.9538 189.282 54.6992 188.972C54.4391 188.656 54.2344 188.28 54.085 187.843C53.93 187.4 53.8525 186.908 53.8525 186.365C53.8525 185.712 53.9632 185.137 54.1846 184.639C54.4059 184.135 54.7407 183.742 55.189 183.46C55.6317 183.172 56.1878 183.028 56.8574 183.028L61.041 183.028C61.3398 183.028 61.658 183.003 61.9956 182.954C62.3332 182.898 62.6237 182.818 62.8672 182.713L63 182.713L63 184.315C62.8229 184.392 62.5877 184.453 62.2944 184.498C61.9956 184.542 61.7189 184.564 61.4644 184.564ZM57.5547 184.298L58.6338 184.282L58.6338 185.834C58.6338 186.271 58.6698 186.661 58.7417 187.004C58.8081 187.347 58.9105 187.635 59.0488 187.868C59.1872 188.1 59.3615 188.277 59.5718 188.399C59.7765 188.521 60.0172 188.582 60.2939 188.582C60.5762 188.582 60.8335 188.518 61.0659 188.391C61.2983 188.263 61.4837 188.072 61.6221 187.818C61.7549 187.558 61.8213 187.24 61.8213 186.863C61.8213 186.393 61.7217 185.978 61.5225 185.618C61.3232 185.258 61.0797 184.973 60.792 184.763C60.5042 184.547 60.2248 184.431 59.9536 184.415L60.6924 183.759C60.9248 183.798 61.1821 183.903 61.4644 184.074C61.7466 184.246 62.0177 184.475 62.2778 184.763C62.5324 185.045 62.7454 185.383 62.917 185.776C63.083 186.163 63.166 186.6 63.166 187.087C63.166 187.696 63.047 188.23 62.8091 188.689C62.5711 189.143 62.2529 189.497 61.8545 189.752C61.4505 190.001 60.9995 190.125 60.5015 190.125C60.02 190.125 59.5967 190.031 59.2314 189.843C58.8607 189.655 58.5535 189.384 58.3101 189.03C58.061 188.676 57.8729 188.25 57.7456 187.751C57.6183 187.253 57.5547 186.697 57.5547 186.083L57.5547 184.298ZM54.0185 179.575L57.2891 177.608L54.0185 175.616L54.0185 173.814L58.4512 176.753L63 173.723L63 175.5L59.6299 177.575L63 179.65L63 181.435L58.4512 178.413L54.0185 181.343L54.0185 179.575Z" fill="#4B4B4B"></path> <path d="M118 286H643M118 218.5H643M118 149.5H643M118 82H643" stroke="#A6A6A6" stroke-opacity="0.26" stroke-dasharray="6 6"></path> <path d="M291.061 159.939C290.475 159.354 289.525 159.354 288.939 159.939L279.393 169.485C278.808 170.071 278.808 171.021 279.393 171.607C279.979 172.192 280.929 172.192 281.515 171.607L290 163.121L298.485 171.607C299.071 172.192 300.021 172.192 300.607 171.607C301.192 171.021 301.192 170.071 300.607 169.485L291.061 159.939ZM291.5 220L291.5 161L288.5 161L288.5 220L291.5 220Z" fill="white"></path> </svg> 