<?xml version="1.0" encoding="UTF-8"?> <svg xmlns="http://www.w3.org/2000/svg" width="708" height="424" viewBox="0 0 708 424" fill="none"> <rect width="708" height="424" fill="white"></rect> <line x1="121.262" y1="357.201" x2="667.999" y2="357.201" stroke="#A6A6A6" stroke-opacity="0.26" stroke-width="2"></line> <line x1="110.498" y1="289.194" x2="121.208" y2="289.194" stroke="#A6A6A6" stroke-opacity="0.26" stroke-width="2"></line> <line x1="109.84" y1="357.201" x2="120.55" y2="357.201" stroke="#A6A6A6" stroke-opacity="0.26" stroke-width="2"></line> <line x1="110.498" y1="223.684" x2="121.208" y2="223.684" stroke="#A6A6A6" stroke-opacity="0.26" stroke-width="2"></line> <line x1="110.498" y1="157.685" x2="121.208" y2="157.685" stroke="#A6A6A6" stroke-opacity="0.26" stroke-width="2"></line> <line x1="110.498" y1="92.5808" x2="121.208" y2="92.5808" stroke="#A6A6A6" stroke-opacity="0.26" stroke-width="2"></line> <path d="M106.126 354.274V355.792C106.126 356.607 106.053 357.295 105.907 357.856C105.762 358.417 105.552 358.868 105.279 359.209C105.005 359.551 104.675 359.8 104.287 359.955C103.904 360.105 103.472 360.18 102.988 360.18C102.606 360.18 102.252 360.132 101.929 360.037C101.605 359.941 101.314 359.788 101.054 359.579C100.799 359.364 100.58 359.086 100.398 358.745C100.215 358.403 100.076 357.988 99.9807 357.5C99.8849 357.013 99.8371 356.443 99.8371 355.792V354.274C99.8371 353.458 99.91 352.775 100.056 352.223C100.206 351.672 100.418 351.23 100.692 350.897C100.965 350.56 101.293 350.318 101.676 350.172C102.063 350.027 102.496 349.954 102.975 349.954C103.362 349.954 103.718 350.001 104.041 350.097C104.369 350.188 104.661 350.336 104.916 350.542C105.171 350.742 105.388 351.011 105.566 351.348C105.748 351.681 105.887 352.089 105.983 352.572C106.078 353.055 106.126 353.622 106.126 354.274ZM104.855 355.997V354.062C104.855 353.615 104.827 353.223 104.773 352.886C104.723 352.544 104.647 352.253 104.547 352.011C104.447 351.77 104.319 351.574 104.164 351.423C104.014 351.273 103.838 351.164 103.638 351.095C103.442 351.022 103.221 350.986 102.975 350.986C102.674 350.986 102.407 351.043 102.175 351.157C101.943 351.266 101.747 351.442 101.587 351.683C101.432 351.925 101.314 352.241 101.232 352.633C101.15 353.025 101.109 353.501 101.109 354.062V355.997C101.109 356.443 101.134 356.837 101.184 357.179C101.238 357.521 101.318 357.817 101.423 358.068C101.528 358.314 101.655 358.517 101.806 358.676C101.956 358.836 102.129 358.954 102.325 359.032C102.526 359.105 102.747 359.141 102.988 359.141C103.298 359.141 103.57 359.082 103.802 358.963C104.034 358.845 104.228 358.66 104.383 358.41C104.543 358.154 104.661 357.829 104.738 357.432C104.816 357.031 104.855 356.553 104.855 355.997Z" fill="#454545"></path> <path d="M95.492 287.203V288.721C95.492 289.537 95.4191 290.225 95.2733 290.785C95.1274 291.346 94.9178 291.797 94.6444 292.139C94.3709 292.481 94.0405 292.729 93.6532 292.884C93.2703 293.034 92.8374 293.11 92.3543 293.11C91.9715 293.11 91.6183 293.062 91.2948 292.966C90.9712 292.87 90.6795 292.718 90.4198 292.508C90.1645 292.294 89.9458 292.016 89.7635 291.674C89.5812 291.332 89.4422 290.918 89.3465 290.43C89.2508 289.942 89.203 289.373 89.203 288.721V287.203C89.203 286.388 89.2759 285.704 89.4217 285.153C89.5721 284.601 89.784 284.159 90.0575 283.826C90.3309 283.489 90.659 283.248 91.0418 283.102C91.4292 282.956 91.8621 282.883 92.3407 282.883C92.728 282.883 93.0835 282.931 93.4071 283.027C93.7352 283.118 94.0269 283.266 94.2821 283.471C94.5373 283.671 94.7537 283.94 94.9315 284.278C95.1138 284.61 95.2528 285.018 95.3485 285.501C95.4442 285.984 95.492 286.552 95.492 287.203ZM94.2205 288.926V286.991C94.2205 286.545 94.1932 286.153 94.1385 285.816C94.0884 285.474 94.0132 285.182 93.9129 284.941C93.8127 284.699 93.6851 284.503 93.5301 284.353C93.3797 284.202 93.2043 284.093 93.0037 284.025C92.8078 283.952 92.5868 283.915 92.3407 283.915C92.0399 283.915 91.7733 283.972 91.5409 284.086C91.3084 284.196 91.1125 284.371 90.953 284.613C90.798 284.854 90.6795 285.171 90.5975 285.563C90.5155 285.955 90.4744 286.431 90.4744 286.991V288.926C90.4744 289.373 90.4995 289.767 90.5496 290.109C90.6043 290.45 90.6841 290.747 90.7889 290.997C90.8937 291.243 91.0213 291.446 91.1717 291.606C91.3221 291.765 91.4953 291.884 91.6912 291.961C91.8918 292.034 92.1128 292.071 92.3543 292.071C92.6642 292.071 92.9354 292.011 93.1678 291.893C93.4002 291.774 93.5939 291.59 93.7489 291.339C93.9084 291.084 94.0269 290.758 94.1043 290.362C94.1818 289.961 94.2205 289.482 94.2205 288.926ZM98.4041 291.469V292.488C98.4041 292.902 98.2993 293.34 98.0897 293.8C97.88 294.265 97.5861 294.652 97.2078 294.962L96.4901 294.463C96.6359 294.263 96.759 294.058 96.8592 293.848C96.9595 293.643 97.0347 293.429 97.0848 293.205C97.1395 292.987 97.1668 292.754 97.1668 292.508V291.469H98.4041ZM101.48 288.236L100.469 287.976L100.968 283.02H106.074V284.189H102.041L101.74 286.896C101.922 286.791 102.153 286.693 102.431 286.602C102.713 286.511 103.037 286.465 103.401 286.465C103.861 286.465 104.274 286.545 104.639 286.704C105.003 286.859 105.313 287.083 105.568 287.374C105.828 287.666 106.026 288.017 106.163 288.427C106.3 288.837 106.368 289.295 106.368 289.801C106.368 290.28 106.302 290.719 106.17 291.12C106.042 291.521 105.848 291.872 105.589 292.173C105.329 292.469 105.001 292.699 104.604 292.864C104.212 293.028 103.75 293.11 103.217 293.11C102.816 293.11 102.435 293.055 102.075 292.946C101.72 292.832 101.401 292.661 101.118 292.433C100.84 292.2 100.612 291.913 100.434 291.572C100.261 291.225 100.152 290.82 100.106 290.355H101.309C101.364 290.728 101.473 291.043 101.638 291.298C101.802 291.553 102.016 291.747 102.28 291.879C102.549 292.007 102.861 292.071 103.217 292.071C103.517 292.071 103.784 292.018 104.016 291.913C104.249 291.809 104.445 291.658 104.604 291.462C104.764 291.266 104.885 291.029 104.967 290.751C105.053 290.473 105.097 290.161 105.097 289.815C105.097 289.5 105.053 289.209 104.967 288.94C104.88 288.671 104.75 288.436 104.577 288.236C104.408 288.035 104.201 287.88 103.955 287.771C103.709 287.657 103.426 287.6 103.107 287.6C102.683 287.6 102.362 287.657 102.143 287.771C101.929 287.885 101.708 288.04 101.48 288.236Z" fill="#454545"></path> <path d="M93.3983 217.454V227.462H92.1337V219.033L89.5838 219.963V218.821L93.2001 217.454H93.3983ZM98.4022 225.958V226.977C98.4022 227.391 98.2974 227.829 98.0878 228.289C97.8781 228.754 97.5842 229.141 97.2059 229.451L96.4881 228.952C96.634 228.752 96.757 228.547 96.8573 228.337C96.9575 228.132 97.0327 227.918 97.0829 227.694C97.1376 227.476 97.1649 227.243 97.1649 226.997V225.958H98.4022ZM106.127 221.692V223.21C106.127 224.026 106.054 224.714 105.908 225.274C105.762 225.835 105.553 226.286 105.279 226.628C105.006 226.97 104.675 227.218 104.288 227.373C103.905 227.523 103.472 227.599 102.989 227.599C102.606 227.599 102.253 227.551 101.93 227.455C101.606 227.359 101.314 227.207 101.055 226.997C100.799 226.783 100.581 226.505 100.398 226.163C100.216 225.821 100.077 225.407 99.9813 224.919C99.8856 224.431 99.8378 223.862 99.8378 223.21V221.692C99.8378 220.877 99.9107 220.193 100.057 219.642C100.207 219.09 100.419 218.648 100.692 218.315C100.966 217.978 101.294 217.737 101.677 217.591C102.064 217.445 102.497 217.372 102.975 217.372C103.363 217.372 103.718 217.42 104.042 217.516C104.37 217.607 104.662 217.755 104.917 217.96C105.172 218.16 105.389 218.429 105.566 218.767C105.749 219.099 105.888 219.507 105.983 219.99C106.079 220.473 106.127 221.041 106.127 221.692ZM104.855 223.415V221.48C104.855 221.034 104.828 220.642 104.773 220.305C104.723 219.963 104.648 219.671 104.548 219.43C104.447 219.188 104.32 218.992 104.165 218.842C104.015 218.691 103.839 218.582 103.639 218.514C103.443 218.441 103.222 218.404 102.975 218.404C102.675 218.404 102.408 218.461 102.176 218.575C101.943 218.685 101.747 218.86 101.588 219.102C101.433 219.343 101.314 219.66 101.232 220.052C101.15 220.444 101.109 220.92 101.109 221.48V223.415C101.109 223.862 101.134 224.256 101.184 224.598C101.239 224.939 101.319 225.236 101.424 225.486C101.529 225.732 101.656 225.935 101.807 226.095C101.957 226.254 102.13 226.373 102.326 226.45C102.527 226.523 102.748 226.56 102.989 226.56C103.299 226.56 103.57 226.5 103.803 226.382C104.035 226.263 104.229 226.079 104.384 225.828C104.543 225.573 104.662 225.247 104.739 224.851C104.817 224.45 104.855 223.971 104.855 223.415Z" fill="#454545"></path> <path d="M93.3978 151.943V161.951H92.1332V153.522L89.5834 154.452V153.311L93.1996 151.943H93.3978ZM98.4017 160.447V161.466C98.4017 161.881 98.2969 162.318 98.0873 162.778C97.8776 163.243 97.5837 163.631 97.2054 163.94L96.4877 163.441C96.6335 163.241 96.7566 163.036 96.8568 162.826C96.9571 162.621 97.0323 162.407 97.0824 162.184C97.1371 161.965 97.1644 161.732 97.1644 161.486V160.447H98.4017ZM101.478 157.214L100.466 156.954L100.965 151.998H106.072V153.167H102.038L101.738 155.874C101.92 155.769 102.15 155.671 102.428 155.58C102.711 155.489 103.034 155.443 103.399 155.443C103.859 155.443 104.272 155.523 104.636 155.683C105.001 155.838 105.311 156.061 105.566 156.353C105.826 156.644 106.024 156.995 106.161 157.405C106.297 157.815 106.366 158.273 106.366 158.779C106.366 159.258 106.3 159.698 106.167 160.099C106.04 160.5 105.846 160.851 105.586 161.151C105.327 161.448 104.998 161.678 104.602 161.842C104.21 162.006 103.747 162.088 103.214 162.088C102.813 162.088 102.433 162.033 102.073 161.924C101.717 161.81 101.398 161.639 101.116 161.411C100.838 161.179 100.61 160.892 100.432 160.55C100.259 160.203 100.149 159.798 100.104 159.333H101.307C101.362 159.707 101.471 160.021 101.635 160.276C101.799 160.532 102.013 160.725 102.278 160.857C102.547 160.985 102.859 161.049 103.214 161.049C103.515 161.049 103.782 160.996 104.014 160.892C104.246 160.787 104.442 160.636 104.602 160.44C104.761 160.244 104.882 160.007 104.964 159.729C105.051 159.451 105.094 159.139 105.094 158.793C105.094 158.479 105.051 158.187 104.964 157.918C104.878 157.649 104.748 157.414 104.575 157.214C104.406 157.013 104.199 156.858 103.953 156.749C103.706 156.635 103.424 156.578 103.105 156.578C102.681 156.578 102.36 156.635 102.141 156.749C101.927 156.863 101.706 157.018 101.478 157.214Z" fill="#454545"></path> <path d="M95.7631 96.9609V98H89.2484V97.0908L92.5092 93.4609C92.9102 93.0143 93.2201 92.6361 93.4388 92.3262C93.6622 92.0117 93.8171 91.7314 93.9037 91.4854C93.9948 91.2347 94.0404 90.9795 94.0404 90.7197C94.0404 90.3916 93.972 90.0954 93.8353 89.8311C93.7032 89.5622 93.5072 89.348 93.2474 89.1885C92.9877 89.029 92.6732 88.9492 92.3041 88.9492C91.862 88.9492 91.4929 89.0358 91.1967 89.209C90.905 89.3776 90.6862 89.6146 90.5404 89.9199C90.3946 90.2253 90.3217 90.5762 90.3217 90.9727H89.057C89.057 90.4121 89.1801 89.8994 89.4261 89.4346C89.6722 88.9697 90.0368 88.6006 90.5199 88.3271C91.003 88.0492 91.5977 87.9102 92.3041 87.9102C92.933 87.9102 93.4707 88.0218 93.9174 88.2451C94.364 88.4639 94.7058 88.7738 94.9427 89.1748C95.1843 89.5713 95.3051 90.0361 95.3051 90.5693C95.3051 90.861 95.2549 91.1572 95.1547 91.458C95.059 91.7542 94.9245 92.0505 94.7513 92.3467C94.5827 92.6429 94.3845 92.9346 94.1566 93.2217C93.9333 93.5088 93.6941 93.7913 93.4388 94.0693L90.7728 96.9609H95.7631ZM98.4017 96.4961V97.5146C98.4017 97.9294 98.2969 98.3669 98.0873 98.8271C97.8776 99.292 97.5837 99.6794 97.2054 99.9893L96.4877 99.4902C96.6335 99.2897 96.7566 99.0846 96.8568 98.875C96.9571 98.6699 97.0323 98.4557 97.0824 98.2324C97.1371 98.0137 97.1644 97.7812 97.1644 97.5352V96.4961H98.4017ZM106.126 92.2305V93.748C106.126 94.5638 106.053 95.252 105.908 95.8125C105.762 96.373 105.552 96.8242 105.279 97.166C105.005 97.5078 104.675 97.7562 104.287 97.9111C103.905 98.0615 103.472 98.1367 102.989 98.1367C102.606 98.1367 102.253 98.0889 101.929 97.9932C101.606 97.8975 101.314 97.7448 101.054 97.5352C100.799 97.321 100.58 97.043 100.398 96.7012C100.216 96.3594 100.077 95.9447 99.9808 95.457C99.8851 94.9694 99.8373 94.3997 99.8373 93.748V92.2305C99.8373 91.4147 99.9102 90.7311 100.056 90.1797C100.206 89.6283 100.418 89.1862 100.692 88.8535C100.965 88.5163 101.293 88.2747 101.676 88.1289C102.064 87.9831 102.496 87.9102 102.975 87.9102C103.362 87.9102 103.718 87.958 104.041 88.0537C104.37 88.1449 104.661 88.293 104.916 88.498C105.172 88.6986 105.388 88.9674 105.566 89.3047C105.748 89.6374 105.887 90.0452 105.983 90.5283C106.078 91.0114 106.126 91.5788 106.126 92.2305ZM104.855 93.9531V92.0186C104.855 91.5719 104.828 91.18 104.773 90.8428C104.723 90.501 104.648 90.2093 104.547 89.9678C104.447 89.7262 104.319 89.5303 104.164 89.3799C104.014 89.2295 103.839 89.1201 103.638 89.0518C103.442 88.9788 103.221 88.9424 102.975 88.9424C102.674 88.9424 102.408 88.9993 102.175 89.1133C101.943 89.2227 101.747 89.3981 101.587 89.6396C101.432 89.8812 101.314 90.1979 101.232 90.5898C101.15 90.9818 101.109 91.458 101.109 92.0186V93.9531C101.109 94.3997 101.134 94.7939 101.184 95.1357C101.239 95.4775 101.318 95.7738 101.423 96.0244C101.528 96.2705 101.656 96.4733 101.806 96.6328C101.956 96.7923 102.13 96.9108 102.326 96.9883C102.526 97.0612 102.747 97.0977 102.989 97.0977C103.299 97.0977 103.57 97.0384 103.802 96.9199C104.035 96.8014 104.228 96.6169 104.383 96.3662C104.543 96.111 104.661 95.7852 104.739 95.3887C104.816 94.9876 104.855 94.5091 104.855 93.9531Z" fill="#454545"></path> <line x1="120.408" y1="93.0381" x2="120.408" y2="358.201" stroke="#A6A6A6" stroke-opacity="0.26" stroke-width="2"></line> <path d="M38.2275 356.853L28.9141 350.901L28.9141 349.299L41 349.299L41 350.901L31.6782 350.901L41 356.853L41 358.446L28.9141 358.446L28.9141 356.853L38.2275 356.853ZM36.7085 343.264L36.7085 344.916L35.7622 344.916L35.7622 343.389C35.7622 342.963 35.7096 342.625 35.6045 342.376C35.4938 342.127 35.3416 341.95 35.1479 341.845C34.9543 341.74 34.7274 341.687 34.4673 341.687C34.2349 341.687 34.0163 341.748 33.8115 341.87C33.6012 341.986 33.4325 342.174 33.3052 342.434C33.1724 342.694 33.106 343.043 33.106 343.48C33.106 343.834 33.1696 344.155 33.2969 344.443C33.4186 344.731 33.5874 344.96 33.8032 345.132C34.0135 345.298 34.2515 345.381 34.5171 345.381L34.5171 346.917C33.9692 346.917 33.4989 346.762 33.106 346.452C32.7075 346.136 32.4004 345.718 32.1846 345.198C31.9687 344.673 31.8608 344.1 31.8608 343.48C31.8608 342.96 31.9189 342.495 32.0352 342.085C32.1458 341.67 32.3118 341.319 32.5332 341.031C32.749 340.743 33.0202 340.525 33.3467 340.375C33.6676 340.221 34.0412 340.143 34.4673 340.143C34.7716 340.143 35.0594 340.215 35.3306 340.359C35.6017 340.503 35.8424 340.71 36.0527 340.981C36.2575 341.253 36.418 341.582 36.5342 341.969C36.6504 342.351 36.7085 342.783 36.7085 343.264ZM36.1274 344.916L36.1274 343.264C36.1274 342.727 36.18 342.254 36.2852 341.845C36.3848 341.435 36.5342 341.092 36.7334 340.815C36.9326 340.539 37.1789 340.331 37.4722 340.193C37.7599 340.049 38.092 339.977 38.4683 339.977C38.8888 339.977 39.2679 340.063 39.6055 340.234C39.9375 340.4 40.2197 340.638 40.4521 340.948C40.6846 341.258 40.8617 341.629 40.9834 342.061C41.1051 342.487 41.166 342.96 41.166 343.48C41.166 344.061 41.0664 344.625 40.8672 345.173C40.668 345.721 40.3608 346.172 39.9458 346.526C39.5252 346.881 38.9912 347.058 38.3437 347.058L38.3437 345.522C38.6149 345.522 38.8722 345.436 39.1157 345.265C39.3592 345.093 39.5557 344.855 39.7051 344.551C39.8545 344.241 39.9292 343.884 39.9292 343.48C39.9292 343.048 39.8628 342.689 39.73 342.401C39.5972 342.113 39.4201 341.897 39.1987 341.753C38.9774 341.604 38.7367 341.529 38.4766 341.529C38.139 341.529 37.8678 341.596 37.6631 341.729C37.4583 341.861 37.3089 342.066 37.2148 342.343C37.1152 342.614 37.0654 342.963 37.0654 343.389L37.0654 344.916L36.1274 344.916ZM38.958 332.822L32.0186 329.767L32.0186 328.29L41 332.291L41 333.353L32.0186 337.337L32.0186 335.86L38.958 332.822ZM32.0186 336.308L41 336.308L41 337.844L32.0186 337.844L32.0186 336.308ZM41 329.385L32.0186 329.385L32.0186 327.841L41 327.841L41 329.385ZM41.166 321.641C41.166 322.266 41.0609 322.833 40.8506 323.342C40.6348 323.846 40.3332 324.28 39.9458 324.646C39.5584 325.005 39.0991 325.282 38.5679 325.476C38.0366 325.669 37.4556 325.766 36.8247 325.766L36.4761 325.766C35.7456 325.766 35.0954 325.658 34.5254 325.442C33.9499 325.227 33.4629 324.933 33.0645 324.562C32.666 324.192 32.3644 323.771 32.1597 323.301C31.9549 322.83 31.8525 322.343 31.8525 321.84C31.8525 321.198 31.9632 320.645 32.1846 320.18C32.4059 319.709 32.7158 319.325 33.1143 319.026C33.5072 318.727 33.972 318.506 34.5088 318.362C35.04 318.218 35.6211 318.146 36.252 318.146L36.9409 318.146L36.9409 324.853L35.6875 324.853L35.6875 319.682L35.5713 319.682C35.1728 319.704 34.7855 319.787 34.4092 319.931C34.0329 320.069 33.723 320.29 33.4795 320.595C33.236 320.899 33.1143 321.314 33.1143 321.84C33.1143 322.188 33.189 322.509 33.3384 322.803C33.4823 323.096 33.6981 323.348 33.9858 323.558C34.2736 323.768 34.625 323.932 35.04 324.048C35.4551 324.164 35.9338 324.222 36.4761 324.222L36.8247 324.222C37.2508 324.222 37.652 324.164 38.0283 324.048C38.3991 323.926 38.7256 323.752 39.0078 323.525C39.29 323.292 39.5114 323.013 39.6719 322.687C39.8324 322.354 39.9126 321.978 39.9126 321.558C39.9126 321.015 39.8019 320.556 39.5806 320.18C39.3592 319.803 39.0631 319.474 38.6924 319.192L39.4312 318.262C39.7244 318.456 40.0039 318.702 40.2695 319.001C40.5352 319.3 40.751 319.668 40.917 320.105C41.083 320.537 41.166 321.049 41.166 321.641ZM35.9116 310.26L37.1567 310.26L37.1567 315.008L35.9116 315.008L35.9116 310.26ZM32.0186 314.685L41 314.685L41 316.22L32.0186 316.22L32.0186 314.685ZM32.0186 309.015L41 309.015L41 310.559L32.0186 310.559L32.0186 309.015ZM41.166 302.814C41.166 303.44 41.0609 304.007 40.8506 304.516C40.6348 305.02 40.3332 305.454 39.9458 305.819C39.5584 306.179 39.0991 306.456 38.5679 306.649C38.0366 306.843 37.4556 306.94 36.8247 306.94L36.4761 306.94C35.7456 306.94 35.0954 306.832 34.5254 306.616C33.9499 306.4 33.4629 306.107 33.0645 305.736C32.666 305.366 32.3644 304.945 32.1597 304.475C31.9549 304.004 31.8525 303.517 31.8525 303.014C31.8525 302.372 31.9632 301.818 32.1846 301.354C32.4059 300.883 32.7158 300.499 33.1143 300.2C33.5072 299.901 33.972 299.68 34.5088 299.536C35.04 299.392 35.6211 299.32 36.252 299.32L36.9409 299.32L36.9409 306.027L35.6875 306.027L35.6875 300.855L35.5713 300.855C35.1728 300.878 34.7855 300.961 34.4092 301.104C34.0329 301.243 33.723 301.464 33.4795 301.769C33.236 302.073 33.1143 302.488 33.1143 303.014C33.1143 303.362 33.189 303.683 33.3384 303.977C33.4823 304.27 33.6981 304.522 33.9858 304.732C34.2736 304.942 34.625 305.105 35.04 305.222C35.4551 305.338 35.9338 305.396 36.4761 305.396L36.8247 305.396C37.2508 305.396 37.652 305.338 38.0283 305.222C38.3991 305.1 38.7256 304.926 39.0078 304.699C39.29 304.466 39.5114 304.187 39.6719 303.86C39.8324 303.528 39.9126 303.152 39.9126 302.731C39.9126 302.189 39.8019 301.73 39.5806 301.354C39.3592 300.977 39.0631 300.648 38.6924 300.366L39.4311 299.436C39.7244 299.63 40.0039 299.876 40.2695 300.175C40.5352 300.474 40.751 300.842 40.917 301.279C41.083 301.71 41.166 302.222 41.166 302.814ZM35.9116 291.434L37.1567 291.434L37.1567 296.182L35.9116 296.182L35.9116 291.434ZM32.0186 295.858L41 295.858L41 297.394L32.0186 297.394L32.0186 295.858ZM32.0186 290.189L41 290.189L41 291.733L32.0186 291.733L32.0186 290.189ZM38.5679 286.055L32.0186 281.913L32.0186 280.369L41 280.369L41 281.913L34.4507 281.913L41 286.055L41 287.583L32.0186 287.583L32.0186 286.055L38.5679 286.055ZM36.7168 276.086L36.7168 274.426L41 277.024L41 278.684L36.7168 276.086ZM32.0186 274.799L32.0186 271.047L41 271.047L41 272.583L33.2637 272.583L33.2637 274.799C33.2637 275.236 33.3384 275.593 33.4878 275.87C33.6317 276.147 33.8198 276.349 34.0522 276.476C34.2847 276.603 34.5254 276.667 34.7744 276.667C35.0179 276.667 35.2531 276.609 35.48 276.493C35.7013 276.376 35.8839 276.194 36.0278 275.945C36.1717 275.696 36.2436 275.375 36.2436 274.982L36.2436 272.168L37.5054 272.168L37.5054 274.982C37.5054 275.497 37.4362 275.953 37.2978 276.352C37.1595 276.75 36.9686 277.088 36.7251 277.364C36.4761 277.641 36.1855 277.851 35.8535 277.995C35.5159 278.139 35.1507 278.211 34.7578 278.211C34.3649 278.211 34.0024 278.136 33.6704 277.987C33.3384 277.832 33.0478 277.611 32.7988 277.323C32.5498 277.029 32.3589 276.673 32.2261 276.252C32.0877 275.826 32.0186 275.342 32.0186 274.799ZM37.0488 260.14L37.0488 263.087L35.8203 263.104L35.8203 260.696C35.8203 260.22 35.7733 259.825 35.6792 259.509C35.5851 259.188 35.444 258.948 35.2559 258.787C35.0677 258.627 34.8353 258.546 34.5586 258.546C34.3428 258.546 34.1546 258.593 33.9941 258.687C33.8281 258.776 33.6925 258.912 33.5874 259.094C33.4767 259.277 33.3965 259.504 33.3467 259.775C33.2913 260.041 33.2637 260.353 33.2637 260.713L33.2637 262.68L41 262.68L41 264.216L32.0186 264.216L32.0186 260.713C32.0186 260.143 32.0684 259.631 32.168 259.177C32.2676 258.718 32.4198 258.328 32.6245 258.007C32.8237 257.68 33.0783 257.431 33.3882 257.26C33.6981 257.088 34.0633 257.002 34.4839 257.002C34.755 257.002 35.0124 257.058 35.2559 257.168C35.4993 257.279 35.7152 257.442 35.9033 257.658C36.0915 257.874 36.2464 258.14 36.3682 258.455C36.4844 258.771 36.5591 259.133 36.5923 259.542L37.0488 260.14ZM41 260.14L41 263.643L39.7549 262.879L39.7549 260.14C39.7549 259.714 39.7023 259.36 39.5972 259.078C39.4865 258.795 39.3315 258.585 39.1323 258.447C38.9276 258.303 38.6841 258.231 38.4019 258.231C38.1196 258.231 37.8789 258.303 37.6797 258.447C37.4749 258.585 37.32 258.795 37.2148 259.078C37.1042 259.36 37.0488 259.714 37.0488 260.14L37.0488 262.473L35.8203 262.456L35.8203 259.542L36.2852 258.986C36.3239 258.494 36.4456 258.076 36.6504 257.733C36.8551 257.39 37.1152 257.13 37.4307 256.953C37.7406 256.776 38.0781 256.687 38.4434 256.687C38.8639 256.687 39.2347 256.767 39.5557 256.928C39.8766 257.083 40.145 257.31 40.3608 257.608C40.5711 257.907 40.7316 258.27 40.8423 258.696C40.9474 259.122 41 259.603 41 260.14ZM32.0185 250.279L32.0185 248.743L39.7383 248.743L39.7383 245.456L32.0185 245.456L32.0185 243.912L39.7383 243.912L39.7383 240.633L32.0185 240.633L32.0185 239.098L41 239.098L41 250.279L32.0185 250.279ZM32.0185 234.98L41 234.98L41 236.516L32.0185 236.516L32.0185 234.98ZM32.0185 229.087L37.165 233.345L37.165 235.495L35.8203 235.728L35.8203 233.968L32.0185 230.955L32.0185 229.087ZM41 230.739L36.9326 234.042L35.8203 233.055L41 228.788L41 230.739ZM39.4643 222.156L34.8408 222.156C34.4866 222.156 34.1795 222.228 33.9194 222.372C33.6538 222.51 33.449 222.72 33.3052 223.002C33.1613 223.285 33.0893 223.633 33.0893 224.048C33.0893 224.436 33.1558 224.776 33.2886 225.069C33.4214 225.357 33.5957 225.584 33.8115 225.75C34.0273 225.91 34.2598 225.991 34.5088 225.991L34.5088 227.526C34.1878 227.526 33.8696 227.443 33.5542 227.277C33.2388 227.111 32.9538 226.873 32.6992 226.563C32.4391 226.248 32.2344 225.872 32.085 225.435C31.93 224.992 31.8525 224.499 31.8525 223.957C31.8525 223.304 31.9632 222.729 32.1846 222.23C32.4059 221.727 32.7407 221.334 33.189 221.052C33.6317 220.764 34.1878 220.62 34.8574 220.62L39.041 220.62C39.3398 220.62 39.658 220.595 39.9956 220.545C40.3332 220.49 40.6237 220.41 40.8672 220.305L41 220.305L41 221.907C40.8229 221.984 40.5877 222.045 40.2944 222.089C39.9956 222.134 39.7189 222.156 39.4643 222.156ZM35.5547 221.89L36.6338 221.874L36.6338 223.426C36.6338 223.863 36.6698 224.253 36.7417 224.596C36.8081 224.939 36.9105 225.227 37.0488 225.459C37.1872 225.692 37.3615 225.869 37.5718 225.991C37.7765 226.112 38.0172 226.173 38.2939 226.173C38.5762 226.173 38.8335 226.11 39.0659 225.982C39.2983 225.855 39.4837 225.664 39.6221 225.41C39.7549 225.15 39.8213 224.831 39.8213 224.455C39.8213 223.985 39.7217 223.57 39.5225 223.21C39.3232 222.85 39.0797 222.565 38.792 222.355C38.5042 222.139 38.2248 222.023 37.9536 222.006L38.6924 221.351C38.9248 221.389 39.1821 221.494 39.4643 221.666C39.7466 221.838 40.0177 222.067 40.2778 222.355C40.5324 222.637 40.7454 222.975 40.917 223.368C41.083 223.755 41.166 224.192 41.166 224.679C41.166 225.288 41.047 225.822 40.8091 226.281C40.5711 226.735 40.2529 227.089 39.8545 227.344C39.4505 227.593 38.9995 227.717 38.5015 227.717C38.02 227.717 37.5967 227.623 37.2314 227.435C36.8607 227.247 36.5535 226.976 36.3101 226.622C36.061 226.267 35.8729 225.841 35.7456 225.343C35.6183 224.845 35.5547 224.289 35.5547 223.675L35.5547 221.89ZM32.0185 212.203L33.2886 212.203L33.2886 216.544L32.0185 216.544L32.0185 212.203ZM32.0185 210.85L41 210.85L41 212.386L32.0185 212.386L32.0185 210.85ZM32.0185 216.918L32.0185 215.374L36.3516 215.606C37.0212 215.645 37.6133 215.709 38.1279 215.797C38.637 215.88 39.0742 215.997 39.4394 216.146C39.8047 216.29 40.1035 216.472 40.3359 216.694C40.5628 216.91 40.7316 217.17 40.8423 217.474C40.9474 217.778 41 218.13 41 218.528L41 219.01L39.647 219.01L39.6221 218.678C39.6055 218.44 39.5501 218.238 39.456 218.072C39.362 217.9 39.2236 217.756 39.041 217.64C38.8529 217.524 38.6121 217.43 38.3188 217.358C38.0255 217.28 37.6769 217.222 37.2729 217.184C36.869 217.139 36.3986 217.106 35.8618 217.084L32.0185 216.918ZM41.166 204.649C41.166 205.275 41.0609 205.842 40.8506 206.351C40.6348 206.855 40.3332 207.289 39.9458 207.654C39.5584 208.014 39.0991 208.291 38.5679 208.484C38.0366 208.678 37.4556 208.775 36.8247 208.775L36.4761 208.775C35.7456 208.775 35.0954 208.667 34.5254 208.451C33.9499 208.235 33.4629 207.942 33.0644 207.571C32.666 207.201 32.3644 206.78 32.1597 206.31C31.9549 205.839 31.8525 205.352 31.8525 204.849C31.8525 204.207 31.9632 203.653 32.1846 203.188C32.4059 202.718 32.7158 202.333 33.1143 202.035C33.5072 201.736 33.972 201.514 34.5088 201.371C35.04 201.227 35.6211 201.155 36.2519 201.155L36.9409 201.155L36.9409 207.862L35.6875 207.862L35.6875 202.69L35.5713 202.69C35.1728 202.713 34.7855 202.796 34.4092 202.939C34.0329 203.078 33.723 203.299 33.4795 203.604C33.236 203.908 33.1143 204.323 33.1143 204.849C33.1143 205.197 33.189 205.518 33.3384 205.812C33.4823 206.105 33.6981 206.357 33.9858 206.567C34.2736 206.777 34.625 206.94 35.04 207.057C35.4551 207.173 35.9337 207.231 36.4761 207.231L36.8247 207.231C37.2508 207.231 37.652 207.173 38.0283 207.057C38.3991 206.935 38.7256 206.761 39.0078 206.534C39.29 206.301 39.5114 206.022 39.6719 205.695C39.8323 205.363 39.9126 204.987 39.9126 204.566C39.9126 204.024 39.8019 203.565 39.5806 203.188C39.3592 202.812 39.0631 202.483 38.6924 202.201L39.4311 201.271C39.7244 201.465 40.0039 201.711 40.2695 202.01C40.5351 202.309 40.751 202.677 40.917 203.114C41.083 203.545 41.166 204.057 41.166 204.649ZM36.6089 195.552L36.418 195.552C35.7705 195.552 35.1701 195.458 34.6167 195.27C34.0578 195.081 33.5736 194.81 33.1641 194.456C32.749 194.102 32.4281 193.673 32.2012 193.169C31.9687 192.666 31.8525 192.101 31.8525 191.476C31.8525 190.845 31.9687 190.278 32.2012 189.774C32.4281 189.265 32.749 188.834 33.1641 188.479C33.5736 188.12 34.0578 187.846 34.6167 187.658C35.1701 187.47 35.7705 187.375 36.418 187.375L36.6089 187.375C37.2563 187.375 37.8568 187.47 38.4101 187.658C38.9635 187.846 39.4477 188.12 39.8628 188.479C40.2723 188.834 40.5933 189.263 40.8257 189.766C41.0526 190.264 41.166 190.829 41.166 191.459C41.166 192.09 41.0526 192.658 40.8257 193.161C40.5933 193.665 40.2723 194.096 39.8628 194.456C39.4477 194.81 38.9635 195.081 38.4101 195.27C37.8568 195.458 37.2563 195.552 36.6089 195.552ZM36.418 194.016L36.6089 194.016C37.0571 194.016 37.4805 193.964 37.8789 193.858C38.2718 193.753 38.6204 193.596 38.9248 193.385C39.2292 193.169 39.4699 192.901 39.647 192.58C39.8185 192.259 39.9043 191.886 39.9043 191.459C39.9043 191.039 39.8185 190.671 39.647 190.355C39.4699 190.035 39.2292 189.769 38.9248 189.559C38.6204 189.348 38.2718 189.191 37.8789 189.085C37.4805 188.975 37.0571 188.919 36.6089 188.919L36.418 188.919C35.9753 188.919 35.5574 188.975 35.1645 189.085C34.7661 189.191 34.4147 189.351 34.1103 189.567C33.8004 189.777 33.557 190.043 33.3799 190.364C33.2028 190.679 33.1143 191.05 33.1143 191.476C33.1143 191.897 33.2028 192.267 33.3799 192.588C33.557 192.904 33.8004 193.169 34.1103 193.385C34.4147 193.596 34.7661 193.753 35.1645 193.858C35.5574 193.964 35.9753 194.016 36.418 194.016ZM41 185.317L32.0185 185.317L32.0185 183.781L39.7383 183.781L39.7383 179.647L32.0185 179.647L32.0185 178.104L41 178.104L41 185.317ZM39.7383 177.041L43.6645 177.19L43.6645 178.56L41 178.56L41 179.73L39.7383 179.73L39.7383 177.041ZM41.166 171.646C41.166 172.271 41.0609 172.838 40.8506 173.347C40.6348 173.851 40.3332 174.285 39.9458 174.65C39.5584 175.01 39.0991 175.287 38.5679 175.48C38.0366 175.674 37.4556 175.771 36.8247 175.771L36.4761 175.771C35.7456 175.771 35.0954 175.663 34.5254 175.447C33.9499 175.231 33.4629 174.938 33.0644 174.567C32.666 174.197 32.3644 173.776 32.1597 173.306C31.9549 172.835 31.8525 172.348 31.8525 171.845C31.8525 171.203 31.9632 170.649 32.1846 170.185C32.4059 169.714 32.7158 169.33 33.1142 169.031C33.5072 168.732 33.972 168.511 34.5088 168.367C35.04 168.223 35.6211 168.151 36.2519 168.151L36.9409 168.151L36.9409 174.858L35.6875 174.858L35.6875 169.687L35.5713 169.687C35.1728 169.709 34.7855 169.792 34.4092 169.936C34.0329 170.074 33.723 170.295 33.4795 170.6C33.236 170.904 33.1142 171.319 33.1142 171.845C33.1142 172.193 33.189 172.514 33.3384 172.808C33.4823 173.101 33.6981 173.353 33.9858 173.563C34.2736 173.773 34.625 173.937 35.04 174.053C35.4551 174.169 35.9337 174.227 36.4761 174.227L36.8247 174.227C37.2508 174.227 37.652 174.169 38.0283 174.053C38.3991 173.931 38.7256 173.757 39.0078 173.53C39.29 173.297 39.5114 173.018 39.6719 172.691C39.8323 172.359 39.9126 171.983 39.9126 171.562C39.9126 171.02 39.8019 170.561 39.5806 170.185C39.3592 169.808 39.0631 169.479 38.6924 169.197L39.4311 168.267C39.7244 168.461 40.0039 168.707 40.2695 169.006C40.5351 169.305 40.751 169.673 40.917 170.11C41.083 170.542 41.166 171.053 41.166 171.646ZM35.9116 160.265L37.1567 160.265L37.1567 165.013L35.9116 165.013L35.9116 160.265ZM32.0185 164.689L41 164.689L41 166.225L32.0185 166.225L32.0185 164.689ZM32.0185 159.02L41 159.02L41 160.564L32.0185 160.564L32.0185 159.02ZM36.6089 156.953L36.418 156.953C35.7705 156.953 35.1701 156.859 34.6167 156.671C34.0578 156.483 33.5736 156.212 33.1641 155.857C32.749 155.503 32.4281 155.074 32.2012 154.571C31.9687 154.067 31.8525 153.503 31.8525 152.877C31.8525 152.247 31.9687 151.679 32.2012 151.176C32.4281 150.667 32.749 150.235 33.1641 149.881C33.5736 149.521 34.0578 149.247 34.6167 149.059C35.1701 148.871 35.7705 148.777 36.418 148.777L36.6089 148.777C37.2563 148.777 37.8568 148.871 38.4101 149.059C38.9635 149.247 39.4477 149.521 39.8628 149.881C40.2723 150.235 40.5933 150.664 40.8257 151.167C41.0526 151.666 41.166 152.23 41.166 152.861C41.166 153.492 41.0526 154.059 40.8257 154.562C40.5933 155.066 40.2723 155.498 39.8628 155.857C39.4477 156.212 38.9635 156.483 38.4101 156.671C37.8568 156.859 37.2563 156.953 36.6089 156.953ZM36.418 155.417L36.6089 155.417C37.0571 155.417 37.4805 155.365 37.8789 155.26C38.2718 155.155 38.6204 154.997 38.9248 154.787C39.2292 154.571 39.4699 154.302 39.647 153.981C39.8185 153.66 39.9043 153.287 39.9043 152.861C39.9043 152.44 39.8185 152.072 39.647 151.757C39.4699 151.436 39.2292 151.17 38.9248 150.96C38.6204 150.75 38.2718 150.592 37.8789 150.487C37.4805 150.376 37.0571 150.321 36.6089 150.321L36.418 150.321C35.9753 150.321 35.5574 150.376 35.1645 150.487C34.7661 150.592 34.4147 150.752 34.1103 150.968C33.8004 151.179 33.557 151.444 33.3799 151.765C33.2028 152.081 33.1142 152.451 33.1142 152.877C33.1142 153.298 33.2028 153.669 33.3799 153.99C33.557 154.305 33.8004 154.571 34.1103 154.787C34.4147 154.997 34.7661 155.155 35.1645 155.26C35.5574 155.365 35.9753 155.417 36.418 155.417ZM32.0185 145.183L41 145.183L41 146.718L32.0185 146.718L32.0185 145.183ZM32.0185 139.289L37.165 143.547L37.165 145.697L35.8203 145.93L35.8203 144.17L32.0185 141.157L32.0185 139.289ZM41 140.941L36.9326 144.245L35.8203 143.257L41 138.99L41 140.941ZM39.9043 129.843C39.9043 129.478 39.8296 129.14 39.6802 128.83C39.5308 128.52 39.326 128.266 39.0659 128.066C38.8003 127.867 38.4987 127.754 38.1611 127.726L38.1611 126.265C38.6924 126.293 39.1877 126.473 39.647 126.805C40.1007 127.131 40.4687 127.56 40.751 128.091C41.0277 128.623 41.166 129.206 41.166 129.843C41.166 130.518 41.047 131.107 40.8091 131.611C40.5711 132.109 40.2446 132.524 39.8296 132.856C39.4145 133.182 38.9386 133.429 38.4018 133.595C37.8595 133.755 37.2868 133.835 36.6836 133.835L36.335 133.835C35.7318 133.835 35.1618 133.755 34.625 133.595C34.0827 133.429 33.604 133.182 33.189 132.856C32.7739 132.524 32.4474 132.109 32.2095 131.611C31.9715 131.107 31.8525 130.518 31.8525 129.843C31.8525 129.14 31.9964 128.526 32.2842 128C32.5664 127.474 32.9538 127.062 33.4463 126.763C33.9333 126.459 34.4866 126.293 35.1064 126.265L35.1064 127.726C34.7357 127.754 34.4009 127.859 34.102 128.042C33.8032 128.219 33.5653 128.462 33.3882 128.772C33.2056 129.076 33.1142 129.433 33.1142 129.843C33.1142 130.313 33.2083 130.709 33.3965 131.03C33.5791 131.345 33.8281 131.597 34.1435 131.785C34.4534 131.968 34.7993 132.101 35.1811 132.184C35.5574 132.261 35.942 132.3 36.335 132.3L36.6836 132.3C37.0765 132.3 37.4639 132.261 37.8457 132.184C38.2275 132.106 38.5734 131.976 38.8833 131.793C39.1932 131.605 39.4422 131.354 39.6304 131.038C39.813 130.717 39.9043 130.319 39.9043 129.843ZM36.6089 124.945L36.418 124.945C35.7705 124.945 35.1701 124.851 34.6167 124.663C34.0578 124.475 33.5736 124.204 33.1641 123.85C32.749 123.495 32.428 123.067 32.2012 122.563C31.9687 122.059 31.8525 121.495 31.8525 120.87C31.8525 120.239 31.9687 119.672 32.2012 119.168C32.428 118.659 32.749 118.227 33.1641 117.873C33.5736 117.513 34.0578 117.239 34.6167 117.051C35.1701 116.863 35.7705 116.769 36.418 116.769L36.6089 116.769C37.2563 116.769 37.8568 116.863 38.4101 117.051C38.9635 117.239 39.4477 117.513 39.8628 117.873C40.2723 118.227 40.5933 118.656 40.8257 119.16C41.0526 119.658 41.166 120.222 41.166 120.853C41.166 121.484 41.0526 122.051 40.8257 122.555C40.5933 123.058 40.2723 123.49 39.8628 123.85C39.4477 124.204 38.9635 124.475 38.4101 124.663C37.8568 124.851 37.2563 124.945 36.6089 124.945ZM36.418 123.41L36.6089 123.41C37.0571 123.41 37.4805 123.357 37.8789 123.252C38.2718 123.147 38.6204 122.989 38.9248 122.779C39.2292 122.563 39.4699 122.295 39.647 121.974C39.8185 121.653 39.9043 121.279 39.9043 120.853C39.9043 120.432 39.8185 120.064 39.647 119.749C39.4699 119.428 39.2292 119.162 38.9248 118.952C38.6204 118.742 38.2718 118.584 37.8789 118.479C37.4805 118.368 37.0571 118.313 36.6089 118.313L36.418 118.313C35.9752 118.313 35.5574 118.368 35.1645 118.479C34.7661 118.584 34.4147 118.745 34.1103 118.96C33.8004 119.171 33.557 119.436 33.3799 119.757C33.2028 120.073 33.1142 120.444 33.1142 120.87C33.1142 121.29 33.2028 121.661 33.3799 121.982C33.557 122.297 33.8004 122.563 34.1103 122.779C34.4147 122.989 34.7661 123.147 35.1645 123.252C35.5574 123.357 35.9752 123.41 36.418 123.41ZM32.0185 109.041L33.2886 109.041L33.2886 113.191L41 113.191L41 114.727L32.0185 114.727L32.0185 109.041ZM32.0185 102.035L33.2886 102.035L33.2886 106.376L32.0185 106.376L32.0185 102.035ZM32.0185 100.682L41 100.682L41 102.218L32.0185 102.218L32.0185 100.682ZM32.0185 106.75L32.0185 105.206L36.3516 105.438C37.0211 105.477 37.6133 105.541 38.1279 105.629C38.637 105.712 39.0742 105.829 39.4394 105.978C39.8047 106.122 40.1035 106.305 40.3359 106.526C40.5628 106.742 40.7316 107.002 40.8423 107.306C40.9474 107.611 41 107.962 41 108.36L41 108.842L39.647 108.842L39.6221 108.51C39.6055 108.272 39.5501 108.07 39.456 107.904C39.362 107.732 39.2236 107.588 39.041 107.472C38.8529 107.356 38.6121 107.262 38.3188 107.19C38.0255 107.112 37.6769 107.054 37.2729 107.016C36.869 106.971 36.3986 106.938 35.8618 106.916L32.0185 106.75ZM39.4643 92.9126L34.8408 92.9126C34.4866 92.9126 34.1795 92.9845 33.9194 93.1284C33.6538 93.2668 33.449 93.4771 33.3052 93.7593C33.1613 94.0415 33.0893 94.3901 33.0893 94.8052C33.0893 95.1925 33.1557 95.5329 33.2886 95.8262C33.4214 96.1139 33.5957 96.3408 33.8115 96.5068C34.0273 96.6673 34.2598 96.7476 34.5088 96.7476L34.5088 98.2832C34.1878 98.2832 33.8696 98.2002 33.5542 98.0342C33.2388 97.8682 32.9538 97.6302 32.6992 97.3203C32.4391 97.0049 32.2344 96.6286 32.0849 96.1914C31.93 95.7487 31.8525 95.2562 31.8525 94.7139C31.8525 94.0609 31.9632 93.4854 32.1846 92.9873C32.4059 92.4837 32.7407 92.0908 33.189 91.8086C33.6317 91.5208 34.1878 91.377 34.8574 91.377L39.041 91.377C39.3398 91.377 39.658 91.3521 39.9956 91.3022C40.3332 91.2469 40.6237 91.1667 40.8672 91.0615L41 91.0615L41 92.6636C40.8229 92.741 40.5877 92.8019 40.2944 92.8462C39.9956 92.8905 39.7189 92.9126 39.4643 92.9126ZM35.5547 92.647L36.6338 92.6304L36.6338 94.1826C36.6338 94.6198 36.6697 95.0099 36.7417 95.353C36.8081 95.6961 36.9105 95.9839 37.0488 96.2163C37.1872 96.4487 37.3615 96.6258 37.5718 96.7476C37.7765 96.8693 38.0172 96.9302 38.2939 96.9302C38.5762 96.9302 38.8335 96.8665 39.0659 96.7393C39.2983 96.612 39.4837 96.4211 39.6221 96.1665C39.7549 95.9064 39.8213 95.5882 39.8213 95.2119C39.8213 94.7415 39.7217 94.3265 39.5224 93.9668C39.3232 93.6071 39.0797 93.3221 38.792 93.1118C38.5042 92.896 38.2248 92.7798 37.9536 92.7632L38.6924 92.1074C38.9248 92.1462 39.1821 92.2513 39.4643 92.4229C39.7466 92.5944 40.0177 92.8241 40.2778 93.1118C40.5324 93.394 40.7454 93.7316 40.917 94.1245C41.083 94.5119 41.166 94.9491 41.166 95.436C41.166 96.0448 41.047 96.5788 40.8091 97.0381C40.5711 97.4919 40.2529 97.846 39.8545 98.1006C39.4505 98.3496 38.9995 98.4741 38.5015 98.4741C38.02 98.4741 37.5967 98.38 37.2314 98.1919C36.8607 98.0037 36.5535 97.7326 36.31 97.3784C36.061 97.0243 35.8729 96.5981 35.7456 96.1001C35.6183 95.6021 35.5547 95.0459 35.5547 94.4316L35.5547 92.647ZM39.9043 85.3672C39.9043 85.002 39.8296 84.6644 39.6802 84.3545C39.5307 84.0446 39.326 83.79 39.0659 83.5908C38.8003 83.3916 38.4987 83.2782 38.1611 83.2505L38.1611 81.7896C38.6924 81.8172 39.1877 81.9971 39.647 82.3291C40.1007 82.6556 40.4687 83.0845 40.751 83.6157C41.0277 84.147 41.166 84.7308 41.166 85.3672C41.166 86.0423 41.047 86.6317 40.8091 87.1353C40.5711 87.6333 40.2446 88.0483 39.8296 88.3804C39.4145 88.7069 38.9386 88.9531 38.4018 89.1191C37.8595 89.2796 37.2868 89.3599 36.6836 89.3599L36.3349 89.3599C35.7318 89.3599 35.1618 89.2796 34.625 89.1191C34.0827 88.9531 33.604 88.7069 33.189 88.3804C32.7739 88.0483 32.4474 87.6333 32.2095 87.1353C31.9715 86.6317 31.8525 86.0423 31.8525 85.3672C31.8525 84.6644 31.9964 84.0501 32.2842 83.5244C32.5664 82.9987 32.9538 82.5864 33.4463 82.2876C33.9333 81.9832 34.4866 81.8172 35.1064 81.7896L35.1064 83.2505C34.7357 83.2782 34.4009 83.3833 34.102 83.5659C33.8032 83.743 33.5653 83.9865 33.3882 84.2964C33.2056 84.6007 33.1142 84.9577 33.1142 85.3672C33.1142 85.8376 33.2083 86.2332 33.3965 86.5542C33.5791 86.8696 33.8281 87.1214 34.1435 87.3096C34.4534 87.4922 34.7993 87.625 35.1811 87.708C35.5574 87.7855 35.942 87.8242 36.3349 87.8242L36.6836 87.8242C37.0765 87.8242 37.4639 87.7855 37.8457 87.708C38.2275 87.6305 38.5734 87.5005 38.8833 87.3179C39.1932 87.1297 39.4422 86.8779 39.6304 86.5625C39.813 86.2415 39.9043 85.8431 39.9043 85.3672ZM35.9116 73.9702L37.1567 73.9702L37.1567 78.7183L35.9116 78.7183L35.9116 73.9702ZM32.0185 78.3945L41 78.3945L41 79.9302L32.0185 79.9302L32.0185 78.3945ZM32.0185 72.7251L41 72.7251L41 74.269L32.0185 74.269L32.0185 72.7251ZM36.6089 70.6582L36.418 70.6582C35.7705 70.6582 35.1701 70.5641 34.6167 70.376C34.0578 70.1878 33.5736 69.9167 33.164 69.5625C32.749 69.2083 32.428 68.7795 32.2012 68.2759C31.9687 67.7723 31.8525 67.2078 31.8525 66.5825C31.8525 65.9517 31.9687 65.3844 32.2012 64.8809C32.428 64.3717 32.749 63.9401 33.164 63.5859C33.5736 63.2262 34.0578 62.9523 34.6167 62.7642C35.1701 62.576 35.7705 62.4819 36.418 62.4819L36.6089 62.4819C37.2563 62.4819 37.8568 62.576 38.4101 62.7642C38.9635 62.9523 39.4477 63.2262 39.8628 63.5859C40.2723 63.9401 40.5932 64.369 40.8257 64.8726C41.0526 65.3706 41.166 65.9351 41.166 66.5659C41.166 67.1968 41.0526 67.764 40.8257 68.2676C40.5932 68.7712 40.2723 69.2028 39.8628 69.5625C39.4477 69.9167 38.9635 70.1878 38.4101 70.376C37.8568 70.5641 37.2563 70.6582 36.6089 70.6582ZM36.418 69.1226L36.6089 69.1226C37.0571 69.1226 37.4805 69.07 37.8789 68.9648C38.2718 68.8597 38.6204 68.702 38.9248 68.4917C39.2292 68.2759 39.4699 68.0075 39.647 67.6865C39.8185 67.3656 39.9043 66.992 39.9043 66.5659C39.9043 66.1453 39.8185 65.7773 39.647 65.4619C39.4699 65.1409 39.2292 64.8753 38.9248 64.665C38.6204 64.4548 38.2718 64.297 37.8789 64.1919C37.4805 64.0812 37.0571 64.0259 36.6089 64.0259L36.418 64.0259C35.9752 64.0259 35.5574 64.0812 35.1645 64.1919C34.7661 64.297 34.4147 64.4575 34.1103 64.6733C33.8004 64.8836 33.557 65.1493 33.3799 65.4702C33.2028 65.7856 33.1142 66.1564 33.1142 66.5825C33.1142 67.0031 33.2028 67.3739 33.3799 67.6948C33.557 68.0103 33.8004 68.2759 34.1103 68.4917C34.4147 68.702 34.7661 68.8597 35.1645 68.9648C35.5574 69.07 35.9752 69.1226 36.418 69.1226ZM52.0186 339.429L53.2886 339.429L53.2886 343.771L52.0186 343.771L52.0186 339.429ZM52.0186 338.076L61 338.076L61 339.612L52.0186 339.612L52.0186 338.076ZM52.0186 344.144L52.0186 342.6L56.3516 342.833C57.0212 342.871 57.6133 342.935 58.1279 343.023C58.637 343.106 59.0742 343.223 59.4395 343.372C59.8047 343.516 60.1035 343.699 60.3359 343.92C60.5628 344.136 60.7316 344.396 60.8423 344.7C60.9474 345.005 61 345.356 61 345.754L61 346.236L59.647 346.236L59.6221 345.904C59.6055 345.666 59.5501 345.464 59.4561 345.298C59.362 345.126 59.2236 344.982 59.041 344.866C58.8529 344.75 58.6121 344.656 58.3188 344.584C58.0256 344.507 57.6769 344.448 57.2729 344.41C56.869 344.365 56.3986 344.332 55.8618 344.31L52.0186 344.144ZM58.5679 333.942L52.0186 329.8L52.0186 328.256L61 328.256L61 329.8L54.4507 329.8L61 333.942L61 335.47L52.0186 335.47L52.0186 333.942L58.5679 333.942ZM52.0186 319.018L61 319.018L61 320.553L52.0186 320.553L52.0186 319.018ZM56.144 319.541L57.4058 319.541C57.522 319.85 57.6271 320.166 57.7212 320.487C57.8097 320.802 57.8817 321.137 57.937 321.491C57.9868 321.84 58.0117 322.219 58.0117 322.628C58.0117 323.337 57.89 323.951 57.6465 324.471C57.3975 324.991 57.0239 325.393 56.5259 325.675C56.0223 325.957 55.3887 326.098 54.625 326.098L52.002 326.098L52.002 324.562L54.625 324.562C55.123 324.562 55.527 324.488 55.8369 324.338C56.1468 324.189 56.3765 323.97 56.5259 323.683C56.6698 323.395 56.7417 323.043 56.7417 322.628C56.7417 322.23 56.7168 321.856 56.667 321.508C56.6117 321.154 56.5397 320.816 56.4512 320.495C56.3626 320.169 56.2603 319.85 56.144 319.541ZM55.9116 310.451L57.1567 310.451L57.1567 315.199L55.9116 315.199L55.9116 310.451ZM52.0186 314.875L61 314.875L61 316.411L52.0186 316.411L52.0186 314.875ZM52.0186 309.206L61 309.206L61 310.75L52.0186 310.75L52.0186 309.206ZM56.6089 307.139L56.418 307.139C55.7705 307.139 55.1701 307.045 54.6167 306.857C54.0578 306.669 53.5736 306.398 53.1641 306.043C52.749 305.689 52.4281 305.26 52.2012 304.757C51.9687 304.253 51.8525 303.689 51.8525 303.063C51.8525 302.433 51.9687 301.865 52.2012 301.362C52.4281 300.853 52.749 300.421 53.1641 300.067C53.5736 299.707 54.0578 299.433 54.6167 299.245C55.1701 299.057 55.7705 298.963 56.418 298.963L56.6089 298.963C57.2563 298.963 57.8568 299.057 58.4102 299.245C58.9635 299.433 59.4478 299.707 59.8628 300.067C60.2723 300.421 60.5933 300.85 60.8257 301.354C61.0526 301.852 61.166 302.416 61.166 303.047C61.166 303.678 61.0526 304.245 60.8257 304.749C60.5933 305.252 60.2723 305.684 59.8628 306.043C59.4478 306.398 58.9635 306.669 58.4102 306.857C57.8568 307.045 57.2563 307.139 56.6089 307.139ZM56.418 305.604L56.6089 305.604C57.0571 305.604 57.4805 305.551 57.8789 305.446C58.2718 305.341 58.6204 305.183 58.9248 304.973C59.2292 304.757 59.4699 304.488 59.647 304.167C59.8185 303.847 59.9043 303.473 59.9043 303.047C59.9043 302.626 59.8185 302.258 59.647 301.943C59.4699 301.622 59.2292 301.356 58.9248 301.146C58.6204 300.936 58.2718 300.778 57.8789 300.673C57.4805 300.562 57.0571 300.507 56.6089 300.507L56.418 300.507C55.9753 300.507 55.5575 300.562 55.1645 300.673C54.7661 300.778 54.4147 300.938 54.1103 301.154C53.8005 301.365 53.557 301.63 53.3799 301.951C53.2028 302.267 53.1143 302.637 53.1143 303.063C53.1143 303.484 53.2028 303.855 53.3799 304.176C53.557 304.491 53.8005 304.757 54.1103 304.973C54.4147 305.183 54.7661 305.341 55.1645 305.446C55.5575 305.551 55.9753 305.604 56.418 305.604ZM59.9043 293.443C59.9043 293.078 59.8296 292.74 59.6802 292.43C59.5308 292.12 59.326 291.866 59.0659 291.667C58.8003 291.467 58.4987 291.354 58.1611 291.326L58.1611 289.865C58.6924 289.893 59.1877 290.073 59.647 290.405C60.1007 290.731 60.4687 291.16 60.751 291.691C61.0277 292.223 61.166 292.806 61.166 293.443C61.166 294.118 61.047 294.707 60.8091 295.211C60.5711 295.709 60.2446 296.124 59.8296 296.456C59.4145 296.783 58.9386 297.029 58.4019 297.195C57.8595 297.355 57.2868 297.436 56.6836 297.436L56.335 297.436C55.7318 297.436 55.1618 297.355 54.625 297.195C54.0827 297.029 53.604 296.783 53.189 296.456C52.7739 296.124 52.4474 295.709 52.2095 295.211C51.9715 294.707 51.8525 294.118 51.8525 293.443C51.8525 292.74 51.9964 292.126 52.2842 291.6C52.5664 291.074 52.9538 290.662 53.4463 290.363C53.9333 290.059 54.4867 289.893 55.1064 289.865L55.1064 291.326C54.7357 291.354 54.4009 291.459 54.102 291.642C53.8032 291.819 53.5653 292.062 53.3882 292.372C53.2056 292.676 53.1143 293.033 53.1143 293.443C53.1143 293.913 53.2083 294.309 53.3965 294.63C53.5791 294.945 53.8281 295.197 54.1436 295.385C54.4534 295.568 54.7993 295.701 55.1811 295.784C55.5575 295.861 55.9421 295.9 56.335 295.9L56.6836 295.9C57.0765 295.9 57.4639 295.861 57.8457 295.784C58.2275 295.706 58.5734 295.576 58.8833 295.394C59.1932 295.205 59.4422 294.954 59.6304 294.638C59.813 294.317 59.9043 293.919 59.9043 293.443ZM52.0186 284.478L61 284.478L61 286.022L52.0186 286.022L52.0186 284.478ZM52.0186 281.465L53.2637 281.465L53.2637 288.977L52.0186 288.977L52.0186 281.465ZM55.9116 273.861L57.1567 273.861L57.1567 278.609L55.9116 278.609L55.9116 273.861ZM52.0186 278.286L61 278.286L61 279.821L52.0186 279.821L52.0186 278.286ZM52.0186 272.616L61 272.616L61 274.16L52.0186 274.16L52.0186 272.616ZM56.6089 270.549L56.418 270.549C55.7705 270.549 55.1701 270.455 54.6167 270.267C54.0578 270.079 53.5736 269.808 53.1641 269.454C52.749 269.099 52.4281 268.671 52.2012 268.167C51.9687 267.663 51.8525 267.099 51.8525 266.474C51.8525 265.843 51.9687 265.276 52.2012 264.772C52.4281 264.263 52.749 263.831 53.1641 263.477C53.5736 263.117 54.0578 262.843 54.6167 262.655C55.1701 262.467 55.7705 262.373 56.418 262.373L56.6089 262.373C57.2563 262.373 57.8568 262.467 58.4102 262.655C58.9635 262.843 59.4477 263.117 59.8628 263.477C60.2723 263.831 60.5933 264.26 60.8257 264.764C61.0526 265.262 61.166 265.826 61.166 266.457C61.166 267.088 61.0526 267.655 60.8257 268.159C60.5933 268.662 60.2723 269.094 59.8628 269.454C59.4477 269.808 58.9635 270.079 58.4102 270.267C57.8568 270.455 57.2563 270.549 56.6089 270.549ZM56.418 269.014L56.6089 269.014C57.0571 269.014 57.4805 268.961 57.8789 268.856C58.2718 268.751 58.6204 268.593 58.9248 268.383C59.2292 268.167 59.4699 267.899 59.647 267.578C59.8185 267.257 59.9043 266.883 59.9043 266.457C59.9043 266.036 59.8185 265.668 59.647 265.353C59.4699 265.032 59.2292 264.766 58.9248 264.556C58.6204 264.346 58.2718 264.188 57.8789 264.083C57.4805 263.972 57.0571 263.917 56.6089 263.917L56.418 263.917C55.9753 263.917 55.5575 263.972 55.1645 264.083C54.7661 264.188 54.4147 264.349 54.1103 264.564C53.8005 264.775 53.557 265.04 53.3799 265.361C53.2028 265.677 53.1143 266.048 53.1143 266.474C53.1143 266.894 53.2028 267.265 53.3799 267.586C53.557 267.901 53.8005 268.167 54.1103 268.383C54.4147 268.593 54.7661 268.751 55.1645 268.856C55.5575 268.961 55.9753 269.014 56.418 269.014ZM58.958 255.284L52.0185 252.229L52.0185 250.752L61 254.753L61 255.815L52.0186 259.8L52.0186 258.322L58.958 255.284ZM52.0186 258.771L61 258.771L61 260.306L52.0186 260.306L52.0186 258.771ZM61 251.848L52.0185 251.848L52.0185 250.304L61 250.304L61 251.848ZM60.0703 245.307L52.0185 242.808L52.0185 241.165L62.3862 244.767C62.6076 244.85 62.8455 244.961 63.1001 245.099C63.3602 245.232 63.6064 245.403 63.8389 245.614C64.0713 245.824 64.2594 246.079 64.4033 246.377C64.5527 246.671 64.6274 247.022 64.6274 247.432C64.6274 247.553 64.6108 247.708 64.5776 247.896C64.5444 248.085 64.5168 248.217 64.4946 248.295L63.2495 248.303C63.255 248.259 63.2606 248.19 63.2661 248.096C63.2772 247.996 63.2827 247.927 63.2827 247.888C63.2827 247.54 63.2357 247.243 63.1416 247C63.0531 246.757 62.9009 246.552 62.6851 246.386C62.4748 246.214 62.1842 246.068 61.8135 245.946L60.0703 245.307ZM52.0185 247.141L58.9912 244.809L60.6099 244.41L61.1743 245.514L52.0185 248.818L52.0185 247.141ZM56.6089 235.968L56.418 235.968C55.7705 235.968 55.1701 235.874 54.6167 235.686C54.0578 235.498 53.5736 235.227 53.1641 234.873C52.749 234.518 52.4281 234.09 52.2012 233.586C51.9687 233.082 51.8525 232.518 51.8525 231.893C51.8525 231.262 51.9687 230.694 52.2012 230.191C52.4281 229.682 52.749 229.25 53.1641 228.896C53.5736 228.536 54.0578 228.262 54.6167 228.074C55.1701 227.886 55.7705 227.792 56.418 227.792L56.6089 227.792C57.2563 227.792 57.8568 227.886 58.4102 228.074C58.9635 228.262 59.4477 228.536 59.8628 228.896C60.2723 229.25 60.5933 229.679 60.8257 230.183C61.0526 230.681 61.166 231.245 61.166 231.876C61.166 232.507 61.0526 233.074 60.8257 233.578C60.5933 234.081 60.2723 234.513 59.8628 234.873C59.4477 235.227 58.9635 235.498 58.4102 235.686C57.8568 235.874 57.2563 235.968 56.6089 235.968ZM56.418 234.433L56.6089 234.433C57.0571 234.433 57.4805 234.38 57.8789 234.275C58.2718 234.17 58.6204 234.012 58.9248 233.802C59.2292 233.586 59.4699 233.318 59.647 232.997C59.8185 232.676 59.9043 232.302 59.9043 231.876C59.9043 231.455 59.8185 231.087 59.647 230.772C59.4699 230.451 59.2292 230.185 58.9248 229.975C58.6204 229.765 58.2718 229.607 57.8789 229.502C57.4805 229.391 57.0571 229.336 56.6089 229.336L56.418 229.336C55.9753 229.336 55.5574 229.391 55.1645 229.502C54.7661 229.607 54.4147 229.768 54.1103 229.983C53.8004 230.194 53.557 230.459 53.3799 230.78C53.2028 231.096 53.1143 231.466 53.1143 231.893C53.1143 232.313 53.2028 232.684 53.3799 233.005C53.557 233.32 53.8004 233.586 54.1103 233.802C54.4147 234.012 54.7661 234.17 55.1645 234.275C55.5574 234.38 55.9753 234.433 56.418 234.433ZM52.0185 219.881L53.2886 219.881L53.2886 224.422L52.0185 224.422L52.0185 219.881ZM52.0185 224.198L61 224.198L61 225.733L52.0185 225.733L52.0185 224.198ZM52.0185 218.52L61 218.52L61 220.064L52.0185 220.064L52.0185 218.52ZM53.7451 214.519L64.4531 214.519L64.4531 216.063L52.0185 216.063L52.0185 214.652L53.7451 214.519ZM56.4346 208.468L56.6089 208.468C57.2619 208.468 57.8678 208.545 58.4268 208.7C58.9801 208.855 59.4616 209.082 59.8711 209.381C60.2806 209.674 60.5988 210.037 60.8257 210.468C61.0526 210.9 61.166 211.395 61.166 211.954C61.166 212.524 61.0719 213.028 60.8838 213.465C60.6956 213.902 60.4217 214.273 60.062 214.577C59.7023 214.882 59.2707 215.125 58.7671 215.308C58.2635 215.485 57.6963 215.606 57.0654 215.673L56.1357 215.673C55.4717 215.606 54.8768 215.482 54.3511 215.299C53.8254 215.117 53.3771 214.876 53.0063 214.577C52.63 214.273 52.345 213.905 52.1514 213.473C51.9521 213.042 51.8525 212.543 51.8525 211.979C51.8525 211.415 51.9632 210.914 52.1846 210.477C52.4004 210.039 52.7103 209.671 53.1143 209.373C53.5182 209.074 54.0024 208.85 54.5669 208.7C55.1258 208.545 55.7484 208.468 56.4346 208.468ZM56.6089 210.012L56.4346 210.012C55.9863 210.012 55.5657 210.059 55.1728 210.153C54.7744 210.247 54.4258 210.394 54.1269 210.593C53.8226 210.786 53.5846 211.035 53.4131 211.34C53.236 211.644 53.1475 212.007 53.1475 212.427C53.1475 212.815 53.2139 213.152 53.3467 213.44C53.4795 213.722 53.6593 213.963 53.8862 214.162C54.1076 214.361 54.3621 214.525 54.6499 214.652C54.9321 214.774 55.2254 214.865 55.5298 214.926L57.6797 214.926C58.0671 214.815 58.4323 214.66 58.7754 214.461C59.1129 214.262 59.3869 213.996 59.5972 213.664C59.8019 213.332 59.9043 212.914 59.9043 212.411C59.9043 211.996 59.8185 211.639 59.647 211.34C59.4699 211.035 59.2292 210.786 58.9248 210.593C58.6204 210.394 58.2718 210.247 57.8789 210.153C57.4805 210.059 57.0571 210.012 56.6089 210.012ZM56.6089 206.916L56.418 206.916C55.7705 206.916 55.1701 206.821 54.6167 206.633C54.0578 206.445 53.5736 206.174 53.1641 205.82C52.749 205.466 52.4281 205.037 52.2012 204.533C51.9687 204.03 51.8525 203.465 51.8525 202.84C51.8525 202.209 51.9687 201.642 52.2012 201.138C52.4281 200.629 52.749 200.197 53.1641 199.843C53.5736 199.484 54.0578 199.21 54.6167 199.021C55.1701 198.833 55.7705 198.739 56.418 198.739L56.6089 198.739C57.2563 198.739 57.8568 198.833 58.4101 199.021C58.9635 199.21 59.4477 199.484 59.8628 199.843C60.2723 200.197 60.5933 200.626 60.8257 201.13C61.0526 201.628 61.166 202.192 61.166 202.823C61.166 203.454 61.0526 204.021 60.8257 204.525C60.5933 205.028 60.2723 205.46 59.8628 205.82C59.4477 206.174 58.9635 206.445 58.4101 206.633C57.8568 206.821 57.2563 206.916 56.6089 206.916ZM56.418 205.38L56.6089 205.38C57.0571 205.38 57.4805 205.327 57.8789 205.222C58.2718 205.117 58.6204 204.959 58.9248 204.749C59.2292 204.533 59.4699 204.265 59.647 203.944C59.8185 203.623 59.9043 203.249 59.9043 202.823C59.9043 202.403 59.8185 202.035 59.647 201.719C59.4699 201.398 59.2292 201.133 58.9248 200.922C58.6204 200.712 58.2718 200.554 57.8789 200.449C57.4805 200.339 57.0571 200.283 56.6089 200.283L56.418 200.283C55.9753 200.283 55.5574 200.339 55.1645 200.449C54.7661 200.554 54.4147 200.715 54.1103 200.931C53.8004 201.141 53.557 201.407 53.3799 201.728C53.2028 202.043 53.1143 202.414 53.1143 202.84C53.1143 203.26 53.2028 203.631 53.3799 203.952C53.557 204.268 53.8004 204.533 54.1103 204.749C54.4147 204.959 54.7661 205.117 55.1645 205.222C55.5574 205.327 55.9753 205.38 56.418 205.38ZM59.9043 193.219C59.9043 192.854 59.8296 192.516 59.6802 192.207C59.5308 191.897 59.326 191.642 59.0659 191.443C58.8003 191.244 58.4987 191.13 58.1611 191.103L58.1611 189.642C58.6924 189.669 59.1877 189.849 59.647 190.181C60.1007 190.508 60.4687 190.937 60.751 191.468C61.0277 191.999 61.166 192.583 61.166 193.219C61.166 193.894 61.047 194.484 60.8091 194.987C60.5711 195.485 60.2446 195.9 59.8296 196.232C59.4145 196.559 58.9386 196.805 58.4018 196.971C57.8595 197.132 57.2868 197.212 56.6836 197.212L56.335 197.212C55.7318 197.212 55.1618 197.132 54.625 196.971C54.0827 196.805 53.604 196.559 53.189 196.232C52.7739 195.9 52.4474 195.485 52.2095 194.987C51.9715 194.484 51.8525 193.894 51.8525 193.219C51.8525 192.516 51.9964 191.902 52.2842 191.376C52.5664 190.851 52.9538 190.438 53.4463 190.14C53.9333 189.835 54.4866 189.669 55.1064 189.642L55.1064 191.103C54.7357 191.13 54.4009 191.235 54.102 191.418C53.8032 191.595 53.5653 191.839 53.3882 192.148C53.2056 192.453 53.1143 192.81 53.1143 193.219C53.1143 193.69 53.2083 194.085 53.3965 194.406C53.5791 194.722 53.8281 194.973 54.1435 195.162C54.4534 195.344 54.7993 195.477 55.1811 195.56C55.5574 195.638 55.942 195.676 56.335 195.676L56.6836 195.676C57.0765 195.676 57.4639 195.638 57.8457 195.56C58.2275 195.483 58.5734 195.353 58.8833 195.17C59.1932 194.982 59.4422 194.73 59.6304 194.415C59.813 194.094 59.9043 193.695 59.9043 193.219ZM55.9116 181.822L57.1567 181.822L57.1567 186.57L55.9116 186.57L55.9116 181.822ZM52.0185 186.247L61 186.247L61 187.782L52.0185 187.782L52.0185 186.247ZM52.0185 180.577L61 180.577L61 182.121L52.0185 182.121L52.0185 180.577ZM58.5679 176.443L52.0185 172.301L52.0185 170.757L61 170.757L61 172.301L54.4507 172.301L61 176.443L61 177.971L52.0185 177.971L52.0185 176.443L58.5679 176.443ZM52.0185 166.624L61 166.624L61 168.159L52.0185 168.159L52.0185 166.624ZM52.0185 160.73L57.165 164.988L57.165 167.138L55.8203 167.371L55.8203 165.611L52.0185 162.598L52.0185 160.73ZM61 162.382L56.9326 165.686L55.8203 164.698L61 160.431L61 162.382ZM60.0703 156.571L52.0185 154.073L52.0185 152.429L62.3862 156.032C62.6076 156.115 62.8455 156.225 63.1001 156.364C63.3602 156.497 63.6064 156.668 63.8389 156.878C64.0713 157.089 64.2594 157.343 64.4033 157.642C64.5527 157.935 64.6274 158.287 64.6274 158.696C64.6274 158.818 64.6108 158.973 64.5776 159.161C64.5444 159.349 64.5168 159.482 64.4946 159.56L63.2495 159.568C63.255 159.524 63.2606 159.454 63.2661 159.36C63.2772 159.261 63.2827 159.192 63.2827 159.153C63.2827 158.804 63.2357 158.508 63.1416 158.265C63.0531 158.021 62.9009 157.816 62.685 157.65C62.4748 157.479 62.1842 157.332 61.8135 157.21L60.0703 156.571ZM52.0185 158.406L58.9912 156.073L60.6099 155.675L61.1743 156.779L52.0185 160.083L52.0185 158.406ZM59.6968 137.089L61 137.089L61 146.237L59.6968 146.237L59.6968 137.089ZM59.6968 145.979L63.9717 145.979L63.9717 147.565L59.6968 147.573L59.6968 145.979ZM59.6968 135.695L63.9634 135.711L63.9634 137.297L59.6968 137.297L59.6968 135.695ZM48.9141 138.658L50.2256 138.658L50.2256 143.954L48.9141 143.954L48.9141 138.658ZM48.9141 137.28L61 137.28L61 138.874L48.9141 138.874L48.9141 137.28ZM48.9141 144.502L48.9141 142.9L53.7783 143.149C54.5088 143.182 55.1839 143.251 55.8037 143.356C56.418 143.462 56.9796 143.592 57.4888 143.747C57.9979 143.902 58.4544 144.079 58.8584 144.278C59.2568 144.477 59.6027 144.69 59.896 144.917C60.1837 145.144 60.4217 145.382 60.6099 145.631C60.7925 145.874 60.9225 146.121 61 146.37L61 147.1L59.6968 147.1L59.6968 146.585C59.5418 146.442 59.3177 146.278 59.0244 146.096C58.7311 145.908 58.352 145.722 57.8872 145.54C57.4168 145.351 56.8441 145.188 56.1689 145.05C55.4938 144.906 54.6969 144.809 53.7783 144.759L48.9141 144.502ZM57.0903 131.32L52.0185 134.724L52.0185 132.873L55.7373 130.548L55.7373 128.755L57.0903 128.979L57.0903 131.32ZM56.9326 130.482L61 133.088L61 135.031L55.8203 131.453L56.9326 130.482ZM52.0185 127.967L61 127.967L61 129.502L52.0185 129.502L52.0185 127.967ZM52.0185 122.729L57.0903 126.132L57.0903 128.473L55.7373 128.714L55.7373 126.913L52.0185 124.588L52.0185 122.729ZM61 124.373L56.9326 126.987L55.8203 126L61 122.43L61 124.373ZM61.166 117.45C61.166 118.075 61.0609 118.642 60.8506 119.151C60.6348 119.655 60.3332 120.089 59.9458 120.455C59.5584 120.814 59.0991 121.091 58.5679 121.285C58.0366 121.478 57.4556 121.575 56.8247 121.575L56.4761 121.575C55.7456 121.575 55.0954 121.467 54.5254 121.251C53.9499 121.036 53.4629 120.742 53.0644 120.372C52.666 120.001 52.3644 119.58 52.1597 119.11C51.9549 118.639 51.8525 118.153 51.8525 117.649C51.8525 117.007 51.9632 116.454 52.1846 115.989C52.4059 115.518 52.7158 115.134 53.1142 114.835C53.5072 114.536 53.972 114.315 54.5088 114.171C55.04 114.027 55.6211 113.955 56.2519 113.955L56.9409 113.955L56.9409 120.662L55.6875 120.662L55.6875 115.491L55.5713 115.491C55.1728 115.513 54.7855 115.596 54.4092 115.74C54.0329 115.878 53.723 116.099 53.4795 116.404C53.236 116.708 53.1142 117.123 53.1142 117.649C53.1142 117.998 53.189 118.319 53.3384 118.612C53.4822 118.905 53.6981 119.157 53.9858 119.367C54.2736 119.577 54.625 119.741 55.04 119.857C55.4551 119.973 55.9337 120.031 56.4761 120.031L56.8247 120.031C57.2508 120.031 57.652 119.973 58.0283 119.857C58.3991 119.735 58.7256 119.561 59.0078 119.334C59.29 119.102 59.5114 118.822 59.6719 118.496C59.8323 118.164 59.9126 117.787 59.9126 117.367C59.9126 116.824 59.8019 116.365 59.5806 115.989C59.3592 115.612 59.0631 115.283 58.6924 115.001L59.4311 114.071C59.7244 114.265 60.0039 114.511 60.2695 114.81C60.5351 115.109 60.751 115.477 60.917 115.914C61.083 116.346 61.166 116.858 61.166 117.45ZM52.0185 110.494L61 110.494L61 112.029L52.0185 112.029L52.0185 110.494ZM52.0185 104.6L57.165 108.858L57.165 111.008L55.8203 111.241L55.8203 109.481L52.0185 106.468L52.0185 104.6ZM61 106.252L56.9326 109.556L55.8203 108.568L61 104.301L61 106.252ZM59.9043 99.5034C59.9043 99.1382 59.8296 98.8006 59.6802 98.4907C59.5308 98.1808 59.326 97.9263 59.0659 97.727C58.8003 97.5278 58.4987 97.4144 58.1611 97.3867L58.1611 95.9258C58.6924 95.9534 59.1877 96.1333 59.647 96.4653C60.1007 96.7918 60.4687 97.2207 60.751 97.752C61.0277 98.2832 61.166 98.867 61.166 99.5034C61.166 100.179 61.047 100.768 60.8091 101.271C60.5711 101.77 60.2446 102.185 59.8296 102.517C59.4145 102.843 58.9386 103.089 58.4018 103.255C57.8595 103.416 57.2868 103.496 56.6836 103.496L56.3349 103.496C55.7318 103.496 55.1618 103.416 54.625 103.255C54.0827 103.089 53.604 102.843 53.189 102.517C52.7739 102.185 52.4474 101.77 52.2095 101.271C51.9715 100.768 51.8525 100.179 51.8525 99.5034C51.8525 98.8006 51.9964 98.1864 52.2842 97.6606C52.5664 97.1349 52.9538 96.7227 53.4463 96.4238C53.9333 96.1195 54.4866 95.9534 55.1064 95.9258L55.1064 97.3867C54.7357 97.4144 54.4009 97.5195 54.102 97.7021C53.8032 97.8792 53.5653 98.1227 53.3882 98.4326C53.2056 98.737 53.1142 99.0939 53.1142 99.5034C53.1142 99.9738 53.2083 100.369 53.3965 100.69C53.5791 101.006 53.8281 101.258 54.1435 101.446C54.4534 101.628 54.7993 101.761 55.1811 101.844C55.5574 101.922 55.942 101.96 56.3349 101.96L56.6836 101.96C57.0765 101.96 57.4639 101.922 57.8457 101.844C58.2275 101.767 58.5734 101.637 58.8833 101.454C59.1932 101.266 59.4422 101.014 59.6304 100.699C59.813 100.378 59.9043 99.9793 59.9043 99.5034ZM56.6089 94.606L56.418 94.606C55.7705 94.606 55.1701 94.5119 54.6167 94.3237C54.0578 94.1356 53.5736 93.8644 53.1641 93.5103C52.749 93.1561 52.428 92.7272 52.2012 92.2236C51.9687 91.7201 51.8525 91.1556 51.8525 90.5303C51.8525 89.8994 51.9687 89.3322 52.2012 88.8286C52.428 88.3195 52.749 87.8879 53.1641 87.5337C53.5736 87.174 54.0578 86.9001 54.6167 86.7119C55.1701 86.5238 55.7705 86.4297 56.418 86.4297L56.6089 86.4297C57.2563 86.4297 57.8568 86.5238 58.4101 86.7119C58.9635 86.9001 59.4477 87.174 59.8628 87.5337C60.2723 87.8879 60.5932 88.3167 60.8257 88.8203C61.0526 89.3184 61.166 89.8828 61.166 90.5137C61.166 91.1445 61.0526 91.7117 60.8257 92.2153C60.5932 92.7189 60.2723 93.1506 59.8628 93.5103C59.4477 93.8644 58.9635 94.1356 58.4101 94.3237C57.8568 94.5119 57.2563 94.606 56.6089 94.606ZM56.418 93.0703L56.6089 93.0703C57.0571 93.0703 57.4805 93.0177 57.8789 92.9126C58.2718 92.8075 58.6204 92.6497 58.9248 92.4395C59.2292 92.2236 59.4699 91.9552 59.647 91.6343C59.8185 91.3133 59.9043 90.9398 59.9043 90.5137C59.9043 90.0931 59.8185 89.7251 59.647 89.4097C59.4699 89.0887 59.2292 88.8231 58.9248 88.6128C58.6204 88.4025 58.2718 88.2448 57.8789 88.1396C57.4805 88.029 57.0571 87.9736 56.6089 87.9736L56.418 87.9736C55.9752 87.9736 55.5574 88.029 55.1645 88.1396C54.7661 88.2448 54.4147 88.4053 54.1103 88.6211C53.8004 88.8314 53.557 89.097 53.3799 89.418C53.2028 89.7334 53.1142 90.1042 53.1142 90.5303C53.1142 90.9508 53.2028 91.3216 53.3799 91.6426C53.557 91.958 53.8004 92.2236 54.1103 92.4395C54.4147 92.6497 54.7661 92.8075 55.1645 92.9126C55.5574 93.0177 55.9752 93.0703 56.418 93.0703ZM55.9116 78.4111L57.1567 78.4111L57.1567 83.1592L55.9116 83.1592L55.9116 78.4111ZM52.0185 82.8354L61 82.8354L61 84.3711L52.0185 84.3711L52.0185 82.8354ZM52.0185 77.166L61 77.166L61 78.71L52.0185 78.71L52.0185 77.166ZM59.4643 69.3965L54.8408 69.3965C54.4866 69.3965 54.1795 69.4684 53.9194 69.6123C53.6538 69.7506 53.449 69.9609 53.3052 70.2432C53.1613 70.5254 53.0893 70.874 53.0893 71.2891C53.0893 71.6764 53.1557 72.0168 53.2886 72.3101C53.4214 72.5978 53.5957 72.8247 53.8115 72.9907C54.0273 73.1512 54.2598 73.2314 54.5088 73.2314L54.5088 74.7671C54.1878 74.7671 53.8696 74.6841 53.5542 74.5181C53.2388 74.352 52.9538 74.1141 52.6992 73.8042C52.4391 73.4888 52.2344 73.1125 52.0849 72.6753C51.93 72.2326 51.8525 71.7401 51.8525 71.1978C51.8525 70.5448 51.9632 69.9692 52.1846 69.4712C52.4059 68.9676 52.7407 68.5747 53.189 68.2925C53.6317 68.0047 54.1878 67.8608 54.8574 67.8608L59.041 67.8608C59.3398 67.8608 59.658 67.8359 59.9956 67.7861C60.3332 67.7308 60.6237 67.6506 60.8672 67.5454L61 67.5454L61 69.1475C60.8229 69.2249 60.5877 69.2858 60.2944 69.3301C59.9956 69.3743 59.7189 69.3965 59.4643 69.3965ZM55.5547 69.1309L56.6338 69.1143L56.6338 70.6665C56.6338 71.1037 56.6697 71.4938 56.7417 71.8369C56.8081 72.18 56.9105 72.4678 57.0488 72.7002C57.1872 72.9326 57.3615 73.1097 57.5718 73.2314C57.7765 73.3532 58.0172 73.4141 58.2939 73.4141C58.5762 73.4141 58.8335 73.3504 59.0659 73.2231C59.2983 73.0959 59.4837 72.9049 59.6221 72.6504C59.7549 72.3903 59.8213 72.0721 59.8213 71.6958C59.8213 71.2254 59.7217 70.8104 59.5224 70.4507C59.3232 70.091 59.0797 69.806 58.792 69.5957C58.5042 69.3799 58.2248 69.2637 57.9536 69.2471L58.6924 68.5913C58.9248 68.63 59.1821 68.7352 59.4643 68.9067C59.7466 69.0783 60.0177 69.3079 60.2778 69.5957C60.5324 69.8779 60.7454 70.2155 60.917 70.6084C61.083 70.9958 61.166 71.4329 61.166 71.9199C61.166 72.5286 61.047 73.0627 60.8091 73.522C60.5711 73.9757 60.2529 74.3299 59.8545 74.5845C59.4505 74.8335 58.9995 74.958 58.5015 74.958C58.02 74.958 57.5967 74.8639 57.2314 74.6758C56.8607 74.4876 56.5535 74.2165 56.31 73.8623C56.061 73.5081 55.8729 73.082 55.7456 72.584C55.6183 72.0859 55.5547 71.5298 55.5547 70.9155L55.5547 69.1309Z" fill="#4B4B4B"></path> <path d="M387 319L328 319C325.791 319 324 320.791 324 323L324 353C324 355.209 325.791 357 328 357L387 357C389.209 357 391 355.209 391 353L391 323C391 320.791 389.209 319 387 319Z" fill="#D09CC7"></path> <path d="M215 358L274 358C276.209 358 278 356.209 278 354L278 107C278 104.791 276.209 103 274 103L215 103C212.791 103 211 104.791 211 107L211 354C211 356.209 212.791 358 215 358Z" fill="#6FC4E2"></path> <path d="M480.791 179.048V190H479.339V179.048H480.791ZM487.538 179.048L482.784 185.073H480.211L479.986 183.87H481.919L485.74 179.048H487.538ZM486.079 190L481.964 184.885L482.776 183.614L487.854 190H486.079ZM488.38 186.021V185.848C488.38 185.261 488.466 184.717 488.636 184.216C488.807 183.709 489.052 183.27 489.373 182.899C489.694 182.523 490.083 182.232 490.539 182.027C490.995 181.816 491.507 181.711 492.074 181.711C492.645 181.711 493.159 181.816 493.616 182.027C494.077 182.232 494.468 182.523 494.789 182.899C495.115 183.27 495.363 183.709 495.534 184.216C495.704 184.717 495.789 185.261 495.789 185.848V186.021C495.789 186.608 495.704 187.152 495.534 187.653C495.363 188.155 495.115 188.593 494.789 188.969C494.468 189.341 494.079 189.631 493.623 189.842C493.172 190.048 492.66 190.15 492.089 190.15C491.517 190.15 491.003 190.048 490.547 189.842C490.09 189.631 489.699 189.341 489.373 188.969C489.052 188.593 488.807 188.155 488.636 187.653C488.466 187.152 488.38 186.608 488.38 186.021ZM489.772 185.848V186.021C489.772 186.427 489.82 186.811 489.915 187.172C490.01 187.528 490.153 187.844 490.344 188.12C490.539 188.395 490.782 188.613 491.073 188.774C491.364 188.929 491.703 189.007 492.089 189.007C492.47 189.007 492.803 188.929 493.089 188.774C493.38 188.613 493.621 188.395 493.811 188.12C494.002 187.844 494.145 187.528 494.24 187.172C494.34 186.811 494.39 186.427 494.39 186.021V185.848C494.39 185.447 494.34 185.068 494.24 184.712C494.145 184.351 493.999 184.033 493.804 183.757C493.613 183.476 493.372 183.255 493.082 183.095C492.796 182.934 492.46 182.854 492.074 182.854C491.692 182.854 491.357 182.934 491.066 183.095C490.78 183.255 490.539 183.476 490.344 183.757C490.153 184.033 490.01 184.351 489.915 184.712C489.82 185.068 489.772 185.447 489.772 185.848ZM503.056 185.389V186.517H498.753V185.389H503.056ZM499.046 181.861V190H497.655V181.861H499.046ZM504.184 181.861V190H502.785V181.861H504.184ZM509.743 181.861V190H508.344V181.861H509.743ZM512.473 181.861V182.99H505.666V181.861H512.473ZM515.234 183.426V193.129H513.835V181.861H515.113L515.234 183.426ZM520.717 185.863V186.021C520.717 186.613 520.647 187.162 520.507 187.668C520.366 188.17 520.161 188.606 519.89 188.977C519.624 189.348 519.296 189.636 518.904 189.842C518.513 190.048 518.065 190.15 517.558 190.15C517.042 190.15 516.585 190.065 516.189 189.895C515.793 189.724 515.457 189.476 515.181 189.15C514.905 188.824 514.685 188.433 514.519 187.977C514.359 187.52 514.248 187.006 514.188 186.435V185.592C514.248 184.99 514.361 184.451 514.527 183.975C514.692 183.499 514.91 183.092 515.181 182.756C515.457 182.415 515.79 182.157 516.182 181.982C516.573 181.801 517.024 181.711 517.535 181.711C518.047 181.711 518.501 181.811 518.897 182.012C519.293 182.207 519.627 182.488 519.897 182.854C520.168 183.22 520.371 183.659 520.507 184.17C520.647 184.677 520.717 185.241 520.717 185.863ZM519.318 186.021V185.863C519.318 185.457 519.276 185.076 519.19 184.72C519.105 184.359 518.972 184.043 518.792 183.772C518.616 183.496 518.39 183.28 518.115 183.125C517.839 182.964 517.51 182.884 517.129 182.884C516.778 182.884 516.472 182.944 516.212 183.065C515.956 183.185 515.738 183.348 515.557 183.554C515.377 183.754 515.229 183.985 515.113 184.246C515.003 184.501 514.92 184.767 514.865 185.043V186.991C514.965 187.342 515.106 187.673 515.286 187.984C515.467 188.29 515.708 188.538 516.009 188.729C516.309 188.914 516.688 189.007 517.144 189.007C517.52 189.007 517.844 188.929 518.115 188.774C518.39 188.613 518.616 188.395 518.792 188.12C518.972 187.844 519.105 187.528 519.19 187.172C519.276 186.811 519.318 186.427 519.318 186.021ZM522.124 186.021V185.848C522.124 185.261 522.209 184.717 522.38 184.216C522.55 183.709 522.796 183.27 523.117 182.899C523.438 182.523 523.826 182.232 524.283 182.027C524.739 181.816 525.25 181.711 525.817 181.711C526.389 181.711 526.903 181.816 527.359 182.027C527.821 182.232 528.212 182.523 528.533 182.899C528.859 183.27 529.107 183.709 529.277 184.216C529.448 184.717 529.533 185.261 529.533 185.848V186.021C529.533 186.608 529.448 187.152 529.277 187.653C529.107 188.155 528.859 188.593 528.533 188.969C528.212 189.341 527.823 189.631 527.367 189.842C526.915 190.048 526.404 190.15 525.832 190.15C525.261 190.15 524.747 190.048 524.29 189.842C523.834 189.631 523.443 189.341 523.117 188.969C522.796 188.593 522.55 188.155 522.38 187.653C522.209 187.152 522.124 186.608 522.124 186.021ZM523.515 185.848V186.021C523.515 186.427 523.563 186.811 523.658 187.172C523.754 187.528 523.897 187.844 524.087 188.12C524.283 188.395 524.526 188.613 524.817 188.774C525.108 188.929 525.446 189.007 525.832 189.007C526.213 189.007 526.547 188.929 526.833 188.774C527.123 188.613 527.364 188.395 527.555 188.12C527.745 187.844 527.888 187.528 527.983 187.172C528.084 186.811 528.134 186.427 528.134 186.021V185.848C528.134 185.447 528.084 185.068 527.983 184.712C527.888 184.351 527.743 184.033 527.547 183.757C527.357 183.476 527.116 183.255 526.825 183.095C526.539 182.934 526.203 182.854 525.817 182.854C525.436 182.854 525.1 182.934 524.809 183.095C524.523 183.255 524.283 183.476 524.087 183.757C523.897 184.033 523.754 184.351 523.658 184.712C523.563 185.068 523.515 185.447 523.515 185.848ZM536.596 181.861V183.012H532.662V181.861H536.596ZM537.822 181.861V190H536.431V181.861H537.822ZM532.324 181.861H533.723L533.512 185.788C533.477 186.394 533.419 186.931 533.339 187.397C533.264 187.859 533.159 188.255 533.023 188.586C532.893 188.917 532.727 189.188 532.527 189.398C532.331 189.604 532.095 189.757 531.82 189.857C531.544 189.952 531.225 190 530.864 190H530.428V188.774L530.729 188.751C530.945 188.736 531.128 188.686 531.278 188.601C531.434 188.516 531.564 188.39 531.669 188.225C531.775 188.054 531.86 187.836 531.925 187.57C531.995 187.305 532.048 186.989 532.083 186.623C532.123 186.257 532.153 185.83 532.173 185.344L532.324 181.861ZM541.207 184.659H543.652C544.309 184.659 544.863 184.775 545.314 185.005C545.765 185.231 546.106 185.544 546.337 185.946C546.573 186.342 546.691 186.793 546.691 187.3C546.691 187.676 546.625 188.029 546.495 188.36C546.365 188.686 546.169 188.972 545.908 189.218C545.653 189.463 545.334 189.656 544.953 189.797C544.577 189.932 544.143 190 543.652 190H540.192V181.861H541.583V188.857H543.652C544.053 188.857 544.374 188.784 544.615 188.639C544.855 188.493 545.028 188.305 545.134 188.074C545.239 187.844 545.292 187.603 545.292 187.352C545.292 187.107 545.239 186.866 545.134 186.63C545.028 186.394 544.855 186.199 544.615 186.043C544.374 185.883 544.053 185.803 543.652 185.803H541.207V184.659ZM553.949 185.389V186.517H549.647V185.389H553.949ZM549.94 181.861V190H548.549V181.861H549.94ZM555.078 181.861V190H553.679V181.861H555.078ZM562.118 188.608V184.419C562.118 184.098 562.053 183.819 561.923 183.584C561.797 183.343 561.607 183.158 561.351 183.027C561.095 182.897 560.779 182.832 560.403 182.832C560.052 182.832 559.744 182.892 559.478 183.012C559.217 183.132 559.012 183.29 558.861 183.486C558.716 183.682 558.643 183.892 558.643 184.118H557.251C557.251 183.827 557.327 183.539 557.477 183.253C557.628 182.967 557.843 182.709 558.124 182.478C558.41 182.242 558.751 182.057 559.147 181.921C559.548 181.781 559.994 181.711 560.486 181.711C561.078 181.711 561.599 181.811 562.05 182.012C562.507 182.212 562.863 182.516 563.119 182.922C563.379 183.323 563.51 183.827 563.51 184.434V188.225C563.51 188.496 563.532 188.784 563.577 189.09C563.628 189.396 563.7 189.659 563.796 189.88V190H562.344C562.274 189.84 562.218 189.626 562.178 189.361C562.138 189.09 562.118 188.839 562.118 188.608ZM562.359 185.066L562.374 186.043H560.967C560.571 186.043 560.218 186.076 559.907 186.141C559.596 186.201 559.335 186.294 559.124 186.42C558.914 186.545 558.753 186.703 558.643 186.893C558.533 187.079 558.478 187.297 558.478 187.548C558.478 187.804 558.535 188.037 558.651 188.247C558.766 188.458 558.939 188.626 559.17 188.751C559.405 188.872 559.694 188.932 560.035 188.932C560.461 188.932 560.837 188.842 561.163 188.661C561.489 188.481 561.747 188.26 561.938 187.999C562.133 187.738 562.239 187.485 562.254 187.239L562.848 187.909C562.813 188.12 562.717 188.353 562.562 188.608C562.407 188.864 562.198 189.11 561.938 189.346C561.682 189.576 561.376 189.769 561.02 189.925C560.669 190.075 560.273 190.15 559.831 190.15C559.28 190.15 558.796 190.043 558.38 189.827C557.969 189.611 557.648 189.323 557.417 188.962C557.191 188.596 557.078 188.187 557.078 187.736C557.078 187.3 557.164 186.916 557.334 186.585C557.505 186.249 557.75 185.971 558.071 185.75C558.392 185.524 558.778 185.354 559.23 185.239C559.681 185.123 560.185 185.066 560.742 185.066H562.359ZM567.346 186.119H568.85L566.496 190H564.992L567.346 186.119ZM568.512 181.861H571.912V190H570.52V182.99H568.512C568.116 182.99 567.792 183.057 567.542 183.193C567.291 183.323 567.108 183.493 566.992 183.704C566.877 183.915 566.819 184.133 566.819 184.359C566.819 184.579 566.872 184.792 566.977 184.998C567.083 185.198 567.248 185.364 567.474 185.494C567.699 185.625 567.99 185.69 568.346 185.69H570.896V186.833H568.346C567.88 186.833 567.466 186.771 567.105 186.645C566.744 186.52 566.438 186.347 566.188 186.126C565.937 185.901 565.746 185.637 565.616 185.336C565.486 185.03 565.42 184.7 565.42 184.343C565.42 183.987 565.488 183.659 565.623 183.358C565.764 183.057 565.964 182.794 566.225 182.568C566.491 182.343 566.814 182.17 567.196 182.049C567.582 181.924 568.02 181.861 568.512 181.861ZM583.232 181.861V183.012H579.471V190H578.08V181.861H583.232ZM585.835 183.426V193.129H584.436V181.861H585.715L585.835 183.426ZM591.318 185.863V186.021C591.318 186.613 591.248 187.162 591.108 187.668C590.967 188.17 590.762 188.606 590.491 188.977C590.225 189.348 589.897 189.636 589.506 189.842C589.115 190.048 588.666 190.15 588.159 190.15C587.643 190.15 587.186 190.065 586.79 189.895C586.394 189.724 586.058 189.476 585.782 189.15C585.506 188.824 585.286 188.433 585.12 187.977C584.96 187.52 584.85 187.006 584.789 186.435V185.592C584.85 184.99 584.962 184.451 585.128 183.975C585.293 183.499 585.511 183.092 585.782 182.756C586.058 182.415 586.392 182.157 586.783 181.982C587.174 181.801 587.625 181.711 588.137 181.711C588.648 181.711 589.102 181.811 589.498 182.012C589.894 182.207 590.228 182.488 590.499 182.854C590.769 183.22 590.972 183.659 591.108 184.17C591.248 184.677 591.318 185.241 591.318 185.863ZM589.919 186.021V185.863C589.919 185.457 589.877 185.076 589.791 184.72C589.706 184.359 589.573 184.043 589.393 183.772C589.217 183.496 588.992 183.28 588.716 183.125C588.44 182.964 588.112 182.884 587.73 182.884C587.379 182.884 587.074 182.944 586.813 183.065C586.557 183.185 586.339 183.348 586.158 183.554C585.978 183.754 585.83 183.985 585.715 184.246C585.604 184.501 585.522 184.767 585.466 185.043V186.991C585.567 187.342 585.707 187.673 585.888 187.984C586.068 188.29 586.309 188.538 586.61 188.729C586.911 188.914 587.289 189.007 587.746 189.007C588.122 189.007 588.445 188.929 588.716 188.774C588.992 188.613 589.217 188.395 589.393 188.12C589.573 187.844 589.706 187.528 589.791 187.172C589.877 186.811 589.919 186.427 589.919 186.021ZM595.29 189.158L597.554 181.861H599.044L595.779 191.256C595.704 191.457 595.603 191.672 595.478 191.903C595.358 192.139 595.202 192.362 595.012 192.573C594.821 192.783 594.591 192.954 594.32 193.084C594.054 193.219 593.736 193.287 593.364 193.287C593.254 193.287 593.114 193.272 592.943 193.242C592.773 193.212 592.652 193.187 592.582 193.167L592.575 192.038C592.615 192.043 592.677 192.048 592.763 192.053C592.853 192.064 592.916 192.069 592.951 192.069C593.267 192.069 593.535 192.026 593.756 191.941C593.976 191.86 594.162 191.723 594.312 191.527C594.468 191.336 594.601 191.073 594.711 190.737L595.29 189.158ZM593.628 181.861L595.741 188.18L596.102 189.646L595.102 190.158L592.108 181.861H593.628ZM605.723 181.861V183.012H601.609V181.861H605.723ZM601.812 181.861V190H600.42V181.861H601.812ZM606.957 181.861V190H605.558V181.861H606.957ZM614.614 181.861V183.012H610.499V181.861H614.614ZM610.703 181.861V190H609.311V181.861H610.703ZM615.848 181.861V190H614.449V181.861H615.848ZM622.881 188.608V184.419C622.881 184.098 622.815 183.819 622.685 183.584C622.56 183.343 622.369 183.158 622.113 183.027C621.858 182.897 621.542 182.832 621.166 182.832C620.815 182.832 620.506 182.892 620.24 183.012C619.98 183.132 619.774 183.29 619.624 183.486C619.478 183.682 619.405 183.892 619.405 184.118H618.014C618.014 183.827 618.089 183.539 618.24 183.253C618.39 182.967 618.606 182.709 618.886 182.478C619.172 182.242 619.513 182.057 619.909 181.921C620.311 181.781 620.757 181.711 621.248 181.711C621.84 181.711 622.362 181.811 622.813 182.012C623.269 182.212 623.625 182.516 623.881 182.922C624.142 183.323 624.272 183.827 624.272 184.434V188.225C624.272 188.496 624.295 188.784 624.34 189.09C624.39 189.396 624.463 189.659 624.558 189.88V190H623.106C623.036 189.84 622.981 189.626 622.941 189.361C622.901 189.09 622.881 188.839 622.881 188.608ZM623.121 185.066L623.136 186.043H621.73C621.334 186.043 620.98 186.076 620.669 186.141C620.358 186.201 620.098 186.294 619.887 186.42C619.676 186.545 619.516 186.703 619.405 186.893C619.295 187.079 619.24 187.297 619.24 187.548C619.24 187.804 619.298 188.037 619.413 188.247C619.528 188.458 619.701 188.626 619.932 188.751C620.168 188.872 620.456 188.932 620.797 188.932C621.223 188.932 621.599 188.842 621.925 188.661C622.251 188.481 622.51 188.26 622.7 187.999C622.896 187.738 623.001 187.485 623.016 187.239L623.61 187.909C623.575 188.12 623.48 188.353 623.324 188.608C623.169 188.864 622.961 189.11 622.7 189.346C622.444 189.576 622.138 189.769 621.782 189.925C621.431 190.075 621.035 190.15 620.594 190.15C620.042 190.15 619.558 190.043 619.142 189.827C618.731 189.611 618.41 189.323 618.179 188.962C617.954 188.596 617.841 188.187 617.841 187.736C617.841 187.3 617.926 186.916 618.097 186.585C618.267 186.249 618.513 185.971 618.834 185.75C619.155 185.524 619.541 185.354 619.992 185.239C620.444 185.123 620.947 185.066 621.504 185.066H623.121Z" fill="#454545"></path> <path fill-rule="evenodd" clip-rule="evenodd" d="M436 174C436 171.791 437.791 170 440 170H465C467.209 170 469 171.791 469 174V199C469 201.209 467.209 203 465 203H440C437.791 203 436 201.209 436 199V174Z" fill="#D09CC7"></path> <path fill-rule="evenodd" clip-rule="evenodd" d="M437 112C437 109.791 438.791 108 441 108H466C468.209 108 470 109.791 470 112V137C470 139.209 468.209 141 466 141H441C438.791 141 437 139.209 437 137V112Z" fill="#6FC4E2"></path> <path d="M483.755 117.048V128H482.325V117.048H483.755ZM487.275 117.048V118.236H478.813V117.048H487.275ZM489.358 117.048H490.765L494.353 125.977L497.933 117.048H499.348L494.895 128H493.796L489.358 117.048ZM488.9 117.048H490.141L490.344 123.728V128H488.9V117.048ZM498.558 117.048H499.799V128H498.355V123.728L498.558 117.048Z" fill="#454545"></path> <path d="M121 93H668" stroke="#A6A6A6" stroke-opacity="0.26" stroke-dasharray="6 6"></path> <path d="M121 158H668" stroke="#A6A6A6" stroke-opacity="0.26" stroke-dasharray="6 6"></path> <path d="M121 224H668" stroke="#A6A6A6" stroke-opacity="0.26" stroke-dasharray="6 6"></path> <path d="M121 289H668" stroke="#A6A6A6" stroke-opacity="0.26" stroke-dasharray="6 6"></path> <path d="M246.061 121.939C245.475 121.354 244.525 121.354 243.939 121.939L234.393 131.485C233.808 132.071 233.808 133.021 234.393 133.607C234.979 134.192 235.929 134.192 236.515 133.607L245 125.121L253.485 133.607C254.071 134.192 255.021 134.192 255.607 133.607C256.192 133.021 256.192 132.071 255.607 131.485L246.061 121.939ZM246.5 181L246.5 123L243.5 123L243.5 181L246.5 181Z" fill="white"></path> </svg> 