<?xml version="1.0" encoding="UTF-8"?> <svg xmlns="http://www.w3.org/2000/svg" width="708" height="424" viewBox="0 0 708 424" fill="none"> <g clip-path="url(#clip0_497_691)"> <rect x="2.09467" width="708" height="424" fill="#FCFCFC"></rect> <line x1="99.55" y1="201.826" x2="110.682" y2="201.826" stroke="#A6A6A6" stroke-opacity="0.26" stroke-width="2"></line> <line x1="100.854" y1="231.826" x2="111.986" y2="231.826" stroke="#A6A6A6" stroke-opacity="0.26" stroke-width="2"></line> <line x1="100.804" y1="261.826" x2="111.936" y2="261.826" stroke="#A6A6A6" stroke-opacity="0.26" stroke-width="2"></line> <line x1="100.804" y1="321.826" x2="111.936" y2="321.826" stroke="#A6A6A6" stroke-opacity="0.26" stroke-width="2"></line> <line x1="100.804" y1="291.826" x2="111.936" y2="291.826" stroke="#A6A6A6" stroke-opacity="0.26" stroke-width="2"></line> <line x1="100.804" y1="351.826" x2="111.936" y2="351.826" stroke="#A6A6A6" stroke-opacity="0.26" stroke-width="2"></line> <line x1="99.55" y1="171.826" x2="110.682" y2="171.826" stroke="#A6A6A6" stroke-opacity="0.26" stroke-width="2"></line> <line x1="99.55" y1="141.826" x2="110.682" y2="141.826" stroke="#A6A6A6" stroke-opacity="0.26" stroke-width="2"></line> <line x1="99.55" y1="111.826" x2="110.682" y2="111.826" stroke="#A6A6A6" stroke-opacity="0.26" stroke-width="2"></line> <path d="M94.2002 231.23V232.748C94.2002 233.564 94.1273 234.252 93.9814 234.812C93.8356 235.373 93.626 235.824 93.3525 236.166C93.0791 236.508 92.7487 236.756 92.3613 236.911C91.9785 237.062 91.5456 237.137 91.0625 237.137C90.6797 237.137 90.3265 237.089 90.0029 236.993C89.6794 236.897 89.3877 236.745 89.1279 236.535C88.8727 236.321 88.654 236.043 88.4717 235.701C88.2894 235.359 88.1504 234.945 88.0547 234.457C87.959 233.969 87.9111 233.4 87.9111 232.748V231.23C87.9111 230.415 87.984 229.731 88.1299 229.18C88.2803 228.628 88.4922 228.186 88.7656 227.854C89.0391 227.516 89.3672 227.275 89.75 227.129C90.1374 226.983 90.5703 226.91 91.0488 226.91C91.4362 226.91 91.7917 226.958 92.1152 227.054C92.4434 227.145 92.735 227.293 92.9902 227.498C93.2454 227.699 93.4619 227.967 93.6396 228.305C93.8219 228.637 93.9609 229.045 94.0566 229.528C94.1523 230.011 94.2002 230.579 94.2002 231.23ZM92.9287 232.953V231.019C92.9287 230.572 92.9014 230.18 92.8467 229.843C92.7965 229.501 92.7214 229.209 92.6211 228.968C92.5208 228.726 92.3932 228.53 92.2383 228.38C92.0879 228.229 91.9124 228.12 91.7119 228.052C91.516 227.979 91.2949 227.942 91.0488 227.942C90.748 227.942 90.4814 227.999 90.249 228.113C90.0166 228.223 89.8206 228.398 89.6611 228.64C89.5062 228.881 89.3877 229.198 89.3057 229.59C89.2236 229.982 89.1826 230.458 89.1826 231.019V232.953C89.1826 233.4 89.2077 233.794 89.2578 234.136C89.3125 234.478 89.3923 234.774 89.4971 235.024C89.6019 235.271 89.7295 235.473 89.8799 235.633C90.0303 235.792 90.2035 235.911 90.3994 235.988C90.5999 236.061 90.821 236.098 91.0625 236.098C91.3724 236.098 91.6436 236.038 91.876 235.92C92.1084 235.801 92.3021 235.617 92.457 235.366C92.6165 235.111 92.735 234.785 92.8125 234.389C92.89 233.988 92.9287 233.509 92.9287 232.953Z" fill="#454545"></path> <path d="M86.6947 263.256V264.295H83.3587V263.256H86.6947ZM89.3949 263.27L88.3832 263.01L88.8822 258.054H93.9886V259.223H89.9554L89.6546 261.93C89.8369 261.825 90.0671 261.727 90.3451 261.636C90.6276 261.545 90.9512 261.5 91.3158 261.5C91.7761 261.5 92.1885 261.579 92.5531 261.739C92.9177 261.894 93.2276 262.117 93.4828 262.409C93.7425 262.7 93.9408 263.051 94.0775 263.461C94.2142 263.872 94.2826 264.33 94.2826 264.835C94.2826 265.314 94.2165 265.754 94.0843 266.155C93.9567 266.556 93.763 266.907 93.5033 267.208C93.2435 267.504 92.9154 267.734 92.5189 267.898C92.127 268.062 91.6644 268.144 91.1312 268.144C90.7302 268.144 90.3496 268.089 89.9896 267.98C89.6341 267.866 89.3151 267.695 89.0326 267.467C88.7546 267.235 88.5267 266.948 88.349 266.606C88.1758 266.26 88.0664 265.854 88.0209 265.389H89.224C89.2787 265.763 89.388 266.077 89.5521 266.333C89.7162 266.588 89.9304 266.781 90.1947 266.914C90.4636 267.041 90.7757 267.105 91.1312 267.105C91.432 267.105 91.6986 267.053 91.931 266.948C92.1634 266.843 92.3594 266.693 92.5189 266.497C92.6784 266.301 92.7992 266.064 92.8812 265.786C92.9678 265.508 93.0111 265.195 93.0111 264.849C93.0111 264.535 92.9678 264.243 92.8812 263.974C92.7946 263.705 92.6647 263.471 92.4916 263.27C92.3229 263.069 92.1156 262.915 91.8695 262.805C91.6234 262.691 91.3408 262.634 91.0218 262.634C90.598 262.634 90.2767 262.691 90.058 262.805C89.8438 262.919 89.6227 263.074 89.3949 263.27Z" fill="#454545"></path> <path d="M78.8197 294.532V295.571H75.4837V294.532H78.8197ZM84.0765 289.275V299.283H82.8119V290.854L80.2621 291.784V290.642L83.8783 289.275H84.0765ZM94.0433 293.513V295.031C94.0433 295.847 93.9704 296.535 93.8246 297.095C93.6787 297.656 93.4691 298.107 93.1957 298.449C92.9222 298.791 92.5918 299.039 92.2045 299.194C91.8216 299.344 91.3887 299.419 90.9056 299.419C90.5228 299.419 90.1696 299.372 89.8461 299.276C89.5225 299.18 89.2308 299.028 88.9711 298.818C88.7158 298.604 88.4971 298.326 88.3148 297.984C88.1325 297.642 87.9935 297.227 87.8978 296.74C87.8021 296.252 87.7543 295.682 87.7543 295.031V293.513C87.7543 292.697 87.8272 292.014 87.973 291.462C88.1234 290.911 88.3353 290.469 88.6087 290.136C88.8822 289.799 89.2103 289.557 89.5931 289.412C89.9805 289.266 90.4134 289.193 90.892 289.193C91.2793 289.193 91.6348 289.241 91.9584 289.336C92.2865 289.428 92.5782 289.576 92.8334 289.781C93.0886 289.981 93.305 290.25 93.4828 290.587C93.6651 290.92 93.8041 291.328 93.8998 291.811C93.9955 292.294 94.0433 292.861 94.0433 293.513ZM92.7718 295.236V293.301C92.7718 292.855 92.7445 292.463 92.6898 292.125C92.6397 291.784 92.5645 291.492 92.4642 291.25C92.364 291.009 92.2364 290.813 92.0814 290.663C91.931 290.512 91.7556 290.403 91.555 290.334C91.3591 290.262 91.138 290.225 90.892 290.225C90.5912 290.225 90.3246 290.282 90.0921 290.396C89.8597 290.505 89.6638 290.681 89.5043 290.922C89.3493 291.164 89.2308 291.481 89.1488 291.873C89.0668 292.264 89.0257 292.741 89.0257 293.301V295.236C89.0257 295.682 89.0508 296.077 89.1009 296.418C89.1556 296.76 89.2354 297.056 89.3402 297.307C89.445 297.553 89.5726 297.756 89.723 297.916C89.8734 298.075 90.0466 298.194 90.2425 298.271C90.4431 298.344 90.6641 298.38 90.9056 298.38C91.2155 298.38 91.4867 298.321 91.7191 298.203C91.9515 298.084 92.1452 297.9 92.3002 297.649C92.4597 297.394 92.5782 297.068 92.6556 296.671C92.7331 296.27 92.7718 295.792 92.7718 295.236Z" fill="#454545"></path> <path d="M78.8197 322.249V323.288H75.4837V322.249H78.8197ZM84.0765 316.992V327H82.8119V318.571L80.2621 319.501V318.359L83.8783 316.992H84.0765ZM89.3949 322.263L88.3832 322.003L88.8822 317.047H93.9886V318.216H89.9554L89.6546 320.923C89.8369 320.818 90.0671 320.72 90.3451 320.629C90.6276 320.538 90.9512 320.492 91.3158 320.492C91.7761 320.492 92.1885 320.572 92.5531 320.731C92.9177 320.886 93.2276 321.11 93.4828 321.401C93.7425 321.693 93.9408 322.044 94.0775 322.454C94.2142 322.864 94.2826 323.322 94.2826 323.828C94.2826 324.307 94.2165 324.746 94.0843 325.147C93.9567 325.549 93.763 325.899 93.5033 326.2C93.2435 326.496 92.9154 326.727 92.5189 326.891C92.127 327.055 91.6644 327.137 91.1312 327.137C90.7302 327.137 90.3496 327.082 89.9896 326.973C89.6341 326.859 89.3151 326.688 89.0326 326.46C88.7546 326.228 88.5267 325.94 88.349 325.599C88.1758 325.252 88.0664 324.847 88.0209 324.382H89.224C89.2787 324.756 89.388 325.07 89.5521 325.325C89.7162 325.58 89.9304 325.774 90.1947 325.906C90.4636 326.034 90.7757 326.098 91.1312 326.098C91.432 326.098 91.6986 326.045 91.931 325.94C92.1634 325.836 92.3594 325.685 92.5189 325.489C92.6784 325.293 92.7992 325.056 92.8812 324.778C92.9678 324.5 93.0111 324.188 93.0111 323.842C93.0111 323.527 92.9678 323.236 92.8812 322.967C92.7946 322.698 92.6647 322.463 92.4916 322.263C92.3229 322.062 92.1156 321.907 91.8695 321.798C91.6234 321.684 91.3408 321.627 91.0218 321.627C90.598 321.627 90.2767 321.684 90.058 321.798C89.8438 321.912 89.6227 322.067 89.3949 322.263Z" fill="#454545"></path> <path d="M78.8197 352.249V353.288H75.4837V352.249H78.8197ZM86.4418 355.961V357H79.9271V356.091L83.1879 352.461C83.5889 352.014 83.8988 351.636 84.1175 351.326C84.3408 351.012 84.4958 350.731 84.5824 350.485C84.6735 350.235 84.7191 349.979 84.7191 349.72C84.7191 349.392 84.6507 349.095 84.514 348.831C84.3819 348.562 84.1859 348.348 83.9261 348.188C83.6664 348.029 83.3519 347.949 82.9828 347.949C82.5407 347.949 82.1716 348.036 81.8754 348.209C81.5837 348.378 81.3649 348.615 81.2191 348.92C81.0733 349.225 81.0004 349.576 81.0004 349.973H79.7357C79.7357 349.412 79.8587 348.899 80.1048 348.435C80.3509 347.97 80.7155 347.601 81.1986 347.327C81.6817 347.049 82.2764 346.91 82.9828 346.91C83.6117 346.91 84.1494 347.022 84.5961 347.245C85.0427 347.464 85.3845 347.774 85.6214 348.175C85.863 348.571 85.9837 349.036 85.9837 349.569C85.9837 349.861 85.9336 350.157 85.8334 350.458C85.7377 350.754 85.6032 351.05 85.43 351.347C85.2614 351.643 85.0632 351.935 84.8353 352.222C84.612 352.509 84.3727 352.791 84.1175 353.069L81.4515 355.961H86.4418ZM94.0433 351.23V352.748C94.0433 353.564 93.9704 354.252 93.8246 354.812C93.6787 355.373 93.4691 355.824 93.1957 356.166C92.9222 356.508 92.5918 356.756 92.2045 356.911C91.8216 357.062 91.3887 357.137 90.9056 357.137C90.5228 357.137 90.1696 357.089 89.8461 356.993C89.5225 356.897 89.2308 356.745 88.9711 356.535C88.7158 356.321 88.4971 356.043 88.3148 355.701C88.1325 355.359 87.9935 354.945 87.8978 354.457C87.8021 353.969 87.7543 353.4 87.7543 352.748V351.23C87.7543 350.415 87.8272 349.731 87.973 349.18C88.1234 348.628 88.3353 348.186 88.6087 347.854C88.8822 347.516 89.2103 347.275 89.5931 347.129C89.9805 346.983 90.4134 346.91 90.892 346.91C91.2793 346.91 91.6348 346.958 91.9584 347.054C92.2865 347.145 92.5782 347.293 92.8334 347.498C93.0886 347.699 93.305 347.967 93.4828 348.305C93.6651 348.637 93.8041 349.045 93.8998 349.528C93.9955 350.011 94.0433 350.579 94.0433 351.23ZM92.7718 352.953V351.019C92.7718 350.572 92.7445 350.18 92.6898 349.843C92.6397 349.501 92.5645 349.209 92.4642 348.968C92.364 348.726 92.2364 348.53 92.0814 348.38C91.931 348.229 91.7556 348.12 91.555 348.052C91.3591 347.979 91.138 347.942 90.892 347.942C90.5912 347.942 90.3246 347.999 90.0921 348.113C89.8597 348.223 89.6638 348.398 89.5043 348.64C89.3493 348.881 89.2308 349.198 89.1488 349.59C89.0668 349.982 89.0257 350.458 89.0257 351.019V352.953C89.0257 353.4 89.0508 353.794 89.1009 354.136C89.1556 354.478 89.2354 354.774 89.3402 355.024C89.445 355.271 89.5726 355.473 89.723 355.633C89.8734 355.792 90.0466 355.911 90.2425 355.988C90.4431 356.061 90.6641 356.098 90.9056 356.098C91.2155 356.098 91.4867 356.038 91.7191 355.92C91.9515 355.801 92.1452 355.617 92.3002 355.366C92.4597 355.111 92.5782 354.785 92.6556 354.389C92.7331 353.988 92.7718 353.509 92.7718 352.953Z" fill="#454545"></path> <path d="M89.5518 200.263L88.54 200.003L89.0391 195.047H94.1455V196.216H90.1123L89.8115 198.923C89.9938 198.818 90.224 198.72 90.502 198.629C90.7845 198.538 91.1081 198.492 91.4727 198.492C91.9329 198.492 92.3454 198.572 92.71 198.731C93.0745 198.886 93.3844 199.11 93.6396 199.401C93.8994 199.693 94.0977 200.044 94.2344 200.454C94.3711 200.864 94.4395 201.322 94.4395 201.828C94.4395 202.307 94.3734 202.746 94.2412 203.147C94.1136 203.549 93.9199 203.899 93.6602 204.2C93.4004 204.496 93.0723 204.727 92.6758 204.891C92.2839 205.055 91.8213 205.137 91.2881 205.137C90.887 205.137 90.5065 205.082 90.1465 204.973C89.791 204.859 89.472 204.688 89.1895 204.46C88.9115 204.228 88.6836 203.94 88.5059 203.599C88.3327 203.252 88.2233 202.847 88.1777 202.382H89.3809C89.4355 202.756 89.5449 203.07 89.709 203.325C89.873 203.58 90.0872 203.774 90.3516 203.906C90.6204 204.034 90.9326 204.098 91.2881 204.098C91.5889 204.098 91.8555 204.045 92.0879 203.94C92.3203 203.836 92.5163 203.685 92.6758 203.489C92.8353 203.293 92.9561 203.056 93.0381 202.778C93.1247 202.5 93.168 202.188 93.168 201.842C93.168 201.527 93.1247 201.236 93.0381 200.967C92.9515 200.698 92.8216 200.463 92.6484 200.263C92.4798 200.062 92.2725 199.907 92.0264 199.798C91.7803 199.684 91.4977 199.627 91.1787 199.627C90.7549 199.627 90.4336 199.684 90.2148 199.798C90.0007 199.912 89.7796 200.067 89.5518 200.263Z" fill="#454545"></path> <path d="M84.2334 164.992V175H82.9688V166.571L80.4189 167.501V166.359L84.0352 164.992H84.2334ZM94.2002 169.23V170.748C94.2002 171.564 94.1273 172.252 93.9814 172.812C93.8356 173.373 93.626 173.824 93.3525 174.166C93.0791 174.508 92.7487 174.756 92.3613 174.911C91.9785 175.062 91.5456 175.137 91.0625 175.137C90.6797 175.137 90.3265 175.089 90.0029 174.993C89.6794 174.897 89.3877 174.745 89.1279 174.535C88.8727 174.321 88.654 174.043 88.4717 173.701C88.2894 173.359 88.1504 172.945 88.0547 172.457C87.959 171.969 87.9111 171.4 87.9111 170.748V169.23C87.9111 168.415 87.984 167.731 88.1299 167.18C88.2803 166.628 88.4922 166.186 88.7656 165.854C89.0391 165.516 89.3672 165.275 89.75 165.129C90.1374 164.983 90.5703 164.91 91.0488 164.91C91.4362 164.91 91.7917 164.958 92.1152 165.054C92.4434 165.145 92.735 165.293 92.9902 165.498C93.2454 165.699 93.4619 165.967 93.6396 166.305C93.8219 166.637 93.9609 167.045 94.0566 167.528C94.1523 168.011 94.2002 168.579 94.2002 169.23ZM92.9287 170.953V169.019C92.9287 168.572 92.9014 168.18 92.8467 167.843C92.7965 167.501 92.7214 167.209 92.6211 166.968C92.5208 166.726 92.3932 166.53 92.2383 166.38C92.0879 166.229 91.9124 166.12 91.7119 166.052C91.516 165.979 91.2949 165.942 91.0488 165.942C90.748 165.942 90.4814 165.999 90.249 166.113C90.0166 166.223 89.8206 166.398 89.6611 166.64C89.5062 166.881 89.3877 167.198 89.3057 167.59C89.2236 167.982 89.1826 168.458 89.1826 169.019V170.953C89.1826 171.4 89.2077 171.794 89.2578 172.136C89.3125 172.478 89.3923 172.774 89.4971 173.024C89.6019 173.271 89.7295 173.473 89.8799 173.633C90.0303 173.792 90.2035 173.911 90.3994 173.988C90.5999 174.061 90.821 174.098 91.0625 174.098C91.3724 174.098 91.6436 174.038 91.876 173.92C92.1084 173.801 92.3021 173.617 92.457 173.366C92.6165 173.111 92.735 172.785 92.8125 172.389C92.89 171.988 92.9287 171.509 92.9287 170.953Z" fill="#454545"></path> <path d="M84.2334 135.992V146H82.9688V137.571L80.4189 138.501V137.359L84.0352 135.992H84.2334ZM89.5518 141.263L88.54 141.003L89.0391 136.047H94.1455V137.216H90.1123L89.8115 139.923C89.9938 139.818 90.224 139.72 90.502 139.629C90.7845 139.538 91.1081 139.492 91.4727 139.492C91.9329 139.492 92.3454 139.572 92.71 139.731C93.0745 139.886 93.3844 140.11 93.6396 140.401C93.8994 140.693 94.0977 141.044 94.2344 141.454C94.3711 141.864 94.4395 142.322 94.4395 142.828C94.4395 143.307 94.3734 143.746 94.2412 144.147C94.1136 144.549 93.9199 144.899 93.6602 145.2C93.4004 145.496 93.0723 145.727 92.6758 145.891C92.2839 146.055 91.8213 146.137 91.2881 146.137C90.887 146.137 90.5065 146.082 90.1465 145.973C89.791 145.859 89.472 145.688 89.1895 145.46C88.9115 145.228 88.6836 144.94 88.5059 144.599C88.3327 144.252 88.2233 143.847 88.1777 143.382H89.3809C89.4355 143.756 89.5449 144.07 89.709 144.325C89.873 144.58 90.0872 144.774 90.3516 144.906C90.6204 145.034 90.9326 145.098 91.2881 145.098C91.5889 145.098 91.8555 145.045 92.0879 144.94C92.3203 144.836 92.5163 144.685 92.6758 144.489C92.8353 144.293 92.9561 144.056 93.0381 143.778C93.1247 143.5 93.168 143.188 93.168 142.842C93.168 142.527 93.1247 142.236 93.0381 141.967C92.9515 141.698 92.8216 141.463 92.6484 141.263C92.4798 141.062 92.2725 140.907 92.0264 140.798C91.7803 140.684 91.4977 140.627 91.1787 140.627C90.7549 140.627 90.4336 140.684 90.2148 140.798C90.0007 140.912 89.7796 141.067 89.5518 141.263Z" fill="#454545"></path> <path d="M86.5986 115.961V117H80.084V116.091L83.3447 112.461C83.7458 112.014 84.0557 111.636 84.2744 111.326C84.4977 111.012 84.6527 110.731 84.7393 110.485C84.8304 110.235 84.876 109.979 84.876 109.72C84.876 109.392 84.8076 109.095 84.6709 108.831C84.5387 108.562 84.3428 108.348 84.083 108.188C83.8232 108.029 83.5088 107.949 83.1396 107.949C82.6976 107.949 82.3285 108.036 82.0322 108.209C81.7406 108.378 81.5218 108.615 81.376 108.92C81.2301 109.225 81.1572 109.576 81.1572 109.973H79.8926C79.8926 109.412 80.0156 108.899 80.2617 108.435C80.5078 107.97 80.8724 107.601 81.3555 107.327C81.8385 107.049 82.4333 106.91 83.1396 106.91C83.7686 106.91 84.3063 107.022 84.7529 107.245C85.1995 107.464 85.5413 107.774 85.7783 108.175C86.0199 108.571 86.1406 109.036 86.1406 109.569C86.1406 109.861 86.0905 110.157 85.9902 110.458C85.8945 110.754 85.7601 111.05 85.5869 111.347C85.4183 111.643 85.2201 111.935 84.9922 112.222C84.7689 112.509 84.5296 112.791 84.2744 113.069L81.6084 115.961H86.5986ZM94.2002 111.23V112.748C94.2002 113.564 94.1273 114.252 93.9814 114.812C93.8356 115.373 93.626 115.824 93.3525 116.166C93.0791 116.508 92.7487 116.756 92.3613 116.911C91.9785 117.062 91.5456 117.137 91.0625 117.137C90.6797 117.137 90.3265 117.089 90.0029 116.993C89.6794 116.897 89.3877 116.745 89.1279 116.535C88.8727 116.321 88.654 116.043 88.4717 115.701C88.2894 115.359 88.1504 114.945 88.0547 114.457C87.959 113.969 87.9111 113.4 87.9111 112.748V111.23C87.9111 110.415 87.984 109.731 88.1299 109.18C88.2803 108.628 88.4922 108.186 88.7656 107.854C89.0391 107.516 89.3672 107.275 89.75 107.129C90.1374 106.983 90.5703 106.91 91.0488 106.91C91.4362 106.91 91.7917 106.958 92.1152 107.054C92.4434 107.145 92.735 107.293 92.9902 107.498C93.2454 107.699 93.4619 107.967 93.6396 108.305C93.8219 108.637 93.9609 109.045 94.0566 109.528C94.1523 110.011 94.2002 110.579 94.2002 111.23ZM92.9287 112.953V111.019C92.9287 110.572 92.9014 110.18 92.8467 109.843C92.7965 109.501 92.7214 109.209 92.6211 108.968C92.5208 108.726 92.3932 108.53 92.2383 108.38C92.0879 108.229 91.9124 108.12 91.7119 108.052C91.516 107.979 91.2949 107.942 91.0488 107.942C90.748 107.942 90.4814 107.999 90.249 108.113C90.0166 108.223 89.8206 108.398 89.6611 108.64C89.5062 108.881 89.3877 109.198 89.3057 109.59C89.2236 109.982 89.1826 110.458 89.1826 111.019V112.953C89.1826 113.4 89.2077 113.794 89.2578 114.136C89.3125 114.478 89.3923 114.774 89.4971 115.024C89.6019 115.271 89.7295 115.473 89.8799 115.633C90.0303 115.792 90.2035 115.911 90.3994 115.988C90.5999 116.061 90.821 116.098 91.0625 116.098C91.3724 116.098 91.6436 116.038 91.876 115.92C92.1084 115.801 92.3021 115.617 92.457 115.366C92.6165 115.111 92.735 114.785 92.8125 114.389C92.89 113.988 92.9287 113.509 92.9287 112.953Z" fill="#454545"></path> <path d="M111 232C328.132 232 449.868 232 667 232" stroke="#A6A6A6" stroke-opacity="0.26" stroke-width="2"></path> <line x1="111" y1="102" x2="111" y2="360" stroke="#A6A6A6" stroke-opacity="0.26" stroke-width="2" stroke-linecap="round"></line> <path d="M40.0469 347.021L40.0469 345.708L50 345.708L50 347.021L42.3301 347.021L50 351.922L50 353.241L40.0469 353.241L40.0469 351.922L47.7168 351.922L40.0469 347.021ZM44.627 339.446C44.2806 339.446 44.0072 339.578 43.8066 339.843C43.6016 340.107 43.499 340.469 43.499 340.93C43.499 341.376 43.6152 341.75 43.8477 342.051C44.0801 342.347 44.3535 342.495 44.668 342.495L44.668 343.753C44.0254 343.753 43.499 343.484 43.0889 342.946C42.6787 342.409 42.4736 341.736 42.4736 340.93C42.4736 340.064 42.6605 339.389 43.0342 338.906C43.4033 338.423 43.932 338.182 44.6201 338.182C44.9528 338.182 45.2581 338.282 45.5361 338.482C45.8141 338.683 46.0352 338.968 46.1992 339.337C46.4909 338.476 47.0651 338.045 47.9219 338.045C48.6009 338.045 49.1387 338.307 49.5352 338.831C49.9316 339.355 50.1299 340.055 50.1299 340.93C50.1299 341.782 49.9225 342.486 49.5078 343.042C49.0885 343.593 48.5234 343.869 47.8125 343.869L47.8125 342.611C48.1725 342.611 48.4824 342.452 48.7422 342.133C48.9974 341.809 49.125 341.408 49.125 340.93C49.125 340.447 49.0133 340.057 48.79 339.761C48.5667 339.465 48.2773 339.316 47.9219 339.316C47.5072 339.316 47.2109 339.442 47.0332 339.692C46.8509 339.938 46.7598 340.324 46.7598 340.848L46.7598 342.112L45.6934 342.112L45.6934 340.738C45.6706 339.877 45.3151 339.446 44.627 339.446ZM48.3252 332.146L42.6035 329.63L42.6035 328.051L50 328.051L50 329.315L44.6201 329.315L50 331.708L50 332.583L44.5039 335.023L50 335.023L50 336.288L42.6035 336.288L42.6035 334.647L48.3252 332.146ZM50.1367 322.944C50.1367 323.947 49.8086 324.763 49.1523 325.392C48.4915 326.021 47.6097 326.335 46.5068 326.335L46.2744 326.335C45.5407 326.335 44.8867 326.196 44.3125 325.918C43.7337 325.635 43.2826 325.243 42.959 324.742C42.6309 324.236 42.4668 323.689 42.4668 323.102C42.4668 322.14 42.7835 321.393 43.417 320.859C44.0505 320.326 44.9574 320.06 46.1377 320.06L46.6641 320.06L46.6641 325.07C47.3932 325.052 47.9834 324.84 48.4346 324.435C48.8812 324.024 49.1045 323.505 49.1045 322.876C49.1045 322.429 49.0133 322.051 48.8311 321.741C48.6488 321.431 48.4072 321.16 48.1064 320.928L48.708 320.155C49.6605 320.775 50.1367 321.705 50.1367 322.944ZM43.5059 323.102C43.5059 323.612 43.6927 324.04 44.0664 324.387C44.4355 324.733 44.9551 324.947 45.625 325.029L45.625 321.324L45.5293 321.324C44.8867 321.361 44.39 321.534 44.0391 321.844C43.6836 322.154 43.5059 322.573 43.5059 323.102ZM50 312.547L50 313.812L46.8418 313.812L46.8418 317.209L50 317.209L50 318.48L42.6035 318.48L42.6035 317.209L45.8096 317.209L45.8096 313.812L42.6035 313.812L42.6035 312.547L50 312.547ZM50.1367 307.44C50.1367 308.443 49.8086 309.259 49.1523 309.888C48.4915 310.517 47.6097 310.831 46.5068 310.831L46.2744 310.831C45.5407 310.831 44.8867 310.692 44.3125 310.414C43.7337 310.132 43.2825 309.74 42.959 309.238C42.6309 308.732 42.4668 308.186 42.4668 307.598C42.4668 306.636 42.7835 305.889 43.417 305.355C44.0505 304.822 44.9574 304.556 46.1377 304.556L46.6641 304.556L46.6641 309.566C47.3932 309.548 47.9834 309.336 48.4346 308.931C48.8812 308.521 49.1045 308.001 49.1045 307.372C49.1045 306.925 49.0133 306.547 48.8311 306.237C48.6488 305.927 48.4072 305.656 48.1064 305.424L48.708 304.651C49.6605 305.271 50.1367 306.201 50.1367 307.44ZM43.5059 307.598C43.5059 308.108 43.6927 308.536 44.0664 308.883C44.4355 309.229 44.9551 309.443 45.625 309.525L45.625 305.82L45.5293 305.82C44.8867 305.857 44.39 306.03 44.0391 306.34C43.6836 306.65 43.5059 307.069 43.5059 307.598ZM50 297.043L50 298.308L46.8418 298.308L46.8418 301.705L50 301.705L50 302.977L42.6035 302.977L42.6035 301.705L45.8096 301.705L45.8096 298.308L42.6035 298.308L42.6035 297.043L50 297.043ZM42.6035 290.221L42.6035 288.956L50 288.956L50 290.221L44.6064 290.221L50 293.632L50 294.896L42.6035 294.896L42.6035 293.632L48.0039 293.632L42.6035 290.221ZM42.6035 281.272L50 281.272L50 282.544L47.1221 282.544L47.1221 284.451L50 286.194L50 287.562L46.9307 285.702C46.7575 286.176 46.4909 286.541 46.1309 286.796C45.7663 287.047 45.3424 287.172 44.8594 287.172C44.1849 287.172 43.6426 286.919 43.2324 286.413C42.8177 285.907 42.6081 285.23 42.6035 284.383L42.6035 281.272ZM44.873 285.9C45.2331 285.9 45.5247 285.777 45.748 285.531C45.9668 285.285 46.0784 284.959 46.083 284.554L46.083 282.544L43.6289 282.544L43.6289 284.362C43.6289 284.832 43.7451 285.205 43.9775 285.483C44.2054 285.761 44.5039 285.9 44.873 285.9ZM50 275.653L42.6035 275.653L42.6035 272.769C42.6035 271.784 42.7767 271.03 43.123 270.506C43.4648 269.977 43.9684 269.713 44.6338 269.713C44.9756 269.713 45.2855 269.815 45.5635 270.021C45.8369 270.226 46.0465 270.529 46.1924 270.93C46.2972 270.483 46.5023 270.125 46.8076 269.856C47.113 269.583 47.4775 269.446 47.9014 269.446C48.5804 269.446 49.0999 269.697 49.46 270.198C49.82 270.695 50 271.399 50 272.311L50 275.653ZM46.7529 274.389L48.9814 274.389L48.9814 272.297C48.9814 271.768 48.8835 271.374 48.6875 271.114C48.4915 270.85 48.2158 270.718 47.8603 270.718C47.1221 270.718 46.7529 271.26 46.7529 272.345L46.7529 274.389ZM45.7412 274.389L45.7412 272.755C45.7412 271.57 45.3949 270.978 44.7021 270.978C44.0094 270.978 43.6517 271.538 43.6289 272.659L43.6289 274.389L45.7412 274.389ZM42.6035 262.918L48.9678 262.918L48.9678 260.211L42.6035 260.211L42.6035 258.946L48.9678 258.946L48.9678 256.246L42.6035 256.246L42.6035 254.975L50 254.975L50 264.189L42.6035 264.189L42.6035 262.918ZM46.8486 250.675L46.8486 251.598L50 251.598L50 252.869L42.6035 252.869L42.6035 251.598L45.7344 251.598L45.7344 250.771L42.6035 248.282L42.6035 246.751L46.1582 249.677L50 246.505L50 248.111L46.8486 250.675ZM50 240.852C49.8542 240.924 49.5944 240.984 49.2207 241.029C49.8314 241.617 50.1367 242.319 50.1367 243.135C50.1367 243.864 49.9316 244.463 49.5215 244.933C49.1068 245.397 48.5827 245.63 47.9492 245.63C47.179 245.63 46.582 245.338 46.1582 244.755C45.7298 244.167 45.5156 243.342 45.5156 242.28L45.5156 241.05L44.9346 241.05C44.4925 241.05 44.1416 241.182 43.8818 241.446C43.6175 241.711 43.4853 242.1 43.4853 242.615C43.4853 243.066 43.5993 243.445 43.8271 243.75C44.055 244.055 44.3307 244.208 44.6543 244.208L44.6543 245.479C44.2852 245.479 43.9297 245.35 43.5879 245.09C43.2415 244.826 42.9681 244.47 42.7676 244.023C42.5671 243.572 42.4668 243.078 42.4668 242.54C42.4668 241.688 42.681 241.02 43.1094 240.537C43.5332 240.054 44.1188 239.803 44.8662 239.785L48.2705 239.785C48.9495 239.785 49.4896 239.699 49.8906 239.525L50 239.525L50 240.852ZM49.0361 242.95C49.0361 242.554 48.9336 242.178 48.7285 241.822C48.5234 241.467 48.2568 241.209 47.9287 241.05L46.4111 241.05L46.4111 242.041C46.4111 243.59 46.8646 244.365 47.7715 244.365C48.168 244.365 48.4779 244.233 48.7012 243.969C48.9245 243.704 49.0361 243.365 49.0361 242.95ZM42.6035 231.739L50 231.739L50 233.011L43.6494 233.011L43.6494 235.526L46.418 235.677C47.6894 235.759 48.5986 235.973 49.1455 236.319C49.6924 236.661 49.9772 237.206 50 237.953L50 238.459L48.8857 238.459L48.8584 238.097C48.8128 237.687 48.5758 237.393 48.1475 237.215C47.7191 237.037 46.9261 236.923 45.7685 236.873L42.6035 236.736L42.6035 231.739ZM50.1367 226.64C50.1367 227.642 49.8086 228.458 49.1523 229.087C48.4915 229.716 47.6097 230.03 46.5068 230.03L46.2744 230.03C45.5407 230.03 44.8867 229.891 44.3125 229.613C43.7337 229.331 43.2825 228.939 42.959 228.437C42.6309 227.932 42.4668 227.385 42.4668 226.797C42.4668 225.835 42.7835 225.088 43.417 224.555C44.0504 224.021 44.9574 223.755 46.1377 223.755L46.6641 223.755L46.6641 228.766C47.3932 228.747 47.9834 228.535 48.4346 228.13C48.8812 227.72 49.1045 227.2 49.1045 226.571C49.1045 226.125 49.0133 225.746 48.831 225.437C48.6488 225.127 48.4072 224.855 48.1064 224.623L48.708 223.851C49.6605 224.47 50.1367 225.4 50.1367 226.64ZM43.5059 226.797C43.5059 227.307 43.6927 227.736 44.0664 228.082C44.4355 228.428 44.9551 228.643 45.625 228.725L45.625 225.02L45.5293 225.02C44.8867 225.056 44.39 225.229 44.0391 225.539C43.6836 225.849 43.5059 226.268 43.5059 226.797ZM46.2334 219.147C45.5088 219.147 44.8571 219.006 44.2783 218.724C43.6995 218.437 43.2529 218.04 42.9385 217.534C42.624 217.024 42.4668 216.443 42.4668 215.791C42.4668 214.784 42.8154 213.97 43.5127 213.351C44.21 212.726 45.1374 212.414 46.2949 212.414L46.3838 212.414C47.1038 212.414 47.751 212.553 48.3252 212.831C48.8949 213.104 49.3392 213.499 49.6582 214.014C49.9772 214.524 50.1367 215.112 50.1367 215.777C50.1367 216.78 49.7881 217.593 49.0908 218.218C48.3935 218.838 47.4707 219.147 46.3223 219.147L46.2334 219.147ZM46.3838 217.876C47.2041 217.876 47.8626 217.687 48.3594 217.309C48.8561 216.926 49.1045 216.415 49.1045 215.777C49.1045 215.135 48.8538 214.624 48.3525 214.246C47.8467 213.868 47.1403 213.679 46.2334 213.679C45.4222 213.679 44.7659 213.872 44.2646 214.26C43.7588 214.643 43.5059 215.153 43.5059 215.791C43.5059 216.415 43.7542 216.919 44.251 217.302C44.7477 217.685 45.4587 217.876 46.3838 217.876ZM42.6035 210.719L42.6035 209.447L48.9678 209.447L48.9678 206.043L42.6035 206.043L42.6035 204.778L48.9678 204.778L48.9678 203.896L52.1943 204.02L52.1943 205.154L50 205.154L50 210.719L42.6035 210.719ZM50.1367 199.46C50.1367 200.463 49.8086 201.278 49.1523 201.907C48.4915 202.536 47.6097 202.851 46.5068 202.851L46.2744 202.851C45.5407 202.851 44.8867 202.712 44.3125 202.434C43.7337 202.151 43.2825 201.759 42.959 201.258C42.6309 200.752 42.4668 200.205 42.4668 199.617C42.4668 198.656 42.7835 197.908 43.417 197.375C44.0504 196.842 44.9573 196.575 46.1377 196.575L46.6641 196.575L46.6641 201.586C47.3932 201.568 47.9834 201.356 48.4346 200.95C48.8812 200.54 49.1045 200.021 49.1045 199.392C49.1045 198.945 49.0133 198.567 48.831 198.257C48.6488 197.947 48.4072 197.676 48.1064 197.443L48.708 196.671C49.6605 197.291 50.1367 198.22 50.1367 199.46ZM43.5059 199.617C43.5059 200.128 43.6927 200.556 44.0664 200.902C44.4355 201.249 44.9551 201.463 45.625 201.545L45.625 197.84L45.5293 197.84C44.8867 197.876 44.39 198.049 44.0391 198.359C43.6836 198.669 43.5059 199.089 43.5059 199.617ZM50 189.062L50 190.327L46.8418 190.327L46.8418 193.725L50 193.725L50 194.996L42.6035 194.996L42.6035 193.725L45.8096 193.725L45.8096 190.327L42.6035 190.327L42.6035 189.062L50 189.062ZM46.2334 187.36C45.5088 187.36 44.8571 187.219 44.2783 186.937C43.6995 186.649 43.2529 186.253 42.9385 185.747C42.624 185.237 42.4668 184.656 42.4668 184.004C42.4668 182.997 42.8154 182.183 43.5127 181.563C44.21 180.939 45.1374 180.627 46.2949 180.627L46.3838 180.627C47.1038 180.627 47.751 180.766 48.3252 181.044C48.8948 181.317 49.3392 181.712 49.6582 182.227C49.9772 182.737 50.1367 183.325 50.1367 183.99C50.1367 184.993 49.7881 185.806 49.0908 186.431C48.3935 187.05 47.4707 187.36 46.3223 187.36L46.2334 187.36ZM46.3838 186.089C47.2041 186.089 47.8626 185.9 48.3594 185.521C48.8561 185.139 49.1045 184.628 49.1045 183.99C49.1045 183.348 48.8538 182.837 48.3525 182.459C47.8467 182.081 47.1403 181.892 46.2334 181.892C45.4222 181.892 44.7659 182.085 44.2646 182.473C43.7588 182.855 43.5059 183.366 43.5059 184.004C43.5059 184.628 43.7542 185.132 44.251 185.515C44.7477 185.897 45.4587 186.089 46.3838 186.089ZM46.8486 176.737L46.8486 177.66L50 177.66L50 178.932L42.6035 178.932L42.6035 177.66L45.7344 177.66L45.7344 176.833L42.6035 174.345L42.6035 172.813L46.1582 175.739L50 172.567L50 174.174L46.8486 176.737ZM49.1045 165.041C49.1045 164.59 48.9678 164.196 48.6943 163.858C48.4209 163.521 48.0791 163.334 47.6689 163.298L47.6689 162.102C48.0928 162.124 48.4961 162.27 48.8789 162.539C49.2617 162.808 49.567 163.168 49.7949 163.619C50.0228 164.066 50.1367 164.54 50.1367 165.041C50.1367 166.048 49.8017 166.85 49.1318 167.447C48.4573 168.04 47.5368 168.336 46.3701 168.336L46.1582 168.336C45.4381 168.336 44.7978 168.204 44.2373 167.939C43.6767 167.675 43.2415 167.297 42.9316 166.805C42.6217 166.308 42.4668 165.722 42.4668 165.048C42.4668 164.218 42.7152 163.53 43.2119 162.983C43.7087 162.432 44.3535 162.138 45.1465 162.102L45.1465 163.298C44.668 163.334 44.276 163.517 43.9707 163.845C43.6608 164.168 43.5059 164.569 43.5059 165.048C43.5059 165.69 43.7383 166.189 44.2031 166.545C44.6634 166.896 45.331 167.071 46.206 167.071L46.4453 167.071C47.2975 167.071 47.9538 166.896 48.4141 166.545C48.8743 166.194 49.1045 165.693 49.1045 165.041ZM46.2334 161.015C45.5088 161.015 44.8571 160.873 44.2783 160.591C43.6995 160.304 43.2529 159.907 42.9385 159.401C42.624 158.891 42.4668 158.31 42.4668 157.658C42.4668 156.651 42.8154 155.838 43.5127 155.218C44.21 154.593 45.1374 154.281 46.2949 154.281L46.3838 154.281C47.1038 154.281 47.751 154.42 48.3252 154.698C48.8948 154.972 49.3392 155.366 49.6582 155.881C49.9772 156.391 50.1367 156.979 50.1367 157.645C50.1367 158.647 49.7881 159.461 49.0908 160.085C48.3935 160.705 47.4707 161.015 46.3223 161.015L46.2334 161.015ZM46.3838 159.743C47.2041 159.743 47.8626 159.554 48.3594 159.176C48.8561 158.793 49.1045 158.283 49.1045 157.645C49.1045 157.002 48.8538 156.492 48.3525 156.113C47.8467 155.735 47.1403 155.546 46.2334 155.546C45.4222 155.546 44.7659 155.74 44.2646 156.127C43.7588 156.51 43.5059 157.02 43.5059 157.658C43.5059 158.283 43.7542 158.786 44.251 159.169C44.7477 159.552 45.4587 159.743 46.3838 159.743ZM43.6494 147.917L43.6494 151.328L50 151.328L50 152.6L42.6035 152.6L42.6035 147.917L43.6494 147.917ZM42.6035 141.026L50 141.026L50 142.298L43.6494 142.298L43.6494 144.813L46.418 144.964C47.6894 145.046 48.5986 145.26 49.1455 145.606C49.6924 145.948 49.9772 146.493 50 147.24L50 147.746L48.8857 147.746L48.8584 147.384C48.8128 146.974 48.5758 146.68 48.1475 146.502C47.7191 146.324 46.9261 146.21 45.7685 146.16L42.6035 146.023L42.6035 141.026ZM50 134.43C49.8542 134.503 49.5944 134.562 49.2207 134.607C49.8314 135.195 50.1367 135.897 50.1367 136.713C50.1367 137.442 49.9316 138.041 49.5215 138.511C49.1068 138.976 48.5827 139.208 47.9492 139.208C47.179 139.208 46.582 138.916 46.1582 138.333C45.7298 137.745 45.5156 136.92 45.5156 135.858L45.5156 134.628L44.9346 134.628C44.4925 134.628 44.1416 134.76 43.8818 135.024C43.6175 135.289 43.4853 135.678 43.4853 136.193C43.4853 136.645 43.5993 137.023 43.8271 137.328C44.055 137.633 44.3307 137.786 44.6543 137.786L44.6543 139.058C44.2851 139.058 43.9297 138.928 43.5879 138.668C43.2415 138.404 42.9681 138.048 42.7676 137.602C42.567 137.15 42.4668 136.656 42.4668 136.118C42.4668 135.266 42.681 134.598 43.1094 134.115C43.5332 133.632 44.1188 133.382 44.8662 133.363L48.2705 133.363C48.9495 133.363 49.4896 133.277 49.8906 133.104L50 133.104L50 134.43ZM49.0361 136.528C49.0361 136.132 48.9336 135.756 48.7285 135.4C48.5234 135.045 48.2568 134.787 47.9287 134.628L46.4111 134.628L46.4111 135.619C46.4111 137.169 46.8646 137.943 47.7715 137.943C48.168 137.943 48.4779 137.811 48.7012 137.547C48.9245 137.283 49.0361 136.943 49.0361 136.528ZM49.1045 128.414C49.1045 127.963 48.9678 127.569 48.6943 127.231C48.4209 126.894 48.0791 126.707 47.6689 126.671L47.6689 125.475C48.0928 125.497 48.4961 125.643 48.8789 125.912C49.2617 126.181 49.567 126.541 49.7949 126.992C50.0228 127.439 50.1367 127.913 50.1367 128.414C50.1367 129.421 49.8017 130.223 49.1318 130.82C48.4573 131.413 47.5368 131.709 46.3701 131.709L46.1582 131.709C45.4381 131.709 44.7978 131.577 44.2373 131.312C43.6767 131.048 43.2415 130.67 42.9316 130.178C42.6217 129.681 42.4668 129.095 42.4668 128.421C42.4668 127.591 42.7152 126.903 43.2119 126.356C43.7086 125.805 44.3535 125.511 45.1465 125.475L45.1465 126.671C44.668 126.707 44.276 126.89 43.9707 127.218C43.6608 127.541 43.5058 127.942 43.5058 128.421C43.5058 129.063 43.7383 129.562 44.2031 129.918C44.6634 130.269 45.331 130.444 46.206 130.444L46.4453 130.444C47.2975 130.444 47.9538 130.269 48.4141 129.918C48.8743 129.567 49.1045 129.066 49.1045 128.414ZM50 118.01L50 119.274L46.8418 119.274L46.8418 122.672L50 122.672L50 123.943L42.6035 123.943L42.6035 122.672L45.8096 122.672L45.8096 119.274L42.6035 119.274L42.6035 118.01L50 118.01ZM46.2334 116.308C45.5088 116.308 44.8571 116.166 44.2783 115.884C43.6995 115.597 43.2529 115.2 42.9385 114.694C42.624 114.184 42.4668 113.603 42.4668 112.951C42.4668 111.944 42.8154 111.131 43.5127 110.511C44.2099 109.886 45.1374 109.574 46.2949 109.574L46.3838 109.574C47.1038 109.574 47.751 109.713 48.3252 109.991C48.8948 110.265 49.3392 110.659 49.6582 111.174C49.9772 111.684 50.1367 112.272 50.1367 112.937C50.1367 113.94 49.7881 114.754 49.0908 115.378C48.3935 115.998 47.4707 116.308 46.3223 116.308L46.2334 116.308ZM46.3838 115.036C47.2041 115.036 47.8626 114.847 48.3594 114.469C48.8561 114.086 49.1045 113.576 49.1045 112.937C49.1045 112.295 48.8538 111.785 48.3525 111.406C47.8467 111.028 47.1403 110.839 46.2334 110.839C45.4222 110.839 44.7659 111.033 44.2646 111.42C43.7588 111.803 43.5058 112.313 43.5058 112.951C43.5058 113.576 43.7542 114.079 44.251 114.462C44.7477 114.845 45.4586 115.036 46.3838 115.036ZM58.6035 336.76L66 336.76L66 338.031L59.6494 338.031L59.6494 340.547L62.418 340.697C63.6895 340.779 64.5986 340.993 65.1455 341.34C65.6924 341.682 65.9772 342.226 66 342.974L66 343.479L64.8857 343.479L64.8584 343.117C64.8128 342.707 64.5758 342.413 64.1475 342.235C63.7191 342.058 62.9261 341.944 61.7686 341.894L58.6035 341.757L58.6035 336.76ZM58.6035 329.944L58.6035 328.68L66 328.68L66 329.944L60.6064 329.944L66 333.355L66 334.62L58.6035 334.62L58.6035 333.355L64.0039 333.355L58.6035 329.944ZM66 321.064L66 322.336L63.3203 322.336C63.4661 322.892 63.5391 323.462 63.5391 324.045C63.5391 324.97 63.3021 325.676 62.8281 326.164C62.3542 326.647 61.6797 326.893 60.8047 326.902L58.5967 326.902L58.5967 325.638L60.8457 325.638C61.9486 325.615 62.5 325.084 62.5 324.045C62.5 323.462 62.4271 322.892 62.2812 322.336L58.6035 322.336L58.6035 321.064L66 321.064ZM66 312.991L66 314.256L62.8418 314.256L62.8418 317.653L66 317.653L66 318.925L58.6035 318.925L58.6035 317.653L61.8096 317.653L61.8096 314.256L58.6035 314.256L58.6035 312.991L66 312.991ZM62.2334 311.289C61.5088 311.289 60.8571 311.148 60.2783 310.865C59.6995 310.578 59.2529 310.182 58.9385 309.676C58.624 309.165 58.4668 308.584 58.4668 307.933C58.4668 306.925 58.8154 306.112 59.5127 305.492C60.21 304.868 61.1374 304.556 62.2949 304.556L62.3838 304.556C63.1038 304.556 63.751 304.695 64.3252 304.973C64.8949 305.246 65.3392 305.64 65.6582 306.155C65.9772 306.666 66.1367 307.254 66.1367 307.919C66.1367 308.922 65.7881 309.735 65.0908 310.359C64.3936 310.979 63.4707 311.289 62.3223 311.289L62.2334 311.289ZM62.3838 310.018C63.2041 310.018 63.8626 309.828 64.3594 309.45C64.8561 309.067 65.1045 308.557 65.1045 307.919C65.1045 307.276 64.8538 306.766 64.3525 306.388C63.8467 306.009 63.1403 305.82 62.2334 305.82C61.4222 305.82 60.7659 306.014 60.2646 306.401C59.7588 306.784 59.5059 307.295 59.5059 307.933C59.5059 308.557 59.7542 309.061 60.251 309.443C60.7477 309.826 61.4587 310.018 62.3838 310.018ZM65.1045 300.003C65.1045 299.552 64.9678 299.158 64.6943 298.82C64.4209 298.483 64.0791 298.296 63.6689 298.26L63.6689 297.063C64.0928 297.086 64.4961 297.232 64.8789 297.501C65.2617 297.77 65.5671 298.13 65.7949 298.581C66.0228 299.028 66.1367 299.502 66.1367 300.003C66.1367 301.01 65.8018 301.812 65.1318 302.409C64.4574 303.002 63.5368 303.298 62.3701 303.298L62.1582 303.298C61.4381 303.298 60.7978 303.166 60.2373 302.901C59.6768 302.637 59.2415 302.259 58.9316 301.767C58.6217 301.27 58.4668 300.684 58.4668 300.01C58.4668 299.18 58.7152 298.492 59.2119 297.945C59.7087 297.394 60.3535 297.1 61.1465 297.063L61.1465 298.26C60.668 298.296 60.276 298.479 59.9707 298.807C59.6608 299.13 59.5059 299.531 59.5059 300.01C59.5059 300.652 59.7383 301.151 60.2031 301.507C60.6634 301.858 61.3311 302.033 62.2061 302.033L62.4453 302.033C63.2975 302.033 63.9538 301.858 64.4141 301.507C64.8743 301.156 65.1045 300.655 65.1045 300.003ZM59.6289 290.146L59.6289 292.627L66 292.627L66 293.892L59.6289 293.892L59.6289 296.325L58.6035 296.325L58.6035 290.146L59.6289 290.146ZM66 282.872L66 284.137L62.8418 284.137L62.8418 287.534L66 287.534L66 288.806L58.6035 288.806L58.6035 287.534L61.8096 287.534L61.8096 284.137L58.6035 284.137L58.6035 282.872L66 282.872ZM62.2334 281.17C61.5088 281.17 60.8571 281.029 60.2783 280.746C59.6995 280.459 59.2529 280.062 58.9385 279.557C58.624 279.046 58.4668 278.465 58.4668 277.813C58.4668 276.806 58.8154 275.993 59.5127 275.373C60.21 274.749 61.1374 274.437 62.2949 274.437L62.3838 274.437C63.1038 274.437 63.751 274.576 64.3252 274.854C64.8949 275.127 65.3392 275.521 65.6582 276.036C65.9772 276.547 66.1367 277.134 66.1367 277.8C66.1367 278.802 65.7881 279.616 65.0908 280.24C64.3936 280.86 63.4707 281.17 62.3223 281.17L62.2334 281.17ZM62.3838 279.898C63.2041 279.898 63.8626 279.709 64.3594 279.331C64.8561 278.948 65.1045 278.438 65.1045 277.8C65.1045 277.157 64.8538 276.647 64.3525 276.269C63.8467 275.89 63.1403 275.701 62.2334 275.701C61.4222 275.701 60.7659 275.895 60.2646 276.282C59.7588 276.665 59.5059 277.175 59.5059 277.813C59.5059 278.438 59.7542 278.941 60.251 279.324C60.7477 279.707 61.4587 279.898 62.3838 279.898ZM64.3252 268.592L58.6035 266.076L58.6035 264.497L66 264.497L66 265.762L60.6201 265.762L66 268.154L66 269.029L60.5039 271.47L66 271.47L66 272.734L58.6035 272.734L58.6035 271.094L64.3252 268.592ZM64.1475 260.04L58.6035 258.317L58.6035 256.964L67.1416 259.937C68.3721 260.398 68.9873 261.129 68.9873 262.132L68.9668 262.371L68.8779 262.843L67.8525 262.843L67.8799 262.501C67.8799 262.073 67.7933 261.74 67.6201 261.503C67.4469 261.261 67.1302 261.063 66.6699 260.908L65.918 260.628L58.6035 263.267L58.6035 261.886L64.1475 260.04ZM62.2334 252.691C61.5088 252.691 60.8571 252.55 60.2783 252.268C59.6995 251.98 59.2529 251.584 58.9385 251.078C58.624 250.568 58.4668 249.987 58.4668 249.335C58.4668 248.328 58.8154 247.514 59.5127 246.895C60.21 246.27 61.1374 245.958 62.2949 245.958L62.3838 245.958C63.1038 245.958 63.751 246.097 64.3252 246.375C64.8949 246.648 65.3392 247.043 65.6582 247.558C65.9772 248.068 66.1367 248.656 66.1367 249.321C66.1367 250.324 65.7881 251.137 65.0908 251.762C64.3935 252.382 63.4707 252.691 62.3223 252.691L62.2334 252.691ZM62.3838 251.42C63.2041 251.42 63.8626 251.231 64.3594 250.853C64.8561 250.47 65.1045 249.959 65.1045 249.321C65.1045 248.679 64.8538 248.168 64.3525 247.79C63.8467 247.412 63.1403 247.223 62.2334 247.223C61.4222 247.223 60.7659 247.416 60.2646 247.804C59.7588 248.187 59.5059 248.697 59.5059 249.335C59.5059 249.959 59.7542 250.463 60.251 250.846C60.7477 251.229 61.4587 251.42 62.3838 251.42ZM66 238.322L66 239.587L59.6494 239.587L59.6494 242.991L66 242.991L66 244.263L58.6035 244.263L58.6035 238.322L66 238.322ZM62.3838 230.044C63.5094 230.044 64.4163 230.301 65.1045 230.816C65.7926 231.331 66.1367 232.029 66.1367 232.908C66.1367 233.806 65.8519 234.512 65.2822 235.027L68.8437 235.027L68.8437 236.292L58.6035 236.292L58.6035 235.137L59.4238 235.075C58.7858 234.56 58.4668 233.845 58.4668 232.929C58.4668 232.04 58.8018 231.338 59.4717 230.823C60.1416 230.304 61.0736 230.044 62.2676 230.044L62.3838 230.044ZM62.2402 231.309C61.4062 231.309 60.7477 231.486 60.2646 231.842C59.7816 232.197 59.54 232.685 59.54 233.305C59.54 234.07 59.8796 234.645 60.5586 235.027L64.0928 235.027C64.7672 234.649 65.1045 234.07 65.1045 233.291C65.1045 232.685 64.8652 232.204 64.3867 231.849C63.9036 231.489 63.1881 231.309 62.2402 231.309ZM62.2334 228.766C61.5088 228.766 60.8571 228.624 60.2783 228.342C59.6995 228.055 59.2529 227.658 58.9385 227.152C58.624 226.642 58.4668 226.061 58.4668 225.409C58.4668 224.402 58.8154 223.589 59.5127 222.969C60.21 222.344 61.1374 222.032 62.2949 222.032L62.3838 222.032C63.1038 222.032 63.751 222.171 64.3252 222.449C64.8949 222.723 65.3392 223.117 65.6582 223.632C65.9772 224.142 66.1367 224.73 66.1367 225.396C66.1367 226.398 65.7881 227.212 65.0908 227.836C64.3935 228.456 63.4707 228.766 62.3223 228.766L62.2334 228.766ZM62.3838 227.494C63.2041 227.494 63.8626 227.305 64.3594 226.927C64.8561 226.544 65.1045 226.034 65.1045 225.396C65.1045 224.753 64.8538 224.243 64.3525 223.864C63.8467 223.486 63.1403 223.297 62.2334 223.297C61.4222 223.297 60.7659 223.491 60.2646 223.878C59.7588 224.261 59.5059 224.771 59.5059 225.409C59.5059 226.034 59.7542 226.537 60.251 226.92C60.7477 227.303 61.4587 227.494 62.3838 227.494ZM65.1045 217.479C65.1045 217.028 64.9678 216.634 64.6943 216.297C64.4209 215.96 64.0791 215.773 63.6689 215.736L63.6689 214.54C64.0928 214.563 64.4961 214.709 64.8789 214.978C65.2617 215.246 65.5671 215.606 65.7949 216.058C66.0228 216.504 66.1367 216.978 66.1367 217.479C66.1367 218.487 65.8018 219.289 65.1318 219.886C64.4574 220.478 63.5368 220.774 62.3701 220.774L62.1582 220.774C61.4381 220.774 60.7978 220.642 60.2373 220.378C59.6768 220.114 59.2415 219.735 58.9316 219.243C58.6217 218.746 58.4668 218.161 58.4668 217.486C58.4668 216.657 58.7152 215.969 59.2119 215.422C59.7087 214.87 60.3535 214.576 61.1465 214.54L61.1465 215.736C60.668 215.773 60.276 215.955 59.9707 216.283C59.6608 216.607 59.5059 217.008 59.5059 217.486C59.5059 218.129 59.7383 218.628 60.2031 218.983C60.6634 219.334 61.331 219.51 62.206 219.51L62.4453 219.51C63.2975 219.51 63.9538 219.334 64.4141 218.983C64.8743 218.632 65.1045 218.131 65.1045 217.479ZM66 207.075L66 208.34L62.8418 208.34L62.8418 211.737L66 211.737L66 213.009L58.6035 213.009L58.6035 211.737L61.8096 211.737L61.8096 208.34L58.6035 208.34L58.6035 207.075L66 207.075ZM58.6035 200.253L58.6035 198.988L66 198.988L66 200.253L60.6064 200.253L66 203.664L66 204.929L58.6035 204.929L58.6035 203.664L64.0039 203.664L58.6035 200.253ZM62.8486 194.654L62.8486 195.577L66 195.577L66 196.849L58.6035 196.849L58.6035 195.577L61.7344 195.577L61.7344 194.75L58.6035 192.262L58.6035 190.73L62.1582 193.656L66 190.484L66 192.091L62.8486 194.654ZM64.1475 186.978L58.6035 185.255L58.6035 183.901L67.1416 186.875C68.3721 187.335 68.9873 188.067 68.9873 189.069L68.9668 189.309L68.8779 189.78L67.8525 189.78L67.8799 189.438C67.8799 189.01 67.7933 188.677 67.6201 188.44C67.4469 188.199 67.1302 188.001 66.6699 187.846L65.918 187.565L58.6035 190.204L58.6035 188.823L64.1475 186.978ZM61.5293 176.512L61.5293 177.722L66 177.722L66 179.034L56.0469 179.034L56.0469 177.722L60.4355 177.722L60.4355 176.696L56.0469 173.217L56.0469 171.583L60.873 175.384L66 171.303L66 172.909L61.5293 176.512ZM66 165.731C65.8542 165.804 65.5944 165.864 65.2207 165.909C65.8314 166.497 66.1367 167.199 66.1367 168.015C66.1367 168.744 65.9316 169.343 65.5215 169.812C65.1068 170.277 64.5827 170.51 63.9492 170.51C63.179 170.51 62.582 170.218 62.1582 169.635C61.7298 169.047 61.5156 168.222 61.5156 167.16L61.5156 165.93L60.9346 165.93C60.4925 165.93 60.1416 166.062 59.8818 166.326C59.6175 166.59 59.4853 166.98 59.4853 167.495C59.4853 167.946 59.5993 168.325 59.8271 168.63C60.055 168.935 60.3307 169.088 60.6543 169.088L60.6543 170.359C60.2851 170.359 59.9297 170.229 59.5879 169.97C59.2415 169.705 58.9681 169.35 58.7676 168.903C58.567 168.452 58.4668 167.958 58.4668 167.42C58.4668 166.568 58.681 165.9 59.1094 165.417C59.5332 164.934 60.1188 164.683 60.8662 164.665L64.2705 164.665C64.9495 164.665 65.4896 164.578 65.8906 164.405L66 164.405L66 165.731ZM65.0361 167.83C65.0361 167.434 64.9336 167.058 64.7285 166.702C64.5234 166.347 64.2568 166.089 63.9287 165.93L62.4111 165.93L62.4111 166.921C62.4111 168.47 62.8646 169.245 63.7715 169.245C64.168 169.245 64.4779 169.113 64.7012 168.849C64.9245 168.584 65.0361 168.245 65.0361 167.83ZM59.6289 157.296L59.6289 159.777L66 159.777L66 161.042L59.6289 161.042L59.6289 163.476L58.6035 163.476L58.6035 157.296L59.6289 157.296ZM59.6289 150.569L59.6289 153.051L66 153.051L66 154.315L59.6289 154.315L59.6289 156.749L58.6035 156.749L58.6035 150.569L59.6289 150.569ZM66.1367 146.816C66.1367 147.819 65.8086 148.635 65.1523 149.264C64.4915 149.893 63.6097 150.207 62.5068 150.207L62.2744 150.207C61.5407 150.207 60.8867 150.068 60.3125 149.79C59.7337 149.507 59.2825 149.116 58.959 148.614C58.6309 148.108 58.4668 147.562 58.4668 146.974C58.4668 146.012 58.7835 145.265 59.417 144.731C60.0504 144.198 60.9573 143.932 62.1377 143.932L62.6641 143.932L62.6641 148.942C63.3932 148.924 63.9834 148.712 64.4346 148.307C64.8812 147.896 65.1045 147.377 65.1045 146.748C65.1045 146.301 65.0133 145.923 64.831 145.613C64.6488 145.303 64.4072 145.032 64.1064 144.8L64.708 144.027C65.6605 144.647 66.1367 145.577 66.1367 146.816ZM59.5059 146.974C59.5059 147.484 59.6927 147.912 60.0664 148.259C60.4355 148.605 60.9551 148.819 61.625 148.901L61.625 145.196L61.5293 145.196C60.8867 145.233 60.39 145.406 60.0391 145.716C59.6836 146.026 59.5059 146.445 59.5059 146.974ZM58.6035 136.398L66 136.398L66 137.67L59.6494 137.67L59.6494 140.186L62.418 140.336C63.6894 140.418 64.5986 140.632 65.1455 140.979C65.6924 141.32 65.9772 141.865 66 142.612L66 143.118L64.8857 143.118L64.8584 142.756C64.8128 142.346 64.5758 142.052 64.1475 141.874C63.7191 141.696 62.9261 141.582 61.7685 141.532L58.6035 141.396L58.6035 136.398ZM58.6035 128.305L66 128.305L66 129.576L59.6494 129.576L59.6494 132.092L62.418 132.242C63.6894 132.324 64.5986 132.538 65.1455 132.885C65.6924 133.227 65.9772 133.771 66 134.519L66 135.024L64.8857 135.024L64.8584 134.662C64.8128 134.252 64.5758 133.958 64.1475 133.78C63.7191 133.603 62.9261 133.489 61.7685 133.438L58.6035 133.302L58.6035 128.305ZM66 121.708C65.8542 121.781 65.5944 121.84 65.2207 121.886C65.8314 122.474 66.1367 123.175 66.1367 123.991C66.1367 124.72 65.9316 125.32 65.5215 125.789C65.1068 126.254 64.5827 126.486 63.9492 126.486C63.179 126.486 62.582 126.195 62.1582 125.611C61.7298 125.023 61.5156 124.199 61.5156 123.137L61.5156 121.906L60.9346 121.906C60.4925 121.906 60.1416 122.038 59.8818 122.303C59.6175 122.567 59.4853 122.957 59.4853 123.472C59.4853 123.923 59.5993 124.301 59.8271 124.606C60.055 124.912 60.3307 125.064 60.6543 125.064L60.6543 126.336C60.2851 126.336 59.9297 126.206 59.5879 125.946C59.2415 125.682 58.9681 125.326 58.7676 124.88C58.567 124.429 58.4668 123.934 58.4668 123.396C58.4668 122.544 58.681 121.877 59.1094 121.394C59.5332 120.91 60.1188 120.66 60.8662 120.642L64.2705 120.642C64.9495 120.642 65.4896 120.555 65.8906 120.382L66 120.382L66 121.708ZM65.0361 123.807C65.0361 123.41 64.9336 123.034 64.7285 122.679C64.5234 122.323 64.2568 122.066 63.9287 121.906L62.4111 121.906L62.4111 122.897C62.4111 124.447 62.8646 125.222 63.7715 125.222C64.168 125.222 64.4779 125.09 64.7012 124.825C64.9245 124.561 65.0361 124.221 65.0361 123.807Z" fill="#4B4B4B"></path> <path d="M230.245 95.0469L233.499 103.168L236.753 95.0469H238.455V105H237.143V101.124L237.266 96.9404L233.998 105H232.993L229.732 96.9609L229.862 101.124V105H228.55V95.0469H230.245ZM245.141 105C245.068 104.854 245.008 104.594 244.963 104.221C244.375 104.831 243.673 105.137 242.857 105.137C242.128 105.137 241.529 104.932 241.06 104.521C240.595 104.107 240.362 103.583 240.362 102.949C240.362 102.179 240.654 101.582 241.237 101.158C241.825 100.73 242.65 100.516 243.712 100.516H244.942V99.9346C244.942 99.4925 244.81 99.1416 244.546 98.8818C244.282 98.6175 243.892 98.4854 243.377 98.4854C242.926 98.4854 242.548 98.5993 242.242 98.8271C241.937 99.055 241.784 99.3307 241.784 99.6543H240.513C240.513 99.2852 240.643 98.9297 240.902 98.5879C241.167 98.2415 241.522 97.9681 241.969 97.7676C242.42 97.5671 242.914 97.4668 243.452 97.4668C244.304 97.4668 244.972 97.681 245.455 98.1094C245.938 98.5332 246.189 99.1188 246.207 99.8662V103.271C246.207 103.95 246.294 104.49 246.467 104.891V105H245.141ZM243.042 104.036C243.438 104.036 243.814 103.934 244.17 103.729C244.525 103.523 244.783 103.257 244.942 102.929V101.411H243.951C242.402 101.411 241.627 101.865 241.627 102.771C241.627 103.168 241.759 103.478 242.023 103.701C242.288 103.924 242.627 104.036 243.042 104.036ZM253.576 98.6289H251.095V105H249.83V98.6289H247.396V97.6035H253.576V98.6289ZM257.329 105.137C256.326 105.137 255.511 104.809 254.882 104.152C254.253 103.492 253.938 102.61 253.938 101.507V101.274C253.938 100.541 254.077 99.8867 254.355 99.3125C254.638 98.7337 255.03 98.2826 255.531 97.959C256.037 97.6309 256.584 97.4668 257.172 97.4668C258.133 97.4668 258.881 97.7835 259.414 98.417C259.947 99.0505 260.214 99.9574 260.214 101.138V101.664H255.203C255.221 102.393 255.433 102.983 255.839 103.435C256.249 103.881 256.769 104.104 257.397 104.104C257.844 104.104 258.222 104.013 258.532 103.831C258.842 103.649 259.113 103.407 259.346 103.106L260.118 103.708C259.498 104.66 258.569 105.137 257.329 105.137ZM257.172 98.5059C256.661 98.5059 256.233 98.6927 255.887 99.0664C255.54 99.4355 255.326 99.9551 255.244 100.625H258.949V100.529C258.913 99.8867 258.74 99.39 258.43 99.0391C258.12 98.6836 257.701 98.5059 257.172 98.5059ZM265.942 103.325L268.458 97.6035H270.037V105H268.772V99.6201L266.38 105H265.505L263.064 99.5039V105H261.8V97.6035H263.44L265.942 103.325ZM276.641 105C276.568 104.854 276.508 104.594 276.463 104.221C275.875 104.831 275.173 105.137 274.357 105.137C273.628 105.137 273.029 104.932 272.56 104.521C272.095 104.107 271.862 103.583 271.862 102.949C271.862 102.179 272.154 101.582 272.737 101.158C273.325 100.73 274.15 100.516 275.212 100.516H276.442V99.9346C276.442 99.4925 276.31 99.1416 276.046 98.8818C275.782 98.6175 275.392 98.4854 274.877 98.4854C274.426 98.4854 274.048 98.5993 273.742 98.8271C273.437 99.055 273.284 99.3307 273.284 99.6543H272.013C272.013 99.2852 272.143 98.9297 272.402 98.5879C272.667 98.2415 273.022 97.9681 273.469 97.7676C273.92 97.5671 274.414 97.4668 274.952 97.4668C275.804 97.4668 276.472 97.681 276.955 98.1094C277.438 98.5332 277.689 99.1188 277.707 99.8662V103.271C277.707 103.95 277.794 104.49 277.967 104.891V105H276.641ZM274.542 104.036C274.938 104.036 275.314 103.934 275.67 103.729C276.025 103.523 276.283 103.257 276.442 102.929V101.411H275.451C273.902 101.411 273.127 101.865 273.127 102.771C273.127 103.168 273.259 103.478 273.523 103.701C273.788 103.924 274.127 104.036 274.542 104.036ZM285.076 98.6289H282.595V105H281.33V98.6289H278.896V97.6035H285.076V98.6289ZM291.092 97.6035H292.356V105H291.092V99.6064L287.681 105H286.416V97.6035H287.681V103.004L291.092 97.6035ZM296.69 101.849H295.768V105H294.496V97.6035H295.768V100.734H296.595L299.083 97.6035H300.614L297.688 101.158L300.86 105H299.254L296.69 101.849ZM306.514 105C306.441 104.854 306.382 104.594 306.336 104.221C305.748 104.831 305.046 105.137 304.23 105.137C303.501 105.137 302.902 104.932 302.433 104.521C301.968 104.107 301.735 103.583 301.735 102.949C301.735 102.179 302.027 101.582 302.61 101.158C303.198 100.73 304.023 100.516 305.085 100.516H306.315V99.9346C306.315 99.4925 306.183 99.1416 305.919 98.8818C305.655 98.6175 305.265 98.4854 304.75 98.4854C304.299 98.4854 303.921 98.5993 303.615 98.8271C303.31 99.055 303.157 99.3307 303.157 99.6543H301.886C301.886 99.2852 302.016 98.9297 302.275 98.5879C302.54 98.2415 302.895 97.9681 303.342 97.7676C303.793 97.5671 304.287 97.4668 304.825 97.4668C305.677 97.4668 306.345 97.681 306.828 98.1094C307.311 98.5332 307.562 99.1188 307.58 99.8662V103.271C307.58 103.95 307.667 104.49 307.84 104.891V105H306.514ZM304.415 104.036C304.812 104.036 305.188 103.934 305.543 103.729C305.898 103.523 306.156 103.257 306.315 102.929V101.411H305.324C303.775 101.411 303 101.865 303 102.771C303 103.168 303.132 103.478 303.396 103.701C303.661 103.924 304 104.036 304.415 104.036Z" fill="#4B4B4B"></path> <path d="M495.091 102.402H490.921L489.984 105H488.631L492.432 95.0469H493.58L497.388 105H496.041L495.091 102.402ZM491.317 101.322H494.701L493.006 96.667L491.317 101.322ZM504.572 105H503.308V101.842H499.91V105H498.639V97.6035H499.91V100.81H503.308V97.6035H504.572V105ZM511.388 98.6494H507.977V105H506.705V97.6035H511.388V98.6494ZM518.278 97.6035V105H517.007V98.6494H514.491L514.341 101.418C514.259 102.689 514.045 103.599 513.698 104.146C513.356 104.692 512.812 104.977 512.064 105H511.559V103.886L511.921 103.858C512.331 103.813 512.625 103.576 512.803 103.147C512.98 102.719 513.094 101.926 513.145 100.769L513.281 97.6035H518.278ZM525.094 97.6035H526.358V105H525.094V99.6064L521.683 105H520.418V97.6035H521.683V103.004L525.094 97.6035ZM533.174 97.6035H534.438V105H533.174V99.6064L529.763 105H528.498V97.6035H529.763V103.004L533.174 97.6035ZM533.516 94.9102C533.516 95.4616 533.326 95.9059 532.948 96.2432C532.575 96.5758 532.082 96.7422 531.472 96.7422C530.861 96.7422 530.367 96.5736 529.988 96.2363C529.61 95.8991 529.421 95.457 529.421 94.9102H530.453C530.453 95.2292 530.54 95.4798 530.713 95.6621C530.886 95.8398 531.139 95.9287 531.472 95.9287C531.791 95.9287 532.039 95.8398 532.217 95.6621C532.399 95.4844 532.49 95.2337 532.49 94.9102H533.516ZM539.436 104.104C539.887 104.104 540.281 103.968 540.618 103.694C540.955 103.421 541.142 103.079 541.179 102.669H542.375C542.352 103.093 542.206 103.496 541.938 103.879C541.669 104.262 541.309 104.567 540.857 104.795C540.411 105.023 539.937 105.137 539.436 105.137C538.428 105.137 537.626 104.802 537.029 104.132C536.437 103.457 536.141 102.537 536.141 101.37V101.158C536.141 100.438 536.273 99.7979 536.537 99.2373C536.801 98.6768 537.18 98.2415 537.672 97.9316C538.169 97.6217 538.754 97.4668 539.429 97.4668C540.258 97.4668 540.946 97.7152 541.493 98.2119C542.045 98.7087 542.339 99.3535 542.375 100.146H541.179C541.142 99.668 540.96 99.276 540.632 98.9707C540.308 98.6608 539.907 98.5059 539.429 98.5059C538.786 98.5059 538.287 98.7383 537.932 99.2031C537.581 99.6634 537.405 100.331 537.405 101.206V101.445C537.405 102.298 537.581 102.954 537.932 103.414C538.283 103.874 538.784 104.104 539.436 104.104ZM546.101 101.849H545.178V105H543.906V97.6035H545.178V100.734H546.005L548.493 97.6035H550.024L547.099 101.158L550.271 105H548.664L546.101 101.849ZM556.143 97.6035H557.407V105H556.143V99.6064L552.731 105H551.467V97.6035H552.731V103.004L556.143 97.6035ZM564.223 97.6035H565.487V105H564.223V99.6064L560.812 105H559.547V97.6035H560.812V103.004L564.223 97.6035ZM564.564 94.9102C564.564 95.4616 564.375 95.9059 563.997 96.2432C563.623 96.5758 563.131 96.7422 562.521 96.7422C561.91 96.7422 561.415 96.5736 561.037 96.2363C560.659 95.8991 560.47 95.457 560.47 94.9102H561.502C561.502 95.2292 561.589 95.4798 561.762 95.6621C561.935 95.8398 562.188 95.9287 562.521 95.9287C562.84 95.9287 563.088 95.8398 563.266 95.6621C563.448 95.4844 563.539 95.2337 563.539 94.9102H564.564Z" fill="#4B4B4B"></path> <path d="M282 341L366 341C368.209 341 370 339.209 370 337L370 237C370 234.791 368.209 233 366 233L282 233C279.791 233 278 234.791 278 237L278 337C278 339.209 279.791 341 282 341Z" fill="#D09CC7"></path> <path d="M168 231L252 231C254.209 231 256 229.209 256 227L256 135C256 132.791 254.209 131 252 131L168 131C165.791 131 164 132.791 164 135L164 227C164 229.209 165.791 231 168 231Z" fill="#6FC4E2"></path> <path d="M538 271L622 271C624.209 271 626 269.209 626 267L626 237C626 234.791 624.209 233 622 233L538 233C535.791 233 534 234.791 534 237L534 267C534 269.209 535.791 271 538 271Z" fill="#D09CC7"></path> <path d="M508 230.5L424 230.5C422.067 230.5 420.5 228.933 420.5 227L420.5 179C420.5 177.067 422.067 175.5 424 175.5L508 175.5C509.933 175.5 511.5 177.067 511.5 179L511.5 227C511.5 228.933 509.933 230.5 508 230.5Z" fill="#6FC4E2" stroke="#6FC4E2"></path> <path d="M245.734 366.879V374.438H244.322V365.66H245.623L245.734 366.879ZM249.865 368.771V368.895C249.865 369.355 249.811 369.783 249.701 370.178C249.596 370.568 249.438 370.91 249.227 371.203C249.02 371.492 248.764 371.717 248.459 371.877C248.154 372.037 247.803 372.117 247.404 372.117C247.01 372.117 246.664 372.045 246.367 371.9C246.074 371.752 245.826 371.543 245.623 371.273C245.42 371.004 245.256 370.688 245.131 370.324C245.01 369.957 244.924 369.555 244.873 369.117V368.643C244.924 368.178 245.01 367.756 245.131 367.377C245.256 366.998 245.42 366.672 245.623 366.398C245.826 366.125 246.074 365.914 246.367 365.766C246.66 365.617 247.002 365.543 247.393 365.543C247.791 365.543 248.145 365.621 248.453 365.777C248.762 365.93 249.021 366.148 249.232 366.434C249.443 366.715 249.602 367.055 249.707 367.453C249.812 367.848 249.865 368.287 249.865 368.771ZM248.453 368.895V368.771C248.453 368.479 248.426 368.207 248.371 367.957C248.316 367.703 248.23 367.48 248.113 367.289C247.996 367.098 247.846 366.949 247.662 366.844C247.482 366.734 247.266 366.68 247.012 366.68C246.762 366.68 246.547 366.723 246.367 366.809C246.188 366.891 246.037 367.006 245.916 367.154C245.795 367.303 245.701 367.477 245.635 367.676C245.568 367.871 245.521 368.084 245.494 368.314V369.451C245.541 369.732 245.621 369.99 245.734 370.225C245.848 370.459 246.008 370.646 246.215 370.787C246.426 370.924 246.695 370.992 247.023 370.992C247.277 370.992 247.494 370.938 247.674 370.828C247.854 370.719 248 370.568 248.113 370.377C248.23 370.182 248.316 369.957 248.371 369.703C248.426 369.449 248.453 369.18 248.453 368.895ZM251.77 368.15L255.643 369.633V371.021L250.703 368.842V367.922L251.77 368.15ZM255.643 366.938L251.77 368.443L250.703 368.648V367.729L255.643 365.555V366.938ZM262.65 367.02V368.414C262.65 369.082 262.584 369.652 262.451 370.125C262.322 370.594 262.135 370.975 261.889 371.268C261.643 371.561 261.348 371.775 261.004 371.912C260.664 372.049 260.283 372.117 259.861 372.117C259.525 372.117 259.213 372.074 258.924 371.988C258.639 371.902 258.381 371.768 258.15 371.584C257.92 371.4 257.723 371.164 257.559 370.875C257.398 370.582 257.273 370.232 257.184 369.826C257.098 369.42 257.055 368.949 257.055 368.414V367.02C257.055 366.348 257.121 365.781 257.254 365.32C257.387 364.855 257.576 364.479 257.822 364.189C258.068 363.896 258.361 363.684 258.701 363.551C259.045 363.418 259.428 363.352 259.85 363.352C260.189 363.352 260.502 363.395 260.787 363.48C261.076 363.562 261.334 363.693 261.561 363.873C261.791 364.053 261.986 364.287 262.146 364.576C262.311 364.861 262.436 365.207 262.521 365.613C262.607 366.016 262.65 366.484 262.65 367.02ZM261.238 368.613V366.809C261.238 366.469 261.219 366.17 261.18 365.912C261.141 365.65 261.082 365.43 261.004 365.25C260.93 365.066 260.836 364.918 260.723 364.805C260.609 364.688 260.48 364.604 260.336 364.553C260.191 364.498 260.029 364.471 259.85 364.471C259.631 364.471 259.436 364.514 259.264 364.6C259.092 364.682 258.947 364.814 258.83 364.998C258.713 365.182 258.623 365.424 258.561 365.725C258.502 366.021 258.473 366.383 258.473 366.809V368.613C258.473 368.957 258.492 369.26 258.531 369.521C258.57 369.783 258.629 370.008 258.707 370.195C258.785 370.379 258.879 370.531 258.988 370.652C259.102 370.77 259.23 370.855 259.375 370.91C259.523 370.965 259.686 370.992 259.861 370.992C260.084 370.992 260.281 370.949 260.453 370.863C260.625 370.777 260.77 370.641 260.887 370.453C261.004 370.262 261.092 370.014 261.15 369.709C261.209 369.404 261.238 369.039 261.238 368.613ZM265.316 370.641L265.311 371.648C265.311 372.047 265.211 372.457 265.012 372.879C264.812 373.301 264.549 373.648 264.221 373.922L263.465 373.482C263.574 373.307 263.674 373.129 263.764 372.949C263.854 372.77 263.926 372.578 263.98 372.375C264.035 372.172 264.062 371.947 264.062 371.701V370.641H265.316ZM272.154 367.02V368.414C272.154 369.082 272.088 369.652 271.955 370.125C271.826 370.594 271.639 370.975 271.393 371.268C271.146 371.561 270.852 371.775 270.508 371.912C270.168 372.049 269.787 372.117 269.365 372.117C269.029 372.117 268.717 372.074 268.428 371.988C268.143 371.902 267.885 371.768 267.654 371.584C267.424 371.4 267.227 371.164 267.062 370.875C266.902 370.582 266.777 370.232 266.688 369.826C266.602 369.42 266.559 368.949 266.559 368.414V367.02C266.559 366.348 266.625 365.781 266.758 365.32C266.891 364.855 267.08 364.479 267.326 364.189C267.572 363.896 267.865 363.684 268.205 363.551C268.549 363.418 268.932 363.352 269.354 363.352C269.693 363.352 270.006 363.395 270.291 363.48C270.58 363.562 270.838 363.693 271.064 363.873C271.295 364.053 271.49 364.287 271.65 364.576C271.814 364.861 271.939 365.207 272.025 365.613C272.111 366.016 272.154 366.484 272.154 367.02ZM270.742 368.613V366.809C270.742 366.469 270.723 366.17 270.684 365.912C270.645 365.65 270.586 365.43 270.508 365.25C270.434 365.066 270.34 364.918 270.227 364.805C270.113 364.688 269.984 364.604 269.84 364.553C269.695 364.498 269.533 364.471 269.354 364.471C269.135 364.471 268.939 364.514 268.768 364.6C268.596 364.682 268.451 364.814 268.334 364.998C268.217 365.182 268.127 365.424 268.064 365.725C268.006 366.021 267.977 366.383 267.977 366.809V368.613C267.977 368.957 267.996 369.26 268.035 369.521C268.074 369.783 268.133 370.008 268.211 370.195C268.289 370.379 268.383 370.531 268.492 370.652C268.605 370.77 268.734 370.855 268.879 370.91C269.027 370.965 269.189 370.992 269.365 370.992C269.588 370.992 269.785 370.949 269.957 370.863C270.129 370.777 270.273 370.641 270.391 370.453C270.508 370.262 270.596 370.014 270.654 369.709C270.713 369.404 270.742 369.039 270.742 368.613ZM278.975 367.02V368.414C278.975 369.082 278.908 369.652 278.775 370.125C278.646 370.594 278.459 370.975 278.213 371.268C277.967 371.561 277.672 371.775 277.328 371.912C276.988 372.049 276.607 372.117 276.186 372.117C275.85 372.117 275.537 372.074 275.248 371.988C274.963 371.902 274.705 371.768 274.475 371.584C274.244 371.4 274.047 371.164 273.883 370.875C273.723 370.582 273.598 370.232 273.508 369.826C273.422 369.42 273.379 368.949 273.379 368.414V367.02C273.379 366.348 273.445 365.781 273.578 365.32C273.711 364.855 273.9 364.479 274.146 364.189C274.393 363.896 274.686 363.684 275.025 363.551C275.369 363.418 275.752 363.352 276.174 363.352C276.514 363.352 276.826 363.395 277.111 363.48C277.4 363.562 277.658 363.693 277.885 363.873C278.115 364.053 278.311 364.287 278.471 364.576C278.635 364.861 278.76 365.207 278.846 365.613C278.932 366.016 278.975 366.484 278.975 367.02ZM277.562 368.613V366.809C277.562 366.469 277.543 366.17 277.504 365.912C277.465 365.65 277.406 365.43 277.328 365.25C277.254 365.066 277.16 364.918 277.047 364.805C276.934 364.688 276.805 364.604 276.66 364.553C276.516 364.498 276.354 364.471 276.174 364.471C275.955 364.471 275.76 364.514 275.588 364.6C275.416 364.682 275.271 364.814 275.154 364.998C275.037 365.182 274.947 365.424 274.885 365.725C274.826 366.021 274.797 366.383 274.797 366.809V368.613C274.797 368.957 274.816 369.26 274.855 369.521C274.895 369.783 274.953 370.008 275.031 370.195C275.109 370.379 275.203 370.531 275.312 370.652C275.426 370.77 275.555 370.855 275.699 370.91C275.848 370.965 276.01 370.992 276.186 370.992C276.408 370.992 276.605 370.949 276.777 370.863C276.949 370.777 277.094 370.641 277.211 370.453C277.328 370.262 277.416 370.014 277.475 369.709C277.533 369.404 277.562 369.039 277.562 368.613ZM284.09 363.439V372H282.678V365.115L280.586 365.824V364.658L283.92 363.439H284.09Z" fill="#454545"></path> <path d="M497.734 366.879V374.438H496.322V365.66H497.623L497.734 366.879ZM501.865 368.771V368.895C501.865 369.355 501.811 369.783 501.701 370.178C501.596 370.568 501.438 370.91 501.227 371.203C501.02 371.492 500.764 371.717 500.459 371.877C500.154 372.037 499.803 372.117 499.404 372.117C499.01 372.117 498.664 372.045 498.367 371.9C498.074 371.752 497.826 371.543 497.623 371.273C497.42 371.004 497.256 370.688 497.131 370.324C497.01 369.957 496.924 369.555 496.873 369.117V368.643C496.924 368.178 497.01 367.756 497.131 367.377C497.256 366.998 497.42 366.672 497.623 366.398C497.826 366.125 498.074 365.914 498.367 365.766C498.66 365.617 499.002 365.543 499.393 365.543C499.791 365.543 500.145 365.621 500.453 365.777C500.762 365.93 501.021 366.148 501.232 366.434C501.443 366.715 501.602 367.055 501.707 367.453C501.812 367.848 501.865 368.287 501.865 368.771ZM500.453 368.895V368.771C500.453 368.479 500.426 368.207 500.371 367.957C500.316 367.703 500.23 367.48 500.113 367.289C499.996 367.098 499.846 366.949 499.662 366.844C499.482 366.734 499.266 366.68 499.012 366.68C498.762 366.68 498.547 366.723 498.367 366.809C498.188 366.891 498.037 367.006 497.916 367.154C497.795 367.303 497.701 367.477 497.635 367.676C497.568 367.871 497.521 368.084 497.494 368.314V369.451C497.541 369.732 497.621 369.99 497.734 370.225C497.848 370.459 498.008 370.646 498.215 370.787C498.426 370.924 498.695 370.992 499.023 370.992C499.277 370.992 499.494 370.938 499.674 370.828C499.854 370.719 500 370.568 500.113 370.377C500.23 370.182 500.316 369.957 500.371 369.703C500.426 369.449 500.453 369.18 500.453 368.895ZM503.77 368.15L507.643 369.633V371.021L502.703 368.842V367.922L503.77 368.15ZM507.643 366.938L503.77 368.443L502.703 368.648V367.729L507.643 365.555V366.938ZM514.65 367.02V368.414C514.65 369.082 514.584 369.652 514.451 370.125C514.322 370.594 514.135 370.975 513.889 371.268C513.643 371.561 513.348 371.775 513.004 371.912C512.664 372.049 512.283 372.117 511.861 372.117C511.525 372.117 511.213 372.074 510.924 371.988C510.639 371.902 510.381 371.768 510.15 371.584C509.92 371.4 509.723 371.164 509.559 370.875C509.398 370.582 509.273 370.232 509.184 369.826C509.098 369.42 509.055 368.949 509.055 368.414V367.02C509.055 366.348 509.121 365.781 509.254 365.32C509.387 364.855 509.576 364.479 509.822 364.189C510.068 363.896 510.361 363.684 510.701 363.551C511.045 363.418 511.428 363.352 511.85 363.352C512.189 363.352 512.502 363.395 512.787 363.48C513.076 363.562 513.334 363.693 513.561 363.873C513.791 364.053 513.986 364.287 514.146 364.576C514.311 364.861 514.436 365.207 514.521 365.613C514.607 366.016 514.65 366.484 514.65 367.02ZM513.238 368.613V366.809C513.238 366.469 513.219 366.17 513.18 365.912C513.141 365.65 513.082 365.43 513.004 365.25C512.93 365.066 512.836 364.918 512.723 364.805C512.609 364.688 512.48 364.604 512.336 364.553C512.191 364.498 512.029 364.471 511.85 364.471C511.631 364.471 511.436 364.514 511.264 364.6C511.092 364.682 510.947 364.814 510.83 364.998C510.713 365.182 510.623 365.424 510.561 365.725C510.502 366.021 510.473 366.383 510.473 366.809V368.613C510.473 368.957 510.492 369.26 510.531 369.521C510.57 369.783 510.629 370.008 510.707 370.195C510.785 370.379 510.879 370.531 510.988 370.652C511.102 370.77 511.23 370.855 511.375 370.91C511.523 370.965 511.686 370.992 511.861 370.992C512.084 370.992 512.281 370.949 512.453 370.863C512.625 370.777 512.77 370.641 512.887 370.453C513.004 370.262 513.092 370.014 513.15 369.709C513.209 369.404 513.238 369.039 513.238 368.613ZM517.316 370.641L517.311 371.648C517.311 372.047 517.211 372.457 517.012 372.879C516.812 373.301 516.549 373.648 516.221 373.922L515.465 373.482C515.574 373.307 515.674 373.129 515.764 372.949C515.854 372.77 515.926 372.578 515.98 372.375C516.035 372.172 516.062 371.947 516.062 371.701V370.641H517.316ZM524.154 367.02V368.414C524.154 369.082 524.088 369.652 523.955 370.125C523.826 370.594 523.639 370.975 523.393 371.268C523.146 371.561 522.852 371.775 522.508 371.912C522.168 372.049 521.787 372.117 521.365 372.117C521.029 372.117 520.717 372.074 520.428 371.988C520.143 371.902 519.885 371.768 519.654 371.584C519.424 371.4 519.227 371.164 519.062 370.875C518.902 370.582 518.777 370.232 518.688 369.826C518.602 369.42 518.559 368.949 518.559 368.414V367.02C518.559 366.348 518.625 365.781 518.758 365.32C518.891 364.855 519.08 364.479 519.326 364.189C519.572 363.896 519.865 363.684 520.205 363.551C520.549 363.418 520.932 363.352 521.354 363.352C521.693 363.352 522.006 363.395 522.291 363.48C522.58 363.562 522.838 363.693 523.064 363.873C523.295 364.053 523.49 364.287 523.65 364.576C523.814 364.861 523.939 365.207 524.025 365.613C524.111 366.016 524.154 366.484 524.154 367.02ZM522.742 368.613V366.809C522.742 366.469 522.723 366.17 522.684 365.912C522.645 365.65 522.586 365.43 522.508 365.25C522.434 365.066 522.34 364.918 522.227 364.805C522.113 364.688 521.984 364.604 521.84 364.553C521.695 364.498 521.533 364.471 521.354 364.471C521.135 364.471 520.939 364.514 520.768 364.6C520.596 364.682 520.451 364.814 520.334 364.998C520.217 365.182 520.127 365.424 520.064 365.725C520.006 366.021 519.977 366.383 519.977 366.809V368.613C519.977 368.957 519.996 369.26 520.035 369.521C520.074 369.783 520.133 370.008 520.211 370.195C520.289 370.379 520.383 370.531 520.492 370.652C520.605 370.77 520.734 370.855 520.879 370.91C521.027 370.965 521.189 370.992 521.365 370.992C521.588 370.992 521.785 370.949 521.957 370.863C522.129 370.777 522.273 370.641 522.391 370.453C522.508 370.262 522.596 370.014 522.654 369.709C522.713 369.404 522.742 369.039 522.742 368.613ZM530.975 367.02V368.414C530.975 369.082 530.908 369.652 530.775 370.125C530.646 370.594 530.459 370.975 530.213 371.268C529.967 371.561 529.672 371.775 529.328 371.912C528.988 372.049 528.607 372.117 528.186 372.117C527.85 372.117 527.537 372.074 527.248 371.988C526.963 371.902 526.705 371.768 526.475 371.584C526.244 371.4 526.047 371.164 525.883 370.875C525.723 370.582 525.598 370.232 525.508 369.826C525.422 369.42 525.379 368.949 525.379 368.414V367.02C525.379 366.348 525.445 365.781 525.578 365.32C525.711 364.855 525.9 364.479 526.146 364.189C526.393 363.896 526.686 363.684 527.025 363.551C527.369 363.418 527.752 363.352 528.174 363.352C528.514 363.352 528.826 363.395 529.111 363.48C529.4 363.562 529.658 363.693 529.885 363.873C530.115 364.053 530.311 364.287 530.471 364.576C530.635 364.861 530.76 365.207 530.846 365.613C530.932 366.016 530.975 366.484 530.975 367.02ZM529.562 368.613V366.809C529.562 366.469 529.543 366.17 529.504 365.912C529.465 365.65 529.406 365.43 529.328 365.25C529.254 365.066 529.16 364.918 529.047 364.805C528.934 364.688 528.805 364.604 528.66 364.553C528.516 364.498 528.354 364.471 528.174 364.471C527.955 364.471 527.76 364.514 527.588 364.6C527.416 364.682 527.271 364.814 527.154 364.998C527.037 365.182 526.947 365.424 526.885 365.725C526.826 366.021 526.797 366.383 526.797 366.809V368.613C526.797 368.957 526.816 369.26 526.855 369.521C526.895 369.783 526.953 370.008 527.031 370.195C527.109 370.379 527.203 370.531 527.312 370.652C527.426 370.77 527.555 370.855 527.699 370.91C527.848 370.965 528.01 370.992 528.186 370.992C528.408 370.992 528.605 370.949 528.777 370.863C528.949 370.777 529.094 370.641 529.211 370.453C529.328 370.262 529.416 370.014 529.475 369.709C529.533 369.404 529.562 369.039 529.562 368.613ZM533.717 368.033L532.592 367.758L533.055 363.469H537.654V364.664H534.227L533.992 366.756C534.125 366.678 534.309 366.602 534.543 366.527C534.777 366.449 535.045 366.41 535.346 366.41C535.748 366.41 536.107 366.477 536.424 366.609C536.744 366.738 537.016 366.928 537.238 367.178C537.461 367.424 537.631 367.725 537.748 368.08C537.865 368.432 537.924 368.828 537.924 369.27C537.924 369.664 537.865 370.033 537.748 370.377C537.635 370.721 537.463 371.023 537.232 371.285C537.002 371.547 536.711 371.752 536.359 371.9C536.012 372.045 535.6 372.117 535.123 372.117C534.768 372.117 534.426 372.066 534.098 371.965C533.773 371.859 533.482 371.705 533.225 371.502C532.967 371.295 532.76 371.041 532.604 370.74C532.447 370.436 532.357 370.086 532.334 369.691H533.717C533.752 369.969 533.828 370.205 533.945 370.4C534.066 370.592 534.227 370.738 534.426 370.84C534.625 370.941 534.855 370.992 535.117 370.992C535.355 370.992 535.561 370.951 535.732 370.869C535.904 370.783 536.047 370.662 536.16 370.506C536.277 370.346 536.363 370.158 536.418 369.943C536.477 369.729 536.506 369.49 536.506 369.229C536.506 368.979 536.473 368.75 536.406 368.543C536.344 368.336 536.248 368.156 536.119 368.004C535.994 367.852 535.836 367.734 535.645 367.652C535.453 367.566 535.232 367.523 534.982 367.523C534.646 367.523 534.389 367.572 534.209 367.67C534.033 367.768 533.869 367.889 533.717 368.033Z" fill="#454545"></path> <path d="M380.341 45.6447V56.5967H378.889V45.6447H380.341ZM387.088 45.6447L382.334 51.6698H379.762L379.536 50.4663H381.469L385.29 45.6447H387.088ZM385.629 56.5967L381.514 51.4817L382.327 50.2105L387.404 56.5967H385.629ZM387.93 52.6176V52.4446C387.93 51.8578 388.016 51.3138 388.186 50.8123C388.357 50.3058 388.602 49.867 388.923 49.4959C389.244 49.1198 389.633 48.829 390.089 48.6234C390.546 48.4128 391.057 48.3075 391.624 48.3075C392.195 48.3075 392.709 48.4128 393.166 48.6234C393.627 48.829 394.018 49.1198 394.339 49.4959C394.665 49.867 394.913 50.3058 395.084 50.8123C395.254 51.3138 395.34 51.8578 395.34 52.4446V52.6176C395.34 53.2043 395.254 53.7484 395.084 54.2498C394.913 54.7513 394.665 55.1901 394.339 55.5662C394.018 55.9373 393.63 56.2281 393.173 56.4387C392.722 56.6443 392.21 56.7471 391.639 56.7471C391.067 56.7471 390.553 56.6443 390.097 56.4387C389.64 56.2281 389.249 55.9373 388.923 55.5662C388.602 55.1901 388.357 54.7513 388.186 54.2498C388.016 53.7484 387.93 53.2043 387.93 52.6176ZM389.322 52.4446V52.6176C389.322 53.0237 389.37 53.4074 389.465 53.7684C389.56 54.1245 389.703 54.4404 389.894 54.7162C390.089 54.992 390.333 55.2101 390.623 55.3706C390.914 55.5261 391.253 55.6038 391.639 55.6038C392.02 55.6038 392.353 55.5261 392.639 55.3706C392.93 55.2101 393.171 54.992 393.361 54.7162C393.552 54.4404 393.695 54.1245 393.79 53.7684C393.89 53.4074 393.941 53.0237 393.941 52.6176V52.4446C393.941 52.0434 393.89 51.6648 393.79 51.3087C393.695 50.9477 393.549 50.6293 393.354 50.3534C393.163 50.0726 392.923 49.852 392.632 49.6915C392.346 49.531 392.01 49.4508 391.624 49.4508C391.243 49.4508 390.907 49.531 390.616 49.6915C390.33 49.852 390.089 50.0726 389.894 50.3534C389.703 50.6293 389.56 50.9477 389.465 51.3087C389.37 51.6648 389.322 52.0434 389.322 52.4446ZM402.606 51.9857V53.114H398.303V51.9857H402.606ZM398.597 48.4579V56.5967H397.205V48.4579H398.597ZM403.734 48.4579V56.5967H402.335V48.4579H403.734ZM409.293 48.4579V56.5967H407.894V48.4579H409.293ZM412.023 48.4579V49.5862H405.216V48.4579H412.023ZM414.784 50.0225V59.7258H413.385V48.4579H414.664L414.784 50.0225ZM420.267 52.4596V52.6176C420.267 53.2093 420.197 53.7584 420.057 54.2649C419.916 54.7663 419.711 55.2026 419.44 55.5737C419.174 55.9448 418.846 56.2331 418.455 56.4387C418.063 56.6443 417.615 56.7471 417.108 56.7471C416.592 56.7471 416.135 56.6619 415.739 56.4914C415.343 56.3209 415.007 56.0726 414.731 55.7467C414.455 55.4207 414.235 55.0296 414.069 54.5733C413.909 54.1169 413.799 53.6029 413.738 53.0313V52.1888C413.799 51.587 413.911 51.048 414.077 50.5716C414.242 50.0952 414.46 49.689 414.731 49.353C415.007 49.012 415.341 48.7538 415.732 48.5783C416.123 48.3977 416.574 48.3075 417.086 48.3075C417.597 48.3075 418.051 48.4078 418.447 48.6083C418.843 48.8039 419.177 49.0847 419.448 49.4508C419.718 49.8169 419.921 50.2557 420.057 50.7672C420.197 51.2736 420.267 51.8378 420.267 52.4596ZM418.868 52.6176V52.4596C418.868 52.0534 418.826 51.6723 418.74 51.3163C418.655 50.9552 418.522 50.6393 418.342 50.3685C418.166 50.0927 417.941 49.8771 417.665 49.7216C417.389 49.5611 417.061 49.4809 416.679 49.4809C416.328 49.4809 416.023 49.5411 415.762 49.6614C415.506 49.7818 415.288 49.9448 415.107 50.1504C414.927 50.3509 414.779 50.5816 414.664 50.8424C414.553 51.0981 414.471 51.3639 414.415 51.6397V53.5879C414.516 53.9389 414.656 54.2699 414.837 54.5808C415.017 54.8867 415.258 55.1349 415.559 55.3255C415.86 55.511 416.238 55.6038 416.694 55.6038C417.071 55.6038 417.394 55.5261 417.665 55.3706C417.941 55.2101 418.166 54.992 418.342 54.7162C418.522 54.4404 418.655 54.1245 418.74 53.7684C418.826 53.4074 418.868 53.0237 418.868 52.6176ZM421.674 52.6176V52.4446C421.674 51.8578 421.759 51.3138 421.93 50.8123C422.1 50.3058 422.346 49.867 422.667 49.4959C422.988 49.1198 423.377 48.829 423.833 48.6234C424.289 48.4128 424.801 48.3075 425.367 48.3075C425.939 48.3075 426.453 48.4128 426.909 48.6234C427.371 48.829 427.762 49.1198 428.083 49.4959C428.409 49.867 428.657 50.3058 428.827 50.8123C428.998 51.3138 429.083 51.8578 429.083 52.4446V52.6176C429.083 53.2043 428.998 53.7484 428.827 54.2498C428.657 54.7513 428.409 55.1901 428.083 55.5662C427.762 55.9373 427.373 56.2281 426.917 56.4387C426.466 56.6443 425.954 56.7471 425.382 56.7471C424.811 56.7471 424.297 56.6443 423.84 56.4387C423.384 56.2281 422.993 55.9373 422.667 55.5662C422.346 55.1901 422.1 54.7513 421.93 54.2498C421.759 53.7484 421.674 53.2043 421.674 52.6176ZM423.066 52.4446V52.6176C423.066 53.0237 423.113 53.4074 423.209 53.7684C423.304 54.1245 423.447 54.4404 423.637 54.7162C423.833 54.992 424.076 55.2101 424.367 55.3706C424.658 55.5261 424.996 55.6038 425.382 55.6038C425.763 55.6038 426.097 55.5261 426.383 55.3706C426.674 55.2101 426.914 54.992 427.105 54.7162C427.295 54.4404 427.438 54.1245 427.534 53.7684C427.634 53.4074 427.684 53.0237 427.684 52.6176V52.4446C427.684 52.0434 427.634 51.6648 427.534 51.3087C427.438 50.9477 427.293 50.6293 427.097 50.3534C426.907 50.0726 426.666 49.852 426.375 49.6915C426.089 49.531 425.753 49.4508 425.367 49.4508C424.986 49.4508 424.65 49.531 424.359 49.6915C424.074 49.852 423.833 50.0726 423.637 50.3534C423.447 50.6293 423.304 50.9477 423.209 51.3087C423.113 51.6648 423.066 52.0434 423.066 52.4446ZM436.146 48.4579V49.6088H432.212V48.4579H436.146ZM437.372 48.4579V56.5967H435.981V48.4579H437.372ZM431.874 48.4579H433.273L433.062 52.3844C433.027 52.9911 432.97 53.5277 432.889 53.9941C432.814 54.4554 432.709 54.8516 432.573 55.1825C432.443 55.5135 432.278 55.7843 432.077 55.9949C431.881 56.2005 431.646 56.3535 431.37 56.4538C431.094 56.549 430.776 56.5967 430.415 56.5967H429.978V55.3706L430.279 55.348C430.495 55.333 430.678 55.2828 430.828 55.1976C430.984 55.1123 431.114 54.987 431.219 54.8215C431.325 54.651 431.41 54.4329 431.475 54.1671C431.545 53.9013 431.598 53.5854 431.633 53.2193C431.673 52.8532 431.703 52.427 431.723 51.9406L431.874 48.4579ZM440.757 51.2561H443.202C443.859 51.2561 444.413 51.3714 444.864 51.6021C445.316 51.8278 445.657 52.1412 445.887 52.5423C446.123 52.9385 446.241 53.3898 446.241 53.8963C446.241 54.2724 446.176 54.6259 446.045 54.9569C445.915 55.2828 445.719 55.5687 445.459 55.8144C445.203 56.0601 444.884 56.2532 444.503 56.3936C444.127 56.529 443.693 56.5967 443.202 56.5967H439.742V48.4579H441.133V55.4533H443.202C443.603 55.4533 443.924 55.3806 444.165 55.2352C444.405 55.0898 444.578 54.9017 444.684 54.6711C444.789 54.4404 444.842 54.1997 444.842 53.9489C444.842 53.7032 444.789 53.4625 444.684 53.2268C444.578 52.9911 444.405 52.7956 444.165 52.6401C443.924 52.4797 443.603 52.3994 443.202 52.3994H440.757V51.2561ZM453.499 51.9857V53.114H449.197V51.9857H453.499ZM449.49 48.4579V56.5967H448.099V48.4579H449.49ZM454.628 48.4579V56.5967H453.229V48.4579H454.628ZM461.668 55.2051V51.0154C461.668 50.6944 461.603 50.4161 461.473 50.1804C461.347 49.9397 461.157 49.7542 460.901 49.6238C460.645 49.4934 460.329 49.4282 459.953 49.4282C459.602 49.4282 459.294 49.4884 459.028 49.6088C458.767 49.7291 458.562 49.8871 458.411 50.0827C458.266 50.2782 458.193 50.4888 458.193 50.7145H456.802C456.802 50.4237 456.877 50.1353 457.027 49.8495C457.178 49.5636 457.393 49.3054 457.674 49.0747C457.96 48.839 458.301 48.6535 458.697 48.5181C459.098 48.3777 459.545 48.3075 460.036 48.3075C460.628 48.3075 461.149 48.4078 461.601 48.6083C462.057 48.8089 462.413 49.1123 462.669 49.5185C462.93 49.9197 463.06 50.4237 463.06 51.0304V54.8215C463.06 55.0923 463.082 55.3806 463.128 55.6865C463.178 55.9924 463.25 56.2557 463.346 56.4763V56.5967H461.894C461.824 56.4362 461.769 56.2231 461.729 55.9573C461.688 55.6865 461.668 55.4358 461.668 55.2051ZM461.909 51.6623L461.924 52.6401H460.517C460.121 52.6401 459.768 52.6727 459.457 52.7379C459.146 52.7981 458.885 52.8909 458.675 53.0162C458.464 53.1416 458.304 53.2996 458.193 53.4901C458.083 53.6756 458.028 53.8938 458.028 54.1445C458.028 54.4003 458.085 54.6334 458.201 54.8441C458.316 55.0547 458.489 55.2227 458.72 55.348C458.955 55.4684 459.244 55.5286 459.585 55.5286C460.011 55.5286 460.387 55.4383 460.713 55.2578C461.039 55.0772 461.297 54.8566 461.488 54.5958C461.683 54.3351 461.789 54.0818 461.804 53.8361L462.398 54.5056C462.363 54.7162 462.268 54.9494 462.112 55.2051C461.957 55.4609 461.749 55.7066 461.488 55.9423C461.232 56.1729 460.926 56.366 460.57 56.5215C460.219 56.6719 459.823 56.7471 459.382 56.7471C458.83 56.7471 458.346 56.6393 457.93 56.4237C457.519 56.208 457.198 55.9197 456.967 55.5586C456.741 55.1926 456.629 54.7839 456.629 54.3326C456.629 53.8963 456.714 53.5127 456.884 53.1817C457.055 52.8457 457.301 52.5674 457.622 52.3468C457.942 52.1211 458.329 51.9506 458.78 51.8353C459.231 51.7199 459.735 51.6623 460.292 51.6623H461.909ZM466.896 52.7153H468.401L466.046 56.5967H464.542L466.896 52.7153ZM468.062 48.4579H471.462V56.5967H470.07V49.5862H468.062C467.666 49.5862 467.342 49.6539 467.092 49.7893C466.841 49.9197 466.658 50.0902 466.543 50.3008C466.427 50.5114 466.37 50.7295 466.37 50.9552C466.37 51.1758 466.422 51.389 466.528 51.5946C466.633 51.7952 466.798 51.9606 467.024 52.091C467.25 52.2214 467.541 52.2866 467.897 52.2866H470.446V53.4299H467.897C467.43 53.4299 467.016 53.3672 466.655 53.2419C466.294 53.1165 465.988 52.9435 465.738 52.7229C465.487 52.4972 465.296 52.2339 465.166 51.9331C465.036 51.6272 464.97 51.2962 464.97 50.9402C464.97 50.5841 465.038 50.2557 465.174 49.9548C465.314 49.6539 465.515 49.3906 465.775 49.165C466.041 48.9393 466.365 48.7663 466.746 48.646C467.132 48.5206 467.571 48.4579 468.062 48.4579ZM482.783 48.4579V49.6088H479.022V56.5967H477.63V48.4579H482.783ZM485.385 50.0225V59.7258H483.986V48.4579H485.265L485.385 50.0225ZM490.869 52.4596V52.6176C490.869 53.2093 490.798 53.7584 490.658 54.2649C490.518 54.7663 490.312 55.2026 490.041 55.5737C489.775 55.9448 489.447 56.2331 489.056 56.4387C488.665 56.6443 488.216 56.7471 487.709 56.7471C487.193 56.7471 486.737 56.6619 486.34 56.4914C485.944 56.3209 485.608 56.0726 485.332 55.7467C485.057 55.4207 484.836 55.0296 484.671 54.5733C484.51 54.1169 484.4 53.6029 484.34 53.0313V52.1888C484.4 51.587 484.513 51.048 484.678 50.5716C484.844 50.0952 485.062 49.689 485.332 49.353C485.608 49.012 485.942 48.7538 486.333 48.5783C486.724 48.3977 487.175 48.3075 487.687 48.3075C488.198 48.3075 488.652 48.4078 489.048 48.6083C489.444 48.8039 489.778 49.0847 490.049 49.4508C490.32 49.8169 490.523 50.2557 490.658 50.7672C490.798 51.2736 490.869 51.8378 490.869 52.4596ZM489.47 52.6176V52.4596C489.47 52.0534 489.427 51.6723 489.342 51.3163C489.256 50.9552 489.124 50.6393 488.943 50.3685C488.767 50.0927 488.542 49.8771 488.266 49.7216C487.99 49.5611 487.662 49.4809 487.281 49.4809C486.93 49.4809 486.624 49.5411 486.363 49.6614C486.107 49.7818 485.889 49.9448 485.709 50.1504C485.528 50.3509 485.38 50.5816 485.265 50.8424C485.154 51.0981 485.072 51.3639 485.017 51.6397V53.5879C485.117 53.9389 485.257 54.2699 485.438 54.5808C485.618 54.8867 485.859 55.1349 486.16 55.3255C486.461 55.511 486.839 55.6038 487.296 55.6038C487.672 55.6038 487.995 55.5261 488.266 55.3706C488.542 55.2101 488.767 54.992 488.943 54.7162C489.124 54.4404 489.256 54.1245 489.342 53.7684C489.427 53.4074 489.47 53.0237 489.47 52.6176ZM494.84 55.7542L497.104 48.4579H498.594L495.329 57.8528C495.254 58.0534 495.154 58.2691 495.028 58.4997C494.908 58.7354 494.752 58.9586 494.562 59.1692C494.371 59.3798 494.141 59.5503 493.87 59.6807C493.604 59.8161 493.286 59.8838 492.915 59.8838C492.804 59.8838 492.664 59.8687 492.493 59.8386C492.323 59.8086 492.203 59.7835 492.132 59.7634L492.125 58.6351C492.165 58.6401 492.228 58.6452 492.313 58.6502C492.403 58.6602 492.466 58.6652 492.501 58.6652C492.817 58.6652 493.085 58.6226 493.306 58.5373C493.526 58.4571 493.712 58.3192 493.862 58.1236C494.018 57.9331 494.151 57.6698 494.261 57.3338L494.84 55.7542ZM493.178 48.4579L495.292 54.7764L495.653 56.2431L494.652 56.7546L491.658 48.4579H493.178ZM505.273 48.4579V49.6088H501.159V48.4579H505.273ZM501.362 48.4579V56.5967H499.97V48.4579H501.362ZM506.507 48.4579V56.5967H505.108V48.4579H506.507ZM514.164 48.4579V49.6088H510.05V48.4579H514.164ZM510.253 48.4579V56.5967H508.861V48.4579H510.253ZM515.398 48.4579V56.5967H513.999V48.4579H515.398ZM522.431 55.2051V51.0154C522.431 50.6944 522.366 50.4161 522.235 50.1804C522.11 49.9397 521.919 49.7542 521.664 49.6238C521.408 49.4934 521.092 49.4282 520.716 49.4282C520.365 49.4282 520.056 49.4884 519.791 49.6088C519.53 49.7291 519.324 49.8871 519.174 50.0827C519.028 50.2782 518.956 50.4888 518.956 50.7145H517.564C517.564 50.4237 517.639 50.1353 517.79 49.8495C517.94 49.5636 518.156 49.3054 518.437 49.0747C518.722 48.839 519.063 48.6535 519.46 48.5181C519.861 48.3777 520.307 48.3075 520.799 48.3075C521.39 48.3075 521.912 48.4078 522.363 48.6083C522.819 48.8089 523.175 49.1123 523.431 49.5185C523.692 49.9197 523.822 50.4237 523.822 51.0304V54.8215C523.822 55.0923 523.845 55.3806 523.89 55.6865C523.94 55.9924 524.013 56.2557 524.108 56.4763V56.5967H522.656C522.586 56.4362 522.531 56.2231 522.491 55.9573C522.451 55.6865 522.431 55.4358 522.431 55.2051ZM522.672 51.6623L522.687 52.6401H521.28C520.884 52.6401 520.53 52.6727 520.219 52.7379C519.908 52.7981 519.648 52.8909 519.437 53.0162C519.226 53.1416 519.066 53.2996 518.956 53.4901C518.845 53.6756 518.79 53.8938 518.79 54.1445C518.79 54.4003 518.848 54.6334 518.963 54.8441C519.079 55.0547 519.252 55.2227 519.482 55.348C519.718 55.4684 520.006 55.5286 520.347 55.5286C520.773 55.5286 521.15 55.4383 521.476 55.2578C521.801 55.0772 522.06 54.8566 522.25 54.5958C522.446 54.3351 522.551 54.0818 522.566 53.8361L523.16 54.5056C523.125 54.7162 523.03 54.9494 522.875 55.2051C522.719 55.4609 522.511 55.7066 522.25 55.9423C521.995 56.1729 521.689 56.366 521.333 56.5215C520.982 56.6719 520.585 56.7471 520.144 56.7471C519.593 56.7471 519.109 56.6393 518.692 56.4237C518.281 56.208 517.96 55.9197 517.73 55.5586C517.504 55.1926 517.391 54.7839 517.391 54.3326C517.391 53.8963 517.476 53.5127 517.647 53.1817C517.817 52.8457 518.063 52.5674 518.384 52.3468C518.705 52.1211 519.091 51.9506 519.542 51.8353C519.994 51.7199 520.498 51.6623 521.054 51.6623H522.672Z" fill="#454545"></path> <path fill-rule="evenodd" clip-rule="evenodd" d="M337.186 40C337.186 37.7909 338.977 36 341.186 36H366.186C368.395 36 370.186 37.7909 370.186 40V65C370.186 67.2091 368.395 69 366.186 69H341.186C338.977 69 337.186 67.2091 337.186 65V40Z" fill="#D09CC7"></path> <path fill-rule="evenodd" clip-rule="evenodd" d="M229 40C229 37.7909 230.791 36 233 36H258C260.209 36 262 37.7909 262 40V65C262 67.2091 260.209 69 258 69H233C230.791 69 229 67.2091 229 65V40Z" fill="#6FC4E2"></path> <path d="M275.755 45.048V56H274.326V45.048H275.755ZM279.275 45.048V46.2365H270.813V45.048H279.275ZM281.359 45.048H282.766L286.353 53.9766L289.934 45.048H291.348L286.895 56H285.797L281.359 45.048ZM280.9 45.048H282.141L282.344 51.7275V56H280.9V45.048ZM290.558 45.048H291.799V56H290.355V51.7275L290.558 45.048Z" fill="#454545"></path> <path d="M211.061 147.939C210.475 147.354 209.525 147.354 208.939 147.939L199.393 157.485C198.808 158.071 198.808 159.021 199.393 159.607C199.979 160.192 200.929 160.192 201.515 159.607L210 151.121L218.485 159.607C219.071 160.192 220.021 160.192 220.607 159.607C221.192 159.021 221.192 158.071 220.607 157.485L211.061 147.939ZM211.5 188L211.5 149L208.5 149L208.5 188L211.5 188Z" fill="white"></path> <path d="M469.061 184.939C468.475 184.354 467.525 184.354 466.939 184.939L457.393 194.485C456.808 195.071 456.808 196.021 457.393 196.607C457.979 197.192 458.929 197.192 459.515 196.607L468 188.121L476.485 196.607C477.071 197.192 478.021 197.192 478.607 196.607C479.192 196.021 479.192 195.071 478.607 194.485L469.061 184.939ZM469.5 225L469.5 186L466.5 186L466.5 225L469.5 225Z" fill="white"></path> <line x1="112" y1="111.5" x2="693" y2="111.5" stroke="#A6A6A6" stroke-opacity="0.26" stroke-dasharray="6 6"></line> <line x1="112" y1="141.5" x2="693" y2="141.5" stroke="#A6A6A6" stroke-opacity="0.26" stroke-dasharray="6 6"></line> <line x1="112" y1="172.5" x2="693" y2="172.5" stroke="#A6A6A6" stroke-opacity="0.26" stroke-dasharray="6 6"></line> <line x1="112" y1="201.5" x2="693" y2="201.5" stroke="#A6A6A6" stroke-opacity="0.26" stroke-dasharray="6 6"></line> <line x1="112" y1="261.5" x2="693" y2="261.5" stroke="#A6A6A6" stroke-opacity="0.26" stroke-dasharray="6 6"></line> <line x1="112" y1="291.5" x2="693" y2="291.5" stroke="#A6A6A6" stroke-opacity="0.26" stroke-dasharray="6 6"></line> <line x1="112" y1="321.5" x2="693" y2="321.5" stroke="#A6A6A6" stroke-opacity="0.26" stroke-dasharray="6 6"></line> <line x1="112" y1="351.5" x2="693" y2="351.5" stroke="#A6A6A6" stroke-opacity="0.26" stroke-dasharray="6 6"></line> </g> <defs> <clipPath id="clip0_497_691"> <rect width="708" height="424" fill="white"></rect> </clipPath> </defs> </svg> 