<?xml version="1.0" encoding="UTF-8"?> <svg xmlns="http://www.w3.org/2000/svg" width="708" height="424" viewBox="0 0 708 424" fill="none"> <g clip-path="url(#clip0_477_1004)"> <rect width="708" height="424" fill="white"></rect> <rect width="708" height="424" fill="#FCFCFC"></rect> <line x1="103" y1="359.5" x2="683" y2="359.5" stroke="#A6A6A6" stroke-opacity="0.26" stroke-width="3"></line> <line x1="90" y1="301.5" x2="100" y2="301.5" stroke="#A6A6A6" stroke-opacity="0.26" stroke-width="3"></line> <line x1="95" y1="331.5" x2="101" y2="331.5" stroke="#A6A6A6" stroke-opacity="0.26" stroke-width="3"></line> <line x1="95" y1="273.5" x2="101" y2="273.5" stroke="#A6A6A6" stroke-opacity="0.26" stroke-width="3"></line> <line x1="90" y1="243.5" x2="100" y2="243.5" stroke="#A6A6A6" stroke-opacity="0.26" stroke-width="3"></line> <line x1="90" y1="185.5" x2="100" y2="185.5" stroke="#A6A6A6" stroke-opacity="0.26" stroke-width="3"></line> <line x1="95" y1="215.5" x2="101" y2="215.5" stroke="#A6A6A6" stroke-opacity="0.26" stroke-width="3"></line> <line x1="90" y1="127.5" x2="100" y2="127.5" stroke="#A6A6A6" stroke-opacity="0.26" stroke-width="3"></line> <line x1="95" y1="157.5" x2="101" y2="157.5" stroke="#A6A6A6" stroke-opacity="0.26" stroke-width="3"></line> <line x1="90" y1="69.5" x2="100" y2="69.5" stroke="#A6A6A6" stroke-opacity="0.26" stroke-width="3"></line> <line x1="95" y1="99.5" x2="101" y2="99.5" stroke="#A6A6A6" stroke-opacity="0.26" stroke-width="3"></line> <line x1="90" y1="359.5" x2="100" y2="359.5" stroke="#A6A6A6" stroke-opacity="0.26" stroke-width="3"></line> <path d="M84.1431 355.818V357.444C84.1431 358.318 84.0649 359.056 83.9087 359.656C83.7524 360.257 83.5278 360.74 83.2349 361.106C82.9419 361.473 82.5879 361.739 82.1729 361.905C81.7627 362.066 81.2988 362.146 80.7812 362.146C80.3711 362.146 79.9927 362.095 79.646 361.993C79.2993 361.89 78.9868 361.727 78.7085 361.502C78.4351 361.272 78.2007 360.975 78.0054 360.608C77.8101 360.242 77.6611 359.798 77.5586 359.275C77.4561 358.753 77.4048 358.143 77.4048 357.444V355.818C77.4048 354.944 77.4829 354.212 77.6392 353.621C77.8003 353.03 78.0273 352.557 78.3203 352.2C78.6133 351.839 78.9648 351.58 79.375 351.424C79.79 351.268 80.2539 351.189 80.7666 351.189C81.1816 351.189 81.5625 351.241 81.9092 351.343C82.2607 351.441 82.5732 351.6 82.8467 351.819C83.1201 352.034 83.3521 352.322 83.5425 352.684C83.7378 353.04 83.8867 353.477 83.9893 353.995C84.0918 354.512 84.1431 355.12 84.1431 355.818ZM82.7808 357.664V355.591C82.7808 355.113 82.7515 354.693 82.6929 354.332C82.6392 353.965 82.5586 353.653 82.4512 353.394C82.3438 353.135 82.207 352.925 82.041 352.764C81.8799 352.603 81.6919 352.486 81.4771 352.413C81.2671 352.334 81.0303 352.295 80.7666 352.295C80.4443 352.295 80.1587 352.356 79.9097 352.479C79.6606 352.596 79.4507 352.784 79.2798 353.042C79.1138 353.301 78.9868 353.641 78.8989 354.061C78.811 354.48 78.7671 354.991 78.7671 355.591V357.664C78.7671 358.143 78.7939 358.565 78.8477 358.931C78.9062 359.297 78.9917 359.615 79.104 359.883C79.2163 360.147 79.353 360.364 79.5142 360.535C79.6753 360.706 79.8608 360.833 80.0708 360.916C80.2856 360.994 80.5225 361.033 80.7812 361.033C81.1133 361.033 81.4038 360.97 81.6528 360.843C81.9019 360.716 82.1094 360.518 82.2754 360.25C82.4463 359.976 82.5732 359.627 82.6562 359.202C82.7393 358.772 82.7808 358.26 82.7808 357.664Z" fill="#454545"></path> <path d="M65.0269 235.277V246H63.6719V236.969L60.9399 237.965V236.742L64.8145 235.277H65.0269ZM75.7056 239.818V241.444C75.7056 242.318 75.6274 243.056 75.4712 243.656C75.3149 244.257 75.0903 244.74 74.7974 245.106C74.5044 245.473 74.1504 245.739 73.7354 245.905C73.3252 246.066 72.8613 246.146 72.3438 246.146C71.9336 246.146 71.5552 246.095 71.2085 245.993C70.8618 245.89 70.5493 245.727 70.271 245.502C69.9976 245.272 69.7632 244.975 69.5679 244.608C69.3726 244.242 69.2236 243.798 69.1211 243.275C69.0186 242.753 68.9673 242.143 68.9673 241.444V239.818C68.9673 238.944 69.0454 238.212 69.2017 237.621C69.3628 237.03 69.5898 236.557 69.8828 236.2C70.1758 235.839 70.5273 235.58 70.9375 235.424C71.3525 235.268 71.8164 235.189 72.3291 235.189C72.7441 235.189 73.125 235.241 73.4717 235.343C73.8232 235.441 74.1357 235.6 74.4092 235.819C74.6826 236.034 74.9146 236.322 75.105 236.684C75.3003 237.04 75.4492 237.477 75.5518 237.995C75.6543 238.512 75.7056 239.12 75.7056 239.818ZM74.3433 241.664V239.591C74.3433 239.113 74.314 238.693 74.2554 238.332C74.2017 237.965 74.1211 237.653 74.0137 237.394C73.9062 237.135 73.7695 236.925 73.6035 236.764C73.4424 236.603 73.2544 236.486 73.0396 236.413C72.8296 236.334 72.5928 236.295 72.3291 236.295C72.0068 236.295 71.7212 236.356 71.4722 236.479C71.2231 236.596 71.0132 236.784 70.8423 237.042C70.6763 237.301 70.5493 237.641 70.4614 238.061C70.3735 238.48 70.3296 238.991 70.3296 239.591V241.664C70.3296 242.143 70.3564 242.565 70.4102 242.931C70.4688 243.297 70.5542 243.615 70.6665 243.883C70.7788 244.147 70.9155 244.364 71.0767 244.535C71.2378 244.706 71.4233 244.833 71.6333 244.916C71.8481 244.994 72.085 245.033 72.3438 245.033C72.6758 245.033 72.9663 244.97 73.2153 244.843C73.4644 244.716 73.6719 244.518 73.8379 244.25C74.0088 243.976 74.1357 243.627 74.2188 243.202C74.3018 242.772 74.3433 242.26 74.3433 241.664ZM84.1431 239.818V241.444C84.1431 242.318 84.0649 243.056 83.9087 243.656C83.7524 244.257 83.5278 244.74 83.2349 245.106C82.9419 245.473 82.5879 245.739 82.1729 245.905C81.7627 246.066 81.2988 246.146 80.7812 246.146C80.3711 246.146 79.9927 246.095 79.646 245.993C79.2993 245.89 78.9868 245.727 78.7085 245.502C78.4351 245.272 78.2007 244.975 78.0054 244.608C77.8101 244.242 77.6611 243.798 77.5586 243.275C77.4561 242.753 77.4048 242.143 77.4048 241.444V239.818C77.4048 238.944 77.4829 238.212 77.6392 237.621C77.8003 237.03 78.0273 236.557 78.3203 236.2C78.6133 235.839 78.9648 235.58 79.375 235.424C79.79 235.268 80.2539 235.189 80.7666 235.189C81.1816 235.189 81.5625 235.241 81.9092 235.343C82.2607 235.441 82.5732 235.6 82.8467 235.819C83.1201 236.034 83.3521 236.322 83.5425 236.684C83.7378 237.04 83.8867 237.477 83.9893 237.995C84.0918 238.512 84.1431 239.12 84.1431 239.818ZM82.7808 241.664V239.591C82.7808 239.113 82.7515 238.693 82.6929 238.332C82.6392 237.965 82.5586 237.653 82.4512 237.394C82.3438 237.135 82.207 236.925 82.041 236.764C81.8799 236.603 81.6919 236.486 81.4771 236.413C81.2671 236.334 81.0303 236.295 80.7666 236.295C80.4443 236.295 80.1587 236.356 79.9097 236.479C79.6606 236.596 79.4507 236.784 79.2798 237.042C79.1138 237.301 78.9868 237.641 78.8989 238.061C78.811 238.48 78.7671 238.991 78.7671 239.591V241.664C78.7671 242.143 78.7939 242.565 78.8477 242.931C78.9062 243.297 78.9917 243.615 79.104 243.883C79.2163 244.147 79.353 244.364 79.5142 244.535C79.6753 244.706 79.8608 244.833 80.0708 244.916C80.2856 244.994 80.5225 245.033 80.7812 245.033C81.1133 245.033 81.4038 244.97 81.6528 244.843C81.9019 244.716 82.1094 244.518 82.2754 244.25C82.4463 243.976 82.5732 243.627 82.6562 243.202C82.7393 242.772 82.7808 242.26 82.7808 241.664Z" fill="#454545"></path> <path d="M65.0269 177.277V188H63.6719V178.969L60.9399 179.965V178.742L64.8145 177.277H65.0269ZM70.7251 182.924L69.6411 182.646L70.1758 177.336H75.647V178.588H71.3257L71.0034 181.489C71.1987 181.376 71.4453 181.271 71.7432 181.174C72.0459 181.076 72.3926 181.027 72.7832 181.027C73.2764 181.027 73.7183 181.113 74.1089 181.284C74.4995 181.45 74.8315 181.689 75.105 182.001C75.3833 182.314 75.5957 182.69 75.7422 183.129C75.8887 183.569 75.9619 184.06 75.9619 184.602C75.9619 185.114 75.8911 185.585 75.7495 186.015C75.6128 186.445 75.4053 186.821 75.127 187.143C74.8486 187.46 74.4971 187.707 74.0723 187.883C73.6523 188.059 73.1567 188.146 72.5854 188.146C72.1558 188.146 71.748 188.088 71.3623 187.971C70.9814 187.849 70.6396 187.666 70.3369 187.421C70.0391 187.172 69.7949 186.865 69.6045 186.499C69.4189 186.127 69.3018 185.693 69.2529 185.195H70.542C70.6006 185.595 70.7178 185.932 70.8936 186.206C71.0693 186.479 71.2988 186.687 71.582 186.828C71.8701 186.965 72.2046 187.033 72.5854 187.033C72.9077 187.033 73.1934 186.977 73.4424 186.865C73.6914 186.752 73.9014 186.591 74.0723 186.381C74.2432 186.171 74.3726 185.917 74.4604 185.62C74.5532 185.322 74.5996 184.987 74.5996 184.616C74.5996 184.279 74.5532 183.967 74.4604 183.679C74.3677 183.391 74.2285 183.139 74.043 182.924C73.8623 182.709 73.6401 182.543 73.3765 182.426C73.1128 182.304 72.8101 182.243 72.4683 182.243C72.0142 182.243 71.6699 182.304 71.4355 182.426C71.2061 182.548 70.9692 182.714 70.7251 182.924ZM84.1431 181.818V183.444C84.1431 184.318 84.0649 185.056 83.9087 185.656C83.7524 186.257 83.5278 186.74 83.2349 187.106C82.9419 187.473 82.5879 187.739 82.1729 187.905C81.7627 188.066 81.2988 188.146 80.7812 188.146C80.3711 188.146 79.9927 188.095 79.646 187.993C79.2993 187.89 78.9868 187.727 78.7085 187.502C78.4351 187.272 78.2007 186.975 78.0054 186.608C77.8101 186.242 77.6611 185.798 77.5586 185.275C77.4561 184.753 77.4048 184.143 77.4048 183.444V181.818C77.4048 180.944 77.4829 180.212 77.6392 179.621C77.8003 179.03 78.0273 178.557 78.3203 178.2C78.6133 177.839 78.9648 177.58 79.375 177.424C79.79 177.268 80.2539 177.189 80.7666 177.189C81.1816 177.189 81.5625 177.241 81.9092 177.343C82.2607 177.441 82.5732 177.6 82.8467 177.819C83.1201 178.034 83.3521 178.322 83.5425 178.684C83.7378 179.04 83.8867 179.477 83.9893 179.995C84.0918 180.512 84.1431 181.12 84.1431 181.818ZM82.7808 183.664V181.591C82.7808 181.113 82.7515 180.693 82.6929 180.332C82.6392 179.965 82.5586 179.653 82.4512 179.394C82.3438 179.135 82.207 178.925 82.041 178.764C81.8799 178.603 81.6919 178.486 81.4771 178.413C81.2671 178.334 81.0303 178.295 80.7666 178.295C80.4443 178.295 80.1587 178.356 79.9097 178.479C79.6606 178.596 79.4507 178.784 79.2798 179.042C79.1138 179.301 78.9868 179.641 78.8989 180.061C78.811 180.48 78.7671 180.991 78.7671 181.591V183.664C78.7671 184.143 78.7939 184.565 78.8477 184.931C78.9062 185.297 78.9917 185.615 79.104 185.883C79.2163 186.147 79.353 186.364 79.5142 186.535C79.6753 186.706 79.8608 186.833 80.0708 186.916C80.2856 186.994 80.5225 187.033 80.7812 187.033C81.1133 187.033 81.4038 186.97 81.6528 186.843C81.9019 186.716 82.1094 186.518 82.2754 186.25C82.4463 185.976 82.5732 185.627 82.6562 185.202C82.7393 184.772 82.7808 184.26 82.7808 183.664Z" fill="#454545"></path> <path d="M67.561 128.887V130H60.5811V129.026L64.0747 125.137C64.5044 124.658 64.8364 124.253 65.0708 123.921C65.3101 123.584 65.4761 123.284 65.5688 123.02C65.6665 122.751 65.7153 122.478 65.7153 122.2C65.7153 121.848 65.6421 121.531 65.4956 121.248C65.354 120.959 65.144 120.73 64.8657 120.559C64.5874 120.388 64.2505 120.303 63.855 120.303C63.3813 120.303 62.9858 120.396 62.6685 120.581C62.356 120.762 62.1216 121.016 61.9653 121.343C61.8091 121.67 61.731 122.046 61.731 122.471H60.376C60.376 121.87 60.5078 121.321 60.7715 120.823C61.0352 120.325 61.4258 119.929 61.9434 119.636C62.4609 119.338 63.0981 119.189 63.855 119.189C64.5288 119.189 65.105 119.309 65.5835 119.548C66.062 119.783 66.4282 120.115 66.6821 120.544C66.9409 120.969 67.0703 121.467 67.0703 122.039C67.0703 122.351 67.0166 122.668 66.9092 122.991C66.8066 123.308 66.6626 123.625 66.4771 123.943C66.2964 124.26 66.084 124.573 65.8398 124.88C65.6006 125.188 65.3442 125.491 65.0708 125.789L62.2144 128.887H67.561ZM75.7056 123.818V125.444C75.7056 126.318 75.6274 127.056 75.4712 127.656C75.3149 128.257 75.0903 128.74 74.7974 129.106C74.5044 129.473 74.1504 129.739 73.7354 129.905C73.3252 130.066 72.8613 130.146 72.3438 130.146C71.9336 130.146 71.5552 130.095 71.2085 129.993C70.8618 129.89 70.5493 129.727 70.271 129.502C69.9976 129.272 69.7632 128.975 69.5679 128.608C69.3726 128.242 69.2236 127.798 69.1211 127.275C69.0186 126.753 68.9673 126.143 68.9673 125.444V123.818C68.9673 122.944 69.0454 122.212 69.2017 121.621C69.3628 121.03 69.5898 120.557 69.8828 120.2C70.1758 119.839 70.5273 119.58 70.9375 119.424C71.3525 119.268 71.8164 119.189 72.3291 119.189C72.7441 119.189 73.125 119.241 73.4717 119.343C73.8232 119.441 74.1357 119.6 74.4092 119.819C74.6826 120.034 74.9146 120.322 75.105 120.684C75.3003 121.04 75.4492 121.477 75.5518 121.995C75.6543 122.512 75.7056 123.12 75.7056 123.818ZM74.3433 125.664V123.591C74.3433 123.113 74.314 122.693 74.2554 122.332C74.2017 121.965 74.1211 121.653 74.0137 121.394C73.9062 121.135 73.7695 120.925 73.6035 120.764C73.4424 120.603 73.2544 120.486 73.0396 120.413C72.8296 120.334 72.5928 120.295 72.3291 120.295C72.0068 120.295 71.7212 120.356 71.4722 120.479C71.2231 120.596 71.0132 120.784 70.8423 121.042C70.6763 121.301 70.5493 121.641 70.4614 122.061C70.3735 122.48 70.3296 122.991 70.3296 123.591V125.664C70.3296 126.143 70.3564 126.565 70.4102 126.931C70.4688 127.297 70.5542 127.615 70.6665 127.883C70.7788 128.147 70.9155 128.364 71.0767 128.535C71.2378 128.706 71.4233 128.833 71.6333 128.916C71.8481 128.994 72.085 129.033 72.3438 129.033C72.6758 129.033 72.9663 128.97 73.2153 128.843C73.4644 128.716 73.6719 128.518 73.8379 128.25C74.0088 127.976 74.1357 127.627 74.2188 127.202C74.3018 126.772 74.3433 126.26 74.3433 125.664ZM84.1431 123.818V125.444C84.1431 126.318 84.0649 127.056 83.9087 127.656C83.7524 128.257 83.5278 128.74 83.2349 129.106C82.9419 129.473 82.5879 129.739 82.1729 129.905C81.7627 130.066 81.2988 130.146 80.7812 130.146C80.3711 130.146 79.9927 130.095 79.646 129.993C79.2993 129.89 78.9868 129.727 78.7085 129.502C78.4351 129.272 78.2007 128.975 78.0054 128.608C77.8101 128.242 77.6611 127.798 77.5586 127.275C77.4561 126.753 77.4048 126.143 77.4048 125.444V123.818C77.4048 122.944 77.4829 122.212 77.6392 121.621C77.8003 121.03 78.0273 120.557 78.3203 120.2C78.6133 119.839 78.9648 119.58 79.375 119.424C79.79 119.268 80.2539 119.189 80.7666 119.189C81.1816 119.189 81.5625 119.241 81.9092 119.343C82.2607 119.441 82.5732 119.6 82.8467 119.819C83.1201 120.034 83.3521 120.322 83.5425 120.684C83.7378 121.04 83.8867 121.477 83.9893 121.995C84.0918 122.512 84.1431 123.12 84.1431 123.818ZM82.7808 125.664V123.591C82.7808 123.113 82.7515 122.693 82.6929 122.332C82.6392 121.965 82.5586 121.653 82.4512 121.394C82.3438 121.135 82.207 120.925 82.041 120.764C81.8799 120.603 81.6919 120.486 81.4771 120.413C81.2671 120.334 81.0303 120.295 80.7666 120.295C80.4443 120.295 80.1587 120.356 79.9097 120.479C79.6606 120.596 79.4507 120.784 79.2798 121.042C79.1138 121.301 78.9868 121.641 78.8989 122.061C78.811 122.48 78.7671 122.991 78.7671 123.591V125.664C78.7671 126.143 78.7939 126.565 78.8477 126.931C78.9062 127.297 78.9917 127.615 79.104 127.883C79.2163 128.147 79.353 128.364 79.5142 128.535C79.6753 128.706 79.8608 128.833 80.0708 128.916C80.2856 128.994 80.5225 129.033 80.7812 129.033C81.1133 129.033 81.4038 128.97 81.6528 128.843C81.9019 128.716 82.1094 128.518 82.2754 128.25C82.4463 127.976 82.5732 127.627 82.6562 127.202C82.7393 126.772 82.7808 126.26 82.7808 125.664Z" fill="#454545"></path> <path d="M67.561 70.8867V72H60.5811V71.0259L64.0747 67.1367C64.5044 66.6582 64.8364 66.2529 65.0708 65.9209C65.3101 65.584 65.4761 65.2837 65.5688 65.02C65.6665 64.7515 65.7153 64.478 65.7153 64.1997C65.7153 63.8481 65.6421 63.5308 65.4956 63.2476C65.354 62.9595 65.144 62.73 64.8657 62.5591C64.5874 62.3882 64.2505 62.3027 63.855 62.3027C63.3813 62.3027 62.9858 62.3955 62.6685 62.5811C62.356 62.7617 62.1216 63.0156 61.9653 63.3428C61.8091 63.6699 61.731 64.0459 61.731 64.4707H60.376C60.376 63.8701 60.5078 63.3208 60.7715 62.8228C61.0352 62.3247 61.4258 61.9292 61.9434 61.6362C62.4609 61.3384 63.0981 61.1895 63.855 61.1895C64.5288 61.1895 65.105 61.3091 65.5835 61.5483C66.062 61.7827 66.4282 62.1147 66.6821 62.5444C66.9409 62.9692 67.0703 63.4673 67.0703 64.0386C67.0703 64.3511 67.0166 64.6685 66.9092 64.9907C66.8066 65.3081 66.6626 65.6255 66.4771 65.9429C66.2964 66.2603 66.084 66.5728 65.8398 66.8804C65.6006 67.188 65.3442 67.4907 65.0708 67.7886L62.2144 70.8867H67.561ZM70.7251 66.9243L69.6411 66.646L70.1758 61.3359H75.647V62.5884H71.3257L71.0034 65.4888C71.1987 65.3765 71.4453 65.2715 71.7432 65.1738C72.0459 65.0762 72.3926 65.0273 72.7832 65.0273C73.2764 65.0273 73.7183 65.1128 74.1089 65.2837C74.4995 65.4497 74.8315 65.689 75.105 66.0015C75.3833 66.314 75.5957 66.6899 75.7422 67.1294C75.8887 67.5688 75.9619 68.0596 75.9619 68.6016C75.9619 69.1143 75.8911 69.5854 75.7495 70.0151C75.6128 70.4448 75.4053 70.8208 75.127 71.1431C74.8486 71.4604 74.4971 71.707 74.0723 71.8828C73.6523 72.0586 73.1567 72.1465 72.5854 72.1465C72.1558 72.1465 71.748 72.0879 71.3623 71.9707C70.9814 71.8486 70.6396 71.6655 70.3369 71.4214C70.0391 71.1724 69.7949 70.8647 69.6045 70.4985C69.4189 70.1274 69.3018 69.6929 69.2529 69.1948H70.542C70.6006 69.5952 70.7178 69.9321 70.8936 70.2056C71.0693 70.479 71.2988 70.6865 71.582 70.8281C71.8701 70.9648 72.2046 71.0332 72.5854 71.0332C72.9077 71.0332 73.1934 70.9771 73.4424 70.8647C73.6914 70.7524 73.9014 70.5913 74.0723 70.3813C74.2432 70.1714 74.3726 69.9175 74.4604 69.6196C74.5532 69.3218 74.5996 68.9873 74.5996 68.6162C74.5996 68.2793 74.5532 67.9668 74.4604 67.6787C74.3677 67.3906 74.2285 67.1392 74.043 66.9243C73.8623 66.7095 73.6401 66.5435 73.3765 66.4263C73.1128 66.3042 72.8101 66.2432 72.4683 66.2432C72.0142 66.2432 71.6699 66.3042 71.4355 66.4263C71.2061 66.5483 70.9692 66.7144 70.7251 66.9243ZM84.1431 65.8184V67.4443C84.1431 68.3184 84.0649 69.0557 83.9087 69.6562C83.7524 70.2568 83.5278 70.7402 83.2349 71.1064C82.9419 71.4727 82.5879 71.7388 82.1729 71.9048C81.7627 72.0659 81.2988 72.1465 80.7812 72.1465C80.3711 72.1465 79.9927 72.0952 79.646 71.9927C79.2993 71.8901 78.9868 71.7266 78.7085 71.502C78.4351 71.2725 78.2007 70.9746 78.0054 70.6084C77.8101 70.2422 77.6611 69.7979 77.5586 69.2754C77.4561 68.7529 77.4048 68.1426 77.4048 67.4443V65.8184C77.4048 64.9443 77.4829 64.2119 77.6392 63.6211C77.8003 63.0303 78.0273 62.5566 78.3203 62.2002C78.6133 61.8389 78.9648 61.5801 79.375 61.4238C79.79 61.2676 80.2539 61.1895 80.7666 61.1895C81.1816 61.1895 81.5625 61.2407 81.9092 61.3433C82.2607 61.4409 82.5732 61.5996 82.8467 61.8193C83.1201 62.0342 83.3521 62.3223 83.5425 62.6836C83.7378 63.04 83.8867 63.4771 83.9893 63.9946C84.0918 64.5122 84.1431 65.1201 84.1431 65.8184ZM82.7808 67.6641V65.5913C82.7808 65.1128 82.7515 64.6929 82.6929 64.3315C82.6392 63.9653 82.5586 63.6528 82.4512 63.394C82.3438 63.1353 82.207 62.9253 82.041 62.7642C81.8799 62.603 81.6919 62.4858 81.4771 62.4126C81.2671 62.3345 81.0303 62.2954 80.7666 62.2954C80.4443 62.2954 80.1587 62.3564 79.9097 62.4785C79.6606 62.5957 79.4507 62.7837 79.2798 63.0425C79.1138 63.3013 78.9868 63.6406 78.8989 64.0605C78.811 64.4805 78.7671 64.9907 78.7671 65.5913V67.6641C78.7671 68.1426 78.7939 68.5649 78.8477 68.9312C78.9062 69.2974 78.9917 69.6147 79.104 69.8833C79.2163 70.147 79.353 70.3643 79.5142 70.5352C79.6753 70.7061 79.8608 70.833 80.0708 70.916C80.2856 70.9941 80.5225 71.0332 80.7812 71.0332C81.1133 71.0332 81.4038 70.9697 81.6528 70.8428C81.9019 70.7158 82.1094 70.5181 82.2754 70.2495C82.4463 69.9761 82.5732 69.627 82.6562 69.2021C82.7393 68.7725 82.7808 68.2598 82.7808 67.6641Z" fill="#454545"></path> <path d="M70.7251 298.924L69.6411 298.646L70.1758 293.336H75.647V294.588H71.3257L71.0034 297.489C71.1987 297.376 71.4453 297.271 71.7432 297.174C72.0459 297.076 72.3926 297.027 72.7832 297.027C73.2764 297.027 73.7183 297.113 74.1089 297.284C74.4995 297.45 74.8315 297.689 75.105 298.001C75.3833 298.314 75.5957 298.69 75.7422 299.129C75.8887 299.569 75.9619 300.06 75.9619 300.602C75.9619 301.114 75.8911 301.585 75.7495 302.015C75.6128 302.445 75.4053 302.821 75.127 303.143C74.8486 303.46 74.4971 303.707 74.0723 303.883C73.6523 304.059 73.1567 304.146 72.5854 304.146C72.1558 304.146 71.748 304.088 71.3623 303.971C70.9814 303.849 70.6396 303.666 70.3369 303.421C70.0391 303.172 69.7949 302.865 69.6045 302.499C69.4189 302.127 69.3018 301.693 69.2529 301.195H70.542C70.6006 301.595 70.7178 301.932 70.8936 302.206C71.0693 302.479 71.2988 302.687 71.582 302.828C71.8701 302.965 72.2046 303.033 72.5854 303.033C72.9077 303.033 73.1934 302.977 73.4424 302.865C73.6914 302.752 73.9014 302.591 74.0723 302.381C74.2432 302.171 74.3726 301.917 74.4604 301.62C74.5532 301.322 74.5996 300.987 74.5996 300.616C74.5996 300.279 74.5532 299.967 74.4604 299.679C74.3677 299.391 74.2285 299.139 74.043 298.924C73.8623 298.709 73.6401 298.543 73.3765 298.426C73.1128 298.304 72.8101 298.243 72.4683 298.243C72.0142 298.243 71.6699 298.304 71.4355 298.426C71.2061 298.548 70.9692 298.714 70.7251 298.924ZM84.1431 297.818V299.444C84.1431 300.318 84.0649 301.056 83.9087 301.656C83.7524 302.257 83.5278 302.74 83.2349 303.106C82.9419 303.473 82.5879 303.739 82.1729 303.905C81.7627 304.066 81.2988 304.146 80.7812 304.146C80.3711 304.146 79.9927 304.095 79.646 303.993C79.2993 303.89 78.9868 303.727 78.7085 303.502C78.4351 303.272 78.2007 302.975 78.0054 302.608C77.8101 302.242 77.6611 301.798 77.5586 301.275C77.4561 300.753 77.4048 300.143 77.4048 299.444V297.818C77.4048 296.944 77.4829 296.212 77.6392 295.621C77.8003 295.03 78.0273 294.557 78.3203 294.2C78.6133 293.839 78.9648 293.58 79.375 293.424C79.79 293.268 80.2539 293.189 80.7666 293.189C81.1816 293.189 81.5625 293.241 81.9092 293.343C82.2607 293.441 82.5732 293.6 82.8467 293.819C83.1201 294.034 83.3521 294.322 83.5425 294.684C83.7378 295.04 83.8867 295.477 83.9893 295.995C84.0918 296.512 84.1431 297.12 84.1431 297.818ZM82.7808 299.664V297.591C82.7808 297.113 82.7515 296.693 82.6929 296.332C82.6392 295.965 82.5586 295.653 82.4512 295.394C82.3438 295.135 82.207 294.925 82.041 294.764C81.8799 294.603 81.6919 294.486 81.4771 294.413C81.2671 294.334 81.0303 294.295 80.7666 294.295C80.4443 294.295 80.1587 294.356 79.9097 294.479C79.6606 294.596 79.4507 294.784 79.2798 295.042C79.1138 295.301 78.9868 295.641 78.8989 296.061C78.811 296.48 78.7671 296.991 78.7671 297.591V299.664C78.7671 300.143 78.7939 300.565 78.8477 300.931C78.9062 301.297 78.9917 301.615 79.104 301.883C79.2163 302.147 79.353 302.364 79.5142 302.535C79.6753 302.706 79.8608 302.833 80.0708 302.916C80.2856 302.994 80.5225 303.033 80.7812 303.033C81.1133 303.033 81.4038 302.97 81.6528 302.843C81.9019 302.716 82.1094 302.518 82.2754 302.25C82.4463 301.976 82.5732 301.627 82.6562 301.202C82.7393 300.772 82.7808 300.26 82.7808 299.664Z" fill="#454545"></path> <line x1="101.5" y1="361" x2="101.5" y2="58" stroke="#A6A6A6" stroke-opacity="0.26" stroke-width="3"></line> <path d="M192.953 378.994V380.837C192.953 381.827 192.864 382.663 192.687 383.344C192.51 384.024 192.255 384.572 191.923 384.987C191.591 385.402 191.19 385.704 190.72 385.892C190.255 386.075 189.729 386.166 189.143 386.166C188.678 386.166 188.249 386.108 187.856 385.992C187.463 385.875 187.109 385.69 186.793 385.436C186.484 385.175 186.218 384.838 185.997 384.423C185.775 384.008 185.606 383.504 185.49 382.912C185.374 382.32 185.316 381.628 185.316 380.837V378.994C185.316 378.004 185.404 377.174 185.582 376.504C185.764 375.834 186.021 375.298 186.354 374.894C186.686 374.484 187.084 374.191 187.549 374.014C188.019 373.837 188.545 373.748 189.126 373.748C189.596 373.748 190.028 373.806 190.421 373.922C190.819 374.033 191.174 374.213 191.483 374.462C191.793 374.705 192.056 375.032 192.272 375.441C192.493 375.845 192.662 376.341 192.778 376.927C192.895 377.514 192.953 378.203 192.953 378.994ZM191.409 381.086V378.737C191.409 378.194 191.375 377.719 191.309 377.309C191.248 376.894 191.157 376.54 191.035 376.247C190.913 375.953 190.758 375.715 190.57 375.533C190.388 375.35 190.175 375.217 189.931 375.134C189.693 375.046 189.425 375.001 189.126 375.001C188.761 375.001 188.437 375.071 188.155 375.209C187.873 375.342 187.635 375.555 187.441 375.848C187.253 376.141 187.109 376.526 187.009 377.002C186.91 377.478 186.86 378.056 186.86 378.737V381.086C186.86 381.628 186.89 382.107 186.951 382.522C187.018 382.937 187.114 383.297 187.242 383.601C187.369 383.9 187.524 384.146 187.707 384.34C187.889 384.534 188.099 384.677 188.337 384.771C188.581 384.86 188.849 384.904 189.143 384.904C189.519 384.904 189.848 384.832 190.13 384.688C190.413 384.545 190.648 384.32 190.836 384.016C191.03 383.706 191.174 383.311 191.268 382.829C191.362 382.342 191.409 381.761 191.409 381.086ZM207.803 379.334V380.596H199.485V379.334H207.803ZM219.565 373.848V386H218.029V375.765L214.933 376.894V375.508L219.324 373.848H219.565ZM231.701 382.729C231.701 383.465 231.529 384.091 231.186 384.605C230.848 385.115 230.389 385.502 229.808 385.768C229.233 386.033 228.582 386.166 227.857 386.166C227.132 386.166 226.479 386.033 225.898 385.768C225.317 385.502 224.858 385.115 224.521 384.605C224.183 384.091 224.014 383.465 224.014 382.729C224.014 382.248 224.105 381.808 224.288 381.41C224.476 381.006 224.739 380.654 225.077 380.355C225.42 380.057 225.824 379.827 226.289 379.667C226.759 379.5 227.276 379.417 227.841 379.417C228.582 379.417 229.244 379.561 229.825 379.849C230.406 380.131 230.862 380.521 231.194 381.02C231.532 381.518 231.701 382.088 231.701 382.729ZM230.157 382.696C230.157 382.248 230.06 381.852 229.866 381.509C229.673 381.161 229.401 380.889 229.053 380.696C228.704 380.502 228.3 380.405 227.841 380.405C227.37 380.405 226.964 380.502 226.621 380.696C226.283 380.889 226.02 381.161 225.832 381.509C225.644 381.852 225.55 382.248 225.55 382.696C225.55 383.161 225.641 383.56 225.824 383.892C226.012 384.218 226.278 384.47 226.621 384.647C226.969 384.819 227.382 384.904 227.857 384.904C228.333 384.904 228.743 384.819 229.086 384.647C229.429 384.47 229.692 384.218 229.875 383.892C230.063 383.56 230.157 383.161 230.157 382.696ZM231.418 377.06C231.418 377.647 231.264 378.175 230.954 378.646C230.644 379.116 230.22 379.487 229.684 379.758C229.147 380.029 228.538 380.165 227.857 380.165C227.166 380.165 226.549 380.029 226.006 379.758C225.47 379.487 225.049 379.116 224.745 378.646C224.44 378.175 224.288 377.647 224.288 377.06C224.288 376.357 224.44 375.76 224.745 375.267C225.055 374.775 225.478 374.398 226.015 374.138C226.551 373.878 227.163 373.748 227.849 373.748C228.541 373.748 229.155 373.878 229.692 374.138C230.229 374.398 230.649 374.775 230.954 375.267C231.264 375.76 231.418 376.357 231.418 377.06ZM229.883 377.085C229.883 376.681 229.797 376.324 229.625 376.014C229.454 375.704 229.216 375.461 228.912 375.284C228.607 375.101 228.253 375.01 227.849 375.01C227.445 375.01 227.091 375.096 226.787 375.267C226.488 375.433 226.253 375.671 226.081 375.981C225.915 376.291 225.832 376.659 225.832 377.085C225.832 377.5 225.915 377.862 226.081 378.172C226.253 378.482 226.491 378.723 226.795 378.895C227.099 379.066 227.453 379.152 227.857 379.152C228.261 379.152 228.613 379.066 228.912 378.895C229.216 378.723 229.454 378.482 229.625 378.172C229.797 377.862 229.883 377.5 229.883 377.085Z" fill="#454545"></path> <path d="M370.131 373.848V386H368.596V375.765L365.5 376.894V375.508L369.891 373.848H370.131ZM376.174 384.713H376.332C377.217 384.713 377.937 384.589 378.49 384.34C379.044 384.091 379.47 383.756 379.769 383.335C380.067 382.915 380.272 382.442 380.383 381.916C380.493 381.385 380.549 380.84 380.549 380.281V378.43C380.549 377.882 380.485 377.395 380.358 376.969C380.236 376.543 380.065 376.186 379.843 375.898C379.627 375.61 379.381 375.392 379.104 375.242C378.828 375.093 378.535 375.018 378.225 375.018C377.87 375.018 377.552 375.09 377.27 375.234C376.993 375.372 376.758 375.569 376.564 375.823C376.376 376.078 376.232 376.377 376.133 376.72C376.033 377.063 375.983 377.436 375.983 377.84C375.983 378.2 376.028 378.549 376.116 378.886C376.205 379.224 376.34 379.528 376.523 379.799C376.706 380.07 376.932 380.286 377.204 380.447C377.48 380.602 377.804 380.679 378.175 380.679C378.518 380.679 378.839 380.613 379.138 380.48C379.442 380.342 379.71 380.156 379.943 379.924C380.181 379.686 380.369 379.417 380.507 379.119C380.651 378.82 380.734 378.507 380.756 378.181H381.487C381.487 378.64 381.396 379.094 381.213 379.542C381.036 379.985 380.787 380.389 380.466 380.754C380.145 381.119 379.769 381.412 379.337 381.634C378.905 381.85 378.435 381.958 377.926 381.958C377.328 381.958 376.811 381.841 376.374 381.609C375.936 381.376 375.577 381.067 375.294 380.679C375.018 380.292 374.81 379.86 374.672 379.384C374.539 378.903 374.473 378.416 374.473 377.923C374.473 377.348 374.553 376.808 374.713 376.305C374.874 375.801 375.112 375.358 375.427 374.977C375.743 374.589 376.133 374.288 376.598 374.072C377.068 373.856 377.61 373.748 378.225 373.748C378.916 373.748 379.506 373.886 379.993 374.163C380.48 374.44 380.875 374.811 381.18 375.275C381.49 375.74 381.716 376.263 381.86 376.844C382.004 377.425 382.076 378.023 382.076 378.637V379.193C382.076 379.819 382.035 380.455 381.952 381.103C381.874 381.744 381.722 382.359 381.495 382.945C381.274 383.532 380.95 384.058 380.524 384.522C380.098 384.982 379.542 385.347 378.855 385.618C378.175 385.884 377.334 386.017 376.332 386.017H376.174V384.713ZM397.084 379.334V380.596H388.767V379.334H397.084ZM406.041 379.202H407.136C407.673 379.202 408.116 379.113 408.464 378.936C408.819 378.753 409.081 378.507 409.253 378.197C409.43 377.882 409.519 377.528 409.519 377.135C409.519 376.67 409.441 376.28 409.286 375.964C409.131 375.649 408.899 375.411 408.589 375.25C408.279 375.09 407.886 375.01 407.41 375.01C406.979 375.01 406.597 375.096 406.265 375.267C405.938 375.433 405.681 375.671 405.493 375.981C405.31 376.291 405.219 376.656 405.219 377.077H403.683C403.683 376.462 403.838 375.903 404.148 375.4C404.458 374.896 404.892 374.495 405.451 374.196C406.016 373.897 406.669 373.748 407.41 373.748C408.141 373.748 408.78 373.878 409.328 374.138C409.875 374.393 410.302 374.775 410.606 375.284C410.91 375.787 411.062 376.415 411.062 377.168C411.062 377.472 410.991 377.799 410.847 378.147C410.708 378.491 410.49 378.812 410.191 379.11C409.898 379.409 409.516 379.655 409.045 379.849C408.575 380.037 408.011 380.131 407.352 380.131H406.041V379.202ZM406.041 380.463V379.542H407.352C408.121 379.542 408.758 379.633 409.261 379.816C409.765 379.999 410.16 380.242 410.448 380.546C410.742 380.851 410.946 381.186 411.062 381.551C411.184 381.91 411.245 382.27 411.245 382.63C411.245 383.194 411.148 383.695 410.955 384.132C410.766 384.569 410.498 384.94 410.149 385.245C409.806 385.549 409.402 385.779 408.938 385.934C408.473 386.089 407.966 386.166 407.418 386.166C406.893 386.166 406.397 386.091 405.933 385.942C405.473 385.792 405.067 385.577 404.712 385.294C404.358 385.007 404.082 384.655 403.882 384.24C403.683 383.82 403.583 383.341 403.583 382.804H405.119C405.119 383.225 405.21 383.593 405.393 383.908C405.581 384.224 405.847 384.47 406.19 384.647C406.539 384.819 406.948 384.904 407.418 384.904C407.889 384.904 408.293 384.824 408.63 384.664C408.973 384.498 409.236 384.249 409.419 383.917C409.607 383.584 409.701 383.167 409.701 382.663C409.701 382.16 409.596 381.747 409.386 381.426C409.175 381.1 408.877 380.859 408.489 380.704C408.107 380.544 407.656 380.463 407.136 380.463H406.041ZM414.889 384.713H415.047C415.932 384.713 416.652 384.589 417.205 384.34C417.758 384.091 418.185 383.756 418.483 383.335C418.782 382.915 418.987 382.442 419.098 381.916C419.208 381.385 419.264 380.84 419.264 380.281V378.43C419.264 377.882 419.2 377.395 419.073 376.969C418.951 376.543 418.779 376.186 418.558 375.898C418.342 375.61 418.096 375.392 417.819 375.242C417.543 375.093 417.249 375.018 416.939 375.018C416.585 375.018 416.267 375.09 415.985 375.234C415.708 375.372 415.473 375.569 415.279 375.823C415.091 376.078 414.947 376.377 414.848 376.72C414.748 377.063 414.698 377.436 414.698 377.84C414.698 378.2 414.743 378.549 414.831 378.886C414.92 379.224 415.055 379.528 415.238 379.799C415.42 380.07 415.647 380.286 415.918 380.447C416.195 380.602 416.519 380.679 416.89 380.679C417.233 380.679 417.554 380.613 417.853 380.48C418.157 380.342 418.425 380.156 418.658 379.924C418.896 379.686 419.084 379.417 419.222 379.119C419.366 378.82 419.449 378.507 419.471 378.181H420.202C420.202 378.64 420.11 379.094 419.928 379.542C419.751 379.985 419.502 380.389 419.181 380.754C418.86 381.119 418.483 381.412 418.052 381.634C417.62 381.85 417.15 381.958 416.641 381.958C416.043 381.958 415.526 381.841 415.088 381.609C414.651 381.376 414.292 381.067 414.009 380.679C413.733 380.292 413.525 379.86 413.387 379.384C413.254 378.903 413.188 378.416 413.188 377.923C413.188 377.348 413.268 376.808 413.428 376.305C413.589 375.801 413.827 375.358 414.142 374.977C414.458 374.589 414.848 374.288 415.312 374.072C415.783 373.856 416.325 373.748 416.939 373.748C417.631 373.748 418.221 373.886 418.708 374.163C419.194 374.44 419.59 374.811 419.895 375.275C420.204 375.74 420.431 376.263 420.575 376.844C420.719 377.425 420.791 378.023 420.791 378.637V379.193C420.791 379.819 420.75 380.455 420.667 381.103C420.589 381.744 420.437 382.359 420.21 382.945C419.989 383.532 419.665 384.058 419.239 384.522C418.813 384.982 418.257 385.347 417.57 385.618C416.89 385.884 416.049 386.017 415.047 386.017H414.889V384.713Z" fill="#454545"></path> <path d="M572.287 381.933V383.194H563.555V382.29L568.967 373.914H570.22L568.875 376.338L565.298 381.933H572.287ZM570.602 373.914V386H569.066V373.914H570.602ZM581.269 378.994V380.837C581.269 381.827 581.18 382.663 581.003 383.344C580.826 384.024 580.571 384.572 580.239 384.987C579.907 385.402 579.506 385.704 579.036 385.892C578.571 386.075 578.045 386.166 577.458 386.166C576.994 386.166 576.565 386.108 576.172 385.992C575.779 385.875 575.425 385.69 575.109 385.436C574.799 385.175 574.534 384.838 574.312 384.423C574.091 384.008 573.922 383.504 573.806 382.912C573.69 382.32 573.632 381.628 573.632 380.837V378.994C573.632 378.004 573.72 377.174 573.897 376.504C574.08 375.834 574.337 375.298 574.669 374.894C575.001 374.484 575.4 374.191 575.865 374.014C576.335 373.837 576.861 373.748 577.442 373.748C577.912 373.748 578.344 373.806 578.737 373.922C579.135 374.033 579.489 374.213 579.799 374.462C580.109 374.705 580.372 375.032 580.588 375.441C580.809 375.845 580.978 376.341 581.094 376.927C581.21 377.514 581.269 378.203 581.269 378.994ZM579.725 381.086V378.737C579.725 378.194 579.691 377.719 579.625 377.309C579.564 376.894 579.473 376.54 579.351 376.247C579.229 375.953 579.074 375.715 578.886 375.533C578.704 375.35 578.491 375.217 578.247 375.134C578.009 375.046 577.741 375.001 577.442 375.001C577.077 375.001 576.753 375.071 576.471 375.209C576.188 375.342 575.951 375.555 575.757 375.848C575.569 376.141 575.425 376.526 575.325 377.002C575.226 377.478 575.176 378.056 575.176 378.737V381.086C575.176 381.628 575.206 382.107 575.267 382.522C575.333 382.937 575.43 383.297 575.558 383.601C575.685 383.9 575.84 384.146 576.022 384.34C576.205 384.534 576.415 384.677 576.653 384.771C576.897 384.86 577.165 384.904 577.458 384.904C577.835 384.904 578.164 384.832 578.446 384.688C578.729 384.545 578.964 384.32 579.152 384.016C579.346 383.706 579.489 383.311 579.583 382.829C579.678 382.342 579.725 381.761 579.725 381.086ZM591.171 379.517V380.961H582.887V379.517H591.171ZM587.801 375.989V384.788H586.266V375.989H587.801Z" fill="#454545"></path> <path d="M22.5713 303.164L22.5713 304.633L28 304.633L28 306.227L15.9141 306.227L15.9141 304.633L21.2432 304.633L21.2432 303.388L15.9141 299.163L15.9141 297.179L21.7744 301.794L28 296.838L28 298.789L22.5713 303.164ZM23.4263 296.257C22.5464 296.257 21.755 296.086 21.0522 295.743C20.3494 295.394 19.8071 294.913 19.4253 294.298C19.0435 293.679 18.8525 292.973 18.8525 292.182C18.8525 290.959 19.2759 289.971 20.1226 289.218C20.9692 288.46 22.0954 288.081 23.501 288.081L23.6089 288.081C24.4832 288.081 25.269 288.25 25.9663 288.587C26.658 288.919 27.1976 289.398 27.585 290.023C27.9723 290.643 28.166 291.357 28.166 292.165C28.166 293.382 27.7427 294.37 26.896 295.128C26.0493 295.881 24.9287 296.257 23.5342 296.257L23.4263 296.257ZM23.6089 294.713C24.605 294.713 25.4046 294.484 26.0078 294.024C26.611 293.56 26.9126 292.94 26.9126 292.165C26.9126 291.385 26.6082 290.765 25.9995 290.306C25.3853 289.846 24.5275 289.617 23.4263 289.617C22.4412 289.617 21.6444 289.852 21.0356 290.322C20.4214 290.787 20.1143 291.407 20.1143 292.182C20.1143 292.94 20.4158 293.551 21.019 294.016C21.6222 294.481 22.4855 294.713 23.6089 294.713ZM19.0186 278.925L28 278.925L28 280.469L20.2886 280.469L20.2886 283.524L23.6504 283.707C25.1943 283.806 26.2983 284.066 26.9624 284.487C27.6265 284.902 27.9723 285.563 28 286.471L28 287.085L26.647 287.085L26.6138 286.645C26.5584 286.147 26.2707 285.79 25.7505 285.574C25.2303 285.358 24.2674 285.22 22.8618 285.159L19.0186 284.993L19.0186 278.925ZM19.0186 270.649L19.0186 269.114L28 269.114L28 270.649L21.4507 270.649L28 274.792L28 276.327L19.0186 276.327L19.0186 274.792L25.5762 274.792L19.0186 270.649ZM28 259.867L28 261.411L24.7461 261.411C24.9232 262.086 25.0117 262.778 25.0117 263.486C25.0117 264.609 24.724 265.467 24.1484 266.059C23.5729 266.646 22.7539 266.944 21.6914 266.956L19.0102 266.956L19.0102 265.42L21.7412 265.42C23.0804 265.392 23.75 264.748 23.75 263.486C23.75 262.778 23.6615 262.086 23.4844 261.411L19.0186 261.411L19.0186 259.867L28 259.867ZM28.166 253.674C28.166 254.892 27.7676 255.882 26.9707 256.646C26.1683 257.41 25.0975 257.792 23.7583 257.792L23.4761 257.792C22.5851 257.792 21.791 257.623 21.0937 257.285C20.3909 256.942 19.8431 256.466 19.4502 255.857C19.0518 255.243 18.8525 254.579 18.8525 253.865C18.8525 252.698 19.2371 251.79 20.0063 251.143C20.7755 250.495 21.8768 250.171 23.3101 250.171L23.9492 250.171L23.9492 256.256C24.8346 256.234 25.5513 255.976 26.0991 255.484C26.6414 254.986 26.9126 254.355 26.9126 253.591C26.9126 253.049 26.8019 252.59 26.5806 252.213C26.3592 251.837 26.0659 251.508 25.7007 251.226L26.4311 250.288C27.5877 251.04 28.166 252.169 28.166 253.674ZM20.1143 253.865C20.1143 254.485 20.3411 255.005 20.7949 255.426C21.2432 255.846 21.874 256.106 22.6875 256.206L22.6875 251.707L22.5713 251.707C21.791 251.751 21.1878 251.962 20.7617 252.338C20.3301 252.714 20.1143 253.223 20.1143 253.865ZM26.9126 244.784C26.9126 244.236 26.7466 243.758 26.4145 243.348C26.0825 242.939 25.6675 242.712 25.1694 242.667L25.1694 241.215C25.6841 241.243 26.1738 241.42 26.6387 241.746C27.1035 242.073 27.4743 242.51 27.751 243.058C28.0277 243.6 28.166 244.175 28.166 244.784C28.166 246.007 27.7593 246.981 26.9458 247.706C26.1268 248.425 25.0089 248.785 23.5923 248.785L23.335 248.785C22.4606 248.785 21.6831 248.625 21.0024 248.304C20.3218 247.983 19.7933 247.523 19.417 246.926C19.0407 246.323 18.8525 245.611 18.8525 244.792C18.8525 243.785 19.1541 242.95 19.7573 242.286C20.3605 241.616 21.1435 241.259 22.1064 241.215L22.1064 242.667C21.5254 242.712 21.0495 242.933 20.6787 243.332C20.3024 243.724 20.1143 244.211 20.1143 244.792C20.1143 245.573 20.3965 246.179 20.9609 246.61C21.5199 247.036 22.3306 247.25 23.3931 247.25L23.6836 247.25C24.7184 247.25 25.5153 247.036 26.0742 246.61C26.6331 246.184 26.9126 245.576 26.9126 244.784ZM20.2637 232.814L20.2637 235.828L28 235.828L28 237.363L20.2637 237.363L20.2637 240.318L19.0185 240.318L19.0185 232.814L20.2637 232.814ZM28 231.179L19.0185 231.179L19.0185 227.676C19.0185 226.481 19.2288 225.565 19.6494 224.929C20.0644 224.287 20.6759 223.966 21.4839 223.966C21.8989 223.966 22.2752 224.09 22.6128 224.339C22.9448 224.588 23.1994 224.956 23.3765 225.443C23.5037 224.901 23.7528 224.467 24.1235 224.14C24.4943 223.808 24.937 223.642 25.4517 223.642C26.2762 223.642 26.9071 223.946 27.3442 224.555C27.7814 225.158 28 226.013 28 227.12L28 231.179ZM24.0571 229.644L26.7632 229.644L26.7632 227.104C26.7632 226.462 26.6442 225.983 26.4062 225.667C26.1683 225.347 25.8335 225.186 25.4018 225.186C24.5054 225.186 24.0571 225.845 24.0571 227.162L24.0571 229.644ZM22.8286 229.644L22.8286 227.66C22.8286 226.221 22.408 225.501 21.5669 225.501C20.7257 225.501 20.2913 226.182 20.2637 227.543L20.2637 229.644L22.8286 229.644ZM23.4263 222.015C22.5464 222.015 21.755 221.844 21.0522 221.5C20.3494 221.152 19.8071 220.67 19.4253 220.056C19.0435 219.436 18.8525 218.731 18.8525 217.939C18.8525 216.716 19.2759 215.729 20.1226 214.976C20.9692 214.218 22.0954 213.839 23.501 213.839L23.6089 213.839C24.4832 213.839 25.269 214.008 25.9663 214.345C26.658 214.677 27.1976 215.156 27.585 215.781C27.9723 216.401 28.166 217.115 28.166 217.923C28.166 219.14 27.7427 220.128 26.896 220.886C26.0493 221.639 24.9287 222.015 23.5342 222.015L23.4263 222.015ZM23.6089 220.471C24.605 220.471 25.4046 220.242 26.0078 219.782C26.611 219.317 26.9126 218.698 26.9126 217.923C26.9126 217.143 26.6082 216.523 25.9995 216.063C25.3852 215.604 24.5275 215.375 23.4263 215.375C22.4412 215.375 21.6444 215.61 21.0356 216.08C20.4214 216.545 20.1143 217.165 20.1143 217.939C20.1143 218.698 20.4158 219.309 21.019 219.774C21.6222 220.239 22.4855 220.471 23.6089 220.471ZM23.4263 208.103C22.5464 208.103 21.755 207.931 21.0522 207.588C20.3494 207.24 19.8071 206.758 19.4253 206.144C19.0435 205.524 18.8525 204.819 18.8525 204.027C18.8525 202.804 19.2759 201.817 20.1226 201.064C20.9692 200.306 22.0954 199.927 23.501 199.927L23.6089 199.927C24.4832 199.927 25.269 200.096 25.9663 200.433C26.658 200.765 27.1976 201.244 27.585 201.869C27.9723 202.489 28.166 203.203 28.166 204.011C28.166 205.228 27.7427 206.216 26.896 206.974C26.0493 207.727 24.9287 208.103 23.5342 208.103L23.4263 208.103ZM23.6089 206.559C24.605 206.559 25.4046 206.329 26.0078 205.87C26.611 205.405 26.9126 204.785 26.9126 204.011C26.9126 203.23 26.6082 202.611 25.9995 202.151C25.3852 201.692 24.5275 201.462 23.4263 201.462C22.4412 201.462 21.6444 201.698 21.0356 202.168C20.4214 202.633 20.1143 203.253 20.1143 204.027C20.1143 204.785 20.4158 205.397 21.019 205.862C21.6222 206.327 22.4855 206.559 23.6089 206.559ZM19.5332 194.058C19.5332 192.929 19.9123 192.027 20.6704 191.352C21.423 190.671 22.4163 190.331 23.6504 190.331L23.7915 190.331C24.6382 190.331 25.3963 190.494 26.0659 190.821C26.73 191.147 27.2474 191.618 27.6182 192.232C27.9834 192.841 28.166 193.543 28.166 194.34C28.166 195.547 27.7648 196.518 26.9624 197.254C26.1545 197.99 25.0726 198.358 23.7168 198.358L22.9697 198.358C21.0827 198.358 19.583 198.009 18.4707 197.312C17.3584 196.609 16.6805 195.574 16.437 194.208C16.2987 193.433 16.1299 192.91 15.9307 192.639C15.7314 192.368 15.4575 192.232 15.1089 192.232L15.1089 190.97C15.8006 190.97 16.3402 191.128 16.7275 191.443C17.1149 191.753 17.3888 192.251 17.5493 192.937L17.8066 194.083C18.0225 194.996 18.3877 195.682 18.9023 196.142C19.4115 196.595 20.0921 196.891 20.9443 197.03C20.0036 196.216 19.5332 195.226 19.5332 194.058ZM20.7949 194.357C20.7949 195.11 21.0495 195.707 21.5586 196.15C22.0622 196.593 22.7622 196.814 23.6587 196.814L23.7915 196.814C24.7544 196.814 25.5181 196.593 26.0825 196.15C26.6414 195.702 26.9209 195.098 26.9209 194.34C26.9209 193.577 26.6387 192.973 26.0742 192.531C25.5098 192.088 24.6852 191.867 23.6006 191.867C22.7539 191.867 22.076 192.091 21.5669 192.539C21.0522 192.982 20.7949 193.588 20.7949 194.357ZM23.6089 181.167C24.9757 181.167 26.077 181.48 26.9126 182.105C27.7482 182.73 28.166 183.577 28.166 184.645C28.166 185.735 27.8201 186.593 27.1284 187.218L31.4531 187.218L31.4531 188.754L19.0185 188.754L19.0185 187.351L20.0146 187.276C19.2399 186.651 18.8525 185.782 18.8525 184.67C18.8525 183.591 19.2593 182.739 20.0727 182.113C20.8862 181.482 22.0179 181.167 23.4678 181.167L23.6089 181.167ZM23.4346 182.703C22.4219 182.703 21.6222 182.918 21.0356 183.35C20.449 183.782 20.1558 184.374 20.1558 185.126C20.1558 186.056 20.568 186.753 21.3926 187.218L25.6841 187.218C26.5031 186.759 26.9126 186.056 26.9126 185.11C26.9126 184.374 26.6221 183.79 26.041 183.358C25.4544 182.921 24.5856 182.703 23.4346 182.703ZM28 173.663C27.8229 173.752 27.5075 173.824 27.0537 173.879C27.7952 174.593 28.166 175.445 28.166 176.436C28.166 177.321 27.917 178.049 27.4189 178.619C26.9154 179.183 26.279 179.465 25.5098 179.465C24.5745 179.465 23.8496 179.111 23.335 178.403C22.8148 177.689 22.5547 176.687 22.5547 175.398L22.5547 173.904L21.8491 173.904C21.3123 173.904 20.8862 174.064 20.5708 174.385C20.2498 174.706 20.0893 175.179 20.0893 175.805C20.0893 176.353 20.2277 176.812 20.5044 177.183C20.7811 177.553 21.1159 177.739 21.5088 177.739L21.5088 179.283C21.0605 179.283 20.6289 179.125 20.2139 178.81C19.7933 178.489 19.4613 178.057 19.2178 177.515C18.9743 176.967 18.8525 176.366 18.8525 175.713C18.8525 174.679 19.1126 173.868 19.6328 173.281C20.1475 172.695 20.8586 172.39 21.7661 172.368L25.8999 172.368C26.7244 172.368 27.3802 172.263 27.8672 172.053L28 172.053L28 173.663ZM26.8296 176.211C26.8296 175.73 26.7051 175.273 26.456 174.842C26.207 174.41 25.8833 174.097 25.4849 173.904L23.6421 173.904L23.6421 175.107C23.6421 176.989 24.1927 177.93 25.2939 177.93C25.7754 177.93 26.1517 177.769 26.4228 177.448C26.694 177.127 26.8296 176.715 26.8296 176.211ZM19.0185 168.375L26.7466 168.375L26.7466 165.088L19.0185 165.088L19.0185 163.553L26.7466 163.553L26.7466 160.274L19.0185 160.274L19.0185 158.73L26.7466 158.73L26.7466 157.468L30.6645 157.618L30.6645 158.996L28 158.996L28 169.919L19.0185 169.919L19.0185 168.375ZM28.166 152.073C28.166 153.29 27.7676 154.281 26.9707 155.044C26.1683 155.808 25.0975 156.19 23.7583 156.19L23.4761 156.19C22.5851 156.19 21.791 156.021 21.0937 155.684C20.3909 155.34 19.8431 154.865 19.4502 154.256C19.0517 153.642 18.8525 152.978 18.8525 152.264C18.8525 151.096 19.2371 150.188 20.0063 149.541C20.7755 148.894 21.8768 148.57 23.31 148.57L23.9492 148.57L23.9492 154.654C24.8346 154.632 25.5513 154.375 26.0991 153.882C26.6414 153.384 26.9126 152.753 26.9126 151.99C26.9126 151.447 26.8019 150.988 26.5806 150.612C26.3592 150.236 26.0659 149.906 25.7007 149.624L26.4311 148.686C27.5877 149.439 28.166 150.568 28.166 152.073ZM20.1142 152.264C20.1142 152.883 20.3411 153.404 20.7949 153.824C21.2432 154.245 21.874 154.505 22.6875 154.604L22.6875 150.105L22.5713 150.105C21.791 150.15 21.1878 150.36 20.7617 150.736C20.3301 151.113 20.1142 151.622 20.1142 152.264ZM28 139.447L28 140.983L24.165 140.983L24.165 145.108L28 145.108L28 146.652L19.0185 146.652L19.0185 145.108L22.9116 145.108L22.9116 140.983L19.0185 140.983L19.0185 139.447L28 139.447ZM19.0185 131.163L19.0185 129.627L28 129.627L28 131.163L21.4507 131.163L28 135.305L28 136.841L19.0185 136.841L19.0185 135.305L25.5762 135.305L19.0185 131.163ZM19.0185 121.352L19.0185 119.816L28 119.816L28 121.352L21.4507 121.352L28 125.494L28 127.029L19.0185 127.029L19.0185 125.494L25.5762 125.494L19.0185 121.352ZM15.748 120.937C16.4176 120.937 16.9572 121.166 17.3667 121.625C17.7707 122.079 17.9726 122.677 17.9726 123.418C17.9726 124.16 17.7679 124.76 17.3584 125.22C16.9489 125.679 16.4121 125.909 15.748 125.909L15.748 124.655C16.1354 124.655 16.4398 124.55 16.6611 124.34C16.8769 124.13 16.9849 123.822 16.9849 123.418C16.9849 123.031 16.8769 122.729 16.6611 122.514C16.4453 122.292 16.1409 122.182 15.748 122.182L15.748 120.937ZM44.1733 326.671L44.1733 327.792L48 327.792L48 329.336L39.0186 329.336L39.0186 327.792L42.8203 327.792L42.8203 326.788L39.0186 323.766L39.0186 321.907L43.335 325.459L48 321.608L48 323.559L44.1733 326.671ZM48 315.93L39.0186 315.93L39.0186 312.427C39.0186 311.232 39.2288 310.316 39.6494 309.68C40.0645 309.038 40.6759 308.717 41.4839 308.717C41.8989 308.717 42.2752 308.841 42.6128 309.09C42.9448 309.339 43.1994 309.707 43.3765 310.194C43.5037 309.652 43.7528 309.218 44.1235 308.891C44.4943 308.559 44.937 308.393 45.4517 308.393C46.2762 308.393 46.9071 308.697 47.3442 309.306C47.7814 309.909 48 310.764 48 311.871L48 315.93ZM44.0571 314.395L46.7632 314.395L46.7632 311.854C46.7632 311.213 46.6442 310.734 46.4062 310.418C46.1683 310.097 45.8335 309.937 45.4019 309.937C44.5054 309.937 44.0571 310.596 44.0571 311.913L44.0571 314.395ZM42.8286 314.395L42.8286 312.411C42.8286 310.972 42.408 310.252 41.5669 310.252C40.7257 310.252 40.2913 310.933 40.2637 312.294L40.2637 314.395L42.8286 314.395ZM43.6089 298.772C44.9757 298.772 46.077 299.085 46.9126 299.71C47.7482 300.336 48.166 301.182 48.166 302.25C48.166 303.341 47.8201 304.198 47.1284 304.824L51.4531 304.824L51.4531 306.359L39.0186 306.359L39.0186 304.957L40.0146 304.882C39.2399 304.257 38.8525 303.388 38.8525 302.275C38.8525 301.196 39.2593 300.344 40.0728 299.719C40.8862 299.088 42.0179 298.772 43.4678 298.772L43.6089 298.772ZM43.4346 300.308C42.4219 300.308 41.6222 300.524 41.0356 300.956C40.4491 301.387 40.1558 301.979 40.1558 302.732C40.1558 303.662 40.568 304.359 41.3926 304.824L45.6841 304.824C46.5031 304.364 46.9126 303.662 46.9126 302.715C46.9126 301.979 46.6221 301.396 46.041 300.964C45.4544 300.527 44.5856 300.308 43.4346 300.308ZM48 291.269C47.8229 291.357 47.5075 291.429 47.0537 291.484C47.7952 292.198 48.166 293.05 48.166 294.041C48.166 294.926 47.917 295.654 47.4189 296.224C46.9154 296.789 46.279 297.071 45.5098 297.071C44.5745 297.071 43.8496 296.717 43.335 296.008C42.8148 295.294 42.5547 294.293 42.5547 293.003L42.5547 291.509L41.8491 291.509C41.3123 291.509 40.8862 291.67 40.5708 291.991C40.2498 292.312 40.0894 292.785 40.0894 293.41C40.0894 293.958 40.2277 294.417 40.5044 294.788C40.7811 295.159 41.1159 295.344 41.5088 295.344L41.5088 296.888C41.0605 296.888 40.6289 296.73 40.2139 296.415C39.7933 296.094 39.4613 295.662 39.2178 295.12C38.9743 294.572 38.8525 293.972 38.8525 293.319C38.8525 292.284 39.1126 291.473 39.6328 290.887C40.1475 290.3 40.8586 289.996 41.7661 289.974L45.8999 289.974C46.7244 289.974 47.3802 289.868 47.8672 289.658L48 289.658L48 291.269ZM46.8296 293.817C46.8296 293.335 46.7051 292.879 46.4561 292.447C46.207 292.016 45.8833 291.703 45.4849 291.509L43.6421 291.509L43.6421 292.713C43.6421 294.594 44.1927 295.535 45.2939 295.535C45.7754 295.535 46.1517 295.375 46.4228 295.054C46.694 294.733 46.8296 294.32 46.8296 293.817ZM48 280.785L48 282.329L44.7461 282.329C44.9232 283.004 45.0117 283.695 45.0117 284.404C45.0117 285.527 44.724 286.385 44.1484 286.977C43.5729 287.564 42.7539 287.862 41.6914 287.874L39.0103 287.874L39.0103 286.338L41.7412 286.338C43.0804 286.31 43.75 285.666 43.75 284.404C43.75 283.695 43.6615 283.004 43.4844 282.329L39.0186 282.329L39.0186 280.785L48 280.785ZM45.7505 275.381L39.0186 273.289L39.0186 271.646L49.3862 275.256C50.8804 275.815 51.6274 276.703 51.6274 277.921L51.6025 278.211L51.4946 278.784L50.2495 278.784L50.2827 278.369C50.2827 277.849 50.1776 277.445 49.9673 277.157C49.757 276.864 49.3724 276.623 48.8135 276.435L47.9004 276.095L39.0186 279.299L39.0186 277.622L45.7505 275.381ZM48 258.713L48 260.249L44.165 260.249L44.165 264.374L48 264.374L48 265.918L39.0186 265.918L39.0186 264.374L42.9116 264.374L42.9116 260.249L39.0186 260.249L39.0186 258.713L48 258.713ZM48 250.694C47.8229 250.783 47.5075 250.855 47.0537 250.91C47.7952 251.624 48.166 252.476 48.166 253.467C48.166 254.352 47.917 255.08 47.4189 255.65C46.9154 256.214 46.279 256.497 45.5098 256.497C44.5745 256.497 43.8496 256.142 43.335 255.434C42.8148 254.72 42.5547 253.719 42.5547 252.429L42.5547 250.935L41.8491 250.935C41.3123 250.935 40.8862 251.096 40.5708 251.417C40.2498 251.737 40.0894 252.211 40.0894 252.836C40.0894 253.384 40.2277 253.843 40.5044 254.214C40.7811 254.585 41.1159 254.77 41.5088 254.77L41.5088 256.314C41.0605 256.314 40.6289 256.156 40.2139 255.841C39.7933 255.52 39.4613 255.088 39.2178 254.546C38.9743 253.998 38.8525 253.398 38.8525 252.745C38.8525 251.71 39.1126 250.899 39.6328 250.312C40.1475 249.726 40.8586 249.422 41.7661 249.399L45.8999 249.399C46.7244 249.399 47.3802 249.294 47.8672 249.084L48 249.084L48 250.694ZM46.8296 253.243C46.8296 252.761 46.7051 252.305 46.456 251.873C46.207 251.441 45.8833 251.129 45.4849 250.935L43.6421 250.935L43.6421 252.139C43.6421 254.02 44.1927 254.961 45.2939 254.961C45.7754 254.961 46.1517 254.8 46.4228 254.479C46.694 254.159 46.8296 253.746 46.8296 253.243ZM48 237.886L48 239.43L37.7651 239.43L38.9023 242.526L37.5078 242.526L35.856 238.127L35.856 237.886L48 237.886ZM42.8452 225.809C44.6437 225.809 45.9801 226.116 46.8545 226.73C47.7288 227.344 48.166 228.304 48.166 229.61C48.166 230.9 47.7399 231.854 46.8877 232.474C46.0299 233.094 44.7516 233.415 43.0527 233.437L41.0024 233.437C39.2261 233.437 37.9062 233.13 37.043 232.516C36.1797 231.901 35.748 230.938 35.748 229.627C35.748 228.326 36.1658 227.369 37.0015 226.755C37.8315 226.141 39.1154 225.825 40.853 225.809L42.8452 225.809ZM40.7451 227.344C39.4447 227.344 38.4984 227.527 37.9062 227.892C37.3086 228.257 37.0098 228.836 37.0098 229.627C37.0098 230.413 37.3058 230.986 37.8979 231.345C38.4901 231.705 39.4004 231.89 40.6289 231.901L43.0859 231.901C44.3919 231.901 45.3576 231.713 45.9829 231.337C46.6027 230.955 46.9126 230.38 46.9126 229.61C46.9126 228.852 46.6193 228.291 46.0327 227.925C45.4461 227.555 44.522 227.361 43.2602 227.344L40.7451 227.344ZM42.8452 216.263C44.6437 216.263 45.9801 216.57 46.8545 217.184C47.7288 217.798 48.166 218.758 48.166 220.064C48.166 221.354 47.7399 222.308 46.8877 222.928C46.0299 223.548 44.7516 223.869 43.0527 223.891L41.0024 223.891C39.2261 223.891 37.9062 223.584 37.043 222.97C36.1797 222.355 35.748 221.393 35.748 220.081C35.748 218.781 36.1658 217.823 37.0015 217.209C37.8315 216.595 39.1154 216.279 40.853 216.263L42.8452 216.263ZM40.7451 217.798C39.4447 217.798 38.4984 217.981 37.9062 218.346C37.3086 218.711 37.0098 219.29 37.0098 220.081C37.0098 220.867 37.3058 221.44 37.8979 221.799C38.4901 222.159 39.4004 222.344 40.6289 222.355L43.0859 222.355C44.3919 222.355 45.3576 222.167 45.9829 221.791C46.6027 221.409 46.9126 220.834 46.9126 220.064C46.9126 219.306 46.6193 218.745 46.0327 218.379C45.4461 218.009 44.522 217.815 43.2602 217.798L40.7451 217.798ZM42.8452 206.717C44.6437 206.717 45.9801 207.024 46.8545 207.638C47.7288 208.252 48.166 209.213 48.166 210.519C48.166 211.808 47.7399 212.763 46.8877 213.382C46.0299 214.002 44.7516 214.323 43.0527 214.345L41.0024 214.345C39.2261 214.345 37.9062 214.038 37.043 213.424C36.1797 212.81 35.748 211.847 35.748 210.535C35.748 209.235 36.1658 208.277 37.0015 207.663C37.8315 207.049 39.1154 206.733 40.853 206.717L42.8452 206.717ZM40.7451 208.252C39.4447 208.252 38.4984 208.435 37.9062 208.8C37.3086 209.166 37.0098 209.744 37.0098 210.535C37.0098 211.321 37.3058 211.894 37.8979 212.253C38.4901 212.613 39.4004 212.799 40.6289 212.81L43.0859 212.81C44.3919 212.81 45.3576 212.621 45.9829 212.245C46.6027 211.863 46.9126 211.288 46.9126 210.519C46.9126 209.76 46.6193 209.199 46.0327 208.833C45.4461 208.463 44.522 208.269 43.2602 208.252L40.7451 208.252ZM48 193.593L48 195.137L44.7461 195.137C44.9232 195.812 45.0117 196.504 45.0117 197.212C45.0117 198.336 44.724 199.194 44.1484 199.786C43.5729 200.372 42.7539 200.671 41.6914 200.682L39.0102 200.682L39.0102 199.146L41.7412 199.146C43.0804 199.119 43.75 198.474 43.75 197.212C43.75 196.504 43.6615 195.812 43.4844 195.137L39.0185 195.137L39.0185 193.593L48 193.593ZM48.166 187.401C48.166 188.618 47.7676 189.609 46.9707 190.373C46.1683 191.136 45.0975 191.518 43.7583 191.518L43.4761 191.518C42.5851 191.518 41.791 191.349 41.0937 191.012C40.3909 190.669 39.8431 190.193 39.4502 189.584C39.0518 188.97 38.8525 188.306 38.8525 187.592C38.8525 186.424 39.2371 185.517 40.0063 184.869C40.7755 184.222 41.8768 183.898 43.3101 183.898L43.9492 183.898L43.9492 189.982C44.8346 189.96 45.5513 189.703 46.0991 189.21C46.6414 188.712 46.9126 188.082 46.9126 187.318C46.9126 186.776 46.8019 186.316 46.5806 185.94C46.3592 185.564 46.0659 185.234 45.7007 184.952L46.4311 184.014C47.5877 184.767 48.166 185.896 48.166 187.401ZM40.1143 187.592C40.1143 188.212 40.3411 188.732 40.7949 189.152C41.2432 189.573 41.874 189.833 42.6875 189.933L42.6875 185.434L42.5713 185.434C41.791 185.478 41.1878 185.688 40.7617 186.064C40.3301 186.441 40.1143 186.95 40.1143 187.592ZM39.0185 174.75L48 174.75L48 176.294L40.2886 176.294L40.2886 179.349L43.6504 179.532C45.1943 179.631 46.2983 179.891 46.9624 180.312C47.6265 180.727 47.9723 181.388 48 182.296L48 182.91L46.647 182.91L46.6138 182.47C46.5584 181.972 46.2707 181.615 45.7505 181.399C45.2303 181.184 44.2674 181.045 42.8618 180.984L39.0185 180.818L39.0185 174.75ZM43.4263 172.692C42.5464 172.692 41.755 172.52 41.0522 172.177C40.3494 171.829 39.8071 171.347 39.4253 170.733C39.0434 170.113 38.8525 169.408 38.8525 168.616C38.8525 167.393 39.2759 166.405 40.1226 165.653C40.9692 164.895 42.0954 164.516 43.501 164.516L43.6089 164.516C44.4832 164.516 45.269 164.684 45.9663 165.022C46.658 165.354 47.1976 165.833 47.585 166.458C47.9723 167.078 48.166 167.792 48.166 168.6C48.166 169.817 47.7427 170.805 46.896 171.563C46.0493 172.316 44.9287 172.692 43.5342 172.692L43.4263 172.692ZM43.6089 171.148C44.605 171.148 45.4046 170.918 46.0078 170.459C46.611 169.994 46.9126 169.374 46.9126 168.6C46.9126 167.819 46.6082 167.2 45.9995 166.74C45.3852 166.281 44.5275 166.051 43.4263 166.051C42.4412 166.051 41.6444 166.286 41.0356 166.757C40.4214 167.222 40.1142 167.841 40.1142 168.616C40.1142 169.374 40.4158 169.986 41.019 170.451C41.6222 170.916 42.4855 171.148 43.6089 171.148ZM48 162.449L39.0185 162.449L39.0185 158.946C39.0185 157.75 39.2288 156.835 39.6494 156.198C40.0644 155.556 40.6759 155.235 41.4839 155.235C41.8989 155.235 42.2752 155.36 42.6128 155.609C42.9448 155.858 43.1994 156.226 43.3765 156.713C43.5037 156.171 43.7528 155.736 44.1235 155.41C44.4943 155.078 44.937 154.912 45.4517 154.912C46.2762 154.912 46.9071 155.216 47.3442 155.825C47.7814 156.428 48 157.283 48 158.39L48 162.449ZM44.0571 160.913L46.7632 160.913L46.7632 158.373C46.7632 157.731 46.6442 157.252 46.4062 156.937C46.1683 156.616 45.8335 156.456 45.4018 156.456C44.5054 156.456 44.0571 157.114 44.0571 158.431L44.0571 160.913ZM42.8286 160.913L42.8286 158.929C42.8286 157.49 42.408 156.771 41.5669 156.771C40.7257 156.771 40.2913 157.452 40.2637 158.813L40.2637 160.913L42.8286 160.913ZM48.166 149.151C48.166 150.368 47.7676 151.359 46.9707 152.123C46.1683 152.886 45.0975 153.268 43.7583 153.268L43.4761 153.268C42.5851 153.268 41.791 153.099 41.0937 152.762C40.3909 152.419 39.8431 151.943 39.4502 151.334C39.0517 150.72 38.8525 150.056 38.8525 149.342C38.8525 148.174 39.2371 147.267 40.0063 146.619C40.7755 145.972 41.8768 145.648 43.31 145.648L43.9492 145.648L43.9492 151.732C44.8346 151.71 45.5513 151.453 46.0991 150.96C46.6414 150.462 46.9126 149.832 46.9126 149.068C46.9126 148.526 46.8019 148.066 46.5806 147.69C46.3592 147.314 46.0659 146.984 45.7007 146.702L46.4311 145.764C47.5877 146.517 48.166 147.646 48.166 149.151ZM40.1142 149.342C40.1142 149.962 40.3411 150.482 40.7949 150.902C41.2432 151.323 41.874 151.583 42.6875 151.683L42.6875 147.184L42.5713 147.184C41.791 147.228 41.1878 147.438 40.7617 147.814C40.3301 148.191 40.1142 148.7 40.1142 149.342ZM44.1733 141.066L44.1733 142.187L48 142.187L48 143.73L39.0185 143.73L39.0185 142.187L42.8203 142.187L42.8203 141.182L39.0185 138.161L39.0185 136.301L43.335 139.854L48 136.002L48 137.953L44.1733 141.066ZM48 130.325L39.0185 130.325L39.0185 126.822C39.0185 125.626 39.2288 124.711 39.6494 124.074C40.0644 123.432 40.6759 123.111 41.4839 123.111C41.8989 123.111 42.2752 123.236 42.6128 123.485C42.9448 123.734 43.1994 124.102 43.3765 124.589C43.5037 124.047 43.7528 123.612 44.1235 123.286C44.4943 122.954 44.937 122.788 45.4516 122.788C46.2762 122.788 46.9071 123.092 47.3442 123.701C47.7814 124.304 48 125.159 48 126.266L48 130.325ZM44.0571 128.789L46.7632 128.789L46.7632 126.249C46.7632 125.607 46.6442 125.128 46.4062 124.813C46.1683 124.492 45.8335 124.332 45.4018 124.332C44.5054 124.332 44.0571 124.99 44.0571 126.307L44.0571 128.789ZM42.8286 128.789L42.8286 126.805C42.8286 125.366 42.408 124.647 41.5669 124.647C40.7257 124.647 40.2913 125.328 40.2637 126.689L40.2637 128.789L42.8286 128.789ZM40.2886 110.735L40.2886 114.877L48 114.877L48 116.421L39.0185 116.421L39.0185 110.735L40.2886 110.735ZM43.4263 109.971C42.5464 109.971 41.755 109.8 41.0522 109.457C40.3494 109.108 39.8071 108.626 39.4253 108.012C39.0434 107.392 38.8525 106.687 38.8525 105.896C38.8525 104.673 39.2759 103.685 40.1225 102.932C40.9692 102.174 42.0954 101.795 43.501 101.795L43.6089 101.795C44.4832 101.795 45.269 101.964 45.9663 102.301C46.658 102.633 47.1976 103.112 47.5849 103.737C47.9723 104.357 48.166 105.071 48.166 105.879C48.166 107.096 47.7427 108.084 46.896 108.842C46.0493 109.595 44.9287 109.971 43.5342 109.971L43.4263 109.971ZM43.6089 108.427C44.605 108.427 45.4046 108.198 46.0078 107.738C46.611 107.273 46.9126 106.654 46.9126 105.879C46.9126 105.099 46.6082 104.479 45.9995 104.02C45.3852 103.56 44.5275 103.331 43.4263 103.331C42.4412 103.331 41.6444 103.566 41.0356 104.036C40.4214 104.501 40.1142 105.121 40.1142 105.896C40.1142 106.654 40.4158 107.265 41.019 107.73C41.6222 108.195 42.4855 108.427 43.6089 108.427ZM46.7466 100.542L46.0908 100.01C45.3161 99.4126 44.154 99.0723 42.6045 98.9893L39.0185 98.8481L39.0185 93.0625L46.7466 93.0625L46.7466 91.9087L50.6396 91.9087L50.6396 93.4443L48 93.4443L48 99.7114L50.6396 99.7114L50.6396 101.247L46.7466 101.239L46.7466 100.542ZM46.7466 98.7236L46.7466 94.5981L40.438 94.5981L40.438 97.3623L42.5796 97.4536C44.367 97.5477 45.756 97.971 46.7466 98.7236Z" fill="#4B4B4B"></path> <path d="M94.813 381.347H91.75L91.7334 380.061H94.5142C94.9735 380.061 95.3747 379.983 95.7178 379.828C96.0609 379.673 96.3265 379.452 96.5146 379.164C96.7083 378.871 96.8052 378.522 96.8052 378.118C96.8052 377.675 96.7194 377.316 96.5479 377.039C96.3818 376.757 96.1245 376.552 95.7759 376.425C95.4328 376.292 94.9956 376.226 94.4644 376.226H92.1069V387H90.5049V374.914H94.4644C95.0841 374.914 95.6375 374.978 96.1245 375.105C96.6115 375.227 97.0238 375.42 97.3613 375.686C97.7044 375.946 97.9645 376.278 98.1416 376.682C98.3187 377.086 98.4072 377.57 98.4072 378.135C98.4072 378.633 98.2799 379.084 98.0254 379.488C97.7708 379.886 97.4167 380.213 96.9629 380.467C96.5146 380.722 95.9889 380.885 95.3857 380.957L94.813 381.347ZM94.7383 387H91.1191L92.0239 385.697H94.7383C95.2474 385.697 95.679 385.608 96.0332 385.431C96.3929 385.254 96.6668 385.005 96.855 384.684C97.0431 384.358 97.1372 383.973 97.1372 383.53C97.1372 383.082 97.057 382.695 96.8965 382.368C96.736 382.042 96.4842 381.79 96.1411 381.613C95.798 381.436 95.3553 381.347 94.813 381.347H92.5303L92.5469 380.061H95.668L96.0083 380.525C96.5894 380.575 97.0819 380.741 97.4858 381.023C97.8898 381.3 98.1969 381.654 98.4072 382.086C98.623 382.518 98.731 382.993 98.731 383.514C98.731 384.266 98.5649 384.903 98.2329 385.423C97.9064 385.938 97.4443 386.33 96.8467 386.602C96.249 386.867 95.5462 387 94.7383 387ZM100.458 382.609V382.418C100.458 381.771 100.552 381.17 100.74 380.617C100.928 380.058 101.199 379.574 101.553 379.164C101.907 378.749 102.336 378.428 102.84 378.201C103.343 377.969 103.908 377.853 104.533 377.853C105.164 377.853 105.731 377.969 106.235 378.201C106.744 378.428 107.176 378.749 107.53 379.164C107.889 379.574 108.163 380.058 108.352 380.617C108.54 381.17 108.634 381.771 108.634 382.418V382.609C108.634 383.256 108.54 383.857 108.352 384.41C108.163 384.964 107.889 385.448 107.53 385.863C107.176 386.272 106.747 386.593 106.243 386.826C105.745 387.053 105.181 387.166 104.55 387.166C103.919 387.166 103.352 387.053 102.848 386.826C102.345 386.593 101.913 386.272 101.553 385.863C101.199 385.448 100.928 384.964 100.74 384.41C100.552 383.857 100.458 383.256 100.458 382.609ZM101.993 382.418V382.609C101.993 383.057 102.046 383.48 102.151 383.879C102.256 384.272 102.414 384.62 102.624 384.925C102.84 385.229 103.108 385.47 103.429 385.647C103.75 385.819 104.124 385.904 104.55 385.904C104.97 385.904 105.338 385.819 105.654 385.647C105.975 385.47 106.24 385.229 106.451 384.925C106.661 384.62 106.819 384.272 106.924 383.879C107.035 383.48 107.09 383.057 107.09 382.609V382.418C107.09 381.975 107.035 381.557 106.924 381.165C106.819 380.766 106.658 380.415 106.442 380.11C106.232 379.8 105.966 379.557 105.646 379.38C105.33 379.203 104.959 379.114 104.533 379.114C104.113 379.114 103.742 379.203 103.421 379.38C103.105 379.557 102.84 379.8 102.624 380.11C102.414 380.415 102.256 380.766 102.151 381.165C102.046 381.557 101.993 381.975 101.993 382.418ZM113.913 382.708H112.261V381.762H113.789C114.215 381.762 114.552 381.71 114.801 381.604C115.05 381.494 115.227 381.342 115.333 381.148C115.438 380.954 115.49 380.727 115.49 380.467C115.49 380.235 115.429 380.016 115.308 379.812C115.191 379.601 115.003 379.432 114.743 379.305C114.483 379.172 114.134 379.106 113.697 379.106C113.343 379.106 113.022 379.17 112.734 379.297C112.447 379.419 112.217 379.587 112.045 379.803C111.879 380.014 111.796 380.251 111.796 380.517H110.261C110.261 379.969 110.416 379.499 110.726 379.106C111.041 378.708 111.459 378.4 111.979 378.185C112.505 377.969 113.077 377.861 113.697 377.861C114.217 377.861 114.682 377.919 115.092 378.035C115.507 378.146 115.858 378.312 116.146 378.533C116.434 378.749 116.652 379.02 116.802 379.347C116.957 379.668 117.034 380.041 117.034 380.467C117.034 380.772 116.962 381.059 116.818 381.331C116.674 381.602 116.467 381.842 116.196 382.053C115.925 382.257 115.595 382.418 115.208 382.534C114.826 382.65 114.395 382.708 113.913 382.708ZM112.261 382.127H113.913C114.45 382.127 114.923 382.18 115.333 382.285C115.742 382.385 116.085 382.534 116.362 382.733C116.639 382.933 116.846 383.179 116.984 383.472C117.128 383.76 117.2 384.092 117.2 384.468C117.2 384.889 117.114 385.268 116.943 385.605C116.777 385.938 116.539 386.22 116.229 386.452C115.919 386.685 115.548 386.862 115.117 386.983C114.691 387.105 114.217 387.166 113.697 387.166C113.116 387.166 112.552 387.066 112.004 386.867C111.456 386.668 111.005 386.361 110.651 385.946C110.297 385.525 110.12 384.991 110.12 384.344H111.655C111.655 384.615 111.741 384.872 111.913 385.116C112.084 385.359 112.322 385.556 112.626 385.705C112.936 385.854 113.293 385.929 113.697 385.929C114.129 385.929 114.489 385.863 114.776 385.73C115.064 385.597 115.28 385.42 115.424 385.199C115.573 384.977 115.648 384.737 115.648 384.477C115.648 384.139 115.582 383.868 115.449 383.663C115.316 383.458 115.111 383.309 114.834 383.215C114.563 383.115 114.215 383.065 113.789 383.065H112.261V382.127ZM120.728 379.745V390.453H119.184V378.019H120.595L120.728 379.745ZM126.779 382.435V382.609C126.779 383.262 126.702 383.868 126.547 384.427C126.392 384.98 126.165 385.462 125.866 385.871C125.573 386.281 125.21 386.599 124.779 386.826C124.347 387.053 123.852 387.166 123.293 387.166C122.723 387.166 122.219 387.072 121.782 386.884C121.345 386.696 120.974 386.422 120.67 386.062C120.366 385.702 120.122 385.271 119.939 384.767C119.762 384.264 119.641 383.696 119.574 383.065V382.136C119.641 381.472 119.765 380.877 119.948 380.351C120.13 379.825 120.371 379.377 120.67 379.006C120.974 378.63 121.342 378.345 121.774 378.151C122.206 377.952 122.704 377.853 123.268 377.853C123.833 377.853 124.333 377.963 124.771 378.185C125.208 378.4 125.576 378.71 125.875 379.114C126.173 379.518 126.397 380.002 126.547 380.567C126.702 381.126 126.779 381.748 126.779 382.435ZM125.235 382.609V382.435C125.235 381.986 125.188 381.566 125.094 381.173C125 380.774 124.854 380.426 124.654 380.127C124.461 379.823 124.212 379.585 123.907 379.413C123.603 379.236 123.24 379.147 122.82 379.147C122.432 379.147 122.095 379.214 121.807 379.347C121.525 379.479 121.284 379.659 121.085 379.886C120.886 380.108 120.722 380.362 120.595 380.65C120.473 380.932 120.382 381.225 120.321 381.53V383.68C120.432 384.067 120.587 384.432 120.786 384.775C120.985 385.113 121.251 385.387 121.583 385.597C121.915 385.802 122.333 385.904 122.836 385.904C123.251 385.904 123.608 385.819 123.907 385.647C124.212 385.47 124.461 385.229 124.654 384.925C124.854 384.62 125 384.272 125.094 383.879C125.188 383.48 125.235 383.057 125.235 382.609ZM134.034 385.464V380.841C134.034 380.487 133.962 380.18 133.818 379.919C133.68 379.654 133.47 379.449 133.188 379.305C132.905 379.161 132.557 379.089 132.142 379.089C131.754 379.089 131.414 379.156 131.121 379.289C130.833 379.421 130.606 379.596 130.44 379.812C130.279 380.027 130.199 380.26 130.199 380.509H128.664C128.664 380.188 128.747 379.87 128.913 379.554C129.079 379.239 129.317 378.954 129.626 378.699C129.942 378.439 130.318 378.234 130.755 378.085C131.198 377.93 131.691 377.853 132.233 377.853C132.886 377.853 133.461 377.963 133.959 378.185C134.463 378.406 134.856 378.741 135.138 379.189C135.426 379.632 135.57 380.188 135.57 380.857V385.041C135.57 385.34 135.595 385.658 135.645 385.996C135.7 386.333 135.78 386.624 135.885 386.867V387H134.283C134.206 386.823 134.145 386.588 134.101 386.294C134.056 385.996 134.034 385.719 134.034 385.464ZM134.3 381.555L134.316 382.634H132.764C132.327 382.634 131.937 382.67 131.594 382.742C131.251 382.808 130.963 382.91 130.73 383.049C130.498 383.187 130.321 383.361 130.199 383.572C130.077 383.777 130.017 384.017 130.017 384.294C130.017 384.576 130.08 384.833 130.208 385.066C130.335 385.298 130.526 385.484 130.78 385.622C131.04 385.755 131.359 385.821 131.735 385.821C132.205 385.821 132.62 385.722 132.98 385.522C133.34 385.323 133.625 385.08 133.835 384.792C134.051 384.504 134.167 384.225 134.184 383.954L134.839 384.692C134.801 384.925 134.695 385.182 134.524 385.464C134.352 385.747 134.123 386.018 133.835 386.278C133.553 386.532 133.215 386.745 132.822 386.917C132.435 387.083 131.998 387.166 131.511 387.166C130.902 387.166 130.368 387.047 129.909 386.809C129.455 386.571 129.101 386.253 128.846 385.854C128.597 385.451 128.473 385 128.473 384.501C128.473 384.02 128.567 383.597 128.755 383.231C128.943 382.861 129.214 382.554 129.568 382.31C129.923 382.061 130.349 381.873 130.847 381.746C131.345 381.618 131.901 381.555 132.515 381.555H134.3ZM141.58 385.904C141.945 385.904 142.282 385.83 142.592 385.68C142.902 385.531 143.157 385.326 143.356 385.066C143.555 384.8 143.669 384.499 143.696 384.161H145.157C145.13 384.692 144.95 385.188 144.618 385.647C144.291 386.101 143.862 386.469 143.331 386.751C142.8 387.028 142.216 387.166 141.58 387.166C140.904 387.166 140.315 387.047 139.812 386.809C139.313 386.571 138.898 386.245 138.566 385.83C138.24 385.415 137.994 384.939 137.828 384.402C137.667 383.86 137.587 383.287 137.587 382.684V382.335C137.587 381.732 137.667 381.162 137.828 380.625C137.994 380.083 138.24 379.604 138.566 379.189C138.898 378.774 139.313 378.447 139.812 378.209C140.315 377.972 140.904 377.853 141.58 377.853C142.282 377.853 142.897 377.996 143.422 378.284C143.948 378.566 144.36 378.954 144.659 379.446C144.964 379.933 145.13 380.487 145.157 381.106H143.696C143.669 380.736 143.563 380.401 143.381 380.102C143.204 379.803 142.96 379.565 142.65 379.388C142.346 379.206 141.989 379.114 141.58 379.114C141.109 379.114 140.714 379.208 140.393 379.396C140.077 379.579 139.825 379.828 139.637 380.144C139.455 380.453 139.322 380.799 139.239 381.181C139.161 381.557 139.123 381.942 139.123 382.335V382.684C139.123 383.076 139.161 383.464 139.239 383.846C139.316 384.228 139.446 384.573 139.629 384.883C139.817 385.193 140.069 385.442 140.384 385.63C140.705 385.813 141.104 385.904 141.58 385.904ZM150.544 378.019V387H149V378.019H150.544ZM153.558 378.019V379.264H146.045V378.019H153.558Z" fill="#4B4B4B"></path> <path d="M278 264H214C211.791 264 210 265.791 210 268V354C210 356.209 211.791 358 214 358H278C280.209 358 282 356.209 282 354V268C282 265.791 280.209 264 278 264Z" fill="#D09CC7"></path> <path d="M463 257H399C396.791 257 395 258.791 395 261V354C395 356.209 396.791 358 399 358H463C465.209 358 467 356.209 467 354V261C467 258.791 465.209 257 463 257Z" fill="#D09CC7"></path> <path d="M642 302H578C575.791 302 574 303.791 574 306V354C574 356.209 575.791 358 578 358H642C644.209 358 646 356.209 646 354V306C646 303.791 644.209 302 642 302Z" fill="#D09CC7"></path> <path d="M204 144H140C137.791 144 136 145.791 136 148V354C136 356.209 137.791 358 140 358H204C206.209 358 208 356.209 208 354V148C208 145.791 206.209 144 204 144Z" fill="#6FC4E2"></path> <path d="M389 131H325C322.791 131 321 132.791 321 135V354C321 356.209 322.791 358 325 358H389C391.209 358 393 356.209 393 354V135C393 132.791 391.209 131 389 131Z" fill="#6FC4E2"></path> <path d="M568 114H504C501.791 114 500 115.791 500 118V354C500 356.209 501.791 358 504 358H568C570.209 358 572 356.209 572 354V118C572 115.791 570.209 114 568 114Z" fill="#6FC4E2"></path> <path d="M395.341 64.6447V75.5967H393.889V64.6447H395.341ZM402.088 64.6447L397.334 70.6698H394.762L394.536 69.4663H396.469L400.29 64.6447H402.088ZM400.629 75.5967L396.514 70.4817L397.327 69.2105L402.404 75.5967H400.629ZM402.931 71.6176V71.4446C402.931 70.8578 403.016 70.3138 403.186 69.8123C403.357 69.3058 403.603 68.867 403.924 68.4959C404.244 68.1198 404.633 67.829 405.089 67.6234C405.546 67.4128 406.057 67.3075 406.624 67.3075C407.196 67.3075 407.71 67.4128 408.166 67.6234C408.627 67.829 409.018 68.1198 409.339 68.4959C409.665 68.867 409.914 69.3058 410.084 69.8123C410.254 70.3138 410.34 70.8578 410.34 71.4446V71.6176C410.34 72.2043 410.254 72.7484 410.084 73.2498C409.914 73.7513 409.665 74.1901 409.339 74.5662C409.018 74.9373 408.63 75.2281 408.173 75.4387C407.722 75.6443 407.211 75.7471 406.639 75.7471C406.067 75.7471 405.553 75.6443 405.097 75.4387C404.641 75.2281 404.249 74.9373 403.924 74.5662C403.603 74.1901 403.357 73.7513 403.186 73.2498C403.016 72.7484 402.931 72.2043 402.931 71.6176ZM404.322 71.4446V71.6176C404.322 72.0237 404.37 72.4074 404.465 72.7684C404.56 73.1245 404.703 73.4404 404.894 73.7162C405.089 73.992 405.333 74.2101 405.623 74.3706C405.914 74.5261 406.253 74.6038 406.639 74.6038C407.02 74.6038 407.354 74.5261 407.639 74.3706C407.93 74.2101 408.171 73.992 408.361 73.7162C408.552 73.4404 408.695 73.1245 408.79 72.7684C408.891 72.4074 408.941 72.0237 408.941 71.6176V71.4446C408.941 71.0434 408.891 70.6648 408.79 70.3087C408.695 69.9477 408.55 69.6293 408.354 69.3534C408.163 69.0726 407.923 68.852 407.632 68.6915C407.346 68.531 407.01 68.4508 406.624 68.4508C406.243 68.4508 405.907 68.531 405.616 68.6915C405.33 68.852 405.089 69.0726 404.894 69.3534C404.703 69.6293 404.56 69.9477 404.465 70.3087C404.37 70.6648 404.322 71.0434 404.322 71.4446ZM417.606 70.9857V72.114H413.303V70.9857H417.606ZM413.597 67.4579V75.5967H412.205V67.4579H413.597ZM418.734 67.4579V75.5967H417.335V67.4579H418.734ZM424.293 67.4579V75.5967H422.894V67.4579H424.293ZM427.023 67.4579V68.5862H420.216V67.4579H427.023ZM429.784 69.0225V78.7258H428.385V67.4579H429.664L429.784 69.0225ZM435.268 71.4596V71.6176C435.268 72.2093 435.197 72.7584 435.057 73.2649C434.917 73.7663 434.711 74.2026 434.44 74.5737C434.174 74.9448 433.846 75.2331 433.455 75.4387C433.064 75.6443 432.615 75.7471 432.108 75.7471C431.592 75.7471 431.135 75.6619 430.739 75.4914C430.343 75.3209 430.007 75.0726 429.731 74.7467C429.456 74.4207 429.235 74.0296 429.069 73.5733C428.909 73.1169 428.799 72.6029 428.738 72.0313V71.1888C428.799 70.587 428.911 70.048 429.077 69.5716C429.242 69.0952 429.461 68.689 429.731 68.353C430.007 68.012 430.341 67.7538 430.732 67.5783C431.123 67.3977 431.574 67.3075 432.086 67.3075C432.597 67.3075 433.051 67.4078 433.447 67.6083C433.843 67.8039 434.177 68.0847 434.448 68.4508C434.718 68.8169 434.922 69.2557 435.057 69.7672C435.197 70.2736 435.268 70.8378 435.268 71.4596ZM433.868 71.6176V71.4596C433.868 71.0534 433.826 70.6723 433.741 70.3163C433.655 69.9552 433.522 69.6393 433.342 69.3685C433.166 69.0927 432.941 68.8771 432.665 68.7216C432.389 68.5611 432.061 68.4809 431.68 68.4809C431.329 68.4809 431.023 68.5411 430.762 68.6614C430.506 68.7818 430.288 68.9448 430.107 69.1504C429.927 69.3509 429.779 69.5816 429.664 69.8424C429.553 70.0981 429.471 70.3639 429.415 70.6397V72.5879C429.516 72.9389 429.656 73.2699 429.837 73.5808C430.017 73.8867 430.258 74.1349 430.559 74.3255C430.86 74.511 431.238 74.6038 431.695 74.6038C432.071 74.6038 432.394 74.5261 432.665 74.3706C432.941 74.2101 433.166 73.992 433.342 73.7162C433.522 73.4404 433.655 73.1245 433.741 72.7684C433.826 72.4074 433.868 72.0237 433.868 71.6176ZM436.674 71.6176V71.4446C436.674 70.8578 436.759 70.3138 436.93 69.8123C437.1 69.3058 437.346 68.867 437.667 68.4959C437.988 68.1198 438.377 67.829 438.833 67.6234C439.289 67.4128 439.801 67.3075 440.367 67.3075C440.939 67.3075 441.453 67.4128 441.909 67.6234C442.371 67.829 442.762 68.1198 443.083 68.4959C443.409 68.867 443.657 69.3058 443.828 69.8123C443.998 70.3138 444.083 70.8578 444.083 71.4446V71.6176C444.083 72.2043 443.998 72.7484 443.828 73.2498C443.657 73.7513 443.409 74.1901 443.083 74.5662C442.762 74.9373 442.373 75.2281 441.917 75.4387C441.466 75.6443 440.954 75.7471 440.382 75.7471C439.811 75.7471 439.297 75.6443 438.84 75.4387C438.384 75.2281 437.993 74.9373 437.667 74.5662C437.346 74.1901 437.1 73.7513 436.93 73.2498C436.759 72.7484 436.674 72.2043 436.674 71.6176ZM438.066 71.4446V71.6176C438.066 72.0237 438.113 72.4074 438.209 72.7684C438.304 73.1245 438.447 73.4404 438.637 73.7162C438.833 73.992 439.076 74.2101 439.367 74.3706C439.658 74.5261 439.996 74.6038 440.382 74.6038C440.764 74.6038 441.097 74.5261 441.383 74.3706C441.674 74.2101 441.914 73.992 442.105 73.7162C442.296 73.4404 442.438 73.1245 442.534 72.7684C442.634 72.4074 442.684 72.0237 442.684 71.6176V71.4446C442.684 71.0434 442.634 70.6648 442.534 70.3087C442.438 69.9477 442.293 69.6293 442.098 69.3534C441.907 69.0726 441.666 68.852 441.375 68.6915C441.09 68.531 440.754 68.4508 440.367 68.4508C439.986 68.4508 439.65 68.531 439.36 68.6915C439.074 68.852 438.833 69.0726 438.637 69.3534C438.447 69.6293 438.304 69.9477 438.209 70.3087C438.113 70.6648 438.066 71.0434 438.066 71.4446ZM451.146 67.4579V68.6088H447.212V67.4579H451.146ZM452.373 67.4579V75.5967H450.981V67.4579H452.373ZM446.874 67.4579H448.273L448.062 71.3844C448.027 71.9911 447.97 72.5277 447.889 72.9941C447.814 73.4554 447.709 73.8516 447.573 74.1825C447.443 74.5135 447.278 74.7843 447.077 74.9949C446.881 75.2005 446.646 75.3535 446.37 75.4538C446.094 75.549 445.776 75.5967 445.415 75.5967H444.978V74.3706L445.279 74.348C445.495 74.333 445.678 74.2828 445.828 74.1976C445.984 74.1123 446.114 73.987 446.22 73.8215C446.325 73.651 446.41 73.4329 446.475 73.1671C446.545 72.9013 446.598 72.5854 446.633 72.2193C446.673 71.8532 446.703 71.427 446.724 70.9406L446.874 67.4579ZM455.757 70.2561H458.202C458.859 70.2561 459.413 70.3714 459.864 70.6021C460.316 70.8278 460.657 71.1412 460.887 71.5423C461.123 71.9385 461.241 72.3898 461.241 72.8963C461.241 73.2724 461.176 73.6259 461.045 73.9569C460.915 74.2828 460.719 74.5687 460.459 74.8144C460.203 75.0601 459.884 75.2532 459.503 75.3936C459.127 75.529 458.693 75.5967 458.202 75.5967H454.742V67.4579H456.133V74.4533H458.202C458.603 74.4533 458.924 74.3806 459.165 74.2352C459.406 74.0898 459.579 73.9017 459.684 73.6711C459.789 73.4404 459.842 73.1997 459.842 72.9489C459.842 72.7032 459.789 72.4625 459.684 72.2268C459.579 71.9911 459.406 71.7956 459.165 71.6401C458.924 71.4797 458.603 71.3994 458.202 71.3994H455.757V70.2561ZM468.5 70.9857V72.114H464.197V70.9857H468.5ZM464.49 67.4579V75.5967H463.099V67.4579H464.49ZM469.628 67.4579V75.5967H468.229V67.4579H469.628ZM476.668 74.2051V70.0154C476.668 69.6944 476.603 69.4161 476.473 69.1804C476.348 68.9397 476.157 68.7542 475.901 68.6238C475.645 68.4934 475.33 68.4282 474.953 68.4282C474.602 68.4282 474.294 68.4884 474.028 68.6088C473.767 68.7291 473.562 68.8871 473.411 69.0827C473.266 69.2782 473.193 69.4888 473.193 69.7145H471.802C471.802 69.4237 471.877 69.1353 472.027 68.8495C472.178 68.5636 472.393 68.3054 472.674 68.0747C472.96 67.839 473.301 67.6535 473.697 67.5181C474.098 67.3777 474.545 67.3075 475.036 67.3075C475.628 67.3075 476.149 67.4078 476.601 67.6083C477.057 67.8089 477.413 68.1123 477.669 68.5185C477.93 68.9197 478.06 69.4237 478.06 70.0304V73.8215C478.06 74.0923 478.083 74.3806 478.128 74.6865C478.178 74.9924 478.251 75.2557 478.346 75.4763V75.5967H476.894C476.824 75.4362 476.769 75.2231 476.729 74.9573C476.689 74.6865 476.668 74.4358 476.668 74.2051ZM476.909 70.6623L476.924 71.6401H475.518C475.121 71.6401 474.768 71.6727 474.457 71.7379C474.146 71.7981 473.885 71.8909 473.675 72.0162C473.464 72.1416 473.304 72.2996 473.193 72.4901C473.083 72.6756 473.028 72.8938 473.028 73.1445C473.028 73.4003 473.086 73.6334 473.201 73.8441C473.316 74.0547 473.489 74.2227 473.72 74.348C473.956 74.4684 474.244 74.5286 474.585 74.5286C475.011 74.5286 475.387 74.4383 475.713 74.2578C476.039 74.0772 476.297 73.8566 476.488 73.5958C476.684 73.3351 476.789 73.0818 476.804 72.8361L477.398 73.5056C477.363 73.7162 477.268 73.9494 477.112 74.2051C476.957 74.4609 476.749 74.7066 476.488 74.9423C476.232 75.1729 475.926 75.366 475.57 75.5215C475.219 75.6719 474.823 75.7471 474.382 75.7471C473.83 75.7471 473.346 75.6393 472.93 75.4237C472.519 75.208 472.198 74.9197 471.967 74.5586C471.742 74.1926 471.629 73.7839 471.629 73.3326C471.629 72.8963 471.714 72.5127 471.884 72.1817C472.055 71.8457 472.301 71.5674 472.622 71.3468C472.943 71.1211 473.329 70.9506 473.78 70.8353C474.231 70.7199 474.735 70.6623 475.292 70.6623H476.909ZM481.896 71.7153H483.401L481.046 75.5967H479.542L481.896 71.7153ZM483.062 67.4579H486.462V75.5967H485.071V68.5862H483.062C482.666 68.5862 482.343 68.6539 482.092 68.7893C481.841 68.9197 481.658 69.0902 481.543 69.3008C481.427 69.5114 481.37 69.7295 481.37 69.9552C481.37 70.1758 481.422 70.389 481.528 70.5946C481.633 70.7952 481.798 70.9606 482.024 71.091C482.25 71.2214 482.541 71.2866 482.897 71.2866H485.447V72.4299H482.897C482.43 72.4299 482.017 72.3672 481.656 72.2419C481.294 72.1165 480.989 71.9435 480.738 71.7229C480.487 71.4972 480.297 71.2339 480.166 70.9331C480.036 70.6272 479.971 70.2962 479.971 69.9402C479.971 69.5841 480.038 69.2557 480.174 68.9548C480.314 68.6539 480.515 68.3906 480.775 68.165C481.041 67.9393 481.365 67.7663 481.746 67.646C482.132 67.5206 482.571 67.4579 483.062 67.4579ZM497.783 67.4579V68.6088H494.022V75.5967H492.63V67.4579H497.783ZM500.385 69.0225V78.7258H498.986V67.4579H500.265L500.385 69.0225ZM505.869 71.4596V71.6176C505.869 72.2093 505.799 72.7584 505.658 73.2649C505.518 73.7663 505.312 74.2026 505.041 74.5737C504.776 74.9448 504.447 75.2331 504.056 75.4387C503.665 75.6443 503.216 75.7471 502.71 75.7471C502.193 75.7471 501.737 75.6619 501.341 75.4914C500.944 75.3209 500.608 75.0726 500.333 74.7467C500.057 74.4207 499.836 74.0296 499.671 73.5733C499.51 73.1169 499.4 72.6029 499.34 72.0313V71.1888C499.4 70.587 499.513 70.048 499.678 69.5716C499.844 69.0952 500.062 68.689 500.333 68.353C500.608 68.012 500.942 67.7538 501.333 67.5783C501.724 67.3977 502.175 67.3075 502.687 67.3075C503.198 67.3075 503.652 67.4078 504.048 67.6083C504.445 67.8039 504.778 68.0847 505.049 68.4508C505.32 68.8169 505.523 69.2557 505.658 69.7672C505.799 70.2736 505.869 70.8378 505.869 71.4596ZM504.47 71.6176V71.4596C504.47 71.0534 504.427 70.6723 504.342 70.3163C504.257 69.9552 504.124 69.6393 503.943 69.3685C503.768 69.0927 503.542 68.8771 503.266 68.7216C502.99 68.5611 502.662 68.4809 502.281 68.4809C501.93 68.4809 501.624 68.5411 501.363 68.6614C501.107 68.7818 500.889 68.9448 500.709 69.1504C500.528 69.3509 500.38 69.5816 500.265 69.8424C500.155 70.0981 500.072 70.3639 500.017 70.6397V72.5879C500.117 72.9389 500.257 73.2699 500.438 73.5808C500.618 73.8867 500.859 74.1349 501.16 74.3255C501.461 74.511 501.839 74.6038 502.296 74.6038C502.672 74.6038 502.995 74.5261 503.266 74.3706C503.542 74.2101 503.768 73.992 503.943 73.7162C504.124 73.4404 504.257 73.1245 504.342 72.7684C504.427 72.4074 504.47 72.0237 504.47 71.6176ZM509.84 74.7542L512.104 67.4579H513.594L510.329 76.8528C510.254 77.0534 510.154 77.2691 510.028 77.4997C509.908 77.7354 509.753 77.9586 509.562 78.1692C509.371 78.3798 509.141 78.5503 508.87 78.6807C508.604 78.8161 508.286 78.8838 507.915 78.8838C507.804 78.8838 507.664 78.8687 507.493 78.8386C507.323 78.8086 507.203 78.7835 507.132 78.7634L507.125 77.6351C507.165 77.6401 507.228 77.6452 507.313 77.6502C507.403 77.6602 507.466 77.6652 507.501 77.6652C507.817 77.6652 508.085 77.6226 508.306 77.5373C508.527 77.4571 508.712 77.3192 508.862 77.1236C509.018 76.9331 509.151 76.6698 509.261 76.3338L509.84 74.7542ZM508.178 67.4579L510.292 73.7764L510.653 75.2431L509.652 75.7546L506.659 67.4579H508.178ZM520.273 67.4579V68.6088H516.159V67.4579H520.273ZM516.362 67.4579V75.5967H514.97V67.4579H516.362ZM521.507 67.4579V75.5967H520.108V67.4579H521.507ZM529.164 67.4579V68.6088H525.05V67.4579H529.164ZM525.253 67.4579V75.5967H523.861V67.4579H525.253ZM530.398 67.4579V75.5967H528.999V67.4579H530.398ZM537.431 74.2051V70.0154C537.431 69.6944 537.366 69.4161 537.235 69.1804C537.11 68.9397 536.919 68.7542 536.664 68.6238C536.408 68.4934 536.092 68.4282 535.716 68.4282C535.365 68.4282 535.056 68.4884 534.791 68.6088C534.53 68.7291 534.324 68.8871 534.174 69.0827C534.028 69.2782 533.956 69.4888 533.956 69.7145H532.564C532.564 69.4237 532.639 69.1353 532.79 68.8495C532.94 68.5636 533.156 68.3054 533.437 68.0747C533.723 67.839 534.064 67.6535 534.46 67.5181C534.861 67.3777 535.307 67.3075 535.799 67.3075C536.39 67.3075 536.912 67.4078 537.363 67.6083C537.82 67.8089 538.176 68.1123 538.431 68.5185C538.692 68.9197 538.822 69.4237 538.822 70.0304V73.8215C538.822 74.0923 538.845 74.3806 538.89 74.6865C538.94 74.9924 539.013 75.2557 539.108 75.4763V75.5967H537.657C537.586 75.4362 537.531 75.2231 537.491 74.9573C537.451 74.6865 537.431 74.4358 537.431 74.2051ZM537.672 70.6623L537.687 71.6401H536.28C535.884 71.6401 535.53 71.6727 535.219 71.7379C534.909 71.7981 534.648 71.8909 534.437 72.0162C534.227 72.1416 534.066 72.2996 533.956 72.4901C533.845 72.6756 533.79 72.8938 533.79 73.1445C533.79 73.4003 533.848 73.6334 533.963 73.8441C534.079 74.0547 534.252 74.2227 534.482 74.348C534.718 74.4684 535.006 74.5286 535.347 74.5286C535.774 74.5286 536.15 74.4383 536.476 74.2578C536.802 74.0772 537.06 73.8566 537.25 73.5958C537.446 73.3351 537.551 73.0818 537.566 72.8361L538.161 73.5056C538.125 73.7162 538.03 73.9494 537.875 74.2051C537.719 74.4609 537.511 74.7066 537.25 74.9423C536.995 75.1729 536.689 75.366 536.333 75.5215C535.982 75.6719 535.586 75.7471 535.144 75.7471C534.593 75.7471 534.109 75.6393 533.693 75.4237C533.281 75.208 532.96 74.9197 532.73 74.5586C532.504 74.1926 532.391 73.7839 532.391 73.3326C532.391 72.8963 532.476 72.5127 532.647 72.1817C532.817 71.8457 533.063 71.5674 533.384 71.3468C533.705 71.1211 534.091 70.9506 534.542 70.8353C534.994 70.7199 535.498 70.6623 536.054 70.6623H537.672Z" fill="#454545"></path> <path fill-rule="evenodd" clip-rule="evenodd" d="M352.186 59C352.186 56.7909 353.977 55 356.186 55H381.186C383.395 55 385.186 56.7909 385.186 59V84C385.186 86.2091 383.395 88 381.186 88H356.186C353.977 88 352.186 86.2091 352.186 84V59Z" fill="#D09CC7"></path> <path fill-rule="evenodd" clip-rule="evenodd" d="M244 59C244 56.7909 245.791 55 248 55H273C275.209 55 277 56.7909 277 59V84C277 86.2091 275.209 88 273 88H248C245.791 88 244 86.2091 244 84V59Z" fill="#6FC4E2"></path> <path d="M290.755 64.048V75H289.326V64.048H290.755ZM294.275 64.048V65.2365H285.813V64.048H294.275ZM296.359 64.048H297.766L301.353 72.9766L304.934 64.048H306.348L301.895 75H300.797L296.359 64.048ZM295.9 64.048H297.141L297.344 70.7275V75H295.9V64.048ZM305.558 64.048H306.799V75H305.355V70.7275L305.558 64.048Z" fill="#454545"></path> <path d="M101 331H682" stroke="#A6A6A6" stroke-opacity="0.26" stroke-dasharray="6 6"></path> <path d="M101 301H682" stroke="#A6A6A6" stroke-opacity="0.26" stroke-dasharray="6 6"></path> <path d="M101 273H682" stroke="#A6A6A6" stroke-opacity="0.26" stroke-dasharray="6 6"></path> <path d="M101 243H682" stroke="#A6A6A6" stroke-opacity="0.26" stroke-dasharray="6 6"></path> <path d="M101 215H682" stroke="#A6A6A6" stroke-opacity="0.26" stroke-dasharray="6 6"></path> <path d="M101 185H682" stroke="#A6A6A6" stroke-opacity="0.26" stroke-dasharray="6 6"></path> <path d="M101 157H682" stroke="#A6A6A6" stroke-opacity="0.26" stroke-dasharray="6 6"></path> <path d="M101 127H682" stroke="#A6A6A6" stroke-opacity="0.26" stroke-dasharray="6 6"></path> <path d="M101 99H682" stroke="#A6A6A6" stroke-opacity="0.26" stroke-dasharray="6 6"></path> <path d="M101 69H682" stroke="#A6A6A6" stroke-opacity="0.26" stroke-dasharray="6 6"></path> </g> <defs> <clipPath id="clip0_477_1004"> <rect width="708" height="424" fill="white"></rect> </clipPath> </defs> </svg> 