<?xml version="1.0" encoding="UTF-8"?> <svg xmlns="http://www.w3.org/2000/svg" width="669" height="358" viewBox="0 0 669 358" fill="none"> <g clip-path="url(#clip0_500_2167)"> <rect x="-9.90527" y="-30" width="708" height="424" fill="#FCFCFC"></rect> <path d="M31.8418 300.611C32.8945 300.734 33.708 301.124 34.2822 301.78C34.8519 302.432 35.1367 303.3 35.1367 304.385C35.1367 305.561 34.7152 306.504 33.8721 307.215C33.029 307.921 31.901 308.274 30.4883 308.274H29.5312C28.6061 308.274 27.7926 308.11 27.0908 307.782C26.389 307.45 25.8512 306.98 25.4775 306.374C25.0993 305.768 24.9102 305.066 24.9102 304.269C24.9102 303.211 25.2064 302.364 25.7988 301.726C26.3867 301.088 27.2025 300.716 28.2461 300.611V301.931C27.4531 302.045 26.8789 302.293 26.5234 302.676C26.168 303.054 25.9902 303.585 25.9902 304.269C25.9902 305.107 26.3001 305.766 26.9199 306.244C27.5397 306.718 28.4215 306.955 29.5654 306.955H30.5293C31.6094 306.955 32.4684 306.729 33.1064 306.278C33.7445 305.827 34.0635 305.196 34.0635 304.385C34.0635 303.656 33.8994 303.097 33.5713 302.71C33.2386 302.318 32.6621 302.058 31.8418 301.931V300.611ZM31.8486 296.708V297.631H35V298.902H27.6035V297.631H30.7344V296.804L27.6035 294.315V292.784L31.1582 295.71L35 292.538V294.145L31.8486 296.708ZM31.2334 291.937C30.5088 291.937 29.8571 291.795 29.2783 291.513C28.6995 291.226 28.2529 290.829 27.9385 290.323C27.624 289.813 27.4668 289.232 27.4668 288.58C27.4668 287.573 27.8154 286.759 28.5127 286.14C29.21 285.515 30.1374 285.203 31.2949 285.203H31.3838C32.1038 285.203 32.751 285.342 33.3252 285.62C33.8949 285.894 34.3392 286.288 34.6582 286.803C34.9772 287.313 35.1367 287.901 35.1367 288.566C35.1367 289.569 34.7881 290.382 34.0908 291.007C33.3936 291.627 32.4707 291.937 31.3223 291.937H31.2334ZM31.3838 290.665C32.2041 290.665 32.8626 290.476 33.3594 290.098C33.8561 289.715 34.1045 289.204 34.1045 288.566C34.1045 287.924 33.8538 287.413 33.3525 287.035C32.8467 286.657 32.1403 286.468 31.2334 286.468C30.4222 286.468 29.766 286.661 29.2646 287.049C28.7588 287.432 28.5059 287.942 28.5059 288.58C28.5059 289.204 28.7542 289.708 29.251 290.091C29.7477 290.474 30.4587 290.665 31.3838 290.665ZM31.3838 277.369C32.5094 277.369 33.4163 277.627 34.1045 278.142C34.7926 278.657 35.1367 279.354 35.1367 280.233C35.1367 281.131 34.8519 281.838 34.2822 282.353H37.8438V283.617H27.6035V282.462L28.4238 282.4C27.7858 281.885 27.4668 281.17 27.4668 280.254C27.4668 279.365 27.8018 278.663 28.4717 278.148C29.1416 277.629 30.0736 277.369 31.2676 277.369H31.3838ZM31.2402 278.634C30.4063 278.634 29.7477 278.812 29.2646 279.167C28.7816 279.522 28.54 280.01 28.54 280.63C28.54 281.396 28.8796 281.97 29.5586 282.353H33.0928C33.7673 281.974 34.1045 281.396 34.1045 280.616C34.1045 280.01 33.8652 279.529 33.3867 279.174C32.9036 278.814 32.1882 278.634 31.2402 278.634ZM31.3838 269.508C32.5094 269.508 33.4163 269.765 34.1045 270.28C34.7926 270.795 35.1367 271.493 35.1367 272.372C35.1367 273.27 34.8519 273.976 34.2822 274.491H37.8438V275.756H27.6035V274.601L28.4238 274.539C27.7858 274.024 27.4668 273.309 27.4668 272.393C27.4668 271.504 27.8018 270.802 28.4717 270.287C29.1416 269.768 30.0736 269.508 31.2676 269.508H31.3838ZM31.2402 270.772C30.4063 270.772 29.7477 270.95 29.2646 271.306C28.7816 271.661 28.54 272.149 28.54 272.769C28.54 273.534 28.8796 274.108 29.5586 274.491H33.0928C33.7673 274.113 34.1045 273.534 34.1045 272.755C34.1045 272.149 33.8652 271.668 33.3867 271.312C32.9036 270.952 32.1882 270.772 31.2402 270.772ZM35.1367 264.825C35.1367 265.828 34.8086 266.644 34.1523 267.272C33.4915 267.901 32.6097 268.216 31.5068 268.216H31.2744C30.5407 268.216 29.8867 268.077 29.3125 267.799C28.7337 267.516 28.2826 267.124 27.959 266.623C27.6309 266.117 27.4668 265.57 27.4668 264.982C27.4668 264.021 27.7835 263.273 28.417 262.74C29.0505 262.207 29.9574 261.94 31.1377 261.94H31.6641V266.951C32.3932 266.933 32.9834 266.721 33.4346 266.315C33.8812 265.905 34.1045 265.386 34.1045 264.757C34.1045 264.31 34.0133 263.932 33.8311 263.622C33.6488 263.312 33.4072 263.041 33.1064 262.809L33.708 262.036C34.6605 262.656 35.1367 263.586 35.1367 264.825ZM28.5059 264.982C28.5059 265.493 28.6927 265.921 29.0664 266.268C29.4355 266.614 29.9551 266.828 30.625 266.91V263.205H30.5293C29.8867 263.242 29.39 263.415 29.0391 263.725C28.6836 264.035 28.5059 264.454 28.5059 264.982ZM31.8486 258.167V259.09H35V260.361H27.6035V259.09H30.7344V258.263L27.6035 255.774V254.243L31.1582 257.169L35 253.997L35 255.604L31.8486 258.167ZM28.6289 247.414V249.896H35V251.16H28.6289V253.594H27.6035V247.414H28.6289ZM27.6035 241.398L27.6035 240.134H35V241.398H29.6064L35 244.81V246.074H27.6035V244.81H33.0039L27.6035 241.398ZM31.3838 231.855C32.5094 231.855 33.4163 232.113 34.1045 232.628C34.7926 233.143 35.1367 233.84 35.1367 234.72C35.1367 235.618 34.8519 236.324 34.2822 236.839H37.8438V238.104H27.6035V236.948L28.4238 236.887C27.7858 236.372 27.4668 235.656 27.4668 234.74C27.4668 233.852 27.8018 233.15 28.4717 232.635C29.1416 232.115 30.0736 231.855 31.2676 231.855H31.3838ZM31.2402 233.12C30.4063 233.12 29.7477 233.298 29.2646 233.653C28.7816 234.009 28.54 234.496 28.54 235.116C28.54 235.882 28.8796 236.456 29.5586 236.839H33.0928C33.7673 236.461 34.1045 235.882 34.1045 235.103C34.1045 234.496 33.8652 234.016 33.3867 233.66C32.9036 233.3 32.1882 233.12 31.2402 233.12ZM31.2334 230.577C30.5088 230.577 29.8571 230.436 29.2783 230.153C28.6995 229.866 28.2529 229.47 27.9385 228.964C27.624 228.453 27.4668 227.872 27.4668 227.221C27.4668 226.214 27.8154 225.4 28.5127 224.78C29.21 224.156 30.1374 223.844 31.2949 223.844H31.3838C32.1038 223.844 32.751 223.983 33.3252 224.261C33.8949 224.534 34.3392 224.928 34.6582 225.443C34.9772 225.954 35.1367 226.542 35.1367 227.207C35.1367 228.21 34.7881 229.023 34.0908 229.647C33.3936 230.267 32.4707 230.577 31.3223 230.577H31.2334ZM31.3838 229.306C32.2041 229.306 32.8626 229.117 33.3594 228.738C33.8561 228.355 34.1045 227.845 34.1045 227.207C34.1045 226.564 33.8538 226.054 33.3525 225.676C32.8467 225.298 32.1403 225.108 31.2334 225.108C30.4222 225.108 29.766 225.302 29.2646 225.689C28.7588 226.072 28.5059 226.583 28.5059 227.221C28.5059 227.845 28.7542 228.349 29.251 228.731C29.7477 229.114 30.4587 229.306 31.3838 229.306ZM35 222.142H27.6035V219.257C27.6035 218.272 27.7767 217.518 28.123 216.994C28.4648 216.465 28.9684 216.201 29.6338 216.201C29.9756 216.201 30.2855 216.304 30.5635 216.509C30.8369 216.714 31.0465 217.017 31.1924 217.418C31.2972 216.971 31.5023 216.614 31.8076 216.345C32.113 216.071 32.4775 215.935 32.9014 215.935C33.5804 215.935 34.0999 216.185 34.46 216.687C34.82 217.183 35 217.887 35 218.799V222.142ZM31.7529 220.877H33.9814V218.785C33.9814 218.257 33.8835 217.862 33.6875 217.603C33.4915 217.338 33.2158 217.206 32.8604 217.206C32.1221 217.206 31.7529 217.748 31.7529 218.833V220.877ZM30.7412 220.877V219.243C30.7412 218.058 30.3949 217.466 29.7021 217.466C29.0094 217.466 28.6517 218.026 28.6289 219.147V220.877H30.7412ZM35 209.693C34.8542 209.766 34.5944 209.826 34.2207 209.871C34.8314 210.459 35.1367 211.161 35.1367 211.977C35.1367 212.706 34.9316 213.305 34.5215 213.774C34.1068 214.239 33.5827 214.472 32.9492 214.472C32.179 214.472 31.582 214.18 31.1582 213.597C30.7298 213.009 30.5156 212.184 30.5156 211.122L30.5156 209.892H29.9346C29.4925 209.892 29.1416 210.024 28.8818 210.288C28.6175 210.552 28.4854 210.942 28.4854 211.457C28.4854 211.908 28.5993 212.286 28.8271 212.592C29.055 212.897 29.3307 213.05 29.6543 213.05V214.321C29.2852 214.321 28.9297 214.191 28.5879 213.932C28.2415 213.667 27.9681 213.312 27.7676 212.865C27.5671 212.414 27.4668 211.92 27.4668 211.382C27.4668 210.53 27.681 209.862 28.1094 209.379C28.5332 208.896 29.1188 208.645 29.8662 208.627H33.2705C33.9495 208.627 34.4896 208.54 34.8906 208.367H35V209.693ZM34.0361 211.792C34.0361 211.396 33.9336 211.02 33.7285 210.664C33.5234 210.309 33.2568 210.051 32.9287 209.892H31.4111L31.4111 210.883C31.4111 212.432 31.8646 213.207 32.7715 213.207C33.168 213.207 33.4779 213.075 33.7012 212.811C33.9245 212.546 34.0361 212.207 34.0361 211.792ZM35 200.602V201.866H31.8418V205.264H35V206.535H27.6035V205.264H30.8096V201.866H27.6035V200.602H35ZM35 192.521V193.786H31.8418V197.184H35V198.455H27.6035V197.184H30.8096V193.786H27.6035V192.521H35ZM31.2334 190.819C30.5088 190.819 29.8571 190.678 29.2783 190.396C28.6995 190.108 28.2529 189.712 27.9385 189.206C27.624 188.696 27.4668 188.115 27.4668 187.463C27.4668 186.456 27.8154 185.642 28.5127 185.022C29.21 184.398 30.1374 184.086 31.2949 184.086H31.3838C32.1038 184.086 32.751 184.225 33.3252 184.503C33.8949 184.776 34.3392 185.171 34.6582 185.686C34.9772 186.196 35.1367 186.784 35.1367 187.449C35.1367 188.452 34.7881 189.265 34.0908 189.89C33.3936 190.509 32.4707 190.819 31.3223 190.819H31.2334ZM31.3838 189.548C32.2041 189.548 32.8626 189.359 33.3594 188.98C33.8561 188.598 34.1045 188.087 34.1045 187.449C34.1045 186.807 33.8538 186.296 33.3525 185.918C32.8467 185.54 32.1403 185.351 31.2334 185.351C30.4222 185.351 29.766 185.544 29.2646 185.932C28.7588 186.314 28.5059 186.825 28.5059 187.463C28.5059 188.087 28.7542 188.591 29.251 188.974C29.7477 189.356 30.4587 189.548 31.3838 189.548ZM35.1367 179.431C35.1367 180.433 34.8086 181.249 34.1523 181.878C33.4915 182.507 32.6097 182.821 31.5068 182.821H31.2744C30.5407 182.821 29.8867 182.682 29.3125 182.404C28.7337 182.122 28.2826 181.73 27.959 181.229C27.6309 180.723 27.4668 180.176 27.4668 179.588C27.4668 178.626 27.7835 177.879 28.417 177.346C29.0505 176.812 29.9574 176.546 31.1377 176.546H31.6641V181.557C32.3932 181.538 32.9834 181.326 33.4346 180.921C33.8812 180.511 34.1045 179.991 34.1045 179.362C34.1045 178.916 34.0133 178.537 33.8311 178.228C33.6488 177.918 33.4072 177.646 33.1064 177.414L33.708 176.642C34.6605 177.261 35.1367 178.191 35.1367 179.431ZM28.5059 179.588C28.5059 180.098 28.6927 180.527 29.0664 180.873C29.4355 181.219 29.9551 181.434 30.625 181.516V177.811H30.5293C29.8867 177.847 29.39 178.02 29.0391 178.33C28.6836 178.64 28.5059 179.059 28.5059 179.588ZM27.6035 166.818V165.554H35L35 166.818H29.6064L35 170.229V171.494H27.6035V170.229H33.0039L27.6035 166.818ZM29.627 159.456C29.2806 159.456 29.0072 159.588 28.8066 159.853C28.6016 160.117 28.499 160.479 28.499 160.939C28.499 161.386 28.6152 161.76 28.8477 162.061C29.0801 162.357 29.3535 162.505 29.668 162.505V163.763C29.0254 163.763 28.499 163.494 28.0889 162.956C27.6787 162.418 27.4736 161.746 27.4736 160.939C27.4736 160.074 27.6605 159.399 28.0342 158.916C28.4033 158.433 28.932 158.191 29.6201 158.191C29.9528 158.191 30.2581 158.292 30.5361 158.492C30.8141 158.693 31.0352 158.978 31.1992 159.347C31.4909 158.485 32.0651 158.055 32.9219 158.055C33.6009 158.055 34.1387 158.317 34.5352 158.841C34.9316 159.365 35.1299 160.064 35.1299 160.939C35.1299 161.792 34.9225 162.496 34.5078 163.052C34.0885 163.603 33.5234 163.879 32.8125 163.879V162.621C33.1725 162.621 33.4824 162.462 33.7422 162.143C33.9974 161.819 34.125 161.418 34.125 160.939C34.125 160.456 34.0133 160.067 33.79 159.771C33.5667 159.474 33.2773 159.326 32.9219 159.326C32.5072 159.326 32.2109 159.451 32.0332 159.702C31.8509 159.948 31.7598 160.333 31.7598 160.857V162.122H30.6934V160.748C30.6706 159.887 30.3151 159.456 29.627 159.456ZM33.3252 152.155L27.6035 149.64V148.061H35V149.325H29.6201L35 151.718V152.593L29.5039 155.033H35V156.298H27.6035V154.657L33.3252 152.155ZM35.1367 142.954C35.1367 143.957 34.8086 144.772 34.1523 145.401C33.4915 146.03 32.6097 146.345 31.5068 146.345H31.2744C30.5407 146.345 29.8867 146.206 29.3125 145.928C28.7337 145.645 28.2826 145.253 27.959 144.752C27.6309 144.246 27.4668 143.699 27.4668 143.111C27.4668 142.15 27.7835 141.402 28.417 140.869C29.0505 140.336 29.9574 140.069 31.1377 140.069H31.6641V145.08C32.3932 145.062 32.9834 144.85 33.4346 144.444C33.8812 144.034 34.1045 143.515 34.1045 142.886C34.1045 142.439 34.0133 142.061 33.8311 141.751C33.6488 141.441 33.4072 141.17 33.1064 140.938L33.708 140.165C34.6605 140.785 35.1367 141.715 35.1367 142.954ZM28.5059 143.111C28.5059 143.622 28.6927 144.05 29.0664 144.396C29.4355 144.743 29.9551 144.957 30.625 145.039V141.334H30.5293C29.8867 141.37 29.39 141.544 29.0391 141.854C28.6836 142.163 28.5059 142.583 28.5059 143.111ZM35 132.557V133.821H31.8418V137.219H35V138.49H27.6035V137.219H30.8096V133.821H27.6035V132.557H35ZM35.1367 127.45C35.1367 128.453 34.8086 129.269 34.1523 129.897C33.4915 130.526 32.6097 130.841 31.5068 130.841H31.2744C30.5407 130.841 29.8867 130.702 29.3125 130.424C28.7337 130.141 28.2826 129.749 27.959 129.248C27.6309 128.742 27.4668 128.195 27.4668 127.607C27.4668 126.646 27.7835 125.898 28.417 125.365C29.0505 124.832 29.9574 124.565 31.1377 124.565H31.6641V129.576C32.3932 129.558 32.9834 129.346 33.4346 128.94C33.8812 128.53 34.1045 128.011 34.1045 127.382C34.1045 126.935 34.0133 126.557 33.8311 126.247C33.6488 125.937 33.4072 125.666 33.1064 125.434L33.708 124.661C34.6605 125.281 35.1367 126.211 35.1367 127.45ZM28.5059 127.607C28.5059 128.118 28.6927 128.546 29.0664 128.893C29.4355 129.239 29.9551 129.453 30.625 129.535V125.83H30.5293C29.8867 125.867 29.39 126.04 29.0391 126.35C28.6836 126.66 28.5059 127.079 28.5059 127.607ZM35 117.053V118.317H31.8418L31.8418 121.715H35V122.986H27.6035V121.715H30.8096L30.8096 118.317H27.6035V117.053H35ZM27.6035 110.23V108.966H35L35 110.23H29.6064L35 113.642V114.906H27.6035V113.642H33.0039L27.6035 110.23ZM35.1367 103.866C35.1367 104.869 34.8086 105.685 34.1523 106.313C33.4915 106.942 32.6097 107.257 31.5068 107.257H31.2744C30.5407 107.257 29.8867 107.118 29.3125 106.84C28.7337 106.557 28.2826 106.165 27.959 105.664C27.6309 105.158 27.4668 104.611 27.4668 104.023C27.4668 103.062 27.7835 102.314 28.417 101.781C29.0505 101.248 29.9574 100.981 31.1377 100.981H31.6641V105.992C32.3932 105.974 32.9834 105.762 33.4346 105.356C33.8812 104.946 34.1045 104.427 34.1045 103.798C34.1045 103.351 34.0133 102.973 33.8311 102.663C33.6488 102.353 33.4072 102.082 33.1064 101.85L33.708 101.077C34.6605 101.697 35.1367 102.627 35.1367 103.866ZM28.5059 104.023C28.5059 104.534 28.6927 104.962 29.0664 105.309C29.4355 105.655 29.9551 105.869 30.625 105.951V102.246H30.5293C29.8867 102.283 29.39 102.456 29.0391 102.766C28.6836 103.076 28.5059 103.495 28.5059 104.023ZM29.627 91.9717C29.2806 91.9717 29.0072 92.1038 28.8066 92.3682C28.6016 92.6325 28.499 92.9948 28.499 93.4551C28.499 93.9017 28.6152 94.2754 28.8477 94.5762C29.0801 94.8724 29.3535 95.0205 29.668 95.0205V96.2783C29.0254 96.2783 28.499 96.0094 28.0889 95.4717C27.6787 94.9339 27.4736 94.2617 27.4736 93.4551C27.4736 92.5892 27.6605 91.9147 28.0342 91.4316C28.4033 90.9486 28.932 90.707 29.6201 90.707C29.9528 90.707 30.2581 90.8073 30.5361 91.0078C30.8141 91.2083 31.0352 91.4932 31.1992 91.8623C31.4909 91.001 32.0651 90.5703 32.9219 90.5703C33.6009 90.5703 34.1387 90.8324 34.5352 91.3564C34.9316 91.8805 35.1299 92.5801 35.1299 93.4551C35.1299 94.3073 34.9225 95.0114 34.5078 95.5674C34.0885 96.1188 33.5234 96.3945 32.8125 96.3945V95.1367C33.1725 95.1367 33.4824 94.9772 33.7422 94.6582C33.9974 94.3346 34.125 93.9336 34.125 93.4551C34.125 92.972 34.0133 92.5824 33.79 92.2861C33.5667 91.9899 33.2773 91.8418 32.9219 91.8418C32.5072 91.8418 32.2109 91.9671 32.0332 92.2178C31.8509 92.4639 31.7598 92.849 31.7598 93.373V94.6377H30.6934V93.2637C30.6706 92.4023 30.3151 91.9717 29.627 91.9717ZM35 82.8867V84.1514H31.8418V87.5488H35V88.8203H27.6035V87.5488H30.8096V84.1514H27.6035V82.8867H35ZM35 76.2832C34.8542 76.3561 34.5944 76.4154 34.2207 76.4609C34.8314 77.0488 35.1367 77.7507 35.1367 78.5664C35.1367 79.2956 34.9316 79.8949 34.5215 80.3643C34.1068 80.8291 33.5827 81.0615 32.9492 81.0615C32.179 81.0615 31.582 80.7699 31.1582 80.1865C30.7298 79.5986 30.5156 78.7738 30.5156 77.7119L30.5156 76.4814H29.9346C29.4925 76.4814 29.1416 76.6136 28.8818 76.8779C28.6175 77.1423 28.4854 77.5319 28.4854 78.0469C28.4854 78.498 28.5993 78.8763 28.8271 79.1816C29.055 79.487 29.3307 79.6396 29.6543 79.6396V80.9111C29.2852 80.9111 28.9297 80.7812 28.5879 80.5215C28.2415 80.2572 27.9681 79.9017 27.7676 79.4551C27.5671 79.0039 27.4668 78.5094 27.4668 77.9717C27.4668 77.1195 27.681 76.4518 28.1094 75.9688C28.5332 75.4857 29.1188 75.235 29.8662 75.2168H33.2705C33.9495 75.2168 34.4896 75.1302 34.8906 74.957H35V76.2832ZM34.0361 78.3818C34.0361 77.9854 33.9336 77.6094 33.7285 77.2539C33.5234 76.8984 33.2568 76.641 32.9287 76.4814H31.4111L31.4111 77.4727C31.4111 79.0221 31.8646 79.7969 32.7715 79.7969C33.168 79.7969 33.4779 79.6647 33.7012 79.4004C33.9245 79.1361 34.0361 78.7965 34.0361 78.3818ZM35 67.6494V68.9209H32.3203C32.4661 69.4769 32.5391 70.0465 32.5391 70.6299C32.5391 71.555 32.3021 72.2614 31.8281 72.749C31.3542 73.2321 30.6797 73.4782 29.8047 73.4873H27.5967V72.2227H29.8457C30.9486 72.1999 31.5 71.6689 31.5 70.6299C31.5 70.0465 31.4271 69.4769 31.2813 68.9209H27.6035V67.6494H35ZM35.1367 62.5498C35.1367 63.5524 34.8086 64.3682 34.1523 64.9971C33.4915 65.626 32.6097 65.9404 31.5068 65.9404H31.2744C30.5407 65.9404 29.8867 65.8014 29.3125 65.5234C28.7337 65.2409 28.2826 64.849 27.959 64.3477C27.6309 63.8418 27.4668 63.2949 27.4668 62.707C27.4668 61.7454 27.7835 60.998 28.417 60.4648C29.0505 59.9316 29.9574 59.665 31.1377 59.665H31.6641V64.6758C32.3932 64.6576 32.9834 64.4456 33.4346 64.04C33.8812 63.6299 34.1045 63.1104 34.1045 62.4814C34.1045 62.0348 34.0133 61.6566 33.8311 61.3467C33.6488 61.0368 33.4072 60.7656 33.1064 60.5332L33.708 59.7607C34.6605 60.3805 35.1367 61.3102 35.1367 62.5498ZM28.5059 62.707C28.5059 63.2174 28.6927 63.6458 29.0664 63.9922C29.4355 64.3385 29.9551 64.5527 30.625 64.6348V60.9297H30.5293C29.8867 60.9661 29.39 61.1393 29.0391 61.4492C28.6836 61.7591 28.5059 62.1784 28.5059 62.707ZM35 52.1523V53.417H31.8418V56.8145H35V58.0859H27.6035V56.8145H30.8096V53.417H27.6035V52.1523H35ZM27.6035 45.3301V44.0654H35V45.3301H29.6064L35 48.7412V50.0059H27.6035V48.7412H33.0039L27.6035 45.3301ZM27.6035 37.25V35.9854H35V37.25H29.6064L35 40.6611V41.9258H27.6035V40.6611H33.0039L27.6035 37.25ZM24.9102 36.9082C25.4616 36.9082 25.9059 37.0973 26.2432 37.4756C26.5758 37.8493 26.7422 38.3415 26.7422 38.9521C26.7422 39.5628 26.5736 40.0573 26.2363 40.4355C25.8991 40.8138 25.457 41.0029 24.9102 41.0029V39.9707C25.2292 39.9707 25.4798 39.8841 25.6621 39.7109C25.8398 39.5378 25.9287 39.2848 25.9287 38.9521C25.9287 38.6331 25.8398 38.3848 25.6621 38.207C25.4844 38.0247 25.2337 37.9336 24.9102 37.9336V36.9082ZM51 279.27V280.534H44.6494L44.6494 283.938H51V285.21H43.6035L43.6035 279.27H51ZM47.2334 277.574C46.5088 277.574 45.8571 277.433 45.2783 277.15C44.6995 276.863 44.2529 276.467 43.9385 275.961C43.624 275.451 43.4668 274.869 43.4668 274.218C43.4668 273.211 43.8154 272.397 44.5127 271.777C45.21 271.153 46.1374 270.841 47.2949 270.841H47.3838C48.1038 270.841 48.751 270.98 49.3252 271.258C49.8949 271.531 50.3392 271.925 50.6582 272.44C50.9772 272.951 51.1367 273.539 51.1367 274.204C51.1367 275.207 50.7881 276.02 50.0908 276.645C49.3936 277.264 48.4707 277.574 47.3223 277.574H47.2334ZM47.3838 276.303C48.2041 276.303 48.8626 276.114 49.3594 275.735C49.8561 275.353 50.1045 274.842 50.1045 274.204C50.1045 273.562 49.8538 273.051 49.3525 272.673C48.8467 272.295 48.1403 272.105 47.2334 272.105C46.4222 272.105 45.766 272.299 45.2646 272.687C44.7588 273.069 44.5059 273.58 44.5059 274.218C44.5059 274.842 44.7542 275.346 45.251 275.729C45.7477 276.111 46.4587 276.303 47.3838 276.303ZM43.6035 264.401H49.9678V261.694H43.6035V260.43H49.9678L49.9678 257.729H43.6035V256.458H51L51 265.673H43.6035V264.401ZM47.8486 252.158V253.081H51V254.353H43.6035V253.081H46.7344V252.254L43.6035 249.766V248.234L47.1582 251.16L51 247.988V249.595L47.8486 252.158ZM51 242.335C50.8542 242.408 50.5944 242.467 50.2207 242.513C50.8314 243.101 51.1367 243.802 51.1367 244.618C51.1367 245.347 50.9316 245.947 50.5215 246.416C50.1068 246.881 49.5827 247.113 48.9492 247.113C48.179 247.113 47.582 246.822 47.1582 246.238C46.7298 245.65 46.5156 244.826 46.5156 243.764V242.533H45.9346C45.4925 242.533 45.1416 242.665 44.8818 242.93C44.6175 243.194 44.4854 243.584 44.4854 244.099C44.4854 244.55 44.5993 244.928 44.8271 245.233C45.055 245.539 45.3307 245.691 45.6543 245.691V246.963C45.2852 246.963 44.9297 246.833 44.5879 246.573C44.2415 246.309 43.9681 245.953 43.7676 245.507C43.5671 245.056 43.4668 244.561 43.4668 244.023C43.4668 243.171 43.681 242.504 44.1094 242.021C44.5332 241.537 45.1188 241.287 45.8662 241.269H49.2705C49.9495 241.269 50.4896 241.182 50.8906 241.009H51V242.335ZM50.0361 244.434C50.0361 244.037 49.9336 243.661 49.7285 243.306C49.5234 242.95 49.2568 242.693 48.9287 242.533H47.4111V243.524C47.4111 245.074 47.8646 245.849 48.7715 245.849C49.168 245.849 49.4779 245.716 49.7012 245.452C49.9245 245.188 50.0361 244.848 50.0361 244.434ZM43.6035 233.223H51V234.494H44.6494V237.01L47.418 237.16C48.6895 237.242 49.5986 237.456 50.1455 237.803C50.6924 238.145 50.9772 238.689 51 239.437V239.942H49.8857L49.8584 239.58C49.8128 239.17 49.5758 238.876 49.1475 238.698C48.7191 238.521 47.9261 238.407 46.7686 238.356L43.6035 238.22V233.223ZM51.1367 228.123C51.1367 229.126 50.8086 229.941 50.1523 230.57C49.4915 231.199 48.6097 231.514 47.5068 231.514H47.2744C46.5407 231.514 45.8867 231.375 45.3125 231.097C44.7337 230.814 44.2826 230.422 43.959 229.921C43.6309 229.415 43.4668 228.868 43.4668 228.28C43.4668 227.319 43.7835 226.571 44.417 226.038C45.0505 225.505 45.9574 225.238 47.1377 225.238H47.6641V230.249C48.3932 230.231 48.9834 230.019 49.4346 229.613C49.8812 229.203 50.1045 228.684 50.1045 228.055C50.1045 227.608 50.0133 227.23 49.8311 226.92C49.6488 226.61 49.4072 226.339 49.1064 226.106L49.708 225.334C50.6605 225.954 51.1367 226.883 51.1367 228.123ZM44.5059 228.28C44.5059 228.791 44.6927 229.219 45.0664 229.565C45.4355 229.912 45.9551 230.126 46.625 230.208V226.503H46.5293C45.8867 226.539 45.39 226.713 45.0391 227.022C44.6836 227.332 44.5059 227.752 44.5059 228.28ZM47.3838 214.048C48.5094 214.048 49.4163 214.305 50.1045 214.82C50.7926 215.335 51.1367 216.033 51.1367 216.912C51.1367 217.81 50.8519 218.516 50.2822 219.031H53.8438V220.296H43.6035V219.141L44.4238 219.079C43.7858 218.564 43.4668 217.849 43.4668 216.933C43.4668 216.044 43.8018 215.342 44.4717 214.827C45.1416 214.308 46.0736 214.048 47.2676 214.048H47.3838ZM47.2402 215.312C46.4063 215.312 45.7477 215.49 45.2646 215.846C44.7816 216.201 44.54 216.689 44.54 217.309C44.54 218.074 44.8796 218.648 45.5586 219.031H49.0928C49.7673 218.653 50.1045 218.074 50.1045 217.295C50.1045 216.689 49.8652 216.208 49.3867 215.853C48.9036 215.493 48.1882 215.312 47.2402 215.312ZM51 207.868C50.8542 207.941 50.5944 208 50.2207 208.046C50.8314 208.634 51.1367 209.336 51.1367 210.151C51.1367 210.881 50.9316 211.48 50.5215 211.949C50.1068 212.414 49.5827 212.646 48.9492 212.646C48.179 212.646 47.582 212.355 47.1582 211.771C46.7298 211.184 46.5156 210.359 46.5156 209.297V208.066H45.9346C45.4925 208.066 45.1416 208.199 44.8818 208.463C44.6175 208.727 44.4854 209.117 44.4854 209.632C44.4854 210.083 44.5993 210.461 44.8271 210.767C45.055 211.072 45.3307 211.225 45.6543 211.225V212.496C45.2852 212.496 44.9297 212.366 44.5879 212.106C44.2415 211.842 43.9681 211.487 43.7676 211.04C43.5671 210.589 43.4668 210.094 43.4668 209.557C43.4668 208.704 43.681 208.037 44.1094 207.554C44.5332 207.071 45.1188 206.82 45.8662 206.802H49.2705C49.9495 206.802 50.4896 206.715 50.8906 206.542H51V207.868ZM50.0361 209.967C50.0361 209.57 49.9336 209.194 49.7285 208.839C49.5234 208.483 49.2568 208.226 48.9287 208.066H47.4111V209.058C47.4111 210.607 47.8646 211.382 48.7715 211.382C49.168 211.382 49.4779 211.25 49.7012 210.985C49.9245 210.721 50.0361 210.382 50.0361 209.967ZM45.627 200.752C45.2806 200.752 45.0072 200.884 44.8066 201.148C44.6016 201.413 44.499 201.775 44.499 202.235C44.499 202.682 44.6152 203.056 44.8477 203.356C45.0801 203.653 45.3535 203.801 45.668 203.801V205.059C45.0254 205.059 44.499 204.79 44.0889 204.252C43.6787 203.714 43.4736 203.042 43.4736 202.235C43.4736 201.369 43.6605 200.695 44.0342 200.212C44.4033 199.729 44.932 199.487 45.6201 199.487C45.9528 199.487 46.2581 199.588 46.5361 199.788C46.8141 199.989 47.0352 200.273 47.1992 200.643C47.4909 199.781 48.0651 199.351 48.9219 199.351C49.6009 199.351 50.1387 199.613 50.5352 200.137C50.9316 200.661 51.1299 201.36 51.1299 202.235C51.1299 203.088 50.9225 203.792 50.5078 204.348C50.0885 204.899 49.5234 205.175 48.8125 205.175V203.917C49.1725 203.917 49.4824 203.757 49.7422 203.438C49.9974 203.115 50.125 202.714 50.125 202.235C50.125 201.752 50.0133 201.363 49.79 201.066C49.5667 200.77 49.2773 200.622 48.9219 200.622C48.5072 200.622 48.2109 200.747 48.0332 200.998C47.8509 201.244 47.7598 201.629 47.7598 202.153V203.418H46.6934V202.044C46.6706 201.183 46.3151 200.752 45.627 200.752ZM51 197.594H43.6035V194.709C43.6035 193.725 43.7767 192.97 44.123 192.446C44.4648 191.918 44.9684 191.653 45.6338 191.653C45.9756 191.653 46.2855 191.756 46.5635 191.961C46.8369 192.166 47.0465 192.469 47.1924 192.87C47.2972 192.424 47.5023 192.066 47.8076 191.797C48.113 191.523 48.4775 191.387 48.9014 191.387C49.5804 191.387 50.0999 191.637 50.46 192.139C50.82 192.635 51 193.34 51 194.251V197.594ZM47.7529 196.329H49.9814V194.237C49.9814 193.709 49.8835 193.314 49.6875 193.055C49.4915 192.79 49.2158 192.658 48.8604 192.658C48.1221 192.658 47.7529 193.201 47.7529 194.285V196.329ZM46.7412 196.329V194.695C46.7412 193.51 46.3949 192.918 45.7021 192.918C45.0094 192.918 44.6517 193.479 44.6289 194.6V196.329H46.7412ZM43.6035 184.927V183.662H51V184.927H45.6064L51 188.338V189.603H43.6035V188.338H49.0039L43.6035 184.927ZM44.6289 176.136V178.617H51V179.882H44.6289V182.315H43.6035V176.136H44.6289ZM43.6035 170.12V168.855H51V170.12H45.6064L51 173.531V174.796H43.6035V173.531H49.0039L43.6035 170.12ZM43.6035 161.172H51V162.443H48.1221V164.351L51 166.094V167.461L47.9307 165.602C47.7575 166.076 47.4909 166.44 47.1309 166.695C46.7663 166.946 46.3424 167.071 45.8594 167.071C45.1849 167.071 44.6426 166.818 44.2324 166.312C43.8177 165.807 43.6081 165.13 43.6035 164.282V161.172ZM45.873 165.8C46.2331 165.8 46.5247 165.677 46.748 165.431C46.9668 165.185 47.0785 164.859 47.083 164.453V162.443H44.6289V164.262C44.6289 164.731 44.7451 165.105 44.9775 165.383C45.2054 165.661 45.5039 165.8 45.873 165.8ZM44.5059 153.071C44.5059 153.522 44.6494 153.914 44.9365 154.247C45.2236 154.575 45.5632 154.739 45.9551 154.739V155.942C45.5313 155.942 45.1257 155.808 44.7383 155.539C44.3509 155.27 44.0433 154.912 43.8154 154.466C43.583 154.019 43.4668 153.554 43.4668 153.071C43.4668 152.11 43.8154 151.333 44.5127 150.74C45.2054 150.143 46.1123 149.845 47.2334 149.845H47.4453C48.138 149.845 48.7715 149.981 49.3457 150.255C49.9154 150.524 50.3574 150.904 50.6719 151.396C50.9818 151.884 51.1367 152.442 51.1367 153.071C51.1367 153.892 50.8815 154.575 50.3711 155.122C49.8607 155.669 49.2249 155.942 48.4639 155.942V154.739C48.9287 154.739 49.3206 154.577 49.6396 154.254C49.9541 153.93 50.1113 153.536 50.1113 153.071C50.1113 152.529 49.9017 152.082 49.4824 151.731C49.0632 151.381 48.4867 151.178 47.7529 151.123V153.898H46.7139V151.137C46.0485 151.201 45.5153 151.403 45.1143 151.745C44.7087 152.087 44.5059 152.529 44.5059 153.071ZM44.6494 143.357V146.769H51V148.04H43.6035V143.357H44.6494ZM47.2334 142.729C46.5088 142.729 45.8571 142.587 45.2783 142.305C44.6995 142.018 44.2529 141.621 43.9385 141.115C43.624 140.605 43.4668 140.024 43.4668 139.372C43.4668 138.365 43.8154 137.551 44.5127 136.932C45.21 136.307 46.1374 135.995 47.2949 135.995H47.3838C48.1038 135.995 48.751 136.134 49.3252 136.412C49.8949 136.686 50.3392 137.08 50.6582 137.595C50.9772 138.105 51.1367 138.693 51.1367 139.358C51.1367 140.361 50.7881 141.174 50.0908 141.799C49.3936 142.419 48.4707 142.729 47.3223 142.729H47.2334ZM47.3838 141.457C48.2041 141.457 48.8626 141.268 49.3594 140.89C49.8561 140.507 50.1045 139.996 50.1045 139.358C50.1045 138.716 49.8538 138.205 49.3525 137.827C48.8467 137.449 48.1403 137.26 47.2334 137.26C46.4222 137.26 45.766 137.453 45.2646 137.841C44.7588 138.224 44.5059 138.734 44.5059 139.372C44.5059 139.996 44.7542 140.5 45.251 140.883C45.7477 141.266 46.4587 141.457 47.3838 141.457ZM41.0469 119.739H51V121.052H42.127V124.62L46.0713 124.798C47.3929 124.866 48.3864 125.003 49.0518 125.208C49.7171 125.409 50.207 125.705 50.5215 126.097C50.8314 126.489 50.9909 127.013 51 127.669V128.1H49.9268L49.9131 127.826C49.8812 127.402 49.7445 127.076 49.5029 126.849C49.2568 126.621 48.8672 126.448 48.334 126.329C47.8008 126.211 46.9805 126.126 45.873 126.076L41.0469 125.871V119.739ZM47.2334 117.887C46.5088 117.887 45.8571 117.745 45.2783 117.463C44.6995 117.176 44.2529 116.779 43.9385 116.273C43.624 115.763 43.4668 115.182 43.4668 114.53C43.4668 113.523 43.8154 112.71 44.5127 112.09C45.21 111.465 46.1374 111.153 47.2949 111.153H47.3838C48.1038 111.153 48.751 111.292 49.3252 111.57C49.8949 111.844 50.3392 112.238 50.6582 112.753C50.9772 113.263 51.1367 113.851 51.1367 114.517C51.1367 115.519 50.7881 116.333 50.0908 116.957C49.3936 117.577 48.4707 117.887 47.3223 117.887H47.2334ZM47.3838 116.615C48.2041 116.615 48.8626 116.426 49.3594 116.048C49.8561 115.665 50.1045 115.155 50.1045 114.517C50.1045 113.874 49.8538 113.364 49.3525 112.985C48.8467 112.607 48.1403 112.418 47.2334 112.418C46.4222 112.418 45.766 112.612 45.2646 112.999C44.7588 113.382 44.5059 113.892 44.5059 114.53C44.5059 115.155 44.7542 115.658 45.251 116.041C45.7477 116.424 46.4587 116.615 47.3838 116.615ZM51 109.451H43.6035V106.566C43.6035 105.582 43.7767 104.828 44.123 104.304C44.4648 103.775 44.9684 103.511 45.6338 103.511C45.9756 103.511 46.2855 103.613 46.5635 103.818C46.8369 104.023 47.0465 104.326 47.1924 104.728C47.2972 104.281 47.5023 103.923 47.8076 103.654C48.113 103.381 48.4775 103.244 48.9014 103.244C49.5804 103.244 50.0999 103.495 50.46 103.996C50.82 104.493 51 105.197 51 106.108V109.451ZM47.7529 108.187H49.9814V106.095C49.9814 105.566 49.8835 105.172 49.6875 104.912C49.4915 104.648 49.2158 104.516 48.8604 104.516C48.1221 104.516 47.7529 105.058 47.7529 106.143V108.187ZM46.7412 108.187V106.553C46.7412 105.368 46.3949 104.775 45.7021 104.775C45.0094 104.775 44.6517 105.336 44.6289 106.457V108.187H46.7412ZM43.6035 96.7842V95.5195H51V96.7842H45.6064L51 100.195V101.46H43.6035V100.195H49.0039L43.6035 96.7842ZM51 87.4463V88.7109H47.8418V92.1084H51V93.3799H43.6035V92.1084H46.8096V88.7109H43.6035V87.4463H51ZM44.6494 80.6309L44.6494 84.042H51V85.3135H43.6035L43.6035 80.6309H44.6494ZM51.1367 76.5977C51.1367 77.6003 50.8086 78.416 50.1523 79.0449C49.4915 79.6738 48.6097 79.9883 47.5068 79.9883H47.2744C46.5407 79.9883 45.8867 79.8493 45.3125 79.5713C44.7337 79.2887 44.2826 78.8968 43.959 78.3955C43.6309 77.8896 43.4668 77.3428 43.4668 76.7549C43.4668 75.7933 43.7835 75.0459 44.417 74.5127C45.0505 73.9795 45.9574 73.7129 47.1377 73.7129H47.6641V78.7236C48.3932 78.7054 48.9834 78.4935 49.4346 78.0879C49.8812 77.6777 50.1045 77.1582 50.1045 76.5293C50.1045 76.0827 50.0133 75.7044 49.8311 75.3945C49.6488 75.0846 49.4072 74.8135 49.1064 74.5811L49.708 73.8086C50.6605 74.4284 51.1367 75.3581 51.1367 76.5977ZM44.5059 76.7549C44.5059 77.2653 44.6927 77.6937 45.0664 78.04C45.4355 78.3864 45.9551 78.6006 46.625 78.6826V74.9775H46.5293C45.8867 75.014 45.39 75.1872 45.0391 75.4971C44.6836 75.807 44.5059 76.2262 44.5059 76.7549ZM47.3838 65.9951C48.5094 65.9951 49.4163 66.2526 50.1045 66.7676C50.7926 67.2826 51.1367 67.9798 51.1367 68.8594C51.1367 69.7572 50.8519 70.4635 50.2822 70.9785H53.8438V72.2432H43.6035V71.0879L44.4238 71.0264C43.7858 70.5114 43.4668 69.7959 43.4668 68.8799C43.4668 67.9912 43.8018 67.2894 44.4717 66.7744C45.1416 66.2549 46.0736 65.9951 47.2676 65.9951H47.3838ZM47.2402 67.2598C46.4063 67.2598 45.7477 67.4375 45.2646 67.793C44.7816 68.1484 44.54 68.6361 44.54 69.2559C44.54 70.0215 44.8796 70.5957 45.5586 70.9785H49.0928C49.7673 70.6003 50.1045 70.0215 50.1045 69.2422C50.1045 68.6361 49.8652 68.1553 49.3867 67.7998C48.9036 67.4398 48.1882 67.2598 47.2402 67.2598ZM51 59.8154C50.8542 59.8883 50.5944 59.9476 50.2207 59.9932C50.8314 60.5811 51.1367 61.2829 51.1367 62.0986C51.1367 62.8278 50.9316 63.4271 50.5215 63.8965C50.1068 64.3613 49.5827 64.5938 48.9492 64.5938C48.179 64.5938 47.582 64.3021 47.1582 63.7188C46.7298 63.1309 46.5156 62.306 46.5156 61.2441V60.0137H45.9346C45.4925 60.0137 45.1416 60.1458 44.8818 60.4102C44.6175 60.6745 44.4854 61.0641 44.4854 61.5791C44.4854 62.0303 44.5993 62.4085 44.8271 62.7139C45.055 63.0192 45.3307 63.1719 45.6543 63.1719V64.4434C45.2852 64.4434 44.9297 64.3135 44.5879 64.0537C44.2415 63.7894 43.9681 63.4339 43.7676 62.9873C43.5671 62.5361 43.4668 62.0417 43.4668 61.5039C43.4668 60.6517 43.681 59.984 44.1094 59.501C44.5332 59.0179 45.1188 58.7673 45.8662 58.749H49.2705C49.9495 58.749 50.4896 58.6624 50.8906 58.4893H51V59.8154ZM50.0361 61.9141C50.0361 61.5176 49.9336 61.1416 49.7285 60.7861C49.5234 60.4307 49.2568 60.1732 48.9287 60.0137H47.4111V61.0049C47.4111 62.5544 47.8646 63.3291 48.7715 63.3291C49.168 63.3291 49.4779 63.1969 49.7012 62.9326C49.9245 62.6683 50.0361 62.3288 50.0361 61.9141Z" fill="#454545"></path> <path d="M77.3145 264.055V265.355C77.3145 266.055 77.252 266.645 77.127 267.125C77.002 267.605 76.8223 267.992 76.5879 268.285C76.3535 268.578 76.0703 268.791 75.7383 268.924C75.4102 269.053 75.0391 269.117 74.625 269.117C74.2969 269.117 73.9941 269.076 73.7168 268.994C73.4395 268.912 73.1895 268.781 72.9668 268.602C72.748 268.418 72.5605 268.18 72.4043 267.887C72.248 267.594 72.1289 267.238 72.0469 266.82C71.9648 266.402 71.9238 265.914 71.9238 265.355V264.055C71.9238 263.355 71.9863 262.77 72.1113 262.297C72.2402 261.824 72.4219 261.445 72.6562 261.16C72.8906 260.871 73.1719 260.664 73.5 260.539C73.832 260.414 74.2031 260.352 74.6133 260.352C74.9453 260.352 75.25 260.393 75.5273 260.475C75.8086 260.553 76.0586 260.68 76.2773 260.855C76.4961 261.027 76.6816 261.258 76.834 261.547C76.9902 261.832 77.1094 262.182 77.1914 262.596C77.2734 263.01 77.3145 263.496 77.3145 264.055ZM76.2246 265.531V263.873C76.2246 263.49 76.2012 263.154 76.1543 262.865C76.1113 262.572 76.0469 262.322 75.9609 262.115C75.875 261.908 75.7656 261.74 75.6328 261.611C75.5039 261.482 75.3535 261.389 75.1816 261.33C75.0137 261.268 74.8242 261.236 74.6133 261.236C74.3555 261.236 74.127 261.285 73.9277 261.383C73.7285 261.477 73.5605 261.627 73.4238 261.834C73.291 262.041 73.1895 262.312 73.1191 262.648C73.0488 262.984 73.0137 263.393 73.0137 263.873V265.531C73.0137 265.914 73.0352 266.252 73.0781 266.545C73.125 266.838 73.1934 267.092 73.2832 267.307C73.373 267.518 73.4824 267.691 73.6113 267.828C73.7402 267.965 73.8887 268.066 74.0566 268.133C74.2285 268.195 74.418 268.227 74.625 268.227C74.8906 268.227 75.123 268.176 75.3223 268.074C75.5215 267.973 75.6875 267.814 75.8203 267.6C75.957 267.381 76.0586 267.102 76.125 266.762C76.1914 266.418 76.2246 266.008 76.2246 265.531Z" fill="#454545"></path> <path d="M61.8984 304.928V305.818H59.0391V304.928H61.8984ZM68.1973 304.055V305.355C68.1973 306.055 68.1348 306.645 68.0098 307.125C67.8848 307.605 67.7051 307.992 67.4707 308.285C67.2363 308.578 66.9531 308.791 66.6211 308.924C66.293 309.053 65.9219 309.117 65.5078 309.117C65.1797 309.117 64.877 309.076 64.5996 308.994C64.3223 308.912 64.0723 308.781 63.8496 308.602C63.6309 308.418 63.4434 308.18 63.2871 307.887C63.1309 307.594 63.0117 307.238 62.9297 306.82C62.8477 306.402 62.8066 305.914 62.8066 305.355V304.055C62.8066 303.355 62.8691 302.77 62.9941 302.297C63.123 301.824 63.3047 301.445 63.5391 301.16C63.7734 300.871 64.0547 300.664 64.3828 300.539C64.7148 300.414 65.0859 300.352 65.4961 300.352C65.8281 300.352 66.1328 300.393 66.4102 300.475C66.6914 300.553 66.9414 300.68 67.1602 300.855C67.3789 301.027 67.5645 301.258 67.7168 301.547C67.873 301.832 67.9922 302.182 68.0742 302.596C68.1562 303.01 68.1973 303.496 68.1973 304.055ZM67.1074 305.531V303.873C67.1074 303.49 67.084 303.154 67.0371 302.865C66.9941 302.572 66.9297 302.322 66.8438 302.115C66.7578 301.908 66.6484 301.74 66.5156 301.611C66.3867 301.482 66.2363 301.389 66.0645 301.33C65.8965 301.268 65.707 301.236 65.4961 301.236C65.2383 301.236 65.0098 301.285 64.8105 301.383C64.6113 301.477 64.4434 301.627 64.3066 301.834C64.1738 302.041 64.0723 302.312 64.002 302.648C63.9316 302.984 63.8965 303.393 63.8965 303.873V305.531C63.8965 305.914 63.918 306.252 63.9609 306.545C64.0078 306.838 64.0762 307.092 64.166 307.307C64.2559 307.518 64.3652 307.691 64.4941 307.828C64.623 307.965 64.7715 308.066 64.9395 308.133C65.1113 308.195 65.3008 308.227 65.5078 308.227C65.7734 308.227 66.0059 308.176 66.2051 308.074C66.4043 307.973 66.5703 307.814 66.7031 307.6C66.8398 307.381 66.9414 307.102 67.0078 306.762C67.0742 306.418 67.1074 306.008 67.1074 305.531ZM70.6934 307.711V308.584C70.6934 308.939 70.6035 309.314 70.4238 309.709C70.2441 310.107 69.9922 310.439 69.668 310.705L69.0527 310.277C69.1777 310.105 69.2832 309.93 69.3691 309.75C69.4551 309.574 69.5195 309.391 69.5625 309.199C69.6094 309.012 69.6328 308.812 69.6328 308.602V307.711H70.6934ZM77.5488 308.109V309H71.9648V308.221L74.7598 305.109C75.1035 304.727 75.3691 304.402 75.5566 304.137C75.748 303.867 75.8809 303.627 75.9551 303.416C76.0332 303.201 76.0723 302.982 76.0723 302.76C76.0723 302.479 76.0137 302.225 75.8965 301.998C75.7832 301.768 75.6152 301.584 75.3926 301.447C75.1699 301.311 74.9004 301.242 74.584 301.242C74.2051 301.242 73.8887 301.316 73.6348 301.465C73.3848 301.609 73.1973 301.812 73.0723 302.074C72.9473 302.336 72.8848 302.637 72.8848 302.977H71.8008C71.8008 302.496 71.9062 302.057 72.1172 301.658C72.3281 301.26 72.6406 300.943 73.0547 300.709C73.4688 300.471 73.9785 300.352 74.584 300.352C75.123 300.352 75.584 300.447 75.9668 300.639C76.3496 300.826 76.6426 301.092 76.8457 301.436C77.0527 301.775 77.1562 302.174 77.1562 302.631C77.1562 302.881 77.1133 303.135 77.0273 303.393C76.9453 303.646 76.8301 303.9 76.6816 304.154C76.5371 304.408 76.3672 304.658 76.1719 304.904C75.9805 305.15 75.7754 305.393 75.5566 305.631L73.2715 308.109H77.5488Z" fill="#454545"></path> <path d="M68.1973 224.055V225.355C68.1973 226.055 68.1348 226.645 68.0098 227.125C67.8848 227.605 67.7051 227.992 67.4707 228.285C67.2363 228.578 66.9531 228.791 66.6211 228.924C66.293 229.053 65.9219 229.117 65.5078 229.117C65.1797 229.117 64.877 229.076 64.5996 228.994C64.3223 228.912 64.0723 228.781 63.8496 228.602C63.6309 228.418 63.4434 228.18 63.2871 227.887C63.1309 227.594 63.0117 227.238 62.9297 226.82C62.8477 226.402 62.8066 225.914 62.8066 225.355V224.055C62.8066 223.355 62.8691 222.77 62.9941 222.297C63.123 221.824 63.3047 221.445 63.5391 221.16C63.7734 220.871 64.0547 220.664 64.3828 220.539C64.7148 220.414 65.0859 220.352 65.4961 220.352C65.8281 220.352 66.1328 220.393 66.4102 220.475C66.6914 220.553 66.9414 220.68 67.1602 220.855C67.3789 221.027 67.5645 221.258 67.7168 221.547C67.873 221.832 67.9922 222.182 68.0742 222.596C68.1562 223.01 68.1973 223.496 68.1973 224.055ZM67.1074 225.531V223.873C67.1074 223.49 67.084 223.154 67.0371 222.865C66.9941 222.572 66.9297 222.322 66.8438 222.115C66.7578 221.908 66.6484 221.74 66.5156 221.611C66.3867 221.482 66.2363 221.389 66.0645 221.33C65.8965 221.268 65.707 221.236 65.4961 221.236C65.2383 221.236 65.0098 221.285 64.8105 221.383C64.6113 221.477 64.4434 221.627 64.3066 221.834C64.1738 222.041 64.0723 222.312 64.002 222.648C63.9316 222.984 63.8965 223.393 63.8965 223.873V225.531C63.8965 225.914 63.918 226.252 63.9609 226.545C64.0078 226.838 64.0762 227.092 64.166 227.307C64.2559 227.518 64.3652 227.691 64.4941 227.828C64.623 227.965 64.7715 228.066 64.9395 228.133C65.1113 228.195 65.3008 228.227 65.5078 228.227C65.7734 228.227 66.0059 228.176 66.2051 228.074C66.4043 227.973 66.5703 227.814 66.7031 227.6C66.8398 227.381 66.9414 227.102 67.0078 226.762C67.0742 226.418 67.1074 226.008 67.1074 225.531ZM70.6934 227.711V228.584C70.6934 228.939 70.6035 229.314 70.4238 229.709C70.2441 230.107 69.9922 230.439 69.668 230.705L69.0527 230.277C69.1777 230.105 69.2832 229.93 69.3691 229.75C69.4551 229.574 69.5195 229.391 69.5625 229.199C69.6094 229.012 69.6328 228.812 69.6328 228.602V227.711H70.6934ZM77.5488 228.109V229H71.9648V228.221L74.7598 225.109C75.1035 224.727 75.3691 224.402 75.5566 224.137C75.748 223.867 75.8809 223.627 75.9551 223.416C76.0332 223.201 76.0723 222.982 76.0723 222.76C76.0723 222.479 76.0137 222.225 75.8965 221.998C75.7832 221.768 75.6152 221.584 75.3926 221.447C75.1699 221.311 74.9004 221.242 74.584 221.242C74.2051 221.242 73.8887 221.316 73.6348 221.465C73.3848 221.609 73.1973 221.812 73.0723 222.074C72.9473 222.336 72.8848 222.637 72.8848 222.977H71.8008C71.8008 222.496 71.9062 222.057 72.1172 221.658C72.3281 221.26 72.6406 220.943 73.0547 220.709C73.4688 220.471 73.9785 220.352 74.584 220.352C75.123 220.352 75.584 220.447 75.9668 220.639C76.3496 220.826 76.6426 221.092 76.8457 221.436C77.0527 221.775 77.1562 222.174 77.1562 222.631C77.1562 222.881 77.1133 223.135 77.0273 223.393C76.9453 223.646 76.8301 223.9 76.6816 224.154C76.5371 224.408 76.3672 224.658 76.1719 224.904C75.9805 225.15 75.7754 225.393 75.5566 225.631L73.2715 228.109H77.5488Z" fill="#454545"></path> <path d="M68.1973 184.055V185.355C68.1973 186.055 68.1348 186.645 68.0098 187.125C67.8848 187.605 67.7051 187.992 67.4707 188.285C67.2363 188.578 66.9531 188.791 66.6211 188.924C66.293 189.053 65.9219 189.117 65.5078 189.117C65.1797 189.117 64.877 189.076 64.5996 188.994C64.3223 188.912 64.0723 188.781 63.8496 188.602C63.6309 188.418 63.4434 188.18 63.2871 187.887C63.1309 187.594 63.0117 187.238 62.9297 186.82C62.8477 186.402 62.8066 185.914 62.8066 185.355V184.055C62.8066 183.355 62.8691 182.77 62.9941 182.297C63.123 181.824 63.3047 181.445 63.5391 181.16C63.7734 180.871 64.0547 180.664 64.3828 180.539C64.7148 180.414 65.0859 180.352 65.4961 180.352C65.8281 180.352 66.1328 180.393 66.4102 180.475C66.6914 180.553 66.9414 180.68 67.1602 180.855C67.3789 181.027 67.5645 181.258 67.7168 181.547C67.873 181.832 67.9922 182.182 68.0742 182.596C68.1562 183.01 68.1973 183.496 68.1973 184.055ZM67.1074 185.531V183.873C67.1074 183.49 67.084 183.154 67.0371 182.865C66.9941 182.572 66.9297 182.322 66.8438 182.115C66.7578 181.908 66.6484 181.74 66.5156 181.611C66.3867 181.482 66.2363 181.389 66.0645 181.33C65.8965 181.268 65.707 181.236 65.4961 181.236C65.2383 181.236 65.0098 181.285 64.8105 181.383C64.6113 181.477 64.4434 181.627 64.3066 181.834C64.1738 182.041 64.0723 182.312 64.002 182.648C63.9316 182.984 63.8965 183.393 63.8965 183.873V185.531C63.8965 185.914 63.918 186.252 63.9609 186.545C64.0078 186.838 64.0762 187.092 64.166 187.307C64.2559 187.518 64.3652 187.691 64.4941 187.828C64.623 187.965 64.7715 188.066 64.9395 188.133C65.1113 188.195 65.3008 188.227 65.5078 188.227C65.7734 188.227 66.0059 188.176 66.2051 188.074C66.4043 187.973 66.5703 187.814 66.7031 187.6C66.8398 187.381 66.9414 187.102 67.0078 186.762C67.0742 186.418 67.1074 186.008 67.1074 185.531ZM70.6934 187.711V188.584C70.6934 188.939 70.6035 189.314 70.4238 189.709C70.2441 190.107 69.9922 190.439 69.668 190.705L69.0527 190.277C69.1777 190.105 69.2832 189.93 69.3691 189.75C69.4551 189.574 69.5195 189.391 69.5625 189.199C69.6094 189.012 69.6328 188.812 69.6328 188.602V187.711H70.6934ZM77.7246 186.129V187.02H71.5605V186.381L75.3809 180.469H76.2656L75.3164 182.18L72.791 186.129H77.7246ZM76.5352 180.469V189H75.4512V180.469H76.5352Z" fill="#454545"></path> <path d="M68.1973 144.055V145.355C68.1973 146.055 68.1348 146.645 68.0098 147.125C67.8848 147.605 67.7051 147.992 67.4707 148.285C67.2363 148.578 66.9531 148.791 66.6211 148.924C66.293 149.053 65.9219 149.117 65.5078 149.117C65.1797 149.117 64.877 149.076 64.5996 148.994C64.3223 148.912 64.0723 148.781 63.8496 148.602C63.6309 148.418 63.4434 148.18 63.2871 147.887C63.1309 147.594 63.0117 147.238 62.9297 146.82C62.8477 146.402 62.8066 145.914 62.8066 145.355V144.055C62.8066 143.355 62.8691 142.77 62.9941 142.297C63.1231 141.824 63.3047 141.445 63.5391 141.16C63.7734 140.871 64.0547 140.664 64.3828 140.539C64.7148 140.414 65.0859 140.352 65.4961 140.352C65.8281 140.352 66.1328 140.393 66.4102 140.475C66.6914 140.553 66.9414 140.68 67.1602 140.855C67.3789 141.027 67.5645 141.258 67.7168 141.547C67.8731 141.832 67.9922 142.182 68.0742 142.596C68.1563 143.01 68.1973 143.496 68.1973 144.055ZM67.1074 145.531V143.873C67.1074 143.49 67.084 143.154 67.0371 142.865C66.9941 142.572 66.9297 142.322 66.8438 142.115C66.7578 141.908 66.6484 141.74 66.5156 141.611C66.3867 141.482 66.2363 141.389 66.0645 141.33C65.8965 141.268 65.707 141.236 65.4961 141.236C65.2383 141.236 65.0098 141.285 64.8106 141.383C64.6113 141.477 64.4434 141.627 64.3066 141.834C64.1738 142.041 64.0723 142.312 64.002 142.648C63.9316 142.984 63.8965 143.393 63.8965 143.873V145.531C63.8965 145.914 63.918 146.252 63.9609 146.545C64.0078 146.838 64.0762 147.092 64.166 147.307C64.2559 147.518 64.3652 147.691 64.4941 147.828C64.6231 147.965 64.7715 148.066 64.9395 148.133C65.1113 148.195 65.3008 148.227 65.5078 148.227C65.7734 148.227 66.0059 148.176 66.2051 148.074C66.4043 147.973 66.5703 147.814 66.7031 147.6C66.8398 147.381 66.9414 147.102 67.0078 146.762C67.0742 146.418 67.1074 146.008 67.1074 145.531ZM70.6934 147.711V148.584C70.6934 148.939 70.6035 149.314 70.4238 149.709C70.2441 150.107 69.9922 150.439 69.668 150.705L69.0527 150.277C69.1777 150.105 69.2832 149.93 69.3691 149.75C69.4551 149.574 69.5195 149.391 69.5625 149.199C69.6094 149.012 69.6328 148.812 69.6328 148.602V147.711H70.6934ZM76.1191 140.457H76.2129V141.377H76.1191C75.5449 141.377 75.0645 141.471 74.6777 141.658C74.291 141.842 73.9844 142.09 73.7578 142.402C73.5313 142.711 73.3672 143.059 73.2656 143.445C73.168 143.832 73.1191 144.225 73.1191 144.623V145.877C73.1191 146.256 73.1641 146.592 73.2539 146.885C73.3438 147.174 73.4668 147.418 73.6231 147.617C73.7793 147.816 73.9551 147.967 74.1504 148.068C74.3496 148.17 74.5566 148.221 74.7715 148.221C75.0215 148.221 75.2441 148.174 75.4395 148.08C75.6348 147.982 75.7988 147.848 75.9316 147.676C76.0684 147.5 76.1719 147.293 76.2422 147.055C76.3125 146.816 76.3477 146.555 76.3477 146.27C76.3477 146.016 76.3164 145.771 76.2539 145.537C76.1914 145.299 76.0957 145.088 75.9668 144.904C75.8379 144.717 75.6758 144.57 75.4805 144.465C75.2891 144.355 75.0606 144.301 74.7949 144.301C74.4941 144.301 74.2129 144.375 73.9512 144.523C73.6934 144.668 73.4805 144.859 73.3125 145.098C73.1484 145.332 73.0547 145.588 73.0313 145.865L72.457 145.859C72.5117 145.422 72.6133 145.049 72.7617 144.74C72.9141 144.428 73.1016 144.174 73.3242 143.979C73.5508 143.779 73.8027 143.635 74.0801 143.545C74.3613 143.451 74.6582 143.404 74.9707 143.404C75.3965 143.404 75.7637 143.484 76.0723 143.645C76.3809 143.805 76.6348 144.02 76.834 144.289C77.0332 144.555 77.1797 144.855 77.2734 145.191C77.3711 145.523 77.4199 145.865 77.4199 146.217C77.4199 146.619 77.3633 146.996 77.25 147.348C77.1367 147.699 76.9668 148.008 76.7402 148.273C76.5176 148.539 76.2422 148.746 75.9141 148.895C75.5859 149.043 75.2051 149.117 74.7715 149.117C74.3106 149.117 73.9082 149.023 73.5645 148.836C73.2207 148.645 72.9356 148.391 72.709 148.074C72.4824 147.758 72.3125 147.406 72.1992 147.02C72.0859 146.633 72.0293 146.24 72.0293 145.842V145.332C72.0293 144.73 72.0898 144.141 72.2109 143.562C72.332 142.984 72.541 142.461 72.8379 141.992C73.1387 141.523 73.5547 141.15 74.0859 140.873C74.6172 140.596 75.2949 140.457 76.1191 140.457Z" fill="#454545"></path> <path d="M68.1973 105.055V106.355C68.1973 107.055 68.1348 107.645 68.0098 108.125C67.8848 108.605 67.7051 108.992 67.4707 109.285C67.2363 109.578 66.9531 109.791 66.6211 109.924C66.293 110.053 65.9219 110.117 65.5078 110.117C65.1797 110.117 64.877 110.076 64.5996 109.994C64.3223 109.912 64.0723 109.781 63.8496 109.602C63.6309 109.418 63.4434 109.18 63.2871 108.887C63.1309 108.594 63.0117 108.238 62.9297 107.82C62.8477 107.402 62.8066 106.914 62.8066 106.355V105.055C62.8066 104.355 62.8691 103.77 62.9941 103.297C63.1231 102.824 63.3047 102.445 63.5391 102.16C63.7734 101.871 64.0547 101.664 64.3828 101.539C64.7148 101.414 65.0859 101.352 65.4961 101.352C65.8281 101.352 66.1328 101.393 66.4102 101.475C66.6914 101.553 66.9414 101.68 67.1602 101.855C67.3789 102.027 67.5645 102.258 67.7168 102.547C67.8731 102.832 67.9922 103.182 68.0742 103.596C68.1563 104.01 68.1973 104.496 68.1973 105.055ZM67.1074 106.531V104.873C67.1074 104.49 67.084 104.154 67.0371 103.865C66.9941 103.572 66.9297 103.322 66.8438 103.115C66.7578 102.908 66.6484 102.74 66.5156 102.611C66.3867 102.482 66.2363 102.389 66.0645 102.33C65.8965 102.268 65.707 102.236 65.4961 102.236C65.2383 102.236 65.0098 102.285 64.8106 102.383C64.6113 102.477 64.4434 102.627 64.3066 102.834C64.1738 103.041 64.0723 103.312 64.002 103.648C63.9316 103.984 63.8965 104.393 63.8965 104.873V106.531C63.8965 106.914 63.918 107.252 63.9609 107.545C64.0078 107.838 64.0762 108.092 64.166 108.307C64.2559 108.518 64.3652 108.691 64.4941 108.828C64.6231 108.965 64.7715 109.066 64.9395 109.133C65.1113 109.195 65.3008 109.227 65.5078 109.227C65.7734 109.227 66.0059 109.176 66.2051 109.074C66.4043 108.973 66.5703 108.814 66.7031 108.6C66.8398 108.381 66.9414 108.102 67.0078 107.762C67.0742 107.418 67.1074 107.008 67.1074 106.531ZM70.6934 108.711V109.584C70.6934 109.939 70.6035 110.314 70.4238 110.709C70.2441 111.107 69.9922 111.439 69.668 111.705L69.0527 111.277C69.1777 111.105 69.2832 110.93 69.3691 110.75C69.4551 110.574 69.5195 110.391 69.5625 110.199C69.6094 110.012 69.6328 109.812 69.6328 109.602V108.711H70.6934ZM77.3379 107.691C77.3379 108.211 77.2168 108.652 76.9746 109.016C76.7363 109.375 76.4121 109.648 76.002 109.836C75.5957 110.023 75.1367 110.117 74.625 110.117C74.1133 110.117 73.6523 110.023 73.2422 109.836C72.832 109.648 72.5078 109.375 72.2695 109.016C72.0313 108.652 71.9121 108.211 71.9121 107.691C71.9121 107.352 71.9766 107.041 72.1055 106.76C72.2383 106.475 72.4238 106.227 72.6621 106.016C72.9043 105.805 73.1895 105.643 73.5176 105.529C73.8496 105.412 74.2148 105.354 74.6133 105.354C75.1367 105.354 75.6035 105.455 76.0137 105.658C76.4238 105.857 76.7461 106.133 76.9805 106.484C77.2188 106.836 77.3379 107.238 77.3379 107.691ZM76.2481 107.668C76.2481 107.352 76.1797 107.072 76.043 106.83C75.9063 106.584 75.7148 106.393 75.4688 106.256C75.2227 106.119 74.9375 106.051 74.6133 106.051C74.2813 106.051 73.9941 106.119 73.752 106.256C73.5137 106.393 73.3281 106.584 73.1953 106.83C73.0625 107.072 72.9961 107.352 72.9961 107.668C72.9961 107.996 73.0606 108.277 73.1895 108.512C73.3223 108.742 73.5098 108.92 73.752 109.045C73.9981 109.166 74.2891 109.227 74.625 109.227C74.9609 109.227 75.25 109.166 75.4922 109.045C75.7344 108.92 75.9199 108.742 76.0488 108.512C76.1816 108.277 76.2481 107.996 76.2481 107.668ZM77.1387 103.689C77.1387 104.104 77.0293 104.477 76.8106 104.809C76.5918 105.141 76.293 105.402 75.9141 105.594C75.5352 105.785 75.1055 105.881 74.625 105.881C74.1367 105.881 73.7012 105.785 73.3184 105.594C72.9395 105.402 72.6426 105.141 72.4277 104.809C72.2129 104.477 72.1055 104.104 72.1055 103.689C72.1055 103.193 72.2129 102.771 72.4277 102.424C72.6465 102.076 72.9453 101.811 73.3242 101.627C73.7031 101.443 74.1348 101.352 74.6191 101.352C75.1074 101.352 75.541 101.443 75.9199 101.627C76.2988 101.811 76.5957 102.076 76.8106 102.424C77.0293 102.771 77.1387 103.193 77.1387 103.689ZM76.0547 103.707C76.0547 103.422 75.9941 103.17 75.8731 102.951C75.752 102.732 75.584 102.561 75.3691 102.436C75.1543 102.307 74.9043 102.242 74.6191 102.242C74.334 102.242 74.084 102.303 73.8691 102.424C73.6582 102.541 73.4922 102.709 73.3711 102.928C73.2539 103.146 73.1953 103.406 73.1953 103.707C73.1953 104 73.2539 104.256 73.3711 104.475C73.4922 104.693 73.6602 104.863 73.875 104.984C74.0898 105.105 74.3398 105.166 74.625 105.166C74.9102 105.166 75.1582 105.105 75.3691 104.984C75.584 104.863 75.752 104.693 75.8731 104.475C75.9941 104.256 76.0547 104 76.0547 103.707Z" fill="#454545"></path> <path d="M66.4043 60.4219V69H65.3203V61.7754L63.1348 62.5723V61.5938L66.2344 60.4219H66.4043ZM70.6934 67.7109V68.584C70.6934 68.9395 70.6035 69.3145 70.4238 69.709C70.2441 70.1074 69.9922 70.4395 69.668 70.7051L69.0527 70.2773C69.1777 70.1055 69.2832 69.9297 69.3691 69.75C69.4551 69.5742 69.5195 69.3906 69.5625 69.1992C69.6094 69.0117 69.6328 68.8125 69.6328 68.6016V67.7109H70.6934ZM77.3145 64.0547V65.3555C77.3145 66.0547 77.252 66.6445 77.127 67.125C77.002 67.6055 76.8223 67.9922 76.5879 68.2852C76.3535 68.5781 76.0703 68.791 75.7383 68.9238C75.4102 69.0527 75.0391 69.1172 74.625 69.1172C74.2969 69.1172 73.9941 69.0762 73.7168 68.9941C73.4395 68.9121 73.1895 68.7812 72.9668 68.6016C72.7481 68.418 72.5606 68.1797 72.4043 67.8867C72.2481 67.5938 72.1289 67.2383 72.0469 66.8203C71.9648 66.4023 71.9238 65.9141 71.9238 65.3555V64.0547C71.9238 63.3555 71.9863 62.7695 72.1113 62.2969C72.2402 61.8242 72.4219 61.4453 72.6563 61.1602C72.8906 60.8711 73.1719 60.6641 73.5 60.5391C73.832 60.4141 74.2031 60.3516 74.6133 60.3516C74.9453 60.3516 75.25 60.3926 75.5273 60.4746C75.8086 60.5527 76.0586 60.6797 76.2773 60.8555C76.4961 61.0273 76.6816 61.2578 76.834 61.5469C76.9902 61.832 77.1094 62.1816 77.1914 62.5957C77.2734 63.0098 77.3145 63.4961 77.3145 64.0547ZM76.2246 65.5312V63.873C76.2246 63.4902 76.2012 63.1543 76.1543 62.8652C76.1113 62.5723 76.0469 62.3223 75.9609 62.1152C75.875 61.9082 75.7656 61.7402 75.6328 61.6113C75.5039 61.4824 75.3535 61.3887 75.1816 61.3301C75.0137 61.2676 74.8242 61.2363 74.6133 61.2363C74.3555 61.2363 74.127 61.2852 73.9277 61.3828C73.7285 61.4766 73.5606 61.627 73.4238 61.834C73.291 62.041 73.1895 62.3125 73.1191 62.6484C73.0488 62.9844 73.0137 63.3926 73.0137 63.873V65.5312C73.0137 65.9141 73.0352 66.252 73.0781 66.5449C73.125 66.8379 73.1934 67.0918 73.2832 67.3066C73.3731 67.5176 73.4824 67.6914 73.6113 67.8281C73.7402 67.9648 73.8887 68.0664 74.0566 68.1328C74.2285 68.1953 74.418 68.2266 74.625 68.2266C74.8906 68.2266 75.1231 68.1758 75.3223 68.0742C75.5215 67.9727 75.6875 67.8145 75.8203 67.5996C75.957 67.3809 76.0586 67.1016 76.125 66.7617C76.1914 66.418 76.2246 66.0078 76.2246 65.5312Z" fill="#454545"></path> <line x1="80" y1="265" x2="87" y2="265" stroke="#A6A6A6" stroke-opacity="0.26" stroke-width="2"></line> <line x1="79" y1="305" x2="86" y2="305" stroke="#A6A6A6" stroke-opacity="0.26" stroke-width="2"></line> <line x1="80" y1="225" x2="87" y2="225" stroke="#A6A6A6" stroke-opacity="0.26" stroke-width="2"></line> <line x1="80" y1="185" x2="87" y2="185" stroke="#A6A6A6" stroke-opacity="0.26" stroke-width="2"></line> <line x1="80" y1="145" x2="87" y2="145" stroke="#A6A6A6" stroke-opacity="0.26" stroke-width="2"></line> <line x1="79" y1="105" x2="86" y2="105" stroke="#A6A6A6" stroke-opacity="0.26" stroke-width="2"></line> <line x1="79" y1="65" x2="86" y2="65" stroke="#A6A6A6" stroke-opacity="0.26" stroke-width="2"></line> <line x1="87" y1="50.0038" x2="86" y2="315.004" stroke="#A6A6A6" stroke-opacity="0.26" stroke-width="2"></line> <line x1="87" y1="265" x2="655" y2="265" stroke="#A6A6A6" stroke-opacity="0.26" stroke-width="2"></line> <path d="M351 245H256C253.791 245 252 246.791 252 249L252 260C252 262.209 253.791 264 256 264H351C353.209 264 355 262.209 355 260L355 249C355 246.791 353.209 245 351 245Z" fill="#D09CC7"></path> <path d="M387 305L483 305C485.209 305 487 303.209 487 301L487 270C487 267.791 485.209 266 483 266L387 266C384.791 266 383 267.791 383 270L383 301C383 303.209 384.791 305 387 305Z" fill="#D09CC7"></path> <path d="M519 275L615 275C617.209 275 619 273.209 619 271L619 270C619 267.791 617.209 266 615 266L519 266C516.791 266 515 267.791 515 270L515 271C515 273.209 516.791 275 519 275Z" fill="#D09CC7"></path> <path d="M123 264L220 264C222.209 264 224 262.209 224 260L224 77C224 74.7909 222.209 73 220 73L123 73C120.791 73 119 74.7909 119 77L119 260C119 262.209 120.791 264 123 264Z" fill="#6FC4E2"></path> <path d="M259.711 197.529H258.501V202H257.188V192.047H258.501V196.436H259.526L263.006 192.047H264.64L260.839 196.873L264.92 202H263.313L259.711 197.529ZM265.398 198.233C265.398 197.509 265.54 196.857 265.822 196.278C266.109 195.7 266.506 195.253 267.012 194.938C267.522 194.624 268.103 194.467 268.755 194.467C269.762 194.467 270.576 194.815 271.195 195.513C271.82 196.21 272.132 197.137 272.132 198.295V198.384C272.132 199.104 271.993 199.751 271.715 200.325C271.441 200.895 271.047 201.339 270.532 201.658C270.022 201.977 269.434 202.137 268.769 202.137C267.766 202.137 266.952 201.788 266.328 201.091C265.708 200.394 265.398 199.471 265.398 198.322V198.233ZM266.67 198.384C266.67 199.204 266.859 199.863 267.237 200.359C267.62 200.856 268.131 201.104 268.769 201.104C269.411 201.104 269.922 200.854 270.3 200.353C270.678 199.847 270.867 199.14 270.867 198.233C270.867 197.422 270.674 196.766 270.286 196.265C269.903 195.759 269.393 195.506 268.755 195.506C268.131 195.506 267.627 195.754 267.244 196.251C266.861 196.748 266.67 197.459 266.67 198.384ZM279.761 202H278.496V198.842H275.099V202H273.827V194.604H275.099V197.81H278.496V194.604H279.761V202ZM287.294 195.629H284.812V202H283.548V195.629H281.114V194.604H287.294V195.629ZM294.772 198.384C294.772 199.509 294.515 200.416 294 201.104C293.485 201.793 292.788 202.137 291.908 202.137C291.01 202.137 290.304 201.852 289.789 201.282V204.844H288.524V194.604H289.68L289.741 195.424C290.256 194.786 290.972 194.467 291.888 194.467C292.776 194.467 293.478 194.802 293.993 195.472C294.513 196.142 294.772 197.074 294.772 198.268V198.384ZM293.508 198.24C293.508 197.406 293.33 196.748 292.975 196.265C292.619 195.782 292.132 195.54 291.512 195.54C290.746 195.54 290.172 195.88 289.789 196.559V200.093C290.167 200.767 290.746 201.104 291.525 201.104C292.132 201.104 292.612 200.865 292.968 200.387C293.328 199.904 293.508 199.188 293.508 198.24ZM296.051 198.233C296.051 197.509 296.192 196.857 296.475 196.278C296.762 195.7 297.158 195.253 297.664 194.938C298.174 194.624 298.756 194.467 299.407 194.467C300.414 194.467 301.228 194.815 301.848 195.513C302.472 196.21 302.784 197.137 302.784 198.295V198.384C302.784 199.104 302.645 199.751 302.367 200.325C302.094 200.895 301.7 201.339 301.185 201.658C300.674 201.977 300.086 202.137 299.421 202.137C298.418 202.137 297.605 201.788 296.98 201.091C296.361 200.394 296.051 199.471 296.051 198.322V198.233ZM297.322 198.384C297.322 199.204 297.511 199.863 297.89 200.359C298.272 200.856 298.783 201.104 299.421 201.104C300.063 201.104 300.574 200.854 300.952 200.353C301.33 199.847 301.52 199.14 301.52 198.233C301.52 197.422 301.326 196.766 300.938 196.265C300.556 195.759 300.045 195.506 299.407 195.506C298.783 195.506 298.279 195.754 297.896 196.251C297.514 196.748 297.322 197.459 297.322 198.384ZM310.324 194.604V202H309.053V195.649H306.537L306.387 198.418C306.305 199.689 306.09 200.599 305.744 201.146C305.402 201.692 304.858 201.977 304.11 202H303.604V200.886L303.967 200.858C304.377 200.813 304.671 200.576 304.849 200.147C305.026 199.719 305.14 198.926 305.19 197.769L305.327 194.604H310.324ZM313.735 197.153H315.656C316.495 197.162 317.158 197.381 317.646 197.81C318.133 198.238 318.377 198.819 318.377 199.553C318.377 200.291 318.126 200.883 317.625 201.33C317.124 201.777 316.449 202 315.602 202H312.471V194.604H313.735V197.153ZM313.735 198.186V200.968H315.615C316.089 200.968 316.456 200.847 316.716 200.605C316.976 200.359 317.105 200.024 317.105 199.601C317.105 199.19 316.978 198.855 316.723 198.596C316.472 198.331 316.119 198.195 315.663 198.186H313.735ZM325.999 202H324.734V198.842H321.337V202H320.065V194.604H321.337V197.81H324.734V194.604H325.999V202ZM329.417 197.153H331.338C332.176 197.162 332.84 197.381 333.327 197.81C333.815 198.238 334.059 198.819 334.059 199.553C334.059 200.291 333.808 200.883 333.307 201.33C332.805 201.777 332.131 202 331.283 202H328.152V194.604H329.417V197.153ZM336.697 202H335.426V194.604H336.697V202ZM329.417 198.186V200.968H331.297C331.771 200.968 332.138 200.847 332.397 200.605C332.657 200.359 332.787 200.024 332.787 199.601C332.787 199.19 332.66 198.855 332.404 198.596C332.154 198.331 331.8 198.195 331.345 198.186H329.417ZM343.69 194.604H344.955V202H343.69V196.606L340.279 202H339.015V194.604H340.279V200.004L343.69 194.604ZM344.032 191.91C344.032 192.462 343.843 192.906 343.465 193.243C343.091 193.576 342.599 193.742 341.988 193.742C341.378 193.742 340.883 193.574 340.505 193.236C340.127 192.899 339.938 192.457 339.938 191.91H340.97C340.97 192.229 341.056 192.48 341.229 192.662C341.403 192.84 341.656 192.929 341.988 192.929C342.307 192.929 342.556 192.84 342.733 192.662C342.916 192.484 343.007 192.234 343.007 191.91H344.032ZM263.512 216.147L265.234 210.604H266.588L263.614 219.142C263.154 220.372 262.423 220.987 261.42 220.987L261.181 220.967L260.709 220.878V219.853L261.051 219.88C261.479 219.88 261.812 219.793 262.049 219.62C262.29 219.447 262.489 219.13 262.644 218.67L262.924 217.918L260.285 210.604H261.666L263.512 216.147ZM273.766 218H272.501V214.842H269.104V218H267.832V210.604H269.104V213.81H272.501V210.604H273.766V218ZM280.588 210.604H281.853V218H280.588V212.606L277.177 218H275.912V210.604H277.177V216.004L280.588 210.604ZM283.999 218V210.604H286.884C287.868 210.604 288.622 210.777 289.146 211.123C289.675 211.465 289.939 211.968 289.939 212.634C289.939 212.976 289.837 213.285 289.632 213.563C289.427 213.837 289.124 214.047 288.723 214.192C289.169 214.297 289.527 214.502 289.796 214.808C290.069 215.113 290.206 215.478 290.206 215.901C290.206 216.58 289.955 217.1 289.454 217.46C288.957 217.82 288.253 218 287.342 218H283.999ZM285.264 214.753V216.981H287.355C287.884 216.981 288.278 216.883 288.538 216.688C288.802 216.492 288.935 216.216 288.935 215.86C288.935 215.122 288.392 214.753 287.308 214.753H285.264ZM285.264 213.741H286.897C288.082 213.741 288.675 213.395 288.675 212.702C288.675 212.009 288.114 211.652 286.993 211.629H285.264V213.741ZM294.95 218.137C293.948 218.137 293.132 217.809 292.503 217.152C291.874 216.492 291.56 215.61 291.56 214.507V214.274C291.56 213.541 291.699 212.887 291.977 212.312C292.259 211.734 292.651 211.283 293.152 210.959C293.658 210.631 294.205 210.467 294.793 210.467C295.755 210.467 296.502 210.784 297.035 211.417C297.568 212.05 297.835 212.957 297.835 214.138V214.664H292.824C292.842 215.393 293.054 215.983 293.46 216.435C293.87 216.881 294.39 217.104 295.019 217.104C295.465 217.104 295.843 217.013 296.153 216.831C296.463 216.649 296.734 216.407 296.967 216.106L297.739 216.708C297.119 217.66 296.19 218.137 294.95 218.137ZM294.793 211.506C294.283 211.506 293.854 211.693 293.508 212.066C293.161 212.436 292.947 212.955 292.865 213.625H296.57V213.529C296.534 212.887 296.361 212.39 296.051 212.039C295.741 211.684 295.322 211.506 294.793 211.506ZM305.553 214.384C305.553 215.509 305.295 216.416 304.78 217.104C304.265 217.793 303.568 218.137 302.688 218.137C301.791 218.137 301.084 217.852 300.569 217.282V220.844H299.305V210.604H300.46L300.521 211.424C301.036 210.786 301.752 210.467 302.668 210.467C303.557 210.467 304.258 210.802 304.773 211.472C305.293 212.142 305.553 213.074 305.553 214.268V214.384ZM304.288 214.24C304.288 213.406 304.11 212.748 303.755 212.265C303.399 211.782 302.912 211.54 302.292 211.54C301.526 211.54 300.952 211.88 300.569 212.559V216.093C300.948 216.767 301.526 217.104 302.306 217.104C302.912 217.104 303.393 216.865 303.748 216.387C304.108 215.904 304.288 215.188 304.288 214.24ZM310.133 217.104C310.584 217.104 310.978 216.968 311.315 216.694C311.653 216.421 311.84 216.079 311.876 215.669H313.072C313.049 216.093 312.904 216.496 312.635 216.879C312.366 217.262 312.006 217.567 311.555 217.795C311.108 218.023 310.634 218.137 310.133 218.137C309.126 218.137 308.324 217.802 307.727 217.132C307.134 216.457 306.838 215.537 306.838 214.37V214.158C306.838 213.438 306.97 212.798 307.234 212.237C307.499 211.677 307.877 211.242 308.369 210.932C308.866 210.622 309.451 210.467 310.126 210.467C310.955 210.467 311.644 210.715 312.19 211.212C312.742 211.709 313.036 212.354 313.072 213.146H311.876C311.84 212.668 311.657 212.276 311.329 211.971C311.006 211.661 310.604 211.506 310.126 211.506C309.483 211.506 308.984 211.738 308.629 212.203C308.278 212.663 308.103 213.331 308.103 214.206V214.445C308.103 215.298 308.278 215.954 308.629 216.414C308.98 216.874 309.481 217.104 310.133 217.104ZM319.279 210.604H320.544V218H319.279V212.606L315.868 218H314.604V210.604H315.868V216.004L319.279 210.604ZM328.07 211.629H325.589V218H324.324V211.629H321.891V210.604H328.07V211.629ZM331.823 218.137C330.821 218.137 330.005 217.809 329.376 217.152C328.747 216.492 328.433 215.61 328.433 214.507V214.274C328.433 213.541 328.572 212.887 328.85 212.312C329.132 211.734 329.524 211.283 330.025 210.959C330.531 210.631 331.078 210.467 331.666 210.467C332.628 210.467 333.375 210.784 333.908 211.417C334.441 212.05 334.708 212.957 334.708 214.138V214.664H329.697C329.715 215.393 329.927 215.983 330.333 216.435C330.743 216.881 331.263 217.104 331.892 217.104C332.338 217.104 332.716 217.013 333.026 216.831C333.336 216.649 333.607 216.407 333.84 216.106L334.612 216.708C333.993 217.66 333.063 218.137 331.823 218.137ZM331.666 211.506C331.156 211.506 330.727 211.693 330.381 212.066C330.035 212.436 329.82 212.955 329.738 213.625H333.443V213.529C333.407 212.887 333.234 212.39 332.924 212.039C332.614 211.684 332.195 211.506 331.666 211.506ZM341.592 211.629H339.11V218H337.846V211.629H335.412V210.604H341.592V211.629Z" fill="#4B4B4B"></path> <path d="M168.244 44.127H165.045V53H163.739V44.127H160.547V43.0469H168.244V44.127ZM171.416 43.0469L174.67 51.168L177.924 43.0469H179.626V53H178.313V49.124L178.437 44.9404L175.169 53L174.164 53L170.903 44.9609L171.033 49.124V53H169.721V43.0469L171.416 43.0469Z" fill="#4B4B4B"></path> <path d="M391.711 197.529H390.501V202H389.188V192.047H390.501V196.436H391.526L395.006 192.047H396.64L392.839 196.873L396.92 202H395.313L391.711 197.529ZM397.398 198.233C397.398 197.509 397.54 196.857 397.822 196.278C398.109 195.7 398.506 195.253 399.012 194.938C399.522 194.624 400.103 194.467 400.755 194.467C401.762 194.467 402.576 194.815 403.195 195.513C403.82 196.21 404.132 197.137 404.132 198.295V198.384C404.132 199.104 403.993 199.751 403.715 200.325C403.441 200.895 403.047 201.339 402.532 201.658C402.022 201.977 401.434 202.137 400.769 202.137C399.766 202.137 398.952 201.788 398.328 201.091C397.708 200.394 397.398 199.471 397.398 198.322V198.233ZM398.67 198.384C398.67 199.204 398.859 199.863 399.237 200.359C399.62 200.856 400.131 201.104 400.769 201.104C401.411 201.104 401.922 200.854 402.3 200.353C402.678 199.847 402.867 199.14 402.867 198.233C402.867 197.422 402.674 196.766 402.286 196.265C401.903 195.759 401.393 195.506 400.755 195.506C400.131 195.506 399.627 195.754 399.244 196.251C398.861 196.748 398.67 197.459 398.67 198.384ZM411.761 202H410.496V198.842H407.099V202H405.827V194.604H407.099V197.81H410.496V194.604H411.761V202ZM419.294 195.629H416.812V202H415.548V195.629H413.114V194.604H419.294V195.629ZM426.772 198.384C426.772 199.509 426.515 200.416 426 201.104C425.485 201.793 424.788 202.137 423.908 202.137C423.01 202.137 422.304 201.852 421.789 201.282V204.844H420.524V194.604H421.68L421.741 195.424C422.256 194.786 422.972 194.467 423.888 194.467C424.776 194.467 425.478 194.802 425.993 195.472C426.513 196.142 426.772 197.074 426.772 198.268V198.384ZM425.508 198.24C425.508 197.406 425.33 196.748 424.975 196.265C424.619 195.782 424.132 195.54 423.512 195.54C422.746 195.54 422.172 195.88 421.789 196.559V200.093C422.167 200.767 422.746 201.104 423.525 201.104C424.132 201.104 424.612 200.865 424.968 200.387C425.328 199.904 425.508 199.188 425.508 198.24ZM428.051 198.233C428.051 197.509 428.192 196.857 428.475 196.278C428.762 195.7 429.158 195.253 429.664 194.938C430.174 194.624 430.756 194.467 431.407 194.467C432.414 194.467 433.228 194.815 433.848 195.513C434.472 196.21 434.784 197.137 434.784 198.295V198.384C434.784 199.104 434.645 199.751 434.367 200.325C434.094 200.895 433.7 201.339 433.185 201.658C432.674 201.977 432.086 202.137 431.421 202.137C430.418 202.137 429.605 201.788 428.98 201.091C428.361 200.394 428.051 199.471 428.051 198.322V198.233ZM429.322 198.384C429.322 199.204 429.511 199.863 429.89 200.359C430.272 200.856 430.783 201.104 431.421 201.104C432.063 201.104 432.574 200.854 432.952 200.353C433.33 199.847 433.52 199.14 433.52 198.233C433.52 197.422 433.326 196.766 432.938 196.265C432.556 195.759 432.045 195.506 431.407 195.506C430.783 195.506 430.279 195.754 429.896 196.251C429.514 196.748 429.322 197.459 429.322 198.384ZM442.324 194.604V202H441.053V195.649H438.537L438.387 198.418C438.305 199.689 438.09 200.599 437.744 201.146C437.402 201.692 436.858 201.977 436.11 202H435.604V200.886L435.967 200.858C436.377 200.813 436.671 200.576 436.849 200.147C437.026 199.719 437.14 198.926 437.19 197.769L437.327 194.604H442.324ZM445.735 197.153H447.656C448.495 197.162 449.158 197.381 449.646 197.81C450.133 198.238 450.377 198.819 450.377 199.553C450.377 200.291 450.126 200.883 449.625 201.33C449.124 201.777 448.449 202 447.602 202H444.471V194.604H445.735V197.153ZM445.735 198.186V200.968H447.615C448.089 200.968 448.456 200.847 448.716 200.605C448.976 200.359 449.105 200.024 449.105 199.601C449.105 199.19 448.978 198.855 448.723 198.596C448.472 198.331 448.119 198.195 447.663 198.186H445.735ZM457.999 202H456.734V198.842H453.337V202H452.065V194.604H453.337V197.81H456.734V194.604H457.999V202ZM461.417 197.153H463.338C464.176 197.162 464.84 197.381 465.327 197.81C465.815 198.238 466.059 198.819 466.059 199.553C466.059 200.291 465.808 200.883 465.307 201.33C464.805 201.777 464.131 202 463.283 202H460.152V194.604H461.417V197.153ZM468.697 202H467.426V194.604H468.697V202ZM461.417 198.186V200.968H463.297C463.771 200.968 464.138 200.847 464.397 200.605C464.657 200.359 464.787 200.024 464.787 199.601C464.787 199.19 464.66 198.855 464.404 198.596C464.154 198.331 463.8 198.195 463.345 198.186H461.417ZM475.69 194.604H476.955V202H475.69V196.606L472.279 202H471.015V194.604H472.279V200.004L475.69 194.604ZM476.032 191.91C476.032 192.462 475.843 192.906 475.465 193.243C475.091 193.576 474.599 193.742 473.988 193.742C473.378 193.742 472.883 193.574 472.505 193.236C472.127 192.899 471.938 192.457 471.938 191.91H472.97C472.97 192.229 473.056 192.48 473.229 192.662C473.403 192.84 473.656 192.929 473.988 192.929C474.307 192.929 474.556 192.84 474.733 192.662C474.916 192.484 475.007 192.234 475.007 191.91H476.032ZM395.512 216.147L397.234 210.604H398.588L395.614 219.142C395.154 220.372 394.423 220.987 393.42 220.987L393.181 220.967L392.709 220.878V219.853L393.051 219.88C393.479 219.88 393.812 219.793 394.049 219.62C394.29 219.447 394.489 219.13 394.644 218.67L394.924 217.918L392.285 210.604H393.666L395.512 216.147ZM405.766 218H404.501V214.842H401.104V218H399.832V210.604H401.104V213.81H404.501V210.604H405.766V218ZM412.588 210.604H413.853V218H412.588V212.606L409.177 218H407.912V210.604H409.177V216.004L412.588 210.604ZM415.999 218V210.604H418.884C419.868 210.604 420.622 210.777 421.146 211.123C421.675 211.465 421.939 211.968 421.939 212.634C421.939 212.976 421.837 213.285 421.632 213.563C421.427 213.837 421.124 214.047 420.723 214.192C421.169 214.297 421.527 214.502 421.796 214.808C422.069 215.113 422.206 215.478 422.206 215.901C422.206 216.58 421.955 217.1 421.454 217.46C420.957 217.82 420.253 218 419.342 218H415.999ZM417.264 214.753V216.981H419.355C419.884 216.981 420.278 216.883 420.538 216.688C420.802 216.492 420.935 216.216 420.935 215.86C420.935 215.122 420.392 214.753 419.308 214.753H417.264ZM417.264 213.741H418.897C420.082 213.741 420.675 213.395 420.675 212.702C420.675 212.009 420.114 211.652 418.993 211.629H417.264V213.741ZM426.95 218.137C425.948 218.137 425.132 217.809 424.503 217.152C423.874 216.492 423.56 215.61 423.56 214.507V214.274C423.56 213.541 423.699 212.887 423.977 212.312C424.259 211.734 424.651 211.283 425.152 210.959C425.658 210.631 426.205 210.467 426.793 210.467C427.755 210.467 428.502 210.784 429.035 211.417C429.568 212.05 429.835 212.957 429.835 214.138V214.664H424.824C424.842 215.393 425.054 215.983 425.46 216.435C425.87 216.881 426.39 217.104 427.019 217.104C427.465 217.104 427.843 217.013 428.153 216.831C428.463 216.649 428.734 216.407 428.967 216.106L429.739 216.708C429.119 217.66 428.19 218.137 426.95 218.137ZM426.793 211.506C426.283 211.506 425.854 211.693 425.508 212.066C425.161 212.436 424.947 212.955 424.865 213.625H428.57V213.529C428.534 212.887 428.361 212.39 428.051 212.039C427.741 211.684 427.322 211.506 426.793 211.506ZM437.553 214.384C437.553 215.509 437.295 216.416 436.78 217.104C436.265 217.793 435.568 218.137 434.688 218.137C433.791 218.137 433.084 217.852 432.569 217.282V220.844H431.305V210.604H432.46L432.521 211.424C433.036 210.786 433.752 210.467 434.668 210.467C435.557 210.467 436.258 210.802 436.773 211.472C437.293 212.142 437.553 213.074 437.553 214.268V214.384ZM436.288 214.24C436.288 213.406 436.11 212.748 435.755 212.265C435.399 211.782 434.912 211.54 434.292 211.54C433.526 211.54 432.952 211.88 432.569 212.559V216.093C432.948 216.767 433.526 217.104 434.306 217.104C434.912 217.104 435.393 216.865 435.748 216.387C436.108 215.904 436.288 215.188 436.288 214.24ZM442.133 217.104C442.584 217.104 442.978 216.968 443.315 216.694C443.653 216.421 443.84 216.079 443.876 215.669H445.072C445.049 216.093 444.904 216.496 444.635 216.879C444.366 217.262 444.006 217.567 443.555 217.795C443.108 218.023 442.634 218.137 442.133 218.137C441.126 218.137 440.324 217.802 439.727 217.132C439.134 216.457 438.838 215.537 438.838 214.37V214.158C438.838 213.438 438.97 212.798 439.234 212.237C439.499 211.677 439.877 211.242 440.369 210.932C440.866 210.622 441.451 210.467 442.126 210.467C442.955 210.467 443.644 210.715 444.19 211.212C444.742 211.709 445.036 212.354 445.072 213.146H443.876C443.84 212.668 443.657 212.276 443.329 211.971C443.006 211.661 442.604 211.506 442.126 211.506C441.483 211.506 440.984 211.738 440.629 212.203C440.278 212.663 440.103 213.331 440.103 214.206V214.445C440.103 215.298 440.278 215.954 440.629 216.414C440.98 216.874 441.481 217.104 442.133 217.104ZM451.279 210.604H452.544V218H451.279V212.606L447.868 218H446.604V210.604H447.868V216.004L451.279 210.604ZM460.07 211.629H457.589V218H456.324V211.629H453.891V210.604H460.07V211.629ZM463.823 218.137C462.821 218.137 462.005 217.809 461.376 217.152C460.747 216.492 460.433 215.61 460.433 214.507V214.274C460.433 213.541 460.572 212.887 460.85 212.312C461.132 211.734 461.524 211.283 462.025 210.959C462.531 210.631 463.078 210.467 463.666 210.467C464.628 210.467 465.375 210.784 465.908 211.417C466.441 212.05 466.708 212.957 466.708 214.138V214.664H461.697C461.715 215.393 461.927 215.983 462.333 216.435C462.743 216.881 463.263 217.104 463.892 217.104C464.338 217.104 464.716 217.013 465.026 216.831C465.336 216.649 465.607 216.407 465.84 216.106L466.612 216.708C465.993 217.66 465.063 218.137 463.823 218.137ZM463.666 211.506C463.156 211.506 462.727 211.693 462.381 212.066C462.035 212.436 461.82 212.955 461.738 213.625H465.443V213.529C465.407 212.887 465.234 212.39 464.924 212.039C464.614 211.684 464.195 211.506 463.666 211.506ZM473.592 211.629H471.11V218H469.846V211.629H467.412V210.604H473.592V211.629Z" fill="#4B4B4B"></path> <path d="M523.711 197.529H522.501V202H521.188V192.047H522.501V196.436H523.526L527.006 192.047H528.64L524.839 196.873L528.92 202H527.313L523.711 197.529ZM529.398 198.233C529.398 197.509 529.54 196.857 529.822 196.278C530.109 195.7 530.506 195.253 531.012 194.938C531.522 194.624 532.103 194.467 532.755 194.467C533.762 194.467 534.576 194.815 535.195 195.513C535.82 196.21 536.132 197.137 536.132 198.295V198.384C536.132 199.104 535.993 199.751 535.715 200.325C535.441 200.895 535.047 201.339 534.532 201.658C534.022 201.977 533.434 202.137 532.769 202.137C531.766 202.137 530.952 201.788 530.328 201.091C529.708 200.394 529.398 199.471 529.398 198.322V198.233ZM530.67 198.384C530.67 199.204 530.859 199.863 531.237 200.359C531.62 200.856 532.131 201.104 532.769 201.104C533.411 201.104 533.922 200.854 534.3 200.353C534.678 199.847 534.867 199.14 534.867 198.233C534.867 197.422 534.674 196.766 534.286 196.265C533.903 195.759 533.393 195.506 532.755 195.506C532.131 195.506 531.627 195.754 531.244 196.251C530.861 196.748 530.67 197.459 530.67 198.384ZM543.761 202H542.496V198.842H539.099V202H537.827V194.604H539.099V197.81H542.496V194.604H543.761V202ZM551.294 195.629H548.812V202H547.548V195.629H545.114V194.604H551.294V195.629ZM558.772 198.384C558.772 199.509 558.515 200.416 558 201.104C557.485 201.793 556.788 202.137 555.908 202.137C555.01 202.137 554.304 201.852 553.789 201.282V204.844H552.524V194.604H553.68L553.741 195.424C554.256 194.786 554.972 194.467 555.888 194.467C556.776 194.467 557.478 194.802 557.993 195.472C558.513 196.142 558.772 197.074 558.772 198.268V198.384ZM557.508 198.24C557.508 197.406 557.33 196.748 556.975 196.265C556.619 195.782 556.132 195.54 555.512 195.54C554.746 195.54 554.172 195.88 553.789 196.559V200.093C554.167 200.767 554.746 201.104 555.525 201.104C556.132 201.104 556.612 200.865 556.968 200.387C557.328 199.904 557.508 199.188 557.508 198.24ZM560.051 198.233C560.051 197.509 560.192 196.857 560.475 196.278C560.762 195.7 561.158 195.253 561.664 194.938C562.174 194.624 562.756 194.467 563.407 194.467C564.414 194.467 565.228 194.815 565.848 195.513C566.472 196.21 566.784 197.137 566.784 198.295V198.384C566.784 199.104 566.645 199.751 566.367 200.325C566.094 200.895 565.7 201.339 565.185 201.658C564.674 201.977 564.086 202.137 563.421 202.137C562.418 202.137 561.605 201.788 560.98 201.091C560.361 200.394 560.051 199.471 560.051 198.322V198.233ZM561.322 198.384C561.322 199.204 561.511 199.863 561.89 200.359C562.272 200.856 562.783 201.104 563.421 201.104C564.063 201.104 564.574 200.854 564.952 200.353C565.33 199.847 565.52 199.14 565.52 198.233C565.52 197.422 565.326 196.766 564.938 196.265C564.556 195.759 564.045 195.506 563.407 195.506C562.783 195.506 562.279 195.754 561.896 196.251C561.514 196.748 561.322 197.459 561.322 198.384ZM574.324 194.604V202H573.053V195.649H570.537L570.387 198.418C570.305 199.689 570.09 200.599 569.744 201.146C569.402 201.692 568.858 201.977 568.11 202H567.604V200.886L567.967 200.858C568.377 200.813 568.671 200.576 568.849 200.147C569.026 199.719 569.14 198.926 569.19 197.769L569.327 194.604H574.324ZM577.735 197.153H579.656C580.495 197.162 581.158 197.381 581.646 197.81C582.133 198.238 582.377 198.819 582.377 199.553C582.377 200.291 582.126 200.883 581.625 201.33C581.124 201.777 580.449 202 579.602 202H576.471V194.604H577.735V197.153ZM577.735 198.186V200.968H579.615C580.089 200.968 580.456 200.847 580.716 200.605C580.976 200.359 581.105 200.024 581.105 199.601C581.105 199.19 580.978 198.855 580.723 198.596C580.472 198.331 580.119 198.195 579.663 198.186H577.735ZM589.999 202H588.734V198.842H585.337V202H584.065V194.604H585.337V197.81H588.734V194.604H589.999V202ZM593.417 197.153H595.338C596.176 197.162 596.84 197.381 597.327 197.81C597.815 198.238 598.059 198.819 598.059 199.553C598.059 200.291 597.808 200.883 597.307 201.33C596.805 201.777 596.131 202 595.283 202H592.152V194.604H593.417V197.153ZM600.697 202H599.426V194.604H600.697V202ZM593.417 198.186V200.968H595.297C595.771 200.968 596.138 200.847 596.397 200.605C596.657 200.359 596.787 200.024 596.787 199.601C596.787 199.19 596.66 198.855 596.404 198.596C596.154 198.331 595.8 198.195 595.345 198.186H593.417ZM607.69 194.604H608.955V202H607.69V196.606L604.279 202H603.015V194.604H604.279V200.004L607.69 194.604ZM608.032 191.91C608.032 192.462 607.843 192.906 607.465 193.243C607.091 193.576 606.599 193.742 605.988 193.742C605.378 193.742 604.883 193.574 604.505 193.236C604.127 192.899 603.938 192.457 603.938 191.91H604.97C604.97 192.229 605.056 192.48 605.229 192.662C605.403 192.84 605.656 192.929 605.988 192.929C606.307 192.929 606.556 192.84 606.733 192.662C606.916 192.484 607.007 192.234 607.007 191.91H608.032ZM527.512 216.147L529.234 210.604H530.588L527.614 219.142C527.154 220.372 526.423 220.987 525.42 220.987L525.181 220.967L524.709 220.878V219.853L525.051 219.88C525.479 219.88 525.812 219.793 526.049 219.62C526.29 219.447 526.489 219.13 526.644 218.67L526.924 217.918L524.285 210.604H525.666L527.512 216.147ZM537.766 218H536.501V214.842H533.104V218H531.832V210.604H533.104V213.81H536.501V210.604H537.766V218ZM544.588 210.604H545.853V218H544.588V212.606L541.177 218H539.912V210.604H541.177V216.004L544.588 210.604ZM547.999 218V210.604H550.884C551.868 210.604 552.622 210.777 553.146 211.123C553.675 211.465 553.939 211.968 553.939 212.634C553.939 212.976 553.837 213.285 553.632 213.563C553.427 213.837 553.124 214.047 552.723 214.192C553.169 214.297 553.527 214.502 553.796 214.808C554.069 215.113 554.206 215.478 554.206 215.901C554.206 216.58 553.955 217.1 553.454 217.46C552.957 217.82 552.253 218 551.342 218H547.999ZM549.264 214.753V216.981H551.355C551.884 216.981 552.278 216.883 552.538 216.688C552.802 216.492 552.935 216.216 552.935 215.86C552.935 215.122 552.392 214.753 551.308 214.753H549.264ZM549.264 213.741H550.897C552.082 213.741 552.675 213.395 552.675 212.702C552.675 212.009 552.114 211.652 550.993 211.629H549.264V213.741ZM558.95 218.137C557.948 218.137 557.132 217.809 556.503 217.152C555.874 216.492 555.56 215.61 555.56 214.507V214.274C555.56 213.541 555.699 212.887 555.977 212.312C556.259 211.734 556.651 211.283 557.152 210.959C557.658 210.631 558.205 210.467 558.793 210.467C559.755 210.467 560.502 210.784 561.035 211.417C561.568 212.05 561.835 212.957 561.835 214.138V214.664H556.824C556.842 215.393 557.054 215.983 557.46 216.435C557.87 216.881 558.39 217.104 559.019 217.104C559.465 217.104 559.843 217.013 560.153 216.831C560.463 216.649 560.734 216.407 560.967 216.106L561.739 216.708C561.119 217.66 560.19 218.137 558.95 218.137ZM558.793 211.506C558.283 211.506 557.854 211.693 557.508 212.066C557.161 212.436 556.947 212.955 556.865 213.625H560.57V213.529C560.534 212.887 560.361 212.39 560.051 212.039C559.741 211.684 559.322 211.506 558.793 211.506ZM569.553 214.384C569.553 215.509 569.295 216.416 568.78 217.104C568.265 217.793 567.568 218.137 566.688 218.137C565.791 218.137 565.084 217.852 564.569 217.282V220.844H563.305V210.604H564.46L564.521 211.424C565.036 210.786 565.752 210.467 566.668 210.467C567.557 210.467 568.258 210.802 568.773 211.472C569.293 212.142 569.553 213.074 569.553 214.268V214.384ZM568.288 214.24C568.288 213.406 568.11 212.748 567.755 212.265C567.399 211.782 566.912 211.54 566.292 211.54C565.526 211.54 564.952 211.88 564.569 212.559V216.093C564.948 216.767 565.526 217.104 566.306 217.104C566.912 217.104 567.393 216.865 567.748 216.387C568.108 215.904 568.288 215.188 568.288 214.24ZM574.133 217.104C574.584 217.104 574.978 216.968 575.315 216.694C575.653 216.421 575.84 216.079 575.876 215.669H577.072C577.049 216.093 576.904 216.496 576.635 216.879C576.366 217.262 576.006 217.567 575.555 217.795C575.108 218.023 574.634 218.137 574.133 218.137C573.126 218.137 572.324 217.802 571.727 217.132C571.134 216.457 570.838 215.537 570.838 214.37V214.158C570.838 213.438 570.97 212.798 571.234 212.237C571.499 211.677 571.877 211.242 572.369 210.932C572.866 210.622 573.451 210.467 574.126 210.467C574.955 210.467 575.644 210.715 576.19 211.212C576.742 211.709 577.036 212.354 577.072 213.146H575.876C575.84 212.668 575.657 212.276 575.329 211.971C575.006 211.661 574.604 211.506 574.126 211.506C573.483 211.506 572.984 211.738 572.629 212.203C572.278 212.663 572.103 213.331 572.103 214.206V214.445C572.103 215.298 572.278 215.954 572.629 216.414C572.98 216.874 573.481 217.104 574.133 217.104ZM583.279 210.604H584.544V218H583.279V212.606L579.868 218H578.604V210.604H579.868V216.004L583.279 210.604ZM592.07 211.629H589.589V218H588.324V211.629H585.891V210.604H592.07V211.629ZM595.823 218.137C594.821 218.137 594.005 217.809 593.376 217.152C592.747 216.492 592.433 215.61 592.433 214.507V214.274C592.433 213.541 592.572 212.887 592.85 212.312C593.132 211.734 593.524 211.283 594.025 210.959C594.531 210.631 595.078 210.467 595.666 210.467C596.628 210.467 597.375 210.784 597.908 211.417C598.441 212.05 598.708 212.957 598.708 214.138V214.664H593.697C593.715 215.393 593.927 215.983 594.333 216.435C594.743 216.881 595.263 217.104 595.892 217.104C596.338 217.104 596.716 217.013 597.026 216.831C597.336 216.649 597.607 216.407 597.84 216.106L598.612 216.708C597.993 217.66 597.063 218.137 595.823 218.137ZM595.666 211.506C595.156 211.506 594.727 211.693 594.381 212.066C594.035 212.436 593.82 212.955 593.738 213.625H597.443V213.529C597.407 212.887 597.234 212.39 596.924 212.039C596.614 211.684 596.195 211.506 595.666 211.506ZM605.592 211.629H603.11V218H601.846V211.629H599.412V210.604H605.592V211.629Z" fill="#4B4B4B"></path> <path d="M170.061 101.939C169.475 101.354 168.525 101.354 167.939 101.939L158.393 111.485C157.808 112.071 157.808 113.021 158.393 113.607C158.979 114.192 159.929 114.192 160.515 113.607L169 105.121L177.485 113.607C178.071 114.192 179.021 114.192 179.607 113.607C180.192 113.021 180.192 112.071 179.607 111.485L170.061 101.939ZM170.5 173L170.5 103L167.5 103L167.5 173L170.5 173Z" fill="white"></path> <line x1="87.976" y1="63.5" x2="655" y2="63.5" stroke="#A6A6A6" stroke-opacity="0.26" stroke-dasharray="6 6"></line> <line x1="87" y1="304.5" x2="654.024" y2="304.5" stroke="#A6A6A6" stroke-opacity="0.26" stroke-dasharray="6 6"></line> <line x1="87" y1="144.5" x2="654.024" y2="144.5" stroke="#A6A6A6" stroke-opacity="0.26" stroke-dasharray="6 6"></line> <line x1="87" y1="184.5" x2="654.024" y2="184.5" stroke="#A6A6A6" stroke-opacity="0.26" stroke-dasharray="6 6"></line> <line x1="87" y1="104.5" x2="654.024" y2="104.5" stroke="#A6A6A6" stroke-opacity="0.26" stroke-dasharray="6 6"></line> <line x1="87" y1="224.5" x2="654.024" y2="224.5" stroke="#A6A6A6" stroke-opacity="0.26" stroke-dasharray="6 6"></line> <path d="M316.762 330.879V338.438H316.059V329.66H316.715L316.762 330.879ZM321.168 332.771V332.895C321.168 333.367 321.113 333.801 321.004 334.195C320.895 334.59 320.736 334.932 320.529 335.221C320.326 335.506 320.074 335.727 319.773 335.883C319.473 336.039 319.131 336.117 318.748 336.117C318.369 336.117 318.031 336.059 317.734 335.941C317.438 335.824 317.182 335.658 316.967 335.443C316.756 335.225 316.586 334.971 316.457 334.682C316.332 334.389 316.244 334.068 316.193 333.721V332.098C316.252 331.715 316.348 331.367 316.48 331.055C316.613 330.742 316.783 330.473 316.99 330.246C317.201 330.02 317.451 329.846 317.74 329.725C318.029 329.604 318.359 329.543 318.73 329.543C319.117 329.543 319.461 329.619 319.762 329.771C320.066 329.92 320.322 330.137 320.529 330.422C320.74 330.703 320.898 331.043 321.004 331.441C321.113 331.836 321.168 332.279 321.168 332.771ZM320.465 332.895V332.771C320.465 332.4 320.426 332.057 320.348 331.74C320.273 331.424 320.158 331.148 320.002 330.914C319.85 330.676 319.654 330.49 319.416 330.357C319.182 330.225 318.902 330.158 318.578 330.158C318.242 330.158 317.955 330.215 317.717 330.328C317.482 330.438 317.287 330.584 317.131 330.768C316.975 330.947 316.852 331.145 316.762 331.359C316.672 331.574 316.605 331.785 316.562 331.992V333.861C316.637 334.158 316.756 334.434 316.92 334.688C317.084 334.938 317.303 335.139 317.576 335.291C317.854 335.439 318.191 335.514 318.59 335.514C318.91 335.514 319.188 335.447 319.422 335.314C319.656 335.182 319.85 334.996 320.002 334.758C320.158 334.52 320.273 334.242 320.348 333.926C320.426 333.609 320.465 333.266 320.465 332.895ZM322.732 332.027L327.109 333.914V334.658L322.258 332.438V331.98L322.732 332.027ZM327.109 330.393L322.738 332.285L322.258 332.326V331.869L327.109 329.654V330.393ZM333.895 331.002V332.438C333.895 333.062 333.836 333.607 333.719 334.072C333.602 334.533 333.43 334.916 333.203 335.221C332.98 335.521 332.707 335.746 332.383 335.895C332.062 336.043 331.695 336.117 331.281 336.117C330.953 336.117 330.652 336.07 330.379 335.977C330.105 335.883 329.861 335.74 329.646 335.549C329.436 335.354 329.256 335.109 329.107 334.816C328.959 334.523 328.846 334.18 328.768 333.785C328.689 333.387 328.65 332.938 328.65 332.438V331.002C328.65 330.373 328.709 329.83 328.826 329.373C328.947 328.916 329.119 328.537 329.342 328.236C329.568 327.936 329.844 327.713 330.168 327.568C330.492 327.42 330.859 327.346 331.27 327.346C331.598 327.346 331.898 327.395 332.172 327.492C332.449 327.586 332.693 327.727 332.904 327.914C333.119 328.102 333.299 328.342 333.443 328.635C333.592 328.924 333.703 329.266 333.777 329.66C333.855 330.055 333.895 330.502 333.895 331.002ZM333.197 332.52V330.914C333.197 330.527 333.17 330.176 333.115 329.859C333.064 329.543 332.988 329.266 332.887 329.027C332.785 328.789 332.656 328.59 332.5 328.43C332.348 328.27 332.168 328.15 331.961 328.072C331.758 327.99 331.527 327.949 331.27 327.949C330.953 327.949 330.674 328.014 330.432 328.143C330.193 328.268 329.994 328.455 329.834 328.705C329.674 328.951 329.553 329.26 329.471 329.631C329.393 330.002 329.354 330.43 329.354 330.914V332.52C329.354 332.902 329.379 333.252 329.43 333.568C329.48 333.881 329.559 334.158 329.664 334.4C329.77 334.643 329.898 334.848 330.051 335.016C330.207 335.18 330.387 335.305 330.59 335.391C330.797 335.473 331.027 335.514 331.281 335.514C331.605 335.514 331.887 335.449 332.125 335.32C332.363 335.188 332.562 334.994 332.723 334.74C332.883 334.482 333.002 334.168 333.08 333.797C333.158 333.422 333.197 332.996 333.197 332.52ZM336.197 334.893V335.713C336.197 336.072 336.123 336.418 335.975 336.75C335.826 337.086 335.625 337.369 335.371 337.6L334.961 337.295C335.082 337.131 335.184 336.967 335.266 336.803C335.348 336.643 335.408 336.475 335.447 336.299C335.49 336.123 335.512 335.934 335.512 335.73V334.893H336.197ZM342.859 331.002V332.438C342.859 333.062 342.801 333.607 342.684 334.072C342.566 334.533 342.395 334.916 342.168 335.221C341.945 335.521 341.672 335.746 341.348 335.895C341.027 336.043 340.66 336.117 340.246 336.117C339.918 336.117 339.617 336.07 339.344 335.977C339.07 335.883 338.826 335.74 338.611 335.549C338.4 335.354 338.221 335.109 338.072 334.816C337.924 334.523 337.811 334.18 337.732 333.785C337.654 333.387 337.615 332.938 337.615 332.438V331.002C337.615 330.373 337.674 329.83 337.791 329.373C337.912 328.916 338.084 328.537 338.307 328.236C338.533 327.936 338.809 327.713 339.133 327.568C339.457 327.42 339.824 327.346 340.234 327.346C340.562 327.346 340.863 327.395 341.137 327.492C341.414 327.586 341.658 327.727 341.869 327.914C342.084 328.102 342.264 328.342 342.408 328.635C342.557 328.924 342.668 329.266 342.742 329.66C342.82 330.055 342.859 330.502 342.859 331.002ZM342.162 332.52V330.914C342.162 330.527 342.135 330.176 342.08 329.859C342.029 329.543 341.953 329.266 341.852 329.027C341.75 328.789 341.621 328.59 341.465 328.43C341.312 328.27 341.133 328.15 340.926 328.072C340.723 327.99 340.492 327.949 340.234 327.949C339.918 327.949 339.639 328.014 339.396 328.143C339.158 328.268 338.959 328.455 338.799 328.705C338.639 328.951 338.518 329.26 338.436 329.631C338.357 330.002 338.318 330.43 338.318 330.914V332.52C338.318 332.902 338.344 333.252 338.395 333.568C338.445 333.881 338.523 334.158 338.629 334.4C338.734 334.643 338.863 334.848 339.016 335.016C339.172 335.18 339.352 335.305 339.555 335.391C339.762 335.473 339.992 335.514 340.246 335.514C340.57 335.514 340.852 335.449 341.09 335.32C341.328 335.188 341.527 334.994 341.688 334.74C341.848 334.482 341.967 334.168 342.045 333.797C342.123 333.422 342.162 332.996 342.162 332.52ZM349.516 331.002V332.438C349.516 333.062 349.457 333.607 349.34 334.072C349.223 334.533 349.051 334.916 348.824 335.221C348.602 335.521 348.328 335.746 348.004 335.895C347.684 336.043 347.316 336.117 346.902 336.117C346.574 336.117 346.273 336.07 346 335.977C345.727 335.883 345.482 335.74 345.268 335.549C345.057 335.354 344.877 335.109 344.729 334.816C344.58 334.523 344.467 334.18 344.389 333.785C344.311 333.387 344.271 332.938 344.271 332.438V331.002C344.271 330.373 344.33 329.83 344.447 329.373C344.568 328.916 344.74 328.537 344.963 328.236C345.189 327.936 345.465 327.713 345.789 327.568C346.113 327.42 346.48 327.346 346.891 327.346C347.219 327.346 347.52 327.395 347.793 327.492C348.07 327.586 348.314 327.727 348.525 327.914C348.74 328.102 348.92 328.342 349.064 328.635C349.213 328.924 349.324 329.266 349.398 329.66C349.477 330.055 349.516 330.502 349.516 331.002ZM348.818 332.52V330.914C348.818 330.527 348.791 330.176 348.736 329.859C348.686 329.543 348.609 329.266 348.508 329.027C348.406 328.789 348.277 328.59 348.121 328.43C347.969 328.27 347.789 328.15 347.582 328.072C347.379 327.99 347.148 327.949 346.891 327.949C346.574 327.949 346.295 328.014 346.053 328.143C345.814 328.268 345.615 328.455 345.455 328.705C345.295 328.951 345.174 329.26 345.092 329.631C345.014 330.002 344.975 330.43 344.975 330.914V332.52C344.975 332.902 345 333.252 345.051 333.568C345.102 333.881 345.18 334.158 345.285 334.4C345.391 334.643 345.52 334.848 345.672 335.016C345.828 335.18 346.008 335.305 346.211 335.391C346.418 335.473 346.648 335.514 346.902 335.514C347.227 335.514 347.508 335.449 347.746 335.32C347.984 335.188 348.184 334.994 348.344 334.74C348.504 334.482 348.623 334.168 348.701 333.797C348.779 333.422 348.818 332.996 348.818 332.52ZM356.172 331.002V332.438C356.172 333.062 356.113 333.607 355.996 334.072C355.879 334.533 355.707 334.916 355.48 335.221C355.258 335.521 354.984 335.746 354.66 335.895C354.34 336.043 353.973 336.117 353.559 336.117C353.23 336.117 352.93 336.07 352.656 335.977C352.383 335.883 352.139 335.74 351.924 335.549C351.713 335.354 351.533 335.109 351.385 334.816C351.236 334.523 351.123 334.18 351.045 333.785C350.967 333.387 350.928 332.938 350.928 332.438V331.002C350.928 330.373 350.986 329.83 351.104 329.373C351.225 328.916 351.396 328.537 351.619 328.236C351.846 327.936 352.121 327.713 352.445 327.568C352.77 327.42 353.137 327.346 353.547 327.346C353.875 327.346 354.176 327.395 354.449 327.492C354.727 327.586 354.971 327.727 355.182 327.914C355.396 328.102 355.576 328.342 355.721 328.635C355.869 328.924 355.98 329.266 356.055 329.66C356.133 330.055 356.172 330.502 356.172 331.002ZM355.475 332.52V330.914C355.475 330.527 355.447 330.176 355.393 329.859C355.342 329.543 355.266 329.266 355.164 329.027C355.062 328.789 354.934 328.59 354.777 328.43C354.625 328.27 354.445 328.15 354.238 328.072C354.035 327.99 353.805 327.949 353.547 327.949C353.23 327.949 352.951 328.014 352.709 328.143C352.471 328.268 352.271 328.455 352.111 328.705C351.951 328.951 351.83 329.26 351.748 329.631C351.67 330.002 351.631 330.43 351.631 330.914V332.52C351.631 332.902 351.656 333.252 351.707 333.568C351.758 333.881 351.836 334.158 351.941 334.4C352.047 334.643 352.176 334.848 352.328 335.016C352.484 335.18 352.664 335.305 352.867 335.391C353.074 335.473 353.305 335.514 353.559 335.514C353.883 335.514 354.164 335.449 354.402 335.32C354.641 335.188 354.84 334.994 355 334.74C355.16 334.482 355.279 334.168 355.357 333.797C355.436 333.422 355.475 332.996 355.475 332.52ZM362.828 331.002V332.438C362.828 333.062 362.77 333.607 362.652 334.072C362.535 334.533 362.363 334.916 362.137 335.221C361.914 335.521 361.641 335.746 361.316 335.895C360.996 336.043 360.629 336.117 360.215 336.117C359.887 336.117 359.586 336.07 359.312 335.977C359.039 335.883 358.795 335.74 358.58 335.549C358.369 335.354 358.189 335.109 358.041 334.816C357.893 334.523 357.779 334.18 357.701 333.785C357.623 333.387 357.584 332.938 357.584 332.438V331.002C357.584 330.373 357.643 329.83 357.76 329.373C357.881 328.916 358.053 328.537 358.275 328.236C358.502 327.936 358.777 327.713 359.102 327.568C359.426 327.42 359.793 327.346 360.203 327.346C360.531 327.346 360.832 327.395 361.105 327.492C361.383 327.586 361.627 327.727 361.838 327.914C362.053 328.102 362.232 328.342 362.377 328.635C362.525 328.924 362.637 329.266 362.711 329.66C362.789 330.055 362.828 330.502 362.828 331.002ZM362.131 332.52V330.914C362.131 330.527 362.104 330.176 362.049 329.859C361.998 329.543 361.922 329.266 361.82 329.027C361.719 328.789 361.59 328.59 361.434 328.43C361.281 328.27 361.102 328.15 360.895 328.072C360.691 327.99 360.461 327.949 360.203 327.949C359.887 327.949 359.607 328.014 359.365 328.143C359.127 328.268 358.928 328.455 358.768 328.705C358.607 328.951 358.486 329.26 358.404 329.631C358.326 330.002 358.287 330.43 358.287 330.914V332.52C358.287 332.902 358.312 333.252 358.363 333.568C358.414 333.881 358.492 334.158 358.598 334.4C358.703 334.643 358.832 334.848 358.984 335.016C359.141 335.18 359.32 335.305 359.523 335.391C359.73 335.473 359.961 335.514 360.215 335.514C360.539 335.514 360.82 335.449 361.059 335.32C361.297 335.188 361.496 334.994 361.656 334.74C361.816 334.482 361.936 334.168 362.014 333.797C362.092 333.422 362.131 332.996 362.131 332.52ZM369.484 331.002V332.438C369.484 333.062 369.426 333.607 369.309 334.072C369.191 334.533 369.02 334.916 368.793 335.221C368.57 335.521 368.297 335.746 367.973 335.895C367.652 336.043 367.285 336.117 366.871 336.117C366.543 336.117 366.242 336.07 365.969 335.977C365.695 335.883 365.451 335.74 365.236 335.549C365.025 335.354 364.846 335.109 364.697 334.816C364.549 334.523 364.436 334.18 364.357 333.785C364.279 333.387 364.24 332.938 364.24 332.438V331.002C364.24 330.373 364.299 329.83 364.416 329.373C364.537 328.916 364.709 328.537 364.932 328.236C365.158 327.936 365.434 327.713 365.758 327.568C366.082 327.42 366.449 327.346 366.859 327.346C367.188 327.346 367.488 327.395 367.762 327.492C368.039 327.586 368.283 327.727 368.494 327.914C368.709 328.102 368.889 328.342 369.033 328.635C369.182 328.924 369.293 329.266 369.367 329.66C369.445 330.055 369.484 330.502 369.484 331.002ZM368.787 332.52V330.914C368.787 330.527 368.76 330.176 368.705 329.859C368.654 329.543 368.578 329.266 368.477 329.027C368.375 328.789 368.246 328.59 368.09 328.43C367.938 328.27 367.758 328.15 367.551 328.072C367.348 327.99 367.117 327.949 366.859 327.949C366.543 327.949 366.264 328.014 366.021 328.143C365.783 328.268 365.584 328.455 365.424 328.705C365.264 328.951 365.143 329.26 365.061 329.631C364.982 330.002 364.943 330.43 364.943 330.914V332.52C364.943 332.902 364.969 333.252 365.02 333.568C365.07 333.881 365.148 334.158 365.254 334.4C365.359 334.643 365.488 334.848 365.641 335.016C365.797 335.18 365.977 335.305 366.18 335.391C366.387 335.473 366.617 335.514 366.871 335.514C367.195 335.514 367.477 335.449 367.715 335.32C367.953 335.188 368.152 334.994 368.312 334.74C368.473 334.482 368.592 334.168 368.67 333.797C368.748 333.422 368.787 332.996 368.787 332.52ZM376.34 335.396V336H371.002V335.455L373.797 332.285C374.145 331.891 374.422 331.545 374.629 331.248C374.836 330.947 374.984 330.674 375.074 330.428C375.168 330.178 375.215 329.936 375.215 329.701C375.215 329.357 375.146 329.055 375.01 328.793C374.877 328.531 374.678 328.326 374.412 328.178C374.146 328.029 373.818 327.955 373.428 327.955C373.037 327.955 372.697 328.039 372.408 328.207C372.119 328.375 371.896 328.609 371.74 328.91C371.588 329.207 371.512 329.545 371.512 329.924H370.814C370.814 329.455 370.918 329.025 371.125 328.635C371.336 328.244 371.637 327.934 372.027 327.703C372.418 327.469 372.885 327.352 373.428 327.352C373.943 327.352 374.387 327.443 374.758 327.627C375.129 327.807 375.414 328.066 375.613 328.406C375.816 328.746 375.918 329.156 375.918 329.637C375.918 329.895 375.871 330.154 375.777 330.416C375.688 330.678 375.562 330.939 375.402 331.201C375.246 331.459 375.066 331.715 374.863 331.969C374.664 332.223 374.455 332.473 374.236 332.719L371.857 335.396H376.34Z" fill="#454545"></path> </g> <defs> <clipPath id="clip0_500_2167"> <rect width="669" height="358" fill="white"></rect> </clipPath> </defs> </svg> 