<?xml version="1.0" encoding="UTF-8"?> <svg xmlns="http://www.w3.org/2000/svg" width="669" height="358" viewBox="0 0 669 358" fill="none"> <g clip-path="url(#clip0_499_1157)"> <rect x="-9.90527" y="-30" width="708" height="424" fill="#FCFCFC"></rect> <line x1="87.7389" y1="284.624" x2="656" y2="284.624" stroke="#A6A6A6" stroke-opacity="0.26" stroke-width="2"></line> <line x1="76.5499" y1="244.675" x2="87.682" y2="244.675" stroke="#A6A6A6" stroke-opacity="0.26" stroke-width="2"></line> <line x1="77.8539" y1="284.624" x2="88.9859" y2="284.624" stroke="#A6A6A6" stroke-opacity="0.26" stroke-width="2"></line> <line x1="76.5499" y1="204.725" x2="87.682" y2="204.725" stroke="#A6A6A6" stroke-opacity="0.26" stroke-width="2"></line> <line x1="76.5499" y1="164.776" x2="87.682" y2="164.776" stroke="#A6A6A6" stroke-opacity="0.26" stroke-width="2"></line> <line x1="76.5499" y1="124.826" x2="87.682" y2="124.826" stroke="#A6A6A6" stroke-opacity="0.26" stroke-width="2"></line> <line x1="75.8169" y1="84.877" x2="86.9489" y2="84.877" stroke="#A6A6A6" stroke-opacity="0.26" stroke-width="2"></line> <line x1="87" y1="74" x2="87" y2="295" stroke="#A6A6A6" stroke-opacity="0.26" stroke-width="2"></line> <path d="M71.0434 285.296V286.814C71.0434 287.629 70.9705 288.318 70.8247 288.878C70.6788 289.439 70.4692 289.89 70.1958 290.232C69.9223 290.573 69.5919 290.822 69.2045 290.977C68.8217 291.127 68.3888 291.202 67.9057 291.202C67.5229 291.202 67.1697 291.155 66.8461 291.059C66.5226 290.963 66.2309 290.81 65.9711 290.601C65.7159 290.387 65.4972 290.109 65.3149 289.767C65.1326 289.425 64.9936 289.01 64.8979 288.523C64.8022 288.035 64.7543 287.465 64.7543 286.814V285.296C64.7543 284.48 64.8273 283.797 64.9731 283.245C65.1235 282.694 65.3354 282.252 65.6088 281.919C65.8823 281.582 66.2104 281.34 66.5932 281.195C66.9806 281.049 67.4135 280.976 67.892 280.976C68.2794 280.976 68.6349 281.024 68.9584 281.119C69.2866 281.211 69.5782 281.359 69.8334 281.564C70.0887 281.764 70.3051 282.033 70.4829 282.37C70.6652 282.703 70.8042 283.111 70.8999 283.594C70.9956 284.077 71.0434 284.644 71.0434 285.296ZM69.7719 287.019V285.084C69.7719 284.638 69.7446 284.246 69.6899 283.908C69.6398 283.567 69.5646 283.275 69.4643 283.033C69.364 282.792 69.2364 282.596 69.0815 282.446C68.9311 282.295 68.7557 282.186 68.5551 282.117C68.3592 282.045 68.1381 282.008 67.892 282.008C67.5913 282.008 67.3247 282.065 67.0922 282.179C66.8598 282.288 66.6639 282.464 66.5043 282.705C66.3494 282.947 66.2309 283.264 66.1489 283.656C66.0668 284.047 66.0258 284.524 66.0258 285.084V287.019C66.0258 287.465 66.0509 287.86 66.101 288.201C66.1557 288.543 66.2355 288.839 66.3403 289.09C66.4451 289.336 66.5727 289.539 66.7231 289.698C66.8735 289.858 67.0467 289.976 67.2426 290.054C67.4432 290.127 67.6642 290.163 67.9057 290.163C68.2156 290.163 68.4868 290.104 68.7192 289.986C68.9516 289.867 69.1453 289.683 69.3002 289.432C69.4598 289.177 69.5782 288.851 69.6557 288.454C69.7332 288.053 69.7719 287.575 69.7719 287.019Z" fill="#454545"></path> <path d="M66.3948 244.22L65.3831 243.96L65.8821 239.004H70.9886V240.173H66.9554L66.6546 242.88C66.8369 242.775 67.067 242.677 67.345 242.586C67.6276 242.495 67.9511 242.449 68.3157 242.449C68.776 242.449 69.1884 242.529 69.553 242.688C69.9176 242.843 70.2275 243.067 70.4827 243.358C70.7425 243.65 70.9407 244.001 71.0774 244.411C71.2142 244.821 71.2825 245.279 71.2825 245.785C71.2825 246.264 71.2164 246.703 71.0843 247.104C70.9567 247.506 70.763 247.856 70.5032 248.157C70.2434 248.453 69.9153 248.684 69.5188 248.848C69.1269 249.012 68.6643 249.094 68.1311 249.094C67.7301 249.094 67.3496 249.039 66.9895 248.93C66.6341 248.816 66.3151 248.645 66.0325 248.417C65.7545 248.185 65.5267 247.897 65.3489 247.556C65.1757 247.209 65.0664 246.804 65.0208 246.339H66.2239C66.2786 246.713 66.388 247.027 66.552 247.282C66.7161 247.537 66.9303 247.731 67.1946 247.863C67.4635 247.991 67.7757 248.055 68.1311 248.055C68.4319 248.055 68.6985 248.002 68.9309 247.897C69.1634 247.793 69.3593 247.642 69.5188 247.446C69.6783 247.25 69.7991 247.013 69.8811 246.735C69.9677 246.457 70.011 246.145 70.011 245.799C70.011 245.484 69.9677 245.193 69.8811 244.924C69.7946 244.655 69.6647 244.42 69.4915 244.22C69.3229 244.019 69.1155 243.864 68.8694 243.755C68.6233 243.641 68.3408 243.584 68.0218 243.584C67.5979 243.584 67.2767 243.641 67.0579 243.755C66.8437 243.869 66.6227 244.024 66.3948 244.22Z" fill="#454545"></path> <path d="M61.0764 197.92V207.928H59.8118V199.499L57.262 200.429V199.287L60.8782 197.92H61.0764ZM71.0432 202.158V203.676C71.0432 204.492 70.9703 205.18 70.8245 205.74C70.6787 206.301 70.469 206.752 70.1956 207.094C69.9221 207.436 69.5917 207.684 69.2044 207.839C68.8216 207.989 68.3886 208.064 67.9055 208.064C67.5227 208.064 67.1695 208.017 66.846 207.921C66.5224 207.825 66.2307 207.673 65.971 207.463C65.7158 207.249 65.497 206.971 65.3147 206.629C65.1324 206.287 64.9934 205.872 64.8977 205.385C64.802 204.897 64.7542 204.327 64.7542 203.676V202.158C64.7542 201.342 64.8271 200.659 64.9729 200.107C65.1233 199.556 65.3352 199.114 65.6087 198.781C65.8821 198.444 66.2102 198.202 66.593 198.057C66.9804 197.911 67.4134 197.838 67.8919 197.838C68.2792 197.838 68.6347 197.886 68.9583 197.981C69.2864 198.073 69.5781 198.221 69.8333 198.426C70.0885 198.626 70.305 198.895 70.4827 199.232C70.665 199.565 70.804 199.973 70.8997 200.456C70.9954 200.939 71.0432 201.507 71.0432 202.158ZM69.7718 203.881V201.946C69.7718 201.5 69.7444 201.108 69.6897 200.771C69.6396 200.429 69.5644 200.137 69.4641 199.896C69.3639 199.654 69.2363 199.458 69.0813 199.308C68.9309 199.157 68.7555 199.048 68.555 198.979C68.359 198.907 68.138 198.87 67.8919 198.87C67.5911 198.87 67.3245 198.927 67.0921 199.041C66.8596 199.15 66.6637 199.326 66.5042 199.567C66.3492 199.809 66.2307 200.126 66.1487 200.518C66.0667 200.91 66.0257 201.386 66.0257 201.946V203.881C66.0257 204.327 66.0507 204.722 66.1009 205.063C66.1555 205.405 66.2353 205.701 66.3401 205.952C66.4449 206.198 66.5725 206.401 66.7229 206.561C66.8733 206.72 67.0465 206.839 67.2425 206.916C67.443 206.989 67.664 207.025 67.9055 207.025C68.2154 207.025 68.4866 206.966 68.719 206.848C68.9514 206.729 69.1451 206.545 69.3001 206.294C69.4596 206.039 69.5781 205.713 69.6555 205.316C69.733 204.915 69.7718 204.437 69.7718 203.881Z" fill="#454545"></path> <path d="M61.0764 157.971V167.979H59.8118V159.55L57.262 160.479V159.338L60.8782 157.971H61.0764ZM66.3948 163.241L65.3831 162.981L65.8821 158.025H70.9886V159.194H66.9554L66.6546 161.901C66.8369 161.797 67.067 161.699 67.345 161.607C67.6276 161.516 67.9511 161.471 68.3157 161.471C68.776 161.471 69.1884 161.55 69.553 161.71C69.9176 161.865 70.2275 162.088 70.4827 162.38C70.7425 162.672 70.9407 163.022 71.0774 163.433C71.2141 163.843 71.2825 164.301 71.2825 164.807C71.2825 165.285 71.2164 165.725 71.0843 166.126C70.9567 166.527 70.763 166.878 70.5032 167.179C70.2434 167.475 69.9153 167.705 69.5188 167.869C69.1269 168.033 68.6643 168.115 68.1311 168.115C67.7301 168.115 67.3496 168.061 66.9895 167.951C66.6341 167.837 66.3151 167.666 66.0325 167.438C65.7545 167.206 65.5266 166.919 65.3489 166.577C65.1757 166.231 65.0664 165.825 65.0208 165.36H66.2239C66.2786 165.734 66.388 166.049 66.552 166.304C66.7161 166.559 66.9303 166.753 67.1946 166.885C67.4635 167.012 67.7757 167.076 68.1311 167.076C68.4319 167.076 68.6985 167.024 68.9309 166.919C69.1634 166.814 69.3593 166.664 69.5188 166.468C69.6783 166.272 69.7991 166.035 69.8811 165.757C69.9677 165.479 70.011 165.167 70.011 164.82C70.011 164.506 69.9677 164.214 69.8811 163.945C69.7945 163.676 69.6647 163.442 69.4915 163.241C69.3229 163.041 69.1155 162.886 68.8694 162.776C68.6233 162.662 68.3408 162.605 68.0218 162.605C67.5979 162.605 67.2766 162.662 67.0579 162.776C66.8437 162.89 66.6227 163.045 66.3948 163.241Z" fill="#454545"></path> <path d="M63.5986 126.961V128H57.084V127.091L60.3447 123.461C60.7458 123.014 61.0557 122.636 61.2744 122.326C61.4977 122.012 61.6527 121.731 61.7393 121.485C61.8304 121.235 61.876 120.979 61.876 120.72C61.876 120.392 61.8076 120.095 61.6709 119.831C61.5387 119.562 61.3428 119.348 61.083 119.188C60.8232 119.029 60.5088 118.949 60.1396 118.949C59.6976 118.949 59.3285 119.036 59.0322 119.209C58.7406 119.378 58.5218 119.615 58.376 119.92C58.2301 120.225 58.1572 120.576 58.1572 120.973H56.8926C56.8926 120.412 57.0156 119.899 57.2617 119.435C57.5078 118.97 57.8724 118.601 58.3555 118.327C58.8385 118.049 59.4333 117.91 60.1396 117.91C60.7686 117.91 61.3063 118.022 61.7529 118.245C62.1995 118.464 62.5413 118.774 62.7783 119.175C63.0199 119.571 63.1406 120.036 63.1406 120.569C63.1406 120.861 63.0905 121.157 62.9902 121.458C62.8945 121.754 62.7601 122.05 62.5869 122.347C62.4183 122.643 62.2201 122.935 61.9922 123.222C61.7689 123.509 61.5296 123.791 61.2744 124.069L58.6084 126.961H63.5986ZM71.2002 122.23V123.748C71.2002 124.564 71.1273 125.252 70.9814 125.812C70.8356 126.373 70.626 126.824 70.3525 127.166C70.0791 127.508 69.7487 127.756 69.3613 127.911C68.9785 128.062 68.5456 128.137 68.0625 128.137C67.6797 128.137 67.3265 128.089 67.0029 127.993C66.6794 127.897 66.3877 127.745 66.1279 127.535C65.8727 127.321 65.654 127.043 65.4717 126.701C65.2894 126.359 65.1504 125.945 65.0547 125.457C64.959 124.969 64.9111 124.4 64.9111 123.748V122.23C64.9111 121.415 64.984 120.731 65.1299 120.18C65.2803 119.628 65.4922 119.186 65.7656 118.854C66.0391 118.516 66.3672 118.275 66.75 118.129C67.1374 117.983 67.5703 117.91 68.0488 117.91C68.4362 117.91 68.7917 117.958 69.1152 118.054C69.4434 118.145 69.735 118.293 69.9902 118.498C70.2454 118.699 70.4619 118.967 70.6396 119.305C70.8219 119.637 70.9609 120.045 71.0566 120.528C71.1523 121.011 71.2002 121.579 71.2002 122.23ZM69.9287 123.953V122.019C69.9287 121.572 69.9014 121.18 69.8467 120.843C69.7965 120.501 69.7214 120.209 69.6211 119.968C69.5208 119.726 69.3932 119.53 69.2383 119.38C69.0879 119.229 68.9124 119.12 68.7119 119.052C68.516 118.979 68.2949 118.942 68.0488 118.942C67.748 118.942 67.4814 118.999 67.249 119.113C67.0166 119.223 66.8206 119.398 66.6611 119.64C66.5062 119.881 66.3877 120.198 66.3057 120.59C66.2236 120.982 66.1826 121.458 66.1826 122.019V123.953C66.1826 124.4 66.2077 124.794 66.2578 125.136C66.3125 125.478 66.3923 125.774 66.4971 126.024C66.6019 126.271 66.7295 126.473 66.8799 126.633C67.0303 126.792 67.2035 126.911 67.3994 126.988C67.5999 127.061 67.821 127.098 68.0625 127.098C68.3724 127.098 68.6436 127.038 68.876 126.92C69.1084 126.801 69.3021 126.617 69.457 126.366C69.6165 126.111 69.735 125.785 69.8125 125.389C69.89 124.988 69.9287 124.509 69.9287 123.953Z" fill="#454545"></path> <path d="M63.5986 86.9609V88H57.084V87.0908L60.3447 83.4609C60.7458 83.0143 61.0557 82.6361 61.2744 82.3262C61.4977 82.0117 61.6527 81.7314 61.7393 81.4854C61.8304 81.2347 61.876 80.9795 61.876 80.7197C61.876 80.3916 61.8076 80.0954 61.6709 79.8311C61.5387 79.5622 61.3428 79.348 61.083 79.1885C60.8232 79.029 60.5088 78.9492 60.1396 78.9492C59.6976 78.9492 59.3285 79.0358 59.0322 79.209C58.7406 79.3776 58.5218 79.6146 58.376 79.9199C58.2301 80.2253 58.1572 80.5762 58.1572 80.9727H56.8926C56.8926 80.4121 57.0156 79.8994 57.2617 79.4346C57.5078 78.9697 57.8724 78.6006 58.3555 78.3271C58.8385 78.0492 59.4333 77.9102 60.1396 77.9102C60.7686 77.9102 61.3063 78.0218 61.7529 78.2451C62.1995 78.4639 62.5413 78.7738 62.7783 79.1748C63.0199 79.5713 63.1406 80.0361 63.1406 80.5693C63.1406 80.861 63.0905 81.1572 62.9902 81.458C62.8945 81.7542 62.7601 82.0505 62.5869 82.3467C62.4183 82.6429 62.2201 82.9346 61.9922 83.2217C61.7689 83.5088 61.5296 83.7913 61.2744 84.0693L58.6084 86.9609H63.5986ZM66.5518 83.2627L65.54 83.0029L66.0391 78.0469H71.1455V79.2158H67.1123L66.8115 81.9229C66.9938 81.818 67.224 81.7201 67.502 81.6289C67.7845 81.5378 68.1081 81.4922 68.4727 81.4922C68.9329 81.4922 69.3454 81.5719 69.71 81.7314C70.0745 81.8864 70.3844 82.1097 70.6396 82.4014C70.8994 82.693 71.0977 83.0439 71.2344 83.4541C71.3711 83.8643 71.4395 84.3223 71.4395 84.8281C71.4395 85.3066 71.3734 85.7464 71.2412 86.1475C71.1136 86.5485 70.9199 86.8994 70.6602 87.2002C70.4004 87.4964 70.0723 87.7266 69.6758 87.8906C69.2839 88.0547 68.8213 88.1367 68.2881 88.1367C67.887 88.1367 67.5065 88.082 67.1465 87.9727C66.791 87.8587 66.472 87.6878 66.1895 87.46C65.9115 87.2275 65.6836 86.9404 65.5059 86.5986C65.3327 86.2523 65.2233 85.8467 65.1777 85.3818H66.3809C66.4355 85.7555 66.5449 86.07 66.709 86.3252C66.873 86.5804 67.0872 86.7741 67.3516 86.9062C67.6204 87.0339 67.9326 87.0977 68.2881 87.0977C68.5889 87.0977 68.8555 87.0452 69.0879 86.9404C69.3203 86.8356 69.5163 86.6852 69.6758 86.4893C69.8353 86.2933 69.9561 86.0563 70.0381 85.7783C70.1247 85.5003 70.168 85.1882 70.168 84.8418C70.168 84.5273 70.1247 84.2357 70.0381 83.9668C69.9515 83.6979 69.8216 83.4632 69.6484 83.2627C69.4798 83.0622 69.2725 82.9072 69.0264 82.7979C68.7803 82.6839 68.4977 82.627 68.1787 82.627C67.7549 82.627 67.4336 82.6839 67.2148 82.7979C67.0007 82.9118 66.7796 83.0667 66.5518 83.2627Z" fill="#454545"></path> <path d="M510 252L364 252C361.791 252 360 253.791 360 256L360 280C360 282.209 361.791 284 364 284H510C512.209 284 514 282.209 514 280L514 256C514 253.791 512.209 252 510 252Z" fill="#D09CC7"></path> <path d="M174 284L320 284C322.209 284 324 282.209 324 280L324 119C324 116.791 322.209 115 320 115L174 115C171.791 115 170 116.791 170 119L170 280C170 282.209 171.791 284 174 284Z" fill="#6FC4E2"></path> <path d="M22.3447 270.196C23.32 270.196 24.1722 270.36 24.9014 270.688C25.626 271.017 26.1797 271.481 26.5625 272.083C26.9453 272.685 27.1367 273.386 27.1367 274.188C27.1367 274.972 26.9453 275.667 26.5625 276.273C26.1751 276.88 25.626 277.351 24.915 277.688C24.1995 278.021 23.3724 278.192 22.4336 278.201L21.7158 278.201C20.7588 278.201 19.9134 278.035 19.1797 277.702C18.446 277.369 17.8854 276.9 17.498 276.294C17.1061 275.683 16.9102 274.986 16.9102 274.202C16.9102 273.405 17.1038 272.703 17.4912 272.097C17.874 271.486 18.4323 271.017 19.166 270.688C19.8952 270.36 20.7451 270.196 21.7158 270.196L22.3447 270.196ZM21.7021 271.502C20.5218 271.502 19.6172 271.739 18.9883 272.213C18.3548 272.687 18.0381 273.35 18.0381 274.202C18.0381 275.032 18.3548 275.686 18.9883 276.164C19.6172 276.638 20.4922 276.882 21.6133 276.896L22.3447 276.896C23.4886 276.896 24.3887 276.656 25.0449 276.178C25.6966 275.695 26.0225 275.032 26.0225 274.188C26.0225 273.341 25.7148 272.685 25.0996 272.22C24.4798 271.755 23.5934 271.516 22.4404 271.502L21.7021 271.502ZM19.6035 268.316L19.6035 267.045L25.9678 267.045L25.9678 263.641L19.6035 263.641L19.6035 262.376L25.9678 262.376L25.9678 261.494L29.1943 261.617L29.1943 262.752L27 262.752L27 268.316L19.6035 268.316ZM27.1367 257.058C27.1367 258.06 26.8086 258.876 26.1523 259.505C25.4915 260.134 24.6097 260.448 23.5068 260.448L23.2744 260.448C22.5407 260.448 21.8867 260.309 21.3125 260.031C20.7337 259.749 20.2826 259.357 19.959 258.855C19.6309 258.35 19.4668 257.803 19.4668 257.215C19.4668 256.253 19.7835 255.506 20.417 254.973C21.0505 254.439 21.9574 254.173 23.1377 254.173L23.6641 254.173L23.6641 259.184C24.3932 259.165 24.9834 258.953 25.4346 258.548C25.8812 258.138 26.1045 257.618 26.1045 256.989C26.1045 256.543 26.0133 256.164 25.8311 255.854C25.6488 255.545 25.4072 255.273 25.1064 255.041L25.708 254.269C26.6605 254.888 27.1367 255.818 27.1367 257.058ZM20.5059 257.215C20.5059 257.725 20.6927 258.154 21.0664 258.5C21.4355 258.846 21.9551 259.061 22.625 259.143L22.625 255.437L22.5293 255.437C21.8867 255.474 21.39 255.647 21.0391 255.957C20.6836 256.267 20.5059 256.686 20.5059 257.215ZM27 246.66L27 247.925L23.8418 247.925L23.8418 251.322L27 251.322L27 252.594L19.6035 252.594L19.6035 251.322L22.8096 251.322L22.8096 247.925L19.6035 247.925L19.6035 246.66L27 246.66ZM23.8486 242.319L23.8486 243.242L27 243.242L27 244.514L19.6035 244.514L19.6035 243.242L22.7344 243.242L22.7344 242.415L19.6035 239.927L19.6035 238.396L23.1582 241.321L27 238.149L27 239.756L23.8486 242.319ZM27 232.496C26.8542 232.569 26.5944 232.628 26.2207 232.674C26.8314 233.262 27.1367 233.964 27.1367 234.779C27.1367 235.508 26.9316 236.108 26.5215 236.577C26.1068 237.042 25.5827 237.274 24.9492 237.274C24.179 237.274 23.582 236.983 23.1582 236.399C22.7298 235.812 22.5156 234.987 22.5156 233.925L22.5156 232.694L21.9346 232.694C21.4925 232.694 21.1416 232.826 20.8818 233.091C20.6175 233.355 20.4853 233.745 20.4853 234.26C20.4853 234.711 20.5993 235.089 20.8271 235.395C21.055 235.7 21.3307 235.853 21.6543 235.853L21.6543 237.124C21.2852 237.124 20.9297 236.994 20.5879 236.734C20.2415 236.47 19.9681 236.115 19.7676 235.668C19.5671 235.217 19.4668 234.722 19.4668 234.185C19.4668 233.332 19.681 232.665 20.1094 232.182C20.5332 231.699 21.1188 231.448 21.8662 231.43L25.2705 231.43C25.9495 231.43 26.4896 231.343 26.8906 231.17L27 231.17L27 232.496ZM26.0361 234.595C26.0361 234.198 25.9336 233.822 25.7285 233.467C25.5234 233.111 25.2568 232.854 24.9287 232.694L23.4111 232.694L23.4111 233.686C23.4111 235.235 23.8646 236.01 24.7715 236.01C25.168 236.01 25.4779 235.878 25.7012 235.613C25.9245 235.349 26.0361 235.009 26.0361 234.595ZM20.6494 221.196L20.6494 224.607L27 224.607L27 225.879L19.6035 225.879L19.6035 221.196L20.6494 221.196ZM23.3838 213.848C24.5094 213.848 25.4163 214.105 26.1045 214.62C26.7926 215.135 27.1367 215.832 27.1367 216.712C27.1367 217.61 26.8519 218.316 26.2822 218.831L29.8437 218.831L29.8437 220.096L19.6035 220.096L19.6035 218.94L20.4238 218.879C19.7858 218.364 19.4668 217.648 19.4668 216.732C19.4668 215.844 19.8018 215.142 20.4717 214.627C21.1416 214.107 22.0736 213.848 23.2676 213.848L23.3838 213.848ZM23.2402 215.112C22.4062 215.112 21.7477 215.29 21.2646 215.646C20.7816 216.001 20.54 216.489 20.54 217.108C20.54 217.874 20.8796 218.448 21.5586 218.831L25.0928 218.831C25.7672 218.453 26.1045 217.874 26.1045 217.095C26.1045 216.489 25.8652 216.008 25.3867 215.652C24.9036 215.292 24.1881 215.112 23.2402 215.112ZM25.1475 209.896L19.6035 208.174L19.6035 206.82L28.1416 209.794C29.3721 210.254 29.9873 210.986 29.9873 211.988L29.9668 212.228L29.8779 212.699L28.8525 212.699L28.8799 212.357C28.8799 211.929 28.7933 211.596 28.6201 211.359C28.4469 211.118 28.1302 210.92 27.6699 210.765L26.918 210.484L19.6035 213.123L19.6035 211.742L25.1475 209.896ZM27 199.636L27 200.9L20.6494 200.9L20.6494 204.305L27 204.305L27 205.576L19.6035 205.576L19.6035 199.636L27 199.636ZM27 191.556L27 192.82L20.6494 192.82L20.6494 196.225L27 196.225L27 197.496L19.6035 197.496L19.6035 191.556L27 191.556ZM23.2334 189.86C22.5088 189.86 21.8571 189.719 21.2783 189.437C20.6995 189.149 20.2529 188.753 19.9385 188.247C19.624 187.737 19.4668 187.156 19.4668 186.504C19.4668 185.497 19.8154 184.683 20.5127 184.063C21.21 183.439 22.1374 183.127 23.2949 183.127L23.3838 183.127C24.1038 183.127 24.751 183.266 25.3252 183.544C25.8949 183.817 26.3392 184.212 26.6582 184.727C26.9772 185.237 27.1367 185.825 27.1367 186.49C27.1367 187.493 26.7881 188.306 26.0908 188.931C25.3935 189.55 24.4707 189.86 23.3223 189.86L23.2334 189.86ZM23.3838 188.589C24.2041 188.589 24.8626 188.4 25.3594 188.021C25.8561 187.639 26.1045 187.128 26.1045 186.49C26.1045 185.848 25.8538 185.337 25.3525 184.959C24.8467 184.581 24.1403 184.392 23.2334 184.392C22.4222 184.392 21.7659 184.585 21.2646 184.973C20.7588 185.355 20.5059 185.866 20.5059 186.504C20.5059 187.128 20.7542 187.632 21.251 188.015C21.7477 188.397 22.4587 188.589 23.3838 188.589ZM27 181.425L19.6035 181.425L19.6035 178.54C19.6035 177.556 19.7767 176.801 20.123 176.277C20.4648 175.749 20.9684 175.484 21.6338 175.484C21.9756 175.484 22.2855 175.587 22.5635 175.792C22.8369 175.997 23.0465 176.3 23.1924 176.701C23.2972 176.255 23.5023 175.897 23.8076 175.628C24.1129 175.354 24.4775 175.218 24.9014 175.218C25.5804 175.218 26.0999 175.468 26.46 175.97C26.82 176.466 27 177.171 27 178.082L27 181.425ZM23.7529 180.16L25.9814 180.16L25.9814 178.068C25.9814 177.54 25.8835 177.146 25.6875 176.886C25.4915 176.621 25.2158 176.489 24.8603 176.489C24.1221 176.489 23.7529 177.032 23.7529 178.116L23.7529 180.16ZM22.7412 180.16L22.7412 178.526C22.7412 177.341 22.3949 176.749 21.7021 176.749C21.0094 176.749 20.6517 177.31 20.6289 178.431L20.6289 180.16L22.7412 180.16ZM22.1533 172.162L22.1533 170.241C22.1624 169.403 22.3812 168.74 22.8096 168.252C23.2379 167.764 23.819 167.521 24.5527 167.521C25.291 167.521 25.8835 167.771 26.3301 168.272C26.7767 168.774 27 169.448 27 170.296L27 173.427L19.6035 173.427L19.6035 172.162L22.1533 172.162ZM27 164.882L27 166.153L19.6035 166.153L19.6035 164.882L27 164.882ZM23.1855 172.162L25.9678 172.162L25.9678 170.282C25.9678 169.808 25.847 169.441 25.6055 169.182C25.3594 168.922 25.0244 168.792 24.6006 168.792C24.1904 168.792 23.8555 168.92 23.5957 169.175C23.3314 169.425 23.1947 169.779 23.1855 170.234L23.1855 172.162ZM22.3037 160.192L19.6035 158.552L19.6035 157.075L23.2607 159.495L27 157L27 158.463L24.2314 160.172L27 161.881L27 163.351L23.2607 160.855L19.6035 163.275L19.6035 161.812L22.3037 160.192ZM19.6035 147.471L19.6035 146.206L27 146.206L27 147.471L21.6064 147.471L27 150.882L27 152.146L19.6035 152.146L19.6035 150.882L25.0039 150.882L19.6035 147.471ZM21.6269 140.108C21.2806 140.108 21.0072 140.241 20.8066 140.505C20.6016 140.769 20.499 141.132 20.499 141.592C20.499 142.038 20.6152 142.412 20.8476 142.713C21.0801 143.009 21.3535 143.157 21.668 143.157L21.668 144.415C21.0254 144.415 20.499 144.146 20.0889 143.608C19.6787 143.071 19.4736 142.398 19.4736 141.592C19.4736 140.726 19.6605 140.051 20.0342 139.568C20.4033 139.085 20.932 138.844 21.6201 138.844C21.9528 138.844 22.2581 138.944 22.5361 139.145C22.8141 139.345 23.0351 139.63 23.1992 139.999C23.4909 139.138 24.0651 138.707 24.9219 138.707C25.6009 138.707 26.1387 138.969 26.5351 139.493C26.9316 140.017 27.1299 140.717 27.1299 141.592C27.1299 142.444 26.9225 143.148 26.5078 143.704C26.0885 144.256 25.5234 144.531 24.8125 144.531L24.8125 143.273C25.1725 143.273 25.4824 143.114 25.7422 142.795C25.9974 142.471 26.125 142.07 26.125 141.592C26.125 141.109 26.0133 140.719 25.79 140.423C25.5667 140.127 25.2773 139.979 24.9219 139.979C24.5072 139.979 24.2109 140.104 24.0332 140.354C23.8509 140.601 23.7598 140.986 23.7598 141.51L23.7598 142.774L22.6934 142.774L22.6934 141.4C22.6706 140.539 22.3151 140.108 21.6269 140.108ZM25.3252 132.808L19.6035 130.292L19.6035 128.713L27 128.713L27 129.978L21.6201 129.978L27 132.37L27 133.245L21.5039 135.686L27 135.686L27 136.95L19.6035 136.95L19.6035 135.31L25.3252 132.808ZM27.1367 123.606C27.1367 124.609 26.8086 125.425 26.1523 126.054C25.4915 126.683 24.6097 126.997 23.5068 126.997L23.2744 126.997C22.5407 126.997 21.8867 126.858 21.3125 126.58C20.7337 126.298 20.2825 125.906 19.959 125.404C19.6309 124.898 19.4668 124.352 19.4668 123.764C19.4668 122.802 19.7835 122.055 20.417 121.521C21.0504 120.988 21.9573 120.722 23.1377 120.722L23.6641 120.722L23.6641 125.732C24.3932 125.714 24.9834 125.502 25.4346 125.097C25.8812 124.687 26.1045 124.167 26.1045 123.538C26.1045 123.091 26.0133 122.713 25.831 122.403C25.6488 122.093 25.4072 121.822 25.1064 121.59L25.708 120.817C26.6605 121.437 27.1367 122.367 27.1367 123.606ZM20.5059 123.764C20.5059 124.274 20.6927 124.702 21.0664 125.049C21.4355 125.395 21.9551 125.609 22.625 125.691L22.625 121.986L22.5293 121.986C21.8867 122.023 21.39 122.196 21.0391 122.506C20.6836 122.816 20.5059 123.235 20.5059 123.764ZM27 113.209L27 114.474L23.8418 114.474L23.8418 117.871L27 117.871L27 119.143L19.6035 119.143L19.6035 117.871L22.8096 117.871L22.8096 114.474L19.6035 114.474L19.6035 113.209L27 113.209ZM27.1367 108.103C27.1367 109.105 26.8086 109.921 26.1523 110.55C25.4915 111.179 24.6097 111.493 23.5068 111.493L23.2744 111.493C22.5407 111.493 21.8867 111.354 21.3125 111.076C20.7337 110.794 20.2825 110.402 19.959 109.9C19.6309 109.395 19.4668 108.848 19.4668 108.26C19.4668 107.298 19.7835 106.551 20.417 106.018C21.0504 105.484 21.9573 105.218 23.1377 105.218L23.6641 105.218L23.6641 110.229C24.3932 110.21 24.9834 109.998 25.4346 109.593C25.8812 109.183 26.1045 108.663 26.1045 108.034C26.1045 107.588 26.0133 107.209 25.831 106.899C25.6488 106.59 25.4072 106.318 25.1064 106.086L25.708 105.313C26.6605 105.933 27.1367 106.863 27.1367 108.103ZM20.5059 108.26C20.5059 108.77 20.6927 109.199 21.0664 109.545C21.4355 109.891 21.9551 110.105 22.625 110.187L22.625 106.482L22.5293 106.482C21.8867 106.519 21.39 106.692 21.0391 107.002C20.6836 107.312 20.5059 107.731 20.5059 108.26ZM27 97.7051L27 98.9697L23.8418 98.9697L23.8418 102.367L27 102.367L27 103.639L19.6035 103.639L19.6035 102.367L22.8096 102.367L22.8096 98.9697L19.6035 98.9697L19.6035 97.7051L27 97.7051ZM19.6035 90.8828L19.6035 89.6182L27 89.6182L27 90.8828L21.6064 90.8828L27 94.2939L27 95.5586L19.6035 95.5586L19.6035 94.2939L25.0039 94.2939L19.6035 90.8828ZM19.6035 82.8027L19.6035 81.5381L27 81.5381L27 82.8027L21.6064 82.8027L27 86.2139L27 87.4785L19.6035 87.4785L19.6035 86.2139L25.0039 86.2139L19.6035 82.8027ZM16.9101 82.4609C17.4616 82.4609 17.9059 82.6501 18.2432 83.0283C18.5758 83.402 18.7422 83.8942 18.7422 84.5049C18.7422 85.1156 18.5736 85.61 18.2363 85.9883C17.8991 86.3665 17.457 86.5557 16.9101 86.5557L16.9101 85.5234C17.2292 85.5234 17.4798 85.4368 17.6621 85.2637C17.8398 85.0905 17.9287 84.8376 17.9287 84.5049C17.9287 84.1859 17.8398 83.9375 17.6621 83.7598C17.4844 83.5775 17.2337 83.4863 16.9101 83.4863L16.9101 82.4609ZM43 258.678L35.6035 258.678L35.6035 255.793C35.6035 254.809 35.7767 254.054 36.123 253.53C36.4648 253.002 36.9684 252.737 37.6338 252.737C37.9756 252.737 38.2855 252.84 38.5635 253.045C38.8369 253.25 39.0465 253.553 39.1924 253.954C39.2972 253.507 39.5023 253.15 39.8076 252.881C40.113 252.607 40.4775 252.471 40.9014 252.471C41.5804 252.471 42.0999 252.721 42.46 253.223C42.82 253.719 43 254.424 43 255.335L43 258.678ZM39.7529 257.413L41.9814 257.413L41.9814 255.321C41.9814 254.793 41.8835 254.398 41.6875 254.139C41.4915 253.874 41.2158 253.742 40.8603 253.742C40.1221 253.742 39.7529 254.285 39.7529 255.369L39.7529 257.413ZM38.7412 257.413L38.7412 255.779C38.7412 254.594 38.3949 254.002 37.7021 254.002C37.0094 254.002 36.6517 254.562 36.6289 255.684L36.6289 257.413L38.7412 257.413ZM39.8486 245.02L39.8486 245.942L43 245.942L43 247.214L35.6035 247.214L35.6035 245.942L38.7344 245.942L38.7344 245.115L35.6035 242.627L35.6035 241.096L39.1582 244.021L43 240.85L43 242.456L39.8486 245.02ZM39.3838 233.515C40.5094 233.515 41.4163 233.772 42.1045 234.287C42.7926 234.802 43.1367 235.499 43.1367 236.379C43.1367 237.277 42.8519 237.983 42.2822 238.498L45.8437 238.498L45.8437 239.763L35.6035 239.763L35.6035 238.607L36.4238 238.546C35.7858 238.031 35.4668 237.315 35.4668 236.399C35.4668 235.511 35.8018 234.809 36.4717 234.294C37.1416 233.774 38.0736 233.515 39.2676 233.515L39.3838 233.515ZM39.2402 234.779C38.4062 234.779 37.7477 234.957 37.2646 235.312C36.7816 235.668 36.54 236.156 36.54 236.775C36.54 237.541 36.8796 238.115 37.5586 238.498L41.0928 238.498C41.7672 238.12 42.1045 237.541 42.1045 236.762C42.1045 236.156 41.8652 235.675 41.3867 235.319C40.9036 234.959 40.1881 234.779 39.2402 234.779ZM43 227.335C42.8542 227.408 42.5944 227.467 42.2207 227.513C42.8314 228.101 43.1367 228.802 43.1367 229.618C43.1367 230.347 42.9316 230.947 42.5215 231.416C42.1068 231.881 41.5827 232.113 40.9492 232.113C40.179 232.113 39.582 231.822 39.1582 231.238C38.7298 230.65 38.5156 229.826 38.5156 228.764L38.5156 227.533L37.9346 227.533C37.4925 227.533 37.1416 227.665 36.8818 227.93C36.6175 228.194 36.4853 228.584 36.4853 229.099C36.4853 229.55 36.5993 229.928 36.8271 230.233C37.055 230.539 37.3307 230.691 37.6543 230.691L37.6543 231.963C37.2852 231.963 36.9297 231.833 36.5879 231.573C36.2415 231.309 35.9681 230.953 35.7676 230.507C35.5671 230.056 35.4668 229.561 35.4668 229.023C35.4668 228.171 35.681 227.504 36.1094 227.021C36.5332 226.537 37.1188 226.287 37.8662 226.269L41.2705 226.269C41.9495 226.269 42.4896 226.182 42.8906 226.009L43 226.009L43 227.335ZM42.0361 229.434C42.0361 229.037 41.9336 228.661 41.7285 228.306C41.5234 227.95 41.2568 227.693 40.9287 227.533L39.4111 227.533L39.4111 228.524C39.4111 230.074 39.8646 230.849 40.7715 230.849C41.168 230.849 41.4779 230.716 41.7012 230.452C41.9245 230.188 42.0361 229.848 42.0361 229.434ZM36.6289 218.899L36.6289 221.381L43 221.381L43 222.646L36.6289 222.646L36.6289 225.079L35.6035 225.079L35.6035 218.899L36.6289 218.899ZM39.8486 215.365L39.8486 216.288L43 216.288L43 217.56L35.6035 217.56L35.6035 216.288L38.7344 216.288L38.7344 215.461L35.6035 212.973L35.6035 211.441L39.1582 214.367L43 211.195L43 212.802L39.8486 215.365ZM39.2334 210.594C38.5088 210.594 37.8571 210.452 37.2783 210.17C36.6995 209.883 36.2529 209.486 35.9385 208.98C35.624 208.47 35.4668 207.889 35.4668 207.237C35.4668 206.23 35.8154 205.417 36.5127 204.797C37.21 204.173 38.1374 203.86 39.2949 203.86L39.3838 203.86C40.1038 203.86 40.751 203.999 41.3252 204.277C41.8949 204.551 42.3392 204.945 42.6582 205.46C42.9772 205.97 43.1367 206.558 43.1367 207.224C43.1367 208.226 42.7881 209.04 42.0908 209.664C41.3936 210.284 40.4707 210.594 39.3223 210.594L39.2334 210.594ZM39.3838 209.322C40.2041 209.322 40.8626 209.133 41.3594 208.755C41.8561 208.372 42.1045 207.862 42.1045 207.224C42.1045 206.581 41.8538 206.071 41.3525 205.692C40.8467 205.314 40.1403 205.125 39.2334 205.125C38.4222 205.125 37.7659 205.319 37.2646 205.706C36.7588 206.089 36.5059 206.599 36.5059 207.237C36.5059 207.862 36.7542 208.365 37.251 208.748C37.7477 209.131 38.4587 209.322 39.3838 209.322ZM42.1045 199.308C42.1045 198.856 41.9678 198.462 41.6943 198.125C41.4209 197.788 41.0791 197.601 40.6689 197.564L40.6689 196.368C41.0928 196.391 41.4961 196.537 41.8789 196.806C42.2617 197.075 42.5671 197.435 42.7949 197.886C43.0228 198.332 43.1367 198.806 43.1367 199.308C43.1367 200.315 42.8018 201.117 42.1318 201.714C41.4574 202.306 40.5368 202.603 39.3701 202.603L39.1582 202.603C38.4381 202.603 37.7978 202.47 37.2373 202.206C36.6768 201.942 36.2415 201.563 35.9316 201.071C35.6217 200.575 35.4668 199.989 35.4668 199.314C35.4668 198.485 35.7152 197.797 36.2119 197.25C36.7087 196.699 37.3535 196.405 38.1465 196.368L38.1465 197.564C37.668 197.601 37.276 197.783 36.9707 198.111C36.6608 198.435 36.5059 198.836 36.5059 199.314C36.5059 199.957 36.7383 200.456 37.2031 200.812C37.6634 201.162 38.3311 201.338 39.2061 201.338L39.4453 201.338C40.2975 201.338 40.9538 201.162 41.4141 200.812C41.8743 200.461 42.1045 199.959 42.1045 199.308ZM39.3838 188.698C40.5094 188.698 41.4163 188.956 42.1045 189.471C42.7926 189.986 43.1367 190.683 43.1367 191.562C43.1367 192.46 42.8519 193.167 42.2822 193.682L45.8437 193.682L45.8437 194.946L35.6035 194.946L35.6035 193.791L36.4238 193.729C35.7858 193.215 35.4668 192.499 35.4668 191.583C35.4668 190.694 35.8018 189.993 36.4717 189.478C37.1416 188.958 38.0736 188.698 39.2676 188.698L39.3838 188.698ZM39.2402 189.963C38.4062 189.963 37.7477 190.141 37.2646 190.496C36.7816 190.852 36.54 191.339 36.54 191.959C36.54 192.725 36.8796 193.299 37.5586 193.682L41.0928 193.682C41.7672 193.303 42.1045 192.725 42.1045 191.945C42.1045 191.339 41.8652 190.858 41.3867 190.503C40.9036 190.143 40.1881 189.963 39.2402 189.963ZM39.2334 187.42C38.5088 187.42 37.8571 187.279 37.2783 186.996C36.6995 186.709 36.2529 186.312 35.9385 185.807C35.624 185.296 35.4668 184.715 35.4668 184.063C35.4668 183.056 35.8154 182.243 36.5127 181.623C37.21 180.999 38.1374 180.687 39.2949 180.687L39.3838 180.687C40.1038 180.687 40.751 180.826 41.3252 181.104C41.8949 181.377 42.3392 181.771 42.6582 182.286C42.9772 182.797 43.1367 183.384 43.1367 184.05C43.1367 185.052 42.7881 185.866 42.0908 186.49C41.3935 187.11 40.4707 187.42 39.3223 187.42L39.2334 187.42ZM39.3838 186.148C40.2041 186.148 40.8626 185.959 41.3594 185.581C41.8561 185.198 42.1045 184.688 42.1045 184.05C42.1045 183.407 41.8538 182.897 41.3525 182.519C40.8467 182.14 40.1403 181.951 39.2334 181.951C38.4222 181.951 37.7659 182.145 37.2646 182.532C36.7588 182.915 36.5059 183.425 36.5059 184.063C36.5059 184.688 36.7542 185.191 37.251 185.574C37.7477 185.957 38.4587 186.148 39.3838 186.148ZM43 173.516L43 174.787L40.3203 174.787C40.4661 175.343 40.5391 175.913 40.5391 176.496C40.5391 177.421 40.3021 178.128 39.8281 178.615C39.3542 179.098 38.6797 179.344 37.8047 179.354L35.5967 179.354L35.5967 178.089L37.8457 178.089C38.9486 178.066 39.5 177.535 39.5 176.496C39.5 175.913 39.4271 175.343 39.2812 174.787L35.6035 174.787L35.6035 173.516L43 173.516ZM43 165.442L43 166.707L39.8418 166.707L39.8418 170.104L43 170.104L43 171.376L35.6035 171.376L35.6035 170.104L38.8096 170.104L38.8096 166.707L35.6035 166.707L35.6035 165.442L43 165.442ZM39.2334 163.74C38.5088 163.74 37.8571 163.599 37.2783 163.316C36.6995 163.029 36.2529 162.633 35.9385 162.127C35.624 161.617 35.4668 161.035 35.4668 160.384C35.4668 159.377 35.8154 158.563 36.5127 157.943C37.21 157.319 38.1374 157.007 39.2949 157.007L39.3838 157.007C40.1038 157.007 40.751 157.146 41.3252 157.424C41.8949 157.697 42.3392 158.091 42.6582 158.606C42.9772 159.117 43.1367 159.705 43.1367 160.37C43.1367 161.373 42.7881 162.186 42.0908 162.811C41.3935 163.43 40.4707 163.74 39.3223 163.74L39.2334 163.74ZM39.3838 162.469C40.2041 162.469 40.8626 162.28 41.3594 161.901C41.8561 161.519 42.1045 161.008 42.1045 160.37C42.1045 159.728 41.8538 159.217 41.3525 158.839C40.8467 158.461 40.1403 158.271 39.2334 158.271C38.4222 158.271 37.7659 158.465 37.2646 158.853C36.7588 159.235 36.5059 159.746 36.5059 160.384C36.5059 161.008 36.7542 161.512 37.251 161.895C37.7477 162.277 38.4587 162.469 39.3838 162.469ZM35.6035 150.636L35.6035 149.371L43 149.371L43 150.636L37.6064 150.636L43 154.047L43 155.312L35.6035 155.312L35.6035 154.047L41.0039 154.047L35.6035 150.636ZM32.9101 150.294C33.4616 150.294 33.9059 150.483 34.2432 150.861C34.5758 151.235 34.7422 151.727 34.7422 152.338C34.7422 152.949 34.5736 153.443 34.2363 153.821C33.8991 154.2 33.457 154.389 32.9101 154.389L32.9101 153.356C33.2292 153.356 33.4798 153.27 33.6621 153.097C33.8398 152.924 33.9287 152.671 33.9287 152.338C33.9287 152.019 33.8398 151.771 33.6621 151.593C33.4844 151.41 33.2337 151.319 32.9101 151.319L32.9101 150.294ZM43 137.818L43 139.083L36.6494 139.083L36.6494 142.487L43 142.487L43 143.759L35.6035 143.759L35.6035 137.818L43 137.818ZM43 131.222C42.8542 131.295 42.5944 131.354 42.2207 131.399C42.8314 131.987 43.1367 132.689 43.1367 133.505C43.1367 134.234 42.9316 134.833 42.5215 135.303C42.1068 135.768 41.5827 136 40.9492 136C40.179 136 39.582 135.708 39.1582 135.125C38.7298 134.537 38.5156 133.712 38.5156 132.65L38.5156 131.42L37.9346 131.42C37.4925 131.42 37.1416 131.552 36.8818 131.816C36.6175 132.081 36.4853 132.47 36.4853 132.985C36.4853 133.437 36.5993 133.815 36.8271 134.12C37.055 134.425 37.3307 134.578 37.6543 134.578L37.6543 135.85C37.2851 135.85 36.9297 135.72 36.5879 135.46C36.2415 135.196 35.9681 134.84 35.7676 134.394C35.567 133.942 35.4668 133.448 35.4668 132.91C35.4668 132.058 35.681 131.39 36.1094 130.907C36.5332 130.424 37.1188 130.174 37.8662 130.155L41.2705 130.155C41.9495 130.155 42.4896 130.069 42.8906 129.896L43 129.896L43 131.222ZM42.0361 133.32C42.0361 132.924 41.9336 132.548 41.7285 132.192C41.5234 131.837 41.2568 131.579 40.9287 131.42L39.4111 131.42L39.4111 132.411C39.4111 133.961 39.8646 134.735 40.7715 134.735C41.168 134.735 41.4779 134.603 41.7012 134.339C41.9245 134.075 42.0361 133.735 42.0361 133.32ZM41.3252 123.914L35.6035 121.398L35.6035 119.819L43 119.819L43 121.084L37.6201 121.084L43 123.477L43 124.352L37.5039 126.792L43 126.792L43 128.057L35.6035 128.057L35.6035 126.416L41.3252 123.914ZM35.6035 112.129L43 112.129L43 113.4L40.1221 113.4L40.1221 115.308L43 117.051L43 118.418L39.9307 116.559C39.7575 117.033 39.4909 117.397 39.1309 117.652C38.7663 117.903 38.3424 118.028 37.8594 118.028C37.1849 118.028 36.6426 117.775 36.2324 117.27C35.8177 116.764 35.6081 116.087 35.6035 115.239L35.6035 112.129ZM37.873 116.757C38.2331 116.757 38.5247 116.634 38.748 116.388C38.9668 116.142 39.0784 115.816 39.083 115.41L39.083 113.4L36.6289 113.4L36.6289 115.219C36.6289 115.688 36.7451 116.062 36.9775 116.34C37.2054 116.618 37.5039 116.757 37.873 116.757ZM36.6289 104.603L36.6289 107.084L43 107.084L43 108.349L36.6289 108.349L36.6289 110.782L35.6035 110.782L35.6035 104.603L36.6289 104.603ZM35.6035 98.5869L35.6035 97.3223L43 97.3223L43 98.5869L37.6064 98.5869L43 101.998L43 103.263L35.6035 103.263L35.6035 101.998L41.0039 101.998L35.6035 98.5869Z" fill="#4B4B4B"></path> <path d="M320.805 316.879V324.438H319.715V315.66H320.711L320.805 316.879ZM325.076 318.777V318.9C325.076 319.361 325.021 319.789 324.912 320.184C324.803 320.574 324.643 320.914 324.432 321.203C324.225 321.492 323.969 321.717 323.664 321.877C323.359 322.037 323.01 322.117 322.615 322.117C322.213 322.117 321.857 322.051 321.549 321.918C321.24 321.785 320.979 321.592 320.764 321.338C320.549 321.084 320.377 320.779 320.248 320.424C320.123 320.068 320.037 319.668 319.99 319.223V318.566C320.037 318.098 320.125 317.678 320.254 317.307C320.383 316.936 320.553 316.619 320.764 316.357C320.979 316.092 321.238 315.891 321.543 315.754C321.848 315.613 322.199 315.543 322.598 315.543C322.996 315.543 323.35 315.621 323.658 315.777C323.967 315.93 324.227 316.148 324.438 316.434C324.648 316.719 324.807 317.061 324.912 317.459C325.021 317.854 325.076 318.293 325.076 318.777ZM323.986 318.9V318.777C323.986 318.461 323.953 318.164 323.887 317.887C323.82 317.605 323.717 317.359 323.576 317.148C323.439 316.934 323.264 316.766 323.049 316.645C322.834 316.52 322.578 316.457 322.281 316.457C322.008 316.457 321.77 316.504 321.566 316.598C321.367 316.691 321.197 316.818 321.057 316.979C320.916 317.135 320.801 317.314 320.711 317.518C320.625 317.717 320.561 317.924 320.518 318.139V319.656C320.596 319.93 320.705 320.188 320.846 320.43C320.986 320.668 321.174 320.861 321.408 321.01C321.643 321.154 321.938 321.227 322.293 321.227C322.586 321.227 322.838 321.166 323.049 321.045C323.264 320.92 323.439 320.75 323.576 320.535C323.717 320.32 323.82 320.074 323.887 319.797C323.953 319.516 323.986 319.217 323.986 318.9ZM326.799 318.062L330.848 319.703V320.852L326.055 318.631V317.957L326.799 318.062ZM330.848 316.715L326.805 318.379L326.055 318.461V317.781L330.848 315.566V316.715ZM337.803 317.055V318.355C337.803 319.055 337.74 319.645 337.615 320.125C337.49 320.605 337.311 320.992 337.076 321.285C336.842 321.578 336.559 321.791 336.227 321.924C335.898 322.053 335.527 322.117 335.113 322.117C334.785 322.117 334.482 322.076 334.205 321.994C333.928 321.912 333.678 321.781 333.455 321.602C333.236 321.418 333.049 321.18 332.893 320.887C332.736 320.594 332.617 320.238 332.535 319.82C332.453 319.402 332.412 318.914 332.412 318.355V317.055C332.412 316.355 332.475 315.77 332.6 315.297C332.729 314.824 332.91 314.445 333.145 314.16C333.379 313.871 333.66 313.664 333.988 313.539C334.32 313.414 334.691 313.352 335.102 313.352C335.434 313.352 335.738 313.393 336.016 313.475C336.297 313.553 336.547 313.68 336.766 313.855C336.984 314.027 337.17 314.258 337.322 314.547C337.479 314.832 337.598 315.182 337.68 315.596C337.762 316.01 337.803 316.496 337.803 317.055ZM336.713 318.531V316.873C336.713 316.49 336.689 316.154 336.643 315.865C336.6 315.572 336.535 315.322 336.449 315.115C336.363 314.908 336.254 314.74 336.121 314.611C335.992 314.482 335.842 314.389 335.67 314.33C335.502 314.268 335.312 314.236 335.102 314.236C334.844 314.236 334.615 314.285 334.416 314.383C334.217 314.477 334.049 314.627 333.912 314.834C333.779 315.041 333.678 315.312 333.607 315.648C333.537 315.984 333.502 316.393 333.502 316.873V318.531C333.502 318.914 333.523 319.252 333.566 319.545C333.613 319.838 333.682 320.092 333.771 320.307C333.861 320.518 333.971 320.691 334.1 320.828C334.229 320.965 334.377 321.066 334.545 321.133C334.717 321.195 334.906 321.227 335.113 321.227C335.379 321.227 335.611 321.176 335.811 321.074C336.01 320.973 336.176 320.814 336.309 320.6C336.445 320.381 336.547 320.102 336.613 319.762C336.68 319.418 336.713 319.008 336.713 318.531ZM340.299 320.711V321.584C340.299 321.939 340.209 322.314 340.029 322.709C339.85 323.107 339.598 323.439 339.273 323.705L338.658 323.277C338.783 323.105 338.889 322.93 338.975 322.75C339.061 322.574 339.125 322.391 339.168 322.199C339.215 322.012 339.238 321.812 339.238 321.602V320.711H340.299ZM346.92 317.055V318.355C346.92 319.055 346.857 319.645 346.732 320.125C346.607 320.605 346.428 320.992 346.193 321.285C345.959 321.578 345.676 321.791 345.344 321.924C345.016 322.053 344.645 322.117 344.23 322.117C343.902 322.117 343.6 322.076 343.322 321.994C343.045 321.912 342.795 321.781 342.572 321.602C342.354 321.418 342.166 321.18 342.01 320.887C341.854 320.594 341.734 320.238 341.652 319.82C341.57 319.402 341.529 318.914 341.529 318.355V317.055C341.529 316.355 341.592 315.77 341.717 315.297C341.846 314.824 342.027 314.445 342.262 314.16C342.496 313.871 342.777 313.664 343.105 313.539C343.438 313.414 343.809 313.352 344.219 313.352C344.551 313.352 344.855 313.393 345.133 313.475C345.414 313.553 345.664 313.68 345.883 313.855C346.102 314.027 346.287 314.258 346.439 314.547C346.596 314.832 346.715 315.182 346.797 315.596C346.879 316.01 346.92 316.496 346.92 317.055ZM345.83 318.531V316.873C345.83 316.49 345.807 316.154 345.76 315.865C345.717 315.572 345.652 315.322 345.566 315.115C345.48 314.908 345.371 314.74 345.238 314.611C345.109 314.482 344.959 314.389 344.787 314.33C344.619 314.268 344.43 314.236 344.219 314.236C343.961 314.236 343.732 314.285 343.533 314.383C343.334 314.477 343.166 314.627 343.029 314.834C342.896 315.041 342.795 315.312 342.725 315.648C342.654 315.984 342.619 316.393 342.619 316.873V318.531C342.619 318.914 342.641 319.252 342.684 319.545C342.73 319.838 342.799 320.092 342.889 320.307C342.979 320.518 343.088 320.691 343.217 320.828C343.346 320.965 343.494 321.066 343.662 321.133C343.834 321.195 344.023 321.227 344.23 321.227C344.496 321.227 344.729 321.176 344.928 321.074C345.127 320.973 345.293 320.814 345.426 320.6C345.562 320.381 345.664 320.102 345.73 319.762C345.797 319.418 345.83 319.008 345.83 318.531ZM353.67 317.055V318.355C353.67 319.055 353.607 319.645 353.482 320.125C353.357 320.605 353.178 320.992 352.943 321.285C352.709 321.578 352.426 321.791 352.094 321.924C351.766 322.053 351.395 322.117 350.98 322.117C350.652 322.117 350.35 322.076 350.072 321.994C349.795 321.912 349.545 321.781 349.322 321.602C349.104 321.418 348.916 321.18 348.76 320.887C348.604 320.594 348.484 320.238 348.402 319.82C348.32 319.402 348.279 318.914 348.279 318.355V317.055C348.279 316.355 348.342 315.77 348.467 315.297C348.596 314.824 348.777 314.445 349.012 314.16C349.246 313.871 349.527 313.664 349.855 313.539C350.188 313.414 350.559 313.352 350.969 313.352C351.301 313.352 351.605 313.393 351.883 313.475C352.164 313.553 352.414 313.68 352.633 313.855C352.852 314.027 353.037 314.258 353.189 314.547C353.346 314.832 353.465 315.182 353.547 315.596C353.629 316.01 353.67 316.496 353.67 317.055ZM352.58 318.531V316.873C352.58 316.49 352.557 316.154 352.51 315.865C352.467 315.572 352.402 315.322 352.316 315.115C352.23 314.908 352.121 314.74 351.988 314.611C351.859 314.482 351.709 314.389 351.537 314.33C351.369 314.268 351.18 314.236 350.969 314.236C350.711 314.236 350.482 314.285 350.283 314.383C350.084 314.477 349.916 314.627 349.779 314.834C349.646 315.041 349.545 315.312 349.475 315.648C349.404 315.984 349.369 316.393 349.369 316.873V318.531C349.369 318.914 349.391 319.252 349.434 319.545C349.48 319.838 349.549 320.092 349.639 320.307C349.729 320.518 349.838 320.691 349.967 320.828C350.096 320.965 350.244 321.066 350.412 321.133C350.584 321.195 350.773 321.227 350.98 321.227C351.246 321.227 351.479 321.176 351.678 321.074C351.877 320.973 352.043 320.814 352.176 320.6C352.312 320.381 352.414 320.102 352.48 319.762C352.547 319.418 352.58 319.008 352.58 318.531ZM358.627 313.422V322H357.543V314.775L355.357 315.572V314.594L358.457 313.422H358.627Z" fill="#454545"></path> <path d="M246.061 143.939C245.475 143.354 244.525 143.354 243.939 143.939L234.393 153.485C233.808 154.071 233.808 155.021 234.393 155.607C234.979 156.192 235.929 156.192 236.515 155.607L245 147.121L253.485 155.607C254.071 156.192 255.021 156.192 255.607 155.607C256.192 155.021 256.192 154.071 255.607 153.485L246.061 143.939ZM246.5 211L246.5 145L243.5 145L243.5 211L246.5 211Z" fill="white"></path> <path d="M380.341 39.6447V50.5967H378.889V39.6447H380.341ZM387.088 39.6447L382.334 45.6698H379.762L379.536 44.4663H381.469L385.29 39.6447H387.088ZM385.629 50.5967L381.514 45.4817L382.327 44.2105L387.404 50.5967H385.629ZM387.93 46.6176V46.4446C387.93 45.8578 388.016 45.3138 388.186 44.8123C388.357 44.3058 388.602 43.867 388.923 43.4959C389.244 43.1198 389.633 42.829 390.089 42.6234C390.546 42.4128 391.057 42.3075 391.624 42.3075C392.195 42.3075 392.709 42.4128 393.166 42.6234C393.627 42.829 394.018 43.1198 394.339 43.4959C394.665 43.867 394.913 44.3058 395.084 44.8123C395.254 45.3138 395.34 45.8578 395.34 46.4446V46.6176C395.34 47.2043 395.254 47.7484 395.084 48.2498C394.913 48.7513 394.665 49.1901 394.339 49.5662C394.018 49.9373 393.63 50.2281 393.173 50.4387C392.722 50.6443 392.21 50.7471 391.639 50.7471C391.067 50.7471 390.553 50.6443 390.097 50.4387C389.64 50.2281 389.249 49.9373 388.923 49.5662C388.602 49.1901 388.357 48.7513 388.186 48.2498C388.016 47.7484 387.93 47.2043 387.93 46.6176ZM389.322 46.4446V46.6176C389.322 47.0237 389.37 47.4074 389.465 47.7684C389.56 48.1245 389.703 48.4404 389.894 48.7162C390.089 48.992 390.333 49.2101 390.623 49.3706C390.914 49.5261 391.253 49.6038 391.639 49.6038C392.02 49.6038 392.353 49.5261 392.639 49.3706C392.93 49.2101 393.171 48.992 393.361 48.7162C393.552 48.4404 393.695 48.1245 393.79 47.7684C393.89 47.4074 393.941 47.0237 393.941 46.6176V46.4446C393.941 46.0434 393.89 45.6648 393.79 45.3087C393.695 44.9477 393.549 44.6293 393.354 44.3534C393.163 44.0726 392.923 43.852 392.632 43.6915C392.346 43.531 392.01 43.4508 391.624 43.4508C391.243 43.4508 390.907 43.531 390.616 43.6915C390.33 43.852 390.089 44.0726 389.894 44.3534C389.703 44.6293 389.56 44.9477 389.465 45.3087C389.37 45.6648 389.322 46.0434 389.322 46.4446ZM402.606 45.9857V47.114H398.303V45.9857H402.606ZM398.597 42.4579V50.5967H397.205V42.4579H398.597ZM403.734 42.4579V50.5967H402.335V42.4579H403.734ZM409.293 42.4579V50.5967H407.894V42.4579H409.293ZM412.023 42.4579V43.5862H405.216V42.4579H412.023ZM414.784 44.0225V53.7258H413.385V42.4579H414.664L414.784 44.0225ZM420.267 46.4596V46.6176C420.267 47.2093 420.197 47.7584 420.057 48.2649C419.916 48.7663 419.711 49.2026 419.44 49.5737C419.174 49.9448 418.846 50.2331 418.455 50.4387C418.063 50.6443 417.615 50.7471 417.108 50.7471C416.592 50.7471 416.135 50.6619 415.739 50.4914C415.343 50.3209 415.007 50.0726 414.731 49.7467C414.455 49.4207 414.235 49.0296 414.069 48.5733C413.909 48.1169 413.799 47.6029 413.738 47.0313V46.1888C413.799 45.587 413.911 45.048 414.077 44.5716C414.242 44.0952 414.46 43.689 414.731 43.353C415.007 43.012 415.341 42.7538 415.732 42.5783C416.123 42.3977 416.574 42.3075 417.086 42.3075C417.597 42.3075 418.051 42.4078 418.447 42.6083C418.843 42.8039 419.177 43.0847 419.448 43.4508C419.718 43.8169 419.921 44.2557 420.057 44.7672C420.197 45.2736 420.267 45.8378 420.267 46.4596ZM418.868 46.6176V46.4596C418.868 46.0534 418.826 45.6723 418.74 45.3163C418.655 44.9552 418.522 44.6393 418.342 44.3685C418.166 44.0927 417.941 43.8771 417.665 43.7216C417.389 43.5611 417.061 43.4809 416.679 43.4809C416.328 43.4809 416.023 43.5411 415.762 43.6614C415.506 43.7818 415.288 43.9448 415.107 44.1504C414.927 44.3509 414.779 44.5816 414.664 44.8424C414.553 45.0981 414.471 45.3639 414.415 45.6397V47.5879C414.516 47.9389 414.656 48.2699 414.837 48.5808C415.017 48.8867 415.258 49.1349 415.559 49.3255C415.86 49.511 416.238 49.6038 416.694 49.6038C417.071 49.6038 417.394 49.5261 417.665 49.3706C417.941 49.2101 418.166 48.992 418.342 48.7162C418.522 48.4404 418.655 48.1245 418.74 47.7684C418.826 47.4074 418.868 47.0237 418.868 46.6176ZM421.674 46.6176V46.4446C421.674 45.8578 421.759 45.3138 421.93 44.8123C422.1 44.3058 422.346 43.867 422.667 43.4959C422.988 43.1198 423.377 42.829 423.833 42.6234C424.289 42.4128 424.801 42.3075 425.367 42.3075C425.939 42.3075 426.453 42.4128 426.909 42.6234C427.371 42.829 427.762 43.1198 428.083 43.4959C428.409 43.867 428.657 44.3058 428.827 44.8123C428.998 45.3138 429.083 45.8578 429.083 46.4446V46.6176C429.083 47.2043 428.998 47.7484 428.827 48.2498C428.657 48.7513 428.409 49.1901 428.083 49.5662C427.762 49.9373 427.373 50.2281 426.917 50.4387C426.466 50.6443 425.954 50.7471 425.382 50.7471C424.811 50.7471 424.297 50.6443 423.84 50.4387C423.384 50.2281 422.993 49.9373 422.667 49.5662C422.346 49.1901 422.1 48.7513 421.93 48.2498C421.759 47.7484 421.674 47.2043 421.674 46.6176ZM423.066 46.4446V46.6176C423.066 47.0237 423.113 47.4074 423.209 47.7684C423.304 48.1245 423.447 48.4404 423.637 48.7162C423.833 48.992 424.076 49.2101 424.367 49.3706C424.658 49.5261 424.996 49.6038 425.382 49.6038C425.763 49.6038 426.097 49.5261 426.383 49.3706C426.674 49.2101 426.914 48.992 427.105 48.7162C427.295 48.4404 427.438 48.1245 427.534 47.7684C427.634 47.4074 427.684 47.0237 427.684 46.6176V46.4446C427.684 46.0434 427.634 45.6648 427.534 45.3087C427.438 44.9477 427.293 44.6293 427.097 44.3534C426.907 44.0726 426.666 43.852 426.375 43.6915C426.089 43.531 425.753 43.4508 425.367 43.4508C424.986 43.4508 424.65 43.531 424.359 43.6915C424.074 43.852 423.833 44.0726 423.637 44.3534C423.447 44.6293 423.304 44.9477 423.209 45.3087C423.113 45.6648 423.066 46.0434 423.066 46.4446ZM436.146 42.4579V43.6088H432.212V42.4579H436.146ZM437.372 42.4579V50.5967H435.981V42.4579H437.372ZM431.874 42.4579H433.273L433.062 46.3844C433.027 46.9911 432.97 47.5277 432.889 47.9941C432.814 48.4554 432.709 48.8516 432.573 49.1825C432.443 49.5135 432.278 49.7843 432.077 49.9949C431.881 50.2005 431.646 50.3535 431.37 50.4538C431.094 50.549 430.776 50.5967 430.415 50.5967H429.978V49.3706L430.279 49.348C430.495 49.333 430.678 49.2828 430.828 49.1976C430.984 49.1123 431.114 48.987 431.219 48.8215C431.325 48.651 431.41 48.4329 431.475 48.1671C431.545 47.9013 431.598 47.5854 431.633 47.2193C431.673 46.8532 431.703 46.427 431.723 45.9406L431.874 42.4579ZM440.757 45.2561H443.202C443.859 45.2561 444.413 45.3714 444.864 45.6021C445.316 45.8278 445.657 46.1412 445.887 46.5423C446.123 46.9385 446.241 47.3898 446.241 47.8963C446.241 48.2724 446.176 48.6259 446.045 48.9569C445.915 49.2828 445.719 49.5687 445.459 49.8144C445.203 50.0601 444.884 50.2532 444.503 50.3936C444.127 50.529 443.693 50.5967 443.202 50.5967H439.742V42.4579H441.133V49.4533H443.202C443.603 49.4533 443.924 49.3806 444.165 49.2352C444.405 49.0898 444.578 48.9017 444.684 48.6711C444.789 48.4404 444.842 48.1997 444.842 47.9489C444.842 47.7032 444.789 47.4625 444.684 47.2268C444.578 46.9911 444.405 46.7956 444.165 46.6401C443.924 46.4797 443.603 46.3994 443.202 46.3994H440.757V45.2561ZM453.499 45.9857V47.114H449.197V45.9857H453.499ZM449.49 42.4579V50.5967H448.099V42.4579H449.49ZM454.628 42.4579V50.5967H453.229V42.4579H454.628ZM461.668 49.2051V45.0154C461.668 44.6944 461.603 44.4161 461.473 44.1804C461.347 43.9397 461.157 43.7542 460.901 43.6238C460.645 43.4934 460.329 43.4282 459.953 43.4282C459.602 43.4282 459.294 43.4884 459.028 43.6088C458.767 43.7291 458.562 43.8871 458.411 44.0827C458.266 44.2782 458.193 44.4888 458.193 44.7145H456.802C456.802 44.4237 456.877 44.1353 457.027 43.8495C457.178 43.5636 457.393 43.3054 457.674 43.0747C457.96 42.839 458.301 42.6535 458.697 42.5181C459.098 42.3777 459.545 42.3075 460.036 42.3075C460.628 42.3075 461.149 42.4078 461.601 42.6083C462.057 42.8089 462.413 43.1123 462.669 43.5185C462.93 43.9197 463.06 44.4237 463.06 45.0304V48.8215C463.06 49.0923 463.082 49.3806 463.128 49.6865C463.178 49.9924 463.25 50.2557 463.346 50.4763V50.5967H461.894C461.824 50.4362 461.769 50.2231 461.729 49.9573C461.688 49.6865 461.668 49.4358 461.668 49.2051ZM461.909 45.6623L461.924 46.6401H460.517C460.121 46.6401 459.768 46.6727 459.457 46.7379C459.146 46.7981 458.885 46.8909 458.675 47.0162C458.464 47.1416 458.304 47.2996 458.193 47.4901C458.083 47.6756 458.028 47.8938 458.028 48.1445C458.028 48.4003 458.085 48.6334 458.201 48.8441C458.316 49.0547 458.489 49.2227 458.72 49.348C458.955 49.4684 459.244 49.5286 459.585 49.5286C460.011 49.5286 460.387 49.4383 460.713 49.2578C461.039 49.0772 461.297 48.8566 461.488 48.5958C461.683 48.3351 461.789 48.0818 461.804 47.8361L462.398 48.5056C462.363 48.7162 462.268 48.9494 462.112 49.2051C461.957 49.4609 461.749 49.7066 461.488 49.9423C461.232 50.1729 460.926 50.366 460.57 50.5215C460.219 50.6719 459.823 50.7471 459.382 50.7471C458.83 50.7471 458.346 50.6393 457.93 50.4237C457.519 50.208 457.198 49.9197 456.967 49.5586C456.741 49.1926 456.629 48.7839 456.629 48.3326C456.629 47.8963 456.714 47.5127 456.884 47.1817C457.055 46.8457 457.301 46.5674 457.622 46.3468C457.942 46.1211 458.329 45.9506 458.78 45.8353C459.231 45.7199 459.735 45.6623 460.292 45.6623H461.909ZM466.896 46.7153H468.401L466.046 50.5967H464.542L466.896 46.7153ZM468.062 42.4579H471.462V50.5967H470.07V43.5862H468.062C467.666 43.5862 467.342 43.6539 467.092 43.7893C466.841 43.9197 466.658 44.0902 466.543 44.3008C466.427 44.5114 466.37 44.7295 466.37 44.9552C466.37 45.1758 466.422 45.389 466.528 45.5946C466.633 45.7952 466.798 45.9606 467.024 46.091C467.25 46.2214 467.541 46.2866 467.897 46.2866H470.446V47.4299H467.897C467.43 47.4299 467.016 47.3672 466.655 47.2419C466.294 47.1165 465.988 46.9435 465.738 46.7229C465.487 46.4972 465.296 46.2339 465.166 45.9331C465.036 45.6272 464.97 45.2962 464.97 44.9402C464.97 44.5841 465.038 44.2557 465.174 43.9548C465.314 43.6539 465.515 43.3906 465.775 43.165C466.041 42.9393 466.365 42.7663 466.746 42.646C467.132 42.5206 467.571 42.4579 468.062 42.4579ZM482.783 42.4579V43.6088H479.022V50.5967H477.63V42.4579H482.783ZM485.385 44.0225V53.7258H483.986V42.4579H485.265L485.385 44.0225ZM490.869 46.4596V46.6176C490.869 47.2093 490.798 47.7584 490.658 48.2649C490.518 48.7663 490.312 49.2026 490.041 49.5737C489.775 49.9448 489.447 50.2331 489.056 50.4387C488.665 50.6443 488.216 50.7471 487.709 50.7471C487.193 50.7471 486.737 50.6619 486.34 50.4914C485.944 50.3209 485.608 50.0726 485.332 49.7467C485.057 49.4207 484.836 49.0296 484.671 48.5733C484.51 48.1169 484.4 47.6029 484.34 47.0313V46.1888C484.4 45.587 484.513 45.048 484.678 44.5716C484.844 44.0952 485.062 43.689 485.332 43.353C485.608 43.012 485.942 42.7538 486.333 42.5783C486.724 42.3977 487.175 42.3075 487.687 42.3075C488.198 42.3075 488.652 42.4078 489.048 42.6083C489.444 42.8039 489.778 43.0847 490.049 43.4508C490.32 43.8169 490.523 44.2557 490.658 44.7672C490.798 45.2736 490.869 45.8378 490.869 46.4596ZM489.47 46.6176V46.4596C489.47 46.0534 489.427 45.6723 489.342 45.3163C489.256 44.9552 489.124 44.6393 488.943 44.3685C488.767 44.0927 488.542 43.8771 488.266 43.7216C487.99 43.5611 487.662 43.4809 487.281 43.4809C486.93 43.4809 486.624 43.5411 486.363 43.6614C486.107 43.7818 485.889 43.9448 485.709 44.1504C485.528 44.3509 485.38 44.5816 485.265 44.8424C485.154 45.0981 485.072 45.3639 485.017 45.6397V47.5879C485.117 47.9389 485.257 48.2699 485.438 48.5808C485.618 48.8867 485.859 49.1349 486.16 49.3255C486.461 49.511 486.839 49.6038 487.296 49.6038C487.672 49.6038 487.995 49.5261 488.266 49.3706C488.542 49.2101 488.767 48.992 488.943 48.7162C489.124 48.4404 489.256 48.1245 489.342 47.7684C489.427 47.4074 489.47 47.0237 489.47 46.6176ZM494.84 49.7542L497.104 42.4579H498.594L495.329 51.8528C495.254 52.0534 495.154 52.2691 495.028 52.4997C494.908 52.7354 494.752 52.9586 494.562 53.1692C494.371 53.3798 494.141 53.5503 493.87 53.6807C493.604 53.8161 493.286 53.8838 492.915 53.8838C492.804 53.8838 492.664 53.8687 492.493 53.8386C492.323 53.8086 492.203 53.7835 492.132 53.7634L492.125 52.6351C492.165 52.6401 492.228 52.6452 492.313 52.6502C492.403 52.6602 492.466 52.6652 492.501 52.6652C492.817 52.6652 493.085 52.6226 493.306 52.5373C493.526 52.4571 493.712 52.3192 493.862 52.1236C494.018 51.9331 494.151 51.6698 494.261 51.3338L494.84 49.7542ZM493.178 42.4579L495.292 48.7764L495.653 50.2431L494.652 50.7546L491.658 42.4579H493.178ZM505.273 42.4579V43.6088H501.159V42.4579H505.273ZM501.362 42.4579V50.5967H499.97V42.4579H501.362ZM506.507 42.4579V50.5967H505.108V42.4579H506.507ZM514.164 42.4579V43.6088H510.05V42.4579H514.164ZM510.253 42.4579V50.5967H508.861V42.4579H510.253ZM515.398 42.4579V50.5967H513.999V42.4579H515.398ZM522.431 49.2051V45.0154C522.431 44.6944 522.366 44.4161 522.235 44.1804C522.11 43.9397 521.919 43.7542 521.664 43.6238C521.408 43.4934 521.092 43.4282 520.716 43.4282C520.365 43.4282 520.056 43.4884 519.791 43.6088C519.53 43.7291 519.324 43.8871 519.174 44.0827C519.028 44.2782 518.956 44.4888 518.956 44.7145H517.564C517.564 44.4237 517.639 44.1353 517.79 43.8495C517.94 43.5636 518.156 43.3054 518.437 43.0747C518.722 42.839 519.063 42.6535 519.46 42.5181C519.861 42.3777 520.307 42.3075 520.799 42.3075C521.39 42.3075 521.912 42.4078 522.363 42.6083C522.819 42.8089 523.175 43.1123 523.431 43.5185C523.692 43.9197 523.822 44.4237 523.822 45.0304V48.8215C523.822 49.0923 523.845 49.3806 523.89 49.6865C523.94 49.9924 524.013 50.2557 524.108 50.4763V50.5967H522.656C522.586 50.4362 522.531 50.2231 522.491 49.9573C522.451 49.6865 522.431 49.4358 522.431 49.2051ZM522.672 45.6623L522.687 46.6401H521.28C520.884 46.6401 520.53 46.6727 520.219 46.7379C519.908 46.7981 519.648 46.8909 519.437 47.0162C519.226 47.1416 519.066 47.2996 518.956 47.4901C518.845 47.6756 518.79 47.8938 518.79 48.1445C518.79 48.4003 518.848 48.6334 518.963 48.8441C519.079 49.0547 519.252 49.2227 519.482 49.348C519.718 49.4684 520.006 49.5286 520.347 49.5286C520.773 49.5286 521.15 49.4383 521.476 49.2578C521.801 49.0772 522.06 48.8566 522.25 48.5958C522.446 48.3351 522.551 48.0818 522.566 47.8361L523.16 48.5056C523.125 48.7162 523.03 48.9494 522.875 49.2051C522.719 49.4609 522.511 49.7066 522.25 49.9423C521.995 50.1729 521.689 50.366 521.333 50.5215C520.982 50.6719 520.585 50.7471 520.144 50.7471C519.593 50.7471 519.109 50.6393 518.692 50.4237C518.281 50.208 517.96 49.9197 517.73 49.5586C517.504 49.1926 517.391 48.7839 517.391 48.3326C517.391 47.8963 517.476 47.5127 517.647 47.1817C517.817 46.8457 518.063 46.5674 518.384 46.3468C518.705 46.1211 519.091 45.9506 519.542 45.8353C519.994 45.7199 520.498 45.6623 521.054 45.6623H522.672Z" fill="#454545"></path> <path fill-rule="evenodd" clip-rule="evenodd" d="M337.186 34C337.186 31.7909 338.977 30 341.186 30H366.186C368.395 30 370.186 31.7909 370.186 34V59C370.186 61.2091 368.395 63 366.186 63H341.186C338.977 63 337.186 61.2091 337.186 59V34Z" fill="#D09CC7"></path> <path fill-rule="evenodd" clip-rule="evenodd" d="M229 34C229 31.7909 230.791 30 233 30H258C260.209 30 262 31.7909 262 34V59C262 61.2091 260.209 63 258 63H233C230.791 63 229 61.2091 229 59V34Z" fill="#6FC4E2"></path> <path d="M275.755 39.048V50H274.326V39.048H275.755ZM279.275 39.048V40.2365H270.813V39.048H279.275ZM281.359 39.048H282.766L286.353 47.9766L289.934 39.048H291.348L286.895 50H285.797L281.359 39.048ZM280.9 39.048H282.141L282.344 45.7275V50H280.9V39.048ZM290.558 39.048H291.799V50H290.355V45.7275L290.558 39.048Z" fill="#454545"></path> <line x1="88" y1="85.5" x2="669" y2="85.5" stroke="#A6A6A6" stroke-opacity="0.26" stroke-dasharray="6 6"></line> <line x1="88" y1="124.5" x2="669" y2="124.5" stroke="#A6A6A6" stroke-opacity="0.26" stroke-dasharray="6 6"></line> <line x1="88" y1="164.5" x2="669" y2="164.5" stroke="#A6A6A6" stroke-opacity="0.26" stroke-dasharray="6 6"></line> <line x1="88" y1="204.5" x2="669" y2="204.5" stroke="#A6A6A6" stroke-opacity="0.26" stroke-dasharray="6 6"></line> <line x1="88" y1="244.5" x2="669" y2="244.5" stroke="#A6A6A6" stroke-opacity="0.26" stroke-dasharray="6 6"></line> </g> <defs> <clipPath id="clip0_499_1157"> <rect width="669" height="358" fill="white"></rect> </clipPath> </defs> </svg> 