<svg width="15" height="48" viewBox="0 0 15 48" fill="none" xmlns="http://www.w3.org/2000/svg">
<path d="M7.27552 47.0431C7.26188 47.0112 5.6821 43.654 4.09466 39.1233C2.51183 34.5827 0.896774 28.9101 0.886124 24.0282C0.886124 23.502 0.906271 22.9856 0.947581 22.4803C1.38524 17.4571 4.22904 12.1004 6.90725 7.85883C9.59618 3.63409 12.1678 0.589925 12.1959 0.555164L12.1966 0.55591C12.7508 -0.100746 13.7313 -0.182828 14.3876 0.371447C15.0427 0.926671 15.1255 1.90813 14.5709 2.56485C14.5709 2.5656 14.4267 2.73485 14.1564 3.07085C13.8858 3.40597 13.4953 3.89921 13.0245 4.51961C12.0824 5.76055 10.8147 7.51136 9.53051 9.52994C6.95168 13.553 4.35202 18.7197 4.04684 22.7357C4.01305 23.1498 3.99562 23.5817 3.99562 24.0281C3.98843 27.6959 5.1355 32.3766 6.45751 36.4063C7.77538 40.4431 9.25002 43.8565 9.83305 45.1554C9.9989 45.527 10.0889 45.7176 10.09 45.7184C10.4556 46.496 10.122 47.4226 9.34458 47.7893C9.1305 47.8899 8.90576 47.9378 8.68415 47.9378C8.10031 47.9377 7.54041 47.6068 7.27552 47.0431Z" fill="white"/>
</svg>
